<svg xmlns="http://www.w3.org/2000/svg" xmlns:xlink="http://www.w3.org/1999/xlink" width="636" zoomAndPan="magnify" viewBox="0 0 476.87997 476.999988" height="636" preserveAspectRatio="xMidYMid meet" version="1.0"><defs><clipPath id="a16d3f60db"><path d="M 47 78.664062 L 197.21875 78.664062 L 197.21875 244 L 47 244 Z M 47 78.664062 " clip-rule="nonzero"/></clipPath><clipPath id="17cebdbe7f"><path d="M 181.355469 170.722656 L 158.835938 164.222656 C 155.867188 163.367188 155.867188 159.207031 158.835938 158.347656 L 181.355469 151.847656 C 195.054688 147.882812 201.382812 132.238281 194.277344 119.976562 C 187.128906 107.710938 170.28125 105.324219 159.992188 115.128906 L 143.070312 131.199219 C 140.839844 133.320312 137.195312 131.238281 137.929688 128.261719 L 143.511719 105.695312 C 146.878906 91.921875 136.402344 78.664062 122.109375 78.664062 C 107.816406 78.664062 97.339844 91.921875 100.746094 105.695312 L 106.324219 128.261719 C 107.0625 131.238281 103.414062 133.320312 101.183594 131.199219 L 84.269531 115.128906 C 73.976562 105.324219 57.128906 107.710938 49.980469 119.976562 C 42.835938 132.238281 49.164062 147.882812 62.902344 151.847656 L 85.414062 158.347656 C 88.382812 159.203125 88.382812 163.367188 85.414062 164.222656 L 62.863281 170.722656 C 49.164062 174.691406 42.835938 190.332031 49.941406 202.597656 C 57.089844 214.859375 73.9375 217.25 84.226562 207.441406 L 101.148438 191.375 C 103.378906 189.253906 107.023438 191.335938 106.289062 194.308594 L 100.707031 216.878906 C 97.304688 230.648438 107.816406 243.90625 122.070312 243.90625 C 136.367188 243.90625 146.839844 230.648438 143.4375 216.878906 L 137.855469 194.308594 C 137.121094 191.335938 140.765625 189.253906 142.996094 191.375 L 159.917969 207.441406 C 170.210938 217.25 187.054688 214.859375 194.203125 202.597656 C 201.382812 190.332031 195.054688 174.691406 181.355469 170.722656 Z M 122.109375 175.386719 C 114.257812 175.386719 107.890625 169.070312 107.890625 161.285156 C 107.890625 153.5 114.257812 147.183594 122.109375 147.183594 C 129.960938 147.183594 136.328125 153.5 136.328125 161.285156 C 136.328125 169.070312 129.960938 175.386719 122.109375 175.386719 Z M 122.109375 175.386719 " clip-rule="nonzero"/></clipPath><clipPath id="973042def7"><path d="M 0 0.664062 L 150.21875 0.664062 L 150.21875 166 L 0 166 Z M 0 0.664062 " clip-rule="nonzero"/></clipPath><clipPath id="8e079a386e"><path d="M 134.355469 92.722656 L 111.835938 86.222656 C 108.867188 85.367188 108.867188 81.207031 111.835938 80.347656 L 134.355469 73.847656 C 148.054688 69.882812 154.382812 54.238281 147.277344 41.976562 C 140.128906 29.710938 123.28125 27.324219 112.992188 37.128906 L 96.070312 53.199219 C 93.839844 55.320312 90.195312 53.238281 90.929688 50.261719 L 96.511719 27.695312 C 99.878906 13.921875 89.402344 0.664062 75.109375 0.664062 C 60.816406 0.664062 50.339844 13.921875 53.746094 27.695312 L 59.324219 50.261719 C 60.0625 53.238281 56.414062 55.320312 54.183594 53.199219 L 37.269531 37.128906 C 26.976562 27.324219 10.128906 29.710938 2.980469 41.976562 C -4.164062 54.238281 2.164062 69.882812 15.902344 73.847656 L 38.414062 80.347656 C 41.382812 81.203125 41.382812 85.367188 38.414062 86.222656 L 15.863281 92.722656 C 2.164062 96.691406 -4.164062 112.332031 2.941406 124.597656 C 10.089844 136.859375 26.9375 139.25 37.226562 129.441406 L 54.148438 113.375 C 56.378906 111.253906 60.023438 113.335938 59.289062 116.308594 L 53.707031 138.878906 C 50.304688 152.648438 60.816406 165.90625 75.070312 165.90625 C 89.367188 165.90625 99.839844 152.648438 96.4375 138.878906 L 90.855469 116.308594 C 90.121094 113.335938 93.765625 111.253906 95.996094 113.375 L 112.917969 129.441406 C 123.210938 139.25 140.054688 136.859375 147.203125 124.597656 C 154.382812 112.332031 148.054688 96.691406 134.355469 92.722656 Z M 75.109375 97.386719 C 67.257812 97.386719 60.890625 91.070312 60.890625 83.285156 C 60.890625 75.5 67.257812 69.183594 75.109375 69.183594 C 82.960938 69.183594 89.328125 75.5 89.328125 83.285156 C 89.328125 91.070312 82.960938 97.386719 75.109375 97.386719 Z M 75.109375 97.386719 " clip-rule="nonzero"/></clipPath><clipPath id="a9cd2e917e"><rect x="0" width="151" y="0" height="166"/></clipPath><clipPath id="18b9c216a2"><path d="M 147.25 121.570312 L 286.984375 121.570312 L 286.984375 261.304688 L 147.25 261.304688 Z M 147.25 121.570312 " clip-rule="nonzero"/></clipPath><clipPath id="1bc0718afc"><path d="M 217.117188 121.570312 C 178.53125 121.570312 147.25 152.851562 147.25 191.4375 C 147.25 230.023438 178.53125 261.304688 217.117188 261.304688 C 255.707031 261.304688 286.984375 230.023438 286.984375 191.4375 C 286.984375 152.851562 255.707031 121.570312 217.117188 121.570312 Z M 217.117188 121.570312 " clip-rule="nonzero"/></clipPath><clipPath id="c5cd2863cf"><path d="M 0.25 0.570312 L 139.984375 0.570312 L 139.984375 140.304688 L 0.25 140.304688 Z M 0.25 0.570312 " clip-rule="nonzero"/></clipPath><clipPath id="99a2bf1cc0"><path d="M 70.117188 0.570312 C 31.53125 0.570312 0.25 31.851562 0.25 70.4375 C 0.25 109.023438 31.53125 140.304688 70.117188 140.304688 C 108.707031 140.304688 139.984375 109.023438 139.984375 70.4375 C 139.984375 31.851562 108.707031 0.570312 70.117188 0.570312 Z M 70.117188 0.570312 " clip-rule="nonzero"/></clipPath><clipPath id="6a0d3bc497"><rect x="0" width="140" y="0" height="141"/></clipPath><clipPath id="61b7295bd0"><path d="M 172.21875 143.46875 L 217.117188 143.46875 L 217.117188 188.367188 L 172.21875 188.367188 Z M 172.21875 143.46875 " clip-rule="nonzero"/></clipPath><clipPath id="314f48d8c3"><path d="M 194.667969 143.46875 C 182.269531 143.46875 172.21875 153.519531 172.21875 165.917969 C 172.21875 178.316406 182.269531 188.367188 194.667969 188.367188 C 207.066406 188.367188 217.117188 178.316406 217.117188 165.917969 C 217.117188 153.519531 207.066406 143.46875 194.667969 143.46875 Z M 194.667969 143.46875 " clip-rule="nonzero"/></clipPath><clipPath id="5e056265ec"><path d="M 0.21875 0.46875 L 45.117188 0.46875 L 45.117188 45.367188 L 0.21875 45.367188 Z M 0.21875 0.46875 " clip-rule="nonzero"/></clipPath><clipPath id="d89c154ddf"><path d="M 22.667969 0.46875 C 10.269531 0.46875 0.21875 10.519531 0.21875 22.917969 C 0.21875 35.316406 10.269531 45.367188 22.667969 45.367188 C 35.066406 45.367188 45.117188 35.316406 45.117188 22.917969 C 45.117188 10.519531 35.066406 0.46875 22.667969 0.46875 Z M 22.667969 0.46875 " clip-rule="nonzero"/></clipPath><clipPath id="1540bec189"><rect x="0" width="46" y="0" height="46"/></clipPath><clipPath id="4551608a78"><path d="M 342 281 L 455 281 L 455 338 L 342 338 Z M 342 281 " clip-rule="nonzero"/></clipPath><clipPath id="e7abfc89fc"><path d="M 348.5 271.515625 L 459.886719 298.953125 L 447.941406 347.445312 L 336.558594 320.011719 Z M 348.5 271.515625 " clip-rule="nonzero"/></clipPath><clipPath id="b181c37686"><path d="M 404.191406 285.234375 C 373.433594 277.65625 345.828125 282.371094 342.53125 295.761719 C 339.230469 309.15625 361.492188 326.152344 392.246094 333.726562 C 423.003906 341.304688 450.609375 336.589844 453.910156 323.195312 C 457.207031 309.804688 434.949219 292.808594 404.191406 285.234375 Z M 404.191406 285.234375 " clip-rule="nonzero"/></clipPath><clipPath id="b82c3960c4"><path d="M 0 0 L 113 0 L 113 57 L 0 57 Z M 0 0 " clip-rule="nonzero"/></clipPath><clipPath id="6a23d40c55"><path d="M 6.5 -9.484375 L 117.886719 17.953125 L 105.941406 66.445312 L -5.441406 39.011719 Z M 6.5 -9.484375 " clip-rule="nonzero"/></clipPath><clipPath id="7fe30bfa33"><path d="M 62.191406 4.234375 C 31.433594 -3.34375 3.828125 1.371094 0.53125 14.761719 C -2.769531 28.15625 19.492188 45.152344 50.246094 52.726562 C 81.003906 60.304688 108.609375 55.589844 111.910156 42.195312 C 115.207031 28.804688 92.949219 11.808594 62.191406 4.234375 Z M 62.191406 4.234375 " clip-rule="nonzero"/></clipPath><clipPath id="7e653a8566"><rect x="0" width="113" y="0" height="57"/></clipPath><clipPath id="34656fa544"><path d="M 342 245 L 467 245 L 467 324 L 342 324 Z M 342 245 " clip-rule="nonzero"/></clipPath><clipPath id="4a047723b4"><path d="M 354.886719 245.597656 L 466.265625 273.03125 L 453.910156 323.195312 L 342.53125 295.761719 Z M 354.886719 245.597656 " clip-rule="nonzero"/></clipPath><clipPath id="84dd834e43"><path d="M 0.394531 0.519531 L 124.441406 0.519531 L 124.441406 78.257812 L 0.394531 78.257812 Z M 0.394531 0.519531 " clip-rule="nonzero"/></clipPath><clipPath id="c754600b84"><path d="M 12.886719 0.597656 L 124.265625 28.03125 L 111.910156 78.195312 L 0.53125 50.761719 Z M 12.886719 0.597656 " clip-rule="nonzero"/></clipPath><clipPath id="7f7c403be5"><rect x="0" width="125" y="0" height="79"/></clipPath><clipPath id="7d43f85e69"><path d="M 353 229 L 467 229 L 467 294 L 353 294 Z M 353 229 " clip-rule="nonzero"/></clipPath><clipPath id="a09ffe32b7"><path d="M 361.445312 218.964844 L 473.039062 246.449219 L 458.941406 303.703125 L 347.34375 276.214844 Z M 361.445312 218.964844 " clip-rule="nonzero"/></clipPath><clipPath id="ab68bb297b"><path d="M 417.136719 232.679688 C 386.378906 225.105469 358.289062 231.78125 354.394531 247.589844 C 350.5 263.398438 372.277344 282.355469 403.035156 289.933594 C 433.789062 297.507812 461.878906 290.832031 465.773438 275.023438 C 469.667969 259.214844 447.890625 240.257812 417.136719 232.679688 Z M 417.136719 232.679688 " clip-rule="nonzero"/></clipPath><clipPath id="287a6abb53"><path d="M 0 0 L 114 0 L 114 65 L 0 65 Z M 0 0 " clip-rule="nonzero"/></clipPath><clipPath id="647cc7b24a"><path d="M 8.445312 -10.035156 L 120.039062 17.449219 L 105.941406 74.703125 L -5.65625 47.214844 Z M 8.445312 -10.035156 " clip-rule="nonzero"/></clipPath><clipPath id="b9b2c84f17"><path d="M 64.136719 3.679688 C 33.378906 -3.894531 5.289062 2.78125 1.394531 18.589844 C -2.5 34.398438 19.277344 53.355469 50.035156 60.933594 C 80.789062 68.507812 108.878906 61.832031 112.773438 46.023438 C 116.667969 30.214844 94.890625 11.257812 64.136719 3.679688 Z M 64.136719 3.679688 " clip-rule="nonzero"/></clipPath><clipPath id="4947f68aa6"><rect x="0" width="114" y="0" height="65"/></clipPath><clipPath id="0e9fcc4427"><path d="M 386 244 L 435 244 L 435 275 L 386 275 Z M 386 244 " clip-rule="nonzero"/></clipPath><clipPath id="c6b407c7cf"><path d="M 389.894531 239.816406 L 437.957031 251.652344 L 431.265625 278.8125 L 383.203125 266.976562 Z M 389.894531 239.816406 " clip-rule="nonzero"/></clipPath><clipPath id="9fe8b73fa3"><path d="M 413.921875 245.734375 C 400.652344 242.464844 388.394531 245.894531 386.546875 253.394531 C 384.703125 260.894531 393.960938 269.625 407.230469 272.894531 C 420.5 276.164062 432.753906 272.730469 434.601562 265.230469 C 436.449219 257.730469 427.191406 249.003906 413.921875 245.734375 Z M 413.921875 245.734375 " clip-rule="nonzero"/></clipPath><clipPath id="843ea077d1"><path d="M 0 0 L 49 0 L 49 31 L 0 31 Z M 0 0 " clip-rule="nonzero"/></clipPath><clipPath id="1c1325bac4"><path d="M 3.894531 -4.183594 L 51.957031 7.652344 L 45.265625 34.8125 L -2.796875 22.976562 Z M 3.894531 -4.183594 " clip-rule="nonzero"/></clipPath><clipPath id="e14020a353"><path d="M 27.921875 1.734375 C 14.652344 -1.535156 2.394531 1.894531 0.546875 9.394531 C -1.296875 16.894531 7.960938 25.625 21.230469 28.894531 C 34.5 32.164062 46.753906 28.730469 48.601562 21.230469 C 50.449219 13.730469 41.191406 5.003906 27.921875 1.734375 Z M 27.921875 1.734375 " clip-rule="nonzero"/></clipPath><clipPath id="1f34177cc1"><rect x="0" width="49" y="0" height="31"/></clipPath><clipPath id="f469896d09"><path d="M 241 104.195312 L 378.777344 104.195312 L 378.777344 255.75 L 241 255.75 Z M 241 104.195312 " clip-rule="nonzero"/></clipPath><clipPath id="756db659f5"><path d="M 364.246094 188.507812 L 343.625 182.554688 C 340.90625 181.769531 340.90625 177.957031 343.625 177.175781 L 364.246094 171.222656 C 376.792969 167.585938 382.589844 153.261719 376.082031 142.027344 C 369.539062 130.796875 354.105469 128.609375 344.679688 137.589844 L 329.183594 152.308594 C 327.140625 154.25 323.800781 152.34375 324.476562 149.621094 L 329.589844 128.949219 C 332.671875 116.335938 323.074219 104.195312 309.984375 104.195312 C 296.894531 104.195312 287.296875 116.335938 290.417969 128.949219 L 295.53125 149.621094 C 296.203125 152.34375 292.863281 154.25 290.820312 152.308594 L 275.328125 137.589844 C 265.898438 128.609375 250.46875 130.796875 243.925781 142.027344 C 237.378906 153.261719 243.175781 167.585938 255.761719 171.222656 L 276.378906 177.171875 C 279.097656 177.957031 279.097656 181.769531 276.378906 182.554688 L 255.726562 188.507812 C 243.175781 192.140625 237.378906 206.46875 243.890625 217.699219 C 250.433594 228.933594 265.863281 231.121094 275.292969 222.136719 L 290.785156 207.421875 C 292.832031 205.480469 296.171875 207.386719 295.496094 210.109375 L 290.382812 230.78125 C 287.265625 243.394531 296.894531 255.535156 309.949219 255.535156 C 323.042969 255.535156 332.636719 243.394531 329.519531 230.78125 L 324.40625 210.109375 C 323.734375 207.386719 327.070312 205.480469 329.117188 207.421875 L 344.613281 222.136719 C 354.039062 231.121094 369.46875 228.933594 376.015625 217.699219 C 382.589844 206.46875 376.792969 192.140625 364.246094 188.507812 Z M 309.984375 192.78125 C 302.796875 192.78125 296.964844 186.996094 296.964844 179.863281 C 296.964844 172.734375 302.796875 166.949219 309.984375 166.949219 C 317.175781 166.949219 323.007812 172.734375 323.007812 179.863281 C 323.007812 186.996094 317.175781 192.78125 309.984375 192.78125 Z M 309.984375 192.78125 " clip-rule="nonzero"/></clipPath><clipPath id="509a588b38"><path d="M 0.140625 0.195312 L 137.777344 0.195312 L 137.777344 151.59375 L 0.140625 151.59375 Z M 0.140625 0.195312 " clip-rule="nonzero"/></clipPath><clipPath id="239675ad75"><path d="M 123.246094 84.507812 L 102.625 78.554688 C 99.90625 77.769531 99.90625 73.957031 102.625 73.175781 L 123.246094 67.222656 C 135.792969 63.585938 141.589844 49.261719 135.082031 38.027344 C 128.539062 26.796875 113.105469 24.609375 103.679688 33.589844 L 88.183594 48.308594 C 86.140625 50.25 82.800781 48.34375 83.476562 45.621094 L 88.589844 24.949219 C 91.671875 12.335938 82.074219 0.195312 68.984375 0.195312 C 55.894531 0.195312 46.296875 12.335938 49.417969 24.949219 L 54.53125 45.621094 C 55.203125 48.34375 51.863281 50.25 49.820312 48.308594 L 34.328125 33.589844 C 24.898438 24.609375 9.46875 26.796875 2.925781 38.027344 C -3.621094 49.261719 2.175781 63.585938 14.761719 67.222656 L 35.378906 73.171875 C 38.097656 73.957031 38.097656 77.769531 35.378906 78.554688 L 14.726562 84.507812 C 2.175781 88.140625 -3.621094 102.46875 2.890625 113.699219 C 9.433594 124.933594 24.863281 127.121094 34.292969 118.136719 L 49.785156 103.421875 C 51.832031 101.480469 55.171875 103.386719 54.496094 106.109375 L 49.382812 126.78125 C 46.265625 139.394531 55.894531 151.535156 68.949219 151.535156 C 82.042969 151.535156 91.636719 139.394531 88.519531 126.78125 L 83.40625 106.109375 C 82.734375 103.386719 86.070312 101.480469 88.117188 103.421875 L 103.613281 118.136719 C 113.039062 127.121094 128.46875 124.933594 135.015625 113.699219 C 141.589844 102.46875 135.792969 88.140625 123.246094 84.507812 Z M 68.984375 88.78125 C 61.796875 88.78125 55.964844 82.996094 55.964844 75.863281 C 55.964844 68.734375 61.796875 62.949219 68.984375 62.949219 C 76.175781 62.949219 82.007812 68.734375 82.007812 75.863281 C 82.007812 82.996094 76.175781 88.78125 68.984375 88.78125 Z M 68.984375 88.78125 " clip-rule="nonzero"/></clipPath><clipPath id="f5e2e3556e"><rect x="0" width="138" y="0" height="152"/></clipPath><clipPath id="0210d34315"><path d="M 258 177 L 407 177 L 407 329 L 258 329 Z M 258 177 " clip-rule="nonzero"/></clipPath><clipPath id="683a63c27a"><path d="M 333.976562 146.851562 L 437.148438 267.929688 L 330.632812 358.695312 L 227.457031 237.613281 Z M 333.976562 146.851562 " clip-rule="nonzero"/></clipPath><clipPath id="50df23daf0"><path d="M 385.496094 207.3125 C 357.042969 173.917969 310.132812 167.167969 280.71875 192.230469 C 251.304688 217.296875 250.523438 264.683594 278.980469 298.078125 C 307.433594 331.46875 354.34375 338.21875 383.757812 313.15625 C 413.171875 288.089844 413.949219 240.703125 385.496094 207.3125 Z M 385.496094 207.3125 " clip-rule="nonzero"/></clipPath><clipPath id="7783aeb8f6"><path d="M 0 0 L 149 0 L 149 152 L 0 152 Z M 0 0 " clip-rule="nonzero"/></clipPath><clipPath id="d6eb410e34"><path d="M 75.976562 -30.148438 L 179.148438 90.929688 L 72.632812 181.695312 L -30.542969 60.613281 Z M 75.976562 -30.148438 " clip-rule="nonzero"/></clipPath><clipPath id="51a2d67c6c"><path d="M 127.496094 30.3125 C 99.042969 -3.082031 52.132812 -9.832031 22.71875 15.230469 C -6.695312 40.296875 -7.476562 87.683594 20.980469 121.078125 C 49.433594 154.46875 96.34375 161.21875 125.757812 136.15625 C 155.171875 111.089844 155.949219 63.703125 127.496094 30.3125 Z M 127.496094 30.3125 " clip-rule="nonzero"/></clipPath><clipPath id="5178b3ad20"><rect x="0" width="149" y="0" height="152"/></clipPath><clipPath id="f59c41010e"><path d="M 324 181 L 405 181 L 405 269 L 324 269 Z M 324 181 " clip-rule="nonzero"/></clipPath><clipPath id="a79ba52e54"><path d="M 351.925781 167.917969 L 419.085938 246.730469 L 377.136719 282.472656 L 309.980469 203.660156 Z M 351.925781 167.917969 " clip-rule="nonzero"/></clipPath><clipPath id="eaeb842ee9"><path d="M 385.496094 207.3125 C 366.957031 185.554688 342.535156 175.917969 330.953125 185.789062 C 319.371094 195.660156 325.011719 221.296875 343.550781 243.054688 C 362.089844 264.8125 386.507812 274.449219 398.089844 264.578125 C 409.675781 254.707031 404.035156 229.070312 385.496094 207.3125 Z M 385.496094 207.3125 " clip-rule="nonzero"/></clipPath><clipPath id="9a8c64add6"><path d="M 0 0 L 81 0 L 81 88 L 0 88 Z M 0 0 " clip-rule="nonzero"/></clipPath><clipPath id="c0f5406ce8"><path d="M 27.925781 -13.082031 L 95.085938 65.730469 L 53.136719 101.472656 L -14.019531 22.660156 Z M 27.925781 -13.082031 " clip-rule="nonzero"/></clipPath><clipPath id="27e7eaddc3"><path d="M 61.496094 26.3125 C 42.957031 4.554688 18.535156 -5.082031 6.953125 4.789062 C -4.628906 14.660156 1.011719 40.296875 19.550781 62.054688 C 38.089844 83.8125 62.507812 93.449219 74.089844 83.578125 C 85.675781 73.707031 80.035156 48.070312 61.496094 26.3125 Z M 61.496094 26.3125 " clip-rule="nonzero"/></clipPath><clipPath id="12dfcc8065"><rect x="0" width="81" y="0" height="88"/></clipPath><clipPath id="b353a8be7d"><path d="M 351 207 L 382 207 L 382 240 L 351 240 Z M 351 207 " clip-rule="nonzero"/></clipPath><clipPath id="417e1d950c"><path d="M 361.707031 202.175781 L 386.800781 231.625 L 371.125 244.980469 L 346.03125 215.53125 Z M 361.707031 202.175781 " clip-rule="nonzero"/></clipPath><clipPath id="44f55af236"><path d="M 374.25 216.894531 C 367.320312 208.765625 358.195312 205.164062 353.867188 208.851562 C 349.539062 212.542969 351.648438 222.121094 358.574219 230.253906 C 365.503906 238.382812 374.628906 241.984375 378.957031 238.296875 C 383.285156 234.605469 381.175781 225.027344 374.25 216.894531 Z M 374.25 216.894531 " clip-rule="nonzero"/></clipPath><clipPath id="c7b4e8ae91"><path d="M 0 0 L 31 0 L 31 33 L 0 33 Z M 0 0 " clip-rule="nonzero"/></clipPath><clipPath id="8bad54caff"><path d="M 10.707031 -4.824219 L 35.800781 24.625 L 20.125 37.980469 L -4.96875 8.53125 Z M 10.707031 -4.824219 " clip-rule="nonzero"/></clipPath><clipPath id="c998879260"><path d="M 23.25 9.894531 C 16.320312 1.765625 7.195312 -1.835938 2.867188 1.851562 C -1.460938 5.542969 0.648438 15.121094 7.574219 23.253906 C 14.503906 31.382812 23.628906 34.984375 27.957031 31.296875 C 32.285156 27.605469 30.175781 18.027344 23.25 9.894531 Z M 23.25 9.894531 " clip-rule="nonzero"/></clipPath><clipPath id="4751a46eb3"><rect x="0" width="31" y="0" height="33"/></clipPath><clipPath id="d34e4ce432"><path d="M 219 247 L 296 247 L 296 316 L 219 316 Z M 219 247 " clip-rule="nonzero"/></clipPath><clipPath id="f2a9b13cdc"><path d="M 227.238281 247.953125 L 295.515625 257.289062 L 287.578125 315.320312 L 219.300781 305.980469 Z M 227.238281 247.953125 " clip-rule="nonzero"/></clipPath><clipPath id="3a364cb5c0"><path d="M 0.0664062 0.917969 L 76.605469 0.917969 L 76.605469 68.339844 L 0.0664062 68.339844 Z M 0.0664062 0.917969 " clip-rule="nonzero"/></clipPath><clipPath id="a7a07e7240"><path d="M 8.238281 0.953125 L 76.515625 10.289062 L 68.578125 68.320312 L 0.300781 58.980469 Z M 8.238281 0.953125 " clip-rule="nonzero"/></clipPath><clipPath id="293014485a"><rect x="0" width="77" y="0" height="69"/></clipPath><clipPath id="596b9df403"><path d="M 227 233 L 296 233 L 296 272 L 227 272 Z M 227 233 " clip-rule="nonzero"/></clipPath><clipPath id="7d6c8d3672"><path d="M 229.722656 229.777344 L 298.019531 239.117188 L 293.050781 275.46875 L 224.75 266.128906 Z M 229.722656 229.777344 " clip-rule="nonzero"/></clipPath><clipPath id="a72526ea5c"><path d="M 263.859375 234.445312 C 245.007812 231.867188 228.609375 237.914062 227.234375 247.953125 C 225.863281 257.992188 240.035156 268.21875 258.890625 270.796875 C 277.742188 273.375 294.140625 267.328125 295.515625 257.289062 C 296.886719 247.25 282.714844 237.023438 263.859375 234.445312 Z M 263.859375 234.445312 " clip-rule="nonzero"/></clipPath><clipPath id="68251746a2"><path d="M 0 0 L 69 0 L 69 39 L 0 39 Z M 0 0 " clip-rule="nonzero"/></clipPath><clipPath id="d64c48bfc5"><path d="M 2.722656 -3.222656 L 71.019531 6.117188 L 66.050781 42.46875 L -2.25 33.128906 Z M 2.722656 -3.222656 " clip-rule="nonzero"/></clipPath><clipPath id="d5adc2faf7"><path d="M 36.859375 1.445312 C 18.007812 -1.132812 1.609375 4.914062 0.234375 14.953125 C -1.136719 24.992188 13.035156 35.21875 31.890625 37.796875 C 50.742188 40.375 67.140625 34.328125 68.515625 24.289062 C 69.886719 14.25 55.714844 4.023438 36.859375 1.445312 Z M 36.859375 1.445312 " clip-rule="nonzero"/></clipPath><clipPath id="1b73ddf963"><rect x="0" width="69" y="0" height="39"/></clipPath><clipPath id="dcfe28c7af"><path d="M 219 289 L 288 289 L 288 328 L 219 328 Z M 219 289 " clip-rule="nonzero"/></clipPath><clipPath id="9df480b82e"><path d="M 222.089844 285.59375 L 290.386719 294.933594 L 285.417969 331.28125 L 217.117188 321.945312 Z M 222.089844 285.59375 " clip-rule="nonzero"/></clipPath><clipPath id="b598ed0147"><path d="M 256.226562 290.261719 C 237.375 287.683594 220.976562 293.730469 219.605469 303.769531 C 218.230469 313.804688 232.402344 324.035156 251.257812 326.613281 C 270.113281 329.191406 286.507812 323.144531 287.882812 313.105469 C 289.253906 303.066406 275.082031 292.839844 256.226562 290.261719 Z M 256.226562 290.261719 " clip-rule="nonzero"/></clipPath><clipPath id="a9a6df639d"><path d="M 0 0 L 69 0 L 69 39 L 0 39 Z M 0 0 " clip-rule="nonzero"/></clipPath><clipPath id="0a613226e4"><path d="M 3.089844 -3.40625 L 71.386719 5.933594 L 66.417969 42.28125 L -1.882812 32.945312 Z M 3.089844 -3.40625 " clip-rule="nonzero"/></clipPath><clipPath id="12b479f109"><path d="M 37.226562 1.261719 C 18.375 -1.316406 1.976562 4.730469 0.605469 14.769531 C -0.769531 24.804688 13.402344 35.035156 32.257812 37.613281 C 51.113281 40.191406 67.507812 34.144531 68.882812 24.105469 C 70.253906 14.066406 56.082031 3.839844 37.226562 1.261719 Z M 37.226562 1.261719 " clip-rule="nonzero"/></clipPath><clipPath id="56799c9e44"><rect x="0" width="69" y="0" height="39"/></clipPath><clipPath id="503bffffe1"><path d="M 306 294 L 398 294 L 398 375 L 306 375 Z M 306 294 " clip-rule="nonzero"/></clipPath><clipPath id="224c78a317"><path d="M 308.710938 292.691406 L 399.742188 296.550781 L 396.351562 376.632812 L 305.320312 372.773438 Z M 308.710938 292.691406 " clip-rule="nonzero"/></clipPath><clipPath id="6d31c838fe"><path d="M 354.167969 294.617188 C 329.0625 293.554688 307.953125 310.617188 307.015625 332.734375 C 306.078125 354.847656 325.671875 373.636719 350.773438 374.699219 C 375.878906 375.765625 396.992188 358.699219 397.929688 336.585938 C 398.867188 314.472656 379.273438 295.679688 354.167969 294.617188 Z M 354.167969 294.617188 " clip-rule="nonzero"/></clipPath><clipPath id="c4943f5c8f"><path d="M 0 0 L 92 0 L 92 81 L 0 81 Z M 0 0 " clip-rule="nonzero"/></clipPath><clipPath id="e5a96f1ea8"><path d="M 2.710938 -1.308594 L 93.742188 2.550781 L 90.351562 82.632812 L -0.679688 78.773438 Z M 2.710938 -1.308594 " clip-rule="nonzero"/></clipPath><clipPath id="7e0ee44af1"><path d="M 48.167969 0.617188 C 23.0625 -0.445312 1.953125 16.617188 1.015625 38.734375 C 0.078125 60.847656 19.671875 79.636719 44.773438 80.699219 C 69.878906 81.765625 90.992188 64.699219 91.929688 42.585938 C 92.867188 20.472656 73.273438 1.679688 48.167969 0.617188 Z M 48.167969 0.617188 " clip-rule="nonzero"/></clipPath><clipPath id="d8a234ab49"><rect x="0" width="92" y="0" height="81"/></clipPath><clipPath id="718a925d98"><path d="M 323 294 L 384 294 L 384 327 L 323 327 Z M 323 294 " clip-rule="nonzero"/></clipPath><clipPath id="b3cef81452"><path d="M 324.550781 293.363281 L 383.804688 295.875 L 382.46875 327.410156 L 323.214844 324.898438 Z M 324.550781 293.363281 " clip-rule="nonzero"/></clipPath><clipPath id="0a72050ed5"><path d="M 354.167969 294.617188 C 337.8125 293.925781 324.25 300.421875 323.882812 309.128906 C 323.511719 317.839844 336.476562 325.460938 352.832031 326.152344 C 369.191406 326.847656 382.75 320.347656 383.117188 311.640625 C 383.488281 302.933594 370.527344 295.3125 354.167969 294.617188 Z M 354.167969 294.617188 " clip-rule="nonzero"/></clipPath><clipPath id="e3c5f835fa"><path d="M 0.4375 0 L 60.664062 0 L 60.664062 32.859375 L 0.4375 32.859375 Z M 0.4375 0 " clip-rule="nonzero"/></clipPath><clipPath id="e00b7b19e0"><path d="M 1.550781 -0.636719 L 60.804688 1.875 L 59.46875 33.410156 L 0.214844 30.898438 Z M 1.550781 -0.636719 " clip-rule="nonzero"/></clipPath><clipPath id="72776e6092"><path d="M 31.167969 0.617188 C 14.8125 -0.0742188 1.25 6.421875 0.882812 15.128906 C 0.511719 23.839844 13.476562 31.460938 29.832031 32.152344 C 46.191406 32.847656 59.75 26.347656 60.117188 17.640625 C 60.488281 8.933594 47.527344 1.3125 31.167969 0.617188 Z M 31.167969 0.617188 " clip-rule="nonzero"/></clipPath><clipPath id="5b55515b83"><rect x="0" width="61" y="0" height="33"/></clipPath><clipPath id="94d64f6d12"><path d="M 342 303 L 365 303 L 365 315 L 342 315 Z M 342 303 " clip-rule="nonzero"/></clipPath><clipPath id="7cdfb909b9"><path d="M 342.742188 302.605469 L 364.882812 303.542969 L 364.386719 315.328125 L 342.242188 314.386719 Z M 342.742188 302.605469 " clip-rule="nonzero"/></clipPath><clipPath id="e5387d3a54"><path d="M 353.808594 303.074219 C 347.699219 302.8125 342.632812 305.242188 342.492188 308.496094 C 342.355469 311.75 347.199219 314.597656 353.3125 314.855469 C 359.421875 315.117188 364.492188 312.6875 364.628906 309.433594 C 364.765625 306.179688 359.921875 303.332031 353.808594 303.074219 Z M 353.808594 303.074219 " clip-rule="nonzero"/></clipPath><clipPath id="ad39ef4d15"><path d="M 0.152344 0 L 22.949219 0 L 22.949219 12 L 0.152344 12 Z M 0.152344 0 " clip-rule="nonzero"/></clipPath><clipPath id="400cb251d2"><path d="M 0.742188 -0.394531 L 22.882812 0.542969 L 22.386719 12.328125 L 0.242188 11.386719 Z M 0.742188 -0.394531 " clip-rule="nonzero"/></clipPath><clipPath id="3fd663d206"><path d="M 11.808594 0.0742188 C 5.699219 -0.1875 0.632812 2.242188 0.492188 5.496094 C 0.355469 8.75 5.199219 11.597656 11.3125 11.855469 C 17.421875 12.117188 22.492188 9.6875 22.628906 6.433594 C 22.765625 3.179688 17.921875 0.332031 11.808594 0.0742188 Z M 11.808594 0.0742188 " clip-rule="nonzero"/></clipPath><clipPath id="9670920f88"><rect x="0" width="23" y="0" height="12"/></clipPath><clipPath id="1fadae5fe5"><path d="M 248 243 L 275 243 L 275 258 L 248 258 Z M 248 243 " clip-rule="nonzero"/></clipPath><clipPath id="f8ae67a55e"><path d="M 249.921875 241.84375 L 275.304688 245.316406 L 273.457031 258.824219 L 248.078125 255.355469 Z M 249.921875 241.84375 " clip-rule="nonzero"/></clipPath><clipPath id="8beb39f86c"><path d="M 262.609375 243.578125 C 255.605469 242.621094 249.511719 244.867188 249 248.597656 C 248.488281 252.328125 253.757812 256.132812 260.765625 257.089844 C 267.769531 258.046875 273.863281 255.800781 274.375 252.070312 C 274.886719 248.339844 269.617188 244.539062 262.609375 243.578125 Z M 262.609375 243.578125 " clip-rule="nonzero"/></clipPath><clipPath id="fab85174e3"><path d="M 0.335938 0 L 26.972656 0 L 26.972656 15 L 0.335938 15 Z M 0.335938 0 " clip-rule="nonzero"/></clipPath><clipPath id="6d7bb4e90b"><path d="M 1.921875 -1.15625 L 27.304688 2.316406 L 25.457031 15.824219 L 0.078125 12.355469 Z M 1.921875 -1.15625 " clip-rule="nonzero"/></clipPath><clipPath id="6f134b1343"><path d="M 14.609375 0.578125 C 7.605469 -0.378906 1.511719 1.867188 1 5.597656 C 0.488281 9.328125 5.757812 13.132812 12.765625 14.089844 C 19.769531 15.046875 25.863281 12.800781 26.375 9.070312 C 26.886719 5.339844 21.617188 1.539062 14.609375 0.578125 Z M 14.609375 0.578125 " clip-rule="nonzero"/></clipPath><clipPath id="faba07ae24"><rect x="0" width="27" y="0" height="15"/></clipPath><clipPath id="2b5467271c"><path d="M 11 263 L 100 263 L 100 347 L 11 347 Z M 11 263 " clip-rule="nonzero"/></clipPath><clipPath id="55b430482f"><path d="M 11.464844 294.285156 L 73.210938 263.6875 L 99.21875 316.164062 L 37.46875 346.765625 Z M 11.464844 294.285156 " clip-rule="nonzero"/></clipPath><clipPath id="8778243d04"><path d="M 0.277344 0.515625 L 88.335938 0.515625 L 88.335938 83.773438 L 0.277344 83.773438 Z M 0.277344 0.515625 " clip-rule="nonzero"/></clipPath><clipPath id="fe19efee5b"><path d="M 0.464844 31.285156 L 62.210938 0.6875 L 88.21875 53.164062 L 26.46875 83.765625 Z M 0.464844 31.285156 " clip-rule="nonzero"/></clipPath><clipPath id="e8fb7d90be"><rect x="0" width="89" y="0" height="84"/></clipPath><clipPath id="0c6204f3c8"><path d="M 10 256 L 75 256 L 75 302 L 10 302 Z M 10 256 " clip-rule="nonzero"/></clipPath><clipPath id="99377408a3"><path d="M 3.320312 277.847656 L 65.085938 247.242188 L 81.375 280.113281 L 19.609375 310.722656 Z M 3.320312 277.847656 " clip-rule="nonzero"/></clipPath><clipPath id="e78cbc5f68"><path d="M 34.191406 262.550781 C 17.140625 271 6.964844 285.207031 11.464844 294.285156 C 15.964844 303.363281 33.433594 303.871094 50.484375 295.421875 C 67.535156 286.972656 77.710938 272.765625 73.210938 263.6875 C 68.714844 254.609375 51.242188 254.097656 34.191406 262.550781 Z M 34.191406 262.550781 " clip-rule="nonzero"/></clipPath><clipPath id="320b39bc69"><path d="M 0 0 L 65 0 L 65 46 L 0 46 Z M 0 0 " clip-rule="nonzero"/></clipPath><clipPath id="76c71c49f0"><path d="M -6.679688 21.847656 L 55.085938 -8.757812 L 71.375 24.113281 L 9.609375 54.722656 Z M -6.679688 21.847656 " clip-rule="nonzero"/></clipPath><clipPath id="5c351261af"><path d="M 24.191406 6.550781 C 7.140625 15 -3.035156 29.207031 1.464844 38.285156 C 5.964844 47.363281 23.433594 47.871094 40.484375 39.421875 C 57.535156 30.972656 67.710938 16.765625 63.210938 7.6875 C 58.714844 -1.390625 41.242188 -1.902344 24.191406 6.550781 Z M 24.191406 6.550781 " clip-rule="nonzero"/></clipPath><clipPath id="4e250d730c"><rect x="0" width="65" y="0" height="46"/></clipPath><clipPath id="592f217f0c"><path d="M 35 307 L 100 307 L 100 352 L 35 352 Z M 35 307 " clip-rule="nonzero"/></clipPath><clipPath id="b17bf198ea"><path d="M 28.332031 328.324219 L 90.097656 297.71875 L 106.390625 330.589844 L 44.625 361.199219 Z M 28.332031 328.324219 " clip-rule="nonzero"/></clipPath><clipPath id="f245b2d582"><path d="M 59.207031 313.027344 C 42.15625 321.476562 31.980469 335.683594 36.480469 344.761719 C 40.976562 353.839844 58.445312 354.347656 75.496094 345.898438 C 92.546875 337.449219 102.722656 323.242188 98.226562 314.164062 C 93.726562 305.085938 76.257812 304.578125 59.207031 313.027344 Z M 59.207031 313.027344 " clip-rule="nonzero"/></clipPath><clipPath id="38945b6257"><path d="M 0 0 L 65 0 L 65 45 L 0 45 Z M 0 0 " clip-rule="nonzero"/></clipPath><clipPath id="83b4b0765d"><path d="M -6.667969 21.324219 L 55.097656 -9.28125 L 71.390625 23.589844 L 9.625 54.199219 Z M -6.667969 21.324219 " clip-rule="nonzero"/></clipPath><clipPath id="3a8c0a5cf4"><path d="M 24.207031 6.027344 C 7.15625 14.476562 -3.019531 28.683594 1.480469 37.761719 C 5.976562 46.839844 23.445312 47.347656 40.496094 38.898438 C 57.546875 30.449219 67.722656 16.242188 63.226562 7.164062 C 58.726562 -1.914062 41.257812 -2.421875 24.207031 6.027344 Z M 24.207031 6.027344 " clip-rule="nonzero"/></clipPath><clipPath id="839757818a"><rect x="0" width="65" y="0" height="45"/></clipPath><clipPath id="489ff80bbe"><path d="M 29 268 L 54 268 L 54 286 L 29 286 Z M 29 268 " clip-rule="nonzero"/></clipPath><clipPath id="111a2202f7"><path d="M 26.8125 276.496094 L 49.769531 265.121094 L 55.820312 277.335938 L 32.867188 288.710938 Z M 26.8125 276.496094 " clip-rule="nonzero"/></clipPath><clipPath id="9588afa73d"><path d="M 38.285156 270.808594 C 31.949219 273.949219 28.167969 279.230469 29.839844 282.605469 C 31.511719 285.976562 38.003906 286.167969 44.339844 283.027344 C 50.679688 279.886719 54.460938 274.605469 52.789062 271.230469 C 51.117188 267.859375 44.625 267.667969 38.285156 270.808594 Z M 38.285156 270.808594 " clip-rule="nonzero"/></clipPath><clipPath id="98e2017056"><path d="M 0 0 L 25 0 L 25 18 L 0 18 Z M 0 0 " clip-rule="nonzero"/></clipPath><clipPath id="a2056224a9"><path d="M -2.1875 8.496094 L 20.769531 -2.878906 L 26.820312 9.335938 L 3.867188 20.710938 Z M -2.1875 8.496094 " clip-rule="nonzero"/></clipPath><clipPath id="465e2a2bcc"><path d="M 9.285156 2.808594 C 2.949219 5.949219 -0.832031 11.230469 0.839844 14.605469 C 2.511719 17.976562 9.003906 18.167969 15.339844 15.027344 C 21.679688 11.886719 25.460938 6.605469 23.789062 3.230469 C 22.117188 -0.140625 15.625 -0.332031 9.285156 2.808594 Z M 9.285156 2.808594 " clip-rule="nonzero"/></clipPath><clipPath id="eca0b0d442"><rect x="0" width="25" y="0" height="18"/></clipPath><clipPath id="2d31ead467"><path d="M 67 254 L 227 254 L 227 328 L 67 328 Z M 67 254 " clip-rule="nonzero"/></clipPath><clipPath id="d7c8cda063"><path d="M 62.976562 268.105469 L 221.335938 244.683594 L 231.535156 313.628906 L 73.175781 337.050781 Z M 62.976562 268.105469 " clip-rule="nonzero"/></clipPath><clipPath id="0c4b30e307"><path d="M 142.152344 256.394531 C 98.425781 262.863281 65.261719 283.539062 68.078125 302.578125 C 70.894531 321.617188 108.625 331.808594 152.351562 325.339844 C 196.078125 318.875 229.242188 298.195312 226.425781 279.15625 C 223.613281 260.121094 185.882812 249.929688 142.152344 256.394531 Z M 142.152344 256.394531 " clip-rule="nonzero"/></clipPath><clipPath id="6e763daddc"><path d="M 0 0 L 160 0 L 160 74 L 0 74 Z M 0 0 " clip-rule="nonzero"/></clipPath><clipPath id="ce95b398ae"><path d="M -4.023438 14.105469 L 154.335938 -9.316406 L 164.535156 59.628906 L 6.175781 83.050781 Z M -4.023438 14.105469 " clip-rule="nonzero"/></clipPath><clipPath id="b5fac47846"><path d="M 75.152344 2.394531 C 31.425781 8.863281 -1.738281 29.539062 1.078125 48.578125 C 3.894531 67.617188 41.625 77.808594 85.351562 71.339844 C 129.078125 64.875 162.242188 44.195312 159.425781 25.15625 C 156.613281 6.121094 118.882812 -4.070312 75.152344 2.394531 Z M 75.152344 2.394531 " clip-rule="nonzero"/></clipPath><clipPath id="f2968102ce"><rect x="0" width="160" y="0" height="74"/></clipPath><clipPath id="8b23b5bcc9"><path d="M 86 308 L 164 308 L 164 393 L 86 393 Z M 86 308 " clip-rule="nonzero"/></clipPath><clipPath id="9f04e4431c"><path d="M 86.125 374.042969 L 108.21875 308.769531 L 163.695312 327.546875 L 141.601562 392.820312 Z M 86.125 374.042969 " clip-rule="nonzero"/></clipPath><clipPath id="2096b1ab61"><path d="M 0 0.621094 L 77.878906 0.621094 L 77.878906 84.839844 L 0 84.839844 Z M 0 0.621094 " clip-rule="nonzero"/></clipPath><clipPath id="982103bcae"><path d="M 0.125 66.042969 L 22.21875 0.769531 L 77.695312 19.546875 L 55.601562 84.820312 Z M 0.125 66.042969 " clip-rule="nonzero"/></clipPath><clipPath id="142e48cf1d"><rect x="0" width="78" y="0" height="85"/></clipPath><clipPath id="30dca0a6e2"><path d="M 76 308 L 118 308 L 118 375 L 76 375 Z M 76 308 " clip-rule="nonzero"/></clipPath><clipPath id="1155e0c135"><path d="M 68.75 368.160156 L 90.851562 302.867188 L 125.601562 314.628906 L 103.503906 379.925781 Z M 68.75 368.160156 " clip-rule="nonzero"/></clipPath><clipPath id="da3ffbb1fd"><path d="M 79.796875 335.523438 C 73.695312 353.550781 76.53125 370.792969 86.125 374.042969 C 95.722656 377.289062 108.449219 365.3125 114.550781 347.285156 C 120.652344 329.261719 117.816406 312.015625 108.222656 308.765625 C 98.625 305.519531 85.898438 317.5 79.796875 335.523438 Z M 79.796875 335.523438 " clip-rule="nonzero"/></clipPath><clipPath id="84928ed36e"><path d="M 0 0 L 42 0 L 42 67 L 0 67 Z M 0 0 " clip-rule="nonzero"/></clipPath><clipPath id="a5201bb84a"><path d="M -7.25 60.160156 L 14.851562 -5.132812 L 49.601562 6.628906 L 27.503906 71.925781 Z M -7.25 60.160156 " clip-rule="nonzero"/></clipPath><clipPath id="dd199c63c1"><path d="M 3.796875 27.523438 C -2.304688 45.550781 0.53125 62.792969 10.125 66.042969 C 19.722656 69.289062 32.449219 57.3125 38.550781 39.285156 C 44.652344 21.261719 41.816406 4.015625 32.222656 0.765625 C 22.625 -2.480469 9.898438 9.5 3.796875 27.523438 Z M 3.796875 27.523438 " clip-rule="nonzero"/></clipPath><clipPath id="3b8aa23c82"><rect x="0" width="42" y="0" height="67"/></clipPath><clipPath id="078a32b9cd"><path d="M 129 326 L 172 326 L 172 393 L 129 393 Z M 129 326 " clip-rule="nonzero"/></clipPath><clipPath id="b0fccd6f91"><path d="M 122.113281 386.222656 L 144.214844 320.929688 L 178.964844 332.691406 L 156.863281 397.984375 Z M 122.113281 386.222656 " clip-rule="nonzero"/></clipPath><clipPath id="8f78463354"><path d="M 133.160156 353.585938 C 127.058594 371.609375 129.890625 388.855469 139.488281 392.105469 C 149.082031 395.351562 161.808594 383.375 167.910156 365.347656 C 174.011719 347.324219 171.179688 330.078125 161.582031 326.828125 C 151.984375 323.582031 139.261719 335.558594 133.160156 353.585938 Z M 133.160156 353.585938 " clip-rule="nonzero"/></clipPath><clipPath id="ae255bcb94"><path d="M 0 0 L 43 0 L 43 67 L 0 67 Z M 0 0 " clip-rule="nonzero"/></clipPath><clipPath id="3332879323"><path d="M -6.886719 60.222656 L 15.214844 -5.070312 L 49.964844 6.691406 L 27.863281 71.984375 Z M -6.886719 60.222656 " clip-rule="nonzero"/></clipPath><clipPath id="4b349d0e33"><path d="M 4.160156 27.585938 C -1.941406 45.609375 0.890625 62.855469 10.488281 66.105469 C 20.082031 69.351562 32.808594 57.375 38.910156 39.347656 C 45.011719 21.324219 42.179688 4.078125 32.582031 0.828125 C 22.984375 -2.417969 10.261719 9.558594 4.160156 27.585938 Z M 4.160156 27.585938 " clip-rule="nonzero"/></clipPath><clipPath id="309e83ffaa"><rect x="0" width="43" y="0" height="67"/></clipPath><clipPath id="a4fbed7d7b"><path d="M 87 328 L 103 328 L 103 353 L 87 353 Z M 87 328 " clip-rule="nonzero"/></clipPath><clipPath id="c432097715"><path d="M 84.425781 350.609375 L 92.640625 326.339844 L 105.554688 330.714844 L 97.339844 354.980469 Z M 84.425781 350.609375 " clip-rule="nonzero"/></clipPath><clipPath id="eb67d95273"><path d="M 88.53125 338.476562 C 86.265625 345.175781 87.316406 351.585938 90.882812 352.792969 C 94.449219 354 99.179688 349.550781 101.445312 342.851562 C 103.714844 336.152344 102.660156 329.742188 99.09375 328.535156 C 95.527344 327.328125 90.800781 331.777344 88.53125 338.476562 Z M 88.53125 338.476562 " clip-rule="nonzero"/></clipPath><clipPath id="7bc61aa4bf"><path d="M 0 0 L 16 0 L 16 25 L 0 25 Z M 0 0 " clip-rule="nonzero"/></clipPath><clipPath id="b668c4e89f"><path d="M -2.574219 22.609375 L 5.640625 -1.660156 L 18.554688 2.714844 L 10.339844 26.980469 Z M -2.574219 22.609375 " clip-rule="nonzero"/></clipPath><clipPath id="46ccd4751a"><path d="M 1.53125 10.476562 C -0.734375 17.175781 0.316406 23.585938 3.882812 24.792969 C 7.449219 26 12.179688 21.550781 14.445312 14.851562 C 16.714844 8.152344 15.660156 1.742188 12.09375 0.535156 C 8.527344 -0.671875 3.800781 3.777344 1.53125 10.476562 Z M 1.53125 10.476562 " clip-rule="nonzero"/></clipPath><clipPath id="204be25210"><rect x="0" width="16" y="0" height="25"/></clipPath><clipPath id="ae6b3d0576"><path d="M 57 207 L 227 207 L 227 303 L 57 303 Z M 57 207 " clip-rule="nonzero"/></clipPath><clipPath id="3b2e76a45c"><path d="M 57.527344 231.257812 L 215.878906 207.835938 L 226.425781 279.15625 L 68.078125 302.578125 Z M 57.527344 231.257812 " clip-rule="nonzero"/></clipPath><clipPath id="e4b7d46266"><path d="M 0.34375 0.609375 L 169.503906 0.609375 L 169.503906 95.625 L 0.34375 95.625 Z M 0.34375 0.609375 " clip-rule="nonzero"/></clipPath><clipPath id="1fbd7650f7"><path d="M 0.527344 24.257812 L 158.878906 0.835938 L 169.425781 72.15625 L 11.078125 95.578125 Z M 0.527344 24.257812 " clip-rule="nonzero"/></clipPath><clipPath id="8990b6393e"><rect x="0" width="170" y="0" height="96"/></clipPath><clipPath id="1189f61a96"><path d="M 57 180 L 217 180 L 217 265 L 57 265 Z M 57 180 " clip-rule="nonzero"/></clipPath><clipPath id="2b34a71992"><path d="M 51.925781 193.390625 L 210.582031 169.925781 L 222.621094 251.320312 L 63.964844 274.785156 Z M 51.925781 193.390625 " clip-rule="nonzero"/></clipPath><clipPath id="362ebef5a9"><path d="M 131.101562 181.679688 C 87.375 188.148438 54.621094 211.613281 57.945312 234.089844 C 61.269531 256.566406 99.414062 269.542969 143.140625 263.074219 C 186.867188 256.609375 219.621094 233.144531 216.296875 210.667969 C 212.972656 188.191406 174.828125 175.214844 131.101562 181.679688 Z M 131.101562 181.679688 " clip-rule="nonzero"/></clipPath><clipPath id="f9c0dcbc3d"><path d="M 0 0 L 160 0 L 160 85 L 0 85 Z M 0 0 " clip-rule="nonzero"/></clipPath><clipPath id="c3a5ec179c"><path d="M -5.074219 13.390625 L 153.582031 -10.074219 L 165.621094 71.320312 L 6.964844 94.785156 Z M -5.074219 13.390625 " clip-rule="nonzero"/></clipPath><clipPath id="7692390737"><path d="M 74.101562 1.679688 C 30.375 8.148438 -2.378906 31.613281 0.945312 54.089844 C 4.269531 76.566406 42.414062 89.542969 86.140625 83.074219 C 129.867188 76.609375 162.621094 53.144531 159.296875 30.667969 C 155.972656 8.191406 117.828125 -4.785156 74.101562 1.679688 Z M 74.101562 1.679688 " clip-rule="nonzero"/></clipPath><clipPath id="d8855996bc"><rect x="0" width="160" y="0" height="85"/></clipPath><clipPath id="311a8444a7"><path d="M 102 199 L 171 199 L 171 240 L 102 240 Z M 102 199 " clip-rule="nonzero"/></clipPath><clipPath id="aa1c4830ac"><path d="M 99.6875 205.292969 L 168.019531 195.183594 L 173.730469 233.800781 L 105.398438 243.90625 Z M 99.6875 205.292969 " clip-rule="nonzero"/></clipPath><clipPath id="c5ca806474"><path d="M 133.847656 200.238281 C 114.980469 203.027344 100.964844 213.9375 102.542969 224.597656 C 104.121094 235.261719 120.691406 241.644531 139.558594 238.855469 C 158.425781 236.0625 172.441406 225.15625 170.863281 214.492188 C 169.285156 203.832031 152.714844 197.449219 133.847656 200.238281 Z M 133.847656 200.238281 " clip-rule="nonzero"/></clipPath><clipPath id="3db1fed75a"><path d="M 0 0 L 69 0 L 69 41 L 0 41 Z M 0 0 " clip-rule="nonzero"/></clipPath><clipPath id="f5c6d2bfac"><path d="M -2.3125 6.292969 L 66.019531 -3.816406 L 71.730469 34.800781 L 3.398438 44.90625 Z M -2.3125 6.292969 " clip-rule="nonzero"/></clipPath><clipPath id="8e78a2b08d"><path d="M 31.847656 1.238281 C 12.980469 4.027344 -1.035156 14.9375 0.542969 25.597656 C 2.121094 36.261719 18.691406 42.644531 37.558594 39.855469 C 56.425781 37.0625 70.441406 26.15625 68.863281 15.492188 C 67.285156 4.832031 50.714844 -1.550781 31.847656 1.238281 Z M 31.847656 1.238281 " clip-rule="nonzero"/></clipPath><clipPath id="9df8bec201"><rect x="0" width="69" y="0" height="41"/></clipPath></defs><g clip-path="url(#a16d3f60db)"><g clip-path="url(#17cebdbe7f)"><g transform="matrix(1, 0, 0, 1, 47, 78)"><g clip-path="url(#a9cd2e917e)"><g clip-path="url(#973042def7)"><g clip-path="url(#8e079a386e)"><path fill="#d2ffd5" d="M 0 0.664062 L 150.21875 0.664062 L 150.21875 166.140625 L 0 166.140625 Z M 0 0.664062 " fill-opacity="1" fill-rule="nonzero"/></g></g></g></g></g></g><g clip-path="url(#18b9c216a2)"><g clip-path="url(#1bc0718afc)"><g transform="matrix(1, 0, 0, 1, 147, 121)"><g clip-path="url(#6a0d3bc497)"><g clip-path="url(#c5cd2863cf)"><g clip-path="url(#99a2bf1cc0)"><path fill="#b258cb" d="M 0.25 0.570312 L 139.984375 0.570312 L 139.984375 140.304688 L 0.25 140.304688 Z M 0.25 0.570312 " fill-opacity="1" fill-rule="nonzero"/></g></g></g></g></g></g><g clip-path="url(#61b7295bd0)"><g clip-path="url(#314f48d8c3)"><g transform="matrix(1, 0, 0, 1, 172, 143)"><g clip-path="url(#1540bec189)"><g clip-path="url(#5e056265ec)"><g clip-path="url(#d89c154ddf)"><path fill="#8743b1" d="M 0.21875 0.46875 L 45.117188 0.46875 L 45.117188 45.367188 L 0.21875 45.367188 Z M 0.21875 0.46875 " fill-opacity="1" fill-rule="nonzero"/></g></g></g></g></g></g><g clip-path="url(#4551608a78)"><g clip-path="url(#e7abfc89fc)"><g clip-path="url(#b181c37686)"><g transform="matrix(1, 0, 0, 1, 342, 281)"><g clip-path="url(#7e653a8566)"><g clip-path="url(#b82c3960c4)"><g clip-path="url(#6a23d40c55)"><g clip-path="url(#7fe30bfa33)"><path fill="#cbb258" d="M 6.5 -9.484375 L 117.886719 17.953125 L 105.941406 66.445312 L -5.441406 39.011719 Z M 6.5 -9.484375 " fill-opacity="1" fill-rule="nonzero"/></g></g></g></g></g></g></g></g><g clip-path="url(#34656fa544)"><g clip-path="url(#4a047723b4)"><g transform="matrix(1, 0, 0, 1, 342, 245)"><g clip-path="url(#7f7c403be5)"><g clip-path="url(#84dd834e43)"><g clip-path="url(#c754600b84)"><path fill="#cbb258" d="M 12.886719 0.597656 L 124.191406 28.011719 L 111.835938 78.179688 L 0.53125 50.761719 Z M 12.886719 0.597656 " fill-opacity="1" fill-rule="nonzero"/></g></g></g></g></g></g><g clip-path="url(#7d43f85e69)"><g clip-path="url(#a09ffe32b7)"><g clip-path="url(#ab68bb297b)"><g transform="matrix(1, 0, 0, 1, 353, 229)"><g clip-path="url(#4947f68aa6)"><g clip-path="url(#287a6abb53)"><g clip-path="url(#647cc7b24a)"><g clip-path="url(#b9b2c84f17)"><path fill="#fdffd2" d="M 8.445312 -10.035156 L 119.816406 17.394531 L 105.714844 74.648438 L -5.65625 47.214844 Z M 8.445312 -10.035156 " fill-opacity="1" fill-rule="nonzero"/></g></g></g></g></g></g></g></g><g clip-path="url(#0e9fcc4427)"><g clip-path="url(#c6b407c7cf)"><g clip-path="url(#9fe8b73fa3)"><g transform="matrix(1, 0, 0, 1, 386, 244)"><g clip-path="url(#1f34177cc1)"><g clip-path="url(#843ea077d1)"><g clip-path="url(#1c1325bac4)"><g clip-path="url(#e14020a353)"><path fill="#b18743" d="M 3.894531 -4.183594 L 51.957031 7.652344 L 45.265625 34.8125 L -2.796875 22.976562 Z M 3.894531 -4.183594 " fill-opacity="1" fill-rule="nonzero"/></g></g></g></g></g></g></g></g><g clip-path="url(#f469896d09)"><g clip-path="url(#756db659f5)"><g transform="matrix(1, 0, 0, 1, 241, 104)"><g clip-path="url(#f5e2e3556e)"><g clip-path="url(#509a588b38)"><g clip-path="url(#239675ad75)"><path fill="#ffd2fd" d="M 0.195312 0.195312 L 137.777344 0.195312 L 137.777344 151.75 L 0.195312 151.75 Z M 0.195312 0.195312 " fill-opacity="1" fill-rule="nonzero"/></g></g></g></g></g></g><g clip-path="url(#0210d34315)"><g clip-path="url(#683a63c27a)"><g clip-path="url(#50df23daf0)"><g transform="matrix(1, 0, 0, 1, 258, 177)"><g clip-path="url(#5178b3ad20)"><g clip-path="url(#7783aeb8f6)"><g clip-path="url(#d6eb410e34)"><g clip-path="url(#51a2d67c6c)"><path fill="#43b187" d="M 75.976562 -30.148438 L 179.148438 90.929688 L 72.632812 181.695312 L -30.542969 60.613281 Z M 75.976562 -30.148438 " fill-opacity="1" fill-rule="nonzero"/></g></g></g></g></g></g></g></g><g clip-path="url(#f59c41010e)"><g clip-path="url(#a79ba52e54)"><g clip-path="url(#eaeb842ee9)"><g transform="matrix(1, 0, 0, 1, 324, 181)"><g clip-path="url(#12dfcc8065)"><g clip-path="url(#9a8c64add6)"><g clip-path="url(#c0f5406ce8)"><g clip-path="url(#27e7eaddc3)"><path fill="#6db143" d="M 27.925781 -13.082031 L 95.085938 65.730469 L 53.136719 101.472656 L -14.019531 22.660156 Z M 27.925781 -13.082031 " fill-opacity="1" fill-rule="nonzero"/></g></g></g></g></g></g></g></g><g clip-path="url(#b353a8be7d)"><g clip-path="url(#417e1d950c)"><g clip-path="url(#44f55af236)"><g transform="matrix(1, 0, 0, 1, 351, 207)"><g clip-path="url(#4751a46eb3)"><g clip-path="url(#c7b4e8ae91)"><g clip-path="url(#8bad54caff)"><g clip-path="url(#c998879260)"><path fill="#244348" d="M 10.707031 -4.824219 L 35.800781 24.625 L 20.125 37.980469 L -4.96875 8.53125 Z M 10.707031 -4.824219 " fill-opacity="1" fill-rule="nonzero"/></g></g></g></g></g></g></g></g><g clip-path="url(#d34e4ce432)"><g clip-path="url(#f2a9b13cdc)"><g transform="matrix(1, 0, 0, 1, 219, 247)"><g clip-path="url(#293014485a)"><g clip-path="url(#3a364cb5c0)"><g clip-path="url(#a7a07e7240)"><path fill="#ec3c2a" d="M 8.238281 0.953125 L 76.464844 10.28125 L 68.53125 68.3125 L 0.300781 58.980469 Z M 8.238281 0.953125 " fill-opacity="1" fill-rule="nonzero"/></g></g></g></g></g></g><g clip-path="url(#596b9df403)"><g clip-path="url(#7d6c8d3672)"><g clip-path="url(#a72526ea5c)"><g transform="matrix(1, 0, 0, 1, 227, 233)"><g clip-path="url(#1b73ddf963)"><g clip-path="url(#68251746a2)"><g clip-path="url(#d64c48bfc5)"><g clip-path="url(#d5adc2faf7)"><path fill="#ff8500" d="M 2.722656 -3.222656 L 71.019531 6.117188 L 66.050781 42.46875 L -2.25 33.128906 Z M 2.722656 -3.222656 " fill-opacity="1" fill-rule="nonzero"/></g></g></g></g></g></g></g></g><g clip-path="url(#dcfe28c7af)"><g clip-path="url(#9df480b82e)"><g clip-path="url(#b598ed0147)"><g transform="matrix(1, 0, 0, 1, 219, 289)"><g clip-path="url(#56799c9e44)"><g clip-path="url(#a9a6df639d)"><g clip-path="url(#0a613226e4)"><g clip-path="url(#12b479f109)"><path fill="#ec3c2a" d="M 3.089844 -3.40625 L 71.386719 5.933594 L 66.417969 42.28125 L -1.882812 32.945312 Z M 3.089844 -3.40625 " fill-opacity="1" fill-rule="nonzero"/></g></g></g></g></g></g></g></g><g clip-path="url(#503bffffe1)"><g clip-path="url(#224c78a317)"><g clip-path="url(#6d31c838fe)"><g transform="matrix(1, 0, 0, 1, 306, 294)"><g clip-path="url(#d8a234ab49)"><g clip-path="url(#c4943f5c8f)"><g clip-path="url(#e5a96f1ea8)"><g clip-path="url(#7e0ee44af1)"><path fill="#8743b1" d="M 2.710938 -1.308594 L 93.742188 2.550781 L 90.351562 82.632812 L -0.679688 78.773438 Z M 2.710938 -1.308594 " fill-opacity="1" fill-rule="nonzero"/></g></g></g></g></g></g></g></g><g clip-path="url(#718a925d98)"><g clip-path="url(#b3cef81452)"><g clip-path="url(#0a72050ed5)"><g transform="matrix(1, 0, 0, 1, 323, 294)"><g clip-path="url(#5b55515b83)"><g clip-path="url(#e3c5f835fa)"><g clip-path="url(#e00b7b19e0)"><g clip-path="url(#72776e6092)"><path fill="#b258cb" d="M 1.550781 -0.636719 L 60.804688 1.875 L 59.46875 33.410156 L 0.214844 30.898438 Z M 1.550781 -0.636719 " fill-opacity="1" fill-rule="nonzero"/></g></g></g></g></g></g></g></g><g clip-path="url(#94d64f6d12)"><g clip-path="url(#7cdfb909b9)"><g clip-path="url(#e5387d3a54)"><g transform="matrix(1, 0, 0, 1, 342, 303)"><g clip-path="url(#9670920f88)"><g clip-path="url(#ad39ef4d15)"><g clip-path="url(#400cb251d2)"><g clip-path="url(#3fd663d206)"><path fill="#482443" d="M 0.742188 -0.394531 L 22.882812 0.542969 L 22.386719 12.328125 L 0.242188 11.386719 Z M 0.742188 -0.394531 " fill-opacity="1" fill-rule="nonzero"/></g></g></g></g></g></g></g></g><g clip-path="url(#1fadae5fe5)"><g clip-path="url(#f8ae67a55e)"><g clip-path="url(#8beb39f86c)"><g transform="matrix(1, 0, 0, 1, 248, 243)"><g clip-path="url(#faba07ae24)"><g clip-path="url(#fab85174e3)"><g clip-path="url(#6d7bb4e90b)"><g clip-path="url(#6f134b1343)"><path fill="#ec3c2a" d="M 1.921875 -1.15625 L 27.304688 2.316406 L 25.457031 15.824219 L 0.078125 12.355469 Z M 1.921875 -1.15625 " fill-opacity="1" fill-rule="nonzero"/></g></g></g></g></g></g></g></g><g clip-path="url(#2b5467271c)"><g clip-path="url(#55b430482f)"><g transform="matrix(1, 0, 0, 1, 11, 263)"><g clip-path="url(#e8fb7d90be)"><g clip-path="url(#8778243d04)"><g clip-path="url(#fe19efee5b)"><path fill="#ec3c2a" d="M 0.464844 31.285156 L 62.167969 0.707031 L 88.171875 53.1875 L 26.46875 83.765625 Z M 0.464844 31.285156 " fill-opacity="1" fill-rule="nonzero"/></g></g></g></g></g></g><g clip-path="url(#0c6204f3c8)"><g clip-path="url(#99377408a3)"><g clip-path="url(#e78cbc5f68)"><g transform="matrix(1, 0, 0, 1, 10, 256)"><g clip-path="url(#4e250d730c)"><g clip-path="url(#320b39bc69)"><g clip-path="url(#76c71c49f0)"><g clip-path="url(#5c351261af)"><path fill="#ff8500" d="M -6.679688 21.847656 L 55.085938 -8.757812 L 71.375 24.113281 L 9.609375 54.722656 Z M -6.679688 21.847656 " fill-opacity="1" fill-rule="nonzero"/></g></g></g></g></g></g></g></g><g clip-path="url(#592f217f0c)"><g clip-path="url(#b17bf198ea)"><g clip-path="url(#f245b2d582)"><g transform="matrix(1, 0, 0, 1, 35, 307)"><g clip-path="url(#839757818a)"><g clip-path="url(#38945b6257)"><g clip-path="url(#83b4b0765d)"><g clip-path="url(#3a8c0a5cf4)"><path fill="#ec3c2a" d="M -6.667969 21.324219 L 55.097656 -9.28125 L 71.390625 23.589844 L 9.625 54.199219 Z M -6.667969 21.324219 " fill-opacity="1" fill-rule="nonzero"/></g></g></g></g></g></g></g></g><g clip-path="url(#489ff80bbe)"><g clip-path="url(#111a2202f7)"><g clip-path="url(#9588afa73d)"><g transform="matrix(1, 0, 0, 1, 29, 268)"><g clip-path="url(#eca0b0d442)"><g clip-path="url(#98e2017056)"><g clip-path="url(#a2056224a9)"><g clip-path="url(#465e2a2bcc)"><path fill="#ec3c2a" d="M -2.1875 8.496094 L 20.769531 -2.878906 L 26.820312 9.335938 L 3.867188 20.710938 Z M -2.1875 8.496094 " fill-opacity="1" fill-rule="nonzero"/></g></g></g></g></g></g></g></g><g clip-path="url(#2d31ead467)"><g clip-path="url(#d7c8cda063)"><g clip-path="url(#0c4b30e307)"><g transform="matrix(1, 0, 0, 1, 67, 254)"><g clip-path="url(#f2968102ce)"><g clip-path="url(#6e763daddc)"><g clip-path="url(#ce95b398ae)"><g clip-path="url(#b5fac47846)"><path fill="#ff8500" d="M -4.023438 14.105469 L 154.335938 -9.316406 L 164.535156 59.628906 L 6.175781 83.050781 Z M -4.023438 14.105469 " fill-opacity="1" fill-rule="nonzero"/></g></g></g></g></g></g></g></g><g clip-path="url(#8b23b5bcc9)"><g clip-path="url(#9f04e4431c)"><g transform="matrix(1, 0, 0, 1, 86, 308)"><g clip-path="url(#142e48cf1d)"><g clip-path="url(#2096b1ab61)"><g clip-path="url(#982103bcae)"><path fill="#43b187" d="M 0.125 66.042969 L 22.203125 0.816406 L 77.679688 19.59375 L 55.601562 84.820312 Z M 0.125 66.042969 " fill-opacity="1" fill-rule="nonzero"/></g></g></g></g></g></g><g clip-path="url(#30dca0a6e2)"><g clip-path="url(#1155e0c135)"><g clip-path="url(#da3ffbb1fd)"><g transform="matrix(1, 0, 0, 1, 76, 308)"><g clip-path="url(#3b8aa23c82)"><g clip-path="url(#84928ed36e)"><g clip-path="url(#a5201bb84a)"><g clip-path="url(#dd199c63c1)"><path fill="#58cbb2" d="M -7.25 60.160156 L 14.851562 -5.132812 L 49.601562 6.628906 L 27.503906 71.925781 Z M -7.25 60.160156 " fill-opacity="1" fill-rule="nonzero"/></g></g></g></g></g></g></g></g><g clip-path="url(#078a32b9cd)"><g clip-path="url(#b0fccd6f91)"><g clip-path="url(#8f78463354)"><g transform="matrix(1, 0, 0, 1, 129, 326)"><g clip-path="url(#309e83ffaa)"><g clip-path="url(#ae255bcb94)"><g clip-path="url(#3332879323)"><g clip-path="url(#4b349d0e33)"><path fill="#43b187" d="M -6.886719 60.222656 L 15.214844 -5.070312 L 49.964844 6.691406 L 27.863281 71.984375 Z M -6.886719 60.222656 " fill-opacity="1" fill-rule="nonzero"/></g></g></g></g></g></g></g></g><g clip-path="url(#a4fbed7d7b)"><g clip-path="url(#c432097715)"><g clip-path="url(#eb67d95273)"><g transform="matrix(1, 0, 0, 1, 87, 328)"><g clip-path="url(#204be25210)"><g clip-path="url(#7bc61aa4bf)"><g clip-path="url(#b668c4e89f)"><g clip-path="url(#46ccd4751a)"><path fill="#43b187" d="M -2.574219 22.609375 L 5.640625 -1.660156 L 18.554688 2.714844 L 10.339844 26.980469 Z M -2.574219 22.609375 " fill-opacity="1" fill-rule="nonzero"/></g></g></g></g></g></g></g></g><g clip-path="url(#ae6b3d0576)"><g clip-path="url(#3b2e76a45c)"><g transform="matrix(1, 0, 0, 1, 57, 207)"><g clip-path="url(#8990b6393e)"><g clip-path="url(#e4b7d46266)"><g clip-path="url(#1fbd7650f7)"><path fill="#ff8500" d="M 0.527344 24.257812 L 158.773438 0.851562 L 169.320312 72.171875 L 11.078125 95.578125 Z M 0.527344 24.257812 " fill-opacity="1" fill-rule="nonzero"/></g></g></g></g></g></g><g clip-path="url(#1189f61a96)"><g clip-path="url(#2b34a71992)"><g clip-path="url(#362ebef5a9)"><g transform="matrix(1, 0, 0, 1, 57, 180)"><g clip-path="url(#d8855996bc)"><g clip-path="url(#f9c0dcbc3d)"><g clip-path="url(#c3a5ec179c)"><g clip-path="url(#7692390737)"><path fill="#ffaa08" d="M -5.074219 13.390625 L 153.265625 -10.027344 L 165.304688 71.367188 L 6.964844 94.785156 Z M -5.074219 13.390625 " fill-opacity="1" fill-rule="nonzero"/></g></g></g></g></g></g></g></g><g clip-path="url(#311a8444a7)"><g clip-path="url(#aa1c4830ac)"><g clip-path="url(#c5ca806474)"><g transform="matrix(1, 0, 0, 1, 102, 199)"><g clip-path="url(#9df8bec201)"><g clip-path="url(#3db1fed75a)"><g clip-path="url(#f5c6d2bfac)"><g clip-path="url(#8e78a2b08d)"><path fill="#ff8500" d="M -2.3125 6.292969 L 66.019531 -3.816406 L 71.730469 34.800781 L 3.398438 44.90625 Z M -2.3125 6.292969 " fill-opacity="1" fill-rule="nonzero"/></g></g></g></g></g></g></g></g></svg>