<svg xmlns="http://www.w3.org/2000/svg" xmlns:xlink="http://www.w3.org/1999/xlink" width="636" zoomAndPan="magnify" viewBox="0 0 476.87997 476.999988" height="636" preserveAspectRatio="xMidYMid meet" version="1.0"><defs><clipPath id="a22a3c0978"><path d="M 30 79 L 122 79 L 122 386 L 30 386 Z M 30 79 " clip-rule="nonzero"/></clipPath><clipPath id="3f008d00e0"><path d="M 66.34375 79.011719 L 121.558594 85.582031 L 85.882812 385.355469 L 30.667969 378.785156 Z M 66.34375 79.011719 " clip-rule="nonzero"/></clipPath><clipPath id="17cef5b566"><path d="M 0.664062 0 L 91.601562 0 L 91.601562 306.441406 L 0.664062 306.441406 Z M 0.664062 0 " clip-rule="nonzero"/></clipPath><clipPath id="c226093607"><path d="M 36.34375 0.0117188 L 91.558594 6.582031 L 55.882812 306.355469 L 0.667969 299.785156 Z M 36.34375 0.0117188 " clip-rule="nonzero"/></clipPath><clipPath id="5f4952a507"><rect x="0" width="92" y="0" height="307"/></clipPath><clipPath id="b2712750bb"><path d="M 74 84 L 125 84 L 125 386 L 74 386 Z M 74 84 " clip-rule="nonzero"/></clipPath><clipPath id="1f64b387a3"><path d="M 110.644531 84.285156 L 124.601562 85.945312 L 88.925781 385.71875 L 74.972656 384.058594 Z M 110.644531 84.285156 " clip-rule="nonzero"/></clipPath><clipPath id="ca75163bed"><path d="M 0.816406 0.0742188 L 50.722656 0.0742188 L 50.722656 301.921875 L 0.816406 301.921875 Z M 0.816406 0.0742188 " clip-rule="nonzero"/></clipPath><clipPath id="23dd038e9b"><path d="M 36.644531 0.285156 L 50.601562 1.945312 L 14.925781 301.71875 L 0.972656 300.058594 Z M 36.644531 0.285156 " clip-rule="nonzero"/></clipPath><clipPath id="7afbddb9e3"><rect x="0" width="51" y="0" height="302"/></clipPath><clipPath id="c52010a929"><path d="M 66 7 L 125 7 L 125 86 L 66 86 Z M 66 7 " clip-rule="nonzero"/></clipPath><clipPath id="eaa9d1f044"><path d="M 75.472656 4.238281 L 133.503906 11.144531 L 124.601562 85.949219 L 66.570312 79.042969 Z M 75.472656 4.238281 " clip-rule="nonzero"/></clipPath><clipPath id="3f16211e16"><path d="M 104.488281 7.691406 L 124.601562 85.945312 L 66.570312 79.039062 Z M 104.488281 7.691406 " clip-rule="nonzero"/></clipPath><clipPath id="ba3abd03b1"><path d="M 0.417969 0.535156 L 58.722656 0.535156 L 58.722656 78.996094 L 0.417969 78.996094 Z M 0.417969 0.535156 " clip-rule="nonzero"/></clipPath><clipPath id="4e06b4e3a6"><path d="M 9.472656 -2.761719 L 67.503906 4.144531 L 58.601562 78.949219 L 0.570312 72.042969 Z M 9.472656 -2.761719 " clip-rule="nonzero"/></clipPath><clipPath id="afbf8b9880"><path d="M 38.488281 0.691406 L 58.601562 78.945312 L 0.570312 72.039062 Z M 38.488281 0.691406 " clip-rule="nonzero"/></clipPath><clipPath id="9c478472ab"><rect x="0" width="59" y="0" height="79"/></clipPath><clipPath id="d4eeaa2a2e"><path d="M 95 8 L 110 8 L 110 27 L 95 27 Z M 95 8 " clip-rule="nonzero"/></clipPath><clipPath id="f98ff81fc3"><path d="M 97.457031 7.71875 L 111.316406 9.367188 L 109.265625 26.585938 L 95.40625 24.9375 Z M 97.457031 7.71875 " clip-rule="nonzero"/></clipPath><clipPath id="77e95d7ff5"><path d="M 104.386719 8.542969 L 109.269531 26.574219 L 95.410156 24.925781 Z M 104.386719 8.542969 " clip-rule="nonzero"/></clipPath><clipPath id="1334d1d7c4"><path d="M 0.210938 0.496094 L 14.367188 0.496094 L 14.367188 18.730469 L 0.210938 18.730469 Z M 0.210938 0.496094 " clip-rule="nonzero"/></clipPath><clipPath id="2eedf0ae9d"><path d="M 2.457031 -0.28125 L 16.316406 1.367188 L 14.265625 18.585938 L 0.40625 16.9375 Z M 2.457031 -0.28125 " clip-rule="nonzero"/></clipPath><clipPath id="8e44059bcd"><path d="M 9.386719 0.542969 L 14.269531 18.574219 L 0.410156 16.925781 Z M 9.386719 0.542969 " clip-rule="nonzero"/></clipPath><clipPath id="648db134a3"><rect x="0" width="15" y="0" height="19"/></clipPath><clipPath id="fd7d10fc24"><path d="M 146 69 L 336 69 L 336 363 L 146 363 Z M 146 69 " clip-rule="nonzero"/></clipPath><clipPath id="c33f2f493e"><path d="M 146.804688 94.792969 L 196.179688 69.214844 L 335.042969 337.269531 L 285.671875 362.847656 Z M 146.804688 94.792969 " clip-rule="nonzero"/></clipPath><clipPath id="e6dcd712e3"><path d="M 0.796875 0.199219 L 189.148438 0.199219 L 189.148438 293.886719 L 0.796875 293.886719 Z M 0.796875 0.199219 " clip-rule="nonzero"/></clipPath><clipPath id="5e1eafc539"><path d="M 0.804688 25.792969 L 50.179688 0.214844 L 189.042969 268.269531 L 139.671875 293.847656 Z M 0.804688 25.792969 " clip-rule="nonzero"/></clipPath><clipPath id="46580715a2"><rect x="0" width="190" y="0" height="294"/></clipPath><clipPath id="a85bfae0ec"><path d="M 186 67 L 338 67 L 338 343 L 186 343 Z M 186 67 " clip-rule="nonzero"/></clipPath><clipPath id="278f69ca2b"><path d="M 186.417969 74.265625 L 198.898438 67.800781 L 337.765625 335.855469 L 325.285156 342.320312 Z M 186.417969 74.265625 " clip-rule="nonzero"/></clipPath><clipPath id="fd9a837127"><path d="M 0.386719 0.761719 L 151.789062 0.761719 L 151.789062 275.492188 L 0.386719 275.492188 Z M 0.386719 0.761719 " clip-rule="nonzero"/></clipPath><clipPath id="a333a6385c"><path d="M 0.417969 7.265625 L 12.898438 0.800781 L 151.765625 268.855469 L 139.285156 275.320312 Z M 0.417969 7.265625 " clip-rule="nonzero"/></clipPath><clipPath id="255dcacd45"><rect x="0" width="152" y="0" height="276"/></clipPath><clipPath id="b50f6d341d"><path d="M 138 14 L 199 14 L 199 95 L 138 95 Z M 138 14 " clip-rule="nonzero"/></clipPath><clipPath id="f8de0012a8"><path d="M 112.351562 27.796875 L 164.246094 0.914062 L 198.898438 67.808594 L 147.007812 94.6875 Z M 112.351562 27.796875 " clip-rule="nonzero"/></clipPath><clipPath id="8c9e0d92ba"><path d="M 138.300781 14.355469 L 198.894531 67.800781 L 147.003906 94.683594 Z M 138.300781 14.355469 " clip-rule="nonzero"/></clipPath><clipPath id="03c11a78e4"><path d="M 0.160156 0.253906 L 61 0.253906 L 61 80.875 L 0.160156 80.875 Z M 0.160156 0.253906 " clip-rule="nonzero"/></clipPath><clipPath id="89ab36c714"><path d="M -25.648438 13.796875 L 26.246094 -13.085938 L 60.898438 53.808594 L 9.007812 80.6875 Z M -25.648438 13.796875 " clip-rule="nonzero"/></clipPath><clipPath id="d35bb31ac9"><path d="M 0.300781 0.355469 L 60.894531 53.800781 L 9.003906 80.683594 Z M 0.300781 0.355469 " clip-rule="nonzero"/></clipPath><clipPath id="f18820f57b"><rect x="0" width="61" y="0" height="81"/></clipPath><clipPath id="6d22948713"><path d="M 138 15 L 153 15 L 153 34 L 138 34 Z M 138 15 " clip-rule="nonzero"/></clipPath><clipPath id="cbdfa34e63"><path d="M 132.5 18.328125 L 144.890625 11.910156 L 152.867188 27.304688 L 140.472656 33.722656 Z M 132.5 18.328125 " clip-rule="nonzero"/></clipPath><clipPath id="56cae06460"><path d="M 138.695312 15.117188 L 152.863281 27.292969 L 140.46875 33.714844 Z M 138.695312 15.117188 " clip-rule="nonzero"/></clipPath><clipPath id="f8aba53973"><path d="M 0.640625 0 L 15 0 L 15 18.929688 L 0.640625 18.929688 Z M 0.640625 0 " clip-rule="nonzero"/></clipPath><clipPath id="3aaa617c43"><path d="M -5.5 3.328125 L 6.890625 -3.089844 L 14.867188 12.304688 L 2.472656 18.722656 Z M -5.5 3.328125 " clip-rule="nonzero"/></clipPath><clipPath id="8c24570e17"><path d="M 0.695312 0.117188 L 14.863281 12.292969 L 2.46875 18.714844 Z M 0.695312 0.117188 " clip-rule="nonzero"/></clipPath><clipPath id="6446778711"><rect x="0" width="15" y="0" height="19"/></clipPath><clipPath id="65f4e0cfe9"><path d="M 249.046875 79.566406 L 304.652344 79.566406 L 304.652344 381.457031 L 249.046875 381.457031 Z M 249.046875 79.566406 " clip-rule="nonzero"/></clipPath><clipPath id="dde5543141"><path d="M 0.046875 0.566406 L 55.652344 0.566406 L 55.652344 302.457031 L 0.046875 302.457031 Z M 0.046875 0.566406 " clip-rule="nonzero"/></clipPath><clipPath id="f7e4715070"><rect x="0" width="56" y="0" height="303"/></clipPath><clipPath id="667d706c4c"><path d="M 293.664062 79.566406 L 307.71875 79.566406 L 307.71875 381.457031 L 293.664062 381.457031 Z M 293.664062 79.566406 " clip-rule="nonzero"/></clipPath><clipPath id="54007a2b4b"><path d="M 0.664062 0.566406 L 14.71875 0.566406 L 14.71875 302.457031 L 0.664062 302.457031 Z M 0.664062 0.566406 " clip-rule="nonzero"/></clipPath><clipPath id="7116db21f0"><rect x="0" width="15" y="0" height="303"/></clipPath><clipPath id="d018a840c7"><path d="M 249.277344 4.234375 L 307.71875 4.234375 L 307.71875 79.570312 L 249.277344 79.570312 Z M 249.277344 4.234375 " clip-rule="nonzero"/></clipPath><clipPath id="fe5ce96aab"><path d="M 278.496094 4.234375 L 307.71875 79.566406 L 249.277344 79.566406 Z M 278.496094 4.234375 " clip-rule="nonzero"/></clipPath><clipPath id="698f11a39c"><path d="M 0.277344 0.234375 L 58.71875 0.234375 L 58.71875 75.570312 L 0.277344 75.570312 Z M 0.277344 0.234375 " clip-rule="nonzero"/></clipPath><clipPath id="c7e6517cf2"><path d="M 29.496094 0.234375 L 58.71875 75.566406 L 0.277344 75.566406 Z M 29.496094 0.234375 " clip-rule="nonzero"/></clipPath><clipPath id="30aec86288"><rect x="0" width="59" y="0" height="76"/></clipPath><clipPath id="1817dd8228"><path d="M 271.519531 5.097656 L 285.476562 5.097656 L 285.476562 22.433594 L 271.519531 22.433594 Z M 271.519531 5.097656 " clip-rule="nonzero"/></clipPath><clipPath id="3a34710169"><path d="M 278.496094 5.097656 L 285.476562 22.421875 L 271.519531 22.421875 Z M 278.496094 5.097656 " clip-rule="nonzero"/></clipPath><clipPath id="25e2031041"><path d="M 0.519531 0.0976562 L 14.476562 0.0976562 L 14.476562 17.433594 L 0.519531 17.433594 Z M 0.519531 0.0976562 " clip-rule="nonzero"/></clipPath><clipPath id="b8a43cc8a2"><path d="M 7.496094 0.0976562 L 14.476562 17.421875 L 0.519531 17.421875 Z M 7.496094 0.0976562 " clip-rule="nonzero"/></clipPath><clipPath id="4afbdf65f1"><rect x="0" width="15" y="0" height="18"/></clipPath><clipPath id="a4e96de05c"><path d="M 315 118 L 415 118 L 415 426 L 315 426 Z M 315 118 " clip-rule="nonzero"/></clipPath><clipPath id="124c219747"><path d="M 359.296875 118.324219 L 414.308594 126.410156 L 370.414062 425.09375 L 315.398438 417.007812 Z M 359.296875 118.324219 " clip-rule="nonzero"/></clipPath><clipPath id="b7f6ab83f4"><path d="M 0.234375 0.148438 L 99.328125 0.148438 L 99.328125 307.269531 L 0.234375 307.269531 Z M 0.234375 0.148438 " clip-rule="nonzero"/></clipPath><clipPath id="b078174a93"><path d="M 44.296875 0.324219 L 99.308594 8.410156 L 55.414062 307.09375 L 0.398438 299.007812 Z M 44.296875 0.324219 " clip-rule="nonzero"/></clipPath><clipPath id="c728679688"><rect x="0" width="100" y="0" height="308"/></clipPath><clipPath id="0b6982d298"><path d="M 359 124 L 418 124 L 418 426 L 359 426 Z M 359 124 " clip-rule="nonzero"/></clipPath><clipPath id="671c137781"><path d="M 403.4375 124.8125 L 417.34375 126.855469 L 373.445312 425.539062 L 359.539062 423.496094 Z M 403.4375 124.8125 " clip-rule="nonzero"/></clipPath><clipPath id="7b55ac34e7"><path d="M 0.382812 0.625 L 58.449219 0.625 L 58.449219 301.75 L 0.382812 301.75 Z M 0.382812 0.625 " clip-rule="nonzero"/></clipPath><clipPath id="34fbf81b36"><path d="M 44.4375 0.8125 L 58.34375 2.855469 L 14.445312 301.539062 L 0.539062 299.496094 Z M 44.4375 0.8125 " clip-rule="nonzero"/></clipPath><clipPath id="514428b275"><rect x="0" width="59" y="0" height="302"/></clipPath><clipPath id="a3ff188c45"><path d="M 359 48 L 418 48 L 418 127 L 359 127 Z M 359 48 " clip-rule="nonzero"/></clipPath><clipPath id="7541009b84"><path d="M 370.476562 43.832031 L 428.296875 52.328125 L 417.34375 126.863281 L 359.519531 118.363281 Z M 370.476562 43.832031 " clip-rule="nonzero"/></clipPath><clipPath id="1018fc97f9"><path d="M 399.386719 48.078125 L 417.34375 126.855469 L 359.523438 118.359375 Z M 399.386719 48.078125 " clip-rule="nonzero"/></clipPath><clipPath id="862e7df851"><path d="M 0.382812 0 L 58.449219 0 L 58.449219 79 L 0.382812 79 Z M 0.382812 0 " clip-rule="nonzero"/></clipPath><clipPath id="e2805acf41"><path d="M 11.476562 -4.167969 L 69.296875 4.328125 L 58.34375 78.863281 L 0.519531 70.363281 Z M 11.476562 -4.167969 " clip-rule="nonzero"/></clipPath><clipPath id="57fa36db07"><path d="M 40.386719 0.078125 L 58.34375 78.855469 L 0.523438 70.359375 Z M 40.386719 0.078125 " clip-rule="nonzero"/></clipPath><clipPath id="7881eadb15"><rect x="0" width="59" y="0" height="79"/></clipPath><clipPath id="2db134cdda"><path d="M 389 48 L 404 48 L 404 68 L 389 68 Z M 389 48 " clip-rule="nonzero"/></clipPath><clipPath id="d6a2f28c30"><path d="M 392.355469 47.917969 L 406.164062 49.945312 L 403.644531 67.097656 L 389.835938 65.070312 Z M 392.355469 47.917969 " clip-rule="nonzero"/></clipPath><clipPath id="7cd7b34044"><path d="M 399.261719 48.929688 L 403.644531 67.089844 L 389.835938 65.058594 Z M 399.261719 48.929688 " clip-rule="nonzero"/></clipPath><clipPath id="8a39431cd8"><path d="M 0.617188 0.804688 L 14.773438 0.804688 L 14.773438 19.28125 L 0.617188 19.28125 Z M 0.617188 0.804688 " clip-rule="nonzero"/></clipPath><clipPath id="e6eb7550ca"><path d="M 3.355469 -0.0820312 L 17.164062 1.945312 L 14.644531 19.097656 L 0.835938 17.070312 Z M 3.355469 -0.0820312 " clip-rule="nonzero"/></clipPath><clipPath id="ccd7b9ecd9"><path d="M 10.261719 0.929688 L 14.644531 19.089844 L 0.835938 17.058594 Z M 10.261719 0.929688 " clip-rule="nonzero"/></clipPath><clipPath id="dda52e29e1"><rect x="0" width="15" y="0" height="20"/></clipPath><clipPath id="9700e77ce0"><path d="M 27 151 L 185 151 L 185 453.582031 L 27 453.582031 Z M 27 151 " clip-rule="nonzero"/></clipPath><clipPath id="88a8132b1c"><path d="M 27.050781 170.621094 L 79.128906 151.132812 L 184.941406 433.871094 L 132.863281 453.359375 Z M 27.050781 170.621094 " clip-rule="nonzero"/></clipPath><clipPath id="43dfe62012"><path d="M 0 0.0195312 L 157.945312 0.0195312 L 157.945312 302.582031 L 0 302.582031 Z M 0 0.0195312 " clip-rule="nonzero"/></clipPath><clipPath id="4b5dc760a3"><path d="M 0.0507812 19.621094 L 52.128906 0.132812 L 157.941406 282.871094 L 105.863281 302.359375 Z M 0.0507812 19.621094 " clip-rule="nonzero"/></clipPath><clipPath id="bda6c3f813"><rect x="0" width="158" y="0" height="303"/></clipPath><clipPath id="62bfc06ee4"><path d="M 68 150 L 188 150 L 188 438 L 68 438 Z M 68 150 " clip-rule="nonzero"/></clipPath><clipPath id="eef63c2a05"><path d="M 68.835938 154.980469 L 81.996094 150.054688 L 187.8125 432.792969 L 174.648438 437.71875 Z M 68.835938 154.980469 " clip-rule="nonzero"/></clipPath><clipPath id="aeaa076020"><path d="M 0.816406 0 L 119.828125 0 L 119.828125 287.746094 L 0.816406 287.746094 Z M 0.816406 0 " clip-rule="nonzero"/></clipPath><clipPath id="87b9b1ddda"><path d="M 0.835938 4.980469 L 13.996094 0.0546875 L 119.8125 282.792969 L 106.648438 287.71875 Z M 0.835938 4.980469 " clip-rule="nonzero"/></clipPath><clipPath id="58832e2da3"><rect x="0" width="120" y="0" height="288"/></clipPath><clipPath id="b2935656da"><path d="M 27 89 L 82 89 L 82 171 L 27 171 Z M 27 89 " clip-rule="nonzero"/></clipPath><clipPath id="93b1af0aee"><path d="M 0.859375 99.988281 L 55.59375 79.503906 L 81.996094 150.0625 L 27.261719 170.546875 Z M 0.859375 99.988281 " clip-rule="nonzero"/></clipPath><clipPath id="7f290b422f"><path d="M 28.226562 89.746094 L 81.996094 150.054688 L 27.261719 170.539062 Z M 28.226562 89.746094 " clip-rule="nonzero"/></clipPath><clipPath id="7a4eafbaf0"><path d="M 0.0664062 0.59375 L 55 0.59375 L 55 81.695312 L 0.0664062 81.695312 Z M 0.0664062 0.59375 " clip-rule="nonzero"/></clipPath><clipPath id="a5208a3233"><path d="M -26.140625 10.988281 L 28.59375 -9.496094 L 54.996094 61.0625 L 0.261719 81.546875 Z M -26.140625 10.988281 " clip-rule="nonzero"/></clipPath><clipPath id="81f1f65667"><path d="M 1.226562 0.746094 L 54.996094 61.054688 L 0.261719 81.539062 Z M 1.226562 0.746094 " clip-rule="nonzero"/></clipPath><clipPath id="2783d6e749"><rect x="0" width="55" y="0" height="82"/></clipPath><clipPath id="d5cd7a1979"><path d="M 28 90 L 42 90 L 42 110 L 28 110 Z M 28 90 " clip-rule="nonzero"/></clipPath><clipPath id="f004a87800"><path d="M 21.992188 93 L 35.0625 88.105469 L 41.140625 104.34375 L 28.070312 109.234375 Z M 21.992188 93 " clip-rule="nonzero"/></clipPath><clipPath id="45fb14e6af"><path d="M 28.527344 90.550781 L 41.136719 104.332031 L 28.066406 109.226562 Z M 28.527344 90.550781 " clip-rule="nonzero"/></clipPath><clipPath id="06b5c099e8"><path d="M 0.0273438 0.316406 L 13.222656 0.316406 L 13.222656 19.269531 L 0.0273438 19.269531 Z M 0.0273438 0.316406 " clip-rule="nonzero"/></clipPath><clipPath id="916e974bab"><path d="M -6.007812 3 L 7.0625 -1.894531 L 13.140625 14.34375 L 0.0703125 19.234375 Z M -6.007812 3 " clip-rule="nonzero"/></clipPath><clipPath id="5198d993ef"><path d="M 0.527344 0.550781 L 13.136719 14.332031 L 0.0664062 19.226562 Z M 0.527344 0.550781 " clip-rule="nonzero"/></clipPath><clipPath id="faab3aa129"><rect x="0" width="14" y="0" height="20"/></clipPath><clipPath id="d8fc1eefb3"><rect x="0" width="429" y="0" height="454"/></clipPath></defs><g transform="matrix(1, 0, 0, 1, 25, 11)"><g clip-path="url(#d8fc1eefb3)"><g clip-path="url(#a22a3c0978)"><g clip-path="url(#3f008d00e0)"><g transform="matrix(1, 0, 0, 1, 30, 79)"><g clip-path="url(#5f4952a507)"><g clip-path="url(#17cef5b566)"><g clip-path="url(#c226093607)"><path fill="#ffd2fd" d="M 36.34375 0.0117188 L 91.558594 6.582031 L 55.878906 306.390625 L 0.664062 299.820312 Z M 36.34375 0.0117188 " fill-opacity="1" fill-rule="nonzero"/></g></g></g></g></g></g><g clip-path="url(#b2712750bb)"><g clip-path="url(#1f64b387a3)"><g transform="matrix(1, 0, 0, 1, 74, 84)"><g clip-path="url(#7afbddb9e3)"><g clip-path="url(#ca75163bed)"><g clip-path="url(#23dd038e9b)"><path fill="#b258cb" d="M 36.644531 0.285156 L 50.601562 1.945312 L 14.925781 301.710938 L 0.972656 300.050781 Z M 36.644531 0.285156 " fill-opacity="1" fill-rule="nonzero"/></g></g></g></g></g></g><g clip-path="url(#c52010a929)"><g clip-path="url(#eaa9d1f044)"><g clip-path="url(#3f16211e16)"><g transform="matrix(1, 0, 0, 1, 66, 7)"><g clip-path="url(#9c478472ab)"><g clip-path="url(#ba3abd03b1)"><g clip-path="url(#4e06b4e3a6)"><g clip-path="url(#afbf8b9880)"><path fill="#ffebd2" d="M 9.472656 -2.761719 L 67.503906 4.144531 L 58.601562 78.949219 L 0.570312 72.042969 Z M 9.472656 -2.761719 " fill-opacity="1" fill-rule="nonzero"/></g></g></g></g></g></g></g></g><g clip-path="url(#d4eeaa2a2e)"><g clip-path="url(#f98ff81fc3)"><g clip-path="url(#77e95d7ff5)"><g transform="matrix(1, 0, 0, 1, 95, 8)"><g clip-path="url(#648db134a3)"><g clip-path="url(#1334d1d7c4)"><g clip-path="url(#2eedf0ae9d)"><g clip-path="url(#8e44059bcd)"><path fill="#ffd2fd" d="M 2.457031 -0.28125 L 16.316406 1.367188 L 14.265625 18.585938 L 0.40625 16.9375 Z M 2.457031 -0.28125 " fill-opacity="1" fill-rule="nonzero"/></g></g></g></g></g></g></g></g><g clip-path="url(#fd7d10fc24)"><g clip-path="url(#c33f2f493e)"><g transform="matrix(1, 0, 0, 1, 146, 69)"><g clip-path="url(#46580715a2)"><g clip-path="url(#e6dcd712e3)"><g clip-path="url(#5e1eafc539)"><path fill="#fdffd2" d="M 0.804688 25.792969 L 50.179688 0.214844 L 189.0625 268.300781 L 139.6875 293.878906 Z M 0.804688 25.792969 " fill-opacity="1" fill-rule="nonzero"/></g></g></g></g></g></g><g clip-path="url(#a85bfae0ec)"><g clip-path="url(#278f69ca2b)"><g transform="matrix(1, 0, 0, 1, 186, 67)"><g clip-path="url(#255dcacd45)"><g clip-path="url(#fd9a837127)"><g clip-path="url(#a333a6385c)"><path fill="#cbb258" d="M 0.417969 7.265625 L 12.898438 0.800781 L 151.761719 268.847656 L 139.28125 275.3125 Z M 0.417969 7.265625 " fill-opacity="1" fill-rule="nonzero"/></g></g></g></g></g></g><g clip-path="url(#b50f6d341d)"><g clip-path="url(#f8de0012a8)"><g clip-path="url(#8c9e0d92ba)"><g transform="matrix(1, 0, 0, 1, 138, 14)"><g clip-path="url(#f18820f57b)"><g clip-path="url(#03c11a78e4)"><g clip-path="url(#89ab36c714)"><g clip-path="url(#d35bb31ac9)"><path fill="#ffebd2" d="M -25.648438 13.796875 L 26.246094 -13.085938 L 60.898438 53.808594 L 9.007812 80.6875 Z M -25.648438 13.796875 " fill-opacity="1" fill-rule="nonzero"/></g></g></g></g></g></g></g></g><g clip-path="url(#6d22948713)"><g clip-path="url(#cbdfa34e63)"><g clip-path="url(#56cae06460)"><g transform="matrix(1, 0, 0, 1, 138, 15)"><g clip-path="url(#6446778711)"><g clip-path="url(#f8aba53973)"><g clip-path="url(#3aaa617c43)"><g clip-path="url(#8c24570e17)"><path fill="#fdffd2" d="M -5.5 3.328125 L 6.890625 -3.089844 L 14.867188 12.304688 L 2.472656 18.722656 Z M -5.5 3.328125 " fill-opacity="1" fill-rule="nonzero"/></g></g></g></g></g></g></g></g><g clip-path="url(#65f4e0cfe9)"><g transform="matrix(1, 0, 0, 1, 249, 79)"><g clip-path="url(#f7e4715070)"><g clip-path="url(#dde5543141)"><path fill="#6db143" d="M 0.046875 0.566406 L 55.652344 0.566406 L 55.652344 302.492188 L 0.046875 302.492188 Z M 0.046875 0.566406 " fill-opacity="1" fill-rule="nonzero"/></g></g></g></g><g clip-path="url(#667d706c4c)"><g transform="matrix(1, 0, 0, 1, 293, 79)"><g clip-path="url(#7116db21f0)"><g clip-path="url(#54007a2b4b)"><path fill="#244348" d="M 0.664062 0.566406 L 14.71875 0.566406 L 14.71875 302.449219 L 0.664062 302.449219 Z M 0.664062 0.566406 " fill-opacity="1" fill-rule="nonzero"/></g></g></g></g><g clip-path="url(#d018a840c7)"><g clip-path="url(#fe5ce96aab)"><g transform="matrix(1, 0, 0, 1, 249, 4)"><g clip-path="url(#30aec86288)"><g clip-path="url(#698f11a39c)"><g clip-path="url(#c7e6517cf2)"><path fill="#ffebd2" d="M 0.277344 0.234375 L 58.71875 0.234375 L 58.71875 75.570312 L 0.277344 75.570312 Z M 0.277344 0.234375 " fill-opacity="1" fill-rule="nonzero"/></g></g></g></g></g></g><g clip-path="url(#1817dd8228)"><g clip-path="url(#3a34710169)"><g transform="matrix(1, 0, 0, 1, 271, 5)"><g clip-path="url(#4afbdf65f1)"><g clip-path="url(#25e2031041)"><g clip-path="url(#b8a43cc8a2)"><path fill="#6db143" d="M 0.519531 0.0976562 L 14.476562 0.0976562 L 14.476562 17.433594 L 0.519531 17.433594 Z M 0.519531 0.0976562 " fill-opacity="1" fill-rule="nonzero"/></g></g></g></g></g></g><g clip-path="url(#a4e96de05c)"><g clip-path="url(#124c219747)"><g transform="matrix(1, 0, 0, 1, 315, 118)"><g clip-path="url(#c728679688)"><g clip-path="url(#b7f6ab83f4)"><g clip-path="url(#b078174a93)"><path fill="#d2ffd5" d="M 44.296875 0.324219 L 99.3125 8.410156 L 55.40625 307.128906 L 0.390625 299.042969 Z M 44.296875 0.324219 " fill-opacity="1" fill-rule="nonzero"/></g></g></g></g></g></g><g clip-path="url(#0b6982d298)"><g clip-path="url(#671c137781)"><g transform="matrix(1, 0, 0, 1, 359, 124)"><g clip-path="url(#514428b275)"><g clip-path="url(#7b55ac34e7)"><g clip-path="url(#34fbf81b36)"><path fill="#58cbb2" d="M 44.4375 0.8125 L 58.34375 2.855469 L 14.445312 301.53125 L 0.539062 299.488281 Z M 44.4375 0.8125 " fill-opacity="1" fill-rule="nonzero"/></g></g></g></g></g></g><g clip-path="url(#a3ff188c45)"><g clip-path="url(#7541009b84)"><g clip-path="url(#1018fc97f9)"><g transform="matrix(1, 0, 0, 1, 359, 48)"><g clip-path="url(#7881eadb15)"><g clip-path="url(#862e7df851)"><g clip-path="url(#e2805acf41)"><g clip-path="url(#57fa36db07)"><path fill="#ffebd2" d="M 11.476562 -4.167969 L 69.296875 4.328125 L 58.34375 78.863281 L 0.519531 70.363281 Z M 11.476562 -4.167969 " fill-opacity="1" fill-rule="nonzero"/></g></g></g></g></g></g></g></g><g clip-path="url(#2db134cdda)"><g clip-path="url(#d6a2f28c30)"><g clip-path="url(#7cd7b34044)"><g transform="matrix(1, 0, 0, 1, 389, 48)"><g clip-path="url(#dda52e29e1)"><g clip-path="url(#8a39431cd8)"><g clip-path="url(#e6eb7550ca)"><g clip-path="url(#ccd7b9ecd9)"><path fill="#d2ffd5" d="M 3.355469 -0.0820312 L 17.164062 1.945312 L 14.644531 19.097656 L 0.835938 17.070312 Z M 3.355469 -0.0820312 " fill-opacity="1" fill-rule="nonzero"/></g></g></g></g></g></g></g></g><g clip-path="url(#9700e77ce0)"><g clip-path="url(#88a8132b1c)"><g transform="matrix(1, 0, 0, 1, 27, 151)"><g clip-path="url(#bda6c3f813)"><g clip-path="url(#43dfe62012)"><g clip-path="url(#4b5dc760a3)"><path fill="#ffaa08" d="M 0.0507812 19.621094 L 52.128906 0.132812 L 157.953125 282.902344 L 105.875 302.394531 Z M 0.0507812 19.621094 " fill-opacity="1" fill-rule="nonzero"/></g></g></g></g></g></g><g clip-path="url(#62bfc06ee4)"><g clip-path="url(#eef63c2a05)"><g transform="matrix(1, 0, 0, 1, 68, 150)"><g clip-path="url(#58832e2da3)"><g clip-path="url(#aeaa076020)"><g clip-path="url(#87b9b1ddda)"><path fill="#ff8500" d="M 0.835938 4.980469 L 13.996094 0.0546875 L 119.808594 282.785156 L 106.644531 287.710938 Z M 0.835938 4.980469 " fill-opacity="1" fill-rule="nonzero"/></g></g></g></g></g></g><g clip-path="url(#b2935656da)"><g clip-path="url(#93b1af0aee)"><g clip-path="url(#7f290b422f)"><g transform="matrix(1, 0, 0, 1, 27, 89)"><g clip-path="url(#2783d6e749)"><g clip-path="url(#7a4eafbaf0)"><g clip-path="url(#a5208a3233)"><g clip-path="url(#81f1f65667)"><path fill="#ffebd2" d="M -26.140625 10.988281 L 28.59375 -9.496094 L 54.996094 61.0625 L 0.261719 81.546875 Z M -26.140625 10.988281 " fill-opacity="1" fill-rule="nonzero"/></g></g></g></g></g></g></g></g><g clip-path="url(#d5cd7a1979)"><g clip-path="url(#f004a87800)"><g clip-path="url(#45fb14e6af)"><g transform="matrix(1, 0, 0, 1, 28, 90)"><g clip-path="url(#faab3aa129)"><g clip-path="url(#06b5c099e8)"><g clip-path="url(#916e974bab)"><g clip-path="url(#5198d993ef)"><path fill="#ffaa08" d="M -6.007812 3 L 7.0625 -1.894531 L 13.140625 14.34375 L 0.0703125 19.234375 Z M -6.007812 3 " fill-opacity="1" fill-rule="nonzero"/></g></g></g></g></g></g></g></g></g></g></svg>