<svg xmlns="http://www.w3.org/2000/svg" xmlns:xlink="http://www.w3.org/1999/xlink" width="636" zoomAndPan="magnify" viewBox="0 0 476.87997 476.999988" height="636" preserveAspectRatio="xMidYMid meet" version="1.0"><defs><clipPath id="71558fc5e3"><path d="M 138.722656 238.589844 L 303.835938 238.589844 L 303.835938 403.703125 L 138.722656 403.703125 Z M 138.722656 238.589844 " clip-rule="nonzero"/></clipPath><clipPath id="3640177429"><path d="M 138.722656 321.144531 C 138.722656 366.742188 175.683594 403.703125 221.277344 403.703125 C 266.875 403.703125 303.835938 366.742188 303.835938 321.144531 C 303.835938 275.550781 266.875 238.589844 221.277344 238.589844 C 175.683594 238.589844 138.722656 275.550781 138.722656 321.144531 Z M 138.722656 321.144531 " clip-rule="nonzero"/></clipPath><clipPath id="0d60115ff9"><path d="M 0.722656 0.589844 L 165.835938 0.589844 L 165.835938 165.703125 L 0.722656 165.703125 Z M 0.722656 0.589844 " clip-rule="nonzero"/></clipPath><clipPath id="1a927c2244"><path d="M 0.722656 83.144531 C 0.722656 128.742188 37.683594 165.703125 83.277344 165.703125 C 128.875 165.703125 165.835938 128.742188 165.835938 83.144531 C 165.835938 37.550781 128.875 0.589844 83.277344 0.589844 C 37.683594 0.589844 0.722656 37.550781 0.722656 83.144531 Z M 0.722656 83.144531 " clip-rule="nonzero"/></clipPath><clipPath id="923397121c"><rect x="0" width="166" y="0" height="166"/></clipPath><clipPath id="0eaa3b35ed"><path d="M 247 84 L 403 84 L 403 239 L 247 239 Z M 247 84 " clip-rule="nonzero"/></clipPath><clipPath id="4d36d8ec34"><path d="M 411.832031 95.050781 L 391.3125 248.429688 L 237.929688 227.910156 L 258.449219 74.53125 Z M 411.832031 95.050781 " clip-rule="nonzero"/></clipPath><clipPath id="aa5384b661"><path d="M 401.570312 171.738281 C 407.238281 129.382812 377.496094 90.457031 335.140625 84.789062 C 292.785156 79.125 253.855469 108.867188 248.191406 151.222656 C 242.523438 193.574219 272.265625 232.503906 314.621094 238.171875 C 356.976562 243.835938 395.90625 214.09375 401.570312 171.738281 Z M 401.570312 171.738281 " clip-rule="nonzero"/></clipPath><clipPath id="bca7490116"><path d="M 0 0 L 156 0 L 156 155 L 0 155 Z M 0 0 " clip-rule="nonzero"/></clipPath><clipPath id="41369b42ea"><path d="M 164.832031 11.050781 L 144.3125 164.429688 L -9.070312 143.910156 L 11.449219 -9.46875 Z M 164.832031 11.050781 " clip-rule="nonzero"/></clipPath><clipPath id="43229ab6d5"><path d="M 154.570312 87.738281 C 160.238281 45.382812 130.496094 6.457031 88.140625 0.789062 C 45.785156 -4.875 6.855469 24.867188 1.191406 67.222656 C -4.476562 109.574219 25.265625 148.503906 67.621094 154.171875 C 109.976562 159.835938 148.90625 130.09375 154.570312 87.738281 Z M 154.570312 87.738281 " clip-rule="nonzero"/></clipPath><clipPath id="0b7b885800"><rect x="0" width="156" y="0" height="155"/></clipPath><clipPath id="d46c1c83db"><path d="M 256 98 L 396 98 L 396 240 L 256 240 Z M 256 98 " clip-rule="nonzero"/></clipPath><clipPath id="43a27f2d97"><path d="M 403.960938 108.476562 L 385.339844 247.671875 L 247.753906 229.269531 L 266.375 90.074219 Z M 403.960938 108.476562 " clip-rule="nonzero"/></clipPath><clipPath id="a88afd5a86"><path d="M 394.652344 178.054688 C 399.792969 139.628906 373.160156 104.359375 335.167969 99.273438 C 297.175781 94.191406 262.210938 121.222656 257.070312 159.652344 C 251.929688 198.078125 278.558594 233.351562 316.550781 238.433594 C 354.542969 243.515625 389.511719 216.484375 394.652344 178.054688 Z M 394.652344 178.054688 " clip-rule="nonzero"/></clipPath><clipPath id="b9d16a7e86"><path d="M 0 0 L 140 0 L 140 142 L 0 142 Z M 0 0 " clip-rule="nonzero"/></clipPath><clipPath id="97d82e9dff"><path d="M 147.960938 10.476562 L 129.339844 149.671875 L -8.246094 131.269531 L 10.375 -7.925781 Z M 147.960938 10.476562 " clip-rule="nonzero"/></clipPath><clipPath id="28677ab303"><path d="M 138.652344 80.054688 C 143.792969 41.628906 117.160156 6.359375 79.167969 1.273438 C 41.175781 -3.808594 6.210938 23.222656 1.070312 61.652344 C -4.070312 100.078125 22.558594 135.351562 60.550781 140.433594 C 98.542969 145.515625 133.511719 118.484375 138.652344 80.054688 Z M 138.652344 80.054688 " clip-rule="nonzero"/></clipPath><clipPath id="3db85ec8dd"><rect x="0" width="140" y="0" height="142"/></clipPath><clipPath id="0ecd95bf18"><path d="M 147.226562 229.65625 L 295.335938 229.65625 L 295.335938 379.5 L 147.226562 379.5 Z M 147.226562 229.65625 " clip-rule="nonzero"/></clipPath><clipPath id="e0dab170cc"><path d="M 147.226562 304.597656 C 147.226562 345.964844 180.382812 379.5 221.28125 379.5 C 262.179688 379.5 295.335938 345.964844 295.335938 304.597656 C 295.335938 263.230469 262.179688 229.695312 221.28125 229.695312 C 180.382812 229.695312 147.226562 263.230469 147.226562 304.597656 Z M 147.226562 304.597656 " clip-rule="nonzero"/></clipPath><clipPath id="709224f854"><path d="M 0.226562 0.683594 L 148.335938 0.683594 L 148.335938 150.5 L 0.226562 150.5 Z M 0.226562 0.683594 " clip-rule="nonzero"/></clipPath><clipPath id="cbff073df7"><path d="M 0.226562 75.597656 C 0.226562 116.964844 33.382812 150.5 74.28125 150.5 C 115.179688 150.5 148.335938 116.964844 148.335938 75.597656 C 148.335938 34.230469 115.179688 0.695312 74.28125 0.695312 C 33.382812 0.695312 0.226562 34.230469 0.226562 75.597656 Z M 0.226562 75.597656 " clip-rule="nonzero"/></clipPath><clipPath id="c2dd25cc01"><rect x="0" width="149" y="0" height="151"/></clipPath><clipPath id="4d6c8f73e4"><path d="M 154.929688 91.820312 L 320.042969 91.820312 L 320.042969 256.933594 L 154.929688 256.933594 Z M 154.929688 91.820312 " clip-rule="nonzero"/></clipPath><clipPath id="4354aeec5f"><path d="M 237.484375 91.820312 C 191.890625 91.820312 154.929688 128.78125 154.929688 174.375 C 154.929688 219.972656 191.890625 256.933594 237.484375 256.933594 C 283.082031 256.933594 320.042969 219.972656 320.042969 174.375 C 320.042969 128.78125 283.082031 91.820312 237.484375 91.820312 Z M 237.484375 91.820312 " clip-rule="nonzero"/></clipPath><clipPath id="2e9147bb53"><path d="M 0.929688 0.820312 L 166.042969 0.820312 L 166.042969 165.933594 L 0.929688 165.933594 Z M 0.929688 0.820312 " clip-rule="nonzero"/></clipPath><clipPath id="f630bd7410"><path d="M 83.484375 0.820312 C 37.890625 0.820312 0.929688 37.78125 0.929688 83.375 C 0.929688 128.972656 37.890625 165.933594 83.484375 165.933594 C 129.082031 165.933594 166.042969 128.972656 166.042969 83.375 C 166.042969 37.78125 129.082031 0.820312 83.484375 0.820312 Z M 83.484375 0.820312 " clip-rule="nonzero"/></clipPath><clipPath id="2af2c151b1"><rect x="0" width="167" y="0" height="166"/></clipPath><clipPath id="d649cd117b"><path d="M 164.179688 100.542969 L 324.886719 100.542969 L 324.886719 261.25 L 164.179688 261.25 Z M 164.179688 100.542969 " clip-rule="nonzero"/></clipPath><clipPath id="1da0d9538b"><path d="M 244.53125 100.542969 C 200.15625 100.542969 164.179688 136.519531 164.179688 180.898438 C 164.179688 225.277344 200.15625 261.25 244.53125 261.25 C 288.910156 261.25 324.886719 225.277344 324.886719 180.898438 C 324.886719 136.519531 288.910156 100.542969 244.53125 100.542969 Z M 244.53125 100.542969 " clip-rule="nonzero"/></clipPath><clipPath id="c0ba5e4ed3"><path d="M 0.179688 0.542969 L 160.886719 0.542969 L 160.886719 161.25 L 0.179688 161.25 Z M 0.179688 0.542969 " clip-rule="nonzero"/></clipPath><clipPath id="4629342b61"><path d="M 80.53125 0.542969 C 36.15625 0.542969 0.179688 36.519531 0.179688 80.898438 C 0.179688 125.277344 36.15625 161.25 80.53125 161.25 C 124.910156 161.25 160.886719 125.277344 160.886719 80.898438 C 160.886719 36.519531 124.910156 0.542969 80.53125 0.542969 Z M 80.53125 0.542969 " clip-rule="nonzero"/></clipPath><clipPath id="300ffd61a1"><rect x="0" width="161" y="0" height="162"/></clipPath><clipPath id="0a2451847f"><path d="M 99.464844 167.949219 L 264.578125 167.949219 L 264.578125 333.0625 L 99.464844 333.0625 Z M 99.464844 167.949219 " clip-rule="nonzero"/></clipPath><clipPath id="f5c3aceff9"><path d="M 182.019531 167.949219 C 136.425781 167.949219 99.464844 204.910156 99.464844 250.507812 C 99.464844 296.101562 136.425781 333.0625 182.019531 333.0625 C 227.617188 333.0625 264.578125 296.101562 264.578125 250.507812 C 264.578125 204.910156 227.617188 167.949219 182.019531 167.949219 Z M 182.019531 167.949219 " clip-rule="nonzero"/></clipPath><clipPath id="e6e7ddf52f"><path d="M 0.464844 0.949219 L 165.578125 0.949219 L 165.578125 166.0625 L 0.464844 166.0625 Z M 0.464844 0.949219 " clip-rule="nonzero"/></clipPath><clipPath id="62ca504869"><path d="M 83.019531 0.949219 C 37.425781 0.949219 0.464844 37.910156 0.464844 83.507812 C 0.464844 129.101562 37.425781 166.0625 83.019531 166.0625 C 128.617188 166.0625 165.578125 129.101562 165.578125 83.507812 C 165.578125 37.910156 128.617188 0.949219 83.019531 0.949219 Z M 83.019531 0.949219 " clip-rule="nonzero"/></clipPath><clipPath id="5f1beb5610"><rect x="0" width="166" y="0" height="167"/></clipPath><clipPath id="c5b9e6d865"><path d="M 114.777344 174.375 L 264.617188 174.375 L 264.617188 322.484375 L 114.777344 322.484375 Z M 114.777344 174.375 " clip-rule="nonzero"/></clipPath><clipPath id="bf9fa1a3d8"><path d="M 189.675781 174.375 C 148.308594 174.375 114.777344 207.53125 114.777344 248.429688 C 114.777344 289.328125 148.308594 322.484375 189.675781 322.484375 C 231.042969 322.484375 264.578125 289.328125 264.578125 248.429688 C 264.578125 207.53125 231.042969 174.375 189.675781 174.375 Z M 189.675781 174.375 " clip-rule="nonzero"/></clipPath><clipPath id="1ca9520d5d"><path d="M 0.777344 0.375 L 150.617188 0.375 L 150.617188 148.484375 L 0.777344 148.484375 Z M 0.777344 0.375 " clip-rule="nonzero"/></clipPath><clipPath id="1fc5d1f07f"><path d="M 75.675781 0.375 C 34.308594 0.375 0.777344 33.53125 0.777344 74.429688 C 0.777344 115.328125 34.308594 148.484375 75.675781 148.484375 C 117.042969 148.484375 150.578125 115.328125 150.578125 74.429688 C 150.578125 33.53125 117.042969 0.375 75.675781 0.375 Z M 75.675781 0.375 " clip-rule="nonzero"/></clipPath><clipPath id="b84074d5ef"><rect x="0" width="151" y="0" height="149"/></clipPath><clipPath id="02dede9128"><path d="M 25 64 L 84 64 L 84 341 L 25 341 Z M 25 64 " clip-rule="nonzero"/></clipPath><clipPath id="5a3a0a6f70"><path d="M 66.570312 64.976562 L 83.527344 67.527344 L 42.539062 340.019531 L 25.582031 337.472656 Z M 66.570312 64.976562 " clip-rule="nonzero"/></clipPath><clipPath id="01c8564537"><path d="M 0.535156 0.753906 L 58.601562 0.753906 L 58.601562 276 L 0.535156 276 Z M 0.535156 0.753906 " clip-rule="nonzero"/></clipPath><clipPath id="d0022ce0e2"><path d="M 41.570312 0.976562 L 58.527344 3.527344 L 17.539062 276.019531 L 0.582031 273.472656 Z M 41.570312 0.976562 " clip-rule="nonzero"/></clipPath><clipPath id="10dede1fa4"><rect x="0" width="59" y="0" height="277"/></clipPath><clipPath id="93381d17bc"><path d="M 56 3 L 103 3 L 103 92 L 56 92 Z M 56 3 " clip-rule="nonzero"/></clipPath><clipPath id="36916edeb8"><path d="M 93.824219 94.957031 L 48.644531 88.160156 L 61.835938 0.449219 L 107.015625 7.246094 Z M 93.824219 94.957031 " clip-rule="nonzero"/></clipPath><clipPath id="deafd3e789"><path d="M 57.359375 30.230469 C 59.476562 16.152344 71.945312 1.996094 84.421875 3.871094 C 96.898438 5.75 104.65625 22.945312 102.535156 37.023438 C 96.847656 74.84375 71.234375 91.558594 71.234375 91.558594 C 71.234375 91.558594 51.515625 69.066406 57.359375 30.230469 Z M 57.359375 30.230469 " clip-rule="nonzero"/></clipPath><clipPath id="6489ab2e4b"><path d="M 0 0 L 47 0 L 47 88.625 L 0 88.625 Z M 0 0 " clip-rule="nonzero"/></clipPath><clipPath id="3972cce448"><path d="M 37.824219 91.957031 L -7.355469 85.160156 L 5.835938 -2.550781 L 51.015625 4.246094 Z M 37.824219 91.957031 " clip-rule="nonzero"/></clipPath><clipPath id="08b42963a7"><path d="M 1.359375 27.230469 C 3.476562 13.152344 15.945312 -1.003906 28.421875 0.871094 C 40.898438 2.75 48.65625 19.945312 46.535156 34.023438 C 40.847656 71.84375 15.234375 88.558594 15.234375 88.558594 C 15.234375 88.558594 -4.484375 66.066406 1.359375 27.230469 Z M 1.359375 27.230469 " clip-rule="nonzero"/></clipPath><clipPath id="a4e55c9b7a"><rect x="0" width="47" y="0" height="89"/></clipPath><clipPath id="f60d2dc323"><path d="M 4 323 L 52 323 L 52 412 L 4 412 Z M 4 323 " clip-rule="nonzero"/></clipPath><clipPath id="463ad53ccc"><path d="M 13.722656 320.382812 L 58.902344 327.179688 L 45.707031 414.890625 L 0.527344 408.09375 Z M 13.722656 320.382812 " clip-rule="nonzero"/></clipPath><clipPath id="d78a89dc79"><path d="M 50.1875 385.109375 C 48.070312 399.1875 35.597656 413.34375 23.121094 411.464844 C 10.648438 409.589844 2.890625 392.390625 5.007812 378.3125 C 10.695312 340.496094 36.3125 323.78125 36.3125 323.78125 C 36.3125 323.78125 56.03125 346.273438 50.1875 385.109375 Z M 50.1875 385.109375 " clip-rule="nonzero"/></clipPath><clipPath id="6e4c2e7b85"><path d="M 0 0.648438 L 48 0.648438 L 48 89 L 0 89 Z M 0 0.648438 " clip-rule="nonzero"/></clipPath><clipPath id="42cbab7b58"><path d="M 9.722656 -2.617188 L 54.902344 4.179688 L 41.707031 91.890625 L -3.472656 85.09375 Z M 9.722656 -2.617188 " clip-rule="nonzero"/></clipPath><clipPath id="8edd6c68e6"><path d="M 46.1875 62.109375 C 44.070312 76.1875 31.597656 90.34375 19.121094 88.464844 C 6.648438 86.589844 -1.109375 69.390625 1.007812 55.3125 C 6.695312 17.496094 32.3125 0.78125 32.3125 0.78125 C 32.3125 0.78125 52.03125 23.273438 46.1875 62.109375 Z M 46.1875 62.109375 " clip-rule="nonzero"/></clipPath><clipPath id="3421f61f09"><rect x="0" width="48" y="0" height="89"/></clipPath><clipPath id="8240686eaa"><rect x="0" width="108" y="0" height="416"/></clipPath><clipPath id="0bc01cbc97"><path d="M 36 64 L 152 64 L 152 329 L 36 329 Z M 36 64 " clip-rule="nonzero"/></clipPath><clipPath id="628166b8c6"><path d="M 36.941406 70.917969 L 52.957031 64.792969 L 151.371094 322.179688 L 135.355469 328.304688 Z M 36.941406 70.917969 " clip-rule="nonzero"/></clipPath><clipPath id="02480808a9"><path d="M 0.867188 0.640625 L 115.558594 0.640625 L 115.558594 264.332031 L 0.867188 264.332031 Z M 0.867188 0.640625 " clip-rule="nonzero"/></clipPath><clipPath id="9c2277fea2"><path d="M 0.941406 6.917969 L 16.957031 0.792969 L 115.371094 258.179688 L 99.355469 264.304688 Z M 0.941406 6.917969 " clip-rule="nonzero"/></clipPath><clipPath id="b7ea16b548"><rect x="0" width="116" y="0" height="265"/></clipPath><clipPath id="190287ca19"><path d="M 9 7 L 61 7 L 61 92 L 9 92 Z M 9 7 " clip-rule="nonzero"/></clipPath><clipPath id="5149268d62"><path d="M 75.417969 83.605469 L 32.742188 99.921875 L 1.0625 17.074219 L 43.738281 0.757812 Z M 75.417969 83.605469 " clip-rule="nonzero"/></clipPath><clipPath id="a8a79277a7"><path d="M 11.820312 45.203125 C 6.734375 31.90625 10.625 13.445312 22.410156 8.941406 C 34.195312 4.433594 49.410156 15.589844 54.492188 28.886719 C 68.152344 64.605469 54.078125 91.765625 54.078125 91.765625 C 54.078125 91.765625 25.84375 81.886719 11.820312 45.203125 Z M 11.820312 45.203125 " clip-rule="nonzero"/></clipPath><clipPath id="d1299ed07a"><path d="M 0 0 L 52 0 L 52 84.992188 L 0 84.992188 Z M 0 0 " clip-rule="nonzero"/></clipPath><clipPath id="1f3f3fc2bf"><path d="M 66.417969 76.605469 L 23.742188 92.921875 L -7.9375 10.074219 L 34.738281 -6.242188 Z M 66.417969 76.605469 " clip-rule="nonzero"/></clipPath><clipPath id="957e869694"><path d="M 2.820312 38.203125 C -2.265625 24.90625 1.625 6.445312 13.410156 1.941406 C 25.195312 -2.566406 40.410156 8.589844 45.492188 21.886719 C 59.152344 57.605469 45.078125 84.765625 45.078125 84.765625 C 45.078125 84.765625 16.84375 74.886719 2.820312 38.203125 Z M 2.820312 38.203125 " clip-rule="nonzero"/></clipPath><clipPath id="47d68e1264"><rect x="0" width="52" y="0" height="85"/></clipPath><clipPath id="2c1d079538"><path d="M 131 311 L 183 311 L 183 395 L 131 395 Z M 131 311 " clip-rule="nonzero"/></clipPath><clipPath id="53b7aa4a60"><path d="M 116.621094 319.265625 L 159.296875 302.945312 L 190.976562 385.792969 L 148.300781 402.113281 Z M 116.621094 319.265625 " clip-rule="nonzero"/></clipPath><clipPath id="f9363d7269"><path d="M 180.21875 357.667969 C 185.304688 370.964844 181.414062 389.421875 169.628906 393.929688 C 157.84375 398.433594 142.628906 387.28125 137.546875 373.984375 C 123.886719 338.261719 137.960938 311.105469 137.960938 311.105469 C 137.960938 311.105469 166.191406 320.980469 180.21875 357.667969 Z M 180.21875 357.667969 " clip-rule="nonzero"/></clipPath><clipPath id="4924df195e"><path d="M 0 0.0585938 L 52 0.0585938 L 52 84 L 0 84 Z M 0 0.0585938 " clip-rule="nonzero"/></clipPath><clipPath id="6c024158d9"><path d="M -14.378906 8.265625 L 28.296875 -8.054688 L 59.976562 74.792969 L 17.300781 91.113281 Z M -14.378906 8.265625 " clip-rule="nonzero"/></clipPath><clipPath id="243a4f0fba"><path d="M 49.21875 46.667969 C 54.304688 59.964844 50.414062 78.421875 38.628906 82.929688 C 26.84375 87.433594 11.628906 76.28125 6.546875 62.984375 C -7.113281 27.261719 6.960938 0.105469 6.960938 0.105469 C 6.960938 0.105469 35.191406 9.980469 49.21875 46.667969 Z M 49.21875 46.667969 " clip-rule="nonzero"/></clipPath><clipPath id="d57ab0f22d"><rect x="0" width="52" y="0" height="84"/></clipPath><clipPath id="4e3159b26b"><rect x="0" width="192" y="0" height="403"/></clipPath><clipPath id="8330e37447"><path d="M 251.492188 220.074219 L 416.609375 220.074219 L 416.609375 385.191406 L 251.492188 385.191406 Z M 251.492188 220.074219 " clip-rule="nonzero"/></clipPath><clipPath id="86de79ad6f"><path d="M 251.492188 302.632812 C 251.492188 348.226562 288.457031 385.191406 334.050781 385.191406 C 379.644531 385.191406 416.609375 348.226562 416.609375 302.632812 C 416.609375 257.039062 379.644531 220.074219 334.050781 220.074219 C 288.457031 220.074219 251.492188 257.039062 251.492188 302.632812 Z M 251.492188 302.632812 " clip-rule="nonzero"/></clipPath><clipPath id="c06a18110c"><path d="M 0.492188 0.0742188 L 165.609375 0.0742188 L 165.609375 165.191406 L 0.492188 165.191406 Z M 0.492188 0.0742188 " clip-rule="nonzero"/></clipPath><clipPath id="4e59406a5e"><path d="M 0.492188 82.632812 C 0.492188 128.226562 37.457031 165.191406 83.050781 165.191406 C 128.644531 165.191406 165.609375 128.226562 165.609375 82.632812 C 165.609375 37.039062 128.644531 0.0742188 83.050781 0.0742188 C 37.457031 0.0742188 0.492188 37.039062 0.492188 82.632812 Z M 0.492188 82.632812 " clip-rule="nonzero"/></clipPath><clipPath id="272c62c618"><rect x="0" width="166" y="0" height="166"/></clipPath><clipPath id="b04b4f2473"><path d="M 283 148 L 449 148 L 449 314 L 283 314 Z M 283 148 " clip-rule="nonzero"/></clipPath><clipPath id="45c35f5af7"><path d="M 445.648438 315.933594 L 280.609375 310.859375 L 285.683594 145.824219 L 450.71875 150.894531 Z M 445.648438 315.933594 " clip-rule="nonzero"/></clipPath><clipPath id="2fbc6d8181"><path d="M 363.128906 313.394531 C 408.703125 314.796875 446.78125 278.988281 448.183594 233.414062 C 449.585938 187.839844 413.773438 149.761719 368.203125 148.359375 C 322.628906 146.960938 284.546875 182.769531 283.148438 228.34375 C 281.746094 273.914062 317.554688 311.996094 363.128906 313.394531 Z M 363.128906 313.394531 " clip-rule="nonzero"/></clipPath><clipPath id="8001a2a006"><path d="M 0 0 L 166 0 L 166 166 L 0 166 Z M 0 0 " clip-rule="nonzero"/></clipPath><clipPath id="d16f5bfa32"><path d="M 162.648438 167.933594 L -2.390625 162.859375 L 2.683594 -2.175781 L 167.71875 2.894531 Z M 162.648438 167.933594 " clip-rule="nonzero"/></clipPath><clipPath id="00d604633b"><path d="M 80.128906 165.394531 C 125.703125 166.796875 163.78125 130.988281 165.183594 85.414062 C 166.585938 39.839844 130.773438 1.761719 85.203125 0.359375 C 39.628906 -1.039062 1.546875 34.769531 0.148438 80.34375 C -1.253906 125.914062 34.554688 163.996094 80.128906 165.394531 Z M 80.128906 165.394531 " clip-rule="nonzero"/></clipPath><clipPath id="3df58559bd"><rect x="0" width="166" y="0" height="166"/></clipPath><clipPath id="6f0093679a"><path d="M 283 165 L 424 165 L 424 305 L 283 305 Z M 283 165 " clip-rule="nonzero"/></clipPath><clipPath id="4ae2ed7e2c"><path d="M 421.714844 306.6875 L 281.550781 302.378906 L 285.808594 163.839844 L 425.972656 168.148438 Z M 421.714844 306.6875 " clip-rule="nonzero"/></clipPath><clipPath id="c62a7f1681"><path d="M 351.652344 304.535156 C 390.34375 305.722656 422.667969 275.675781 423.84375 237.417969 C 425.019531 199.160156 394.601562 167.183594 355.910156 165.996094 C 317.214844 164.808594 284.894531 194.855469 283.71875 233.113281 C 282.542969 271.367188 312.957031 303.34375 351.652344 304.535156 Z M 351.652344 304.535156 " clip-rule="nonzero"/></clipPath><clipPath id="728b0e0299"><path d="M 0 0 L 141 0 L 141 140 L 0 140 Z M 0 0 " clip-rule="nonzero"/></clipPath><clipPath id="100d398198"><path d="M 138.714844 141.6875 L -1.449219 137.378906 L 2.808594 -1.160156 L 142.972656 3.148438 Z M 138.714844 141.6875 " clip-rule="nonzero"/></clipPath><clipPath id="d6c649697c"><path d="M 68.652344 139.535156 C 107.34375 140.722656 139.667969 110.675781 140.84375 72.417969 C 142.019531 34.160156 111.601562 2.183594 72.910156 0.996094 C 34.214844 -0.191406 1.894531 29.855469 0.71875 68.113281 C -0.457031 106.367188 29.957031 138.34375 68.652344 139.535156 Z M 68.652344 139.535156 " clip-rule="nonzero"/></clipPath><clipPath id="78d6485f8e"><rect x="0" width="141" y="0" height="140"/></clipPath><clipPath id="b242758b6b"><path d="M 259.996094 220.757812 L 398.597656 220.757812 L 398.597656 360.984375 L 259.996094 360.984375 Z M 259.996094 220.757812 " clip-rule="nonzero"/></clipPath><clipPath id="249023f25f"><path d="M 259.996094 290.890625 C 259.996094 329.601562 291.023438 360.984375 329.296875 360.984375 C 367.570312 360.984375 398.597656 329.601562 398.597656 290.890625 C 398.597656 252.179688 367.570312 220.796875 329.296875 220.796875 C 291.023438 220.796875 259.996094 252.179688 259.996094 290.890625 Z M 259.996094 290.890625 " clip-rule="nonzero"/></clipPath><clipPath id="dc2a938544"><path d="M 0.996094 0.757812 L 139.597656 0.757812 L 139.597656 140.984375 L 0.996094 140.984375 Z M 0.996094 0.757812 " clip-rule="nonzero"/></clipPath><clipPath id="a8f36bbf10"><path d="M 0.996094 70.890625 C 0.996094 109.601562 32.023438 140.984375 70.296875 140.984375 C 108.570312 140.984375 139.597656 109.601562 139.597656 70.890625 C 139.597656 32.179688 108.570312 0.796875 70.296875 0.796875 C 32.023438 0.796875 0.996094 32.179688 0.996094 70.890625 Z M 0.996094 70.890625 " clip-rule="nonzero"/></clipPath><clipPath id="76d7342dc8"><rect x="0" width="140" y="0" height="141"/></clipPath><clipPath id="d3ab5ad1c9"><path d="M 183 193 L 349 193 L 349 360 L 183 360 Z M 183 193 " clip-rule="nonzero"/></clipPath><clipPath id="7825b74794"><path d="M 206.441406 377.167969 L 164.953125 217.351562 L 324.769531 175.863281 L 366.257812 335.679688 Z M 206.441406 377.167969 " clip-rule="nonzero"/></clipPath><clipPath id="4943ac956a"><path d="M 185.695312 297.257812 C 197.152344 341.390625 242.214844 367.878906 286.347656 356.425781 C 330.480469 344.96875 356.96875 299.902344 345.511719 255.773438 C 334.054688 211.640625 288.992188 185.152344 244.859375 196.605469 C 200.726562 208.0625 174.238281 253.128906 185.695312 297.257812 Z M 185.695312 297.257812 " clip-rule="nonzero"/></clipPath><clipPath id="1f59df0fb2"><path d="M 0 0 L 166 0 L 166 167 L 0 167 Z M 0 0 " clip-rule="nonzero"/></clipPath><clipPath id="8b94a2c39c"><path d="M 23.441406 184.167969 L -18.046875 24.351562 L 141.769531 -17.136719 L 183.257812 142.679688 Z M 23.441406 184.167969 " clip-rule="nonzero"/></clipPath><clipPath id="bd42cf5555"><path d="M 2.695312 104.257812 C 14.152344 148.390625 59.214844 174.878906 103.347656 163.425781 C 147.480469 151.96875 173.96875 106.902344 162.511719 62.773438 C 151.054688 18.640625 105.992188 -7.847656 61.859375 3.605469 C 17.726562 15.0625 -8.761719 60.128906 2.695312 104.257812 Z M 2.695312 104.257812 " clip-rule="nonzero"/></clipPath><clipPath id="0b63be1bed"><rect x="0" width="166" y="0" height="167"/></clipPath><clipPath id="6311445afb"><path d="M 187 186 L 335 186 L 335 336 L 187 336 Z M 187 186 " clip-rule="nonzero"/></clipPath><clipPath id="144206da70"><path d="M 208.589844 351.601562 L 171.117188 207.25 L 313.792969 170.210938 L 351.265625 314.5625 Z M 208.589844 351.601562 " clip-rule="nonzero"/></clipPath><clipPath id="e3eb185145"><path d="M 189.859375 279.445312 C 200.203125 319.296875 240.527344 343.308594 279.929688 333.082031 C 319.328125 322.851562 342.878906 282.257812 332.535156 242.40625 C 322.191406 202.554688 281.863281 178.542969 242.464844 188.769531 C 203.066406 199 179.511719 239.59375 189.859375 279.445312 Z M 189.859375 279.445312 " clip-rule="nonzero"/></clipPath><clipPath id="49c78306af"><path d="M 0 0 L 148 0 L 148 150 L 0 150 Z M 0 0 " clip-rule="nonzero"/></clipPath><clipPath id="8b82a1bf87"><path d="M 21.589844 165.601562 L -15.882812 21.25 L 126.792969 -15.789062 L 164.265625 128.5625 Z M 21.589844 165.601562 " clip-rule="nonzero"/></clipPath><clipPath id="7e9b63997c"><path d="M 2.859375 93.445312 C 13.203125 133.296875 53.527344 157.308594 92.929688 147.082031 C 132.328125 136.851562 155.878906 96.257812 145.535156 56.40625 C 135.191406 16.554688 94.863281 -7.457031 55.464844 2.769531 C 16.066406 13 -7.488281 53.59375 2.859375 93.445312 Z M 2.859375 93.445312 " clip-rule="nonzero"/></clipPath><clipPath id="2044866f0a"><rect x="0" width="148" y="0" height="150"/></clipPath></defs><g clip-path="url(#71558fc5e3)"><g clip-path="url(#3640177429)"><g transform="matrix(1, 0, 0, 1, 138, 238)"><g clip-path="url(#923397121c)"><g clip-path="url(#0d60115ff9)"><g clip-path="url(#1a927c2244)"><path fill="#d2fdff" d="M 0.722656 165.703125 L 0.722656 0.589844 L 165.835938 0.589844 L 165.835938 165.703125 Z M 0.722656 165.703125 " fill-opacity="1" fill-rule="nonzero"/></g></g></g></g></g></g><g clip-path="url(#0eaa3b35ed)"><g clip-path="url(#4d36d8ec34)"><g clip-path="url(#aa5384b661)"><g transform="matrix(1, 0, 0, 1, 247, 84)"><g clip-path="url(#0b7b885800)"><g clip-path="url(#bca7490116)"><g clip-path="url(#41369b42ea)"><g clip-path="url(#43229ab6d5)"><path fill="#d2fdff" d="M 164.832031 11.050781 L 144.3125 164.429688 L -9.070312 143.910156 L 11.449219 -9.46875 Z M 164.832031 11.050781 " fill-opacity="1" fill-rule="nonzero"/></g></g></g></g></g></g></g></g><g clip-path="url(#d46c1c83db)"><g clip-path="url(#43a27f2d97)"><g clip-path="url(#a88afd5a86)"><g transform="matrix(1, 0, 0, 1, 256, 98)"><g clip-path="url(#3db85ec8dd)"><g clip-path="url(#b9d16a7e86)"><g clip-path="url(#97d82e9dff)"><g clip-path="url(#28677ab303)"><path fill="#ffffff" d="M 147.960938 10.476562 L 129.339844 149.671875 L -8.246094 131.269531 L 10.375 -7.925781 Z M 147.960938 10.476562 " fill-opacity="1" fill-rule="nonzero"/></g></g></g></g></g></g></g></g><g clip-path="url(#0ecd95bf18)"><g clip-path="url(#e0dab170cc)"><g transform="matrix(1, 0, 0, 1, 147, 229)"><g clip-path="url(#c2dd25cc01)"><g clip-path="url(#709224f854)"><g clip-path="url(#cbff073df7)"><path fill="#ffffff" d="M 0.226562 150.5 L 0.226562 0.65625 L 148.335938 0.65625 L 148.335938 150.5 Z M 0.226562 150.5 " fill-opacity="1" fill-rule="nonzero"/></g></g></g></g></g></g><g clip-path="url(#4d6c8f73e4)"><g clip-path="url(#4354aeec5f)"><g transform="matrix(1, 0, 0, 1, 154, 91)"><g clip-path="url(#2af2c151b1)"><g clip-path="url(#2e9147bb53)"><g clip-path="url(#f630bd7410)"><path fill="#d2fdff" d="M 0.929688 0.820312 L 166.042969 0.820312 L 166.042969 165.933594 L 0.929688 165.933594 Z M 0.929688 0.820312 " fill-opacity="1" fill-rule="nonzero"/></g></g></g></g></g></g><g clip-path="url(#d649cd117b)"><g clip-path="url(#1da0d9538b)"><g transform="matrix(1, 0, 0, 1, 164, 100)"><g clip-path="url(#300ffd61a1)"><g clip-path="url(#c0ba5e4ed3)"><g clip-path="url(#4629342b61)"><path fill="#ffffff" d="M 0.179688 0.542969 L 160.886719 0.542969 L 160.886719 161.25 L 0.179688 161.25 Z M 0.179688 0.542969 " fill-opacity="1" fill-rule="nonzero"/></g></g></g></g></g></g><g clip-path="url(#0a2451847f)"><g clip-path="url(#f5c3aceff9)"><g transform="matrix(1, 0, 0, 1, 99, 167)"><g clip-path="url(#5f1beb5610)"><g clip-path="url(#e6e7ddf52f)"><g clip-path="url(#62ca504869)"><path fill="#d2fdff" d="M 0.464844 0.949219 L 165.578125 0.949219 L 165.578125 166.0625 L 0.464844 166.0625 Z M 0.464844 0.949219 " fill-opacity="1" fill-rule="nonzero"/></g></g></g></g></g></g><g clip-path="url(#c5b9e6d865)"><g clip-path="url(#bf9fa1a3d8)"><g transform="matrix(1, 0, 0, 1, 114, 174)"><g clip-path="url(#b84074d5ef)"><g clip-path="url(#1ca9520d5d)"><g clip-path="url(#1fc5d1f07f)"><path fill="#ffffff" d="M 0.777344 0.375 L 150.617188 0.375 L 150.617188 148.484375 L 0.777344 148.484375 Z M 0.777344 0.375 " fill-opacity="1" fill-rule="nonzero"/></g></g></g></g></g></g><g transform="matrix(1, 0, 0, 1, 75, 44)"><g clip-path="url(#8240686eaa)"><g clip-path="url(#02dede9128)"><g clip-path="url(#5a3a0a6f70)"><g transform="matrix(1, 0, 0, 1, 25, 64)"><g clip-path="url(#10dede1fa4)"><g clip-path="url(#01c8564537)"><g clip-path="url(#d0022ce0e2)"><path fill="#b258cb" d="M 41.570312 0.976562 L 58.527344 3.527344 L 17.542969 275.992188 L 0.589844 273.441406 Z M 41.570312 0.976562 " fill-opacity="1" fill-rule="nonzero"/></g></g></g></g></g></g><g clip-path="url(#93381d17bc)"><g clip-path="url(#36916edeb8)"><g clip-path="url(#deafd3e789)"><g transform="matrix(1, 0, 0, 1, 56, 3)"><g clip-path="url(#a4e55c9b7a)"><g clip-path="url(#6489ab2e4b)"><g clip-path="url(#3972cce448)"><g clip-path="url(#08b42963a7)"><path fill="#ffd2fd" d="M 37.824219 91.957031 L -7.355469 85.160156 L 5.835938 -2.550781 L 51.015625 4.246094 Z M 37.824219 91.957031 " fill-opacity="1" fill-rule="nonzero"/></g></g></g></g></g></g></g></g><g clip-path="url(#f60d2dc323)"><g clip-path="url(#463ad53ccc)"><g clip-path="url(#d78a89dc79)"><g transform="matrix(1, 0, 0, 1, 4, 323)"><g clip-path="url(#3421f61f09)"><g clip-path="url(#6e4c2e7b85)"><g clip-path="url(#42cbab7b58)"><g clip-path="url(#8edd6c68e6)"><path fill="#ffd2fd" d="M 9.722656 -2.617188 L 54.902344 4.179688 L 41.707031 91.890625 L -3.472656 85.09375 Z M 9.722656 -2.617188 " fill-opacity="1" fill-rule="nonzero"/></g></g></g></g></g></g></g></g></g></g><g transform="matrix(1, 0, 0, 1, 20, 17)"><g clip-path="url(#4e3159b26b)"><g clip-path="url(#0bc01cbc97)"><g clip-path="url(#628166b8c6)"><g transform="matrix(1, 0, 0, 1, 36, 64)"><g clip-path="url(#b7ea16b548)"><g clip-path="url(#02480808a9)"><g clip-path="url(#9c2277fea2)"><path fill="#b258cb" d="M 0.941406 6.917969 L 16.957031 0.792969 L 115.371094 258.152344 L 99.347656 264.277344 Z M 0.941406 6.917969 " fill-opacity="1" fill-rule="nonzero"/></g></g></g></g></g></g><g clip-path="url(#190287ca19)"><g clip-path="url(#5149268d62)"><g clip-path="url(#a8a79277a7)"><g transform="matrix(1, 0, 0, 1, 9, 7)"><g clip-path="url(#47d68e1264)"><g clip-path="url(#d1299ed07a)"><g clip-path="url(#1f3f3fc2bf)"><g clip-path="url(#957e869694)"><path fill="#ffd2fd" d="M 66.417969 76.605469 L 23.742188 92.921875 L -7.9375 10.074219 L 34.738281 -6.242188 Z M 66.417969 76.605469 " fill-opacity="1" fill-rule="nonzero"/></g></g></g></g></g></g></g></g><g clip-path="url(#2c1d079538)"><g clip-path="url(#53b7aa4a60)"><g clip-path="url(#f9363d7269)"><g transform="matrix(1, 0, 0, 1, 131, 311)"><g clip-path="url(#d57ab0f22d)"><g clip-path="url(#4924df195e)"><g clip-path="url(#6c024158d9)"><g clip-path="url(#243a4f0fba)"><path fill="#ffd2fd" d="M -14.378906 8.265625 L 28.296875 -8.054688 L 59.976562 74.792969 L 17.300781 91.113281 Z M -14.378906 8.265625 " fill-opacity="1" fill-rule="nonzero"/></g></g></g></g></g></g></g></g></g></g><g clip-path="url(#8330e37447)"><g clip-path="url(#86de79ad6f)"><g transform="matrix(1, 0, 0, 1, 251, 220)"><g clip-path="url(#272c62c618)"><g clip-path="url(#c06a18110c)"><g clip-path="url(#4e59406a5e)"><path fill="#d2fdff" d="M 0.492188 165.191406 L 0.492188 0.0742188 L 165.609375 0.0742188 L 165.609375 165.191406 Z M 0.492188 165.191406 " fill-opacity="1" fill-rule="nonzero"/></g></g></g></g></g></g><g clip-path="url(#b04b4f2473)"><g clip-path="url(#45c35f5af7)"><g clip-path="url(#2fbc6d8181)"><g transform="matrix(1, 0, 0, 1, 283, 148)"><g clip-path="url(#3df58559bd)"><g clip-path="url(#8001a2a006)"><g clip-path="url(#d16f5bfa32)"><g clip-path="url(#00d604633b)"><path fill="#d2fdff" d="M 162.648438 167.933594 L -2.390625 162.859375 L 2.683594 -2.175781 L 167.71875 2.894531 Z M 162.648438 167.933594 " fill-opacity="1" fill-rule="nonzero"/></g></g></g></g></g></g></g></g><g clip-path="url(#6f0093679a)"><g clip-path="url(#4ae2ed7e2c)"><g clip-path="url(#c62a7f1681)"><g transform="matrix(1, 0, 0, 1, 283, 165)"><g clip-path="url(#78d6485f8e)"><g clip-path="url(#728b0e0299)"><g clip-path="url(#100d398198)"><g clip-path="url(#d6c649697c)"><path fill="#ffffff" d="M 138.714844 141.6875 L -1.449219 137.378906 L 2.808594 -1.160156 L 142.972656 3.148438 Z M 138.714844 141.6875 " fill-opacity="1" fill-rule="nonzero"/></g></g></g></g></g></g></g></g><g clip-path="url(#b242758b6b)"><g clip-path="url(#249023f25f)"><g transform="matrix(1, 0, 0, 1, 259, 220)"><g clip-path="url(#76d7342dc8)"><g clip-path="url(#dc2a938544)"><g clip-path="url(#a8f36bbf10)"><path fill="#ffffff" d="M 0.996094 140.984375 L 0.996094 0.757812 L 139.597656 0.757812 L 139.597656 140.984375 Z M 0.996094 140.984375 " fill-opacity="1" fill-rule="nonzero"/></g></g></g></g></g></g><g clip-path="url(#d3ab5ad1c9)"><g clip-path="url(#7825b74794)"><g clip-path="url(#4943ac956a)"><g transform="matrix(1, 0, 0, 1, 183, 193)"><g clip-path="url(#0b63be1bed)"><g clip-path="url(#1f59df0fb2)"><g clip-path="url(#8b94a2c39c)"><g clip-path="url(#bd42cf5555)"><path fill="#d2fdff" d="M 23.441406 184.167969 L -18.046875 24.351562 L 141.769531 -17.136719 L 183.257812 142.679688 Z M 23.441406 184.167969 " fill-opacity="1" fill-rule="nonzero"/></g></g></g></g></g></g></g></g><g clip-path="url(#6311445afb)"><g clip-path="url(#144206da70)"><g clip-path="url(#e3eb185145)"><g transform="matrix(1, 0, 0, 1, 187, 186)"><g clip-path="url(#2044866f0a)"><g clip-path="url(#49c78306af)"><g clip-path="url(#8b82a1bf87)"><g clip-path="url(#7e9b63997c)"><path fill="#ffffff" d="M 21.589844 165.601562 L -15.882812 21.25 L 126.792969 -15.789062 L 164.265625 128.5625 Z M 21.589844 165.601562 " fill-opacity="1" fill-rule="nonzero"/></g></g></g></g></g></g></g></g></svg>