<svg xmlns="http://www.w3.org/2000/svg" xmlns:xlink="http://www.w3.org/1999/xlink" width="636" zoomAndPan="magnify" viewBox="0 0 476.87997 476.999988" height="636" preserveAspectRatio="xMidYMid meet" version="1.0"><defs><clipPath id="43eb6f615f"><path d="M 226 81 L 436 81 L 436 291 L 226 291 Z M 226 81 " clip-rule="nonzero"/></clipPath><clipPath id="c7dd47ed70"><path d="M 189.347656 145.570312 L 372.097656 43.46875 L 473.800781 225.507812 L 291.046875 327.609375 Z M 189.347656 145.570312 " clip-rule="nonzero"/></clipPath><clipPath id="cf08bb4db5"><path d="M 280.371094 94.714844 C 230.097656 122.800781 212.113281 186.320312 240.199219 236.589844 C 268.28125 286.859375 331.800781 304.839844 382.070312 276.757812 C 432.339844 248.671875 450.328125 185.152344 422.242188 134.882812 C 394.160156 84.613281 330.640625 66.632812 280.371094 94.714844 Z M 280.371094 94.714844 " clip-rule="nonzero"/></clipPath><clipPath id="5b33a01807"><path d="M 0 0 L 210 0 L 210 210 L 0 210 Z M 0 0 " clip-rule="nonzero"/></clipPath><clipPath id="1542fe648c"><path d="M -36.652344 64.570312 L 146.097656 -37.53125 L 247.800781 144.507812 L 65.046875 246.609375 Z M -36.652344 64.570312 " clip-rule="nonzero"/></clipPath><clipPath id="46ab069d9e"><path d="M 54.371094 13.714844 C 4.097656 41.800781 -13.886719 105.320312 14.199219 155.589844 C 42.28125 205.859375 105.800781 223.839844 156.070312 195.757812 C 206.339844 167.671875 224.328125 104.152344 196.242188 53.882812 C 168.160156 3.613281 104.640625 -14.367188 54.371094 13.714844 Z M 54.371094 13.714844 " clip-rule="nonzero"/></clipPath><clipPath id="74f0a08c51"><rect x="0" width="210" y="0" height="210"/></clipPath><clipPath id="f0b6392316"><path d="M 230 83 L 430 83 L 430 283 L 230 283 Z M 230 83 " clip-rule="nonzero"/></clipPath><clipPath id="21445b8f4f"><path d="M 194.375 144.984375 L 368.929688 47.464844 L 466.070312 221.339844 L 291.515625 318.859375 Z M 194.375 144.984375 " clip-rule="nonzero"/></clipPath><clipPath id="7bb927b111"><path d="M 281.316406 96.414062 C 233.300781 123.238281 216.121094 183.90625 242.945312 231.921875 C 269.769531 279.9375 330.441406 297.113281 378.457031 270.289062 C 426.472656 243.460938 443.648438 182.792969 416.824219 134.777344 C 390 86.765625 329.332031 69.589844 281.316406 96.414062 Z M 281.316406 96.414062 " clip-rule="nonzero"/></clipPath><clipPath id="fd8589759b"><path d="M 0 0 L 200 0 L 200 200 L 0 200 Z M 0 0 " clip-rule="nonzero"/></clipPath><clipPath id="4d6a5a59fd"><path d="M -35.625 61.984375 L 138.929688 -35.535156 L 236.070312 138.339844 L 61.515625 235.859375 Z M -35.625 61.984375 " clip-rule="nonzero"/></clipPath><clipPath id="92f9b7c208"><path d="M 51.316406 13.414062 C 3.300781 40.238281 -13.878906 100.90625 12.945312 148.921875 C 39.769531 196.9375 100.441406 214.113281 148.457031 187.289062 C 196.472656 160.460938 213.648438 99.792969 186.824219 51.777344 C 160 3.765625 99.332031 -13.410156 51.316406 13.414062 Z M 51.316406 13.414062 " clip-rule="nonzero"/></clipPath><clipPath id="0ce6ad2b13"><rect x="0" width="200" y="0" height="200"/></clipPath><clipPath id="95022116ed"><path d="M 278 111 L 390 111 L 390 223 L 278 223 Z M 278 111 " clip-rule="nonzero"/></clipPath><clipPath id="2825e2f353"><path d="M 258.757812 145.382812 L 355.738281 91.203125 L 409.707031 187.804688 L 312.730469 241.984375 Z M 258.757812 145.382812 " clip-rule="nonzero"/></clipPath><clipPath id="a9afe01ae4"><path d="M 307.0625 118.398438 C 280.382812 133.300781 270.839844 167.007812 285.742188 193.683594 C 300.648438 220.359375 334.355469 229.902344 361.03125 215 C 387.707031 200.09375 397.253906 166.386719 382.347656 139.710938 C 367.445312 113.035156 333.738281 103.492188 307.0625 118.398438 Z M 307.0625 118.398438 " clip-rule="nonzero"/></clipPath><clipPath id="c61e26a595"><path d="M 0 0 L 112 0 L 112 112 L 0 112 Z M 0 0 " clip-rule="nonzero"/></clipPath><clipPath id="f73427da61"><path d="M -19.242188 34.382812 L 77.738281 -19.796875 L 131.707031 76.804688 L 34.730469 130.984375 Z M -19.242188 34.382812 " clip-rule="nonzero"/></clipPath><clipPath id="63c4c04bc3"><path d="M 29.0625 7.398438 C 2.382812 22.300781 -7.160156 56.007812 7.742188 82.683594 C 22.648438 109.359375 56.355469 118.902344 83.03125 104 C 109.707031 89.09375 119.253906 55.386719 104.347656 28.710938 C 89.445312 2.035156 55.738281 -7.507812 29.0625 7.398438 Z M 29.0625 7.398438 " clip-rule="nonzero"/></clipPath><clipPath id="4bf8ad5313"><rect x="0" width="112" y="0" height="112"/></clipPath><clipPath id="ef097f919f"><path d="M 264 138 L 298 138 L 298 172 L 264 172 Z M 264 138 " clip-rule="nonzero"/></clipPath><clipPath id="d25e0de5e4"><path d="M 258.757812 148.421875 L 287.570312 132.324219 L 303.605469 161.023438 L 274.792969 177.121094 Z M 258.757812 148.421875 " clip-rule="nonzero"/></clipPath><clipPath id="4e982863a8"><path d="M 273.109375 140.40625 C 265.183594 144.832031 262.347656 154.847656 266.777344 162.773438 C 271.203125 170.695312 281.21875 173.53125 289.144531 169.105469 C 297.070312 164.675781 299.902344 154.664062 295.476562 146.738281 C 291.046875 138.8125 281.035156 135.976562 273.109375 140.40625 Z M 273.109375 140.40625 " clip-rule="nonzero"/></clipPath><clipPath id="bb89d983de"><path d="M 0 0 L 34 0 L 34 34 L 0 34 Z M 0 0 " clip-rule="nonzero"/></clipPath><clipPath id="625f37812f"><path d="M -5.242188 10.421875 L 23.570312 -5.675781 L 39.605469 23.023438 L 10.792969 39.121094 Z M -5.242188 10.421875 " clip-rule="nonzero"/></clipPath><clipPath id="f5cd3cc4bc"><path d="M 9.109375 2.40625 C 1.183594 6.832031 -1.652344 16.847656 2.777344 24.773438 C 7.203125 32.695312 17.21875 35.53125 25.144531 31.105469 C 33.070312 26.675781 35.902344 16.664062 31.476562 8.738281 C 27.046875 0.8125 17.035156 -2.023438 9.109375 2.40625 Z M 9.109375 2.40625 " clip-rule="nonzero"/></clipPath><clipPath id="45c6d02fa0"><rect x="0" width="34" y="0" height="34"/></clipPath><clipPath id="9537c54777"><path d="M 40 105 L 250 105 L 250 315 L 40 315 Z M 40 105 " clip-rule="nonzero"/></clipPath><clipPath id="1890502ed6"><path d="M 3.316406 169.710938 L 186.070312 67.613281 L 287.769531 249.652344 L 105.019531 351.753906 Z M 3.316406 169.710938 " clip-rule="nonzero"/></clipPath><clipPath id="e5c1a4e913"><path d="M 94.339844 118.859375 C 44.070312 146.945312 26.085938 210.464844 54.167969 260.734375 C 82.253906 311 145.773438 328.984375 196.042969 300.898438 C 246.3125 272.816406 264.296875 209.296875 236.214844 159.027344 C 208.128906 108.757812 144.613281 90.773438 94.339844 118.859375 Z M 94.339844 118.859375 " clip-rule="nonzero"/></clipPath><clipPath id="bbe342f1ca"><path d="M 0 0 L 210 0 L 210 210 L 0 210 Z M 0 0 " clip-rule="nonzero"/></clipPath><clipPath id="fb7c770fa9"><path d="M -36.683594 64.710938 L 146.070312 -37.386719 L 247.769531 144.652344 L 65.019531 246.753906 Z M -36.683594 64.710938 " clip-rule="nonzero"/></clipPath><clipPath id="3a5381be8e"><path d="M 54.339844 13.859375 C 4.070312 41.945312 -13.914062 105.464844 14.167969 155.734375 C 42.253906 206 105.773438 223.984375 156.042969 195.898438 C 206.3125 167.816406 224.296875 104.296875 196.214844 54.027344 C 168.128906 3.757812 104.613281 -14.226562 54.339844 13.859375 Z M 54.339844 13.859375 " clip-rule="nonzero"/></clipPath><clipPath id="9f96a98a00"><rect x="0" width="210" y="0" height="210"/></clipPath><clipPath id="30f5549596"><path d="M 44 107 L 244 107 L 244 308 L 44 308 Z M 44 107 " clip-rule="nonzero"/></clipPath><clipPath id="2f35e9e6f4"><path d="M 8.347656 169.128906 L 182.902344 71.609375 L 280.042969 245.484375 L 105.488281 343.003906 Z M 8.347656 169.128906 " clip-rule="nonzero"/></clipPath><clipPath id="c09bbefb1c"><path d="M 95.289062 120.558594 C 47.273438 147.382812 30.09375 208.050781 56.917969 256.066406 C 83.742188 304.082031 144.410156 321.257812 192.425781 294.433594 C 240.441406 267.605469 257.621094 206.9375 230.796875 158.921875 C 203.972656 110.910156 143.304688 93.730469 95.289062 120.558594 Z M 95.289062 120.558594 " clip-rule="nonzero"/></clipPath><clipPath id="cb660d303d"><path d="M 0 0 L 200 0 L 200 201 L 0 201 Z M 0 0 " clip-rule="nonzero"/></clipPath><clipPath id="851f2c5f68"><path d="M -35.652344 62.128906 L 138.902344 -35.390625 L 236.042969 138.484375 L 61.488281 236.003906 Z M -35.652344 62.128906 " clip-rule="nonzero"/></clipPath><clipPath id="72a8cfad2f"><path d="M 51.289062 13.558594 C 3.273438 40.382812 -13.90625 101.050781 12.917969 149.066406 C 39.742188 197.082031 100.410156 214.257812 148.425781 187.433594 C 196.441406 160.605469 213.621094 99.9375 186.796875 51.921875 C 159.972656 3.910156 99.304688 -13.269531 51.289062 13.558594 Z M 51.289062 13.558594 " clip-rule="nonzero"/></clipPath><clipPath id="8cb9e85e89"><rect x="0" width="200" y="0" height="201"/></clipPath><clipPath id="449074debe"><path d="M 72 140 L 205 140 L 205 272 L 72 272 Z M 72 140 " clip-rule="nonzero"/></clipPath><clipPath id="9153b7edd5"><path d="M 49.242188 180.84375 L 164.328125 116.550781 L 228.371094 231.1875 L 113.289062 295.480469 Z M 49.242188 180.84375 " clip-rule="nonzero"/></clipPath><clipPath id="a17b0c4624"><path d="M 106.5625 148.820312 C 74.90625 166.507812 63.582031 206.507812 81.265625 238.164062 C 98.953125 269.820312 138.953125 281.144531 170.609375 263.457031 C 202.265625 245.773438 213.589844 205.773438 195.90625 174.117188 C 178.222656 142.460938 138.222656 131.136719 106.5625 148.820312 Z M 106.5625 148.820312 " clip-rule="nonzero"/></clipPath><clipPath id="01ccae8c89"><path d="M 0 0 L 133 0 L 133 132 L 0 132 Z M 0 0 " clip-rule="nonzero"/></clipPath><clipPath id="1e75775e0f"><path d="M -22.757812 40.84375 L 92.328125 -23.449219 L 156.371094 91.1875 L 41.289062 155.480469 Z M -22.757812 40.84375 " clip-rule="nonzero"/></clipPath><clipPath id="799c736c6b"><path d="M 34.5625 8.820312 C 2.90625 26.507812 -8.417969 66.507812 9.265625 98.164062 C 26.953125 129.820312 66.953125 141.144531 98.609375 123.457031 C 130.265625 105.773438 141.589844 65.773438 123.90625 34.117188 C 106.222656 2.460938 66.222656 -8.863281 34.5625 8.820312 Z M 34.5625 8.820312 " clip-rule="nonzero"/></clipPath><clipPath id="68e0969aa0"><rect x="0" width="133" y="0" height="132"/></clipPath><clipPath id="9ace17fd34"><path d="M 62 175 L 101 175 L 101 214 L 62 214 Z M 62 175 " clip-rule="nonzero"/></clipPath><clipPath id="3e6525608d"><path d="M 55.609375 187.0625 L 89.300781 168.238281 L 108.054688 201.800781 L 74.359375 220.625 Z M 55.609375 187.0625 " clip-rule="nonzero"/></clipPath><clipPath id="03ab7fc2e2"><path d="M 72.390625 177.6875 C 63.121094 182.863281 59.804688 194.574219 64.984375 203.84375 C 70.160156 213.113281 81.875 216.425781 91.140625 211.25 C 100.410156 206.070312 103.726562 194.359375 98.546875 185.09375 C 93.371094 175.824219 81.660156 172.507812 72.390625 177.6875 Z M 72.390625 177.6875 " clip-rule="nonzero"/></clipPath><clipPath id="c664a772aa"><path d="M 0 0 L 39 0 L 39 39 L 0 39 Z M 0 0 " clip-rule="nonzero"/></clipPath><clipPath id="f674f473b1"><path d="M -6.390625 12.0625 L 27.300781 -6.761719 L 46.054688 26.800781 L 12.359375 45.625 Z M -6.390625 12.0625 " clip-rule="nonzero"/></clipPath><clipPath id="be6a795a31"><path d="M 10.390625 2.6875 C 1.121094 7.863281 -2.195312 19.574219 2.984375 28.84375 C 8.160156 38.113281 19.875 41.425781 29.140625 36.25 C 38.410156 31.070312 41.726562 19.359375 36.546875 10.09375 C 31.371094 0.824219 19.660156 -2.492188 10.390625 2.6875 Z M 10.390625 2.6875 " clip-rule="nonzero"/></clipPath><clipPath id="eda864e47b"><rect x="0" width="39" y="0" height="39"/></clipPath><clipPath id="8bf68c12c7"><path d="M 259 252 L 423 252 L 423 417 L 259 417 Z M 259 252 " clip-rule="nonzero"/></clipPath><clipPath id="b4a223dffa"><path d="M 229.5625 303.273438 L 372.964844 223.15625 L 452.769531 366 L 309.367188 446.117188 Z M 229.5625 303.273438 " clip-rule="nonzero"/></clipPath><clipPath id="b3a24fa5c3"><path d="M 300.988281 263.367188 C 261.542969 285.40625 247.429688 335.25 269.464844 374.695312 C 291.503906 414.140625 341.347656 428.25 380.792969 406.214844 C 420.238281 384.175781 434.351562 334.332031 412.316406 294.886719 C 390.277344 255.441406 340.433594 241.332031 300.988281 263.367188 Z M 300.988281 263.367188 " clip-rule="nonzero"/></clipPath><clipPath id="c5748608fe"><path d="M 0 0 L 164 0 L 164 165 L 0 165 Z M 0 0 " clip-rule="nonzero"/></clipPath><clipPath id="4f856c3bbb"><path d="M -29.4375 51.273438 L 113.964844 -28.84375 L 193.769531 114 L 50.367188 194.117188 Z M -29.4375 51.273438 " clip-rule="nonzero"/></clipPath><clipPath id="904136d027"><path d="M 41.988281 11.367188 C 2.542969 33.40625 -11.570312 83.25 10.464844 122.695312 C 32.503906 162.140625 82.347656 176.25 121.792969 154.214844 C 161.238281 132.175781 175.351562 82.332031 153.316406 42.886719 C 131.277344 3.441406 81.433594 -10.667969 41.988281 11.367188 Z M 41.988281 11.367188 " clip-rule="nonzero"/></clipPath><clipPath id="273d68d869"><rect x="0" width="164" y="0" height="165"/></clipPath><clipPath id="aec81177e9"><path d="M 261 254 L 419 254 L 419 412 L 261 412 Z M 261 254 " clip-rule="nonzero"/></clipPath><clipPath id="deb0dfb625"><path d="M 233.511719 302.8125 L 370.484375 226.289062 L 446.707031 362.730469 L 309.738281 439.25 Z M 233.511719 302.8125 " clip-rule="nonzero"/></clipPath><clipPath id="d89c8b7522"><path d="M 301.734375 264.699219 C 264.054688 285.75 250.574219 333.355469 271.625 371.03125 C 292.671875 408.707031 340.28125 422.1875 377.957031 401.136719 C 415.636719 380.089844 429.117188 332.480469 408.066406 294.804688 C 387.019531 257.128906 339.410156 243.648438 301.734375 264.699219 Z M 301.734375 264.699219 " clip-rule="nonzero"/></clipPath><clipPath id="b6bea07756"><path d="M 0 0 L 158 0 L 158 158 L 0 158 Z M 0 0 " clip-rule="nonzero"/></clipPath><clipPath id="5652a43901"><path d="M -27.488281 48.8125 L 109.484375 -27.710938 L 185.707031 108.730469 L 48.738281 185.25 Z M -27.488281 48.8125 " clip-rule="nonzero"/></clipPath><clipPath id="d8114f013c"><path d="M 40.734375 10.699219 C 3.054688 31.75 -10.425781 79.355469 10.625 117.03125 C 31.671875 154.707031 79.28125 168.1875 116.957031 147.136719 C 154.636719 126.089844 168.117188 78.480469 147.066406 40.804688 C 126.019531 3.128906 78.410156 -10.351562 40.734375 10.699219 Z M 40.734375 10.699219 " clip-rule="nonzero"/></clipPath><clipPath id="4c12c39b8d"><rect x="0" width="158" y="0" height="158"/></clipPath><clipPath id="667c5a6aac"><path d="M 284 280 L 388 280 L 388 384 L 284 384 Z M 284 280 " clip-rule="nonzero"/></clipPath><clipPath id="dc40651b9e"><path d="M 265.601562 312.007812 L 355.90625 261.554688 L 406.160156 351.511719 L 315.855469 401.960938 Z M 265.601562 312.007812 " clip-rule="nonzero"/></clipPath><clipPath id="4d0e2f9dce"><path d="M 310.578125 286.878906 C 285.738281 300.757812 276.851562 332.144531 290.726562 356.984375 C 304.605469 381.824219 335.992188 390.710938 360.835938 376.832031 C 385.675781 362.957031 394.5625 331.566406 380.683594 306.726562 C 366.808594 281.886719 335.417969 273 310.578125 286.878906 Z M 310.578125 286.878906 " clip-rule="nonzero"/></clipPath><clipPath id="add9bd6d97"><path d="M 0 0 L 104 0 L 104 104 L 0 104 Z M 0 0 " clip-rule="nonzero"/></clipPath><clipPath id="4d752e210e"><path d="M -18.398438 32.007812 L 71.90625 -18.445312 L 122.160156 71.511719 L 31.855469 121.960938 Z M -18.398438 32.007812 " clip-rule="nonzero"/></clipPath><clipPath id="7a720ff2c2"><path d="M 26.578125 6.878906 C 1.738281 20.757812 -7.148438 52.144531 6.726562 76.984375 C 20.605469 101.824219 51.992188 110.710938 76.835938 96.832031 C 101.675781 82.957031 110.5625 51.566406 96.683594 26.726562 C 82.808594 1.886719 51.417969 -7 26.578125 6.878906 Z M 26.578125 6.878906 " clip-rule="nonzero"/></clipPath><clipPath id="626acd5797"><rect x="0" width="104" y="0" height="104"/></clipPath><clipPath id="7b3c073e9d"><path d="M 281 301 L 308 301 L 308 328 L 281 328 Z M 281 301 " clip-rule="nonzero"/></clipPath><clipPath id="c32988dcdf"><path d="M 276.722656 309.335938 L 299.332031 296.703125 L 311.914062 319.222656 L 289.304688 331.855469 Z M 276.722656 309.335938 " clip-rule="nonzero"/></clipPath><clipPath id="98878ae8a4"><path d="M 287.984375 303.042969 C 281.765625 306.519531 279.539062 314.375 283.015625 320.59375 C 286.488281 326.8125 294.347656 329.039062 300.566406 325.5625 C 306.785156 322.089844 309.007812 314.230469 305.535156 308.011719 C 302.058594 301.792969 294.203125 299.570312 287.984375 303.042969 Z M 287.984375 303.042969 " clip-rule="nonzero"/></clipPath><clipPath id="cf611ff960"><path d="M 0 0 L 27 0 L 27 27 L 0 27 Z M 0 0 " clip-rule="nonzero"/></clipPath><clipPath id="9fd7835306"><path d="M -4.277344 8.335938 L 18.332031 -4.296875 L 30.914062 18.222656 L 8.304688 30.855469 Z M -4.277344 8.335938 " clip-rule="nonzero"/></clipPath><clipPath id="d80f85b6b6"><path d="M 6.984375 2.042969 C 0.765625 5.519531 -1.460938 13.375 2.015625 19.59375 C 5.488281 25.8125 13.347656 28.039062 19.566406 24.5625 C 25.785156 21.089844 28.007812 13.230469 24.535156 7.011719 C 21.058594 0.792969 13.203125 -1.429688 6.984375 2.042969 Z M 6.984375 2.042969 " clip-rule="nonzero"/></clipPath><clipPath id="d6030dbd40"><rect x="0" width="27" y="0" height="27"/></clipPath></defs><g clip-path="url(#43eb6f615f)"><g clip-path="url(#c7dd47ed70)"><g clip-path="url(#cf08bb4db5)"><g transform="matrix(1, 0, 0, 1, 226, 81)"><g clip-path="url(#74f0a08c51)"><g clip-path="url(#5b33a01807)"><g clip-path="url(#1542fe648c)"><g clip-path="url(#46ab069d9e)"><path fill="#273248" d="M -36.652344 64.570312 L 145.386719 -37.132812 L 247.085938 144.90625 L 65.046875 246.609375 Z M -36.652344 64.570312 " fill-opacity="1" fill-rule="nonzero"/></g></g></g></g></g></g></g></g><g clip-path="url(#f0b6392316)"><g clip-path="url(#21445b8f4f)"><g clip-path="url(#7bb927b111)"><g transform="matrix(1, 0, 0, 1, 230, 83)"><g clip-path="url(#0ce6ad2b13)"><g clip-path="url(#fd8589759b)"><g clip-path="url(#4d6a5a59fd)"><g clip-path="url(#92f9b7c208)"><path fill="#ffffff" d="M -35.625 61.984375 L 138.25 -35.15625 L 235.390625 138.71875 L 61.515625 235.859375 Z M -35.625 61.984375 " fill-opacity="1" fill-rule="nonzero"/></g></g></g></g></g></g></g></g><g clip-path="url(#95022116ed)"><g clip-path="url(#2825e2f353)"><g clip-path="url(#a9afe01ae4)"><g transform="matrix(1, 0, 0, 1, 278, 111)"><g clip-path="url(#4bf8ad5313)"><g clip-path="url(#c61e26a595)"><g clip-path="url(#f73427da61)"><g clip-path="url(#63c4c04bc3)"><path fill="#6db143" d="M -19.242188 34.382812 L 77.359375 -19.585938 L 131.332031 77.015625 L 34.730469 130.984375 Z M -19.242188 34.382812 " fill-opacity="1" fill-rule="nonzero"/></g></g></g></g></g></g></g></g><g clip-path="url(#ef097f919f)"><g clip-path="url(#d25e0de5e4)"><g clip-path="url(#4e982863a8)"><g transform="matrix(1, 0, 0, 1, 264, 138)"><g clip-path="url(#45c6d02fa0)"><g clip-path="url(#bb89d983de)"><g clip-path="url(#625f37812f)"><g clip-path="url(#f5cd3cc4bc)"><path fill="#d2fdff" d="M -5.242188 10.421875 L 23.457031 -5.613281 L 39.492188 23.085938 L 10.792969 39.121094 Z M -5.242188 10.421875 " fill-opacity="1" fill-rule="nonzero"/></g></g></g></g></g></g></g></g><g clip-path="url(#9537c54777)"><g clip-path="url(#1890502ed6)"><g clip-path="url(#e5c1a4e913)"><g transform="matrix(1, 0, 0, 1, 40, 105)"><g clip-path="url(#9f96a98a00)"><g clip-path="url(#bbe342f1ca)"><g clip-path="url(#fb7c770fa9)"><g clip-path="url(#3a5381be8e)"><path fill="#273248" d="M -36.683594 64.710938 L 145.359375 -36.988281 L 247.058594 145.050781 L 65.019531 246.753906 Z M -36.683594 64.710938 " fill-opacity="1" fill-rule="nonzero"/></g></g></g></g></g></g></g></g><g clip-path="url(#30f5549596)"><g clip-path="url(#2f35e9e6f4)"><g clip-path="url(#c09bbefb1c)"><g transform="matrix(1, 0, 0, 1, 44, 107)"><g clip-path="url(#8cb9e85e89)"><g clip-path="url(#cb660d303d)"><g clip-path="url(#851f2c5f68)"><g clip-path="url(#72a8cfad2f)"><path fill="#ffffff" d="M -35.652344 62.128906 L 138.222656 -35.011719 L 235.363281 138.863281 L 61.488281 236.003906 Z M -35.652344 62.128906 " fill-opacity="1" fill-rule="nonzero"/></g></g></g></g></g></g></g></g><g clip-path="url(#449074debe)"><g clip-path="url(#9153b7edd5)"><g clip-path="url(#a17b0c4624)"><g transform="matrix(1, 0, 0, 1, 72, 140)"><g clip-path="url(#68e0969aa0)"><g clip-path="url(#01ccae8c89)"><g clip-path="url(#1e75775e0f)"><g clip-path="url(#799c736c6b)"><path fill="#273248" d="M -22.757812 40.84375 L 91.878906 -23.199219 L 155.925781 91.4375 L 41.289062 155.480469 Z M -22.757812 40.84375 " fill-opacity="1" fill-rule="nonzero"/></g></g></g></g></g></g></g></g><g clip-path="url(#9ace17fd34)"><g clip-path="url(#3e6525608d)"><g clip-path="url(#03ab7fc2e2)"><g transform="matrix(1, 0, 0, 1, 62, 175)"><g clip-path="url(#eda864e47b)"><g clip-path="url(#c664a772aa)"><g clip-path="url(#f674f473b1)"><g clip-path="url(#be6a795a31)"><path fill="#d2fdff" d="M -6.390625 12.0625 L 27.171875 -6.6875 L 45.921875 26.875 L 12.359375 45.625 Z M -6.390625 12.0625 " fill-opacity="1" fill-rule="nonzero"/></g></g></g></g></g></g></g></g><g clip-path="url(#8bf68c12c7)"><g clip-path="url(#b4a223dffa)"><g clip-path="url(#b3a24fa5c3)"><g transform="matrix(1, 0, 0, 1, 259, 252)"><g clip-path="url(#273d68d869)"><g clip-path="url(#c5748608fe)"><g clip-path="url(#4f856c3bbb)"><g clip-path="url(#904136d027)"><path fill="#273248" d="M -29.4375 51.273438 L 113.410156 -28.53125 L 193.214844 114.3125 L 50.367188 194.117188 Z M -29.4375 51.273438 " fill-opacity="1" fill-rule="nonzero"/></g></g></g></g></g></g></g></g><g clip-path="url(#aec81177e9)"><g clip-path="url(#deb0dfb625)"><g clip-path="url(#d89c8b7522)"><g transform="matrix(1, 0, 0, 1, 261, 254)"><g clip-path="url(#4c12c39b8d)"><g clip-path="url(#b6bea07756)"><g clip-path="url(#5652a43901)"><g clip-path="url(#d8114f013c)"><path fill="#ffffff" d="M -27.488281 48.8125 L 108.949219 -27.410156 L 185.175781 109.027344 L 48.738281 185.25 Z M -27.488281 48.8125 " fill-opacity="1" fill-rule="nonzero"/></g></g></g></g></g></g></g></g><g clip-path="url(#667c5a6aac)"><g clip-path="url(#dc40651b9e)"><g clip-path="url(#4d0e2f9dce)"><g transform="matrix(1, 0, 0, 1, 284, 280)"><g clip-path="url(#626acd5797)"><g clip-path="url(#add9bd6d97)"><g clip-path="url(#4d752e210e)"><g clip-path="url(#7a720ff2c2)"><path fill="#43b187" d="M -18.398438 32.007812 L 71.554688 -18.246094 L 121.808594 71.707031 L 31.855469 121.960938 Z M -18.398438 32.007812 " fill-opacity="1" fill-rule="nonzero"/></g></g></g></g></g></g></g></g><g clip-path="url(#7b3c073e9d)"><g clip-path="url(#c32988dcdf)"><g clip-path="url(#98878ae8a4)"><g transform="matrix(1, 0, 0, 1, 281, 301)"><g clip-path="url(#d6030dbd40)"><g clip-path="url(#cf611ff960)"><g clip-path="url(#9fd7835306)"><g clip-path="url(#d80f85b6b6)"><path fill="#d2fdff" d="M -4.277344 8.335938 L 18.242188 -4.246094 L 30.824219 18.273438 L 8.304688 30.855469 Z M -4.277344 8.335938 " fill-opacity="1" fill-rule="nonzero"/></g></g></g></g></g></g></g></g></svg>