<svg xmlns="http://www.w3.org/2000/svg" xmlns:xlink="http://www.w3.org/1999/xlink" width="636" zoomAndPan="magnify" viewBox="0 0 476.87997 476.999988" height="636" preserveAspectRatio="xMidYMid meet" version="1.0"><defs><clipPath id="a1b508bef5"><path d="M 170 82 L 450 82 L 450 418 L 170 418 Z M 170 82 " clip-rule="nonzero"/></clipPath><clipPath id="557e82e02f"><path d="M 170.675781 128.65625 L 387.539062 82.507812 L 449.03125 371.464844 L 232.167969 417.613281 Z M 170.675781 128.65625 " clip-rule="nonzero"/></clipPath><clipPath id="c3d7590e68"><path d="M 0.597656 0.359375 L 279.167969 0.359375 L 279.167969 335.792969 L 0.597656 335.792969 Z M 0.597656 0.359375 " clip-rule="nonzero"/></clipPath><clipPath id="8c76a49549"><path d="M 0.675781 46.65625 L 217.539062 0.507812 L 279.03125 289.464844 L 62.167969 335.613281 Z M 0.675781 46.65625 " clip-rule="nonzero"/></clipPath><clipPath id="c65c9bb8d6"><rect x="0" width="280" y="0" height="336"/></clipPath><clipPath id="219d1cd2a3"><path d="M 143 82 L 453 82 L 453 436 L 143 436 Z M 143 82 " clip-rule="nonzero"/></clipPath><clipPath id="4fe6acb769"><path d="M 244.496094 82.507812 L 452.851562 158.324219 L 351.832031 435.945312 L 143.476562 360.128906 Z M 244.496094 82.507812 " clip-rule="nonzero"/></clipPath><clipPath id="79b0c5c013"><path d="M 0.242188 0.359375 L 310 0.359375 L 310 354 L 0.242188 354 Z M 0.242188 0.359375 " clip-rule="nonzero"/></clipPath><clipPath id="088016dbeb"><path d="M 101.496094 0.507812 L 309.851562 76.324219 L 208.832031 353.945312 L 0.476562 278.128906 Z M 101.496094 0.507812 " clip-rule="nonzero"/></clipPath><clipPath id="01056424bb"><rect x="0" width="310" y="0" height="354"/></clipPath><clipPath id="b74de3552e"><path d="M 23 96 L 389 96 L 389 468 L 23 468 Z M 23 96 " clip-rule="nonzero"/></clipPath><clipPath id="b47d4d8e9b"><path d="M 23.683594 245.167969 L 190.542969 96.320312 L 388.457031 318.1875 L 221.597656 467.035156 Z M 23.683594 245.167969 " clip-rule="nonzero"/></clipPath><clipPath id="351306a5ab"><path d="M 0.515625 0.277344 L 365.460938 0.277344 L 365.460938 371 L 0.515625 371 Z M 0.515625 0.277344 " clip-rule="nonzero"/></clipPath><clipPath id="ad2ae0b65e"><path d="M 0.683594 149.167969 L 167.542969 0.320312 L 365.457031 222.1875 L 198.597656 371.035156 Z M 0.683594 149.167969 " clip-rule="nonzero"/></clipPath><clipPath id="0eabcefa01"><rect x="0" width="366" y="0" height="372"/></clipPath><clipPath id="a6e9584c4a"><path d="M 23 97 L 386 97 L 386 466 L 23 466 Z M 23 97 " clip-rule="nonzero"/></clipPath><clipPath id="a56589f85b"><path d="M 23.683594 245.164062 L 189.136719 97.574219 L 385.796875 318.035156 L 220.34375 465.625 Z M 23.683594 245.164062 " clip-rule="nonzero"/></clipPath><clipPath id="fbf7ee635f"><path d="M 0.515625 0.476562 L 362.824219 0.476562 L 362.824219 368.78125 L 0.515625 368.78125 Z M 0.515625 0.476562 " clip-rule="nonzero"/></clipPath><clipPath id="d077a9088b"><path d="M 0.683594 148.164062 L 166.136719 0.574219 L 362.796875 221.035156 L 197.34375 368.625 Z M 0.683594 148.164062 " clip-rule="nonzero"/></clipPath><clipPath id="c0dc3d8abd"><rect x="0" width="363" y="0" height="369"/></clipPath><clipPath id="e7a8386ef7"><path d="M 150.5625 61.082031 L 374.164062 61.082031 L 374.164062 358.394531 L 150.5625 358.394531 Z M 150.5625 61.082031 " clip-rule="nonzero"/></clipPath><clipPath id="ad25f79967"><path d="M 0.5625 0.0820312 L 224.164062 0.0820312 L 224.164062 297.394531 L 0.5625 297.394531 Z M 0.5625 0.0820312 " clip-rule="nonzero"/></clipPath><clipPath id="e4f95058cb"><rect x="0" width="225" y="0" height="298"/></clipPath><clipPath id="c3d0383df0"><path d="M 150.5625 61.082031 L 372.28125 61.082031 L 372.28125 356.511719 L 150.5625 356.511719 Z M 150.5625 61.082031 " clip-rule="nonzero"/></clipPath><clipPath id="bd0e539869"><path d="M 0.5625 0.0820312 L 222.28125 0.0820312 L 222.28125 295.511719 L 0.5625 295.511719 Z M 0.5625 0.0820312 " clip-rule="nonzero"/></clipPath><clipPath id="91e3affe58"><rect x="0" width="223" y="0" height="296"/></clipPath><clipPath id="513d64a4bc"><path d="M 122 37 L 365 37 L 365 349 L 122 349 Z M 122 37 " clip-rule="nonzero"/></clipPath><clipPath id="d03401be3c"><path d="M 122.953125 51.398438 L 346.136719 37.738281 L 364.300781 334.496094 L 141.113281 348.15625 Z M 122.953125 51.398438 " clip-rule="nonzero"/></clipPath><clipPath id="4b7dc33bbc"><path d="M 0.847656 0.730469 L 242.46875 0.730469 L 242.46875 311 L 0.847656 311 Z M 0.847656 0.730469 " clip-rule="nonzero"/></clipPath><clipPath id="09634648bd"><path d="M 0.953125 14.398438 L 224.136719 0.738281 L 242.300781 297.496094 L 19.113281 311.15625 Z M 0.953125 14.398438 " clip-rule="nonzero"/></clipPath><clipPath id="9ae94ae3eb"><rect x="0" width="243" y="0" height="312"/></clipPath><clipPath id="bc1e0d2d16"><path d="M 122 37 L 363 37 L 363 347 L 122 347 Z M 122 37 " clip-rule="nonzero"/></clipPath><clipPath id="3c1ae1ab70"><path d="M 122.953125 51.398438 L 344.257812 37.851562 L 362.304688 332.730469 L 141 346.273438 Z M 122.953125 51.398438 " clip-rule="nonzero"/></clipPath><clipPath id="1773586b05"><path d="M 0.847656 0.730469 L 240.308594 0.730469 L 240.308594 309.292969 L 0.847656 309.292969 Z M 0.847656 0.730469 " clip-rule="nonzero"/></clipPath><clipPath id="1b73ab3e20"><path d="M 0.953125 14.398438 L 222.257812 0.851562 L 240.304688 295.730469 L 19 309.273438 Z M 0.953125 14.398438 " clip-rule="nonzero"/></clipPath><clipPath id="79a575fcf0"><rect x="0" width="241" y="0" height="310"/></clipPath><clipPath id="7fa1dae818"><path d="M 89 31 L 374 31 L 374 372 L 89 372 Z M 89 31 " clip-rule="nonzero"/></clipPath><clipPath id="83a3722961"><path d="M 155.71875 31.945312 L 373.691406 81.804688 L 307.398438 371.632812 L 89.425781 321.773438 Z M 155.71875 31.945312 " clip-rule="nonzero"/></clipPath><clipPath id="2396bf1a6b"><path d="M 0.257812 0.730469 L 284.824219 0.730469 L 284.824219 340.726562 L 0.257812 340.726562 Z M 0.257812 0.730469 " clip-rule="nonzero"/></clipPath><clipPath id="ce8f36a58a"><path d="M 66.71875 0.945312 L 284.691406 50.804688 L 218.398438 340.632812 L 0.425781 290.773438 Z M 66.71875 0.945312 " clip-rule="nonzero"/></clipPath><clipPath id="7a04ecb022"><rect x="0" width="285" y="0" height="341"/></clipPath><clipPath id="b353d14811"><path d="M 89 31 L 372 31 L 372 370 L 89 370 Z M 89 31 " clip-rule="nonzero"/></clipPath><clipPath id="2fea2bf6d6"><path d="M 155.71875 31.945312 L 371.855469 81.382812 L 305.980469 369.375 L 89.84375 319.9375 Z M 155.71875 31.945312 " clip-rule="nonzero"/></clipPath><clipPath id="a6596f3157"><path d="M 0.738281 0.730469 L 282.90625 0.730469 L 282.90625 338.566406 L 0.738281 338.566406 Z M 0.738281 0.730469 " clip-rule="nonzero"/></clipPath><clipPath id="6326cda8c5"><path d="M 66.71875 0.945312 L 282.855469 50.382812 L 216.980469 338.375 L 0.84375 288.9375 Z M 66.71875 0.945312 " clip-rule="nonzero"/></clipPath><clipPath id="1492191c4f"><rect x="0" width="283" y="0" height="339"/></clipPath><clipPath id="9c43809297"><path d="M 126.390625 35.832031 L 349.996094 35.832031 L 349.996094 333.144531 L 126.390625 333.144531 Z M 126.390625 35.832031 " clip-rule="nonzero"/></clipPath><clipPath id="67cc5daeb4"><path d="M 0.390625 0.832031 L 223.996094 0.832031 L 223.996094 298 L 0.390625 298 Z M 0.390625 0.832031 " clip-rule="nonzero"/></clipPath><clipPath id="0409647e01"><rect x="0" width="224" y="0" height="299"/></clipPath><clipPath id="89e42c7483"><path d="M 126.390625 35.832031 L 348.109375 35.832031 L 348.109375 331.261719 L 126.390625 331.261719 Z M 126.390625 35.832031 " clip-rule="nonzero"/></clipPath><clipPath id="8792458c47"><path d="M 0.390625 0.832031 L 222.109375 0.832031 L 222.109375 296.261719 L 0.390625 296.261719 Z M 0.390625 0.832031 " clip-rule="nonzero"/></clipPath><clipPath id="37c854ec6b"><rect x="0" width="223" y="0" height="297"/></clipPath><clipPath id="e74e3b5169"><path d="M 119.757812 30.058594 L 343.359375 30.058594 L 343.359375 327.375 L 119.757812 327.375 Z M 119.757812 30.058594 " clip-rule="nonzero"/></clipPath><clipPath id="b8c10e2fb8"><path d="M 0.757812 0.0585938 L 224.359375 0.0585938 L 224.359375 297.375 L 0.757812 297.375 Z M 0.757812 0.0585938 " clip-rule="nonzero"/></clipPath><clipPath id="bcfb2f4eb8"><rect x="0" width="225" y="0" height="298"/></clipPath><clipPath id="2040c44975"><path d="M 119.757812 30.058594 L 341.476562 30.058594 L 341.476562 325.488281 L 119.757812 325.488281 Z M 119.757812 30.058594 " clip-rule="nonzero"/></clipPath><clipPath id="9ea83bb173"><path d="M 0.757812 0.0585938 L 222.476562 0.0585938 L 222.476562 295.488281 L 0.757812 295.488281 Z M 0.757812 0.0585938 " clip-rule="nonzero"/></clipPath><clipPath id="33ea0ea5b4"><rect x="0" width="223" y="0" height="296"/></clipPath><clipPath id="52de157906"><path d="M 81 9 L 358 9 L 358 345 L 81 345 Z M 81 9 " clip-rule="nonzero"/></clipPath><clipPath id="0d333423a0"><path d="M 81.109375 52.152344 L 300.628906 9.617188 L 357.1875 301.5 L 137.667969 344.039062 Z M 81.109375 52.152344 " clip-rule="nonzero"/></clipPath><clipPath id="fec45aa1ce"><path d="M 0.0976562 0.417969 L 276.269531 0.417969 L 276.269531 335 L 0.0976562 335 Z M 0.0976562 0.417969 " clip-rule="nonzero"/></clipPath><clipPath id="1764ea8f83"><path d="M 0.109375 43.152344 L 219.628906 0.617188 L 276.1875 292.5 L 56.667969 335.039062 Z M 0.109375 43.152344 " clip-rule="nonzero"/></clipPath><clipPath id="68860255cd"><rect x="0" width="277" y="0" height="336"/></clipPath><clipPath id="bcfa0f940b"><path d="M 81 9 L 355 9 L 355 343 L 81 343 Z M 81 9 " clip-rule="nonzero"/></clipPath><clipPath id="3e92ecfb5b"><path d="M 81.109375 52.152344 L 298.78125 9.976562 L 354.980469 300.011719 L 137.3125 342.1875 Z M 81.109375 52.152344 " clip-rule="nonzero"/></clipPath><clipPath id="9439744a68"><path d="M 0.0976562 0.898438 L 274 0.898438 L 274 333.214844 L 0.0976562 333.214844 Z M 0.0976562 0.898438 " clip-rule="nonzero"/></clipPath><clipPath id="7aba614501"><path d="M 0.109375 43.152344 L 217.78125 0.976562 L 273.980469 291.011719 L 56.3125 333.1875 Z M 0.109375 43.152344 " clip-rule="nonzero"/></clipPath><clipPath id="6e7db8745a"><rect x="0" width="274" y="0" height="334"/></clipPath></defs><g clip-path="url(#a1b508bef5)"><g clip-path="url(#557e82e02f)"><g transform="matrix(1, 0, 0, 1, 170, 82)"><g clip-path="url(#c65c9bb8d6)"><g clip-path="url(#c3d7590e68)"><g clip-path="url(#8c76a49549)"><path fill="#2d2748" d="M 0.675781 46.65625 L 217.539062 0.507812 L 279.011719 289.375 L 62.148438 335.523438 Z M 0.675781 46.65625 " fill-opacity="1" fill-rule="nonzero"/></g></g></g></g></g></g><g clip-path="url(#219d1cd2a3)"><g clip-path="url(#4fe6acb769)"><g transform="matrix(1, 0, 0, 1, 143, 82)"><g clip-path="url(#01056424bb)"><g clip-path="url(#79b0c5c013)"><g clip-path="url(#088016dbeb)"><path fill="#482443" d="M 101.496094 0.507812 L 309.851562 76.324219 L 208.863281 353.855469 L 0.511719 278.042969 Z M 101.496094 0.507812 " fill-opacity="1" fill-rule="nonzero"/></g></g></g></g></g></g><g clip-path="url(#b74de3552e)"><g clip-path="url(#b47d4d8e9b)"><g transform="matrix(1, 0, 0, 1, 23, 96)"><g clip-path="url(#0eabcefa01)"><g clip-path="url(#351306a5ab)"><g clip-path="url(#ad2ae0b65e)"><path fill="#2d2748" d="M 0.683594 149.167969 L 167.542969 0.320312 L 365.230469 221.929688 L 198.371094 370.777344 Z M 0.683594 149.167969 " fill-opacity="1" fill-rule="nonzero"/></g></g></g></g></g></g><g clip-path="url(#a6e9584c4a)"><g clip-path="url(#a56589f85b)"><g transform="matrix(1, 0, 0, 1, 23, 97)"><g clip-path="url(#c0dc3d8abd)"><g clip-path="url(#fbf7ee635f)"><g clip-path="url(#d077a9088b)"><path fill="#482443" d="M 0.683594 148.164062 L 166.136719 0.574219 L 362.734375 220.964844 L 197.28125 368.554688 Z M 0.683594 148.164062 " fill-opacity="1" fill-rule="nonzero"/></g></g></g></g></g></g><g clip-path="url(#e7a8386ef7)"><g transform="matrix(1, 0, 0, 1, 150, 61)"><g clip-path="url(#e4f95058cb)"><g clip-path="url(#ad25f79967)"><path fill="#482443" d="M 0.5625 0.0820312 L 224.164062 0.0820312 L 224.164062 297.054688 L 0.5625 297.054688 Z M 0.5625 0.0820312 " fill-opacity="1" fill-rule="nonzero"/></g></g></g></g><g clip-path="url(#c3d0383df0)"><g transform="matrix(1, 0, 0, 1, 150, 61)"><g clip-path="url(#91e3affe58)"><g clip-path="url(#bd0e539869)"><path fill="#8743b1" d="M 0.5625 0.0820312 L 222.28125 0.0820312 L 222.28125 295.417969 L 0.5625 295.417969 Z M 0.5625 0.0820312 " fill-opacity="1" fill-rule="nonzero"/></g></g></g></g><g clip-path="url(#513d64a4bc)"><g clip-path="url(#d03401be3c)"><g transform="matrix(1, 0, 0, 1, 122, 37)"><g clip-path="url(#9ae94ae3eb)"><g clip-path="url(#4b7dc33bbc)"><g clip-path="url(#09634648bd)"><path fill="#482443" d="M 0.953125 14.398438 L 224.136719 0.738281 L 242.277344 297.15625 L 19.09375 310.816406 Z M 0.953125 14.398438 " fill-opacity="1" fill-rule="nonzero"/></g></g></g></g></g></g><g clip-path="url(#bc1e0d2d16)"><g clip-path="url(#3c1ae1ab70)"><g transform="matrix(1, 0, 0, 1, 122, 37)"><g clip-path="url(#79a575fcf0)"><g clip-path="url(#1773586b05)"><g clip-path="url(#1b73ab3e20)"><path fill="#8743b1" d="M 0.953125 14.398438 L 222.257812 0.851562 L 240.296875 295.636719 L 18.992188 309.179688 Z M 0.953125 14.398438 " fill-opacity="1" fill-rule="nonzero"/></g></g></g></g></g></g><g clip-path="url(#7fa1dae818)"><g clip-path="url(#83a3722961)"><g transform="matrix(1, 0, 0, 1, 89, 31)"><g clip-path="url(#7a04ecb022)"><g clip-path="url(#2396bf1a6b)"><g clip-path="url(#ce8f36a58a)"><path fill="#482443" d="M 66.71875 0.945312 L 284.691406 50.804688 L 218.472656 340.300781 L 0.5 290.441406 Z M 66.71875 0.945312 " fill-opacity="1" fill-rule="nonzero"/></g></g></g></g></g></g><g clip-path="url(#b353d14811)"><g clip-path="url(#2fea2bf6d6)"><g transform="matrix(1, 0, 0, 1, 89, 31)"><g clip-path="url(#1492191c4f)"><g clip-path="url(#a6596f3157)"><g clip-path="url(#6326cda8c5)"><path fill="#8743b1" d="M 66.71875 0.945312 L 282.855469 50.382812 L 217 338.285156 L 0.867188 288.84375 Z M 66.71875 0.945312 " fill-opacity="1" fill-rule="nonzero"/></g></g></g></g></g></g><g clip-path="url(#9c43809297)"><g transform="matrix(1, 0, 0, 1, 126, 35)"><g clip-path="url(#0409647e01)"><g clip-path="url(#67cc5daeb4)"><path fill="#8743b1" d="M 0.390625 0.832031 L 223.996094 0.832031 L 223.996094 297.804688 L 0.390625 297.804688 Z M 0.390625 0.832031 " fill-opacity="1" fill-rule="nonzero"/></g></g></g></g><g clip-path="url(#89e42c7483)"><g transform="matrix(1, 0, 0, 1, 126, 35)"><g clip-path="url(#37c854ec6b)"><g clip-path="url(#8792458c47)"><path fill="#b258cb" d="M 0.390625 0.832031 L 222.109375 0.832031 L 222.109375 296.167969 L 0.390625 296.167969 Z M 0.390625 0.832031 " fill-opacity="1" fill-rule="nonzero"/></g></g></g></g><g clip-path="url(#e74e3b5169)"><g transform="matrix(1, 0, 0, 1, 119, 30)"><g clip-path="url(#bcfb2f4eb8)"><g clip-path="url(#b8c10e2fb8)"><path fill="#8743b1" d="M 0.757812 0.0585938 L 224.359375 0.0585938 L 224.359375 297.03125 L 0.757812 297.03125 Z M 0.757812 0.0585938 " fill-opacity="1" fill-rule="nonzero"/></g></g></g></g><g clip-path="url(#2040c44975)"><g transform="matrix(1, 0, 0, 1, 119, 30)"><g clip-path="url(#33ea0ea5b4)"><g clip-path="url(#9ea83bb173)"><path fill="#b258cb" d="M 0.757812 0.0585938 L 222.476562 0.0585938 L 222.476562 295.394531 L 0.757812 295.394531 Z M 0.757812 0.0585938 " fill-opacity="1" fill-rule="nonzero"/></g></g></g></g><g clip-path="url(#52de157906)"><g clip-path="url(#0d333423a0)"><g transform="matrix(1, 0, 0, 1, 81, 9)"><g clip-path="url(#68860255cd)"><g clip-path="url(#fec45aa1ce)"><g clip-path="url(#1764ea8f83)"><path fill="#8743b1" d="M 0.109375 43.152344 L 219.628906 0.617188 L 276.125 292.167969 L 56.605469 334.703125 Z M 0.109375 43.152344 " fill-opacity="1" fill-rule="nonzero"/></g></g></g></g></g></g><g clip-path="url(#bcfa0f940b)"><g clip-path="url(#3e92ecfb5b)"><g transform="matrix(1, 0, 0, 1, 81, 9)"><g clip-path="url(#6e7db8745a)"><g clip-path="url(#9439744a68)"><g clip-path="url(#7aba614501)"><path fill="#b258cb" d="M 0.109375 43.152344 L 217.78125 0.976562 L 273.960938 290.917969 L 56.292969 333.09375 Z M 0.109375 43.152344 " fill-opacity="1" fill-rule="nonzero"/></g></g></g></g></g></g></svg>