<svg xmlns="http://www.w3.org/2000/svg" xmlns:xlink="http://www.w3.org/1999/xlink" width="636" zoomAndPan="magnify" viewBox="0 0 476.87997 476.999988" height="636" preserveAspectRatio="xMidYMid meet" version="1.0"><defs><clipPath id="76fed43781"><path d="M 8 8 L 68 8 L 68 64 L 8 64 Z M 8 8 " clip-rule="nonzero"/></clipPath><clipPath id="60f5182dc0"><path d="M 0.933594 20.519531 L 57.402344 0.636719 L 75.453125 51.898438 L 18.984375 71.78125 Z M 0.933594 20.519531 " clip-rule="nonzero"/></clipPath><clipPath id="fb49f81c7b"><path d="M 29.078125 10.609375 C 13.53125 16.082031 4.972656 31.996094 9.957031 46.152344 C 14.941406 60.308594 31.582031 67.347656 47.128906 61.871094 C 62.671875 56.398438 71.230469 40.488281 66.246094 26.332031 C 61.261719 12.175781 44.621094 5.136719 29.078125 10.609375 Z M 29.078125 10.609375 " clip-rule="nonzero"/></clipPath><clipPath id="381f3a733e"><path d="M 0 0 L 60 0 L 60 56 L 0 56 Z M 0 0 " clip-rule="nonzero"/></clipPath><clipPath id="c96e0f5bbc"><path d="M -7.066406 12.519531 L 49.402344 -7.363281 L 67.453125 43.898438 L 10.984375 63.78125 Z M -7.066406 12.519531 " clip-rule="nonzero"/></clipPath><clipPath id="593456d550"><path d="M 21.078125 2.609375 C 5.53125 8.082031 -3.027344 23.996094 1.957031 38.152344 C 6.941406 52.308594 23.582031 59.347656 39.128906 53.871094 C 54.671875 48.398438 63.230469 32.488281 58.246094 18.332031 C 53.261719 4.175781 36.621094 -2.863281 21.078125 2.609375 Z M 21.078125 2.609375 " clip-rule="nonzero"/></clipPath><clipPath id="fbdc53f217"><rect x="0" width="60" y="0" height="56"/></clipPath><clipPath id="e557640742"><path d="M 9 26 L 180 26 L 180 368 L 9 368 Z M 9 26 " clip-rule="nonzero"/></clipPath><clipPath id="be8fdc1e92"><path d="M 9.957031 46.152344 L 66.246094 26.332031 L 179.371094 347.601562 L 123.082031 367.421875 Z M 9.957031 46.152344 " clip-rule="nonzero"/></clipPath><clipPath id="6ef97ddb9c"><path d="M 0.878906 0.171875 L 170.515625 0.171875 L 170.515625 341.605469 L 0.878906 341.605469 Z M 0.878906 0.171875 " clip-rule="nonzero"/></clipPath><clipPath id="330ee8a422"><path d="M 0.957031 20.152344 L 57.246094 0.332031 L 170.371094 321.601562 L 114.082031 341.421875 Z M 0.957031 20.152344 " clip-rule="nonzero"/></clipPath><clipPath id="5b9557a8b3"><rect x="0" width="171" y="0" height="342"/></clipPath><clipPath id="63fdfbdec3"><path d="M 121 328 L 181 328 L 181 384 L 121 384 Z M 121 328 " clip-rule="nonzero"/></clipPath><clipPath id="c48917c4a0"><path d="M 113.582031 340.4375 L 170.050781 320.554688 L 188.101562 371.816406 L 131.632812 391.699219 Z M 113.582031 340.4375 " clip-rule="nonzero"/></clipPath><clipPath id="1424eafa95"><path d="M 141.726562 330.527344 C 126.179688 336 117.621094 351.914062 122.605469 366.066406 C 127.589844 380.222656 144.230469 387.261719 159.777344 381.789062 C 175.320312 376.316406 183.878906 360.402344 178.894531 346.246094 C 173.910156 332.089844 157.269531 325.054688 141.726562 330.527344 Z M 141.726562 330.527344 " clip-rule="nonzero"/></clipPath><clipPath id="7bb7f55bf6"><path d="M 0 0 L 60 0 L 60 56 L 0 56 Z M 0 0 " clip-rule="nonzero"/></clipPath><clipPath id="f0da3f54d0"><path d="M -7.417969 12.4375 L 49.050781 -7.445312 L 67.101562 43.816406 L 10.632812 63.699219 Z M -7.417969 12.4375 " clip-rule="nonzero"/></clipPath><clipPath id="23641cd71d"><path d="M 20.726562 2.527344 C 5.179688 8 -3.378906 23.914062 1.605469 38.066406 C 6.589844 52.222656 23.230469 59.261719 38.777344 53.789062 C 54.320312 48.316406 62.878906 32.402344 57.894531 18.246094 C 52.910156 4.089844 36.269531 -2.945312 20.726562 2.527344 Z M 20.726562 2.527344 " clip-rule="nonzero"/></clipPath><clipPath id="75d4808781"><rect x="0" width="60" y="0" height="56"/></clipPath><clipPath id="ec093bcbdf"><path d="M 8 10 L 63 10 L 63 64 L 8 64 Z M 8 10 " clip-rule="nonzero"/></clipPath><clipPath id="b0fd10c84f"><path d="M 0.933594 20.519531 L 51.785156 2.613281 L 69.691406 53.46875 L 18.839844 71.371094 Z M 0.933594 20.519531 " clip-rule="nonzero"/></clipPath><clipPath id="54181d2b82"><path d="M 26.359375 11.566406 C 12.316406 16.511719 4.941406 31.902344 9.886719 45.945312 C 14.828125 59.988281 30.222656 67.363281 44.265625 62.417969 C 58.308594 57.476562 65.683594 42.082031 60.738281 28.039062 C 55.792969 13.996094 40.402344 6.621094 26.359375 11.566406 Z M 26.359375 11.566406 " clip-rule="nonzero"/></clipPath><clipPath id="c0475d8cf9"><path d="M 0 0 L 55 0 L 55 54 L 0 54 Z M 0 0 " clip-rule="nonzero"/></clipPath><clipPath id="c0b99d79e4"><path d="M -7.066406 10.519531 L 43.785156 -7.386719 L 61.691406 43.46875 L 10.839844 61.371094 Z M -7.066406 10.519531 " clip-rule="nonzero"/></clipPath><clipPath id="40622481c8"><path d="M 18.359375 1.566406 C 4.316406 6.511719 -3.058594 21.902344 1.886719 35.945312 C 6.828125 49.988281 22.222656 57.363281 36.265625 52.417969 C 50.308594 47.476562 57.683594 32.082031 52.738281 18.039062 C 47.792969 3.996094 32.402344 -3.378906 18.359375 1.566406 Z M 18.359375 1.566406 " clip-rule="nonzero"/></clipPath><clipPath id="37d9beaef2"><rect x="0" width="55" y="0" height="54"/></clipPath><clipPath id="71a04e8878"><path d="M 9 28 L 173 28 L 173 365 L 9 365 Z M 9 28 " clip-rule="nonzero"/></clipPath><clipPath id="df6d05add1"><path d="M 9.886719 45.945312 L 60.738281 28.039062 L 172.957031 346.742188 L 122.105469 364.644531 Z M 9.886719 45.945312 " clip-rule="nonzero"/></clipPath><clipPath id="cd44790696"><path d="M 0.878906 0 L 164 0 L 164 336.726562 L 0.878906 336.726562 Z M 0.878906 0 " clip-rule="nonzero"/></clipPath><clipPath id="bc9e5fd330"><path d="M 0.886719 17.945312 L 51.738281 0.0390625 L 163.957031 318.742188 L 113.105469 336.644531 Z M 0.886719 17.945312 " clip-rule="nonzero"/></clipPath><clipPath id="d43463a0eb"><rect x="0" width="164" y="0" height="337"/></clipPath><clipPath id="5ef23fae34"><path d="M 120 327 L 175 327 L 175 382 L 120 382 Z M 120 327 " clip-rule="nonzero"/></clipPath><clipPath id="2702b168c7"><path d="M 112.679688 337.878906 L 163.53125 319.972656 L 181.4375 370.824219 L 130.585938 388.730469 Z M 112.679688 337.878906 " clip-rule="nonzero"/></clipPath><clipPath id="e71180cf2d"><path d="M 138.105469 328.925781 C 124.0625 333.871094 116.6875 349.261719 121.632812 363.304688 C 126.578125 377.347656 141.96875 384.722656 156.011719 379.777344 C 170.054688 374.832031 177.429688 359.441406 172.484375 345.398438 C 167.539062 331.355469 152.148438 323.980469 138.105469 328.925781 Z M 138.105469 328.925781 " clip-rule="nonzero"/></clipPath><clipPath id="e372fa4b91"><path d="M 0 0 L 55 0 L 55 55 L 0 55 Z M 0 0 " clip-rule="nonzero"/></clipPath><clipPath id="642016f8e4"><path d="M -7.320312 10.878906 L 43.53125 -7.027344 L 61.4375 43.824219 L 10.585938 61.730469 Z M -7.320312 10.878906 " clip-rule="nonzero"/></clipPath><clipPath id="8a65b24799"><path d="M 18.105469 1.925781 C 4.0625 6.871094 -3.3125 22.261719 1.632812 36.304688 C 6.578125 50.347656 21.96875 57.722656 36.011719 52.777344 C 50.054688 47.832031 57.429688 32.441406 52.484375 18.398438 C 47.539062 4.355469 32.148438 -3.019531 18.105469 1.925781 Z M 18.105469 1.925781 " clip-rule="nonzero"/></clipPath><clipPath id="f3e318abbc"><rect x="0" width="55" y="0" height="55"/></clipPath><clipPath id="ea2e61948f"><rect x="0" width="189" y="0" height="392"/></clipPath><clipPath id="3f77c2f6d2"><path d="M 56 5 L 116 5 L 116 60 L 56 60 Z M 56 5 " clip-rule="nonzero"/></clipPath><clipPath id="879147a61f"><path d="M 60.636719 0.957031 L 119.800781 10.109375 L 111.488281 63.820312 L 52.324219 54.664062 Z M 60.636719 0.957031 " clip-rule="nonzero"/></clipPath><clipPath id="a8d797b5d5"><path d="M 90.125 5.519531 C 73.839844 3 58.777344 12.976562 56.480469 27.808594 C 54.1875 42.640625 65.527344 56.707031 81.8125 59.226562 C 98.097656 61.746094 113.160156 51.765625 115.457031 36.9375 C 117.75 22.105469 106.410156 8.039062 90.125 5.519531 Z M 90.125 5.519531 " clip-rule="nonzero"/></clipPath><clipPath id="9f5cc03f41"><path d="M 0 0 L 60 0 L 60 55 L 0 55 Z M 0 0 " clip-rule="nonzero"/></clipPath><clipPath id="9fb0d2baed"><path d="M 4.636719 -4.042969 L 63.800781 5.109375 L 55.488281 58.820312 L -3.675781 49.664062 Z M 4.636719 -4.042969 " clip-rule="nonzero"/></clipPath><clipPath id="cd8c001ba0"><path d="M 34.125 0.519531 C 17.839844 -2 2.777344 7.976562 0.480469 22.808594 C -1.8125 37.640625 9.527344 51.707031 25.8125 54.226562 C 42.097656 56.746094 57.160156 46.765625 59.457031 31.9375 C 61.75 17.105469 50.410156 3.039062 34.125 0.519531 Z M 34.125 0.519531 " clip-rule="nonzero"/></clipPath><clipPath id="ad2760d846"><rect x="0" width="60" y="0" height="55"/></clipPath><clipPath id="59daf4f52f"><path d="M 4 27 L 116 27 L 116 374 L 4 374 Z M 4 27 " clip-rule="nonzero"/></clipPath><clipPath id="676b89e3c8"><path d="M 56.480469 27.808594 L 115.457031 36.9375 L 63.367188 373.535156 L 4.394531 364.40625 Z M 56.480469 27.808594 " clip-rule="nonzero"/></clipPath><clipPath id="20a1bf6bc5"><path d="M 0.15625 0.644531 L 111.488281 0.644531 L 111.488281 346.636719 L 0.15625 346.636719 Z M 0.15625 0.644531 " clip-rule="nonzero"/></clipPath><clipPath id="93f288ae6a"><path d="M 52.480469 0.808594 L 111.457031 9.9375 L 59.367188 346.535156 L 0.394531 337.40625 Z M 52.480469 0.808594 " clip-rule="nonzero"/></clipPath><clipPath id="9916edeebc"><rect x="0" width="112" y="0" height="347"/></clipPath><clipPath id="23768ef843"><path d="M 4 340 L 64 340 L 64 395 L 4 395 Z M 4 340 " clip-rule="nonzero"/></clipPath><clipPath id="609e411f46"><path d="M 8.769531 336.136719 L 67.933594 345.289062 L 59.621094 399 L 0.457031 389.84375 Z M 8.769531 336.136719 " clip-rule="nonzero"/></clipPath><clipPath id="8806eedf95"><path d="M 38.257812 340.699219 C 21.972656 338.179688 6.910156 348.160156 4.613281 362.988281 C 2.316406 377.820312 13.660156 391.886719 29.945312 394.40625 C 46.230469 396.925781 61.292969 386.945312 63.589844 372.117188 C 65.882812 357.285156 54.542969 343.21875 38.257812 340.699219 Z M 38.257812 340.699219 " clip-rule="nonzero"/></clipPath><clipPath id="4cdf06810d"><path d="M 0 0 L 60 0 L 60 55 L 0 55 Z M 0 0 " clip-rule="nonzero"/></clipPath><clipPath id="c3a2cdc14a"><path d="M 4.769531 -3.863281 L 63.933594 5.289062 L 55.621094 59 L -3.542969 49.84375 Z M 4.769531 -3.863281 " clip-rule="nonzero"/></clipPath><clipPath id="c1b9ee4d56"><path d="M 34.257812 0.699219 C 17.972656 -1.820312 2.910156 8.160156 0.613281 22.988281 C -1.683594 37.820312 9.660156 51.886719 25.945312 54.40625 C 42.230469 56.925781 57.292969 46.945312 59.589844 32.117188 C 61.882812 17.285156 50.542969 3.21875 34.257812 0.699219 Z M 34.257812 0.699219 " clip-rule="nonzero"/></clipPath><clipPath id="0a9214da40"><rect x="0" width="60" y="0" height="55"/></clipPath><clipPath id="a27e82f326"><path d="M 56 4 L 111 4 L 111 59 L 56 59 Z M 56 4 " clip-rule="nonzero"/></clipPath><clipPath id="b839236c14"><path d="M 60.636719 0.957031 L 113.914062 9.199219 L 105.671875 62.480469 L 52.390625 54.234375 Z M 60.636719 0.957031 " clip-rule="nonzero"/></clipPath><clipPath id="376fa8f7d1"><path d="M 87.277344 5.078125 C 72.5625 2.800781 58.792969 12.882812 56.515625 27.59375 C 54.238281 42.308594 64.320312 56.078125 79.03125 58.355469 C 93.746094 60.632812 107.515625 50.550781 109.792969 35.839844 C 112.070312 21.125 101.988281 7.355469 87.277344 5.078125 Z M 87.277344 5.078125 " clip-rule="nonzero"/></clipPath><clipPath id="09d5df5845"><path d="M 0 0 L 55 0 L 55 55 L 0 55 Z M 0 0 " clip-rule="nonzero"/></clipPath><clipPath id="e5e2233d85"><path d="M 4.636719 -3.042969 L 57.914062 5.199219 L 49.671875 58.480469 L -3.609375 50.234375 Z M 4.636719 -3.042969 " clip-rule="nonzero"/></clipPath><clipPath id="3fb0a685fd"><path d="M 31.277344 1.078125 C 16.5625 -1.199219 2.792969 8.882812 0.515625 23.59375 C -1.761719 38.308594 8.320312 52.078125 23.03125 54.355469 C 37.746094 56.632812 51.515625 46.550781 53.792969 31.839844 C 56.070312 17.125 45.988281 3.355469 31.277344 1.078125 Z M 31.277344 1.078125 " clip-rule="nonzero"/></clipPath><clipPath id="e24c0646db"><rect x="0" width="55" y="0" height="55"/></clipPath><clipPath id="645b2c3720"><path d="M 4 27 L 110 27 L 110 370 L 4 370 Z M 4 27 " clip-rule="nonzero"/></clipPath><clipPath id="04f1d910d4"><path d="M 56.515625 27.59375 L 109.792969 35.839844 L 58.121094 369.746094 L 4.84375 361.5 Z M 56.515625 27.59375 " clip-rule="nonzero"/></clipPath><clipPath id="73af78ac2f"><path d="M 0.636719 0.402344 L 105.96875 0.402344 L 105.96875 342.796875 L 0.636719 342.796875 Z M 0.636719 0.402344 " clip-rule="nonzero"/></clipPath><clipPath id="5dde67faba"><path d="M 52.515625 0.59375 L 105.792969 8.839844 L 54.121094 342.746094 L 0.84375 334.5 Z M 52.515625 0.59375 " clip-rule="nonzero"/></clipPath><clipPath id="353fe7639c"><rect x="0" width="106" y="0" height="343"/></clipPath><clipPath id="ad82810da2"><path d="M 4 337 L 59 337 L 59 392 L 4 392 Z M 4 337 " clip-rule="nonzero"/></clipPath><clipPath id="cecde6c83f"><path d="M 9.183594 333.453125 L 62.460938 341.699219 L 54.21875 394.976562 L 0.9375 386.734375 Z M 9.183594 333.453125 " clip-rule="nonzero"/></clipPath><clipPath id="4f31d4638e"><path d="M 35.824219 337.578125 C 21.109375 335.300781 7.339844 345.382812 5.0625 360.09375 C 2.785156 374.808594 12.867188 388.578125 27.578125 390.855469 C 42.289062 393.132812 56.0625 383.050781 58.339844 368.339844 C 60.617188 353.625 50.535156 339.855469 35.824219 337.578125 Z M 35.824219 337.578125 " clip-rule="nonzero"/></clipPath><clipPath id="f2ce46defa"><path d="M 0 0 L 55 0 L 55 55 L 0 55 Z M 0 0 " clip-rule="nonzero"/></clipPath><clipPath id="6538cbfd6e"><path d="M 5.183594 -3.546875 L 58.460938 4.699219 L 50.21875 57.976562 L -3.0625 49.734375 Z M 5.183594 -3.546875 " clip-rule="nonzero"/></clipPath><clipPath id="db0b78d072"><path d="M 31.824219 0.578125 C 17.109375 -1.699219 3.339844 8.382812 1.0625 23.09375 C -1.214844 37.808594 8.867188 51.578125 23.578125 53.855469 C 38.289062 56.132812 52.0625 46.050781 54.339844 31.339844 C 56.617188 16.625 46.535156 2.855469 31.824219 0.578125 Z M 31.824219 0.578125 " clip-rule="nonzero"/></clipPath><clipPath id="0e12341644"><rect x="0" width="55" y="0" height="55"/></clipPath><clipPath id="de667b4f12"><rect x="0" width="120" y="0" height="400"/></clipPath><clipPath id="21cd34e608"><path d="M 8 8 L 68 8 L 68 64 L 8 64 Z M 8 8 " clip-rule="nonzero"/></clipPath><clipPath id="a26d1ba059"><path d="M 0.921875 19.207031 L 57.933594 0.9375 L 74.519531 52.691406 L 17.507812 70.960938 Z M 0.921875 19.207031 " clip-rule="nonzero"/></clipPath><clipPath id="155740fff4"><path d="M 29.335938 10.097656 C 13.644531 15.128906 4.636719 30.792969 9.214844 45.082031 C 13.792969 59.375 30.230469 66.882812 45.921875 61.855469 C 61.617188 56.824219 70.625 41.164062 66.046875 26.871094 C 61.464844 12.578125 45.03125 5.070312 29.335938 10.097656 Z M 29.335938 10.097656 " clip-rule="nonzero"/></clipPath><clipPath id="98de33fc6b"><path d="M 0 0 L 60 0 L 60 56 L 0 56 Z M 0 0 " clip-rule="nonzero"/></clipPath><clipPath id="676c82910c"><path d="M -7.078125 11.207031 L 49.933594 -7.0625 L 66.519531 44.691406 L 9.507812 62.960938 Z M -7.078125 11.207031 " clip-rule="nonzero"/></clipPath><clipPath id="b420d2b7fc"><path d="M 21.335938 2.097656 C 5.644531 7.128906 -3.363281 22.792969 1.214844 37.082031 C 5.792969 51.375 22.230469 58.882812 37.921875 53.855469 C 53.617188 48.824219 62.625 33.164062 58.046875 18.871094 C 53.464844 4.578125 37.03125 -2.929688 21.335938 2.097656 Z M 21.335938 2.097656 " clip-rule="nonzero"/></clipPath><clipPath id="5ba87660de"><rect x="0" width="60" y="0" height="56"/></clipPath><clipPath id="4d6fbbd074"><path d="M 9 26 L 170 26 L 170 370 L 9 370 Z M 9 26 " clip-rule="nonzero"/></clipPath><clipPath id="859ebac647"><path d="M 9.214844 45.082031 L 66.046875 26.871094 L 169.988281 351.226562 L 113.15625 369.4375 Z M 9.214844 45.082031 " clip-rule="nonzero"/></clipPath><clipPath id="5d434dee53"><path d="M 0.109375 0.792969 L 161 0.792969 L 161 343.667969 L 0.109375 343.667969 Z M 0.109375 0.792969 " clip-rule="nonzero"/></clipPath><clipPath id="aa783322c5"><path d="M 0.214844 19.082031 L 57.046875 0.871094 L 160.988281 325.226562 L 104.15625 343.4375 Z M 0.214844 19.082031 " clip-rule="nonzero"/></clipPath><clipPath id="06002b13a7"><rect x="0" width="161" y="0" height="344"/></clipPath><clipPath id="cc079d45b6"><path d="M 111 331 L 171 331 L 171 387 L 111 387 Z M 111 331 " clip-rule="nonzero"/></clipPath><clipPath id="ffeb155a43"><path d="M 104.425781 342.195312 L 161.4375 323.925781 L 178.023438 375.679688 L 121.011719 393.949219 Z M 104.425781 342.195312 " clip-rule="nonzero"/></clipPath><clipPath id="354a21ba2a"><path d="M 132.84375 333.089844 C 117.148438 338.117188 108.140625 353.78125 112.71875 368.074219 C 117.300781 382.363281 133.734375 389.875 149.429688 384.84375 C 165.121094 379.816406 174.128906 364.152344 169.550781 349.863281 C 164.972656 335.570312 148.535156 328.0625 132.84375 333.089844 Z M 132.84375 333.089844 " clip-rule="nonzero"/></clipPath><clipPath id="fc0ff8ba87"><path d="M 0 0 L 60 0 L 60 56 L 0 56 Z M 0 0 " clip-rule="nonzero"/></clipPath><clipPath id="ccedb0d618"><path d="M -6.574219 11.195312 L 50.4375 -7.074219 L 67.023438 44.679688 L 10.011719 62.949219 Z M -6.574219 11.195312 " clip-rule="nonzero"/></clipPath><clipPath id="9d131ffb4a"><path d="M 21.84375 2.089844 C 6.148438 7.117188 -2.859375 22.78125 1.71875 37.074219 C 6.300781 51.363281 22.734375 58.875 38.429688 53.84375 C 54.121094 48.816406 63.128906 33.152344 58.550781 18.863281 C 53.972656 4.570312 37.535156 -2.9375 21.84375 2.089844 Z M 21.84375 2.089844 " clip-rule="nonzero"/></clipPath><clipPath id="c9af5b9cbb"><rect x="0" width="60" y="0" height="56"/></clipPath><clipPath id="769a01de6b"><path d="M 7 9 L 62 9 L 62 64 L 7 64 Z M 7 9 " clip-rule="nonzero"/></clipPath><clipPath id="01ac910259"><path d="M 0.921875 19.207031 L 52.261719 2.753906 L 68.714844 54.09375 L 17.375 70.546875 Z M 0.921875 19.207031 " clip-rule="nonzero"/></clipPath><clipPath id="8f74fd29d9"><path d="M 26.59375 10.980469 C 12.414062 15.523438 4.605469 30.699219 9.148438 44.875 C 13.691406 59.054688 28.867188 66.863281 43.046875 62.320312 C 57.222656 57.777344 65.03125 42.601562 60.488281 28.421875 C 55.945312 14.246094 40.769531 6.4375 26.59375 10.980469 Z M 26.59375 10.980469 " clip-rule="nonzero"/></clipPath><clipPath id="2580f84429"><path d="M 0 0 L 55 0 L 55 55 L 0 55 Z M 0 0 " clip-rule="nonzero"/></clipPath><clipPath id="2a29434f34"><path d="M -6.078125 10.207031 L 45.261719 -6.246094 L 61.714844 45.09375 L 10.375 61.546875 Z M -6.078125 10.207031 " clip-rule="nonzero"/></clipPath><clipPath id="025fd12b0b"><path d="M 19.59375 1.980469 C 5.414062 6.523438 -2.394531 21.699219 2.148438 35.875 C 6.691406 50.054688 21.867188 57.863281 36.046875 53.320312 C 50.222656 48.777344 58.03125 33.601562 53.488281 19.421875 C 48.945312 5.246094 33.769531 -2.5625 19.59375 1.980469 Z M 19.59375 1.980469 " clip-rule="nonzero"/></clipPath><clipPath id="1876e2e0fe"><rect x="0" width="55" y="0" height="55"/></clipPath><clipPath id="bfce262c83"><path d="M 9 28 L 164 28 L 164 367 L 9 367 Z M 9 28 " clip-rule="nonzero"/></clipPath><clipPath id="7c3a7fb68b"><path d="M 9.148438 44.875 L 60.488281 28.421875 L 163.601562 350.183594 L 112.261719 366.636719 Z M 9.148438 44.875 " clip-rule="nonzero"/></clipPath><clipPath id="75ae6b9099"><path d="M 0.109375 0.234375 L 154.632812 0.234375 L 154.632812 338.789062 L 0.109375 338.789062 Z M 0.109375 0.234375 " clip-rule="nonzero"/></clipPath><clipPath id="76c3880906"><path d="M 0.148438 16.875 L 51.488281 0.421875 L 154.601562 322.183594 L 103.261719 338.636719 Z M 0.148438 16.875 " clip-rule="nonzero"/></clipPath><clipPath id="92d745e8ba"><rect x="0" width="155" y="0" height="339"/></clipPath><clipPath id="eefb4ba2cd"><path d="M 110 330 L 165 330 L 165 385 L 110 385 Z M 110 330 " clip-rule="nonzero"/></clipPath><clipPath id="7bd5b86283"><path d="M 103.601562 339.613281 L 154.941406 323.160156 L 171.394531 374.5 L 120.050781 390.953125 Z M 103.601562 339.613281 " clip-rule="nonzero"/></clipPath><clipPath id="bafece952c"><path d="M 129.269531 331.386719 C 115.09375 335.929688 107.28125 351.105469 111.828125 365.28125 C 116.371094 379.460938 131.546875 387.269531 145.722656 382.726562 C 159.902344 378.183594 167.710938 363.007812 163.167969 348.832031 C 158.625 334.652344 143.449219 326.84375 129.269531 331.386719 Z M 129.269531 331.386719 " clip-rule="nonzero"/></clipPath><clipPath id="ccad033726"><path d="M 0 0 L 55 0 L 55 55 L 0 55 Z M 0 0 " clip-rule="nonzero"/></clipPath><clipPath id="ae4e44ddad"><path d="M -6.398438 9.613281 L 44.941406 -6.839844 L 61.394531 44.5 L 10.050781 60.953125 Z M -6.398438 9.613281 " clip-rule="nonzero"/></clipPath><clipPath id="7e3c006e92"><path d="M 19.269531 1.386719 C 5.09375 5.929688 -2.71875 21.105469 1.828125 35.28125 C 6.371094 49.460938 21.546875 57.269531 35.722656 52.726562 C 49.902344 48.183594 57.710938 33.007812 53.167969 18.832031 C 48.625 4.652344 33.449219 -3.15625 19.269531 1.386719 Z M 19.269531 1.386719 " clip-rule="nonzero"/></clipPath><clipPath id="8631e8773d"><rect x="0" width="55" y="0" height="55"/></clipPath><clipPath id="79f29c5417"><rect x="0" width="179" y="0" height="395"/></clipPath><clipPath id="e5acad1aa1"><path d="M 51 4 L 112 4 L 112 60 L 51 60 Z M 51 4 " clip-rule="nonzero"/></clipPath><clipPath id="ea260e75af"><path d="M 55.835938 1.089844 L 115.121094 9.4375 L 107.542969 63.253906 L 48.257812 54.90625 Z M 55.835938 1.089844 " clip-rule="nonzero"/></clipPath><clipPath id="73406dc352"><path d="M 85.382812 5.25 C 69.066406 2.953125 54.140625 13.136719 52.046875 27.996094 C 49.953125 42.859375 61.488281 56.769531 77.804688 59.066406 C 94.125 61.363281 109.050781 51.179688 111.140625 36.320312 C 113.234375 21.457031 101.703125 7.546875 85.382812 5.25 Z M 85.382812 5.25 " clip-rule="nonzero"/></clipPath><clipPath id="589081ef89"><path d="M 0 0 L 61 0 L 61 56 L 0 56 Z M 0 0 " clip-rule="nonzero"/></clipPath><clipPath id="8a255ddd84"><path d="M 4.835938 -2.910156 L 64.121094 5.4375 L 56.542969 59.253906 L -2.742188 50.90625 Z M 4.835938 -2.910156 " clip-rule="nonzero"/></clipPath><clipPath id="748465b590"><path d="M 34.382812 1.25 C 18.066406 -1.046875 3.140625 9.136719 1.046875 23.996094 C -1.046875 38.859375 10.488281 52.769531 26.804688 55.066406 C 43.125 57.363281 58.050781 47.179688 60.140625 32.320312 C 62.234375 17.457031 50.703125 3.546875 34.382812 1.25 Z M 34.382812 1.25 " clip-rule="nonzero"/></clipPath><clipPath id="70d1526eab"><rect x="0" width="61" y="0" height="56"/></clipPath><clipPath id="d88eda5383"><path d="M 4 27 L 112 27 L 112 374 L 4 374 Z M 4 27 " clip-rule="nonzero"/></clipPath><clipPath id="0c27392464"><path d="M 52.046875 27.996094 L 111.140625 36.320312 L 63.648438 373.59375 L 4.554688 365.273438 Z M 52.046875 27.996094 " clip-rule="nonzero"/></clipPath><clipPath id="a2aa390d2a"><path d="M 0.386719 0.765625 L 107.160156 0.765625 L 107.160156 346.757812 L 0.386719 346.757812 Z M 0.386719 0.765625 " clip-rule="nonzero"/></clipPath><clipPath id="fd39793f19"><path d="M 48.046875 0.996094 L 107.140625 9.320312 L 59.648438 346.59375 L 0.554688 338.273438 Z M 48.046875 0.996094 " clip-rule="nonzero"/></clipPath><clipPath id="86b4813bf2"><rect x="0" width="108" y="0" height="347"/></clipPath><clipPath id="5f5638c50b"><path d="M 4 340 L 65 340 L 65 396 L 4 396 Z M 4 340 " clip-rule="nonzero"/></clipPath><clipPath id="6d5cbd3957"><path d="M 8.542969 336.945312 L 67.824219 345.292969 L 60.246094 399.109375 L 0.964844 390.761719 Z M 8.542969 336.945312 " clip-rule="nonzero"/></clipPath><clipPath id="72bbd3377e"><path d="M 38.089844 341.105469 C 21.769531 338.808594 6.847656 348.992188 4.753906 363.851562 C 2.660156 378.714844 14.191406 392.625 30.511719 394.921875 C 46.828125 397.21875 61.753906 387.035156 63.847656 372.175781 C 65.941406 357.3125 54.40625 343.402344 38.089844 341.105469 Z M 38.089844 341.105469 " clip-rule="nonzero"/></clipPath><clipPath id="8a2535d6fb"><path d="M 0 0 L 61 0 L 61 56 L 0 56 Z M 0 0 " clip-rule="nonzero"/></clipPath><clipPath id="35ac06156b"><path d="M 4.542969 -3.054688 L 63.824219 5.292969 L 56.246094 59.109375 L -3.035156 50.761719 Z M 4.542969 -3.054688 " clip-rule="nonzero"/></clipPath><clipPath id="00d83a90e4"><path d="M 34.089844 1.105469 C 17.769531 -1.191406 2.847656 8.992188 0.753906 23.851562 C -1.339844 38.714844 10.191406 52.625 26.511719 54.921875 C 42.828125 57.21875 57.753906 47.035156 59.847656 32.175781 C 61.941406 17.3125 50.40625 3.402344 34.089844 1.105469 Z M 34.089844 1.105469 " clip-rule="nonzero"/></clipPath><clipPath id="97020431fb"><rect x="0" width="61" y="0" height="56"/></clipPath><clipPath id="4026ae47d3"><path d="M 51 4 L 106 4 L 106 59 L 51 59 Z M 51 4 " clip-rule="nonzero"/></clipPath><clipPath id="c978ec6863"><path d="M 55.835938 1.089844 L 109.222656 8.605469 L 101.707031 61.992188 L 48.320312 54.476562 Z M 55.835938 1.089844 " clip-rule="nonzero"/></clipPath><clipPath id="ca17f74db0"><path d="M 82.53125 4.847656 C 67.789062 2.773438 54.152344 13.039062 52.078125 27.78125 C 50.003906 42.523438 60.269531 56.15625 75.011719 58.234375 C 89.753906 60.308594 103.386719 50.042969 105.464844 35.300781 C 107.539062 20.558594 97.273438 6.921875 82.53125 4.847656 Z M 82.53125 4.847656 " clip-rule="nonzero"/></clipPath><clipPath id="f037ffed20"><path d="M 0 0 L 55 0 L 55 55 L 0 55 Z M 0 0 " clip-rule="nonzero"/></clipPath><clipPath id="4cfe2c5cc7"><path d="M 4.835938 -2.910156 L 58.222656 4.605469 L 50.707031 57.992188 L -2.679688 50.476562 Z M 4.835938 -2.910156 " clip-rule="nonzero"/></clipPath><clipPath id="5f094836b6"><path d="M 31.53125 0.847656 C 16.789062 -1.226562 3.152344 9.039062 1.078125 23.78125 C -0.996094 38.523438 9.269531 52.15625 24.011719 54.234375 C 38.753906 56.308594 52.386719 46.042969 54.464844 31.300781 C 56.539062 16.558594 46.273438 2.921875 31.53125 0.847656 Z M 31.53125 0.847656 " clip-rule="nonzero"/></clipPath><clipPath id="7b14495b02"><rect x="0" width="55" y="0" height="55"/></clipPath><clipPath id="5fac4c9eed"><path d="M 4 27 L 106 27 L 106 370 L 4 370 Z M 4 27 " clip-rule="nonzero"/></clipPath><clipPath id="bac57c1020"><path d="M 52.078125 27.78125 L 105.464844 35.300781 L 58.351562 369.878906 L 4.964844 362.359375 Z M 52.078125 27.78125 " clip-rule="nonzero"/></clipPath><clipPath id="9a2290710b"><path d="M 0.867188 0.765625 L 101.640625 0.765625 L 101.640625 342.917969 L 0.867188 342.917969 Z M 0.867188 0.765625 " clip-rule="nonzero"/></clipPath><clipPath id="8d85318e6e"><path d="M 48.078125 0.78125 L 101.464844 8.300781 L 54.351562 342.878906 L 0.964844 335.359375 Z M 48.078125 0.78125 " clip-rule="nonzero"/></clipPath><clipPath id="a0b626d92e"><rect x="0" width="102" y="0" height="343"/></clipPath><clipPath id="ba8ddbb9e5"><path d="M 4 337 L 59 337 L 59 392 L 4 392 Z M 4 337 " clip-rule="nonzero"/></clipPath><clipPath id="fb8d1f8812"><path d="M 8.921875 334.257812 L 62.308594 341.777344 L 54.789062 395.164062 L 1.402344 387.644531 Z M 8.921875 334.257812 " clip-rule="nonzero"/></clipPath><clipPath id="ff5e89420a"><path d="M 35.613281 338.015625 C 20.871094 335.941406 7.238281 346.210938 5.164062 360.953125 C 3.085938 375.695312 13.355469 389.328125 28.097656 391.402344 C 42.839844 393.480469 56.472656 383.210938 58.546875 368.46875 C 60.625 353.726562 50.355469 340.09375 35.613281 338.015625 Z M 35.613281 338.015625 " clip-rule="nonzero"/></clipPath><clipPath id="e5b8a6a2a1"><path d="M 0 0 L 55 0 L 55 55 L 0 55 Z M 0 0 " clip-rule="nonzero"/></clipPath><clipPath id="79df77f883"><path d="M 4.921875 -2.742188 L 58.308594 4.777344 L 50.789062 58.164062 L -2.597656 50.644531 Z M 4.921875 -2.742188 " clip-rule="nonzero"/></clipPath><clipPath id="856044c1de"><path d="M 31.613281 1.015625 C 16.871094 -1.058594 3.238281 9.210938 1.164062 23.953125 C -0.914062 38.695312 9.355469 52.328125 24.097656 54.402344 C 38.839844 56.480469 52.472656 46.210938 54.546875 31.46875 C 56.625 16.726562 46.355469 3.09375 31.613281 1.015625 Z M 31.613281 1.015625 " clip-rule="nonzero"/></clipPath><clipPath id="ef356a13ab"><rect x="0" width="55" y="0" height="55"/></clipPath><clipPath id="dc3d6d502e"><rect x="0" width="116" y="0" height="400"/></clipPath><clipPath id="077baa31f5"><path d="M 16 1 L 76 1 L 76 57 L 16 57 Z M 16 1 " clip-rule="nonzero"/></clipPath><clipPath id="aa218119cf"><path d="M 17.546875 0.683594 L 77.359375 3.328125 L 74.957031 57.621094 L 15.148438 54.976562 Z M 17.546875 0.683594 " clip-rule="nonzero"/></clipPath><clipPath id="33e46a8e2d"><path d="M 47.359375 2 C 30.894531 1.273438 17.011719 12.835938 16.347656 27.832031 C 15.6875 42.824219 28.496094 55.566406 44.957031 56.296875 C 61.421875 57.023438 75.304688 45.460938 75.96875 30.464844 C 76.628906 15.472656 63.820312 2.730469 47.359375 2 Z M 47.359375 2 " clip-rule="nonzero"/></clipPath><clipPath id="9683b7b5f7"><path d="M 0 0.0585938 L 60 0.0585938 L 60 56 L 0 56 Z M 0 0.0585938 " clip-rule="nonzero"/></clipPath><clipPath id="b7f115a5b8"><path d="M 1.546875 -0.316406 L 61.359375 2.328125 L 58.957031 56.621094 L -0.851562 53.976562 Z M 1.546875 -0.316406 " clip-rule="nonzero"/></clipPath><clipPath id="85520fb469"><path d="M 31.359375 1 C 14.894531 0.273438 1.011719 11.835938 0.347656 26.832031 C -0.3125 41.824219 12.496094 54.566406 28.957031 55.296875 C 45.421875 56.023438 59.304688 44.460938 59.96875 29.464844 C 60.628906 14.472656 47.820312 1.730469 31.359375 1 Z M 31.359375 1 " clip-rule="nonzero"/></clipPath><clipPath id="ef9be8ad35"><rect x="0" width="60" y="0" height="56"/></clipPath><clipPath id="1792aa44a0"><path d="M 1 27 L 76 27 L 76 371 L 1 371 Z M 1 27 " clip-rule="nonzero"/></clipPath><clipPath id="8c9a8eca1f"><path d="M 16.347656 27.832031 L 75.96875 30.464844 L 60.925781 370.738281 L 1.308594 368.101562 Z M 16.347656 27.832031 " clip-rule="nonzero"/></clipPath><clipPath id="12b798c675"><path d="M 0.296875 0.691406 L 75 0.691406 L 75 343.804688 L 0.296875 343.804688 Z M 0.296875 0.691406 " clip-rule="nonzero"/></clipPath><clipPath id="db4aff14fa"><path d="M 15.347656 0.832031 L 74.96875 3.464844 L 59.925781 343.738281 L 0.308594 341.101562 Z M 15.347656 0.832031 " clip-rule="nonzero"/></clipPath><clipPath id="76cf845af6"><rect x="0" width="75" y="0" height="344"/></clipPath><clipPath id="64f22424ea"><path d="M 1 340 L 62 340 L 62 396 L 1 396 Z M 1 340 " clip-rule="nonzero"/></clipPath><clipPath id="13cb20be87"><path d="M 2.570312 339.523438 L 62.378906 342.164062 L 59.980469 396.460938 L 0.171875 393.816406 Z M 2.570312 339.523438 " clip-rule="nonzero"/></clipPath><clipPath id="2a5ee15cef"><path d="M 32.382812 340.839844 C 15.917969 340.113281 2.035156 351.675781 1.371094 366.667969 C 0.707031 381.664062 13.519531 394.40625 29.980469 395.132812 C 46.445312 395.863281 60.328125 384.296875 60.992188 369.304688 C 61.652344 354.3125 48.84375 341.566406 32.382812 340.839844 Z M 32.382812 340.839844 " clip-rule="nonzero"/></clipPath><clipPath id="9da9680826"><path d="M 0 0.09375 L 60.761719 0.09375 L 60.761719 56 L 0 56 Z M 0 0.09375 " clip-rule="nonzero"/></clipPath><clipPath id="78e5422ce5"><path d="M 1.570312 -0.476562 L 61.378906 2.164062 L 58.980469 56.460938 L -0.828125 53.816406 Z M 1.570312 -0.476562 " clip-rule="nonzero"/></clipPath><clipPath id="f6d98651cf"><path d="M 31.382812 0.839844 C 14.917969 0.113281 1.035156 11.675781 0.371094 26.667969 C -0.292969 41.664062 12.519531 54.40625 28.980469 55.132812 C 45.445312 55.863281 59.328125 44.296875 59.992188 29.304688 C 60.652344 14.3125 47.84375 1.566406 31.382812 0.839844 Z M 31.382812 0.839844 " clip-rule="nonzero"/></clipPath><clipPath id="d8447b05cb"><rect x="0" width="61" y="0" height="56"/></clipPath><clipPath id="f1264b4b59"><path d="M 16 1 L 71 1 L 71 56 L 16 56 Z M 16 1 " clip-rule="nonzero"/></clipPath><clipPath id="9b91cc7aba"><path d="M 17.546875 0.683594 L 71.410156 3.0625 L 69.027344 56.925781 L 15.167969 54.542969 Z M 17.546875 0.683594 " clip-rule="nonzero"/></clipPath><clipPath id="b25152c554"><path d="M 44.480469 1.875 C 29.605469 1.214844 17.015625 12.742188 16.359375 27.613281 C 15.699219 42.488281 27.226562 55.078125 42.097656 55.734375 C 56.972656 56.390625 69.5625 44.867188 70.21875 29.996094 C 70.875 15.121094 59.351562 2.53125 44.480469 1.875 Z M 44.480469 1.875 " clip-rule="nonzero"/></clipPath><clipPath id="572b8442eb"><path d="M 0 0.0585938 L 54.878906 0.0585938 L 54.878906 55 L 0 55 Z M 0 0.0585938 " clip-rule="nonzero"/></clipPath><clipPath id="3953ed1040"><path d="M 1.546875 -0.316406 L 55.410156 2.0625 L 53.027344 55.925781 L -0.832031 53.542969 Z M 1.546875 -0.316406 " clip-rule="nonzero"/></clipPath><clipPath id="870d81a446"><path d="M 28.480469 0.875 C 13.605469 0.214844 1.015625 11.742188 0.359375 26.613281 C -0.300781 41.488281 11.226562 54.078125 26.097656 54.734375 C 40.972656 55.390625 53.5625 43.867188 54.21875 28.996094 C 54.875 14.121094 43.351562 1.53125 28.480469 0.875 Z M 28.480469 0.875 " clip-rule="nonzero"/></clipPath><clipPath id="dab19e00d2"><rect x="0" width="55" y="0" height="55"/></clipPath><clipPath id="b29575f074"><path d="M 1 27 L 71 27 L 71 368 L 1 368 Z M 1 27 " clip-rule="nonzero"/></clipPath><clipPath id="ec66e21fe9"><path d="M 16.359375 27.613281 L 70.21875 29.996094 L 55.296875 367.542969 L 1.4375 365.164062 Z M 16.359375 27.613281 " clip-rule="nonzero"/></clipPath><clipPath id="d51bc84a41"><path d="M 0.296875 0.453125 L 69.398438 0.453125 L 69.398438 340.6875 L 0.296875 340.6875 Z M 0.296875 0.453125 " clip-rule="nonzero"/></clipPath><clipPath id="e941fe93d7"><path d="M 15.359375 0.613281 L 69.21875 2.996094 L 54.296875 340.542969 L 0.4375 338.164062 Z M 15.359375 0.613281 " clip-rule="nonzero"/></clipPath><clipPath id="5f86ee6767"><rect x="0" width="70" y="0" height="341"/></clipPath><clipPath id="37f661b8f4"><path d="M 1 337 L 56 337 L 56 392 L 1 392 Z M 1 337 " clip-rule="nonzero"/></clipPath><clipPath id="a842cc2226"><path d="M 2.691406 336.8125 L 56.550781 339.191406 L 54.171875 393.054688 L 0.3125 390.671875 Z M 2.691406 336.8125 " clip-rule="nonzero"/></clipPath><clipPath id="a81c3f2897"><path d="M 29.621094 338.003906 C 14.75 337.34375 2.160156 348.871094 1.5 363.742188 C 0.84375 378.617188 12.367188 391.207031 27.242188 391.863281 C 42.113281 392.519531 54.703125 380.996094 55.363281 366.125 C 56.019531 351.25 44.496094 338.660156 29.621094 338.003906 Z M 29.621094 338.003906 " clip-rule="nonzero"/></clipPath><clipPath id="d63388a093"><path d="M 0 0.214844 L 55 0.214844 L 55 55 L 0 55 Z M 0 0.214844 " clip-rule="nonzero"/></clipPath><clipPath id="9192910c7e"><path d="M 1.691406 -0.1875 L 55.550781 2.191406 L 53.171875 56.054688 L -0.6875 53.671875 Z M 1.691406 -0.1875 " clip-rule="nonzero"/></clipPath><clipPath id="e95c9aee59"><path d="M 28.621094 1.003906 C 13.75 0.34375 1.160156 11.871094 0.5 26.742188 C -0.15625 41.617188 11.367188 54.207031 26.242188 54.863281 C 41.113281 55.519531 53.703125 43.996094 54.363281 29.125 C 55.019531 14.25 43.496094 1.660156 28.621094 1.003906 Z M 28.621094 1.003906 " clip-rule="nonzero"/></clipPath><clipPath id="da67003aa7"><rect x="0" width="55" y="0" height="55"/></clipPath><clipPath id="d1509f8c43"><rect x="0" width="78" y="0" height="397"/></clipPath></defs><g transform="matrix(1, 0, 0, 1, 160, 1)"><g clip-path="url(#ea2e61948f)"><g clip-path="url(#76fed43781)"><g clip-path="url(#60f5182dc0)"><g clip-path="url(#fb49f81c7b)"><g transform="matrix(1, 0, 0, 1, 8, 8)"><g clip-path="url(#fbdc53f217)"><g clip-path="url(#381f3a733e)"><g clip-path="url(#c96e0f5bbc)"><g clip-path="url(#593456d550)"><path fill="#b18743" d="M -7.066406 12.519531 L 49.199219 -7.292969 L 67.25 43.96875 L 10.984375 63.78125 Z M -7.066406 12.519531 " fill-opacity="1" fill-rule="nonzero"/></g></g></g></g></g></g></g></g><g clip-path="url(#e557640742)"><g clip-path="url(#be8fdc1e92)"><g transform="matrix(1, 0, 0, 1, 9, 26)"><g clip-path="url(#5b9557a8b3)"><g clip-path="url(#6ef97ddb9c)"><g clip-path="url(#330ee8a422)"><path fill="#b18743" d="M 0.957031 20.152344 L 57.246094 0.332031 L 170.363281 321.578125 L 114.074219 341.398438 Z M 0.957031 20.152344 " fill-opacity="1" fill-rule="nonzero"/></g></g></g></g></g></g><g clip-path="url(#63fdfbdec3)"><g clip-path="url(#c48917c4a0)"><g clip-path="url(#1424eafa95)"><g transform="matrix(1, 0, 0, 1, 121, 328)"><g clip-path="url(#75d4808781)"><g clip-path="url(#7bb7f55bf6)"><g clip-path="url(#f0da3f54d0)"><g clip-path="url(#23641cd71d)"><path fill="#b18743" d="M -7.417969 12.4375 L 48.847656 -7.375 L 66.898438 43.886719 L 10.632812 63.699219 Z M -7.417969 12.4375 " fill-opacity="1" fill-rule="nonzero"/></g></g></g></g></g></g></g></g><g clip-path="url(#ec093bcbdf)"><g clip-path="url(#b0fd10c84f)"><g clip-path="url(#54181d2b82)"><g transform="matrix(1, 0, 0, 1, 8, 10)"><g clip-path="url(#37d9beaef2)"><g clip-path="url(#c0475d8cf9)"><g clip-path="url(#c0b99d79e4)"><g clip-path="url(#40622481c8)"><path fill="#cbb258" d="M -7.066406 10.519531 L 43.785156 -7.386719 L 61.691406 43.46875 L 10.839844 61.371094 Z M -7.066406 10.519531 " fill-opacity="1" fill-rule="nonzero"/></g></g></g></g></g></g></g></g><g clip-path="url(#71a04e8878)"><g clip-path="url(#df6d05add1)"><g transform="matrix(1, 0, 0, 1, 9, 28)"><g clip-path="url(#d43463a0eb)"><g clip-path="url(#cd44790696)"><g clip-path="url(#bc9e5fd330)"><path fill="#cbb258" d="M 0.886719 17.945312 L 51.738281 0.0390625 L 163.929688 318.664062 L 113.078125 336.570312 Z M 0.886719 17.945312 " fill-opacity="1" fill-rule="nonzero"/></g></g></g></g></g></g><g clip-path="url(#5ef23fae34)"><g clip-path="url(#2702b168c7)"><g clip-path="url(#e71180cf2d)"><g transform="matrix(1, 0, 0, 1, 120, 327)"><g clip-path="url(#f3e318abbc)"><g clip-path="url(#e372fa4b91)"><g clip-path="url(#642016f8e4)"><g clip-path="url(#8a65b24799)"><path fill="#cbb258" d="M -7.320312 10.878906 L 43.53125 -7.027344 L 61.4375 43.824219 L 10.585938 61.730469 Z M -7.320312 10.878906 " fill-opacity="1" fill-rule="nonzero"/></g></g></g></g></g></g></g></g></g></g><g transform="matrix(1, 0, 0, 1, 326, 36)"><g clip-path="url(#de667b4f12)"><g clip-path="url(#3f77c2f6d2)"><g clip-path="url(#879147a61f)"><g clip-path="url(#a8d797b5d5)"><g transform="matrix(1, 0, 0, 1, 56, 5)"><g clip-path="url(#ad2760d846)"><g clip-path="url(#9f5cc03f41)"><g clip-path="url(#9fb0d2baed)"><g clip-path="url(#cd8c001ba0)"><path fill="#b18743" d="M 4.636719 -4.042969 L 63.589844 5.078125 L 55.277344 58.785156 L -3.675781 49.664062 Z M 4.636719 -4.042969 " fill-opacity="1" fill-rule="nonzero"/></g></g></g></g></g></g></g></g><g clip-path="url(#59daf4f52f)"><g clip-path="url(#676b89e3c8)"><g transform="matrix(1, 0, 0, 1, 4, 27)"><g clip-path="url(#9916edeebc)"><g clip-path="url(#20a1bf6bc5)"><g clip-path="url(#93f288ae6a)"><path fill="#b18743" d="M 52.480469 0.808594 L 111.457031 9.9375 L 59.371094 346.507812 L 0.398438 337.382812 Z M 52.480469 0.808594 " fill-opacity="1" fill-rule="nonzero"/></g></g></g></g></g></g><g clip-path="url(#23768ef843)"><g clip-path="url(#609e411f46)"><g clip-path="url(#8806eedf95)"><g transform="matrix(1, 0, 0, 1, 4, 340)"><g clip-path="url(#0a9214da40)"><g clip-path="url(#4cdf06810d)"><g clip-path="url(#c3a2cdc14a)"><g clip-path="url(#c1b9ee4d56)"><path fill="#b18743" d="M 4.769531 -3.863281 L 63.722656 5.257812 L 55.410156 58.964844 L -3.542969 49.84375 Z M 4.769531 -3.863281 " fill-opacity="1" fill-rule="nonzero"/></g></g></g></g></g></g></g></g><g clip-path="url(#a27e82f326)"><g clip-path="url(#b839236c14)"><g clip-path="url(#376fa8f7d1)"><g transform="matrix(1, 0, 0, 1, 56, 4)"><g clip-path="url(#e24c0646db)"><g clip-path="url(#09d5df5845)"><g clip-path="url(#e5e2233d85)"><g clip-path="url(#3fb0a685fd)"><path fill="#ffebd2" d="M 4.636719 -3.042969 L 57.914062 5.199219 L 49.671875 58.480469 L -3.609375 50.234375 Z M 4.636719 -3.042969 " fill-opacity="1" fill-rule="nonzero"/></g></g></g></g></g></g></g></g><g clip-path="url(#645b2c3720)"><g clip-path="url(#04f1d910d4)"><g transform="matrix(1, 0, 0, 1, 4, 27)"><g clip-path="url(#353fe7639c)"><g clip-path="url(#73af78ac2f)"><g clip-path="url(#5dde67faba)"><path fill="#ffebd2" d="M 52.515625 0.59375 L 105.792969 8.839844 L 54.136719 342.664062 L 0.855469 334.421875 Z M 52.515625 0.59375 " fill-opacity="1" fill-rule="nonzero"/></g></g></g></g></g></g><g clip-path="url(#ad82810da2)"><g clip-path="url(#cecde6c83f)"><g clip-path="url(#4f31d4638e)"><g transform="matrix(1, 0, 0, 1, 4, 337)"><g clip-path="url(#0e12341644)"><g clip-path="url(#f2ce46defa)"><g clip-path="url(#6538cbfd6e)"><g clip-path="url(#db0b78d072)"><path fill="#ffebd2" d="M 5.183594 -3.546875 L 58.460938 4.699219 L 50.21875 57.976562 L -3.0625 49.734375 Z M 5.183594 -3.546875 " fill-opacity="1" fill-rule="nonzero"/></g></g></g></g></g></g></g></g></g></g><g transform="matrix(1, 0, 0, 1, 30, 81)"><g clip-path="url(#79f29c5417)"><g clip-path="url(#21cd34e608)"><g clip-path="url(#a26d1ba059)"><g clip-path="url(#155740fff4)"><g transform="matrix(1, 0, 0, 1, 8, 8)"><g clip-path="url(#5ba87660de)"><g clip-path="url(#98de33fc6b)"><g clip-path="url(#676c82910c)"><g clip-path="url(#b420d2b7fc)"><path fill="#b18743" d="M -7.078125 11.207031 L 49.730469 -7 L 66.316406 44.753906 L 9.507812 62.960938 Z M -7.078125 11.207031 " fill-opacity="1" fill-rule="nonzero"/></g></g></g></g></g></g></g></g><g clip-path="url(#4d6fbbd074)"><g clip-path="url(#859ebac647)"><g transform="matrix(1, 0, 0, 1, 9, 26)"><g clip-path="url(#06002b13a7)"><g clip-path="url(#5d434dee53)"><g clip-path="url(#aa783322c5)"><path fill="#b18743" d="M 0.214844 19.082031 L 57.046875 0.871094 L 160.980469 325.203125 L 104.152344 343.414062 Z M 0.214844 19.082031 " fill-opacity="1" fill-rule="nonzero"/></g></g></g></g></g></g><g clip-path="url(#cc079d45b6)"><g clip-path="url(#ffeb155a43)"><g clip-path="url(#354a21ba2a)"><g transform="matrix(1, 0, 0, 1, 111, 331)"><g clip-path="url(#c9af5b9cbb)"><g clip-path="url(#fc0ff8ba87)"><g clip-path="url(#ccedb0d618)"><g clip-path="url(#9d131ffb4a)"><path fill="#b18743" d="M -6.574219 11.195312 L 50.238281 -7.007812 L 66.824219 44.746094 L 10.011719 62.949219 Z M -6.574219 11.195312 " fill-opacity="1" fill-rule="nonzero"/></g></g></g></g></g></g></g></g><g clip-path="url(#769a01de6b)"><g clip-path="url(#01ac910259)"><g clip-path="url(#8f74fd29d9)"><g transform="matrix(1, 0, 0, 1, 7, 9)"><g clip-path="url(#1876e2e0fe)"><g clip-path="url(#2580f84429)"><g clip-path="url(#2a29434f34)"><g clip-path="url(#025fd12b0b)"><path fill="#cbb258" d="M -6.078125 10.207031 L 45.261719 -6.246094 L 61.714844 45.09375 L 10.375 61.546875 Z M -6.078125 10.207031 " fill-opacity="1" fill-rule="nonzero"/></g></g></g></g></g></g></g></g><g clip-path="url(#bfce262c83)"><g clip-path="url(#7c3a7fb68b)"><g transform="matrix(1, 0, 0, 1, 9, 28)"><g clip-path="url(#92d745e8ba)"><g clip-path="url(#75ae6b9099)"><g clip-path="url(#76c3880906)"><path fill="#cbb258" d="M 0.148438 16.875 L 51.488281 0.421875 L 154.578125 322.109375 L 103.234375 338.5625 Z M 0.148438 16.875 " fill-opacity="1" fill-rule="nonzero"/></g></g></g></g></g></g><g clip-path="url(#eefb4ba2cd)"><g clip-path="url(#7bd5b86283)"><g clip-path="url(#bafece952c)"><g transform="matrix(1, 0, 0, 1, 110, 330)"><g clip-path="url(#8631e8773d)"><g clip-path="url(#ccad033726)"><g clip-path="url(#ae4e44ddad)"><g clip-path="url(#7e3c006e92)"><path fill="#cbb258" d="M -6.398438 9.613281 L 44.941406 -6.839844 L 61.394531 44.5 L 10.050781 60.953125 Z M -6.398438 9.613281 " fill-opacity="1" fill-rule="nonzero"/></g></g></g></g></g></g></g></g></g></g><g transform="matrix(1, 0, 0, 1, 46, 33)"><g clip-path="url(#dc3d6d502e)"><g clip-path="url(#e5acad1aa1)"><g clip-path="url(#ea260e75af)"><g clip-path="url(#73406dc352)"><g transform="matrix(1, 0, 0, 1, 51, 4)"><g clip-path="url(#70d1526eab)"><g clip-path="url(#589081ef89)"><g clip-path="url(#8a255ddd84)"><g clip-path="url(#748465b590)"><path fill="#b18743" d="M 4.835938 -2.910156 L 63.910156 5.40625 L 56.332031 59.222656 L -2.742188 50.90625 Z M 4.835938 -2.910156 " fill-opacity="1" fill-rule="nonzero"/></g></g></g></g></g></g></g></g><g clip-path="url(#d88eda5383)"><g clip-path="url(#0c27392464)"><g transform="matrix(1, 0, 0, 1, 4, 27)"><g clip-path="url(#86b4813bf2)"><g clip-path="url(#a2aa390d2a)"><g clip-path="url(#fd39793f19)"><path fill="#b18743" d="M 48.046875 0.996094 L 107.140625 9.320312 L 59.652344 346.570312 L 0.558594 338.25 Z M 48.046875 0.996094 " fill-opacity="1" fill-rule="nonzero"/></g></g></g></g></g></g><g clip-path="url(#5f5638c50b)"><g clip-path="url(#6d5cbd3957)"><g clip-path="url(#72bbd3377e)"><g transform="matrix(1, 0, 0, 1, 4, 340)"><g clip-path="url(#97020431fb)"><g clip-path="url(#8a2535d6fb)"><g clip-path="url(#35ac06156b)"><g clip-path="url(#00d83a90e4)"><path fill="#b18743" d="M 4.542969 -3.054688 L 63.613281 5.261719 L 56.035156 59.078125 L -3.035156 50.761719 Z M 4.542969 -3.054688 " fill-opacity="1" fill-rule="nonzero"/></g></g></g></g></g></g></g></g><g clip-path="url(#4026ae47d3)"><g clip-path="url(#c978ec6863)"><g clip-path="url(#ca17f74db0)"><g transform="matrix(1, 0, 0, 1, 51, 4)"><g clip-path="url(#7b14495b02)"><g clip-path="url(#f037ffed20)"><g clip-path="url(#4cfe2c5cc7)"><g clip-path="url(#5f094836b6)"><path fill="#ffebd2" d="M 4.835938 -2.910156 L 58.222656 4.605469 L 50.707031 57.992188 L -2.679688 50.476562 Z M 4.835938 -2.910156 " fill-opacity="1" fill-rule="nonzero"/></g></g></g></g></g></g></g></g><g clip-path="url(#5fac4c9eed)"><g clip-path="url(#bac57c1020)"><g transform="matrix(1, 0, 0, 1, 4, 27)"><g clip-path="url(#a0b626d92e)"><g clip-path="url(#9a2290710b)"><g clip-path="url(#8d85318e6e)"><path fill="#ffebd2" d="M 48.078125 0.78125 L 101.464844 8.300781 L 54.363281 342.796875 L 0.976562 335.28125 Z M 48.078125 0.78125 " fill-opacity="1" fill-rule="nonzero"/></g></g></g></g></g></g><g clip-path="url(#ba8ddbb9e5)"><g clip-path="url(#fb8d1f8812)"><g clip-path="url(#ff5e89420a)"><g transform="matrix(1, 0, 0, 1, 4, 337)"><g clip-path="url(#ef356a13ab)"><g clip-path="url(#e5b8a6a2a1)"><g clip-path="url(#79df77f883)"><g clip-path="url(#856044c1de)"><path fill="#ffebd2" d="M 4.921875 -2.742188 L 58.308594 4.777344 L 50.789062 58.164062 L -2.597656 50.644531 Z M 4.921875 -2.742188 " fill-opacity="1" fill-rule="nonzero"/></g></g></g></g></g></g></g></g></g></g><g transform="matrix(1, 0, 0, 1, 248, 5)"><g clip-path="url(#d1509f8c43)"><g clip-path="url(#077baa31f5)"><g clip-path="url(#aa218119cf)"><g clip-path="url(#33e46a8e2d)"><g transform="matrix(1, 0, 0, 1, 16, 1)"><g clip-path="url(#ef9be8ad35)"><g clip-path="url(#9683b7b5f7)"><g clip-path="url(#b7f115a5b8)"><g clip-path="url(#85520fb469)"><path fill="#b18743" d="M 1.546875 -0.316406 L 61.144531 2.316406 L 58.746094 56.613281 L -0.851562 53.976562 Z M 1.546875 -0.316406 " fill-opacity="1" fill-rule="nonzero"/></g></g></g></g></g></g></g></g><g clip-path="url(#1792aa44a0)"><g clip-path="url(#8c9a8eca1f)"><g transform="matrix(1, 0, 0, 1, 1, 27)"><g clip-path="url(#76cf845af6)"><g clip-path="url(#12b798c675)"><g clip-path="url(#db4aff14fa)"><path fill="#b18743" d="M 15.347656 0.832031 L 74.96875 3.464844 L 59.929688 343.710938 L 0.308594 341.078125 Z M 15.347656 0.832031 " fill-opacity="1" fill-rule="nonzero"/></g></g></g></g></g></g><g clip-path="url(#64f22424ea)"><g clip-path="url(#13cb20be87)"><g clip-path="url(#2a5ee15cef)"><g transform="matrix(1, 0, 0, 1, 1, 340)"><g clip-path="url(#d8447b05cb)"><g clip-path="url(#9da9680826)"><g clip-path="url(#78e5422ce5)"><g clip-path="url(#f6d98651cf)"><path fill="#b18743" d="M 1.570312 -0.476562 L 61.167969 2.15625 L 58.769531 56.453125 L -0.828125 53.816406 Z M 1.570312 -0.476562 " fill-opacity="1" fill-rule="nonzero"/></g></g></g></g></g></g></g></g><g clip-path="url(#f1264b4b59)"><g clip-path="url(#9b91cc7aba)"><g clip-path="url(#b25152c554)"><g transform="matrix(1, 0, 0, 1, 16, 1)"><g clip-path="url(#dab19e00d2)"><g clip-path="url(#572b8442eb)"><g clip-path="url(#3953ed1040)"><g clip-path="url(#870d81a446)"><path fill="#ffebd2" d="M 1.546875 -0.316406 L 55.410156 2.0625 L 53.027344 55.925781 L -0.832031 53.542969 Z M 1.546875 -0.316406 " fill-opacity="1" fill-rule="nonzero"/></g></g></g></g></g></g></g></g><g clip-path="url(#b29575f074)"><g clip-path="url(#ec66e21fe9)"><g transform="matrix(1, 0, 0, 1, 1, 27)"><g clip-path="url(#5f86ee6767)"><g clip-path="url(#d51bc84a41)"><g clip-path="url(#e941fe93d7)"><path fill="#ffebd2" d="M 15.359375 0.613281 L 69.21875 2.996094 L 54.300781 340.464844 L 0.441406 338.082031 Z M 15.359375 0.613281 " fill-opacity="1" fill-rule="nonzero"/></g></g></g></g></g></g><g clip-path="url(#37f661b8f4)"><g clip-path="url(#a842cc2226)"><g clip-path="url(#a81c3f2897)"><g transform="matrix(1, 0, 0, 1, 1, 337)"><g clip-path="url(#da67003aa7)"><g clip-path="url(#d63388a093)"><g clip-path="url(#9192910c7e)"><g clip-path="url(#e95c9aee59)"><path fill="#ffebd2" d="M 1.691406 -0.1875 L 55.550781 2.191406 L 53.171875 56.054688 L -0.6875 53.671875 Z M 1.691406 -0.1875 " fill-opacity="1" fill-rule="nonzero"/></g></g></g></g></g></g></g></g></g></g></svg>