<svg xmlns="http://www.w3.org/2000/svg" xmlns:xlink="http://www.w3.org/1999/xlink" width="636" zoomAndPan="magnify" viewBox="0 0 476.87997 476.999988" height="636" preserveAspectRatio="xMidYMid meet" version="1.0"><defs><clipPath id="151a6ed94f"><path d="M 161 13.726562 L 389 13.726562 L 389 458.367188 L 161 458.367188 Z M 161 13.726562 " clip-rule="nonzero"/></clipPath><clipPath id="11bb709918"><path d="M 19.890625 77 L 428 77 L 428 318 L 19.890625 318 Z M 19.890625 77 " clip-rule="nonzero"/></clipPath></defs><path fill="#43b187" d="M 224.757812 406.527344 C 208.894531 406.390625 193.714844 403.25 179.875 395.46875 C 163.957031 386.519531 148.09375 377.410156 132.765625 367.507812 C 119.855469 359.167969 106.269531 352.34375 92.375 345.972656 C 85.929688 343.015625 79.523438 339.957031 73.253906 336.652344 C 53.9375 326.472656 46.519531 309.75 46.8125 288.628906 C 47.007812 274.394531 52.59375 262.835938 62.621094 252.996094 C 69.875 245.875 77.777344 239.835938 86.683594 234.824219 C 117.445312 217.503906 146.21875 197.230469 172.457031 173.628906 C 192.277344 155.796875 215.230469 143.230469 239.375 133.125 C 266.289062 121.855469 294.109375 112.820312 323.273438 108.835938 C 349.640625 105.230469 375.535156 106.34375 400.636719 116.082031 C 409.15625 119.386719 416.574219 124.253906 422.964844 130.871094 C 431.871094 140.101562 436.847656 150.789062 437.460938 163.742188 C 438.378906 183.167969 441.875 202.207031 447.488281 220.832031 C 454.558594 244.296875 455.632812 268.015625 450.921875 292.050781 C 448.367188 305.078125 443.699219 317.144531 435.792969 327.933594 C 423.90625 344.140625 410.4375 358.679688 393.136719 369.257812 C 390.371094 370.949219 387.460938 372.625 384.386719 373.566406 C 364.523438 379.664062 344.433594 384.605469 323.480469 385.140625 C 310.242188 385.476562 297.578125 388.828125 285.285156 393.542969 C 269.921875 399.433594 254.066406 403.351562 237.8125 405.667969 C 233.507812 406.28125 229.109375 406.257812 224.757812 406.527344 Z M 438.519531 263.558594 C 438.898438 250.203125 435.882812 237.417969 432.300781 224.832031 C 426.453125 204.273438 422.835938 183.375 421.523438 162.078125 C 421.15625 156.117188 419.113281 151.011719 415.628906 146.253906 C 408.503906 136.519531 398.605469 131.1875 387.347656 127.878906 C 365.152344 121.359375 342.71875 121.4375 320.078125 125.113281 C 294.058594 129.339844 269.199219 137.671875 245.03125 147.667969 C 225.671875 155.675781 206.464844 164.855469 190.617188 178.949219 C 166.453125 200.429688 139.859375 218.492188 113.054688 236.324219 C 106.023438 241 99.003906 245.75 91.648438 249.875 C 82.910156 254.777344 75.582031 261.234375 69.40625 268.914062 C 56.421875 285.074219 61.078125 311.289062 78.835938 321.792969 C 85.621094 325.808594 92.832031 329.164062 100.058594 332.355469 C 116.578125 339.648438 132.140625 348.460938 147.1875 358.515625 C 160.527344 367.429688 174.800781 375.003906 188.976562 382.582031 C 202.855469 390 218.019531 391.707031 233.511719 390.246094 C 249.351562 388.753906 264.597656 384.621094 279.472656 379.039062 C 294.902344 373.25 310.71875 369.972656 327.34375 369.4375 C 339.253906 369.050781 351.078125 366.28125 362.957031 364.703125 C 373.867188 363.253906 382.863281 357.894531 391.578125 351.589844 C 403.449219 342.996094 412.882812 332.160156 421.769531 320.671875 C 429.308594 310.921875 433.855469 299.960938 435.75 287.921875 C 437.015625 279.855469 437.617188 271.683594 438.519531 263.558594 Z M 438.519531 263.558594 " fill-opacity="1" fill-rule="evenodd"/><g clip-path="url(#151a6ed94f)"><path fill="#ffaa08" d="M 386.113281 331.519531 C 386.996094 342.394531 388.042969 353.261719 388.734375 364.152344 C 390.707031 395.160156 380.605469 421.503906 357.988281 442.964844 C 346.675781 453.699219 333.078125 458.65625 317.71875 458.011719 C 309.875 457.683594 301.980469 456.242188 294.316406 454.429688 C 276.84375 450.300781 263.066406 440.164062 252.652344 425.855469 C 246.914062 417.972656 241.835938 409.417969 237.738281 400.574219 C 227.417969 378.3125 218.140625 355.566406 207.835938 333.292969 C 198.832031 313.828125 195.167969 293.640625 194.847656 272.222656 C 194.589844 254.847656 191.78125 237.5 189.753906 220.175781 C 187.035156 196.910156 179.371094 175.101562 169.707031 153.878906 C 160.003906 132.5625 159.820312 110.550781 165.929688 88.273438 C 171.660156 67.375 181.777344 48.84375 196.460938 32.894531 C 204.9375 23.683594 214.707031 16.492188 227.484375 14.355469 C 242.785156 11.796875 257.992188 19.105469 265.472656 32.691406 C 269.78125 40.515625 271.523438 49.050781 272.113281 57.816406 C 272.757812 67.347656 273.105469 76.898438 273.441406 86.445312 C 273.921875 100.011719 277.390625 112.765625 282.984375 125.109375 C 294.046875 149.535156 307.679688 172.507812 321.648438 195.328125 C 333.921875 215.386719 347.566406 234.382812 362.265625 252.753906 C 379.582031 274.402344 387.585938 299.550781 386.597656 327.398438 C 386.550781 328.761719 386.59375 330.128906 386.59375 331.492188 C 386.433594 331.5 386.273438 331.507812 386.113281 331.519531 Z M 370.515625 331.890625 C 372.109375 303.136719 365.152344 281.28125 350.132812 262.53125 C 335.078125 243.738281 321.046875 224.34375 308.550781 203.769531 C 295.519531 182.304688 282.789062 160.714844 271.742188 138.105469 C 262.066406 118.296875 257.085938 97.75 257.34375 75.734375 C 257.4375 67.851562 256.816406 59.875 255.621094 52.082031 C 252.238281 30.019531 233.566406 22.683594 215.847656 36.179688 C 215.414062 36.511719 214.972656 36.835938 214.570312 37.207031 C 192.089844 57.957031 179.617188 83.578125 177.578125 114.113281 C 176.5625 129.269531 181.46875 143.09375 187.800781 156.605469 C 194.773438 171.488281 199.828125 187.109375 202.871094 203.230469 C 207.234375 226.328125 209.234375 249.742188 209.894531 273.222656 C 210.433594 292.328125 214.445312 310.398438 222.464844 327.800781 C 232.625 349.84375 241.945312 372.269531 251.964844 394.378906 C 254.988281 401.042969 258.75 407.464844 262.839844 413.546875 C 276.921875 434.460938 297.417969 442.695312 321.910156 442.355469 C 330.652344 442.238281 338.621094 439.277344 345.164062 433.476562 C 366.230469 414.8125 375.425781 391.335938 373.042969 363.289062 C 372.027344 351.335938 371.113281 339.371094 370.515625 331.890625 Z M 370.515625 331.890625 " fill-opacity="1" fill-rule="evenodd"/></g><g clip-path="url(#11bb709918)"><path fill="#b258cb" d="M 329.136719 309.238281 C 310.113281 310.742188 291.019531 311.671875 272.078125 313.882812 C 246.542969 316.859375 221.011719 318.601562 195.3125 317.757812 C 165.449219 316.773438 136.992188 310.183594 110.070312 297.039062 C 101.992188 293.09375 93.433594 290.109375 85.4375 286.015625 C 74.292969 280.3125 63.210938 274.402344 52.578125 267.816406 C 35.820312 257.433594 27.394531 240.894531 22.074219 222.746094 C 17.449219 206.984375 20.339844 191.945312 28.957031 178.003906 C 36.226562 166.238281 45.414062 155.910156 56.507812 147.992188 C 89.871094 124.179688 124.183594 101.789062 163.832031 89.527344 C 190.035156 81.425781 217.015625 76.460938 244.433594 77.316406 C 291.0625 78.773438 332.453125 93.894531 366.386719 127.28125 C 385.242188 145.828125 400.613281 166.707031 413.859375 189.53125 C 430.667969 218.496094 430.199219 248.175781 419.980469 278.738281 C 415.304688 292.71875 405.617188 302.050781 391.707031 306.0625 C 382.628906 308.683594 373.03125 310.035156 363.578125 310.671875 C 352.171875 311.441406 340.671875 310.855469 329.214844 310.855469 C 329.191406 310.3125 329.164062 309.777344 329.136719 309.238281 Z M 334.488281 295.253906 C 338.851562 295.253906 343.230469 295.460938 347.578125 295.214844 C 358.992188 294.5625 370.5 294.410156 381.765625 292.730469 C 391.847656 291.226562 400.640625 286.132812 404.289062 275.859375 C 413.25 250.605469 415.792969 225.480469 402.023438 200.707031 C 390.570312 180.105469 377.300781 161.082031 360.976562 143.859375 C 330.167969 111.359375 292.296875 95.3125 248.265625 93.199219 C 219.65625 91.824219 191.699219 96.902344 164.535156 105.746094 C 134.96875 115.367188 108.503906 131.285156 82.46875 147.851562 C 69.082031 156.371094 57.207031 166.816406 46.554688 178.675781 C 34.675781 191.90625 33.339844 207.121094 38.519531 223.058594 C 43.261719 237.65625 51.546875 250.035156 65.410156 257.871094 C 69.441406 260.152344 73.136719 263.128906 77.332031 265.019531 C 97.214844 273.976562 116.886719 283.539062 137.246094 291.265625 C 173.667969 305.085938 211.71875 303.992188 249.640625 300.417969 C 277.886719 297.757812 306 293.664062 334.488281 295.253906 Z M 334.488281 295.253906 " fill-opacity="1" fill-rule="evenodd"/></g></svg>