<svg xmlns="http://www.w3.org/2000/svg" width="1184" height="824" viewBox="0 0 888 618"><defs><clipPath id="b"><path d="M459 0h429v617.762H459Zm0 0"/></clipPath><clipPath id="c"><path d="M0 0h888v399H0Zm0 0"/></clipPath><clipPath id="d"><path d="M222 0h666v516H222Zm0 0"/></clipPath><clipPath id="e"><path d="M136 0h752v494H136Zm0 0"/></clipPath><clipPath id="f"><path d="M0 165h368v330H0Zm0 0"/></clipPath><clipPath id="g"><path d="M223 283h470v334.762H223Zm0 0"/></clipPath><clipPath id="h"><path d="M184 354h383v263.762H184Zm0 0"/></clipPath><clipPath id="i"><path d="M138 266h280v351.762H138Zm0 0"/></clipPath><clipPath id="j"><path d="M188 283h268v334.762H188Zm0 0"/></clipPath><clipPath id="a"><path d="M0 0h888v618H0z"/></clipPath></defs><g clip-path="url(#a)"><g clip-path="url(#b)"><path fill="none" stroke="#fff" stroke-linecap="round" stroke-width="20.636" d="M576.055 529.563 873.66 14.093"/></g><g clip-path="url(#c)"><path fill="none" stroke="#fff" stroke-linecap="round" stroke-width="20.636" d="m13.734 281.375 859.504-267.46"/></g><g clip-path="url(#d)"><path fill="none" stroke="#fff" stroke-linecap="round" stroke-width="20.636" d="M339.105 399.238 853.77 31.137"/></g><g clip-path="url(#e)"><path fill="none" stroke="#fff" stroke-linecap="round" stroke-width="20.636" d="M253.133 376.66 820.52 35.336"/></g><g clip-path="url(#f)"><path fill="none" stroke="#fff" stroke-linecap="round" stroke-width="20.636" d="m13.441 281.777 237.157 96.328"/></g><g clip-path="url(#g)"><path fill="none" stroke="#fff" stroke-linecap="round" stroke-width="20.636" d="m339.754 399.746 236.418 129.922"/></g><g clip-path="url(#h)"><path fill="none" stroke="#fff" stroke-linecap="round" stroke-width="20.636" d="m300.984 603.074 149.239-131.55"/></g><g clip-path="url(#i)"><path fill="none" stroke="#fff" stroke-linecap="round" stroke-width="20.636" d="m301.105 603.629-45.914-220.324"/></g><g clip-path="url(#j)"><path fill="none" stroke="#fff" stroke-linecap="round" stroke-width="20.636" d="m304.93 599.715 34.004-199.77"/></g></g></svg>