<svg xmlns="http://www.w3.org/2000/svg" width="1034" height="1232" viewBox="0 0 775.5 924"><defs><clipPath id="b"><path d="M0 .297h775v923.406H0Zm0 0"/></clipPath><clipPath id="d"><path d="M555 .297h219.7V923.46H555Zm0 0"/></clipPath><clipPath id="e"><path d="M0 .297h219V923.46H0Zm0 0"/></clipPath><clipPath id="f"><path d="M0 .297h774.7V201H0Zm0 0"/></clipPath><clipPath id="g"><path d="M0 722h774.7v201.46H0Zm0 0"/></clipPath><clipPath id="i"><path d="M0 0h109v819H0z"/></clipPath><clipPath id="k"><path d="M0 0h401v517H0z"/></clipPath><clipPath id="m"><path d="M0 0h265v606H0z"/></clipPath><clipPath id="o"><path d="M0 0h302v313H0z"/></clipPath><clipPath id="q"><path d="M0 0h372v243H0z"/></clipPath><clipPath id="c"><path d="M0 0h775v924H0z"/></clipPath><mask id="h"><g filter="url(#a)"><path fill-opacity=".5" d="M-170.61-203.28H946.11v1330.56H-170.61z"/></g></mask><mask id="j"><g filter="url(#a)"><path fill-opacity=".5" d="M-170.61-203.28H946.11v1330.56H-170.61z"/></g></mask><mask id="l"><g filter="url(#a)"><path fill-opacity=".5" d="M-170.61-203.28H946.11v1330.56H-170.61z"/></g></mask><mask id="n"><g filter="url(#a)"><path fill-opacity=".5" d="M-170.61-203.28H946.11v1330.56H-170.61z"/></g></mask><mask id="p"><g filter="url(#a)"><path fill-opacity=".5" d="M-170.61-203.28H946.11v1330.56H-170.61z"/></g></mask><filter id="a" width="100%" height="100%" x="0%" y="0%"><feColorMatrix color-interpolation-filters="sRGB" values="0 0 0 0 1 0 0 0 0 1 0 0 0 0 1 0 0 0 1 0"/></filter></defs><g clip-path="url(#b)"><g clip-path="url(#c)"><g clip-path="url(#d)"><path fill="none" stroke="#fff" stroke-linecap="round" stroke-width="20.622" d="M672.023 912.078 762.574 85.25"/></g><g clip-path="url(#e)"><path fill="none" stroke="#fff" stroke-linecap="round" stroke-width="20.622" d="M11.68 839.762 102.234 12.93"/></g><g clip-path="url(#f)"><path fill="none" stroke="#fff" stroke-linecap="round" stroke-width="20.622" d="m102.02 11.672 661.042 72.394"/></g><g clip-path="url(#g)"><path fill="none" stroke="#fff" stroke-linecap="round" stroke-width="20.622" d="m11.371 839.375 661.047 72.395"/></g><g mask="url(#h)"><g clip-path="url(#i)" transform="translate(333 53)"><path fill="#fff" d="m107.664 5.078-4.215 34.113q-.081.676-.422 1.27a3.3 3.3 0 0 1-.875 1.016q-.537.422-1.199.605a3.42 3.42 0 0 1-2.61-.324 3.4 3.4 0 0 1-1.616-2.074 3.35 3.35 0 0 1-.098-1.336l4.215-34.114a3.4 3.4 0 0 1 .422-1.273 3.4 3.4 0 0 1 2.074-1.617 3.42 3.42 0 0 1 2.61.324 3.4 3.4 0 0 1 1.616 2.074c.121.438.157.883.098 1.336m-5.898 47.758-4.22 34.11a3.42 3.42 0 0 1-2.491 2.89 3.4 3.4 0 0 1-1.34.098 3.4 3.4 0 0 1-1.274-.422 3.4 3.4 0 0 1-1.617-2.075 3.4 3.4 0 0 1-.097-1.335l4.214-34.11q.083-.68.422-1.273a3.4 3.4 0 0 1 .875-1.016q.538-.42 1.2-.601A3.4 3.4 0 0 1 98.773 49q.682.089 1.274.422a3.42 3.42 0 0 1 1.617 2.074q.182.661.102 1.34m-5.903 47.754-4.215 34.11q-.088.68-.421 1.273-.34.595-.88 1.015c-.359.282-.757.48-1.195.602a3.4 3.4 0 0 1-1.34.101q-.674-.088-1.273-.421a3.4 3.4 0 0 1-1.012-.875 3.4 3.4 0 0 1-.703-2.54l4.215-34.109a3.46 3.46 0 0 1 1.297-2.29 3.4 3.4 0 0 1 1.2-.6 3.4 3.4 0 0 1 1.335-.098 3.4 3.4 0 0 1 2.29 1.297q.419.539.605 1.195.18.661.097 1.34m-5.902 47.754-4.215 34.113q-.088.675-.422 1.273a3.5 3.5 0 0 1-.875 1.016q-.541.417-1.199.602a3.43 3.43 0 0 1-2.61-.325 3.3 3.3 0 0 1-1.015-.875 3.42 3.42 0 0 1-.703-2.535l4.215-34.113q.087-.675.422-1.273a3.4 3.4 0 0 1 .875-1.012 3.4 3.4 0 0 1 2.539-.703q.675.081 1.273.422.594.334 1.012.875.422.537.605 1.199.181.656.098 1.336m-5.902 47.758-4.215 34.109a3.3 3.3 0 0 1-.422 1.273 3.4 3.4 0 0 1-.875 1.016q-.538.42-1.2.602a3.35 3.35 0 0 1-1.335.097 3.4 3.4 0 0 1-2.29-1.297 3.4 3.4 0 0 1-.6-1.195 3.4 3.4 0 0 1-.102-1.34l4.218-34.11a3.4 3.4 0 0 1 1.297-2.288q.54-.42 1.195-.602a3.5 3.5 0 0 1 1.34-.101 3.5 3.5 0 0 1 1.274.422q.592.34 1.015.878.418.54.602 1.196.18.66.098 1.34m-5.903 47.753-4.215 34.11a3.3 3.3 0 0 1-.421 1.273 3.3 3.3 0 0 1-.875 1.016q-.538.42-1.2.605a3.42 3.42 0 0 1-2.61-.324 3.42 3.42 0 0 1-1.616-2.074 3.4 3.4 0 0 1-.098-1.336l4.215-34.113a3.42 3.42 0 0 1 1.297-2.29 3.5 3.5 0 0 1 1.195-.6 3.45 3.45 0 0 1 3.629 1.198q.42.539.602 1.2c.12.437.156.882.097 1.335m-5.902 47.754-4.215 34.114a3.4 3.4 0 0 1-.422 1.273 3.4 3.4 0 0 1-2.074 1.617 3.42 3.42 0 0 1-2.61-.324 3.4 3.4 0 0 1-1.617-2.074 3.35 3.35 0 0 1-.097-1.336l4.215-34.11q.082-.68.421-1.273.336-.598.875-1.016t1.2-.605a3.42 3.42 0 0 1 2.61.324 3.42 3.42 0 0 1 1.616 2.074c.121.438.156.887.098 1.336m-5.899 47.758-4.218 34.11a3.4 3.4 0 0 1-1.297 2.289q-.54.42-1.195.601a3.5 3.5 0 0 1-1.34.102 3.5 3.5 0 0 1-1.274-.422 3.45 3.45 0 0 1-1.617-2.074 3.5 3.5 0 0 1-.098-1.34l4.215-34.11q.083-.68.422-1.273a3.4 3.4 0 0 1 .875-1.016q.538-.42 1.2-.601a3.35 3.35 0 0 1 1.335-.098 3.4 3.4 0 0 1 2.29 1.297q.42.54.6 1.195.184.662.102 1.34m-5.902 47.754-4.215 34.113q-.087.675-.422 1.274-.34.593-.879 1.012-.538.422-1.195.605a3.45 3.45 0 0 1-2.613-.324 3.35 3.35 0 0 1-1.012-.875 3.42 3.42 0 0 1-.703-2.535l4.215-34.114a3.45 3.45 0 0 1 1.297-2.289 3.43 3.43 0 0 1 3.809-.277 3.44 3.44 0 0 1 1.621 2.074q.18.657.097 1.336m-5.902 47.758-4.215 34.11q-.089.676-.422 1.273a3.5 3.5 0 0 1-.875 1.015 3.4 3.4 0 0 1-1.2.602 3.4 3.4 0 0 1-1.335.098 3.4 3.4 0 0 1-2.29-1.297 3.5 3.5 0 0 1-.605-1.196 3.5 3.5 0 0 1-.097-1.34l4.215-34.109q.087-.68.421-1.273a3.42 3.42 0 0 1 2.075-1.617 3.4 3.4 0 0 1 1.34-.102q.674.089 1.273.422a3.4 3.4 0 0 1 1.012.875 3.4 3.4 0 0 1 .703 2.539m-5.903 47.754-4.214 34.11a3.3 3.3 0 0 1-.422 1.273 3.4 3.4 0 0 1-.875 1.015q-.538.421-1.2.602a3.4 3.4 0 0 1-1.335.101 3.5 3.5 0 0 1-1.274-.422 3.42 3.42 0 0 1-1.617-2.074 3.4 3.4 0 0 1-.102-1.336l4.22-34.113a3.42 3.42 0 0 1 2.491-2.89 3.4 3.4 0 0 1 1.34-.098 3.4 3.4 0 0 1 1.274.422 3.4 3.4 0 0 1 1.617 2.074q.18.656.097 1.336m-5.902 47.754L38.531 564.5a3.4 3.4 0 0 1-.422 1.273 3.4 3.4 0 0 1-2.074 1.618 3.4 3.4 0 0 1-1.336.097 3.3 3.3 0 0 1-1.273-.422 3.4 3.4 0 0 1-1.016-.875 3.4 3.4 0 0 1-.601-1.199 3.35 3.35 0 0 1-.098-1.336l4.215-34.113q.081-.676.422-1.27.334-.598.875-1.015.537-.423 1.199-.606a3.42 3.42 0 0 1 2.61.325 3.4 3.4 0 0 1 1.616 2.074c.122.437.157.886.098 1.336m-5.902 47.758-4.215 34.109a3.3 3.3 0 0 1-.422 1.273 3.4 3.4 0 0 1-.875 1.016q-.538.42-1.2.602a3.35 3.35 0 0 1-1.335.097 3.42 3.42 0 0 1-2.89-2.492 3.4 3.4 0 0 1-.098-1.34l4.214-34.11q.083-.68.422-1.273a3.4 3.4 0 0 1 .875-1.015q.538-.421 1.2-.602a3.35 3.35 0 0 1 1.335-.097 3.4 3.4 0 0 1 2.29 1.296q.42.54.601 1.196.183.66.098 1.34m-5.899 47.753-4.218 34.11a3.4 3.4 0 0 1-1.297 2.289q-.54.423-1.196.605a3.45 3.45 0 0 1-3.629-1.199 3.43 3.43 0 0 1-.7-2.535l4.216-34.113a3.4 3.4 0 0 1 .422-1.274 3.4 3.4 0 0 1 2.074-1.617 3.4 3.4 0 0 1 1.336-.098q.68.083 1.274.422a3.4 3.4 0 0 1 1.015.875q.42.538.602 1.2.182.655.101 1.335m-5.902 47.754-4.215 34.114q-.088.678-.422 1.273a3.5 3.5 0 0 1-.875 1.016 3.45 3.45 0 0 1-3.812.277 3.35 3.35 0 0 1-1.012-.875 3.42 3.42 0 0 1-.703-2.535l4.215-34.11a3.4 3.4 0 0 1 .422-1.273c.226-.398.515-.734.875-1.016q.54-.419 1.199-.605a3.43 3.43 0 0 1 2.61.324q.598.338 1.015.875.42.542.605 1.2.181.66.098 1.335m-5.902 47.758-4.215 34.11a3.4 3.4 0 0 1-.422 1.273 3.42 3.42 0 0 1-2.074 1.617 3.4 3.4 0 0 1-1.336.102 3.5 3.5 0 0 1-1.274-.422 3.4 3.4 0 0 1-1.015-.875 3.5 3.5 0 0 1-.606-1.2 3.5 3.5 0 0 1-.097-1.34l4.214-34.109q.089-.678.422-1.273.34-.593.88-1.016.538-.42 1.194-.601a3.4 3.4 0 0 1 1.34-.098q.675.083 1.274.418c.394.227.734.52 1.012.879q.422.54.605 1.195.18.662.098 1.34m-5.903 47.754-4.215 34.113q-.082.675-.421 1.274a3.35 3.35 0 0 1-.875 1.011q-.538.424-1.2.606a3.4 3.4 0 0 1-1.336.098 3.3 3.3 0 0 1-1.273-.422 3.4 3.4 0 0 1-1.016-.875 3.4 3.4 0 0 1-.601-1.2 3.4 3.4 0 0 1-.102-1.335l4.219-34.114q.083-.675.418-1.273c.226-.395.52-.735.879-1.012q.54-.422 1.195-.605a3.45 3.45 0 0 1 3.63 1.199 3.43 3.43 0 0 1 .698 2.535m0 0"/></g></g><g mask="url(#j)"><g clip-path="url(#k)" transform="translate(40 52)"><path fill="#fff" d="m398.285 7.074-20.96 27.239a3.4 3.4 0 0 1-1.009.882q-.592.341-1.273.43a3.43 3.43 0 0 1-2.54-.687 3.42 3.42 0 0 1-1.223-3.617 3.5 3.5 0 0 1 .595-1.2L392.84 2.883A3.4 3.4 0 0 1 393.848 2q.593-.343 1.27-.43a3.4 3.4 0 0 1 1.339.09 3.4 3.4 0 0 1 1.203.594q.541.416.883 1.008t.43 1.273a3.43 3.43 0 0 1-.688 2.54m-29.344 38.133-20.964 27.238a3.42 3.42 0 0 1-3.617 1.223 3.4 3.4 0 0 1-1.204-.594 3.5 3.5 0 0 1-.883-1.011 3.45 3.45 0 0 1-.34-2.61c.122-.437.32-.84.598-1.2l20.961-27.237a3.442 3.442 0 0 1 5.703.379 3.44 3.44 0 0 1-.254 3.812M339.594 83.34l-20.965 27.238a3.42 3.42 0 0 1-3.617 1.223 3.4 3.4 0 0 1-1.2-.594 3.4 3.4 0 0 1-.882-1.012 3.3 3.3 0 0 1-.43-1.27 3.35 3.35 0 0 1 .09-1.335q.176-.664.594-1.203l20.96-27.239a3.3 3.3 0 0 1 1.012-.882 3.42 3.42 0 0 1 2.605-.34q.663.176 1.204.594c.363.277.656.617.883 1.011a3.42 3.42 0 0 1 .34 2.605 3.4 3.4 0 0 1-.594 1.204m-29.348 38.133-20.96 27.238a3.4 3.4 0 0 1-1.013.883 3.4 3.4 0 0 1-1.27.43 3.4 3.4 0 0 1-1.339-.09 3.4 3.4 0 0 1-1.2-.594 3.44 3.44 0 0 1-.629-4.82l20.962-27.239c.277-.36.617-.656 1.012-.883a3.445 3.445 0 0 1 3.809.254q.542.422.882 1.012a3.4 3.4 0 0 1 .43 1.27q.089.678-.09 1.34c-.117.437-.317.84-.594 1.199m-29.348 38.132-20.96 27.239a3.3 3.3 0 0 1-1.012.883 3.4 3.4 0 0 1-1.27.43 3.35 3.35 0 0 1-1.336-.09 3.4 3.4 0 0 1-1.203-.594 3.42 3.42 0 0 1-1.312-2.281 3.4 3.4 0 0 1 .09-1.337 3.4 3.4 0 0 1 .593-1.203l20.965-27.238q.415-.541 1.008-.883a3.42 3.42 0 0 1 2.61-.34c.437.121.84.317 1.199.598q.544.416.882 1.008.343.593.43 1.27.09.678-.09 1.34c-.117.437-.316.84-.594 1.198m-29.347 38.137L230.59 224.98q-.416.539-1.008.883a3.425 3.425 0 0 1-3.812-.258 3.42 3.42 0 0 1-1.223-3.617 3.4 3.4 0 0 1 .594-1.203l20.964-27.238q.417-.538 1.008-.883.594-.338 1.27-.426a3.4 3.4 0 0 1 1.34.086q.66.181 1.203.598.538.415.883 1.008.337.593.43 1.27a3.45 3.45 0 0 1-.688 2.542m-29.348 38.133-20.96 27.238q-.417.542-1.009.883t-1.273.43a3.4 3.4 0 0 1-1.336-.09 3.5 3.5 0 0 1-1.203-.594 3.5 3.5 0 0 1-.883-1.012 3.45 3.45 0 0 1-.34-2.61 3.4 3.4 0 0 1 .598-1.198l20.96-27.238a3.4 3.4 0 0 1 1.009-.883 3.35 3.35 0 0 1 1.273-.43q.675-.09 1.336.09a3.4 3.4 0 0 1 1.203.594q.541.416.883 1.007.34.593.43 1.274a3.43 3.43 0 0 1-.688 2.539m-29.344 38.133-20.964 27.238q-.417.541-1.008.883a3.42 3.42 0 0 1-2.61.34 3.4 3.4 0 0 1-1.203-.594 3.5 3.5 0 0 1-.883-1.012 3.4 3.4 0 0 1-.425-1.27 3.4 3.4 0 0 1 .086-1.34q.18-.658.597-1.198l20.961-27.239a3.3 3.3 0 0 1 1.012-.882 3.4 3.4 0 0 1 1.27-.43 3.3 3.3 0 0 1 1.335.09q.664.176 1.203.594.542.415.883 1.011a3.43 3.43 0 0 1 .34 2.605 3.4 3.4 0 0 1-.594 1.204m-29.347 38.133-20.961 27.238a3.4 3.4 0 0 1-1.012.883 3.445 3.445 0 0 1-3.809-.254 3.3 3.3 0 0 1-.882-1.012 3.3 3.3 0 0 1-.43-1.27 3.35 3.35 0 0 1 .09-1.335q.176-.663.594-1.204l20.96-27.238a3.4 3.4 0 0 1 1.012-.883 3.42 3.42 0 0 1 2.605-.34q.663.178 1.204.594c.363.278.656.618.883 1.012a3.445 3.445 0 0 1-.254 3.809m-29.348 38.132-20.96 27.239a3.4 3.4 0 0 1-1.013.883c-.394.23-.816.37-1.27.43a3.4 3.4 0 0 1-1.339-.09 3.4 3.4 0 0 1-1.2-.594 3.44 3.44 0 0 1-.629-4.82l20.962-27.239q.42-.541 1.012-.883a3.445 3.445 0 0 1 3.809.254q.542.42.882 1.012.343.59.43 1.27.088.678-.09 1.34c-.117.437-.317.84-.594 1.198m-29.348 38.137-20.96 27.238a3.43 3.43 0 0 1-3.618 1.22 3.4 3.4 0 0 1-1.203-.595 3.42 3.42 0 0 1-1.223-3.617 3.4 3.4 0 0 1 .594-1.203l20.965-27.238q.415-.541 1.008-.883a3.42 3.42 0 0 1 2.61-.34 3.47 3.47 0 0 1 2.086 1.605c.226.395.366.821.425 1.27q.093.679-.09 1.34a3.4 3.4 0 0 1-.594 1.203M75.47 426.543l-20.961 27.238q-.416.541-1.008.883t-1.273.43a3.43 3.43 0 0 1-2.54-.688 3.42 3.42 0 0 1-1.223-3.617c.122-.441.317-.84.595-1.203l20.964-27.238q.417-.539 1.008-.883.594-.339 1.27-.426a3.4 3.4 0 0 1 1.34.09 3.4 3.4 0 0 1 1.203.594q.541.416.883 1.007a3.42 3.42 0 0 1 .34 2.61 3.4 3.4 0 0 1-.598 1.203m-29.344 38.133L25.16 491.914q-.416.541-1.008.883a3.42 3.42 0 0 1-2.609.34 3.5 3.5 0 0 1-1.203-.594 3.5 3.5 0 0 1-.883-1.012 3.45 3.45 0 0 1-.34-2.61q.181-.658.598-1.198l20.96-27.239a3.4 3.4 0 0 1 1.009-.882q.595-.344 1.273-.43.677-.09 1.336.09a3.4 3.4 0 0 1 1.203.593q.541.417.883 1.008a3.44 3.44 0 0 1-.254 3.813m-29.348 38.133-7.566 9.828a3.42 3.42 0 0 1-3.617 1.223 3.4 3.4 0 0 1-1.203-.594 3.5 3.5 0 0 1-.883-1.008 3.4 3.4 0 0 1-.426-1.274 3.4 3.4 0 0 1 .086-1.336q.181-.662.598-1.203l7.562-9.828a3.3 3.3 0 0 1 1.012-.883 3.42 3.42 0 0 1 2.605-.34q.664.178 1.203.594.545.416.883 1.012a3.42 3.42 0 0 1 .34 2.605 3.4 3.4 0 0 1-.594 1.204m0 0"/></g></g><g mask="url(#l)"><g clip-path="url(#m)" transform="translate(434 52)"><path fill="#fff" d="m8.188 4.055 13.535 31.593q.27.627.277 1.313a3.46 3.46 0 0 1-.977 2.441c-.32.328-.687.578-1.105.758q-.633.271-1.313.278a3.3 3.3 0 0 1-1.32-.247 3.3 3.3 0 0 1-1.12-.73 3.4 3.4 0 0 1-.763-1.106L1.867 6.762a3.44 3.44 0 0 1 3.121-4.79c.453-.007.895.075 1.317.247q.633.251 1.125.73.487.477.758 1.106m18.949 44.23L40.672 79.88a3.437 3.437 0 1 1-6.32 2.707L20.816 50.992a3.437 3.437 0 1 1 6.32-2.707m18.949 44.23L59.62 124.11a3.437 3.437 0 1 1-6.32 2.707L39.766 95.223a3.437 3.437 0 1 1 6.32-2.707m18.95 44.231L78.57 168.34a3.437 3.437 0 1 1-6.32 2.707l-13.535-31.594a3.4 3.4 0 0 1-.278-1.312 3.46 3.46 0 0 1 .977-2.442q.48-.487 1.106-.758.632-.27 1.312-.277.684-.012 1.32.246a3.5 3.5 0 0 1 1.125.73q.488.48.758 1.106m18.948 44.23 13.532 31.594q.27.627.277 1.313a3.4 3.4 0 0 1-.977 2.441 3.4 3.4 0 0 1-1.105.758q-.627.27-1.313.277a3.42 3.42 0 0 1-2.441-.977 3.4 3.4 0 0 1-.758-1.105l-13.535-31.593a3.4 3.4 0 0 1-.277-1.313 3.45 3.45 0 0 1 .977-2.441q.479-.488 1.105-.758a3.4 3.4 0 0 1 1.312-.277c.457-.004.895.074 1.32.246q.634.254 1.122.73.492.48.761 1.106m18.946 44.231 13.535 31.594q.27.627.277 1.312.012.684-.246 1.32-.251.634-.73 1.122a3.3 3.3 0 0 1-1.106.757q-.627.271-1.312.278a3.4 3.4 0 0 1-1.317-.242 3.4 3.4 0 0 1-1.125-.735 3.4 3.4 0 0 1-.758-1.105l-13.535-31.594a3.4 3.4 0 0 1-.277-1.312 3.3 3.3 0 0 1 .246-1.317q.251-.633.73-1.125a3.42 3.42 0 0 1 2.418-1.035q.684-.006 1.32.246.635.254 1.122.73.49.48.758 1.106m18.949 44.23 13.535 31.594c.18.422.274.856.277 1.313.008.457-.074.894-.246 1.32q-.251.634-.73 1.121a3.4 3.4 0 0 1-1.106.762q-.627.265-1.312.277a3.44 3.44 0 0 1-3.2-2.086l-13.535-31.593a3.4 3.4 0 0 1-.277-1.313 3.3 3.3 0 0 1 .246-1.316q.251-.633.73-1.125a3.42 3.42 0 0 1 2.419-1.036 3.44 3.44 0 0 1 3.199 2.082m18.95 44.231 13.534 31.594q.271.634.278 1.312c.004.457-.075.895-.246 1.32a3.4 3.4 0 0 1-.73 1.122 3.42 3.42 0 0 1-2.419 1.039 3.4 3.4 0 0 1-2.441-.98 3.3 3.3 0 0 1-.762-1.106l-13.531-31.594a3.4 3.4 0 0 1-.278-1.312 3.4 3.4 0 0 1 .243-1.317 3.46 3.46 0 0 1 1.84-1.883q.626-.27 1.312-.277a3.46 3.46 0 0 1 2.441.976q.488.48.758 1.106m18.948 44.23 13.536 31.594q.27.633.277 1.313c.004.457-.078.894-.246 1.32a3.4 3.4 0 0 1-.73 1.121 3.42 3.42 0 0 1-2.419 1.04 3.4 3.4 0 0 1-2.441-.98 3.3 3.3 0 0 1-.762-1.107l-13.535-31.594a3.433 3.433 0 0 1 1.809-4.511 3.437 3.437 0 0 1 4.511 1.804m18.95 44.235 13.535 31.59q.268.633.277 1.312.006.684-.246 1.32a3.5 3.5 0 0 1-.73 1.125q-.48.488-1.106.758c-.422.18-.86.27-1.312.278a3.46 3.46 0 0 1-2.446-.977 3.4 3.4 0 0 1-.758-1.11l-13.535-31.593a3.433 3.433 0 0 1 1.809-4.512 3.433 3.433 0 0 1 4.512 1.809m18.949 44.23 13.535 31.59q.268.633.277 1.313a3.46 3.46 0 0 1-.976 2.445 3.44 3.44 0 0 1-2.422 1.035 3.46 3.46 0 0 1-2.442-.976 3.4 3.4 0 0 1-.757-1.11l-13.536-31.59q-.268-.634-.277-1.312a3.46 3.46 0 0 1 .977-2.445q.479-.488 1.105-.758c.422-.18.86-.27 1.313-.278a3.46 3.46 0 0 1 2.445.977c.324.32.578.687.758 1.11m18.949 44.23 13.535 31.594q.265.628.278 1.31a3.5 3.5 0 0 1-.247 1.32 3.46 3.46 0 0 1-1.84 1.882 3.437 3.437 0 0 1-4.511-1.804L210.305 493.3a3.4 3.4 0 0 1-.278-1.313 3.45 3.45 0 0 1 .977-2.445q.479-.487 1.105-.758.633-.268 1.313-.277c.457-.004.894.078 1.32.246a3.46 3.46 0 0 1 1.883 1.84m18.95 44.231 13.53 31.594q.271.628.278 1.309.011.686-.242 1.32a3.46 3.46 0 0 1-1.84 1.883 3.437 3.437 0 0 1-4.512-1.805l-13.535-31.594a3.4 3.4 0 0 1-.277-1.312 3.3 3.3 0 0 1 .246-1.32q.254-.634.73-1.122a3.42 3.42 0 0 1 2.418-1.039q.684-.006 1.32.246c.422.172.797.414 1.121.735q.494.473.762 1.105m18.945 44.23 8.601 20.075q.271.634.277 1.312.012.684-.246 1.32-.251.635-.73 1.122a3.4 3.4 0 0 1-1.106.762 3.437 3.437 0 0 1-4.511-1.81l-8.602-20.073a3.4 3.4 0 0 1-.277-1.313 3.3 3.3 0 0 1 .246-1.32q.251-.634.73-1.121a3.4 3.4 0 0 1 1.106-.762 3.437 3.437 0 0 1 4.512 1.809m0 0"/></g></g><g mask="url(#n)"><g clip-path="url(#o)" transform="translate(435 51)"><path fill="#fff" d="m7.535 3.336 23.86 24.738q.474.49.726 1.13a3.425 3.425 0 0 1-.812 3.73 3.4 3.4 0 0 1-1.13.726 3.425 3.425 0 0 1-3.73-.812L2.59 8.105a3.4 3.4 0 0 1-.726-1.125 3.445 3.445 0 0 1 .813-3.734 3.4 3.4 0 0 1 1.129-.723 3.4 3.4 0 0 1 1.32-.238 3.43 3.43 0 0 1 2.41 1.05m33.406 34.637 23.86 24.738c.316.328.554.703.722 1.129q.251.634.239 1.32a3.43 3.43 0 0 1-1.05 2.41 3.4 3.4 0 0 1-1.13.727 3.5 3.5 0 0 1-1.32.238 3.5 3.5 0 0 1-1.309-.289 3.4 3.4 0 0 1-1.101-.762l-23.86-24.742a3.42 3.42 0 0 1-.96-2.449 3.4 3.4 0 0 1 .284-1.309q.27-.627.762-1.101a3.5 3.5 0 0 1 1.129-.727 3.48 3.48 0 0 1 2.633.051q.627.272 1.101.766m33.403 34.632 23.86 24.743q.475.491.722 1.129c.168.421.246.863.238 1.316a3.4 3.4 0 0 1-.285 1.312 3.4 3.4 0 0 1-.766 1.102 3.3 3.3 0 0 1-1.129.723 3.4 3.4 0 0 1-1.316.238 3.4 3.4 0 0 1-1.313-.285 3.4 3.4 0 0 1-1.101-.766L69.394 77.38a3.3 3.3 0 0 1-.722-1.129 3.4 3.4 0 0 1-.238-1.32 3.4 3.4 0 0 1 .285-1.309 3.4 3.4 0 0 1 .765-1.101 3.45 3.45 0 0 1 2.445-.965 3.43 3.43 0 0 1 2.414 1.05m33.402 34.637 23.86 24.738q.474.495.726 1.13c.164.425.246.867.234 1.32a3.4 3.4 0 0 1-.285 1.312 3.43 3.43 0 0 1-3.21 2.063 3.43 3.43 0 0 1-2.414-1.05l-23.86-24.74a3.4 3.4 0 0 1-.723-1.128 3.4 3.4 0 0 1-.238-1.32 3.43 3.43 0 0 1 1.05-2.41 3.4 3.4 0 0 1 1.13-.727 3.44 3.44 0 0 1 3.73.813m33.402 34.637 23.86 24.738q.474.494.726 1.13c.164.425.246.862.239 1.32a3.43 3.43 0 0 1-1.05 2.41 3.5 3.5 0 0 1-1.13.726 3.45 3.45 0 0 1-2.633-.047 3.5 3.5 0 0 1-1.098-.765l-23.859-24.743a3.4 3.4 0 0 1-.965-2.445 3.45 3.45 0 0 1 1.051-2.414 3.3 3.3 0 0 1 1.129-.723 3.4 3.4 0 0 1 1.32-.238q.68.011 1.309.285a3.4 3.4 0 0 1 1.101.766m33.403 34.637 23.86 24.738q.474.491.726 1.129.251.634.238 1.32a3.44 3.44 0 0 1-3.5 3.375 3.4 3.4 0 0 1-1.309-.289 3.4 3.4 0 0 1-1.101-.762l-23.86-24.742a3.4 3.4 0 0 1-.726-1.129 3.44 3.44 0 0 1 .813-3.73 3.4 3.4 0 0 1 1.128-.723 3.4 3.4 0 0 1 1.32-.238c.458.008.891.101 1.31.285q.626.272 1.1.766m33.406 34.632 23.86 24.743c.316.328.554.703.722 1.129q.251.633.238 1.32a3.43 3.43 0 0 1-2.18 3.133 3.4 3.4 0 0 1-1.32.238 3.4 3.4 0 0 1-1.308-.285 3.4 3.4 0 0 1-1.102-.766l-23.86-24.738a3.42 3.42 0 0 1-.96-2.45 3.4 3.4 0 0 1 .285-1.308q.27-.627.762-1.101a3.5 3.5 0 0 1 1.129-.727 3.5 3.5 0 0 1 1.32-.238q.685.015 1.312.289.628.27 1.102.761m33.402 34.637 23.86 24.742q.475.492.722 1.125.252.64.239 1.32a3.4 3.4 0 0 1-.285 1.313 3.4 3.4 0 0 1-.766 1.102 3.3 3.3 0 0 1-1.129.722 3.4 3.4 0 0 1-1.316.239 3.43 3.43 0 0 1-2.414-1.05l-23.86-24.74a3.4 3.4 0 0 1-.722-1.128 3.4 3.4 0 0 1-.239-1.32c.008-.458.102-.891.285-1.31a3.4 3.4 0 0 1 .766-1.1 3.4 3.4 0 0 1 1.129-.727 3.445 3.445 0 0 1 3.73.813m33.403 34.637 23.398 24.262c.317.328.559.707.727 1.128a3.425 3.425 0 0 1-.812 3.73 3.5 3.5 0 0 1-1.13.728 3.425 3.425 0 0 1-3.73-.812l-23.402-24.263a3.4 3.4 0 0 1-.723-1.129 3.4 3.4 0 0 1-.238-1.32q.01-.685.285-1.312a3.43 3.43 0 0 1 1.894-1.825 3.4 3.4 0 0 1 1.32-.238q.681.011 1.31.285a3.4 3.4 0 0 1 1.1.766m0 0"/></g></g><g mask="url(#p)"><g clip-path="url(#q)" transform="translate(68 51)"><path fill="#fff" d="M368.64 7.996 339.739 26.59c-.383.25-.8.41-1.25.492q-.672.123-1.34-.023a3.3 3.3 0 0 1-1.23-.536 3.3 3.3 0 0 1-.93-.964 3.4 3.4 0 0 1-.468-2.586q.144-.669.535-1.23c.257-.376.578-.684.965-.934l28.902-18.594c.387-.246.8-.41 1.25-.492q.673-.123 1.34.023.667.145 1.23.535.562.389.93.965c.25.383.41.797.492 1.246q.123.674-.023 1.34a3.3 3.3 0 0 1-.536 1.23 3.3 3.3 0 0 1-.964.934m-40.464 26.035L299.27 52.625a3.44 3.44 0 0 1-2.59.469 3.35 3.35 0 0 1-1.227-.535 3.4 3.4 0 0 1-.933-.965 3.4 3.4 0 0 1-.47-2.586c.098-.446.274-.856.536-1.23a3.4 3.4 0 0 1 .965-.934l28.906-18.594a3.4 3.4 0 0 1 2.586-.469q.667.145 1.23.535.564.386.934.965a3.4 3.4 0 0 1 .469 2.586 3.46 3.46 0 0 1-1.5 2.164m-40.469 26.032L258.801 78.66a3.4 3.4 0 0 1-2.586.469 3.46 3.46 0 0 1-2.164-1.5q-.369-.576-.492-1.246-.118-.676.023-1.344.148-.668.535-1.227a3.4 3.4 0 0 1 .965-.933l28.906-18.598c.383-.246.801-.41 1.246-.488q.676-.123 1.344.023a3.4 3.4 0 0 1 2.16 1.496 3.43 3.43 0 0 1 .469 2.59 3.4 3.4 0 0 1-.535 1.23 3.4 3.4 0 0 1-.965.93m-40.469 26.035-28.902 18.597a3.43 3.43 0 0 1-2.59.47 3.42 3.42 0 0 1-2.16-1.5 3.4 3.4 0 0 1-.492-1.25 3.4 3.4 0 0 1 .023-1.34 3.3 3.3 0 0 1 .535-1.231q.386-.562.965-.93l28.903-18.598a3.43 3.43 0 0 1 2.59-.468q.667.147 1.23.535.561.392.93.965a3.43 3.43 0 0 1 .468 2.59 3.4 3.4 0 0 1-.535 1.23 3.3 3.3 0 0 1-.965.93m-40.465 26.035-28.906 18.597q-.576.37-1.246.489-.675.123-1.344-.024a3.4 3.4 0 0 1-2.16-1.496 3.5 3.5 0 0 1-.492-1.25 3.4 3.4 0 0 1 .023-1.34c.098-.445.274-.855.536-1.23.257-.375.582-.684.964-.93l28.907-18.597a3.4 3.4 0 0 1 2.586-.47q.667.145 1.23.536.564.389.934.965.369.576.492 1.246.117.675-.024 1.344a3.4 3.4 0 0 1-.535 1.226 3.4 3.4 0 0 1-.965.934m-40.468 26.035-28.907 18.594a3.4 3.4 0 0 1-2.585.468 3.4 3.4 0 0 1-1.231-.535 3.3 3.3 0 0 1-.934-.965 3.4 3.4 0 0 1-.468-2.585 3.46 3.46 0 0 1 1.5-2.165l28.906-18.593a3.44 3.44 0 0 1 2.59-.469 3.35 3.35 0 0 1 1.226.535q.564.389.934.965a3.4 3.4 0 0 1 .469 2.586 3.46 3.46 0 0 1-1.5 2.164m-40.47 26.035-28.901 18.594q-.579.369-1.25.492-.674.123-1.34-.023a3.4 3.4 0 0 1-1.23-.536 3.4 3.4 0 0 1-.93-.964 3.3 3.3 0 0 1-.493-1.246 3.4 3.4 0 0 1 .024-1.344c.094-.446.273-.852.535-1.227q.387-.563.96-.933l28.907-18.594a3.3 3.3 0 0 1 1.25-.492 3.4 3.4 0 0 1 1.34.023 3.3 3.3 0 0 1 1.23.535q.563.386.93.965a3.4 3.4 0 0 1 .469 2.586 3.4 3.4 0 0 1-.535 1.23 3.4 3.4 0 0 1-.965.934m-40.464 26.031-28.906 18.598a3.43 3.43 0 0 1-2.59.469 3.42 3.42 0 0 1-2.16-1.5 3.44 3.44 0 0 1-.469-2.59q.145-.668.535-1.23.389-.56.965-.93l28.906-18.598a3.3 3.3 0 0 1 1.246-.488q.674-.122 1.34.02a3.46 3.46 0 0 1 2.164 1.5q.37.574.489 1.25.123.672-.024 1.34a3.4 3.4 0 0 1-1.496 2.16m-40.47 26.036-28.906 18.597a3.4 3.4 0 0 1-2.586.469 3.43 3.43 0 0 1-2.164-1.5 3.43 3.43 0 0 1-.469-2.59q.148-.667.536-1.23.391-.562.964-.93l28.907-18.598q.572-.369 1.246-.492.674-.117 1.343.024.67.147 1.227.535a3.43 3.43 0 0 1 1.402 3.554 3.5 3.5 0 0 1-.535 1.23 3.5 3.5 0 0 1-.965.93m0 0"/></g></g></g></g></svg>