<?xml version="1.0" encoding="UTF-8"?>
<svg id="Layer_2" data-name="Layer 2" xmlns="http://www.w3.org/2000/svg" viewBox="0 0 254.57 368.4">
  <defs>
    <style>
      .cls-1 {
        fill: #fff;
      }

      .cls-2 {
        fill: #1a2234;
      }

      .cls-3 {
        fill: #a77950;
      }

      .cls-4 {
        fill: #60605f;
      }

      .cls-5 {
        fill: #a55648;
      }

      .cls-6 {
        fill: #5d71c5;
      }
    </style>
  </defs>
  <g id="Layer_2-2" data-name="Layer 2">
    <g id="Generative_Object_15_0_" data-name="Generative Object (15, 0)">
      <path class="cls-2" d="M222.09,233.99c-3.1,8.4-7.22,16.03-12.91,23.12-3.36,4.18-7.32,7.21-11.55,10.52l-40.35,31.66c-7.35,5.76-14.28,11.31-22.26,15.9-4.1,2.36-8.84,3.51-13.46,4.53-8.45,1.87-17.18,1.73-25.84.22-10.16-1.77-19.74-4.21-29.54-7.03s-19-8.66-25.72-17.08c-5.13-6.43-8.97-13.47-11.74-20.89-2.6-6.97-4.67-14.12-5.92-21.61l-1.28-7.66c-.51-3.04.57-5.94,3.1-7.65l5.25-3.55-21.15-14.86c-2.29-1.61-2.91-4.67-1.47-7,1.36-2.18,4.72-3.1,7.12-1.39l25.1,17.79,4.75-3.15c2.8-1.86,5.32-3.52,8.7-5.19l-18.94-5.73c-9.29-2.81-10.62-20.32-10.59-30.44.04-13.94,2.94-27.24,8.52-39.88-2.01-3.2-2.86-6.48-3.42-10.24-3.1-20.98,2.57-42.15,12.13-60.49,1.73-3.31,4.72-4.08,8.1-2.63,7.63,3.26,14.59,7.41,22.37,11.51l.14-13.12c.05-4.48,1.86-7.86,6.1-9.76l7-2.24-.02-53.63c0-2.13,2.35-3.53,3.4-3.69,2.41-.74,4.04-.1,5.7,1.31,12.02,10.21,28.66,2.37,40.32,7.84,6,2.82,9.13,8.56,8.27,15.08l-.91,6.95c-.81,6.2,5.67,12.61-1.01,17.85-2.74,2.15-5.04.22-7.96-.54-12.59-3.25-25.85-3.17-38.58-.75l-.02,8.25c6.99.68,17.38,3.89,17.5,10.55l.2,11.52c.07,3.88-.34,7.07-2.38,10.31l-1.46,5.53,15.87,4.15c-.07-11.74.95-22.75,4.58-33.41,1.34-3.94,2.64-8.04,5.27-11.23,2.12-2.58,5.48-1.17,8-.14l15.8,6.5v-17.57c.01-1.46.46-3.04,1.72-3.61,2.79-1.48,5.82-.94,7.44,1.8l.04,22.47,19.51,5.68c2.72.79,4.46,3.61,3.83,6.28l-1.85,7.82c-1.45,6.14-3.18,12.01-2.83,18.51l13.87-11.63,9.36-7.21c4.45-.81,8.22,2.59,8.26,7.21l8.69,42.71c.84,4.11.25,7.1-3.59,9.1l-13.35,6.93,14.65,5.54c7.94,3,11.37,4.91,11.08,12.87l-.31,8.43c-.67,17.99-4.09,35.51-9.14,52.62l-2.2,5.97ZM126.96,17.37l-18.81-.49c-5.18-.49-9.9-1.39-14.74-3.56l.15,25.01c12.9-2.35,25.58-2.15,38.65.51-1.7-10.51,4.99-19.92-5.25-21.47ZM174.97,112.79l.56-11.53c.4-8.29,1.36-16.3,4.19-24.56-14.16-4.14-27.82-8.21-41.48-13.56-4.29,10.91-6.11,22.15-5.96,33.46,2.27,1.36,4.24,1.98,6.51,2.62l36.18,13.57ZM101.33,67.71c-6.94-5.31-21.54-2.06-21.35.74.02.35.42,1.07.98,1.33,10.91,5.07,24.68,1.23,20.37-2.07ZM100.92,83.59c1.13-1.11,1.8-2.61,1.42-4.12-7.45,2.94-15.05,3.34-22.26.34-.27,1.09-.83,3.42.24,4.33,6.21,5.29,14.71,5.2,20.6-.55ZM128.68,125.15c1.16-4.73,2.94-9.04,4.38-13.7-.11-1.1-2.01-1.4-2.83-1.63l-46.44-12.94c-3.54-.99-6.79-1.66-10.29-2.22l-3.54-1.66c-7.26-4.46-14.49-8.37-22.52-12.07-7.78,16.81-12.87,34.82-9.58,53.28,1.2,2.51,1.97,5.83,4.92,6.77l90.29,28.71-4.58-14.67c-2.24-9.92-2.22-20.09.18-29.88ZM175.14,156.67l41.06-23.01-8.2-40.07-21.83,18.65c-1.09.62-1.38,1.69-1.35,2.83.54,3.06-.47,5.04-2.62,6.76-1.97,1.58-4.27,1.79-7.25.6l.2,34.23ZM146.31,140.01c2.69-1.02,5.29-1.78,7.85-3.36l.1-21.55-10.91-4.31-4.57,12.94c-2.7,7.66-3.42,15.63-2.31,23.89,2.96-3.47,5.89-6.12,9.84-7.61ZM219.03,161.08c-6.21-2.39-12.17-4.48-18.49-5.98-2.19-.52-3.71-.16-5.6.88l-17.25,9.47c-1.87,1.03-3.84,2.77-6.09,2.7-3.95-.13-5.56-3.61-5.53-7.09l.3-40.99c-1.34-.92-2.47-1.46-4.06-1.69l.21,51.75c0,2.22-.19,4.75.73,6.63.71,1.44,3.15,1.97,4.56,2.42,7.86,2.48,25.72,8.47,31.02,5.55,9.33-5.14,17.5-11.9,25.29-19.36-.89-2.43-2.8-3.39-5.09-4.26ZM144.06,170.46l9.8,2.56.32-25.94c-4.82-.29-8.98,1.97-11.77,6.05l-3.62,5.29,5.25,12.04ZM130.18,233.57c-2.83-11.02-3.71-21.2-3.32-32.05.28-7.8,1.46-15.16,4.38-22.6l-43.92-14.04-47.42-14.73c-6.88,15.42-9.5,35.54-5.11,51.6.83,3.29,3.06,4.71,6.06,5.58l38.75,11.3,50.57,14.93ZM198.43,206.17l2.83-1.66c8.52-5.67,16.4-12.1,23.67-19.43.68-2.74.7-5.99.16-8.69-6.94,5.37-13.4,9.9-20.56,13.95-1.94,1.1-3.09,2.76-3.97,4.78l-4.59,10.54c-.32.73,1.7.95,2.46.51ZM187.12,203.38l4.06-8.9-48.65-15.13c-2.13,3.25-3.72,6.57-4.97,10.3l49.57,13.74ZM57.5,248.26c-2.03,2.82-5.52,3.29-8.2,1-3.62-3.09-7.19-5.92-11.19-8.62l-6.38,3.49c-.47.26-.95.89-.94,1.25s.47,1.11.95,1.36c16.11,8.51,39.95,15.44,58.48,15.37,12.5-.04,24.36-2.22,36.18-5.55,4.82-1.36,8.97-3.26,13.05-6.24l10.96-8.01c9.25-6.76,18.42-13.03,28.1-19.09,4.35-2.72,12.13-9.4,9.24-10.42-9.11-3.24-18.22-5.59-27.68-8.15l-23.91-6.48.08,12.98c5.46,1.68,10.7,3.37,15.44,6.54,1.08.72,1.34,2.03.78,3.07-2.32,4.29-9.66,1.57-15.4-.46.49,5.71,2.4,10.85,4.1,16.03.73,2.22-.64,4.66-1.75,5.84-1.58,1.69-3.68,2.01-6.02,1.59-6.63-1.2-12.8-3.1-19.29-5.03l-21.62-6.44.05,10.57c.01,2.24-1.56,3.46-3.7,3.58-1.58.09-2.95-.07-4.01-1.1-.93-.9-1.39-2.3-1.4-3.84l-.06-11.86c-9-2.86-15.05-6.28-23.95-2.41-4.62,2.01-9.07,3.89-12.88,7.16,5.8,4.2,14.55,8.91,10.97,13.86ZM84.65,305.54l3.35,2.09c12.82,5.63,27.05,6.11,40.41,1.51l14.3-10.07,16.99-12.91,27.19-21.51c16.06-12.7,20.37-15.77,27.74-36.17,3.58-9.91,5.44-20.01,7.32-30.44l-8.14,7.19-25.02,20.41-43.38,31c-20.11,14.37-54.78,17.14-79.22,11.51,2.28,15.02,6.98,26.85,18.48,37.39ZM59.21,278.89l-2.7-12.5c-.99-.7-2.22-1.17-3.51-1.53-6.68-1.84-12.74-4.14-19.63-7.02,3.7,20.87,16.26,42.53,37.47,46.57-6.29-7.61-9.63-16.29-11.63-25.52Z"/>
      <path class="cls-4" d="M28.73,274.93c2.77,7.42,6.61,14.46,11.74,20.89,6.72,8.43,15.48,14.14,25.72,17.08s19.39,5.26,29.54,7.03c8.66,1.51,17.39,1.65,25.84-.22,4.62-1.02,9.36-2.17,13.46-4.53,7.97-4.59,14.91-10.14,22.26-15.9l40.35-31.66c4.23-3.32,8.19-6.34,11.55-10.52,5.69-7.09,9.81-14.72,12.91-23.12,20.07,7.43,37.29,23.99,31.27,47.04-2.11,8.09-5.84,14.97-11,21.64-16.32,21.09-43.84,37.6-68.05,47.28-26.85,10.73-55.1,17.18-84.48,18.32-26.94,1.04-66.64-3.89-83.34-26.08-9.16-12.16-7.86-26.97-.78-40.01,4.2-7.73,9.7-14.12,15.98-20.31,2.45-2.42,5.18-4.3,7.05-6.94Z"/>
      <path class="cls-5" d="M84.65,305.54c-11.5-10.53-16.2-22.37-18.48-37.39,24.44,5.63,59.12,2.86,79.22-11.51l43.38-31,25.02-20.41,8.14-7.19c-1.87,10.44-3.74,20.53-7.32,30.44-7.37,20.39-11.68,23.46-27.74,36.17l-27.19,21.51-16.99,12.91-14.3,10.07c-13.35,4.6-27.59,4.12-40.41-1.51l-3.35-2.09ZM192.6,243.42l6.78-5.34c1.22-.96,2.39-3.07,1.71-4.7-1-2.39-4.05-2.72-6.69-2.48-4.53,5.15-11.52,6.33-9.91,11.19.53,1.6,2.06,2.56,4.06,2.8,1.57.19,2.7-.4,4.05-1.47ZM176.64,252.8c1.92-1.55,3.23-4.22,1.88-6.25-1.62-2.43-4.7-2.25-6.68-.66l-8.93,7.17c-1.94,1.56-2.61,4.02-1.25,6,1.19,1.73,3.87,2.71,5.71,1.22l9.28-7.48ZM145.09,278.01c4.15-3.36,9.88-5.54,8.93-10-.18-.83-1.15-1.66-2.2-2.18-2.21-1.1-4.16-.62-6.01,1.03-5.29,4.7-9.54,4.83-8.91,9.29.22,1.53,1.66,2.66,3.29,3.13,2.2.64,3.36-.02,4.9-1.26Z"/>
      <path class="cls-6" d="M130.18,233.57l-50.57-14.93-38.75-11.3c-3-.87-5.23-2.29-6.06-5.58-4.39-16.06-1.76-36.18,5.11-51.6l47.42,14.73,43.92,14.04c-2.92,7.44-4.1,14.8-4.38,22.6-.39,10.85.49,21.04,3.32,32.05ZM79.46,200.72l11.48,8.11.67-12.92,12.5-8.03-13.95-4.6-3.88-12.29-9.03,10.52-14.31-.25,7.75,10.87-5.39,12.28c5.03-.95,9.5-2.3,14.16-3.71Z"/>
      <path class="cls-6" d="M128.68,125.15c-2.41,9.79-2.43,19.97-.18,29.88l4.58,14.67-90.29-28.71c-2.95-.94-3.72-4.26-4.92-6.77-3.29-18.47,1.79-36.48,9.58-53.28,8.03,3.7,15.25,7.62,22.52,12.07l3.54,1.66c3.5.56,6.74,1.23,10.29,2.22l46.44,12.94c.82.23,2.72.53,2.83,1.63-1.44,4.65-3.21,8.96-4.38,13.7ZM82.9,137.06c3.67,2.7,7.14,5.02,11.38,7.48l.82-12.71,12.31-7.88-13.84-4.57-3.57-12.71-9.36,10.65-14.23-.02,7.59,10.86c-1.96,3.96-3.71,7.86-5.45,12.39l14.35-3.48Z"/>
      <path class="cls-3" d="M57.5,248.26c3.58-4.96-5.17-9.66-10.97-13.86,3.82-3.28,8.26-5.16,12.88-7.16,8.9-3.87,14.95-.45,23.95,2.41l.06,11.86c0,1.55.47,2.94,1.4,3.84,1.06,1.04,2.43,1.19,4.01,1.1,2.14-.12,3.71-1.35,3.7-3.58l-.05-10.57,21.62,6.44c6.49,1.93,12.65,3.83,19.29,5.03,2.35.43,4.44.1,6.02-1.59,1.11-1.18,2.47-3.62,1.75-5.84-1.7-5.18-3.61-10.32-4.1-16.03,5.74,2.03,13.08,4.75,15.4.46.56-1.03.3-2.35-.78-3.07-4.74-3.17-9.98-4.87-15.44-6.54l-.08-12.98,23.91,6.48c9.46,2.56,18.56,4.91,27.68,8.15,2.88,1.03-4.9,7.7-9.24,10.42-9.68,6.06-18.85,12.33-28.1,19.09l-10.96,8.01c-4.08,2.98-8.23,4.88-13.05,6.24-11.81,3.34-23.68,5.51-36.18,5.55-18.53.06-42.37-6.87-58.48-15.37-.49-.26-.95-1-.95-1.36s.48-1,.94-1.25l6.38-3.49c4,2.7,7.57,5.53,11.19,8.62,2.68,2.29,6.17,1.81,8.2-1Z"/>
      <path class="cls-3" d="M219.03,161.08c2.28.88,4.19,1.84,5.09,4.26-7.79,7.47-15.96,14.22-25.29,19.36-5.29,2.92-23.16-3.07-31.02-5.55-1.41-.45-3.86-.98-4.56-2.42-.93-1.88-.72-4.41-.73-6.63l-.21-51.75c1.59.23,2.71.77,4.06,1.69l-.3,40.99c-.03,3.49,1.58,6.96,5.53,7.09,2.26.07,4.22-1.67,6.09-2.7l17.25-9.47c1.89-1.04,3.41-1.4,5.6-.88,6.32,1.5,12.28,3.59,18.49,5.98Z"/>
      <path class="cls-6" d="M174.97,112.79l-36.18-13.57c-2.27-.64-4.23-1.26-6.51-2.62-.15-11.31,1.67-22.55,5.96-33.46,13.66,5.35,27.32,9.43,41.48,13.56-2.83,8.26-3.79,16.27-4.19,24.56l-.56,11.53ZM152.58,91.22l6.1,5.21.6-7.46,7.9-4.53-7.63-3.34-1.44-6.52-5.83,5.59-8.05-.49,3.81,6.24-3.27,6.79,7.8-1.5Z"/>
      <path class="cls-6" d="M175.14,156.67l-.2-34.23c2.99,1.19,5.29.98,7.25-.6,2.15-1.72,3.16-3.7,2.62-6.76-.03-1.14.26-2.21,1.35-2.83l21.83-18.65,8.2,40.07-41.06,23.01ZM197.16,134.66l8.92.2-4.62-7.85,3.99-8.89-9.02,1.99c-2.15-1.95-4.43-3.54-6.8-5.07l-.2,8.82-8.8,6.1,9.13,3.16c.4,3.1.79,5.93,1.9,9.03l5.49-7.49Z"/>
      <path class="cls-6" d="M126.96,17.37c10.25,1.55,3.55,10.96,5.25,21.47-13.07-2.66-25.75-2.86-38.65-.51l-.15-25.01c4.84,2.17,9.56,3.07,14.74,3.56l18.81.49Z"/>
      <path class="cls-5" d="M59.21,278.89c2,9.23,5.34,17.91,11.63,25.52-21.21-4.04-33.77-25.7-37.47-46.57,6.89,2.88,12.95,5.18,19.63,7.02,1.29.36,2.52.83,3.51,1.53l2.7,12.5Z"/>
      <path class="cls-5" d="M187.12,203.38l-49.57-13.74c1.25-3.73,2.84-7.05,4.97-10.3l48.65,15.13-4.06,8.9Z"/>
      <path class="cls-3" d="M144.06,170.46l-5.25-12.04,3.62-5.29c2.78-4.08,6.95-6.33,11.77-6.05l-.32,25.94-9.8-2.56Z"/>
      <path class="cls-5" d="M198.43,206.17c-.76.44-2.77.22-2.46-.51l4.59-10.54c.88-2.02,2.03-3.69,3.97-4.78,7.16-4.04,13.62-8.57,20.56-13.95.54,2.7.52,5.95-.16,8.69-7.27,7.33-15.15,13.76-23.67,19.43l-2.83,1.66Z"/>
      <path class="cls-3" d="M101.33,67.71c4.31,3.3-9.46,7.14-20.37,2.07-.56-.26-.95-.97-.98-1.33-.19-2.81,14.41-6.06,21.35-.74Z"/>
      <path class="cls-3" d="M100.92,83.59c-5.89,5.76-14.39,5.85-20.6.55-1.07-.92-.51-3.24-.24-4.33,7.22,3,14.82,2.61,22.26-.34.38,1.51-.29,3.01-1.42,4.12Z"/>
      <path class="cls-2" d="M176.64,252.8l-9.28,7.48c-1.85,1.49-4.52.51-5.71-1.22-1.36-1.98-.68-4.44,1.25-6l8.93-7.17c1.98-1.59,5.06-1.78,6.68.66,1.35,2.03.04,4.7-1.88,6.25Z"/>
      <path class="cls-2" d="M145.09,278.01c-1.54,1.24-2.69,1.9-4.9,1.26-1.63-.47-3.07-1.6-3.29-3.13-.64-4.46,3.61-4.59,8.91-9.29,1.85-1.64,3.79-2.13,6.01-1.03,1.06.53,2.03,1.36,2.2,2.18.95,4.46-4.78,6.64-8.93,10Z"/>
      <path class="cls-2" d="M192.6,243.42c-1.35,1.06-2.48,1.66-4.05,1.47-2-.24-3.53-1.2-4.06-2.8-1.61-4.86,5.38-6.04,9.91-11.19,2.64-.24,5.7.09,6.69,2.48.68,1.63-.48,3.74-1.71,4.7l-6.78,5.34Z"/>
      <path class="cls-1" d="M79.46,200.72c-4.66,1.41-9.13,2.76-14.16,3.71l5.39-12.28-7.75-10.87,14.31.25,9.03-10.52,3.88,12.29,13.95,4.6-12.5,8.03-.67,12.92-11.48-8.11Z"/>
      <path class="cls-1" d="M82.9,137.06l-14.35,3.48c1.73-4.53,3.49-8.43,5.45-12.39l-7.59-10.86,14.23.02,9.36-10.65,3.57,12.71,13.84,4.57-12.31,7.88-.82,12.71c-4.24-2.46-7.72-4.78-11.38-7.48Z"/>
      <polygon class="cls-1" points="152.58 91.22 144.77 92.72 148.04 85.93 144.23 79.69 152.28 80.18 158.11 74.58 159.55 81.1 167.18 84.44 159.27 88.97 158.67 96.44 152.58 91.22"/>
      <path class="cls-1" d="M197.16,134.66l-5.49,7.49c-1.1-3.09-1.5-5.93-1.9-9.03l-9.13-3.16,8.8-6.1.2-8.82c2.37,1.53,4.65,3.12,6.8,5.07l9.02-1.99-3.99,8.89,4.62,7.85-8.92-.2Z"/>
    </g>
  </g>
</svg>