<?xml version="1.0" encoding="UTF-8"?>
<svg id="Layer_2" data-name="Layer 2" xmlns="http://www.w3.org/2000/svg" viewBox="0 0 289.13 367.66">
  <defs>
    <style>
      .cls-1 {
        fill: #44482b;
      }

      .cls-2 {
        fill: #1a2234;
      }

      .cls-3 {
        fill: #fff;
      }

      .cls-4 {
        opacity: .25;
      }

      .cls-5 {
        fill: #a55648;
      }

      .cls-6 {
        fill: #a77950;
      }
    </style>
  </defs>
  <g id="Ships">
    <g>
      <ellipse class="cls-4" cx="149.88" cy="302.8" rx="141.37" ry="60.06" transform="translate(-55.06 34.19) rotate(-11.01)"/>
      <g>
        <path class="cls-2" d="M165.32,276.04c.89,2.11-.09,4.53-2.2,5.43l-10.93,4.62c-2.1.89-4.54-.1-5.43-2.2l-.15-.35c-.89-2.11.09-4.53,2.2-5.43l10.93-4.62c2.1-.89,4.54.1,5.43,2.2l.15.35h0Z"/>
        <path class="cls-2" d="M198.81,259.66c.98,2.01.16,4.44-1.85,5.43l-12.97,6.38c-2.01.99-4.43.16-5.43-1.85l-.15-.3c-.98-2.01-.16-4.44,1.85-5.43l12.97-6.38c2.01-.99,4.43-.16,5.43,1.85l.15.3h0Z"/>
        <path class="cls-5" d="M66.75,295.06c.1.2-.14.41-.32.27-13.49-10.52-23.48-24.87-26.84-42.06-.09-.46.38-.8.79-.58l12.03,6.7c1.08.6,1.92,1.54,2.38,2.69.75,1.89,1.52,4.87,2.33,8.92,1.35,6.79,2.9,11.77,4.66,14.94,2.46,4.45,4.12,7.48,4.97,9.12h0Z"/>
        <path class="cls-2" d="M211.04,251.9c2.59-1.21,6.11-2.96,10.56-5.26,4.47-2.3,12.13,2.62,6.42,6.68-2.02,1.44-5.74,3.16-11.19,5.18-2.31.86-4.92.25-6.61-1.55l-.11-.13c-1.45-1.54-.97-4.03.94-4.93h0Z"/>
        <path class="cls-2" d="M180.68,228.43c-.28,4.24-6.18,3.07-8.7,1.92-4.56-2.1-8.59-4.36-12.08-6.81-1.7-1.17-2.2-3.48-1.11-5.23l.05-.1c1.07-1.74,3.29-2.36,5.12-1.44,6.14,3.11,11.55,5.86,16.28,10.51.32.3.48.72.44,1.16h0Z"/>
        <path class="cls-5" d="M262.9,213.87c.18-.08.37.08.32.27-4.75,18.77-9.07,37.33-21.73,50.14-2.33,2.35-5.81,4.7-10.44,7.04-29.07,14.62-60.65,29.41-90.89,41.64-2.86,1.16-6.45,1.87-10.8,2.13-15.3.94-29.82-2.39-43.12-10.57-.38-.23-.72-.5-1.04-.8-11.03-10.63-17.94-23.61-20.74-38.92-.05-.29.23-.52.5-.42,6.79,2.68,13.66,4.5,20.61,5.44,21.22,2.87,45.87,2.67,66.05-5.22,20.57-8.03,40.81-16.28,60.71-24.73,12.92-5.5,24.13-12.1,39.44-19.73,3.94-1.97,7.5-4.57,11.14-6.26M210.1,256.83l.11.13c1.69,1.8,4.29,2.41,6.61,1.55,5.45-2.02,9.17-3.75,11.19-5.18,5.72-4.07-1.94-8.98-6.42-6.68-4.45,2.3-7.97,4.05-10.56,5.26-1.91.9-2.39,3.39-.94,4.93M198.66,259.36c-.99-2.01-3.42-2.84-5.43-1.85l-12.97,6.38c-2.01.99-2.83,3.41-1.85,5.43l.15.3c.99,2.01,3.42,2.84,5.43,1.85l12.97-6.38c2.01-.99,2.83-3.41,1.85-5.43l-.15-.3M165.18,275.69c-.89-2.1-3.32-3.1-5.43-2.2l-10.93,4.62c-2.11.89-3.09,3.32-2.2,5.43l.15.35c.89,2.1,3.32,3.1,5.43,2.2l10.93-4.62c2.11-.89,3.09-3.32,2.2-5.43l-.15-.35h0Z"/>
        <path class="cls-6" d="M105.23,235.9c0-.34.37-.57.67-.42,9.07,4.69,19.5,10.18,29.26,13.27,5.54,1.75,10.36-2.38,8.25-8.11-3.72-10.13-5.43-20.14-5.12-30.04.01-.44.36-.79.8-.8,8.08-.11,15.43-2.5,22.02-7.17,1.49-1.03,3.05-1.18,4.71-.46,7.69,3.39,23.15,10.58,46.39,21.6,1.69.8,3.37,1.73,5.03,2.78.41.25.42.84.03,1.12-3.32,2.38-6.54,4.23-9.68,5.55-13.63,5.73-29.62,10.98-43.78,17.33-5.36,2.4-13.86,6.49-20.52,8.28-12.07,3.25-23.84,3.75-37.2,3.86-14.66.14-28.54-2.35-41.1-7.66-9.34-3.93-18.21-8.64-26.5-14.83-.76-.57-.61-1.74.27-2.11l3-1.23c1.18-.48,2.53-.28,3.52.52,1.7,1.38,4.38,3.62,8.06,6.71,2.44,2.05,6.28.86,7.34-2.06,1.27-3.53-2.41-6.53-5.2-8.67-.36-.27-.29-.83.13-1,9.5-3.91,16.44-6.48,20.81-7.69,3.13-.86,5.97-.75,9.2.72,4.15,1.89,7.42,3.56,9.81,4.97.7.42,1.12,1.17,1.12,1.98v10.48c0,2.43,1.96,4.38,4.38,4.38h.88c1.91,0,3.44-1.54,3.44-3.44v-7.89M180.24,227.27c-4.73-4.65-10.14-7.39-16.28-10.51-1.83-.93-4.05-.3-5.12,1.44l-.05.1c-1.09,1.75-.6,4.07,1.11,5.23,3.49,2.45,7.52,4.71,12.08,6.81,2.53,1.16,8.42,2.33,8.7-1.92.04-.43-.13-.85-.44-1.16h0Z"/>
        <path class="cls-5" d="M265.98,194.81l-.41,6.65c-.08,1.21-.75,2.3-1.78,2.91-11.36,6.77-22.12,12.19-32.3,16.26-1.7.67-3.21.93-4.55.75-.93-.13-1.41-1.17-.91-1.96l5.86-9.4c1.05-1.69,2.64-2.97,4.5-3.66,10.36-3.79,19.75-7.94,28.19-12.45.66-.36,1.45.17,1.4.9h0Z"/>
        <path class="cls-5" d="M168.98,194.08l4.93-9.64c.1-.2.37-.29.57-.19l47.42,24.22c.23.11.3.41.17.62l-4.68,7.17c-.11.18-.34.24-.55.15l-47.66-21.73c-.22-.1-.32-.37-.2-.6h0Z"/>
        <path class="cls-6" d="M191.08,161.85c.36-.13.74.14.74.53v18.98c0,.52-.55.86-1.02.65l-13.53-6.16c-.32-.15-.46-.52-.32-.84,3.02-6.51,7.74-10.89,14.13-13.16h0Z"/>
        <path class="cls-3" d="M131.53,194.03c-2.5,8.35-2.37,17.29-2.06,26.63.15,4.89.99,10.34,2.5,16.38.07.25-.19.48-.44.39-3.3-1.25-7.03-2.92-11.17-5-17.7-8.89-32.43-16.25-44.17-22.06-7.17-3.55-13.22-6.53-18.16-8.93-3.94-1.92-5.71-4.36-6.7-8.81-.29-1.28-.54-2.56-.76-3.83-2.65-15.49-.04-30.06,7.82-43.69.33-.57,1.06-.79,1.64-.47l50.29,26.52,24.88,13.12c.31.16.42.54.24.83-1.74,2.89-3,5.86-3.91,8.92Z"/>
        <path class="cls-6" d="M200.07,133.1c0-.7.76-1.14,1.37-.79l1.82,1.04c.9.53,1.46,1.5,1.47,2.54.11,16.31.15,29.31.13,38.98-.01,4.61,3.32,7.12,7.86,5.32,8.41-3.29,17.09-6.44,26.05-9.44,2.15-.72,4.33-.62,6.56.28,2.03.83,6.28,2.92,12.73,6.26,2.43,1.27,4.49,2.67,6.15,4.19.89.83.76,2.27-.28,2.92-10.18,6.26-20.96,11.49-32.34,15.67-5.82,2.13-22.43-6.61-28.16-9.77-2.52-1.4-3.06-1.89-3.1-4.85-.22-19.9-.3-37.36-.27-52.36h0Z"/>
        <path class="cls-3" d="M259.42,152.75l-33.42,13.03-10.86,4.23c-.83.32-1.71-.27-1.71-1.15v-32.15c0-.43.22-.82.59-1.05l34.79-22,2.6-1.65c.75-.47,1.73-.04,1.89.83l2.84,15.89,4.05,22.64c.1.59-.21,1.16-.77,1.38Z"/>
        <path class="cls-6" d="M118.35,81.19c.27,1.64-.44,3.02-2.13,4.14-6.49,4.29-12.81,4.42-18.93.37-1.92-1.27-2.06-2.11-1.89-4.21.05-.55.58-.9,1.11-.72,7.38,2.46,14.42,2.46,21.13,0,.32-.11.67.09.72.42h0Z"/>
        <path class="cls-3" d="M131.94,134.35c-2.72,12.46-1.31,24.55,4.24,36.25.9,1.89,1.5,3.25,1.8,4.09.11.27-.17.51-.41.38-19.5-10.13-39.58-20.71-60.25-31.73-4.81-2.57-9.65-5.15-14.52-7.77-4.61-2.47-6.53-8.41-6.99-15.02-.6-8.74,1.35-18.64,2.96-23.12,2.53-7.03,5.89-13.93,10.09-20.69.16-.24.46-.31.7-.15,6.09,4.15,11.42,8.69,16.02,13.63,1.21,1.28,2.69,2.3,4.34,2.95,8.08,3.18,16.22,6.55,24.39,10.11s16.39,7.3,24.65,11.23c.49.23.69.81.46,1.29-1.45,3.16-3.28,6.93-4.82,10.63-1.15,2.77-2.13,5.51-2.66,7.92Z"/>
        <path class="cls-3" d="M209.27,89.88c-.37,1.07-.73,2.13-1.08,3.18-1.97,6.07-3.31,11.93-3.6,18.42-.08,1.66-.09,5.84-.05,12.54,0,.2-.22.33-.4.21-6.79-4.37-14.32-8.88-22.6-13.52-2.33-1.31-4.73-2.63-7.18-3.96-2.63-1.42-4.52-3.06-5.67-4.93-.3-.48-.45-1.04-.45-1.61v-.25c.08-10.17,2.29-19.64,6.62-28.46.23-.45.79-.62,1.22-.36,6.12,3.64,12.65,7.19,19.6,10.65,4.09,2.03,8.32,4.03,12.7,6,.78.36,1.18,1.26.89,2.09Z"/>
        <path class="cls-6" d="M97.07,68.95c.15-1.99,5.09-3.23,11.03-2.79,5.94.45,10.63,2.42,10.49,4.41-.15,1.99-5.09,3.23-11.03,2.79-5.94-.45-10.63-2.42-10.49-4.41h0Z"/>
        <path class="cls-1" d="M147.68,43.06c.01.29-.25.51-.53.42-11.38-3.54-23.96-5.41-35.91-4.7-.42.03-.76-.3-.76-.72V15.11c0-.43.47-.7.84-.48,8.65,5.04,17.25,5.34,29.41,6.71,6.15.7,8.65,4.14,7.52,10.33-.67,3.67-.86,7.47-.57,11.4h0Z"/>
        <path class="cls-2" d="M266.46,236.6c-5.06,17.93-15.02,34.84-32.4,43.15-39.07,18.67-63.76,30.28-74.08,34.83-12.66,5.58-24.32,9.4-37.53,9.08-11.42-.27-22.46-2.66-33.14-7.15-16.98-7.15-27.28-11.5-38.84-23.48-13.43-15.01-19.06-31.56-22.26-51.22-.91-5.69.09-9.12,5.3-10.98.61-.22.72-1.04.19-1.41l-31.64-22.5c-2.12-1.51-2.69-4.42-1.3-6.62l.09-.13c1.59-2.34,4.79-2.9,7.08-1.25l38.55,27.78c.41.29.93.36,1.38.17l21.45-8.82c.33-.14.34-.6.03-.76-6.09-3.01-11.5-5.73-16.25-8.16-8.27-4.23-10.41-12.35-11.64-21.19-2.36-17.03.86-33.32,9.68-48.87.32-.57.32-1.27,0-1.84-6.28-11.22-5.23-27.9-1.69-40.14,2.71-9.36,8.3-21.24,14.87-29.64,2.1-2.68,5.96-1.87,8.81.24,5.25,3.86,10.79,7.46,14.31,11.66.22.27.65.13.69-.22.71-7.57-2.2-15.7,8.56-18.75,2.11-.6,3.47-1.05,4.09-1.37.37-.19.61-.55.64-.95.19-2.48.27-4.93.25-7.33-.04-7.5-.05-22.32-.03-44.47,0-2.08.34-4.57,2.38-5.53,2.36-1.12,4.31-.94,5.84.53,4.8,4.59,8.36,7.26,15.3,8.35,6.11.97,12.54,1.3,18.74,2.6,8.73,1.83,14.7,8.95,13.65,17.97-.27,2.34-.44,3.8-.53,4.37-.61,4.26.34,7.97,1.44,12.71,1.27,5.5-3.44,9.69-8.55,7.59-12.48-5.17-25.13-7.32-37.97-6.47-.78.05-1.37.7-1.37,1.47v6.53c0,.71.55,1.31,1.26,1.37,7.05.64,16.48,4.57,16.21,12.86-.29,9.31.58,15.3-2.54,19.47-.17.23-.29.48-.38.75l-1.87,5.76c-.14.43.08.9.48,1.08.93.41,6.66,2.9,17.18,7.47,1.98.85,3.95,1.87,5.9,3.02,3.06,1.83,3.85,4.45,2.35,7.87-3.74,8.53-5.71,13.02-5.92,13.49-7.34,17.04-2.24,32.49,6.06,47.94,1.77,3.28,1.21,5.62-1.66,8.34-4.04,3.82-6.73,8.77-8.07,14.84-.08.3.18.6.5.58,9.8-.47,17.48-4.73,23.04-12.77.97-1.4,2.2-5.01,3.71-10.81.29-1.14.71-2.26,1.26-3.32,4.89-9.49,11.73-18.13,22.86-21.07.52-.14.89-.62.89-1.17v-22.86c0-1.16-.58-2.22-1.56-2.85-6.01-3.77-12.64-7.53-19.91-11.26-5.44-2.78-10.1-5.63-10.51-12.13-.75-12.12,1.45-23.58,6.59-34.4,2.12-4.46,6.11-11.52,11.55-7.99,5.93,3.85,10.5,6.76,13.66,8.73.36.22.81-.04.81-.46v-15.63c0-2.36,2.02-4.23,4.37-4.04l.41.03c2.33.05,4.18,1.94,4.19,4.27l.06,19.75c.01.7.41,1.33,1.04,1.64,5.41,2.54,10.06,4.8,13.94,6.8,5.93,3.05,2.49,9.5.39,15.15-3.35,8.98-3.99,18.61-3.2,28.39.03.23.28.36.47.23,11.13-7.5,23.42-15.23,36.85-23.23,1.92-1.13,3.86-2.19,5.95-1.23,2.31,1.07,3.67,2.8,4.08,5.17,2.92,17.06,5.65,32.55,8.21,46.44.27,1.42.19,2.76-.2,3.99-.13.41-.36.78-.69,1.07-3.94,3.61-10.53,5.29-15.12,7.09-.33.13-.34.58-.04.75,7.86,4.37,12.64,7.06,14.36,8.09,2.29,1.38,4.14,2.83,5.55,4.37.5.53.83,1.21.95,1.92.62,3.38.85,6.73.69,10.08-.76,16.05-3.51,31.6-8.22,46.66M147.68,43.06c-.29-3.93-.1-7.73.57-11.4,1.13-6.19-1.37-9.63-7.52-10.33-12.16-1.37-20.76-1.66-29.41-6.71-.37-.22-.84.05-.84.48v22.95c0,.42.34.75.76.72,11.94-.71,24.52,1.16,35.91,4.7.28.09.55-.13.53-.42M97.07,68.95c-.14,1.99,4.54,3.96,10.49,4.41,5.94.44,10.88-.8,11.03-2.79.14-1.99-4.54-3.96-10.49-4.41-5.94-.44-10.88.8-11.03,2.79M204.54,124.02c-.04-6.7-.03-10.88.05-12.54.34-7.61,2.13-14.36,4.68-21.6.29-.83-.1-1.73-.89-2.08-11.82-5.32-22.58-10.88-32.3-16.66-.43-.25-.99-.09-1.22.37-4.37,8.88-6.58,18.45-6.62,28.7,0,.57.15,1.13.46,1.61,1.14,1.87,3.04,3.51,5.67,4.93,11.14,6.05,21.07,11.88,29.78,17.48.18.11.39-.01.39-.22M137.99,174.69c-.3-.84-.9-2.2-1.8-4.09-5.55-11.7-6.96-23.79-4.24-36.25,1.23-5.63,4.94-13.02,7.48-18.55.23-.48.03-1.05-.46-1.28-16.52-7.86-32.87-14.98-49.05-21.35-1.65-.65-3.13-1.66-4.33-2.95-4.6-4.94-9.94-9.48-16.02-13.63-.24-.15-.55-.09-.7.15-4.21,6.76-7.56,13.66-10.09,20.69-2.83,7.88-6.7,32.4,4.03,38.14,25.82,13.85,50.74,27.01,74.76,39.5.24.13.52-.11.42-.38M117.62,80.77c-6.71,2.46-13.75,2.46-21.13,0-.52-.18-1.05.18-1.11.72-.17,2.1-.03,2.94,1.89,4.21,6.12,4.05,12.44,3.93,18.93-.37,1.69-1.12,2.4-2.5,2.13-4.14-.05-.33-.41-.53-.72-.42M253.31,112.84c-.17-.86-1.14-1.3-1.89-.83l-37.39,23.65c-.37.23-.58.62-.58,1.05v32.15c0,.88.88,1.47,1.7,1.16l44.28-17.27c.56-.22.88-.79.78-1.37l-6.89-38.54M200.07,133.1c-.04,15.01.05,32.46.27,52.36.04,2.96.58,3.46,3.1,4.85,5.73,3.16,22.34,11.91,28.16,9.77,11.37-4.18,22.16-9.4,32.34-15.67,1.04-.65,1.17-2.1.28-2.92-1.66-1.52-3.72-2.92-6.15-4.19-6.45-3.34-10.7-5.44-12.73-6.26-2.22-.9-4.41-1-6.56-.28-8.96,3-17.64,6.15-26.05,9.44-4.55,1.79-7.88-.71-7.86-5.32.03-9.67-.01-22.67-.13-38.98-.01-1.04-.57-2.01-1.47-2.54l-1.82-1.04c-.61-.36-1.37.09-1.37.79M131.98,237.04c-1.51-6.04-2.35-11.49-2.5-16.38-.42-12.76-.51-24.76,5.97-35.55.18-.29.06-.67-.24-.83l-75.17-39.64c-.58-.32-1.31-.1-1.64.47-8.5,14.75-10.86,30.6-7.06,47.52.99,4.45,2.76,6.89,6.7,8.81,13.05,6.34,33.82,16.67,62.34,30.99,4.14,2.08,7.87,3.75,11.17,5.01.25.09.51-.14.44-.39M191.08,161.85c-6.39,2.27-11.11,6.66-14.13,13.16-.14.32,0,.69.32.84l13.53,6.16c.47.22,1.02-.13,1.02-.65v-18.98c0-.39-.38-.66-.74-.53M168.98,194.08c-.11.23-.01.5.2.6l47.66,21.73c.2.09.43.03.55-.15l4.68-7.17c.14-.22.06-.51-.17-.62l-47.42-24.22c-.2-.1-.47-.01-.57.19l-4.93,9.64M265.98,194.81c.05-.74-.74-1.26-1.4-.9-8.45,4.51-17.84,8.67-28.19,12.45-1.86.69-3.44,1.97-4.5,3.66l-5.86,9.4c-.5.79-.01,1.83.91,1.96,1.33.18,2.85-.08,4.55-.75,10.18-4.08,20.94-9.49,32.3-16.26,1.03-.61,1.7-1.7,1.78-2.91l.41-6.65M105.23,235.9v7.89c0,1.91-1.54,3.44-3.44,3.44h-.88c-2.43,0-4.38-1.96-4.38-4.38v-10.48c0-.81-.42-1.56-1.12-1.98-2.39-1.41-5.65-3.07-9.81-4.97-3.23-1.47-6.07-1.59-9.2-.72-4.37,1.21-11.31,3.77-20.81,7.69-.42.18-.48.74-.13,1,2.78,2.13,6.47,5.13,5.2,8.67-1.07,2.92-4.9,4.1-7.34,2.06-3.67-3.09-6.35-5.32-8.06-6.71-.99-.8-2.34-1-3.52-.52l-3,1.23c-.88.37-1.03,1.54-.27,2.11,8.3,6.19,17.17,10.9,26.5,14.83,12.57,5.31,26.44,7.8,41.1,7.66,13.37-.11,25.13-.61,37.2-3.86,6.66-1.79,15.16-5.88,20.52-8.28,14.17-6.35,30.15-11.6,43.78-17.33,3.14-1.32,6.37-3.18,9.68-5.55.39-.28.38-.86-.03-1.12-1.66-1.05-3.34-1.98-5.03-2.78-23.24-11.02-38.7-18.21-46.39-21.6-1.66-.72-3.23-.57-4.71.46-6.59,4.66-13.94,7.05-22.02,7.17-.44.01-.79.36-.8.8-.3,9.9,1.4,19.91,5.12,30.04,2.11,5.73-2.71,9.86-8.25,8.11-9.76-3.09-20.19-8.58-29.26-13.27-.3-.15-.67.08-.67.42M262.9,213.87c-3.65,1.69-7.2,4.29-11.14,6.26-15.31,7.64-26.52,14.23-39.44,19.73-19.9,8.45-40.14,16.7-60.71,24.73-20.18,7.89-44.83,8.09-66.05,5.22-6.95-.94-13.82-2.76-20.61-5.44-.27-.1-.55.13-.5.42,2.8,15.31,9.71,28.28,20.74,38.92.32.3.66.57,1.04.8,13.3,8.18,27.83,11.51,43.12,10.57,4.35-.27,7.94-.98,10.8-2.13,30.24-12.22,61.81-27.01,90.89-41.64,4.64-2.34,8.12-4.69,10.44-7.04,12.66-12.81,16.98-31.37,21.73-50.14.05-.19-.14-.34-.32-.27M66.75,295.06c-.85-1.64-2.5-4.68-4.97-9.12-1.77-3.18-3.32-8.16-4.66-14.94-.8-4.05-1.58-7.03-2.33-8.92-.46-1.16-1.3-2.1-2.38-2.69l-12.03-6.7c-.41-.22-.88.13-.79.58,3.35,17.19,13.34,31.54,26.84,42.06.18.14.42-.06.32-.27h0Z"/>
      </g>
      <path class="cls-1" d="M139.42,115.8c-1.45,3.16-3.28,6.93-4.82,10.63l-57.28,16.91c-4.81-2.57-9.65-5.15-14.52-7.77-4.61-2.47-6.53-8.41-6.99-15.02l58.5-17.27c8.17,3.56,16.39,7.3,24.65,11.23.49.23.69.81.46,1.29Z"/>
      <path class="cls-1" d="M135.44,185.11c-1.74,2.89-3,5.86-3.91,8.92l-55.34,16.34c-7.17-3.55-13.22-6.53-18.16-8.93-3.94-1.92-5.71-4.36-6.7-8.81-.29-1.28-.54-2.56-.76-3.83l59.75-17.64,24.88,13.12c.31.16.42.54.24.83Z"/>
      <path class="cls-1" d="M209.27,89.88c-.37,1.07-.73,2.13-1.08,3.18l-26.65,17.65c-2.33-1.31-4.73-2.63-7.18-3.96-2.63-1.42-4.52-3.06-5.67-4.93-.3-.48-.45-1.04-.45-1.61v-.25l27.44-18.17c4.09,2.03,8.32,4.03,12.7,6,.78.36,1.18,1.26.89,2.09Z"/>
      <path class="cls-1" d="M256.14,128.73l-30.14,37.05-10.86,4.23c-.83.32-1.71-.27-1.71-1.15v-11.72l35.38-43.48,2.6-1.65c.75-.47,1.73-.04,1.89.83l2.84,15.89Z"/>
    </g>
  </g>
</svg>