<?xml version="1.0" encoding="UTF-8"?>
<svg id="Layer_2" data-name="Layer 2" xmlns="http://www.w3.org/2000/svg" viewBox="0 0 245.79 377.97">
  <defs>
    <style>
      .cls-1 {
        fill: #293246;
      }

      .cls-2 {
        fill: #fff;
      }

      .cls-3 {
        fill: #5f615f;
      }

      .cls-4 {
        fill: #1a2234;
      }

      .cls-5 {
        fill: #bfbfbf;
      }

      .cls-6 {
        fill: #a77950;
      }

      .cls-7 {
        fill: #805135;
      }

      .cls-8 {
        fill: #3e4152;
      }

      .cls-9 {
        fill: #a55648;
      }
    </style>
  </defs>
  <g id="Layer_2-2" data-name="Layer 2">
    <g id="Generative_Object_75_0_" data-name="Generative Object (75, 0)">
      <path class="cls-4" d="M212.04,271.56c-3.38,20.81-11.32,42.45-32.83,50.4-7.79,2.88-15.72,4.68-23.94,6.41-6.97,1.46-13.54,2.97-20.76,3.09-9.88.16-19.68-2.32-27.25-8.58-5.33-4.41-9.61-9.52-14.23-14.78l-38.87-44.21c-6.34-7.21-10.06-15.85-12.85-24.71-5.99-19.05-9.28-51.11-8.99-71.72.06-4.54,2.81-7.45,6.98-8.53l26.03-6.78-10.96-11.59c-1.37-1.45-1.85-3.77-1.58-5.77l1.25-9.36,4.52-35.24c.44-3.43,2.56-5.84,6.16-5.85-1.48-5.45-1-10.14,4.11-11.15l20.41-4.01.07-20.17c0-1.93,2.78-2.62,4.18-2.7s4.47.79,4.52,2.75l.45,18.28,17.34-4.19c3.77-.91,7.43-.5,8.77,3.58l2.78,8.49c3.46-3.32,6.35-3.28,10.12-4.67l-.11-53.81c0-1.95,1.62-3.34,2.31-4.06,1.85-1.07,3.6-.74,5.54-.22,2.6-1.39,4.55-3.52,6.75-5.51C156.34,2.94,161.58.03,167.57,0c3.74-.02,7.6,1.29,9.23,4.7,3.12,6.53-2.57,14.47-.17,20.07,1.47,3.41,2.55,7.15.43,10.58-3.1,5.04-14.65,4.24-20.71,11.85l-9.62,12.08.3,10.68c7.38.69,17.12,4.21,17.25,11.51.09,5.27.09,10.32.67,15.71l30.18-9.71c2.88-.93,5.77.58,7.04,3.11,3.78,7.58,6.45,15.24,8.71,23.5,3.1,11.3,4.69,22.68,3.4,34.27-.5,4.48-1.48,8.57-3.73,12.68,5.21,12.98,8.65,26.29,9.07,40.32.24,7.94-.56,24.41-6.53,26.12l-19.54,5.61,6.98,5.75,9.8,9.87c3.45,3.48,4.08,8.2,3.31,12.9l-1.62,9.96ZM153.88,36.68c4.24-2.93,8.8-4.6,13.52-6.49-1.11-6.15-.49-11.85.85-17.65.19-.82.1-1.82-.35-2.34-.4-.46-1.21-.52-2.25-.57-2.4.64-4.4,2.44-6.32,4.27-3.87,3.69-7.75,6.92-12.87,8.6l.15,21.88c2.07-3.29,4.35-5.42,7.28-7.7ZM101.21,78.05c.33-.44.91-.85,1.26-2.03l-29.21,5.99c.74,4.28,1.19,8.37,1.48,12.8l1.14,17.06c.02.25.05.36-.22.68-.47.57.3,1.01.3,1.26,0,.83-.55,2.54.22,3.6l16.01-3.38.73-.76.66.33,9.41-2.44,20.24-4.63-3.04-21.84-.95-4.57-2.28-7.57-13.4,3.09c-.37,1.34-1.27,2.14-2.35,2.41ZM155.74,82.39c-5-6.61-23.63-3.54-22.52-.09,1.26,3.91,19.04,5.2,22.52.09ZM154.16,97.86c1.47-1.17,2.17-3.13,1.54-4.87-7.44,2.97-15.28,3.09-22.51-.22-1.14,2.33.06,3.92,1.81,5.22,5.79,4.3,13.48,4.4,19.17-.13ZM163.45,107.02c-7.48,2.32-14.98,4.1-22.83,5.89l-38.5,8.1c6.42,16.36,9.8,29.82,5.69,47.24.8.17,1.06-.41,1.46-.65.59,1.04-1.11,1.37-1.49,1.96-1.27,4.14-2.48,7.65-4.25,11.81l29.53-7.58c.06.39.55.3.52.2-.05-.18.23-.67.35-.51.54.73,1.5-.03,2.04-.35l66.73-18.09c5.65-13.3,1.79-31.76-2.4-45.13-1.35-4.3-2.87-8.59-5.1-12.74-1.6.14-2.75.91-4.13,1.35l-19.05,6.12c-2.1.68-5.45,1.3-7.21,2.4-.15.1-.54-.17-.65-.28-.16-.16-.67.08-.71.27ZM64.2,118.2l-.71-.08-1.99,16.95,10.56,12.08c.52.6.94.89,1.6,1.58l11.2,11.6c.45-3.41-.09-6.55-.94-9.45.92-.37.54-1.22-.24-1.01-.25.07-.05-.74.44-.81.19.04.2.41.76.99-.08-8.28-1.38-16.46-4.43-24.33l-4.21,1.11,1.5,4.38c-1.73-.57-1.26-2.81-2.06-4.39-3.17,1.46-6.49,2.25-9.17.19l-1.39-5.13c.24-.07.98.06.95.33-.02.19-.51.9.42,1.09l.15-9.66-.71-9.76-1.49,10.77c-.09.66.5,1.63-.02,2.74-.1-.36-.47-.79-1.1-.48l.88,1.31ZM92.77,161.48c.46-.17.38-.41.39-.74l.09-32.4c0-1.78.37-3.58-1.57-4.54.4,2.05.51,3.36.52,5.02l.26,25.95.31,6.71ZM99.6,147.61l-.25,7.49c-.07,2.13-.21,4.29-.11,6.31h.74s.09-15.63.09-15.63c0-1.46,0-2.8-.8-4.2l-.14,5.62c0,.37.28.48.47.41ZM97.61,170.84c-2.29,1.11-3.67,1.21-5.65.33-1.64,1.54-4.89,2.54-6.63.85l-13.59-13.24c-9.98,1.99-19.26,4.32-28.55,7.23-.77.24-1.46.95-1.76,1.38-.38.54-.01,1.55.44,2.18,5.39,7.4,11.27,14.19,17.79,20.78,3.51.95,6.94.66,10.53-.01l21.59-4.05c.1-5.16,4.53-9.56,5.82-15.45ZM169.45,174.69c.13-.15.6-.44.38-1.03l-33.29,9.16-30.77,7.78c4.84,10.47,6.44,21.2,6.51,32.38l-.74,14.38-2.12,8.79,8.17-1.89,25.54-7.13,1.14-.08c.24-.02.37-1.02.78-.37l60.52-17.01c1.09-.45,2.95-.49,3.34-1.77,3.56-11.73,1.01-29.51-2.73-42.01l-6.29,7.67c1.79-2.96,4.36-5.26,5.68-8.64-.73-3.47-1.8-6.7-3.56-9.97l-31.7,8.69c.4.55.08,1.02-.13,1.13-.16.09-.41.11-.72-.1ZM60.88,210.28c-2.15-3.99-3.39-8.09-4.6-12.46l-9.16-9.19-6.74-7.03c.34,2.15-.48,4.9.66,6.82,4.92,8.24,11.45,15.34,17.76,22.48.3.34,1.16.3,1.44.22s.79-.56.65-.83ZM70.22,209.74l30.48-6.44c-.98-3.84-2.41-7.22-4.63-10.48-10.01,2.02-19.65,4.3-29.88,7.22,1.49,3.26,2.96,6.2,4.03,9.69ZM160.38,297.12l2.63-15.74c-18.4,3.13-37.03,1.1-53.84-6.29-3.63-1.59-6.6-3.61-9.27-6.42l-15.47-16.25-15.69-16.01c-6.09-6.21-10.96-13.1-16.35-19.91l-8.75-11.08,2.82,17.95c1.7,10.78,5.17,20.95,10.85,30.41,2.17,3.61,4.9,6.35,7.64,9.43l32.45,36.43c5.96,6.58,11.58,12.79,18.07,18.83,9.99,5.5,21.83,5.57,32.28,1.01l4.41-3.96c4.1-5.5,7.13-11.67,8.25-18.38ZM192.62,244.23l-9.87-8.02-22.47,6.27-.05,12.67c0,2.27-1.51,3.49-3.67,3.83s-4.83-.46-4.91-2.98l-.35-11.08-36.96,9.8c-5.07,1.34-10.53,2.42-13.48-1.19-1.38-1.68-2.04-4.29-1.53-6.62,1.27-5.79,3.01-11.32,3.38-17.22-2.47.44-4.61,1.26-6.34.36-1.26-.66-2.12-2.06-2.13-3.12,0-1.38.9-2.46,2.3-2.79l6.87-1.65-.95-11.36-27.09,6.06c-2.91.65-5.72,1.22-8.58,2.65,1.45,3.68,3.91,6.35,6.65,9.15l20.85,21.33,11.12,11.9c2.35,2.52,4.9,3.98,8.1,5.26,18.43,7.4,38.33,8.02,57.65,3.22,10.98-2.73,21.47-5.37,31.72-10.15,1.03-.48,3.32-1.81,2.42-3.05l-4.95-6.74c-1.18,1.47-2.47,1.48-3.63,2.26l-7.4,4.99c-2.53,1.71-4.81,3.38-6.81,5.64-1.6,1.81-4.73,1.89-6.42.71-2.21-1.54-2.81-4.2-1.72-6.57.41-.89.79-1.9,1.65-2.55,5.29-4.07,10.74-7.59,16.6-11.01ZM200.26,283.45c.1.31.42.22.43-.02l2.93-12.77c-.63-.37-.91.16-1.17.35-.52.39-.33,1.06-.42,1.61l-1.77,10.83ZM161.86,317.48c11.17-1.51,18.09-5.26,23.13-15.56,4.31-8.52,6.73-17.6,7.82-27.49l-20.4,5.45-2.82,17.69c-1.26,7.08-3.84,13.3-7.72,19.91ZM197.09,293.87c1.21-1.07,1.72-2.57,1.69-4.29-.88,1.33-1.48,2.5-1.69,4.29Z"/>
      <path class="cls-3" d="M212.04,271.56c.1.54,0,1.24.47,1.63,14,11.37,27.61,26.78,32,43.91,3.74,14.56-.85,28.93-12.01,38.85-18.3,16.27-48.19,21.82-72.78,22-32.67.24-64.77-6.82-94.18-20.21C37.51,345,2.95,319.58.16,287.47c-.51-5.88.23-11.75,2.36-17.24,6.58-16.91,22.6-25.74,38.79-31.05,2.78,8.86,6.51,17.5,12.85,24.71l38.87,44.21c4.62,5.26,8.9,10.37,14.23,14.78,7.57,6.26,17.37,8.74,27.25,8.58,7.22-.12,13.79-1.62,20.76-3.09,8.23-1.73,16.15-3.53,23.94-6.41,21.51-7.95,29.45-29.59,32.83-50.4Z"/>
      <path class="cls-9" d="M160.38,297.12c-1.12,6.71-4.15,12.88-8.25,18.38l-4.41,3.96c-10.44,4.56-22.28,4.49-32.28-1.01-6.49-6.04-12.1-12.25-18.07-18.83l-32.45-36.43c-2.74-3.07-5.47-5.82-7.64-9.43-5.68-9.46-9.16-19.62-10.85-30.41l-2.82-17.95,8.75,11.08c5.38,6.82,10.26,13.7,16.35,19.91l15.69,16.01,15.47,16.25c2.67,2.81,5.64,4.83,9.27,6.42,16.82,7.38,35.44,9.42,53.84,6.29l-2.63,15.74ZM68.82,244.13c-2.3-3.48-5.28-6.76-8.49-9.3-1.35-1.06-4.61.06-5.56,1.14-1.46,1.64-.97,4.28.44,5.7l6.87,6.91c1.32,1.32,3.54.87,4.87-.04,1.02-.7,2.95-2.77,1.87-4.4ZM86.76,262.18l-6.44-7.46c-1.6-1.85-2.88-3.13-5.44-2.56-1.43.32-2.64,1.27-3.05,2.6s.03,2.92,1.1,4.13l8.61,9.78c1.59,1.8,4.44.88,5.75-.75s1.13-3.81-.52-5.73ZM105.42,283.04l-7.7-8.16c-1.28-1.36-4.94,0-5.83,1.36-1.46,2.23-.15,4.36,1.34,5.95l5.81,6.18c1.58,1.68,3.98,1.83,5.86.39,1.4-1.08,2.32-3.81.52-5.72Z"/>
      <path class="cls-6" d="M192.62,244.23c-5.87,3.41-11.32,6.94-16.6,11.01-.85.66-1.24,1.66-1.65,2.55-1.1,2.38-.49,5.03,1.72,6.57,1.69,1.18,4.82,1.1,6.42-.71,1.99-2.26,4.28-3.93,6.81-5.64l7.4-4.99c1.16-.78,2.45-.79,3.63-2.26l4.95,6.74c.91,1.24-1.39,2.57-2.42,3.05-10.25,4.78-20.74,7.42-31.72,10.15-19.32,4.8-39.22,4.18-57.65-3.22-3.2-1.29-5.75-2.75-8.1-5.26l-11.12-11.9-20.85-21.33c-2.74-2.8-5.2-5.48-6.65-9.15,2.86-1.43,5.68-2,8.58-2.65l27.09-6.06.95,11.36-6.87,1.65c-1.4.34-2.3,1.41-2.3,2.79,0,1.06.87,2.46,2.13,3.12,1.72.9,3.87.09,6.34-.36-.37,5.9-2.11,11.44-3.38,17.22-.51,2.33.16,4.94,1.53,6.62,2.96,3.61,8.42,2.53,13.48,1.19l36.96-9.8.35,11.08c.08,2.52,2.72,3.32,4.91,2.98s3.66-1.56,3.67-3.83l.05-12.67,22.47-6.27,9.87,8.02Z"/>
      <path class="cls-1" d="M200.29,109.9c-.16-.03-.47.01-.73.33-18.85,22.72-40.15,44.69-63.81,61.95l-1.82,1.28c-.11-.16-.39.34-.35.51.03.1-.46.19-.52-.2l-29.53,7.58c1.77-4.16,2.98-7.67,4.25-11.81.38-.58,2.08-.91,1.49-1.96,19.63-18.15,37.81-38.19,54.3-59.8.45-.26.27-.67-.12-.78.04-.19.55-.44.71-.27.11.11.49.38.65.28,1.75-1.09,5.1-1.72,7.21-2.4l19.05-6.12c1.37-.44,2.53-1.22,4.13-1.35,2.23,4.14,3.75,8.44,5.1,12.74Z"/>
      <path class="cls-1" d="M199.89,183.58c-16.95,19.09-34.59,37.7-54.83,53.12-.41-.65-.54.35-.78.37l-1.14.08-25.54,7.13-8.17,1.89,2.12-8.79c6.44-5.41,12.29-11.07,18.33-17.24,14.19-14.5,27.21-29.65,39.58-45.44.31.2.56.18.72.1.21-.11.53-.58.13-1.13l31.7-8.69c1.76,3.27,2.83,6.5,3.56,9.97-1.33,3.38-3.89,5.68-5.68,8.64Z"/>
      <path class="cls-2" d="M169.45,174.69c-12.37,15.79-25.39,30.94-39.58,45.44-6.04,6.18-11.89,11.83-18.33,17.24l.74-14.38c-.06-11.19-1.66-21.91-6.51-32.38l30.77-7.78,33.29-9.16c.21.59-.25.88-.38,1.03Z"/>
      <path class="cls-2" d="M135.97,173.11l-.22-.93c23.67-17.27,44.96-39.24,63.81-61.95.26-.31.57-.36.73-.33,4.2,13.36,8.05,31.83,2.4,45.13l-66.73,18.09Z"/>
      <path class="cls-2" d="M163.45,107.02c.4.1.57.52.12.78-16.49,21.61-34.67,41.64-54.3,59.8-.4.24-.66.82-1.46.65,4.11-17.41.73-30.88-5.69-47.24l38.5-8.1c7.85-1.79,15.35-3.57,22.83-5.89Z"/>
      <path class="cls-2" d="M145.06,236.7c20.24-15.42,37.88-34.03,54.83-53.12l6.29-7.67c3.74,12.5,6.3,30.28,2.73,42.01-.39,1.28-2.25,1.32-3.34,1.77l-60.52,17.01Z"/>
      <path class="cls-6" d="M97.61,170.84c-1.28,5.89-5.72,10.29-5.82,15.45l-21.59,4.05c-3.59.67-7.02.96-10.53.01-6.52-6.59-12.41-13.38-17.79-20.78-.45-.63-.82-1.64-.44-2.18.3-.43.99-1.14,1.76-1.38,9.29-2.91,18.56-5.24,28.55-7.23l13.59,13.24c1.74,1.69,4.99.69,6.63-.85,1.98.88,3.36.78,5.65-.33Z"/>
      <path class="cls-1" d="M119.25,80.11c0-.07-.51-.22-.72.09-8.01,11.53-16.35,22.56-24.94,33.38l-.66-.33-.73.76-16.01,3.38c-.77-1.05-.22-2.77-.22-3.6,0-.25-.77-.69-.3-1.26.27-.32.23-.43.22-.68l25.33-33.81c1.08-.27,1.99-1.07,2.35-2.41l13.4-3.09,2.28,7.57Z"/>
      <path class="cls-9" d="M161.86,317.48c3.88-6.61,6.47-12.83,7.72-19.91l2.82-17.69,20.4-5.45c-1.09,9.89-3.51,18.97-7.82,27.49-5.04,10.3-11.96,14.05-23.13,15.56Z"/>
      <path class="cls-2" d="M101.21,78.05l-25.33,33.81-1.14-17.06c-.3-4.43-.74-8.52-1.48-12.8l29.21-5.99c-.35,1.18-.94,1.59-1.26,2.03Z"/>
      <path class="cls-2" d="M153.88,36.68c-2.93,2.27-5.21,4.41-7.28,7.7l-.15-21.88c5.13-1.68,9-4.91,12.87-8.6,1.91-1.82,3.91-3.63,6.32-4.27,1.04.05,1.86.11,2.25.57.46.52.54,1.53.35,2.34-1.34,5.81-1.96,11.5-.85,17.65-4.71,1.88-9.28,3.55-13.52,6.49Z"/>
      <path class="cls-2" d="M119.25,80.11l.95,4.57,3.04,21.84-20.24,4.63-9.41,2.44c8.59-10.82,16.92-21.85,24.94-33.38.21-.31.72-.16.72-.09Z"/>
      <path class="cls-9" d="M70.22,209.74c-1.06-3.49-2.54-6.43-4.03-9.69,10.24-2.92,19.88-5.2,29.88-7.22,2.22,3.26,3.65,6.64,4.63,10.48l-30.48,6.44Z"/>
      <path class="cls-1" d="M77.74,131.21l6.38,17.86c-.49.07-.69.88-.44.81.78-.21,1.15.64.24,1.01.85,2.9,1.4,6.04.94,9.45l-11.2-11.6c-.66-.69-1.08-.99-1.6-1.58.52-.08.56-.45.32-.85l-5.88-19.3c2.67,2.06,6,1.27,9.17-.19.8,1.58.34,3.82,2.06,4.39Z"/>
      <path class="cls-9" d="M60.88,210.28c.15.27-.38.75-.65.83s-1.13.12-1.44-.22c-6.32-7.15-12.84-14.24-17.76-22.48-1.15-1.92-.32-4.67-.66-6.82l6.74,7.03,9.16,9.19c1.21,4.37,2.45,8.47,4.6,12.46Z"/>
      <path class="cls-6" d="M155.74,82.39c-3.47,5.11-21.26,3.83-22.52-.09-1.11-3.45,17.52-6.52,22.52.09Z"/>
      <path class="cls-6" d="M154.16,97.86c-5.68,4.53-13.37,4.43-19.17.13-1.75-1.3-2.95-2.9-1.81-5.22,7.23,3.31,15.07,3.19,22.51.22.64,1.74-.07,3.7-1.54,4.87Z"/>
      <path class="cls-2" d="M64.2,118.2l.92,3.67,1.39,5.13,5.88,19.3c.24.4.19.78-.32.85l-10.56-12.08,1.99-16.95.71.08Z"/>
      <path class="cls-2" d="M84.12,149.07l-6.38-17.86-1.5-4.38,4.21-1.11c3.05,7.87,4.35,16.05,4.43,24.33-.57-.57-.57-.94-.76-.99Z"/>
      <path class="cls-7" d="M92.77,161.48l-.31-6.71-.26-25.95c-.02-1.66-.12-2.97-.52-5.02,1.93.96,1.57,2.77,1.57,4.54l-.09,32.4c0,.33.07.57-.39.74Z"/>
      <path class="cls-8" d="M65.12,121.87l-.92-3.67-.88-1.31c.63-.31,1,.12,1.1.48.53-1.1-.07-2.08.02-2.74l1.49-10.77.71,9.76-.15,9.66c-.93-.18-.44-.89-.42-1.09.03-.27-.71-.4-.95-.33Z"/>
      <path class="cls-9" d="M200.26,283.45l1.77-10.83c.09-.55-.1-1.22.42-1.61.26-.2.54-.72,1.17-.35l-2.93,12.77c-.01.24-.34.34-.43.02Z"/>
      <path class="cls-5" d="M99.6,147.61c.02-.59-.32-1.52.48-1.82l-.09,15.63h-.74c-.1-2.03.04-4.19.11-6.32l.25-7.49Z"/>
      <path class="cls-1" d="M100.08,145.79c-.79.3-.46,1.23-.48,1.82-.18.08-.48-.04-.47-.41l.14-5.62c.8,1.4.81,2.74.8,4.2Z"/>
      <path class="cls-9" d="M197.09,293.87c.21-1.79.8-2.96,1.69-4.29.04,1.72-.48,3.23-1.69,4.29Z"/>
      <path class="cls-5" d="M135.75,172.18l.22.93c-.54.32-1.5,1.09-2.04.35l1.82-1.28Z"/>
      <path class="cls-4" d="M86.76,262.18c1.66,1.92,1.86,4.05.52,5.73s-4.16,2.56-5.75.75l-8.61-9.78c-1.07-1.22-1.53-2.75-1.1-4.13s1.62-2.28,3.05-2.6c2.56-.57,3.84.71,5.44,2.56l6.44,7.46Z"/>
      <path class="cls-4" d="M105.42,283.04c1.8,1.91.89,4.65-.52,5.72-1.88,1.44-4.28,1.29-5.86-.39l-5.81-6.18c-1.49-1.59-2.8-3.72-1.34-5.95.89-1.36,4.54-2.72,5.83-1.36l7.7,8.16Z"/>
      <path class="cls-4" d="M68.82,244.13c1.08,1.63-.85,3.71-1.87,4.4-1.33.91-3.55,1.36-4.87.04l-6.87-6.91c-1.41-1.42-1.9-4.05-.44-5.7.96-1.08,4.22-2.2,5.56-1.14,3.22,2.54,6.2,5.81,8.49,9.3Z"/>
    </g>
  </g>
</svg>