<?xml version="1.0" encoding="UTF-8"?>
<svg id="Layer_2" data-name="Layer 2" xmlns="http://www.w3.org/2000/svg" viewBox="0 0 394.4 2987.93">
  <defs>
    <style>
      .cls-1 {
        fill: #44482b;
      }

      .cls-2 {
        fill: #63af8a;
      }

      .cls-3 {
        opacity: .35;
      }

      .cls-3, .cls-4 {
        fill: #231f20;
      }

      .cls-4 {
        stroke: #231f20;
        stroke-miterlimit: 10;
        stroke-width: 12px;
      }
    </style>
  </defs>
  <g id="Trees">
    <g>
      <polygon class="cls-3" points="394.4 2011.73 369.93 1907.73 309.85 1881.99 223.6 1793.58 173.12 1754.32 160.32 1694.61 137.12 1670.4 193.06 1649.91 208.77 1573.1 215.28 1499.35 224.26 1473.71 317.55 1411.5 330.54 1279.59 268.18 1205.9 185.87 1113.43 166.18 1080.82 162.09 1039.17 143.45 1003.08 116.28 964.43 107.97 953.14 106.43 920.38 117.18 904.54 149.31 824.21 149.31 750.1 163.07 737.73 191.1 691.45 191.1 616.25 178.54 503.15 134.04 489.38 135.76 485.75 135.76 411.48 130.67 382.82 158.17 332.27 195.06 303.59 199.52 242.98 178.03 174.92 170.6 170.72 181.55 133.73 163.31 65.34 102.04 42.05 81.74 0 .33 0 .33 2987.93 103.01 2836.3 103.01 2760.95 101.22 2732.27 136.63 2669.96 137.62 2624.87 171 2601.6 236.28 2533.36 236.28 2451.8 228.07 2397.11 223.43 2386.87 318.23 2353.89 394.4 2287.25 394.4 2202.68 378.18 2112.35 394.4 2102.77 394.4 2011.73"/>
      <g>
        <polygon class="cls-4" points="349.4 2016.95 349.4 2016.95 349.4 2016.95 331.33 1940.15 283.89 1919.82 193.54 1827.21 132.55 1779.77 119 1716.53 75.46 1671.1 80 1643.4 154.01 1616.29 164.17 1566.6 170.95 1489.8 186.76 1444.62 240.97 1408.49 274.85 1385.89 283.89 1294.13 283.89 1294.13 283.89 1294.13 234.2 1235.4 149.49 1140.24 122.38 1095.35 118.15 1052.15 104.88 1026.46 79.47 990.32 63.66 968.86 60.78 907.51 77.21 883.3 104.31 815.54 104.31 755.4 95.03 738.39 128.03 708.72 146.1 678.88 146.1 618.74 137.07 537.42 89.63 522.74 78.97 501.41 79.47 499.3 90.76 475.59 90.76 415.45 83.6 375.17 123.14 302.51 151.65 280.34 154.01 248.29 140.46 205.38 117.28 192.28 117.28 192.28 134.81 133.09 125.77 99.21 69.3 77.75 53.49 45 6 45 6 1026.46 6 1086.6 6 2839.16 6 2899.3 58.01 2822.5 58.01 2762.36 55.47 2721.7 91.89 2657.61 93.13 2601.02 141.58 2567.25 191.28 2515.3 191.28 2455.16 191.28 2455.16 184.5 2409.98 170.65 2379.44 191.28 2350.41 295.18 2314.27 349.4 2266.83 349.4 2206.69 349.4 2206.69 349.4 2206.69 333.58 2118.6 321.78 2093.41 349.4 2077.09 349.4 2016.95"/>
        <polygon class="cls-1" points="299.7 2106.45 349.4 2077.09 349.4 2016.95 283.89 1979.96 193.54 1887.35 132.55 1839.91 119 1776.67 67.04 1722.46 80 1643.4 154.01 1616.29 164.17 1566.6 170.95 1489.8 186.76 1444.62 240.97 1408.49 274.85 1385.89 283.89 1294.13 234.2 1295.54 149.49 1200.39 122.38 1155.49 118.15 1112.29 104.88 1086.6 79.47 1050.46 63.66 1029 60.27 956.72 55.75 914.93 77.21 883.3 104.31 815.54 104.31 755.4 95.03 738.39 128.03 708.72 146.1 678.88 146.1 618.74 89.63 582.88 69.3 542.22 79.47 499.3 90.76 475.59 90.76 415.45 73.82 393.14 123.14 302.51 151.65 280.34 154.01 248.29 140.46 265.52 114.48 250.83 117.28 192.28 134.81 133.09 125.77 99.21 67.8 80.76 6 105.14 6 1086.6 6 1086.6 6 2899.3 58.01 2822.5 58.01 2762.36 55.47 2721.7 91.89 2657.61 93.13 2601.02 141.58 2567.25 191.28 2515.3 191.28 2455.16 154.01 2402.87 191.28 2350.41 295.18 2314.27 349.4 2266.83 349.4 2206.69 299.7 2106.45"/>
        <polygon class="cls-2" points="299.7 2046.31 349.4 2016.95 331.33 1940.15 283.89 1919.82 193.54 1827.21 132.55 1779.77 119 1716.53 67.04 1662.31 80 1583.26 154.01 1556.15 164.17 1506.46 170.95 1429.66 186.76 1384.48 240.97 1348.35 274.85 1325.75 283.89 1294.13 234.2 1235.4 149.49 1140.24 122.38 1095.35 118.15 1052.15 104.88 1026.46 79.47 990.32 63.66 968.86 60.27 896.57 55.75 854.79 77.21 823.16 104.31 755.4 83.98 718.13 111.66 692.15 133.68 660.53 146.1 618.74 137.07 537.42 89.63 522.74 69.3 482.08 79.47 439.16 90.76 415.45 81.73 364.62 73.82 333 111.66 286.69 148.36 267.49 154.01 248.29 140.46 205.38 114.48 190.69 125.77 134.22 125.77 99.21 69.3 77.75 53.49 45 6 45 6 1026.46 6 2839.16 58.01 2762.36 42.2 2717.18 67.04 2651.68 91.89 2597.47 80 2550.03 141.58 2507.11 191.28 2455.16 184.5 2409.98 154.01 2342.73 191.28 2290.27 295.18 2254.12 349.4 2206.69 333.58 2118.6 299.7 2046.31"/>
      </g>
      <polygon class="cls-1" points="102.03 2000.57 80.57 2087.54 128 2087.54 102.03 2000.57"/>
      <polygon class="cls-1" points="150.59 2050.27 129.13 2137.23 176.57 2137.23 150.59 2050.27"/>
      <polygon class="cls-1" points="157.37 2177.7 135.91 2264.67 183.35 2264.67 157.37 2177.7"/>
      <polygon class="cls-1" points="102.03 2369.77 80.57 2456.73 128 2456.73 102.03 2369.77"/>
      <polygon class="cls-1" points="54.59 2422.41 33.13 2509.37 80.57 2509.37 54.59 2422.41"/>
      <polygon class="cls-1" points="199.16 1992.67 177.7 2079.63 225.13 2079.63 199.16 1992.67"/>
      <polygon class="cls-1" points="109.93 1362.46 88.47 1449.42 135.91 1449.42 109.93 1362.46"/>
      <polygon class="cls-1" points="92.99 1262.41 71.53 1349.37 118.97 1349.37 92.99 1262.41"/>
      <polygon class="cls-1" points="150.59 1229.47 129.13 1316.43 176.57 1316.43 150.59 1229.47"/>
      <polygon class="cls-1" points="53.46 141.51 32 228.48 79.44 228.48 53.46 141.51"/>
      <polygon class="cls-1" points="54.59 548.05 33.13 635.02 80.57 635.02 54.59 548.05"/>
      <polygon class="cls-1" points="207.63 2119.16 186.17 2206.12 233.6 2206.12 207.63 2119.16"/>
      <polygon class="cls-1" points="54.59 2058.74 33.13 2145.7 80.57 2145.7 54.59 2058.74"/>
      <polygon class="cls-1" points="102.03 2126.5 80.57 2213.47 128 2213.47 102.03 2126.5"/>
    </g>
  </g>
</svg>