<?xml version="1.0" encoding="UTF-8"?>
<svg id="Layer_2" data-name="Layer 2" xmlns="http://www.w3.org/2000/svg" viewBox="0 0 602.97 2987.93">
  <defs>
    <style>
      .cls-1 {
        fill: #44482b;
      }

      .cls-2 {
        fill: #c07c5e;
      }

      .cls-3 {
        fill: #fff;
      }

      .cls-4 {
        fill: #293246;
      }

      .cls-5 {
        fill: #63af8a;
      }

      .cls-6 {
        opacity: .35;
      }

      .cls-6, .cls-7 {
        fill: #231f20;
      }

      .cls-8 {
        fill: #a55648;
      }

      .cls-7 {
        stroke: #231f20;
        stroke-miterlimit: 10;
        stroke-width: 12px;
      }
    </style>
  </defs>
  <g id="Towns_Ports" data-name="Towns / Ports">
    <g>
      <polygon class="cls-6" points="602.97 1931.99 455.84 1884.26 395.76 1858.52 301.63 1770.11 173.12 1754.32 160.32 1694.61 137.12 1670.4 193.06 1649.91 208.77 1573.1 215.28 1499.35 224.26 1473.71 317.55 1411.5 330.54 1279.59 268.18 1205.9 185.87 1113.43 166.18 1080.82 162.09 1039.17 143.45 1003.08 116.28 964.43 107.97 953.14 106.43 920.38 117.18 904.54 149.31 824.21 149.31 750.1 163.07 737.73 191.1 691.45 191.1 616.25 178.54 503.15 134.04 489.38 135.76 485.75 135.76 411.48 130.67 382.82 158.17 332.27 195.06 303.59 199.52 242.98 178.03 174.92 170.6 170.72 181.55 133.73 163.31 65.34 102.04 42.05 81.74 0 .33 0 .33 2987.93 103.01 2836.3 103.01 2760.95 101.22 2732.27 136.63 2669.96 137.62 2624.87 171 2601.6 236.28 2533.36 230.27 2399.86 277.96 2369.77 404.14 2330.42 602.97 2139.13 590.5 2072.24 602.41 2036.15 602.97 1931.99"/>
      <g>
        <polygon class="cls-7" points="569.53 1960.4 403.89 1914.34 354.49 1876.62 271.57 1803.74 132.55 1779.77 119 1716.53 75.46 1671.1 80 1643.4 154.01 1616.29 164.17 1566.6 170.95 1489.8 186.76 1444.62 240.97 1408.49 274.85 1385.89 283.89 1294.13 283.89 1294.13 283.89 1294.13 234.2 1235.4 149.49 1140.24 122.38 1095.35 118.15 1052.15 104.88 1026.46 79.47 990.32 63.66 968.86 60.78 907.51 77.21 883.3 104.31 815.54 104.31 755.4 95.03 738.39 128.03 708.72 146.1 678.88 146.1 618.74 137.07 537.42 89.63 522.74 78.97 501.41 79.47 499.3 90.76 475.59 90.76 415.45 83.6 375.17 123.14 302.51 151.65 280.34 154.01 248.29 140.46 205.38 117.28 192.28 117.28 192.28 134.81 133.09 125.77 99.21 69.3 77.75 53.49 45 6 45 6 1026.46 6 1086.6 6 2839.16 6 2899.3 58.01 2822.5 58.01 2762.36 55.47 2721.7 91.89 2657.61 93.13 2601.02 141.58 2567.25 191.28 2515.3 191.28 2455.16 191.28 2455.16 184.5 2409.98 175.01 2389.04 269.31 2326.94 373.22 2290.8 427.43 2243.36 557.67 2123.35 555.15 2066.57 570.97 2025.07 569.53 1960.4"/>
        <polygon class="cls-1" points="555.15 2066.57 570.97 2025.07 570.97 1964.93 361.92 1956.49 271.57 1863.88 132.55 1839.91 119 1776.67 67.04 1722.46 80 1643.4 154.01 1616.29 164.17 1566.6 170.95 1489.8 186.76 1444.62 240.97 1408.49 274.85 1385.89 283.89 1294.13 234.2 1295.54 149.49 1200.39 122.38 1155.49 118.15 1112.29 104.88 1086.6 79.47 1050.46 63.66 1029 60.27 956.72 55.75 914.93 77.21 883.3 104.31 815.54 104.31 755.4 95.03 738.39 128.03 708.72 146.1 678.88 146.1 618.74 89.63 582.88 69.3 542.22 79.47 499.3 90.76 475.59 90.76 415.45 73.82 393.14 123.14 302.51 151.65 280.34 154.01 248.29 140.46 265.52 114.48 250.83 117.28 192.28 134.81 133.09 125.77 99.21 67.8 80.76 6 105.14 6 1086.6 6 1086.6 6 2899.3 58.01 2822.5 58.01 2762.36 55.47 2721.7 91.89 2657.61 93.13 2601.02 141.58 2567.25 191.28 2515.3 191.28 2455.16 154.01 2402.87 269.31 2326.94 373.22 2290.8 427.43 2243.36 557.67 2123.35 555.15 2066.57"/>
        <polygon class="cls-5" points="529.15 1994.29 569.53 1960.4 403.51 1918.07 369.8 1896.35 271.57 1803.74 132.55 1779.77 119 1716.53 67.04 1662.31 80 1583.26 154.01 1556.15 164.17 1506.46 170.95 1429.66 186.76 1384.48 240.97 1348.35 274.85 1325.75 283.89 1294.13 234.2 1235.4 149.49 1140.24 122.38 1095.35 118.15 1052.15 104.88 1026.46 79.47 990.32 63.66 968.86 60.27 896.57 55.75 854.79 77.21 823.16 104.31 755.4 83.98 718.13 111.66 692.15 133.68 660.53 146.1 618.74 137.07 537.42 89.63 522.74 69.3 482.08 79.47 439.16 90.76 415.45 81.73 364.62 73.82 333 111.66 286.69 148.36 267.49 154.01 248.29 140.46 205.38 114.48 190.69 125.77 134.22 125.77 99.21 69.3 77.75 53.49 45 6 45 6 1026.46 6 2839.16 58.01 2762.36 42.2 2717.18 67.04 2651.68 91.89 2597.47 80 2550.03 141.58 2507.11 191.28 2455.16 184.5 2409.98 154.01 2342.73 269.31 2266.8 373.22 2230.66 427.43 2183.22 555.15 2066.57 529.15 1994.29"/>
      </g>
      <polygon class="cls-1" points="102.03 2000.57 80.57 2087.54 128 2087.54 102.03 2000.57"/>
      <polygon class="cls-1" points="150.59 2050.27 129.13 2137.23 176.57 2137.23 150.59 2050.27"/>
      <polygon class="cls-1" points="157.37 2177.7 135.91 2264.67 183.35 2264.67 157.37 2177.7"/>
      <polygon class="cls-1" points="102.03 2369.77 80.57 2456.73 128 2456.73 102.03 2369.77"/>
      <polygon class="cls-1" points="54.59 2422.41 33.13 2509.37 80.57 2509.37 54.59 2422.41"/>
      <polygon class="cls-1" points="199.16 1992.67 177.7 2079.63 225.13 2079.63 199.16 1992.67"/>
      <polygon class="cls-1" points="109.93 1362.46 88.47 1449.42 135.91 1449.42 109.93 1362.46"/>
      <polygon class="cls-1" points="92.99 1262.41 71.53 1349.37 118.97 1349.37 92.99 1262.41"/>
      <polygon class="cls-1" points="150.59 1229.47 129.13 1316.43 176.57 1316.43 150.59 1229.47"/>
      <polygon class="cls-1" points="53.46 141.51 32 228.48 79.44 228.48 53.46 141.51"/>
      <polygon class="cls-1" points="54.59 548.05 33.13 635.02 80.57 635.02 54.59 548.05"/>
      <polygon class="cls-1" points="207.63 2119.16 186.17 2206.12 233.6 2206.12 207.63 2119.16"/>
      <polygon class="cls-1" points="269.84 2075.68 248.38 2162.64 295.81 2162.64 269.84 2075.68"/>
      <polygon class="cls-1" points="339.49 2103.27 318.03 2190.23 365.47 2190.23 339.49 2103.27"/>
      <polygon class="cls-1" points="409.14 2036.15 387.69 2123.11 435.12 2123.11 409.14 2036.15"/>
      <polygon class="cls-1" points="321.76 2000.57 300.31 2087.54 347.74 2087.54 321.76 2000.57"/>
      <polygon class="cls-1" points="467.46 1992.67 446 2079.63 493.43 2079.63 467.46 1992.67"/>
      <polygon class="cls-1" points="54.59 2058.74 33.13 2145.7 80.57 2145.7 54.59 2058.74"/>
      <polygon class="cls-1" points="102.03 2126.5 80.57 2213.47 128 2213.47 102.03 2126.5"/>
      <g>
        <path class="cls-2" d="M548.82,1951c-.25-2.71-1.69-7.43-8.45-8.6-1.58-.27-3.06-.17-4.24-.09-.05,0-.1,0-.15.01.02-.45.06-.94.09-1.34.08-1.02.17-2.18.12-3.4-.04-.89-.03-1.82-.02-2.8,0-.44,0-.88,0-1.33,0-5.74,0-11.48.01-17.22.01-14.33.02-29.15,0-43.74,0-1.76,0-3.65-.44-5.44,2.35-.52,4.22-1.93,5.23-3.99,1.22-2.47.95-5.41-.73-8.05-.42-.66-.99-1.53-1.71-2.38-8.99-10.66-17.99-21.31-26.99-31.96l-7.16-8.47c-.39-.47-.88-1.05-1.48-1.65.75-1.47,1.14-3.25,1.11-5.25,0-.47,0-.94.02-1.41.01-.46.02-.93.02-1.4v-2.94c.02-11.11.03-22.21.02-33.32,0-1.47-.06-3.03-.19-4.76-.05-.68-.18-1.32-.35-1.93,1.41-1.01,2.2-2.38,2.62-3.63,1.3-3.83-.78-6.7-1.56-7.78-.08-.1-.15-.21-.22-.31-.41-.63-.83-1.12-1.14-1.47l-6.43-7.66c-4.91-5.85-9.82-11.7-14.73-17.56-1.41-1.68-3.56-3.95-6.71-5.38-.01-.84-.03-1.71-.1-2.62-.32-4.3-1.69-9.29-9.5-9.75-2.52-.15-4.97.01-7.27.19-3.35.26-6.18,2.65-7.05,5.95-.11.41-.19.8-.26,1.18-4.16-.89-8.45-1.82-12.57-2.89-6.3-1.63-11.44.24-15.29,5.57-3.13,4.33-6.51,8.67-9.77,12.85-.11.14-.21.27-.32.41,0-5.36-.01-10.9-.01-16.98,1.92-1.32,5.18-4.58,3.08-10.6-.95-2.73-1.9-5.45-2.85-8.18-2.66-7.63-5.41-15.53-8.06-23.3-1.93-5.65-6.74-6.73-8.98-7.05-.38-2.84-.81-5.51-2.94-7.56-2.38-2.3-5.42-2.36-8.1-2.41-2.52-.05-6.31-.12-9.04,2.57-2.03,2-2.57,4.61-2.68,7.24-1.96.04-3.93.03-5.99.01h-.1c-1.94-.01-3.89-.01-5.84-.02-5.42,0-11.02-.02-16.48-.22-7.24-.28-12.01,2.97-14.15,9.62-2.08,6.48-4.43,13.05-6.71,19.4-1.02,2.84-2.03,5.67-3.03,8.51-.38,1.07-.76,2.21-1.03,3.49-.97,4.63,1.18,7.52,3.61,8.74.03.44.02,1.09.01,1.56,0,.29,0,.58,0,.88,0,2.58,0,5.2,0,7.86-3.14-3.53-6.3-7.11-9.37-10.59-2.26-2.56-4.52-5.13-6.78-7.68-3.23-3.64-5.56-6.27-9.41-6.28h0c-3.84,0-6.25,2.71-9.29,6.14-1.9,2.14-3.8,4.33-5.64,6.46-.39-.7-.79-1.34-1.16-1.91-1.24-1.97-2.48-3.94-3.73-5.91-3.46-5.46-7.04-11.11-10.34-16.74-3.34-5.7-8.13-8.25-14.65-7.8-5.39.37-10.95.49-16.33.61-1.73.04-3.46.08-5.18.12l-.57.02s0,0,0-.01c.02-.66-.05-1.18-.1-1.53-.42-4.09-3.24-7.07-7.38-7.78-1.12-.19-2.33-.28-3.8-.29h-.19c-3.85-.02-7.49-.04-10.31,2.84-1.98,2.03-2.6,4.68-2.74,7.14-5.48.98-8.37,5.28-9.56,7.05-2.59,3.85-5.26,7.76-7.83,11.54-2.42,3.55-4.84,7.1-7.24,10.66-.14.21-.29.42-.43.63-1.58,2.29-5.59,8.09-.85,13.99,0,.11,0,.22,0,.32.01.53.03,1.05.04,1.58-.14-.23-.27-.47-.4-.7-1.55-2.68-4.52-7.83-10.69-8.86,0-3.31-.37-6.67-2.81-9.11-2.66-2.66-6.04-2.62-9.32-2.59h-.38c-1.89.02-4.39.07-6.94.28-3.8.33-6.73,3.01-7.45,6.84-.24,1.27-.35,2.63-.32,4.05,0,.2,0,.38,0,.56-.39,0-.77,0-1.06,0-.77,0-1.54,0-2.3-.01-1.17,0-2.35-.02-3.52-.02-3.39,0-6.77,0-10.16,0-6.04,0-12.08,0-18.13,0-2.05,0-7.58-.01-11.04,4.99-.18.26-.36.51-.54.77-.54.77-1.1,1.57-1.65,2.45-6.72,10.81-12.73,20.48-18.36,29.59-.78,1.26-1.47,2.53-2.05,3.79-1.7,3.7-.58,7.8,2.67,9.75.1.45.1,1.5.09,2.21v.7c.01,5.13.01,10.26.02,15.39,0,6.48,0,12.96.03,19.43.01,2.85.15,5.41.42,7.83.06.53.16,1.01.29,1.48-3.24,1.02-5.9,3.15-7.94,6.38-6.18,9.8-12.54,19.74-18.68,29.35-3.13,4.89-6.25,9.77-9.37,14.67-1,1.57-1.7,2.94-2.19,4.33-.75,2.09-.58,4.35.48,6.21.85,1.48,2.21,2.6,3.83,3.16-.22.99-.36,2.1-.43,3.34-.1,1.87-.1,3.7-.09,5.47v1.36c0,5.84,0,11.67,0,17.51,0,12.57,0,25.56-.04,38.34,0,.12,0,.3,0,.5-.13,0-.24.01-.32.02-.32.02-.65.02-.97.03-.63,0-1.35.02-2.13.09-5.85.58-9.18,4.14-9.38,10.03-.05,1.47.07,3.05.34,4.72.83,4.98,3.99,7.92,8.9,8.28,2.27.17,4.48.16,6.61.16h1.05c69.24,0,138.47,0,207.71,0h29.02s54.21,0,54.21,0h30.27c54.48,0,108.97,0,163.45-.02,3.18,0,5.83-.08,8.35-.25,4.6-.32,8.05-3.57,8.59-8.09.26-2.16.29-4.25.11-6.22Z"/>
        <g>
          <path class="cls-2" d="M548.82,1949.95c-.25-2.71-1.69-7.43-8.45-8.6-1.58-.27-3.06-.17-4.24-.09-.05,0-.1,0-.15.01.02-.45.06-.94.09-1.34.08-1.02.17-2.18.12-3.4-.04-.89-.03-1.82-.02-2.8,0-.44,0-.88,0-1.33,0-5.74,0-11.48.01-17.22.01-14.33.02-29.15,0-43.74,0-1.76,0-3.65-.44-5.44,2.35-.52,4.22-1.93,5.23-3.99,1.22-2.47.95-5.41-.73-8.05-.42-.66-.99-1.53-1.71-2.38-8.99-10.66-17.99-21.31-26.99-31.96l-7.16-8.47c-.39-.47-.88-1.05-1.48-1.65.75-1.47,1.14-3.25,1.11-5.25,0-.47,0-.94.02-1.41.01-.46.02-.93.02-1.4v-2.94c.02-11.11.03-22.21.02-33.32,0-1.47-.06-3.03-.19-4.76-.05-.68-.18-1.32-.35-1.93,1.41-1.01,2.2-2.38,2.62-3.63,1.3-3.83-.78-6.7-1.56-7.78-.08-.1-.15-.21-.22-.31-.41-.63-.83-1.12-1.14-1.47l-6.43-7.66c-4.91-5.85-9.82-11.7-14.73-17.56-1.41-1.68-3.56-3.95-6.71-5.38-.01-.84-.03-1.71-.1-2.62-.32-4.3-1.69-9.29-9.5-9.75-2.52-.15-4.97.01-7.27.19-3.35.26-6.18,2.65-7.05,5.95-.11.41-.19.8-.26,1.18-4.16-.89-8.45-1.82-12.57-2.89-6.3-1.63-11.44.24-15.29,5.57-3.13,4.33-6.51,8.67-9.77,12.85-.11.14-.21.27-.32.41,0-5.36-.01-10.9-.01-16.98,1.92-1.32,5.18-4.58,3.08-10.6-.95-2.73-1.9-5.45-2.85-8.18-2.66-7.63-5.41-15.53-8.06-23.3-1.93-5.65-6.74-6.73-8.98-7.05-.38-2.84-.81-5.51-2.94-7.56-2.38-2.3-5.42-2.36-8.1-2.41-2.52-.05-6.31-.12-9.04,2.57-2.03,2-2.57,4.61-2.68,7.24-1.96.04-3.93.03-5.99.01h-.1c-1.94-.01-3.89-.01-5.84-.02-5.42,0-11.02-.02-16.48-.22-7.24-.28-12.01,2.97-14.15,9.62-2.08,6.48-4.43,13.05-6.71,19.4-1.02,2.84-2.03,5.67-3.03,8.51-.38,1.07-.76,2.21-1.03,3.49-.97,4.63,1.18,7.52,3.61,8.74.03.44.02,1.09.01,1.56,0,.29,0,.58,0,.88,0,2.58,0,5.2,0,7.86-3.14-3.53-6.3-7.11-9.37-10.59-2.26-2.56-4.52-5.13-6.78-7.68-3.23-3.64-5.56-6.27-9.41-6.28h0c-3.84,0-6.25,2.71-9.29,6.14-1.9,2.14-3.8,4.33-5.64,6.46-.39-.7-.79-1.34-1.16-1.91-1.24-1.97-2.48-3.94-3.73-5.91-3.46-5.46-7.04-11.11-10.34-16.74-3.34-5.7-8.13-8.25-14.65-7.8-5.39.37-10.95.49-16.33.61-1.73.04-3.46.08-5.18.12l-.57.02s0,0,0-.01c.02-.66-.05-1.18-.1-1.53-.42-4.09-3.24-7.07-7.38-7.78-1.12-.19-2.33-.28-3.8-.29h-.19c-3.85-.02-7.49-.04-10.31,2.84-1.98,2.03-2.6,4.68-2.74,7.14-5.48.98-8.37,5.28-9.56,7.05-2.59,3.85-5.26,7.76-7.83,11.54-2.42,3.55-4.84,7.1-7.24,10.66-.14.21-.29.42-.43.63-1.58,2.29-5.59,8.09-.85,13.99,0,.11,0,.22,0,.32.01.53.03,1.05.04,1.58-.14-.23-.27-.47-.4-.7-1.55-2.68-4.52-7.83-10.69-8.86,0-3.31-.37-6.67-2.81-9.11-2.66-2.66-6.04-2.62-9.32-2.59h-.38c-1.89.02-4.39.07-6.94.28-3.8.33-6.73,3.01-7.45,6.84-.24,1.27-.35,2.63-.32,4.05,0,.2,0,.38,0,.56-.39,0-.77,0-1.06,0-.77,0-1.54,0-2.3-.01-1.17,0-2.35-.02-3.52-.02-3.39,0-6.77,0-10.16,0-6.04,0-12.08,0-18.13,0-2.05,0-7.58-.01-11.04,4.99-.18.26-.36.51-.54.77-.54.77-1.1,1.57-1.65,2.45-6.72,10.81-12.73,20.48-18.36,29.59-.78,1.26-1.47,2.53-2.05,3.79-1.7,3.7-.58,7.8,2.67,9.75.1.45.1,1.5.09,2.21v.7c.01,5.13.01,10.26.02,15.39,0,6.48,0,12.96.03,19.43.01,2.85.15,5.41.42,7.83.06.53.16,1.01.29,1.48-3.24,1.02-5.9,3.15-7.94,6.38-6.18,9.8-12.54,19.74-18.68,29.35-3.13,4.89-6.25,9.77-9.37,14.67-1,1.57-1.7,2.94-2.19,4.33-.75,2.09-.58,4.35.48,6.21.85,1.48,2.21,2.6,3.83,3.16-.22.99-.36,2.1-.43,3.34-.1,1.87-.1,3.7-.09,5.47v1.36c0,5.84,0,11.67,0,17.51,0,12.57,0,25.56-.04,38.34,0,.12,0,.3,0,.5-.13,0-.24.01-.32.02-.32.02-.65.02-.97.03-.63,0-1.35.02-2.13.09-5.85.58-9.18,4.14-9.38,10.03-.05,1.47.07,3.05.34,4.72.83,4.98,3.99,7.92,8.9,8.28,2.27.17,4.48.16,6.61.16h1.05c69.24,0,138.47,0,207.71,0h29.02s54.21,0,54.21,0h30.27c54.48,0,108.97,0,163.45-.02,3.18,0,5.83-.08,8.35-.25,4.6-.32,8.05-3.57,8.59-8.09.26-2.16.29-4.25.11-6.22Z"/>
          <path class="cls-3" d="M338.06,1969.03H46.08c-2.22,0-4.51,0-6.95-.18-6.97-.52-11.83-5.01-13-12.02-.33-1.95-.46-3.84-.4-5.61.27-7.98,5.05-13.28,12.82-14.29.03-11.35.03-22.77.03-33.86v-.72c0-5.84,0-11.67,0-17.51v-1.35c-.01-1.84-.02-3.73.09-5.73.01-.24.03-.47.05-.7-1.15-.91-2.12-2.03-2.86-3.32-1.71-3-2.01-6.63-.8-9.97.61-1.7,1.45-3.36,2.63-5.22,3.12-4.89,6.25-9.78,9.37-14.67l.21-.32c6.07-9.5,12.35-19.32,18.46-29,1.84-2.92,4.12-5.17,6.81-6.71-.18-2.06-.27-4.23-.28-6.57-.02-6.31-.03-12.62-.03-18.92v-.69c0-5.07,0-10.14-.02-15.22v-.66c-3.6-3.46-4.62-8.92-2.35-13.89.66-1.44,1.44-2.88,2.31-4.29,5.63-9.11,11.64-18.79,18.37-29.6.62-.99,1.24-1.88,1.79-2.66l.52-.74c3.2-4.63,8.17-6.97,14.76-6.93,6.03,0,12.07,0,18.1,0h10.16c.87,0,1.75,0,2.62,0,.05-.31.1-.62.15-.92,1.09-5.77,5.71-9.99,11.49-10.48,2.71-.23,5.32-.28,7.29-.3h.39c3.62-.03,8.55-.08,12.54,3.91,2.63,2.63,3.61,5.86,3.96,8.87.28.11.55.24.82.36.65-1.89,1.66-3.84,3.04-5.83.14-.2.27-.39.4-.58,2.4-3.56,4.81-7.1,7.23-10.64,2.61-3.82,5.27-7.72,7.85-11.56,1.18-1.76,4.01-5.96,9.24-8.04.61-2.72,1.79-4.96,3.58-6.78,4.15-4.25,9.36-4.23,13.55-4.2h.19c1.72,0,3.16.12,4.53.36,5.22.89,9.16,4.37,10.59,9.16.6-.01,1.2-.03,1.8-.04,5.33-.12,10.84-.24,16.12-.6,8.27-.57,14.61,2.8,18.84,10.01,3.26,5.55,6.81,11.16,10.25,16.59.57.9,1.14,1.8,1.71,2.7.55-.63,1.11-1.26,1.66-1.89,3.34-3.76,6.8-7.66,12.66-7.66,5.88,0,9.23,3.79,12.78,7.79,1.49,1.68,2.97,3.36,4.45,5.04-.05-1.16.04-2.41.32-3.74.32-1.54.78-2.9,1.19-4.06,1-2.84,2.02-5.69,3.04-8.54,2.27-6.32,4.61-12.85,6.66-19.26,2.75-8.57,9.36-13.11,18.6-12.75,5.36.2,10.92.21,16.29.22h.56c1.77,0,3.55,0,5.32.02h.12c.66,0,1.35,0,2.06.01.53-2,1.53-4.11,3.42-5.97,4.07-4.01,9.39-3.91,12.26-3.86,3.01.06,7.51.15,11.16,3.67,2.27,2.19,3.25,4.77,3.76,7.12,4.5,1.52,7.74,4.73,9.29,9.27,2.69,7.9,5.54,16.07,8.05,23.27l2.85,8.18c1.89,5.45.82,10.58-2.83,14.18,0,.55,0,1.1,0,1.65.66-.89,1.31-1.78,1.95-2.67,4.9-6.79,12.03-9.38,20.07-7.29,2.8.73,5.67,1.38,8.52,2.01,2-3.6,5.68-6.05,9.88-6.38,2.45-.19,5.08-.37,7.89-.2,5.81.35,12.91,3.04,13.72,13.91,0,.08.01.16.02.24,2.63,1.68,4.49,3.7,5.76,5.21,4.69,5.61,9.4,11.21,14.1,16.81l7.06,8.4c.32.37.9,1.04,1.47,1.92l.09.12c2.8,3.87,3.53,7.86,2.17,11.86-.47,1.39-1.17,2.65-2.04,3.74,0,.01,0,.02,0,.03.14,1.85.21,3.51.21,5.1,0,10.94,0,21.89-.02,32.83v3.43c0,.5-.02,1-.03,1.51-.01.46-.02.84-.02,1.22.02,1.52-.13,2.97-.47,4.32l6.94,8.22c9,10.65,18,21.3,26.99,31.96.89,1.05,1.57,2.08,2.07,2.87,2.54,4,2.89,8.54.97,12.45-.98,1.99-2.5,3.64-4.38,4.81.05.94.05,1.82.05,2.63.03,14.56.01,29.36,0,43.67v17.3c-.01.43-.02.86-.02,1.29,0,1-.02,1.87.01,2.66,0,.16.01.33.01.49.14.02.29.04.44.07,6.99,1.21,11.54,5.93,12.16,12.62h0c.21,2.29.17,4.7-.12,7.17-.79,6.63-6.03,11.58-12.75,12.04-2.63.18-5.38.26-8.66.26-54.48.01-108.96.01-163.45.01h-30.27ZM288.35,1960.03h79.98c54.48,0,108.97,0,163.45-.02,3.07,0,5.62-.08,8.04-.24,2.45-.17,4.14-1.75,4.43-4.13.22-1.84.25-3.62.1-5.28h0c-.25-2.64-1.71-4.06-4.73-4.58-1.05-.18-2.17-.1-3.16-.03l-5.04.36.07-5.04c.02-.5.07-1.05.1-1.49.08-.95.15-1.92.11-2.86-.04-1-.03-2.03-.02-3.02,0-.48,0-.88,0-1.29v-17.23c.02-14.38.04-29.17,0-43.72,0-1.53,0-3.11-.32-4.39l-1.08-4.45,4.47-1c.72-.16,1.68-.56,2.18-1.58.7-1.41,0-2.9-.49-3.65-.34-.54-.81-1.25-1.35-1.89-8.99-10.66-17.99-21.31-26.99-31.96l-7.16-8.47c-.36-.42-.77-.91-1.25-1.4l-2.28-2.31,1.48-2.89c.43-.84.64-1.9.62-3.13,0-.51,0-1.01.02-1.51.01-.51.02-.94.02-1.37v-3.43c.02-10.94.03-21.88.02-32.82,0-1.36-.06-2.8-.18-4.43-.03-.33-.09-.67-.19-1.02l-.89-3.06,2.59-1.85c.44-.32.76-.78.98-1.42.46-1.35-.02-2.41-.94-3.69-.15-.21-.25-.35-.35-.49-.24-.38-.51-.69-.77-.99l-7.1-8.45c-4.71-5.6-9.41-11.21-14.11-16.82-1.16-1.39-2.79-3.12-5.12-4.17l-2.6-1.18-.04-2.86c0-.69-.03-1.51-.09-2.34-.28-3.74-1.08-5.35-5.29-5.6-2.24-.13-4.51.02-6.65.19-1.45.11-2.67,1.16-3.05,2.61-.08.29-.13.57-.18.83l-.82,4.59-4.55-.98c-3.98-.86-8.49-1.83-12.75-2.93-4.51-1.17-7.75.02-10.51,3.85-3.18,4.41-6.58,8.77-9.87,12.99l-8.35,10.72-.02-13.07c0-5.36-.01-10.91-.01-16.99v-2.37l1.95-1.34c1.82-1.25,2.25-2.92,1.38-5.42l-2.85-8.18c-2.52-7.22-5.37-15.41-8.07-23.33-.81-2.39-2.47-3.63-5.36-4.04l-3.37-.48-.46-3.37c-.37-2.74-.68-4.03-1.6-4.92-1.06-1.02-2.61-1.1-5.06-1.15-1.98-.03-4.42-.08-5.79,1.27-.85.84-1.26,2.11-1.35,4.22l-.18,4.23-4.23.08c-2.07.04-4.21.03-6.1.01h-.12c-1.75-.01-3.51-.01-5.27-.02h-.53c-5.48,0-11.11-.02-16.64-.22-5.2-.19-8.19,1.81-9.7,6.5-2.1,6.55-4.47,13.15-6.75,19.53-1.02,2.84-2.03,5.67-3.02,8.5-.34.97-.66,1.91-.87,2.92-.5,2.39.39,3.39,1.22,3.81l2.3,1.16.17,2.57c.04.57.03,1.24.02,1.92,0,.27,0,.54,0,.82v19.65s-7.86-8.8-7.86-8.8c-3.15-3.53-6.32-7.12-9.39-10.61-2.25-2.56-4.51-5.12-6.77-7.67-3.13-3.53-4.37-4.76-6.05-4.76-1.65,0-3.01,1.34-5.93,4.63-1.89,2.13-3.77,4.3-5.6,6.41l-4.18,4.83-3.14-5.57c-.36-.63-.72-1.21-1.05-1.73-1.23-1.97-2.48-3.93-3.72-5.89-3.49-5.51-7.09-11.19-10.42-16.87-2.49-4.25-5.62-5.93-10.46-5.59-5.49.38-11.1.5-16.53.62-1.73.04-3.45.08-5.17.12l-5.19.15v-4.91c0-.21-.03-.41-.05-.59l-.03-.22c-.21-2.08-1.51-3.43-3.66-3.79-.88-.15-1.85-.22-3.06-.23h-.19c-3.67-.02-5.65.04-7.07,1.49-.88.91-1.35,2.26-1.47,4.26l-.21,3.54-3.49.62c-3.6.65-5.64,3.67-6.62,5.13-2.59,3.86-5.26,7.77-7.84,11.55-2.44,3.58-4.85,7.11-7.23,10.65-.15.22-.31.45-.47.68-2.27,3.28-3.24,5.87-1.04,8.61l.98,1.23.05,3.38.45,17.68-9.25-16.02c-1.75-3.03-3.77-6.04-7.53-6.67l-3.77-.63v-3.82c.02-3.13-.41-4.85-1.48-5.91-1.26-1.26-3.04-1.31-6.07-1.28h-.42c-1.8.02-4.19.06-6.59.27-1.79.15-3.07,1.35-3.42,3.19-.18.96-.26,2.01-.24,3.12l.07,5.12-4.53.03c-.41,0-.81,0-1.12,0h-2.31c-1.16-.02-2.33-.03-3.49-.03h-10.16c-6.04,0-12.09,0-18.13,0-2.59,0-5.46.34-7.33,3.05l-.55.79c-.51.73-1.03,1.47-1.52,2.25-6.72,10.8-12.73,20.48-18.36,29.58-.68,1.1-1.28,2.21-1.78,3.31-.74,1.6-.37,3.26.89,4.01l1.66,1,.42,1.89c.19.88.2,1.92.2,3.2v.69c.01,5.06.02,10.13.02,15.21v.69c0,6.3,0,12.6.03,18.89.01,2.68.14,5.09.39,7.35.03.24.08.49.16.8l1.13,4.17-4.12,1.3c-2.23.7-4.02,2.17-5.49,4.49-6.12,9.71-12.41,19.54-18.49,29.05l-.21.32c-3.12,4.89-6.25,9.77-9.36,14.66-.82,1.28-1.37,2.37-1.76,3.43-.31.85-.25,1.74.15,2.45.3.53.8.93,1.4,1.14l3.79,1.32-.88,3.92c-.16.74-.28,1.61-.33,2.6-.1,1.74-.09,3.49-.08,5.19v1.38c0,5.85,0,11.69,0,17.52v.72c0,12.35,0,25.1-.04,37.64l-.04,4.72-4.54.28c-.33.02-.69.03-1.05.03h-.12c-.57,0-1.15.02-1.75.07-3.61.36-5.2,2.06-5.32,5.71-.04,1.17.06,2.46.29,3.82.49,2.93,1.97,4.33,4.79,4.54,2.1.15,4.22.15,6.27.15h1.05s241.23,0,241.23,0h0Z"/>
        </g>
        <path class="cls-2" d="M341.75,1671.82l-8.48,31.35v64.34s27.34-2.01,27.99-1.42,29.28,34.1,29.28,34.1v58.56l15.98-21.15-2-141.83-14.98-21.97-47.78-1.99Z"/>
        <path class="cls-8" d="M295.29,1763.03c2.03.22,65.97,0,65.97,0l29.28,39.95-1.33,64.53-41.73,44.06v38.12h-16.65v-84.56l-51.46-51.46-15.73,9.75v-18.06l31.65-42.33Z"/>
        <polygon class="cls-2" points="429.33 1814.54 470.88 1815.07 470.88 1793.11 494.41 1793.11 494.41 1817.85 525.92 1858.76 525.92 1947.02 525.92 1954.8 347.47 1954.8 347.47 1904.41 429.33 1814.54"/>
        <path class="cls-8" d="M406.51,1747.94c2.22-1.33,26.86-31.96,27.74-31.96s37.73,9.1,37.73,9.1l24.19,26.79v78.41h-53.64l-12.28-11.98-24.49,22.11.74-92.46Z"/>
        <polygon class="cls-8" points="85.18 1821.79 85.18 1751.87 106.88 1722.51 169.43 1722.51 192.28 1759.75 192.28 1853.75 165.29 1818.91 85.18 1821.79"/>
        <g>
          <path class="cls-4" d="M543.25,1950.69c-.21-2.25-1.43-3.18-3.83-3.6-2.77-.48-6.36,1.15-8.17-1.56-1.58-2.36-.53-5.67-.65-8.55-.06-1.45-.02-2.9-.02-4.35,0-20.31.05-40.63,0-60.94-.01-6.14-.55-6.61-6.54-6.8-.48-.02-.97,0-1.45,0-17.65,0-35.31,0-52.96.02-1.69,0-3.39.07-5.06.28-1.58.19-2.69,1.14-2.8,2.8-.15,2.17-.18,4.35-.18,6.52-.05,22.01-.05,44.02-.15,66.02-.03,6.18-.4,6.5-6.66,6.51-16.2.04-32.41.03-48.61,0-8.29-.02-8.34-.06-8.35-8.58-.02-20.56.04-41.11.03-61.67,0-12.91,1.41-11.94-12.21-11.93-4.16,0-7.43,1.37-10.32,4.32-10.85,11.04-21.78,21.99-32.71,32.95-2.15,2.16-3.09,4.19-.62,6.84.7.75.84,2.24.85,3.4.08,10.4.11,20.8.05,31.2-.01,2.52-1.18,3.41-3.67,3.32-2.13-.07-3.08-.9-3.23-3.06-.13-1.93-.11-3.87-.11-5.8,0-12.58.03-25.15.04-37.73,0-8.46-.04-16.93,0-25.39.01-2.69.11-2.69,3.28-2.77,2.5-.06,5.31-1.95,6-4.3.58-1.99-1.07-3.02-2.26-4.17-1.57-1.51-3.19-2.96-4.78-4.45-4.94-4.63-9.82-9.33-14.85-13.86-2.33-2.1-3.44-4.46-3.31-7.62.15-3.62-.01-7.25-.03-10.88-.06-11.4.72-10.64-11.56-10.25-2.47.08-3.18,1.05-3.33,3.79-.1,1.93-.04,3.86-.17,5.79-.06.9-.93,1.2-1.57.78-1.2-.79-2.3-1.74-3.35-2.72-5.45-5.15-10.86-10.34-16.29-15.5-1.23-1.16-2.47-2.31-3.78-3.38-1.06-.87-2.3-.76-3.37-.05-1,.66-1.9,1.5-2.78,2.32-7.45,6.9-14.9,13.81-22.34,20.72-11.88,11.02-23.75,22.04-35.62,33.07-1.41,1.31-2.79,2.67-4.12,4.07-.73.76-.94,1.85-.35,2.66,1.53,2.1,2.84,4.7,6.23,3.87,1.6-.39,2.2.59,2.3,1.93.14,1.93.2,3.86.21,5.8.03,19.59.05,39.18.07,58.77,0,1.21.02,2.42-.06,3.63-.26,3.95-.94,4.71-4.69,4.87-2.66.11-5.32.07-7.98.05-7.89-.05-7.93-.06-7.94-8.02-.03-20.31-.02-40.63-.02-60.94,0-1.45.02-2.9.09-4.35.05-1.23.5-2.13,1.56-3.01,2.45-2.03,2.43-2.3,1.18-4.58-1.04-1.91-2.18-3.77-3.36-5.59-8.96-13.79-17.9-27.58-26.94-41.32-4.07-6.18-3.05-5.95-11.07-5.83-3.87.05-7.74.18-11.6.25-6.45.11-6.63-.07-6.77-6.22-.04-1.69.02-3.39-.15-5.07-.16-1.59-1.11-2.78-2.77-2.84-2.89-.11-5.8-.09-8.69.06-1.62.09-2.68,1.21-2.77,2.83-.17,2.89-.14,5.8-.23,8.7-.05,1.63-.81,2.76-2.47,3.08-4.07.77-8.17.77-12.27.41-1.06-.09-1.74-.83-1.92-1.86-.17-.95-.15-1.93-.28-2.88-.53-3.9-1.03-4.35-5.03-4.53-1.21-.05-2.42-.02-3.63,0q-6.94.07-7.87,6.88c-.32,2.32-.89,3.07-3.08,3.24-2.89.23-5.8.39-8.69.29-3.74-.13-6.39,1.22-8.43,4.46-9.28,14.72-18.71,29.36-28.06,44.04-.65,1.01-1.24,2.09-1.65,3.22-.36.99.02,2.03,1.13,2.24,1.65.31,3.34.49,5.02.47,5.56-.06,11.12-.31,16.68-.34,19.83-.13,39.66-.2,59.49-.29,2.18-.01,4.35-.11,6.53-.08,2.42.04,4.14-1.05,5.37-3.06.5-.83,1.04-1.63,1.55-2.45,6.62-10.69,13.23-21.38,19.86-32.07.89-1.44,1.78-2.88,2.77-4.25,1.36-1.87,2.55-1.87,3.92.22,6.22,9.51,12.43,19.03,18.52,28.62,7.87,12.4,6.38,7.22,6.43,22.18.07,21.04-.02,42.08-.1,63.12-.02,4.48-.66,5.03-4.96,5.23-.97.05-1.93.03-2.9.03-12.82,0-25.63.01-38.45.02-8.58,0-8.45.22-8.44-8.3.02-19.11.04-38.21.01-57.32-.01-8.45-.06-8.51-8.42-8.5-23.46.05-46.92.15-70.38.23-1.45,0-2.9,0-4.35.08-4.14.24-4.83.94-5.08,5.32-.12,2.17-.08,4.35-.08,6.53-.01,18.62.01,37.24-.05,55.87-.02,5.53-.35,5.77-5.58,6.1-.96.06-1.94,0-2.9.1-3.07.3-4.23,1.51-4.33,4.65-.04,1.2.07,2.42.27,3.6.4,2.41,1.4,3.44,3.79,3.62,2.41.18,4.83.14,7.25.14,80.77,0,161.55,0,242.32,0h0c16.2,0,32.41,0,48.61,0,64.57,0,129.14,0,193.71-.02,2.66,0,5.32-.06,7.97-.24,1.89-.13,3.18-1.25,3.41-3.16.2-1.66.25-3.38.09-5.05ZM86.66,1890.56c.16-4.21.9-4.87,5.31-4.83.72,0,1.45.04,2.16.14,1.63.21,2.7,1.12,2.81,2.78.15,2.41.22,4.83.15,7.23-.14,4.48-.79,5.08-5.01,5.12-4.76.04-5.27-.47-5.42-5.37-.02-.72,0-1.45,0-2.17h0c0-.97-.03-1.93,0-2.9ZM63.44,1891.51c.13-5.16,1.37-6.22,6.55-5.66,2.12.23,3.22,1.06,3.31,3.05.14,3.1.11,6.22-.03,9.32-.08,1.64-1.23,2.51-2.87,2.63-.95.07-1.91.13-2.87.11-3.12-.06-3.86-.74-4.04-3.7-.07-1.19-.01-2.39-.01-3.59h-.03c0-.72-.02-1.44,0-2.16ZM73.43,1925.84c-.22,3.6-1.29,4.54-4.96,4.62-3.94.09-4.9-.86-5.06-5.09-.04-.96,0-1.92,0-2.88h0c0-.48-.01-.96,0-1.44.15-4.73.77-5.31,5.54-5.17,3.47.1,4.24.76,4.46,4.2.13,1.91.13,3.85.02,5.76ZM98.86,1943.6c-.06,2.29-.87,3.19-2.96,3.31-2.41.14-4.84.16-7.25.04-2.46-.13-3.38-1.04-3.41-3.73-.09-7.98-.08-15.96.01-23.94.03-2.28.91-3.16,3.03-3.25,2.65-.12,5.32-.07,7.97.04,1.72.07,2.6,1.21,2.61,2.87.05,4.35.02,8.71.02,13.06,0,3.87.07,7.74-.02,11.61ZM120.42,1925.69c-.22,3.95-1.33,4.92-5.39,4.77-3.18-.12-4.3-1.08-4.56-4.24-.15-1.9-.16-3.82-.05-5.72.22-3.83,1.03-4.56,4.76-4.62,4.71-.07,5.26.65,5.24,6.94,0,.95.04,1.91,0,2.86ZM120.44,1896.03c-.18,4.4-.73,4.94-5.06,4.99-4.44.04-5.09-.51-5.28-4.76-.08-1.67-.06-3.36-.02-5.03.04-1.65-.38-3.68,1.27-4.62,2.4-1.36,5.09-1.16,7.61-.12.54.22,1.08,1.05,1.18,1.67.26,1.65.28,3.33.29,3.5,0,2.46.03,3.42,0,4.38ZM272.11,1847.79c.02-.51,0-1.71.15-2.9.39-3.06,2.13-4.72,5.12-5,3.37-.32,5.78,1.13,6.56,4.22.4,1.6.48,3.3.53,4.97.18,6.84-.42,7.41-7.19,7.18-4.42-.15-5-.71-5.17-4.91-.04-.96,0-1.91,0-3.55ZM270.71,1882c.11-2.53.96-3.25,3.58-3.49.71-.06,1.44-.05,2.16-.07q9.69-.26,9.61,9.19-.06,7.4-7.68,7.4c-1.2,0-2.4.02-3.6-.04-3.51-.19-4.01-.65-4.13-4.37-.1-2.87-.08-5.76.05-8.63ZM254.3,1926.8c-.1,2.48-.99,3.44-3.56,3.53-13.51.46-11.83.9-11.89-11.04,0-.72.06-1.43.12-2.15.14-1.72,1.17-2.56,2.81-2.62,1.67-.07,3.35-.01,5.02-.01v-.04c1.44,0,2.88-.08,4.3.02,2.35.16,3.07.76,3.17,3,.14,3.1.16,6.22.04,9.32ZM254.48,1890.92c-.22,3.48-.68,3.91-4.41,4.09-.95.05-1.91.03-2.87.03-8.61-.05-8.37.53-8.25-8.08,0-1.67-.09-3.35.02-5.02.16-2.47.99-3.4,3.62-3.42,13.45-.09,11.77-1.49,11.93,10.96,0,.48,0,.96-.03,1.43ZM286.6,1930.77h-.14c0,4.33.08,8.66-.03,12.98-.06,2.11-1.03,2.94-3.14,3.18-.72.08-1.44.1-2.16.1-13.42-.12-11.6,1.57-11.75-11.27-.07-5.77-.06-11.54.05-17.31.06-3.15.76-3.83,3.85-3.92,3.36-.1,6.73-.06,10.09.08,2.12.09,2.93.97,3.08,3.19.15,2.15.13,4.32.15,6.49.02,2.16,0,4.33,0,6.49ZM309.42,1930.5c-6.89-.08-7.31-.51-7.41-7.5-.01-.97-.02-1.94.02-2.9.22-5.16.68-5.59,6.03-5.75.73-.02,1.45-.01,2.18-.01q7.59,0,7.6,7.63c.02,8.35-.25,8.62-8.42,8.52ZM317.84,1890.93c-.2,3.13-.88,3.9-3.82,4.02-2.64.11-5.28.1-7.92,0-2.69-.11-3.6-.87-3.73-3.34-.16-3.11-.16-6.24-.03-9.35.11-2.58,1.03-3.56,3.45-3.69,2.87-.15,5.76-.14,8.64-.02,2.16.09,3.15,1.02,3.31,3.03.14,1.91.03,3.84.03,5.76h.08c0,1.2.07,2.41-.01,3.6ZM367.51,1943.48c-.05,2.66-.82,3.39-3.57,3.46-9.53.23-9.04.49-9.02-8.23,0-1.69,0-3.38,0-5.07h.15c0-3.38-.09-6.76.03-10.14.08-2.19.92-2.92,3.17-3.09,1.44-.11,2.9-.12,4.34-.09,4.51.1,4.89.4,4.95,5.06.09,6.03.06,12.07-.05,18.1ZM387.61,1927.85c-.14,1.04-.75,1.71-1.78,1.97-.46.12-.93.21-1.41.25-5.63.49-6.75-.64-6.4-6.36.17-2.68.87-3.43,3.39-3.6.48-.03.96-.05,1.43-.05,4.37-.02,4.95.56,4.95,5.51-.03.36-.07,1.32-.19,2.27ZM504.56,1881.37c.16-4.33.63-4.76,5.2-4.76,1.19,0,2.4.07,3.58.26,1.01.16,1.83.81,1.85,1.89.09,4.56.13,9.12.1,13.67,0,1.33-.85,2.24-2.19,2.41-1.19.16-2.4.18-3.6.17-4.39-.03-4.8-.45-4.95-4.99-.05-1.44,0-2.88,0-4.32h0c0-1.44-.05-2.89,0-4.32ZM478.31,1888.09c0-.96,0-1.91,0-2.86h.03c0-1.19-.03-2.39,0-3.58.16-4.58.57-5,4.86-5.07,5.23-.09,5.78.38,5.89,5.54.07,3.34.04,6.69-.09,10.02-.06,1.59-1.02,2.66-2.71,2.75-7.98.44-8.02.36-7.98-6.79ZM489.17,1926.14c-.13,4.99-.84,5.61-6.03,5.5-.48-.01-.96-.03-1.43-.07-2.43-.23-3.16-1-3.29-3.73-.09-1.91-.02-3.83-.02-5.75h-.02c0-1.2-.03-2.4,0-3.59.16-4.61.83-5.23,5.59-5.19,4.29.04,5.06.73,5.19,4.94.08,2.63.08,5.27.01,7.9ZM515.34,1928.52c-.01,1.66-.9,2.78-2.56,2.9-1.9.14-3.83.13-5.74,0-1.3-.09-2.27-.92-2.32-2.3-.09-2.4-.02-4.8-.02-7.19-.06,0-.11,0-.17,0,0-1.44-.06-2.89.01-4.32.15-3.29.97-4.08,4.4-4.21,1.19-.04,2.41,0,3.59.15,1.56.21,2.77.99,2.8,2.73.06,4.08.06,8.17.03,12.25Z"/>
          <path class="cls-4" d="M79.51,1758.95c3.07,1.84,2.8,4.82,2.81,7.69.03,11.61,0,23.21.05,34.82,0,2.41.12,4.84.39,7.23.22,1.94,1.5,2.68,3.67,2.53,1.71-.12,2.67-1.04,2.79-2.7.14-1.93.16-3.86.16-5.79,0-11.85-.05-23.7-.02-35.55.02-7.15.2-7.28,7.29-7.34,1.45-.01,2.9.03,4.35.04,2.42.02,4.84.12,7.25.03,3.1-.12,3.89-.93,4.14-3.82.06-.72.05-1.45.07-2.17.21-9.79-.84-7.17,5.81-14.7.32-.36.63-.74.94-1.1,7.94-9.21,6.36-8.17,13.96.06,4.62,5,8.15,9.97,7.11,17.19-.35,2.4.91,4.24,3.59,4.54,2.78.32,3.5,2.16,3.52,4.57.02,2.18.05,4.35.04,6.53-.04,9.91-.11,19.83-.11,29.74,0,2.16.13,4.35.49,6.48.27,1.61,1.57,2.36,3.21,2.29,1.58-.07,2.89-.73,3.11-2.42.25-1.91.31-3.85.32-5.78.04-9.43.02-18.86.04-28.29,0-3.14-.04-6.29.1-9.43.11-2.54,1-3.58,3.55-3.61,8.22-.1,16.44-.08,24.65.07,2.76.05,3.64,1.19,3.86,4.21.16,2.17.13,4.35.12,6.53-.01,16.68-.05,33.37-.05,50.05,0,3.38.13,6.77.19,10.15.04,2.47.6,4.77,2.03,6.84,4.81,6.96,9.58,13.95,14.4,20.9.55.79,1.2,1.52,1.87,2.21,1.18,1.22,2.52,1.3,3.9.35.79-.55,1.6-1.1,2.3-1.76,9.24-8.52,18.46-17.08,27.72-25.58,1.72-1.58,2.62-3.4,2.57-5.74-.04-1.69.02-3.38.02-5.08,0-16.69,0-33.37,0-50.05h-.03c0-8.71,0-17.41,0-26.12,0-9.43,0-18.86.05-28.29,0-2.16-.13-4.35,1.17-6.31,4.41-6.65,8.76-13.33,13.18-19.97.83-1.25,2.02-1.18,2.89.16,4.09,6.28,8.13,12.59,12.16,18.91,1.33,2.09,1.81,4.41,1.76,6.91-.11,5.32-.09,10.64-.1,15.96-.03,11.61-.06,23.21-.03,34.82,0,1.67.22,3.36.53,5,.17.88,1.19.97,1.71.52,1.09-.93,2.07-2.01,2.94-3.15,3.21-4.24,6.37-8.52,9.52-12.8,1.5-2.04,3.36-3.4,5.99-3.61,1.9-.15,3.97.4,5.67-.71,2.17-1.42,1.35-3.94,1.81-5.98.38-1.65,1.37-2.49,2.97-2.64,1.44-.13,2.89-.18,4.34-.23,3.63-.1,7.26-.08,10.87-.3,3.16-.19,3.83-.93,4-3.95.15-2.65-.51-5.55.36-7.92,1.44-3.95-.26-6.39-2.6-9-5.81-6.49-11.52-13.05-17.3-19.56-5.16-5.82-5.26-5.84-10.33-.13-3.69,4.16-7.28,8.4-10.96,12.57-.44.5-1.2,1.04-1.78,1.01-.78-.05-.96-1.01-.78-1.67.88-3.16-.64-5.62-2.2-8.11-4.75-7.58-9.63-15.08-14.16-22.79-2.23-3.81-5.02-5.35-9.44-5.05-7.23.5-14.49.55-21.75.74-5.08.13-6.55.47-6.32-5.8,0-.24-.05-.48-.08-.72-.16-1.69-1.17-2.59-2.75-2.86-.95-.16-1.92-.21-2.89-.21-5.56-.03-7.83-.12-7.64,6.49.05,1.93-.79,3.38-2.93,3.3-3.66-.14-5.71,2.03-7.55,4.77-4.99,7.42-10.08,14.78-15.08,22.2-1.87,2.77-4.29,5.51-.74,8.86.54.51.39,1.85.42,2.81.15,6.04.28,12.08.37,18.12,0,.43-.2,1.02-.52,1.26-.79.6-1.38-.04-1.74-.63-3.01-4.96-6.03-9.91-8.93-14.93-2.01-3.49-4.13-6.58-8.87-6.2-1.37.11-2.14-.98-2.35-2.28-.16-.95-.23-1.92-.22-2.88.07-6.62-1.7-6.43-6.86-6.38-2.17.02-4.35.08-6.51.26-1.31.11-2.18,1-2.43,2.3-.18.94-.24,1.92-.22,2.88.13,6.16-.39,6.3-6.67,6.28-1.93,0-3.87-.03-5.8-.03-9.43,0-18.86.01-28.29,0-2.5,0-4.85.29-6.42,2.57-.69.99-1.4,1.97-2.04,3-6.13,9.85-12.25,19.71-18.36,29.58-.63,1.02-1.21,2.09-1.72,3.18-.43.93-.44,2.08.46,2.62ZM295.32,1725.07c.09-1.63,1.09-2.51,2.76-2.56,1.64-.05,2.68.71,3.03,2.31.15.69.15,1.4.25,2.4-.16.65-.21,1.65-.64,2.44-.63,1.18-1.91,1.24-3.1,1.15-.99-.07-1.92-.5-2.08-1.55-.21-1.38-.3-2.8-.22-4.19ZM227.92,1819.2c-.08,3.3-1.17,4.26-4.37,4.21-2.53-.03-3.51-.89-3.73-3.3-.04-.48-.06-.96-.06-1.44,0-1.68,0-3.35,0-5.03h.06c0-1.44-.08-2.88.02-4.31.22-3.37,3.55-5,6.71-3.3.94.5,1.28,1.43,1.3,2.39.08,3.59.16,7.19.08,10.78ZM227.78,1777.35c0,1.91.1,3.82-.02,5.72-.16,2.43-1.13,3.19-3.74,3.25-3.06.07-4.06-.66-4.15-3.52-.13-3.81-.12-7.64.01-11.45.08-2.47,1.1-3.25,3.66-3.32,2.88-.08,4.03.83,4.21,3.58.12,1.9.02,3.82.02,5.72,0,0,0,0,.01,0ZM220.05,1732.87c.11-1.04.94-1.61,1.92-1.84,4.65-1.08,6.03.5,5.91,4.44-.05,1.67,0,3.35,0,5.02h.02c0,1.43.06,2.87-.01,4.3-.18,3.35-3.62,5.09-6.68,3.32-.53-.31-1.06-1.07-1.13-1.67-.54-4.52-.5-9.05-.03-13.58ZM208.02,1819.29c-.16,3.49-1.64,4.65-5.1,4.09-1.63-.26-2.69-1.21-2.75-2.84-.12-3.61-.18-7.24-.07-10.85.1-3.4,1.12-4.23,4.46-4.1,2.3.09,3.24.79,3.36,2.85.12,2.16.03,4.34.03,6.51.03,0,.06,0,.09,0,0,1.45.06,2.9-.01,4.34ZM200.34,1733.78c.09-2.06,1.73-2.97,4.26-2.8,2.09.14,3.21,1.03,3.34,3.03.14,2.17.03,4.35.03,6.52h.12c0,1.21.05,2.42,0,3.63-.18,3.9-1.7,5.08-5.54,4.34-1.34-.26-2.24-1.08-2.26-2.42-.07-4.1-.12-8.21.06-12.3ZM200.33,1770.39c.19-1.66,1.5-2.35,3.85-2.37,2.34-.02,3.6.69,3.71,2.42.15,2.38.04,4.77.04,7.16h.14c0,1.67.05,3.35-.02,5.02-.06,1.42-.11,2.96-1.86,3.46-1.64.46-3.34.62-4.84-.35-.52-.33-.96-1.13-1.02-1.76-.43-4.52-.51-9.06,0-13.57Z"/>
          <path class="cls-4" d="M326.5,1704.13c3.44,1.55,3.05,4.53,3.05,7.42,0,11.61-.02,23.22,0,34.83,0,1.93.06,3.87.25,5.79.17,1.69,1.3,2.45,2.98,2.47,1.71.01,2.9-.8,3.05-2.38.18-1.92.23-3.86.23-5.79.03-11.61,0-23.22.07-34.83.04-6.39.11-6.48,6.51-6.5,17.17-.07,34.34-.07,51.52-.07,1.45,0,2.9.07,4.34.25,1.32.17,2.18,1.02,2.29,2.38.14,1.68.21,3.38.21,5.07.03,8.22.15,16.45,0,24.67-.09,5.03.87,10.16-.96,15.1-.23.61-.18,1.5.1,2.09,1.74,3.69,1.15,7.61,1.19,11.44.16,17.65.23,35.31.37,52.96.02,3.14.18,6.29.4,9.42.04.64.48,1.58.98,1.78.48.2,1.43-.2,1.92-.62,2.52-2.2,3.52-5,3.49-8.38-.1-10.64-.04-21.28-.04-31.92h.02c0-10.16.1-20.32-.05-30.47-.05-3.61,1.04-6.45,3.27-9.27,6.16-7.76,12.07-15.73,18.09-23.6.59-.77,1.17-1.55,1.86-2.21.75-.72,1.71-1.04,2.52-.14,1.29,1.44,2.49,2.95,3.68,4.47,5.96,7.62,11.92,15.23,17.85,22.88,1.87,2.41,4.01,3.96,7.31,3.92,11.61-.17,23.22-.14,34.83-.23,1.14,0,2.54.12,3.04-1.34.45-1.33-.54-2.25-1.18-3.23-.26-.4-.6-.76-.91-1.13-6.99-8.34-14-16.67-20.98-25.01-1.58-1.89-3.35-3.5-5.74-4.27-1.62-.52-2.24-1.68-2.26-3.28-.02-1.21,0-2.42-.1-3.63-.26-3.53-.97-4.38-4.25-4.58-2.16-.13-4.34.02-6.5.19-1,.08-1.81.8-2.07,1.79-.3,1.16-.35,2.38-.58,3.55-.46,2.3-1.15,2.79-3.52,2.28-5.2-1.13-10.41-2.2-15.55-3.54-4.03-1.04-6.87,0-9.34,3.43-4.53,6.27-9.39,12.3-14.1,18.44-1.18,1.53-2.34,3.08-3.54,4.6-.44.56-1.06,1.05-1.8.66-.36-.19-.75-.73-.75-1.11-.05-10.15-.05-20.31-.05-30.46,0-1.59.75-2.79,2.12-3.54,1.91-1.04,1.88-2.59,1.27-4.34-3.65-10.5-7.34-20.99-10.92-31.51-.85-2.49-2.57-3.08-4.95-3.37-3.75-.46-3.73-.63-4.24-4.41-.69-5.11-.95-5.35-5.63-5.44-5.02-.1-6.06.54-6.03,5.67,0,.48-.07.96-.11,1.45-.15,1.78-1.33,2.55-2.89,2.61-2.9.12-5.8.1-8.7.09-7.5-.04-15,.04-22.49-.24-4.45-.16-7.15,1.21-8.61,5.74-3.02,9.43-6.51,18.71-9.79,28.06-.32.91-.63,1.83-.83,2.78-.2.96-.24,2.2.69,2.62ZM346.82,1688.3c.27-1.67,1.45-3.03,3.36-3.28,1.69-.23,3.66,1.39,4.1,3.32.11.46.16.95.17,1.42.02,1.2,0,2.39,0,3.59h.02c0,.48.02.96,0,1.44-.16,3.4-1,4.18-4.36,4.05-2.6-.1-3.53-.86-3.6-3.38-.06-2.38-.08-4.81.29-7.15Z"/>
          <path class="cls-4" d="M494.86,1811.42c-.87-.14-2.08-.21-1.83-1.5.08-.44,1.09-.95,1.7-.99,2.78-.2,3.73-1.81,3.69-4.35-.02-.97.04-1.93.04-2.9.01-12.08.03-24.17.02-36.25,0-1.45-.07-2.9-.18-4.34-.12-1.65-1.08-2.64-2.7-2.89-1.19-.18-2.4-.29-3.6-.3-8.94-.07-17.88-.12-26.82-.13-1.44,0-2.89.17-4.31.41-1.01.17-1.74.94-1.92,1.93-.22,1.18-.27,2.4-.27,3.61,0,12.57.01,25.13.04,37.7,0,1.21.05,2.42.19,3.62.18,1.59,1.03,2.84,2.65,2.97,2.64.21,5.3.24,7.94.11,1.63-.08,2.52-1.28,2.7-2.89.13-1.2.11-2.42.28-3.61.31-2.16,1-2.93,3.32-3.01,3.86-.13,7.73-.07,11.59.04.53.02,1.03.82,1.55,1.25-.44.5-.84,1.36-1.33,1.43-2.39.31-4.81.35-7.2.59-2.46.25-3.36,1.18-3.59,3.68-.13,1.44-.09,2.9-.1,4.35-.04,3.62-.03,7.25-.12,10.87-.02.65-.25,1.59-1.25,1.38-.66-.14-1.39-.47-1.84-.95-1.67-1.77-1.03-4.11-1.33-6.22-.28-1.94-1.3-3.08-3.25-3.27-1.44-.14-2.89-.22-4.34-.24-10.63-.09-21.27.04-31.9-.31-4.83-.16-8.47,1.28-11.19,5.21-.55.79-1.22,1.5-1.84,2.24-7.33,8.67-14.69,17.33-21.98,26.03-2.95,3.52-5.79,7.13-8.6,10.75-1.01,1.3-2.52,2.74-1.52,4.48.77,1.34,2.58.91,4,1.06,3.41.37,5.94-.86,8.15-3.56,7.83-9.52,15.83-18.9,23.76-28.32,1.24-1.48,2.46-2.98,3.78-4.39,1.35-1.44,2.46-1.46,3.68-.16.82.88,1.54,1.86,2.32,2.78,8.12,9.59,16.35,19.09,24.29,28.83,2.86,3.51,6.02,5.05,10.56,4.94,10.39-.25,20.78-.08,31.17-.08v.02c9.67,0,19.33,0,29,0,1.93,0,3.87-.02,5.79-.2,2.06-.19,2.66-1.78,1.47-3.65-.39-.61-.8-1.22-1.26-1.77-11.38-13.48-22.76-26.95-34.15-40.43-1.42-1.68-2.92-3.23-5.26-3.59ZM483.43,1776.7c-.19,3.23-1.21,4.09-4.6,3.94-2.49-.11-3.32-.92-3.45-3.57-.08-1.68-.08-3.37,0-5.05.17-3.48,3.45-5.19,6.65-3.44.55.3,1.07,1.04,1.18,1.65.25,1.41.23,2.87.23,2.82,0,2.21.04,2.93,0,3.65Z"/>
          <path class="cls-4" d="M386.15,1847.27c0,.9.1,2,1.26,2.27,1.1.25,1.75-.62,2.42-1.29,1.82-1.78,2.72-3.95,2.72-6.5,0-1.93.05-3.87.06-5.8.04-8.22.07-16.45.11-24.67,0-2,.19-3.81,2.57-4.62,1.71-.58,1.9-2.03,1.14-3.54-.43-.86-.98-1.67-1.57-2.43-9.62-12.43-19.35-24.78-28.81-37.33-2.79-3.7-6.02-4.96-10.54-4.79-8.94.32-17.89.17-26.84.19-1.93,0-3.87,0-5.8-.15-1.32-.09-2.21-.87-2.43-2.24-.11-.71-.2-1.45-.16-2.17.21-4.58-1.75-4.85-5.3-4.91-1.93-.03-3.87.06-5.8.22-3.59.3-4.12.58-4.23,4.38-.12,4.28-1.05,4.95-5.2,4.98-.48,0-.98.08-1.45.01-4.4-.57-7.37,1.6-9.72,5.01-.41.6-.86,1.17-1.3,1.75-8.43,11.21-16.86,22.42-25.28,33.64-1.01,1.35-1.97,2.75-2.8,4.22-.81,1.42.06,2.97,1.68,3.21,3.99.6,7.65.25,10.66-2.97,1.79-1.92,3.56-4.54,6.14-4.86,3.21-.4,4.62,3.05,6.64,4.96,2.27,2.14,4.7,3.13,7.81,3.09,7.74-.1,15.48-.04,23.22-.03,2.18,0,4.36-.04,6.53.07,2.87.15,3.5.72,3.69,3.37.14,1.93.11,3.87.13,5.8.08,7.01.14,14.03.22,21.04.03,2.44.22,4.81,1.93,6.81,1.46,1.7,3.31,2.71,4.25,2.07,1.46-1,1-2.57,1.07-3.94.08-1.69,0-3.39,0-5.08-.01-9.67.07-19.35-.09-29.02-.05-3.09.85-5.48,2.8-7.89,4.86-6.02,9.42-12.27,14.11-18.43,2.49-3.27,4.94-6.57,7.51-9.78,1.53-1.91,2.55-1.94,4.02-.04,7.42,9.55,14.77,19.15,22.17,28.71,1.9,2.45,2.27,5.27,2.26,8.22,0,6.05,0,12.09,0,18.14.05,0,.1,0,.15,0,0,6.77-.02,13.54.02,20.31Z"/>
          <path class="cls-4" d="M351.85,1881.63c.05,1.29,1.67,2.01,2.71,1.25,4.51-3.3,8.41-7.26,11.95-11.55.7-.86,1.06-2.23,1.08-3.38.12-5.56.18-11.13.05-16.68-.07-2.96-1.14-3.95-3.97-4.09-2.65-.13-5.32-.13-7.98.01-2.96.16-3.94,1.06-4.02,3.99-.14,4.83-.04,9.67-.04,14.51h-.11c0,.97-.02,1.94,0,2.9.09,4.35.14,8.7.32,13.05Z"/>
          <path class="cls-4" d="M423.12,1885.95c0-.72,0-1.44,0-2.17.04-9.5.25-9.5-10.6-8.92-1.98.11-3.01,1.19-3.05,3.31-.1,5.05-.09,10.1.03,15.15.05,2.02,1.13,2.93,3.21,3.16,1.19.13,2.4.14,3.6.15,6.26.03,6.67-.36,6.8-6.34.03-1.44,0-2.89,0-4.33Z"/>
          <path class="cls-4" d="M438.9,1896.45c.94.14,1.91.16,2.86.19,7.17.2,7.56-.19,7.62-7.57,0-.96,0-1.91,0-2.87,0-1.2,0-2.39,0-3.59-.06-7.76-.44-8.14-8.07-7.87-.95.03-1.92.06-2.85.24-1.26.24-2.27,1.01-2.4,2.32-.55,5.48-.45,10.99-.08,16.48.11,1.64,1.37,2.45,2.92,2.68Z"/>
          <path class="cls-4" d="M423.07,1915.63c-.13-2.63-.97-3.66-3.37-3.84-2.4-.18-4.83-.15-7.23.04-2.08.17-3.04,1.2-3.12,3.29-.14,3.38-.13,6.77-.1,10.15.07,7.88.39,8.17,8.17,7.99.24,0,.48,0,.73-.01,4.07-.18,4.74-.75,4.94-4.57.1-1.93.02-3.87.02-5.8,0-2.42.09-4.84-.03-7.25Z"/>
          <path class="cls-4" d="M449.48,1918.9c.04-6.29.1-7.29-7.39-7.33-.96,0-1.93.06-2.88.19-2.36.34-3.24,1.27-3.37,3.86-.14,2.88-.09,5.77-.11,8.66-.07,9.45-.06,9.24,9.94,8.91,2.65-.09,3.51-.95,3.65-3.47.14-2.4.03-4.81.03-7.21h.13c0-1.2,0-2.41,0-3.61Z"/>
          <path class="cls-4" d="M344.93,1815.2c-.24.01-.48.06-.7.13-.96.34-1.74.97-1.9,1.96-.79,5-.77,10.01.01,15.01.15.98.85,1.83,1.84,1.98,3.08.46,6.43,1.18,9.11-.55,2.21-1.42,1.3-4.39,1.45-6.73.05-.72,0-1.44,0-2.16h0c0-.48,0-.96,0-1.44.1-8.66-.34-8.75-9.84-8.21Z"/>
          <path class="cls-4" d="M175.29,1788.84c.48-.02.95-.13,1.42-.23,1.28-.28,2.34-1,2.36-2.34.08-4.81.09-9.62-.05-14.42-.06-2-1.23-2.98-3.21-3.21-.95-.11-1.92-.14-2.88-.14-5.27,0-5.88.55-6.03,5.59-.04,1.44,0,2.89,0,4.33,0,.96,0,1.92,0,2.89,0,7.19-.24,7.94,8.39,7.53Z"/>
          <path class="cls-4" d="M133.13,1774.42c0-.48,0-.97-.03-1.45-.22-3.62-.84-4.32-4.25-4.46-1.68-.07-3.39-.02-5.06.15-1.62.17-2.71,1.21-2.77,2.83-.16,4.1-.25,8.21-.18,12.32.08,4.32.9,5.1,5.05,5.2,1.44.04,2.9-.03,4.34-.2,1.61-.19,2.7-1.13,2.76-2.8.09-2.41.02-4.83.02-7.24h.12c0-1.45,0-2.9,0-4.35Z"/>
          <path class="cls-4" d="M106.94,1789.14c.24,0,.48-.04.72-.07,2.4-.3,3.31-1.15,3.4-3.77.14-3.84.16-7.7.06-11.54-.11-4.46-.76-5.07-4.97-5.23-1.2-.05-2.41-.04-3.6.05-2.59.2-3.51.99-3.67,3.47-.14,2.15-.03,4.32-.03,6.49h-.14c0,.96.01,1.92,0,2.89-.1,7.67.2,7.94,8.24,7.72Z"/>
          <path class="cls-4" d="M256.7,1788.21c6.35.17,6.85-.32,6.93-6.85.01-1.2,0-2.4,0-3.6h-.03c0-1.2.02-2.4,0-3.6-.11-6.82-.71-7.39-7.44-7.07-.48.02-.96.04-1.44.1-2.05.26-3.15,1.14-3.22,3.16-.15,4.32-.21,8.65-.09,12.96.11,4.17.89,4.78,5.28,4.89Z"/>
          <path class="cls-4" d="M251.45,1732.59c-.17,4.1-.23,8.2-.15,12.3.1,5.16.67,5.62,6,5.63,5.64.02,6.07-.4,6.22-6.15.04-1.45,0-2.9,0-4.34h.02c0-1.21.01-2.41,0-3.62-.08-6.82-.72-7.43-7.46-7.12-.48.02-.97.04-1.44.1-2.05.25-3.11,1.14-3.19,3.2Z"/>
          <path class="cls-4" d="M169.53,1927.91c.22,3.14.93,3.84,3.85,4.02,1.2.07,2.4.07,3.6.03,4.67-.14,5.11-.61,5.26-5.56.03-.96,0-1.92,0-2.88-.04,0-.09,0-.13,0,0-2.16.09-4.32-.03-6.47-.09-1.59-1.03-2.79-2.67-2.9-9.69-.63-10.01-.6-9.99,8.01,0,1.92-.03,3.84.1,5.76Z"/>
          <path class="cls-4" d="M376.82,1822.91c.1-7.74-.3-8-8.22-7.8-.48.01-.96.07-1.44.14-1.67.26-2.57,1.34-2.64,2.93-.14,2.89-.17,5.78-.15,8.68.05,7.77.54,8.21,8.22,7.74.48-.03.96-.05,1.44-.12,1.68-.23,2.59-1.29,2.66-2.9.1-2.41.03-4.82.03-7.23h.11c0-.48,0-.97,0-1.45Z"/>
          <path class="cls-4" d="M162.39,1850.15c-.24.01-.48.05-.71.11-1,.26-1.78.86-1.97,1.86-.84,4.27-.63,8.56,0,12.83.15,1.04.85,1.77,1.83,1.97,2.83.56,5.93,1.17,8.38-.41,2.23-1.43,1.25-4.37,1.46-6.7.02-.24,0-.48,0-.72.09-9.39,0-9.36-8.99-8.94Z"/>
          <path class="cls-4" d="M440.85,1766.32c-2.09.13-3.18,1.13-3.3,3.09-.17,2.86-.2,5.75-.07,8.61.11,2.46,1.08,3.27,3.62,3.57.47.06.95.08,1.43.1,6.57.29,7.31-.43,7.41-7.18.04-8.19.11-8.74-9.1-8.19Z"/>
          <path class="cls-4" d="M174.28,1884.74c-.24,0-.48.03-.72.05-2.57.24-3.51,1.01-3.64,3.49-.16,2.87-.17,5.75-.12,8.63.1,5.71.53,6.11,6.14,6.12,5.78,0,6.18-.37,6.33-5.98.02-.96,0-1.92,0-2.88,0-.72,0-1.44,0-2.16.11-7.1-.5-7.42-7.99-7.27Z"/>
          <path class="cls-4" d="M151.08,1884.77c-3.08.09-3.94.91-4.12,3.83-.17,2.88-.17,5.77-.11,8.65.11,5.32.6,5.77,5.78,5.83.72,0,1.44,0,2.16-.03,3.83-.2,4.34-.72,4.52-4.83.06-1.44,0-2.88,0-4.32h.03c0-.48,0-.96,0-1.44.1-7.72-.34-7.91-8.27-7.67Z"/>
          <path class="cls-4" d="M146.82,1923.46c0,8.8-.29,8.84,9.6,8.36,1.68-.08,2.64-1.15,2.71-2.79.12-2.88.18-5.76.14-8.64-.09-6.05-.65-6.56-6.61-6.45-5.09.1-5.63.64-5.81,5.92-.03.96,0,1.92,0,2.88h-.01v.72Z"/>
          <path class="cls-4" d="M445.33,1788.49c-7.12-.45-7.87.24-7.93,7.35,0,.72-.02,1.44,0,2.16.15,5.31.69,5.87,5.74,5.97.96.02,1.92.02,2.88-.04,2.69-.18,3.56-.85,3.73-3.36.18-2.63.21-5.28.08-7.91-.17-3.36-.9-3.94-4.5-4.17Z"/>
          <path class="cls-4" d="M426.9,1857.54c8.06.52,9.35-.72,9.04-8.8-.05-1.19-.13-2.43-.49-3.56-.94-2.93-4.09-4.5-7.67-3.97-2.96.44-4.69,2.2-5.01,5.27-.12,1.19-.02,2.41-.02,3.62h-.04c0,1.21-.08,2.42.02,3.62.23,2.85,1.12,3.63,4.17,3.82Z"/>
          <path class="cls-4" d="M416.49,1773.76c.02,1.68.06,3.36.2,5.02.14,1.67,1.25,2.49,2.82,2.73.71.11,1.43.14,2.15.17,6.65.24,7.32-.42,7.3-7.2,0-1.2.01-2.4,0-3.6,0-.48-.04-.96-.11-1.43-.28-1.98-1.21-3.04-3.25-3.18-8.82-.61-9.19,0-9.11,7.48Z"/>
          <path class="cls-4" d="M416.53,1797.98c.16,5.48.74,6.01,6.45,6.01.48,0,.97,0,1.45-.02,3.57-.17,4.36-.85,4.53-4.19.11-2.17.1-4.35.02-6.52-.16-3.98-.86-4.79-4.6-4.91-7.94-.25-7.88.45-7.86,7.45,0,.72-.02,1.45,0,2.17Z"/>
          <path class="cls-4" d="M381.43,1722.07c.26,4.34.93,4.96,5.12,5.04,5.51.1,6.12-.49,6.26-6,.02-.72,0-1.43,0-3.34-.02-.48-.06-2.15-.19-3.81-.08-.99-.54-1.99-1.45-2.31-2.76-.97-5.73-1.31-8.32.15-1.86,1.04-1.36,3.4-1.45,5.26-.08,1.67-.07,3.35.03,5.01Z"/>
          <path class="cls-4" d="M392.69,1738.29c-.16-2.09-1.08-3-3.12-3.2-1.42-.14-2.87-.17-4.3-.11-2.61.12-3.59.89-3.73,3.34-.16,2.86-.16,5.74.02,8.6.17,2.71.98,3.51,3.48,3.6,7.72.28,7.87,0,7.68-7.22,0-1.67.1-3.36-.03-5.02Z"/>
          <path class="cls-4" d="M344.09,1721.32c.16,5.21.81,5.85,5.89,5.8,4.38-.04,5.03-.64,5.23-4.95.05-.96,0-1.93,0-2.89-.05,0-.09,0-.14,0,0-1.93.08-3.86-.04-5.77-.06-.98-.7-1.91-1.68-2.14-2.6-.59-5.37-1.06-7.74.36-2.21,1.32-1.36,3.89-1.52,5.98-.09,1.2-.05,2.41-.01,3.62Z"/>
          <path class="cls-4" d="M366.75,1711.03c-.24.01-.48.03-.72.06-1.62.22-2.82,1.11-2.87,2.74-.12,3.61-.07,7.23.03,10.85.03.98.69,1.88,1.71,2.09,2.61.54,5.42,1.07,7.77-.33,2.17-1.29,1.25-3.93,1.44-6.02.04-.48,0-.97,0-1.45,0-.48-.01-.97,0-1.45.12-6.09-.71-6.8-7.35-6.49Z"/>
          <path class="cls-4" d="M385.19,1775.25c7.48.13,7.75.1,7.64-7.4,0-1.2,0-2.39,0-3.59,0-.48-.03-.96-.09-1.43-.26-2-1.14-2.88-3.29-3.01-1.67-.1-3.35-.07-5.02.02-1.67.08-2.68,1.06-2.73,2.71-.11,3.11-.17,6.22-.07,9.33.08,2.59.87,3.34,3.56,3.38Z"/>
          <path class="cls-4" d="M362.94,1745.77c.19,4.27.76,4.78,5.2,4.84,5.18.07,5.76-.48,5.93-5.57.02-.72,0-1.44,0-2.15,0-1.2.04-2.4-.01-3.59-.16-3.57-.82-4.35-4.1-4.48-7.06-.28-7.03.71-7.04,6.65,0,1.44-.04,2.87.03,4.31Z"/>
          <path class="cls-4" d="M344.05,1744.86c.09,5.23.67,5.76,5.76,5.7,4.67-.06,5.23-.61,5.43-5.38.04-.95,0-1.91,0-2.86h0c0-1.19.06-2.39-.01-3.58-.19-2.98-.9-3.7-3.96-3.86-1.42-.08-2.86-.02-4.28.12-1.58.16-2.67,1.04-2.76,2.72-.12,2.38-.22,4.77-.18,7.15Z"/>
          <path class="cls-4" d="M168.95,1808.9c2.6,1.51,3.97,4.07,5.58,6.44.8,1.17,1.7,2.28,2.65,3.34.22.25.9.3,1.25.16.36-.15.78-.63.81-.99.18-2.38.26-4.76.37-7.14-.04,0-.07,0-.11,0,0-.72,0-1.44,0-2.15-.02-8.65.47-8.58-8.88-8.23-2.81.11-3.58,1.18-3.52,4.21.04,1.71.14,3.39,1.84,4.38Z"/>
          <path class="cls-4" d="M434.41,1738.93c-2.03-.51-3.82.08-5.26,1.5-1.76,1.73-1.96,8.26-.43,10.21.14.18.29.42.49.49,2.55.94,5.14.98,7.68.09.56-.2,1.12-.94,1.31-1.55.36-1.12.44-2.33.64-3.51-.14-1.19-.16-2.4-.44-3.54-.51-2.05-2.01-3.18-4-3.68Z"/>
          <path class="cls-4" d="M356.21,1799.19c2.38.59,4.78.65,7.14-.06.99-.3,1.55-1.14,1.75-2.11.19-.94.19-1.92.25-2.54-.07-2.02.11-3.73-.84-5.26-1.04-1.68-3.65-2.9-5.63-2.58-2.38.39-4.39,2.28-4.8,4.78-.42,2.63-.7,5.3,1.5,7.43.17.16.41.28.64.34Z"/>
          <path class="cls-4" d="M128.82,1756.25c1.26-.26,2.15-1.04,2.38-2.37.16-.94.2-1.91.3-2.9-.1-.93-.13-1.9-.33-2.83-.5-2.32-2.28-3.86-4.48-3.99-2.53-.15-4.64,1.42-5.31,3.94-1.65,6.24,1.23,9.41,7.45,8.15Z"/>
          <path class="cls-4" d="M262.06,1708.17c-.01-3.93-1.41-5.29-5.08-4.95-2.59.24-3.63,1.72-3.59,5.1.04,3.28,1.08,4.42,4.11,4.49,3.58.09,4.57-.92,4.56-4.65Z"/>
        </g>
      </g>
    </g>
  </g>
</svg>