<?xml version="1.0" encoding="UTF-8"?>
<svg id="Layer_2" data-name="Layer 2" xmlns="http://www.w3.org/2000/svg" viewBox="0 0 289.32 367.87">
  <defs>
    <style>
      .cls-1 {
        fill: #fcecd5;
      }

      .cls-2 {
        fill: #1a2234;
      }

      .cls-3 {
        fill: #a77950;
      }

      .cls-4 {
        fill: #bab0d4;
      }

      .cls-5 {
        fill: #60605f;
      }

      .cls-6 {
        fill: #a55648;
      }

      .cls-7 {
        fill: #5d71c5;
      }
    </style>
  </defs>
  <g id="Layer_2-2" data-name="Layer 2">
    <g id="Generative_Object_90_0_" data-name="Generative Object (90, 0)">
      <path class="cls-2" d="M247.52,281.75c-7.63,12.19-18.21,21.7-31.37,27.97l-17.32,7.54c-21.24,9.25-45.73,8.64-67.13-1.4l-80.27-37.66c-11.25-7.04-19.73-17.37-24.31-29.45-3.86-8.37-6.12-17.41-8.31-26.64-2.14-9.05-3.46-17.78-4.01-27.05-.31-5.27-1.01-10.68.67-15.8,1.5-4.56,21.49-13.18,28.82-16.45l-6.39-3.06c-2.26-1.08-3.83-3.26-3.35-5.97l6.82-38.54,1.5-9.49c.32-1.99,1.85-3.4,3.18-4.17,1.79-1.02,3.77-1.17,5.61-.12,8.29,4.72,16.07,9.89,24.04,15.42-.13-5.47-.26-10.81-2.07-15.92l-3.93-11.12c-1.42-4.03.65-7.1,4.24-8.77l14.12-6.58.12-21.98c.01-1.96,2.48-2.98,3.85-3.17,1.83-.25,4.67.5,4.71,2.81l.37,17.53,14.95-9.28c2.92-1.81,6.42.36,8.16,3.31,6.91,11.66,10.12,25.16,9.37,38.87-.26,4.69-2.51,8.28-6.62,10.69-7.92,4.64-16.18,8.46-23.91,13.63-.44.29-1.3.94-1.47,1.47l.05,24.57c5.93,1.7,11.11,4.66,15.38,9.37,11.78,12.98,9.47,21.05,13.31,26.56,5.44,7.8,13.62,12.29,23.19,12.3-1.12-6.23-4.09-11.87-8.81-15.98-2.87-2.51-2.1-5.65-.42-8.61,7.37-12.99,11.9-28.18,7.15-42.73-1.97-6.04-4.82-11.59-7.51-17.33-3.65-7.78,6.26-10.28,14.65-14l11.35-5.04-2.09-6.71c-.75-2.42-2.54-4.3-2.58-7.02l-.19-12.86c-.05-3.63,1.91-6.9,4.82-9.01,6.84-4.97,12.46-2.3,12.36-5.64l-.22-7.61c-10.33-1.22-19.85,1.74-28.49,7.05-2.69,1.65-5.83.41-7.94-1.24-5.84-4.55-.38-12.41-.84-17.03l-.9-8.83c.04-6.93,4.61-13.09,11.13-15.59,9.58-3.68,19.41-1.74,27.04-10.71,1.34-1.57,3.21-2.79,5.34-2.11,1.35.43,3.91,1.51,3.92,3.67l.3,54.82,4.98,1.56c3.55,1.11,7.2,3.49,8.15,7.39l.8,11.96c4.83-5.12,10.06-8.67,15.59-12.49,1.72-1.19,5.26-2.19,6.97-.28,4.65,5.18,7.68,11.18,10.74,17.32,5.63,11.32,8.35,23.63,7.82,36.4-.27,6.47-1.72,12.39-5,17.95l2.94,5.58c8.5,16.13,10.44,35.04,5.51,52.6-1.79,6.38-5.51,11.23-11.61,13.68l-15,7.7c7.86,2.86,14.93,5.64,22.25,9.27l39.83-28.45c2.43-1.74,5.76-.44,7.03,1.64,1.4,2.29.7,5.14-1.65,6.82l-21.36,15.35-10.69,7.38c.52,1.05,1.65,1.32,2.63,1.83,5.25,2.73,4.01,8.01,2.99,13.75-2.28,12.85-6.25,25.28-13.02,36.1ZM149.56,44.02c9.8-3.91,18.77-5.93,28.67-5.09l.11-23.9c-4.28,2.3-8.14,3.95-12.58,4.84l-11.23,2.15c-4.11.99-6.42,5.32-5.45,9.46s.62,8.35.47,12.54ZM192.05,69.23c-1.42-2.24-4.15-2.85-6.49-2.79l-8,.19c-2.77.06-5.43,1.44-7.23,3.81,1.33,1.88,3.27,2.35,5.23,2.62,9.31,1.28,18.07-1.35,16.49-3.83ZM104.65,76.39c-5.02,2.77-9.99,5.67-15.22,7.99l-9.95,4.41c3.68,9.06,5.29,18.06,5.46,27.64l.14,8.05c3.54-2.33,6.45-4.23,9.58-5.98l6.29-3.5c3.8-2.11,7.5-4.09,11.03-6.22l4.18-2.53c1.67-1.01,3.85-2.5,4.72-4.49.61-10.42-1.83-20.78-6.68-30.64l-9.55,5.26ZM201.17,92.91c-1-.48-1.78.52-2.68.9l-18.52,7.76-4.58,1.93-25.92,11.59c2.62,6.14,5.77,11.52,7.56,17.91,3.03,10.82,2.07,22-1.6,32.43l-3.95,9.69,13.52-6.74,48.1-25.16,14.57-8.17c7.72-4.33,6.48-23.72,3.94-33.68-2.23-8.74-6.47-16.74-11.6-24.73-6.05,4.14-11.23,8.72-16.19,13.97l-2.65,2.3ZM193.08,84.82c.91-.85,1.17-3.14-.21-3.93-6.89,2.75-14.54,2.65-21.64-.18-.89,3.52,1.97,4.87,4.34,6.1,5.9,3.05,12.46,2.7,17.5-2ZM57.81,158.24l14.31,6.35c1.73.77,3.09,1.78,5.27,2.47l.17-31.65c-2.64-1.92-2.99-4.84-2.23-8.14l-11.41-7.63-12.79-8.16-7.29,40.84,13.98,5.92ZM25.58,184.6c10.3,6.36,20.96,11.64,32.35,15.72,5.54,1.98,23.8-7.39,30.74-11.47l.47-4.92.13-51.45c-2.05.26-3.1,1.25-4.45,2.53l.26,39.3c.01,1.75-.11,2.91-1.32,4.18-3.1,3.25-6.91-.84-9.93-2.24l-11.94-5.53c-8.19-3.79-16.64-.09-24.49,3.91-5.18,2.64-15.96,7.43-11.82,9.98ZM206.1,157.51l-17.26,9.1-9.36,4.76-22.33,11.82-3.55,1.79c4.61,7.33,6.22,15.56,6.48,24.02.31,9.84-.24,19.24-2.89,28.84l10.5-4.61,19.77-9.89c4.62-1.88,9.09-4.14,13.72-6.63l11.69-6.14,18.12-8.6c3.76-1.82,5.86-4.5,6.83-8.48,4.08-16.64,1.64-34.13-7.56-48.74l-24.15,12.75ZM112.48,175.74c-3.22-6.59-7.99-11.75-14.76-13.97l.2,20.69,14.56-6.72ZM72.1,216.66l29.75-13.43,18.64-8.56-5.38-10.19-17.29,8.81-30.99,15.67c2.17,2.69,3.5,5.12,5.28,7.71ZM59.68,221.42c1.32.46,3.5.21,3.62-1.09l-6.08-10.05c-.97-1.61-2.33-3-4.2-3.69-9.98-3.67-19.52-7.81-29.3-12.98-.99,2.46,0,4.68-.08,6.9s.75,3.16,2.49,4.13l14.14,7.9c6.28,3.51,12.44,6.45,19.4,8.87ZM234,232.9c-7.25-3.19-14.1-5.85-21.3-8-3.78-1.13-7.13-.05-10.34,1.62l-9.5,4.95-.09,11.79c-.02,2.86-2.29,4.39-4.95,4.23-1.94-.12-3.79-1.09-3.85-3.15l-.23-8.66c-9.12,4.78-17.71,9.21-27.13,12.63-2.46.89-4.82,1.34-7.23.78-3.92-1.27-4.98-5.18-3.57-8.76,3.76-9.54,5.44-19.74,5.08-30.31-8.56,0-15.94-2.29-22.5-7.01-1.72-1.23-3.42-1.2-5.47-.23l-42.02,19.46c-3.27,1.51-6.29,2.77-9.49,4.98,4.19,3.82,9.09,5.73,14.03,7.68l11.9,4.69c13.66,5.38,26.9,10.61,40.32,16.58,8.99,4,18.35,5.06,27.93,6.11l12.59.41,16.8-.35c7.76-.74,15.17-2.04,22.54-4.56,12.24-4.19,23.7-10.02,34.17-18-1.69-1.75-4.71-3.34-6.64-2.55-6.01,3.45-10.17,11.72-15.49,6.71-2.04-1.92-1.66-5.01.53-7.1,1.32-1.26,2.76-2.09,3.89-3.93ZM224.77,264.69c-6.75,2.32-12.18,4.01-18.42,4.98-18.12,2.98-36.42,2.84-54.45-.53-5.83-1.16-10.95-2.86-16.52-5.1l-38.98-15.68-17.32-7.14c-8.52-3.8-16.61-7.76-24.85-12.32-9.48-4.6-18.26-9.36-28.06-14.97,1.83,9.77,4.63,18.76,7.82,27.84,1.86,5.3,4.27,10.1,7.39,14.71,4.08,6.7,9.73,11.62,16.73,15.03l25.4,12.36c22.41,10.91,44.73,20.99,68.07,30.22,18.06,3.34,37.03-.03,52.29-10.17,3.11-2.07,5.05-5.5,7.37-8.35,7.16-8.81,11.49-19.44,13.54-30.88ZM224.11,292.42c-.55.87-1.12,1.86-1.15,3.02,13.53-10.68,23.48-25.46,26.78-42.6l-13.11,7.07c-.77.41-1.84,1.21-2.06,2.09l-2.55,10.25c-1.39,7.3-3.95,13.94-7.91,20.17Z"/>
      <path class="cls-5" d="M247.52,281.75c10.83,7.29,23.03,18.4,28.41,30.63,3.13,7.11,3.65,15.56.57,22.8-6.21,14.6-24.16,22.52-38.7,26.53-46.12,12.74-109.86,4.13-154.17-11.47-24.06-8.47-53.98-22.65-71.3-42.17-12.18-13.73-17.86-30.8-5.1-45.55,5.12-5.92,11.62-9.77,18.76-12.9.27-.12.48-.24.77-.22.21.02.42-.42.36-.66,4.58,12.08,13.06,22.41,24.31,29.45l80.27,37.66c21.41,10.04,45.89,10.66,67.13,1.4l17.32-7.54c13.17-6.27,23.74-15.78,31.37-27.97Z"/>
      <path class="cls-6" d="M224.77,264.69c-2.06,11.43-6.39,22.07-13.54,30.88-2.32,2.86-4.26,6.29-7.37,8.35-15.27,10.14-34.23,13.51-52.29,10.17-23.34-9.23-45.66-19.31-68.07-30.22l-25.4-12.36c-7-3.41-12.65-8.33-16.73-15.03-3.12-4.62-5.52-9.42-7.39-14.71-3.2-9.07-5.99-18.07-7.82-27.84,9.81,5.61,18.58,10.37,28.06,14.97,8.24,4.56,16.33,8.51,24.85,12.32l17.32,7.14,38.98,15.68c5.57,2.24,10.7,3.95,16.52,5.1,18.03,3.37,36.34,3.51,54.45.53,6.25-.97,11.67-2.66,18.42-4.98ZM79.42,256.5c1.04-1.93-.14-3.81-1.77-4.6l-11.52-5.51c-1.47-.7-4.18.22-5.34,1.13-1.05.82-1.6,2.19-1.44,3.23.14.9.96,2.24,2.04,2.76l10.19,4.91c2.7,1.3,6.26,1.01,7.85-1.92ZM109.31,264.35l-14.52-7.02c-2.01-.97-4.25,1.64-4.53,3.18-.43,2.34.76,4.03,2.76,5.01l13.19,6.48c1.89.93,4.12-1.02,4.64-2.54.61-1.76.33-4.21-1.54-5.11ZM140.47,278.48l-11.45-4.77c-2.2-.92-4.65.73-5.25,2.61-.66,2.05.18,4.34,2.34,5.26l11.59,4.89c2.1.89,4.31-1.04,4.89-2.61.77-2.1.14-4.43-2.12-5.37Z"/>
      <path class="cls-3" d="M234,232.9c-1.13,1.84-2.57,2.68-3.89,3.93-2.19,2.09-2.57,5.18-.53,7.1,5.32,5.01,9.47-3.26,15.49-6.71,1.94-.79,4.96.8,6.64,2.55-10.46,7.98-21.93,13.81-34.17,18-7.37,2.52-14.78,3.82-22.54,4.56l-16.8.35-12.59-.41c-9.58-1.05-18.93-2.11-27.93-6.11-13.42-5.97-26.67-11.2-40.32-16.58l-11.9-4.69c-4.94-1.95-9.84-3.86-14.03-7.68,3.2-2.21,6.22-3.47,9.49-4.98l42.02-19.46c2.05-.96,3.75-1,5.47.23,6.56,4.72,13.94,7.01,22.5,7.01.36,10.58-1.32,20.78-5.08,30.31-1.41,3.57-.35,7.49,3.57,8.76,2.41.55,4.77.11,7.23-.78,9.42-3.41,18.01-7.84,27.13-12.63l.23,8.66c.06,2.06,1.91,3.03,3.85,3.15,2.65.16,4.92-1.37,4.95-4.23l.09-11.79,9.5-4.95c3.2-1.67,6.56-2.74,10.34-1.62,7.2,2.15,14.05,4.82,21.3,8ZM128.89,223.95c1.88-1.34,2.58-3.46,1.56-5.28-.95-1.69-3.15-2.67-5.17-1.66-5.58,2.79-10.8,5.77-15.67,9.61-.85.67-1.22,1.7-.97,2.57,1.77,6.3,14.56-1.19,20.25-5.24Z"/>
      <path class="cls-1" d="M175.39,103.49l.07.52c.07,2.04,5.55,6.79,7.08,19.2,1.33,10.78.58,21.57-1.61,32.26-.31,1.52-1.53,2.55-1.36,4.28l15.68-7.85,11.4-6.18c.43-.23,1.23-1.19,1.49-1.61,5.55-17.29,4.64-34.09-5.07-49.77-.54-.87-1.26-1.12-1.91-1.44l2.65-2.3c4.96-5.25,10.14-9.83,16.19-13.97,5.13,7.98,9.37,15.99,11.6,24.73,2.54,9.96,3.78,29.35-3.94,33.68l-14.57,8.17-48.1,25.16-13.52,6.74,3.95-9.69c3.67-10.42,4.63-21.6,1.6-32.43-1.79-6.4-4.94-11.77-7.56-17.91l25.92-11.59Z"/>
      <path class="cls-7" d="M206.1,157.51c4.22,5.55,6.88,11.64,8.97,18.1,3.05,9.46,3.24,19.26,1.24,29.07-.5,2.45-1.23,4.73-3.44,5.89l-11.69,6.14c-4.63,2.49-9.1,4.75-13.72,6.63-.34-.7-.53-1.43-.37-2.18,1.63-7.79,1.82-15.36,1.32-23.39-.6-9.62-3.46-18.61-8.93-26.4l9.36-4.76,17.26-9.1Z"/>
      <path class="cls-7" d="M201.17,92.91c.66.32,1.37.57,1.91,1.44,9.71,15.68,10.62,32.48,5.07,49.77-.26.42-1.06,1.38-1.49,1.61l-11.4,6.18-15.68,7.85c-.18-1.74,1.05-2.77,1.36-4.28,2.19-10.68,2.94-21.48,1.61-32.26-1.53-12.42-7.01-17.17-7.08-19.2,1.63-.16,3.57-1.06,4.51-2.45l18.52-7.76c.9-.38,1.68-1.38,2.68-.9Z"/>
      <path class="cls-1" d="M179.49,171.37c5.46,7.79,8.33,16.78,8.93,26.4.5,8.03.31,15.6-1.32,23.39-.16.75.03,1.47.37,2.18l-19.77,9.89-10.5,4.61c2.65-9.6,3.2-19.01,2.89-28.84-.26-8.46-1.87-16.69-6.48-24.02l3.55-1.79,22.33-11.82Z"/>
      <path class="cls-3" d="M25.58,184.6c-4.13-2.55,6.65-7.34,11.82-9.98,7.85-4,16.3-7.7,24.49-3.91l11.94,5.53c3.02,1.4,6.83,5.49,9.93,2.24,1.21-1.27,1.33-2.43,1.32-4.18l-.26-39.3c1.35-1.28,2.4-2.27,4.45-2.53l-.13,51.45-.47,4.92c-6.94,4.08-25.2,13.45-30.74,11.47-11.39-4.08-22.06-9.36-32.35-15.72Z"/>
      <path class="cls-1" d="M212.87,210.57c2.21-1.16,2.94-3.44,3.44-5.89,2-9.81,1.81-19.61-1.24-29.07-2.08-6.46-4.75-12.55-8.97-18.1l24.15-12.75c9.2,14.61,11.64,32.1,7.56,48.74-.97,3.98-3.07,6.65-6.83,8.48l-18.12,8.6Z"/>
      <path class="cls-7" d="M57.81,158.24c-.84-1.25-.33-2.59-.08-4.14l5.38-32.72.8-1.74,11.41,7.63c-.76,3.3-.4,6.22,2.23,8.14l-.17,31.65c-2.18-.69-3.54-1.7-5.27-2.47l-14.31-6.35Z"/>
      <path class="cls-7" d="M111.98,108.78c-3.54,2.14-7.24,4.11-11.03,6.22l-6.29,3.5c1.65-11.3.47-24.29-5.23-34.12,5.23-2.31,10.2-5.22,15.22-7.99,7.23,7.64,9.07,20.69,6.94,31.37-.21.49-.08.87.39,1.02Z"/>
      <path class="cls-7" d="M149.56,44.02c.15-4.19.52-8.32-.47-12.54s1.35-8.47,5.45-9.46l11.23-2.15c4.44-.89,8.3-2.53,12.58-4.84l-.11,23.9c-9.9-.84-18.88,1.18-28.67,5.09Z"/>
      <path class="cls-1" d="M63.91,119.64l-.8,1.74-5.38,32.72c-.26,1.56-.77,2.89.08,4.14l-13.98-5.92,7.29-40.84,12.79,8.16Z"/>
      <path class="cls-6" d="M72.1,216.66c-1.77-2.6-3.1-5.03-5.28-7.71l30.99-15.67,17.29-8.81,5.38,10.19-18.64,8.56-29.75,13.43Z"/>
      <path class="cls-6" d="M59.68,221.42c-6.96-2.42-13.12-5.36-19.4-8.87l-14.14-7.9c-1.74-.98-2.56-2.02-2.49-4.13s-.92-4.44.08-6.9c9.78,5.17,19.32,9.31,29.3,12.98,1.87.69,3.22,2.08,4.2,3.69l6.08,10.05c-.12,1.3-2.3,1.54-3.62,1.09Z"/>
      <path class="cls-1" d="M89.43,84.38c5.7,9.83,6.88,22.83,5.23,34.12-3.13,1.74-6.04,3.65-9.58,5.98l-.14-8.05c-.17-9.58-1.78-18.58-5.46-27.64l9.95-4.41Z"/>
      <path class="cls-6" d="M224.11,292.42c3.96-6.23,6.52-12.87,7.91-20.17l2.55-10.25c.22-.88,1.29-1.67,2.06-2.09l13.11-7.07c-3.3,17.14-13.25,31.93-26.78,42.6.03-1.16.6-2.16,1.15-3.02Z"/>
      <path class="cls-1" d="M111.98,108.78c-.47-.15-.6-.53-.39-1.02,2.14-10.68.29-23.73-6.94-31.37l9.55-5.26c4.85,9.86,7.29,20.22,6.68,30.64-.88,1.99-3.05,3.48-4.72,4.49l-4.18,2.53Z"/>
      <path class="cls-3" d="M112.48,175.74l-14.56,6.72-.2-20.69c6.77,2.22,11.54,7.38,14.76,13.97Z"/>
      <path class="cls-3" d="M192.05,69.23c1.58,2.48-7.18,5.11-16.49,3.83-1.95-.27-3.9-.74-5.23-2.62,1.79-2.38,4.46-3.75,7.23-3.81l8-.19c2.34-.05,5.07.55,6.49,2.79Z"/>
      <path class="cls-3" d="M193.08,84.82c-5.04,4.7-11.6,5.05-17.5,2-2.38-1.23-5.23-2.59-4.34-6.1,7.1,2.83,14.75,2.93,21.64.18,1.38.79,1.12,3.08.21,3.93Z"/>
      <path class="cls-4" d="M179.97,101.56c-.94,1.39-2.87,2.29-4.51,2.45l-.07-.52,4.58-1.93Z"/>
      <path class="cls-2" d="M109.31,264.35c1.87.91,2.15,3.36,1.54,5.11-.52,1.51-2.75,3.47-4.64,2.54l-13.19-6.48c-2-.98-3.19-2.67-2.76-5.01.28-1.53,2.52-4.15,4.53-3.18l14.52,7.02Z"/>
      <path class="cls-2" d="M79.42,256.5c-1.59,2.93-5.15,3.22-7.85,1.92l-10.19-4.91c-1.08-.52-1.9-1.86-2.04-2.76-.16-1.04.39-2.41,1.44-3.23,1.16-.91,3.87-1.83,5.34-1.13l11.52,5.51c1.63.78,2.81,2.67,1.77,4.6Z"/>
      <path class="cls-2" d="M140.47,278.48c2.26.94,2.89,3.27,2.12,5.37-.57,1.57-2.78,3.5-4.89,2.61l-11.59-4.89c-2.16-.91-3-3.21-2.34-5.26.6-1.88,3.05-3.52,5.25-2.61l11.45,4.77Z"/>
      <path class="cls-2" d="M128.89,223.95c-5.69,4.05-18.48,11.54-20.25,5.24-.24-.87.12-1.9.97-2.57,4.87-3.84,10.09-6.82,15.67-9.61,2.01-1.01,4.21-.03,5.17,1.66,1.03,1.81.32,3.94-1.56,5.28Z"/>
    </g>
  </g>
</svg>