<?xml version="1.0" encoding="UTF-8"?>
<svg id="Layer_2" data-name="Layer 2" xmlns="http://www.w3.org/2000/svg" viewBox="0 0 669.48 3207.57">
  <defs>
    <style>
      .cls-1 {
        fill: #44482b;
      }

      .cls-2 {
        fill: #c07c5e;
      }

      .cls-3 {
        fill: #57b947;
        stroke-width: 12px;
      }

      .cls-3, .cls-4, .cls-5 {
        stroke: #231f20;
        stroke-miterlimit: 10;
      }

      .cls-4 {
        stroke-width: 14px;
      }

      .cls-4, .cls-6 {
        fill: #63af8a;
      }

      .cls-7 {
        fill: #fff;
      }

      .cls-8 {
        fill: #293246;
      }

      .cls-9, .cls-5 {
        fill: #231f20;
        opacity: .35;
      }

      .cls-10 {
        fill: #a55648;
      }

      .cls-5 {
        stroke-width: 74px;
      }
    </style>
  </defs>
  <g id="Towns_Ports" data-name="Towns / Ports">
    <g>
      <g>
        <path class="cls-9" d="M667.51,0l-74.77,22.94-37.74,47.17-8.6,30.38-28.28,31.07-40,16.67-50.64,52.51v122.23l41.38,68.28,45.93,5.74-1.03,5.75-25.3,34.15v69.33l9.97,51.83,14.68,11.01c5.7,4.27,10.79,8.36,13.2,10.4,4.21,4.77,13.51,13.47,42.4,37.7l2,1.67,18.92,12.61-3.87,20.85-10.85,6.61-27.78,23.15-37.19,52.4v66.64l3.62,36.24,4.95,42.11,56.43,36.8h6.35l4.55,46.4.5,5.07,4.88,15.11c-8.64,5.92-24.36,18.78-61.24,50.28l-23.68,20.23.3.97-16.08,2.46-4.41-1.71-11.05-20.88-12.06-28.67.15-5.69-1.26-1.81,1.26-47.29-32.85-47.39-36.35-93.98-114.03,29.36-11.02,56.83-39.04,33.98v88.54l54.41,62.51,2.81,37.05,3.27,7.44c14.01,31.84,25.91,50.29,48.27,56.15,1.61.51,4.4,1.6,6.97,2.69,3.5,5.85,8.92,15.64,14.36,26.62l4.69,9.47,47.72,38.06,27.89,42.45,59.09,34.76h15.75l10.68,9.11v58.96l1,4.81c.33,1.56,2.1,9.81,5.01,18.73,3.39,10.4,7.19,18.31,11.95,24.91,7.77,10.77,16.95,16.43,25.04,19.36,1.46.98,3.53,2.44,6.03,4.28l1.56,8.91-1.75,28.45-16.27,85.12,3.25,11.06c.27.92,1.15,3.83,2.55,7.73l-5.8,30.34,3.24,11.02c1.6,5.44,3.71,11.59,6.45,17.81l-20.08,20.12-51.55,100.39v95.53l68.13,68.13-1.48,10.37-49.99,34.77-25.7,110.64v82.77l46.25,78.54-14.54,40c-39.33,10.18-74.08,18.69-86.59,21.19-9.15-.71-25.54-.9-62.61-.54-29.7.28-59.3.85-59.55.85l-39.22.76-13.1,75.9-102.69,33.49v108.99l47.11,105.3,85.03,69.85h69.51l137.44,98.47,73.01,61.4-.81,70.86.2.6-.21,63.73,41.79,104.08,59.14,55.93V0Z"/>
        <path class="cls-3" d="M622.98,64.05l-22.59,28.24-9.04,31.91-42.92,47.15-40.66,16.94-30.49,31.62v89.79l22.59,37.27,45.18,5.65,24.04,23.58-8.23,45.88-22.59,30.49v49.13l5.65,29.36s18.07,13.55,20.33,16.94c2.26,3.39,37.27,32.75,37.27,32.75l27.11,18.07,11.29,21.46.7,9.09-9.74,52.46-25.98,15.81-20.33,16.94-24.85,35.01v49.13l3.39,33.88,2.26,19.2,25.98,16.94h24.85l13.55,31.62,5.65,57.6,8.53,26.43-5.14,24.96s-14.68,11.29-18.07,12.42-57.6,47.44-57.6,47.44l7.26,23.72-82.93,12.71-32.75-12.71-20.33-38.4-16.84-40.05v-.36s-.4-.59-.4-.59l-.83-1.96,1.24-46.57-27.21-39.26-23.15-59.86-44.05,11.34-8.42,43.41-35.06,30.52v49.13l53.08,60.99,3.39,44.66s12.42,28.24,16.94,29.36c4.52,1.13,19.2,6.78,25.98,11.29,6.78,4.52,25.77,42.87,25.77,42.87l45.38,36.19,25.98,39.53,38.4,22.59h20.33l46.31,39.53-5.65,22.02v49.13s5.65,27.11,12.42,28.24,32.75,22.59,32.75,22.59l5.67,32.39-2.28,37.06-14.68,76.8s2.56,8.71,6.31,16.13l-6.31,33s5.65,19.2,12.42,24.85c2.47,2.06,5.7,7.14,8.97,12.97l-41.72,41.81-42.92,83.58v64.38l71.01,71.01-7.76,54.35-51.95,36.14-20.33,87.53v64.38l51.04,86.67-30.71,84.46s-119.72,31.59-123.19,29.33c-3.47-2.26-120.77,0-120.77,0l-11.29,65.46-97.13,31.67v64.38l38.4,85.84,63.25,51.95h67.76l151.34,108.42,93.45,78.58c-3.31,34.77-6.55,72.56-5.35,76.15.31.94,1.5,4.64,3.31,10.3-2.43,27.12-4.25,51.24-3.31,54.07,2.26,6.78,49.54,155.86,49.54,155.86V51.63l-40.5,12.42Z"/>
        <path class="cls-1" d="M627.01,113.18l-22.59,28.24-9.04,31.91-42.92,47.15-71.15-.56v89.79l22.59,37.27,45.18,5.65,25.33,24.85v40.66l-32.11,34.45v49.13l5.65,29.36s18.07,13.55,20.33,16.94c2.26,3.39,37.27,32.75,37.27,32.75l27.11,18.07,11.29,21.46,3.39,43.76-12.42,66.92-25.98,15.81-45.18,2.82v49.13l3.39,33.88,2.26,19.2,25.98,16.94h24.85l13.55,31.62,5.65,57.6,11.29,35.01v27.11l-7.91,38.4s-14.68,11.29-18.07,12.42-57.6,47.44-57.6,47.44l7.26,23.72-82.93,12.71-32.75-12.71-20.33-38.4-18.07-42.97,1.24-46.57-27.21-39.26-23.15-59.86-44.05,11.34-43.48,24.8v49.13l53.08,60.99,3.39,44.66s12.42,28.24,16.94,29.36c4.52,1.13,19.2,6.78,25.98,11.29,6.78,4.52,25.77,42.87,25.77,42.87l45.38,36.19,25.98,39.53,38.4,22.59h20.33l46.31,39.53-5.65,22.02v49.13s5.65,27.11,12.42,28.24,32.75,22.59,32.75,22.59l7.91,45.18-4.52,73.41-14.68,76.8s5.65,19.2,12.42,24.85c6.78,5.65,19.2,33.88,22.59,38.4,1.25,1.67,4.17,8.1,7.35,15.55l-105.61,84.4v64.38l79.06,79.06-15.81,110.68-72.28,59.29v64.38l65.51,111.25-45.18,124.27s-119.72,31.59-123.19,29.33c-3.47-2.26-120.77,0-120.77,0l-108.42,32.75v64.38l38.4,85.84,63.25,51.95h67.76l151.34,108.42,99.39,83.58s-13.55,128.75-11.29,135.53c2.26,6.78,49.54,155.86,49.54,155.86V100.76l-40.5,12.42Z"/>
        <path class="cls-6" d="M627.01,64.05l-22.59,28.24-9.04,31.91-42.92,47.15-40.66,16.94-30.49,31.62v40.66l22.59,37.27,45.18,5.65,25.33,24.85v40.66l-9.52,53.08-22.59,30.49,5.65,29.36s18.07,13.55,20.33,16.94c2.26,3.39,37.27,32.75,37.27,32.75l27.11,18.07,11.29,21.46,3.39,43.76-12.42,66.92-25.98,15.81-20.33,16.94-24.85,35.01,3.39,33.88,2.26,19.2,25.98,16.94h24.85l13.55,31.62,5.65,57.6,11.29,35.01v27.11l-7.91,38.4s-14.68,11.29-18.07,12.42-57.6,47.44-57.6,47.44l7.26,23.72-82.93,12.71-32.75-12.71-20.33-38.4-18.07-42.97,1.24-46.57-27.21-39.26-23.15-59.86-44.05,11.34-8.42,43.41-35.06,30.52,53.08,60.99,3.39,44.66s12.42,28.24,16.94,29.36c4.52,1.13,19.2,6.78,25.98,11.29,6.78,4.52,42.75,36.95,42.75,36.95,0,0,5.1,28.32,8.49,30.58s42.51,51.06,45.9,51.06,33.88,21.46,38.4,22.59,20.33,0,20.33,0l46.31,39.53,12.42,55.34-18.07,15.81s5.65,27.11,12.42,28.24,32.75,22.59,32.75,22.59l7.91,45.18-4.52,73.41-14.68,76.8s5.65,19.2,12.42,24.85,19.2,33.88,22.59,38.4c.7.93,1.92,3.36,3.42,6.62l-58.76,58.89-42.92,83.58,79.06,79.06-15.81,110.68-51.95,36.14-20.33,87.53,65.51,111.25-45.18,124.27s-119.72,31.59-123.19,29.33c-3.47-2.26-120.77,0-120.77,0l-11.29,65.46-97.13,31.67,38.4,85.84,63.25,51.95h67.76l151.34,108.42,99.39,83.58s-13.55,128.75-11.29,135.53c2.26,6.78,49.54,155.86,49.54,155.86V51.63l-40.5,12.42Z"/>
        <polygon class="cls-1" points="580.31 1115.53 558.85 1202.5 606.29 1202.5 580.31 1115.53"/>
        <polygon class="cls-1" points="357.07 893.02 335.61 979.98 383.04 979.98 357.07 893.02"/>
        <polygon class="cls-1" points="629.44 1159.01 607.98 1245.98 655.42 1245.98 629.44 1159.01"/>
        <polygon class="cls-1" points="582.01 175.81 560.55 262.78 607.98 262.78 582.01 175.81"/>
        <polygon class="cls-1" points="629.44 132.33 607.98 219.29 655.42 219.29 629.44 132.33"/>
        <polygon class="cls-1" points="622.1 243.01 600.64 329.98 648.08 329.98 622.1 243.01"/>
        <polygon class="cls-1" points="524.97 192.75 503.51 279.72 550.95 279.72 524.97 192.75"/>
        <polygon class="cls-1" points="481.11 2562.87 459.65 2649.83 507.09 2649.83 481.11 2562.87"/>
        <polygon class="cls-1" points="570.17 2502.73 548.71 2589.69 596.15 2589.69 570.17 2502.73"/>
        <polygon class="cls-1" points="606.48 2032.19 585.02 2119.15 632.45 2119.15 606.48 2032.19"/>
        <polygon class="cls-1" points="588.26 2638.81 566.8 2725.78 614.24 2725.78 588.26 2638.81"/>
        <polygon class="cls-1" points="630.19 1730.97 608.74 1817.94 656.17 1817.94 630.19 1730.97"/>
        <polygon class="cls-1" points="534.96 2599.85 513.5 2686.81 560.93 2686.81 534.96 2599.85"/>
        <polygon class="cls-1" points="424.99 2512.05 403.54 2599.01 450.97 2599.01 424.99 2512.05"/>
      </g>
      <g>
        <g>
          <path class="cls-2" d="M299.23,2463.56c-.12,0-.26-.02-.42-.06l-1.68-.44-1.69.4c-.28.07-.52.1-.75.1h-6.14c-1.77,0-3.2-1.44-3.2-3.2v-7.05c0-1.76,1.44-3.2,3.2-3.2h9v-137.5l-2.68-2.1c-.32-.25-.57-.56-.74-.91-.36-.75-.32-1.66.12-2.44.76-1.34,1.69-2.74,2.84-4.27,6.32-8.44,12.66-16.86,19-25.29l6.67-8.87c.3-.4.6-.79.88-1.2,2.47-3.59,5.34-5.33,8.78-5.33.14,0,.28,0,.42,0l6.34.25.87-6.28c.27-1.94.41-2.92,4.56-3.26,1.86-.16,3.53-.23,5.11-.23.25,0,.5,0,.75,0,1.25.02,2.81.05,3.91.6l10.16,5.1-.02-11.36c-.01-10.52-.01-21.04,0-31.56,0-.28.04-5,.04-5l-3.03-2.11c-.8-.56-1.04-1.55-.73-3.03.2-.96.52-1.89.85-2.84.99-2.82,2-5.64,3.01-8.46,2.31-6.46,4.67-13.04,6.77-19.59,1.37-4.27,3.91-6.09,8.5-6.09.2,0,.41,0,.61.01,5.55.21,11.19.21,16.64.22,1.94,0,3.88,0,5.82.02h.18c.99,0,1.96.01,2.93.01h1.32s6.09-.04,6.09-.04l.81-6.03c.24-1.83.87-2.45,1.08-2.65.79-.78,2.09-1.11,4.33-1.11.36,0,.71,0,1.02.01,5.12.1,5.29,1.03,5.91,4.49l.81,4.54,4.49,1.05c2.61.61,3.51,1.83,4.08,3.48,2.67,7.83,5.43,15.76,8.11,23.44l2.81,8.08c.91,2.62.04,3.77-.82,4.47l-2.55,2.1v13.82s.02,20.45.02,20.45l12.52-16.17c2.82-3.64,4.92-6.43,6.8-9.04,2.6-3.61,5.22-4.02,6.97-4.02.9,0,1.88.13,2.91.4,3.62.94,7.41,1.78,10.97,2.55l6.16,1.33,1.97-5.99c.37-1.12,1.33-1.9,2.47-1.99,1.45-.12,3.14-.24,4.8-.24.58,0,1.18.02,1.77.05,3.74.22,4.46,1.45,4.72,5.04.03.44.05.86.07,1.28l.13,4.02,3.53,1.91c1.89,1.02,3.27,2.51,4.26,3.69,4.72,5.65,9.46,11.29,14.19,16.93l6.95,8.28c.31.36.56.66.78.99.13.19.24.36.36.52.98,1.36,1.2,2.15.86,3.14-.08.23-.26.66-.58.98l-2.61,2.55.6,3.6c.03.15.05.31.06.47.12,1.59.18,3.03.18,4.36,0,10.6,0,21.19-.02,31.79v4.47c0,.42-.02.84-.03,1.27v.18c-.02.48-.03.96-.02,1.44.01.91-.1,1.71-.35,2.39l-1.43,3.92,2.76,3.12c.22.25.42.49.59.69l7.63,9.04c8.84,10.46,17.68,20.93,26.52,31.39.51.61.95,1.26,1.3,1.82.51.8,1,1.97.46,3.07-.29.58-.84.91-1.26,1.08l-5.05,2.07.78,5.4c.14.96.21,1.99.21,3.13.03,14.25.02,28.5,0,42.75v18.2c-.01.42-.02.84-.02,1.25,0,1.02-.02,2.06.02,3.09.03.71-.01,1.42-.06,2.03l-.53,7.46,7.48.04c.66,0,1.11.03,1.51.1,1.94.34,3.97,1.08,4.24,4.04.15,1.61.12,3.35-.09,5.15-.25,2.1-1.7,3.45-3.87,3.6-2.39.16-4.94.24-8,.24l-189.25.02h0s-78.75,0-78.75,0Z"/>
          <path class="cls-7" d="M420.52,2168.81l.85,4.76,8.34,1.94c2.58,7.55,5.24,15.17,7.81,22.55l2.24,6.43-3.18,2.62v6.61c0,3.29,0,6.84,0,10.52l.03,40.89,25.04-32.33c2.87-3.7,5.01-6.55,6.94-9.23.57-.79.98-1.07,1.06-1.1.02,0,.09-.02.23-.02.21,0,.59.03,1.15.18,3.74.97,7.62,1.83,11.25,2.62l12.32,2.66,3.07-9.35c.35-.02.71-.03,1.05-.03l.25,7.62,7.07,3.82c.85.46,1.63,1.32,2.22,2.02,4.73,5.66,9.47,11.3,14.21,16.95l.61.73,5.41,6.44-2.4,2.36,1.2,7.15c.1,1.37.15,2.58.15,3.71,0,10.56,0,21.12-.02,31.68v1.91s0,2.64,0,2.64c0,.37-.01.74-.02,1.13v.16c-.02.47-.03,1.05-.02,1.73,0,.03,0,.05,0,.07l-2.78,7.63,5.53,6.24c.18.21.35.4.49.57l7.63,9.04c8.06,9.54,16.13,19.09,24.19,28.64l-4.58,1.88,1.56,10.8c.09.62.14,1.34.14,2.15.03,14.24.02,28.72,0,42.72v1.07s-.01,17.14-.01,17.14c0,.4,0,.8,0,1.2,0,1.04-.02,2.22.03,3.41.01.37-.02.87-.04,1.26l-1.01,14.14h-24.94c-43.83,0-87.67.01-131.5.01h-17.09s0,0,0,0h-14s-66.43,0-66.43,0v-147.35l-2.17-1.7c.1-.14.2-.28.31-.42,6.33-8.45,12.68-16.9,19.03-25.34l6.56-8.72.04-.05c.3-.39.67-.88,1.1-1.5,1.57-2.28,2.5-2.28,3-2.28.05,0,.09,0,.14,0l12.68.5,1.38-9.92c1.1-.07,2.13-.1,3.1-.1.22,0,.43,0,.62,0,.37,0,.94.02,1.28.05l19.93,10-.03-22.72c-.01-9.47-.01-19.79,0-31.56,0-.24,0-.48,0-.7v-.56s.05-7.37.05-7.37l-3.24-2.26c.96-2.73,1.94-5.45,2.91-8.18l.03-.08c2.3-6.43,4.68-13.07,6.82-19.73.19-.58.38-.94.49-1.09.2-.06.64-.14,1.34-.14.12,0,.24,0,.35,0,5.69.21,11.39.22,16.9.23,1.93,0,3.86,0,5.79.02h.17c1.01,0,2,.01,2.97.01.46,0,.91,0,1.36,0l12.17-.08.9-6.71M419.71,2151.76c-2.67,0-6.39.31-9.25,3.13-2.05,2.02-2.82,4.55-3.11,6.71-.42,0-.85,0-1.27,0-.95,0-1.91,0-2.89-.01h-.17c-1.95-.01-3.9-.02-5.85-.02-5.4,0-10.99-.02-16.4-.22-.29-.01-.58-.02-.86-.02-9.59,0-13.54,5.91-15.16,10.96-2.07,6.46-4.42,13.02-6.7,19.36-1.02,2.83-2.03,5.66-3.03,8.5-.4,1.13-.81,2.35-1.1,3.73-1.05,5.02,1.06,8.46,3.59,10.21,0,.16,0,.31,0,.45,0,.3,0,.6,0,.9,0,10.53,0,21.05,0,31.58-2.51-1.26-5.15-1.31-6.94-1.34-.28,0-.57,0-.86,0-1.75,0-3.62.08-5.69.26-6.72.56-10.09,3.37-10.91,9.28-.23,0-.46-.01-.7-.01-4.43,0-9.96,1.69-14.54,8.35-.24.35-.5.68-.75,1.02l-6.59,8.76c-6.35,8.45-12.71,16.9-19.05,25.36-1.32,1.76-2.41,3.4-3.32,5.01-1.58,2.78-1.7,6.13-.33,8.95.64,1.32,1.58,2.46,2.72,3.36v127.09h-2c-5.63,0-10.2,4.57-10.2,10.2v7.05c0,5.63,4.57,10.2,10.2,10.2h6.14c.82,0,1.61-.11,2.37-.29.7.18,1.43.29,2.18.29h71.75s0,0,0,0h31.09c43.83,0,87.67,0,131.5-.01h25.93c2.58,0,5.15,0,7.73,0,3.23,0,5.92-.08,8.48-.26,5.54-.38,9.69-4.3,10.34-9.76.27-2.29.31-4.52.11-6.63-.24-2.62-1.71-8.85-10.02-10.29-.95-.17-1.85-.2-2.67-.21.06-.86.11-1.81.07-2.81-.03-.85-.03-1.76-.02-2.73,0-.44,0-.88,0-1.33v-17.13c.02-14.61.04-29.22,0-43.83,0-1.52-.1-2.88-.28-4.12,2.14-.88,3.88-2.43,4.88-4.47,1.51-3.08,1.21-6.69-.83-9.91-.45-.71-1.07-1.65-1.86-2.59-8.84-10.47-17.68-20.93-26.52-31.4l-7.63-9.04c-.2-.24-.44-.51-.7-.81.53-1.46.8-3.1.77-4.89,0-.44,0-.88.02-1.33.01-.48.02-.96.03-1.45v-2.65c.01-11.2.03-22.4.02-33.61,0-1.52-.07-3.12-.2-4.9-.03-.37-.08-.73-.14-1.09,1.25-1.22,1.94-2.64,2.31-3.72,1.62-4.75-.97-8.33-1.82-9.5-.06-.08-.12-.16-.17-.24-.48-.73-.97-1.3-1.29-1.67l-6.34-7.54c-4.94-5.88-9.88-11.76-14.8-17.66-1.37-1.64-3.39-3.79-6.29-5.35-.02-.51-.04-1.03-.08-1.57-.2-2.69-.81-10.88-11.29-11.51-.74-.04-1.47-.06-2.19-.06-1.85,0-3.64.12-5.34.26-3.96.31-7.33,3.01-8.57,6.78-3.57-.77-7.2-1.58-10.69-2.48-1.61-.42-3.17-.63-4.67-.63-5.02,0-9.33,2.34-12.64,6.92-2.14,2.96-4.4,5.93-6.66,8.85,0-3.68,0-7.22,0-10.51,2.95-2.43,4.92-6.58,2.98-12.18l-2.81-8.08c-2.67-7.66-5.43-15.59-8.09-23.39-1.46-4.27-4.52-6.97-9.11-8.04-1.17-6.53-3.85-10.09-12.66-10.26-.36,0-.74-.01-1.16-.01h0Z"/>
        </g>
        <path class="cls-2" d="M377.21,2174.65l-8.48,31.35v64.34s27.34-2.01,27.99-1.42,29.28,34.1,29.28,34.1v58.56l15.98-21.15-2-141.83-14.98-21.97-47.78-1.99Z"/>
        <path class="cls-10" d="M330.75,2265.86c2.03.22,65.97,0,65.97,0l29.28,39.95-1.33,64.53-41.73,44.06v47.59h-82.06l-1.77-135.73v-18.06l31.65-42.33Z"/>
        <polygon class="cls-2" points="464.78 2317.36 506.34 2317.9 506.34 2295.94 529.86 2295.94 529.86 2320.68 561.38 2361.59 561.38 2449.84 561.38 2457.62 382.93 2457.62 382.93 2407.24 464.78 2317.36"/>
        <path class="cls-10" d="M441.97,2250.76c2.22-1.33,26.86-31.96,27.74-31.96s37.73,9.1,37.73,9.1l24.19,26.79v78.41h-53.64l-12.28-11.98-24.49,22.11.74-92.46Z"/>
        <g>
          <path class="cls-8" d="M386.99,2371.41c.09,4.35.14,8.7.32,13.05.05,1.29,1.67,2.01,2.71,1.25,4.51-3.3,8.41-7.26,11.95-11.55.7-.86,1.06-2.23,1.08-3.38.12-5.56.19-11.13.05-16.68-.07-2.96-1.14-3.95-3.97-4.09-2.65-.13-5.32-.13-7.98.01-2.96.16-3.94,1.06-4.02,3.99-.14,4.83-.04,9.67-.04,14.51h-.11c0,.97-.02,1.94,0,2.9Z"/>
          <path class="cls-8" d="M346.22,2396.47c0-2.16.09-4.32-.03-6.47-.09-1.59-1.03-2.79-2.67-2.9-9.69-.63-10.01-.6-9.99,8.01,0,1.92-.03,3.84.1,5.76.22,3.14.93,3.84,3.85,4.02,1.2.07,2.4.07,3.6.03,4.67-.14,5.11-.61,5.26-5.56.03-.96,0-1.92,0-2.88h-.13Z"/>
          <path class="cls-8" d="M338.38,2357.69c-.24,0-.48.03-.72.05-2.57.24-3.51,1.01-3.64,3.49-.16,2.87-.17,5.75-.12,8.63.1,5.71.53,6.11,6.14,6.12,5.78,0,6.18-.37,6.33-5.98.02-.96,0-1.92,0-2.88,0-.72,0-1.44,0-2.16.11-7.1-.5-7.42-7.99-7.27Z"/>
          <path class="cls-8" d="M315.18,2357.72c-3.08.09-3.94.91-4.12,3.83-.17,2.88-.17,5.77-.11,8.65.11,5.32.6,5.77,5.78,5.83.72,0,1.44,0,2.16-.03,3.83-.2,4.34-.72,4.52-4.83.06-1.44,0-2.88,0-4.32h.03c0-.48,0-.96,0-1.44.1-7.72-.34-7.91-8.27-7.67Z"/>
          <path class="cls-8" d="M316.75,2386.89c-5.09.1-5.63.64-5.81,5.92-.03.96,0,1.92,0,2.88h-.01v.72c0,8.8-.29,8.84,9.6,8.36,1.68-.08,2.64-1.15,2.71-2.79.12-2.88.18-5.76.14-8.64-.09-6.05-.65-6.56-6.61-6.45Z"/>
          <path class="cls-8" d="M346.22,2428.52c0-2.16.09-4.32-.03-6.47-.09-1.59-1.03-2.79-2.67-2.9-9.69-.63-10.01-.6-9.99,8.01,0,1.92-.03,3.84.1,5.76.22,3.14.93,3.84,3.85,4.02,1.2.07,2.4.07,3.6.03,4.67-.14,5.11-.61,5.26-5.56.03-.96,0-1.92,0-2.88-.04,0-.09,0-.13,0Z"/>
          <path class="cls-8" d="M316.75,2418.94c-5.09.1-5.63.64-5.81,5.92-.03.96,0,1.92,0,2.88h-.01v.72c0,8.8-.29,8.84,9.6,8.36,1.68-.08,2.64-1.15,2.71-2.79.12-2.88.18-5.76.14-8.64-.09-6.05-.65-6.56-6.61-6.45Z"/>
          <path class="cls-8" d="M361.96,2206.96c3.44,1.55,3.05,4.53,3.05,7.42,0,11.61-.02,23.22,0,34.83,0,1.93.06,3.87.25,5.79.17,1.69,1.3,2.45,2.98,2.47,1.71.01,2.9-.8,3.05-2.38.18-1.92.23-3.86.23-5.79.03-11.61,0-23.22.07-34.83.04-6.39.11-6.48,6.51-6.5,17.17-.07,34.34-.07,51.52-.07,1.45,0,2.9.07,4.34.25,1.32.17,2.18,1.02,2.29,2.38.14,1.68.21,3.38.21,5.07.03,8.22.15,16.45,0,24.67-.09,5.03.87,10.16-.96,15.1-.23.61-.18,1.5.1,2.09,1.74,3.69,1.15,7.61,1.19,11.44.16,17.65.23,35.31.37,52.96.02,3.14.18,6.29.4,9.42.04.64.48,1.58.98,1.78.48.2,1.43-.2,1.92-.62,2.52-2.2,3.52-5,3.49-8.38-.1-10.64-.04-21.28-.04-31.92h.02c0-10.16.1-20.32-.05-30.47-.06-3.61,1.04-6.45,3.27-9.27,6.16-7.76,12.07-15.73,18.09-23.6.58-.77,1.17-1.55,1.86-2.21.75-.72,1.71-1.04,2.52-.14,1.29,1.44,2.49,2.95,3.68,4.47,5.96,7.62,11.92,15.23,17.85,22.88,1.87,2.41,4.01,3.96,7.31,3.92,11.61-.17,23.22-.14,34.83-.23,1.15,0,2.54.12,3.04-1.34.45-1.33-.54-2.25-1.18-3.23-.26-.4-.6-.76-.91-1.13-6.99-8.34-14-16.67-20.98-25.01-1.58-1.89-3.35-3.5-5.74-4.27-1.62-.52-2.24-1.68-2.26-3.28-.02-1.21,0-2.42-.1-3.63-.26-3.53-.97-4.38-4.25-4.58-2.16-.13-4.34.02-6.5.19-1,.08-1.81.8-2.07,1.79-.3,1.16-.35,2.38-.58,3.55-.46,2.3-1.15,2.79-3.52,2.28-5.2-1.13-10.41-2.2-15.55-3.54-4.03-1.04-6.87,0-9.34,3.43-4.53,6.27-9.39,12.3-14.1,18.44-1.18,1.53-2.34,3.08-3.54,4.59-.44.56-1.06,1.05-1.8.66-.36-.19-.75-.73-.75-1.11-.05-10.16-.05-20.31-.05-30.47,0-1.59.75-2.79,2.12-3.54,1.91-1.04,1.88-2.59,1.27-4.34-3.65-10.5-7.34-20.99-10.92-31.51-.85-2.49-2.57-3.08-4.95-3.37-3.75-.46-3.73-.63-4.24-4.41-.69-5.11-.95-5.35-5.63-5.44-5.02-.1-6.06.54-6.03,5.67,0,.48-.07.96-.11,1.45-.15,1.78-1.33,2.55-2.9,2.61-2.9.12-5.8.1-8.7.09-7.5-.04-15,.04-22.49-.24-4.45-.17-7.15,1.21-8.61,5.74-3.02,9.43-6.51,18.71-9.79,28.06-.32.91-.63,1.83-.83,2.78-.2.96-.24,2.2.69,2.62ZM382.27,2191.13c.27-1.67,1.45-3.03,3.36-3.28,1.69-.23,3.66,1.39,4.1,3.32.11.46.16.95.17,1.42.02,1.2,0,2.39,0,3.59h.02c0,.48.02.96,0,1.44-.16,3.4-1,4.18-4.36,4.05-2.6-.1-3.53-.86-3.6-3.38-.06-2.38-.08-4.81.29-7.15Z"/>
          <path class="cls-8" d="M530.32,2314.24c-.87-.14-2.08-.21-1.83-1.5.08-.44,1.09-.95,1.7-.99,2.78-.2,3.73-1.81,3.69-4.35-.02-.97.04-1.93.04-2.9.01-12.08.03-24.17.02-36.25,0-1.45-.07-2.9-.18-4.34-.12-1.66-1.08-2.65-2.7-2.89-1.19-.18-2.4-.29-3.6-.3-8.94-.07-17.88-.12-26.82-.13-1.44,0-2.89.17-4.31.41-1.01.17-1.74.94-1.92,1.93-.22,1.18-.27,2.4-.27,3.61,0,12.57.01,25.13.04,37.7,0,1.21.05,2.42.19,3.62.18,1.59,1.03,2.84,2.65,2.97,2.64.21,5.3.24,7.94.11,1.63-.08,2.52-1.28,2.7-2.89.13-1.2.11-2.42.28-3.61.31-2.16,1-2.93,3.32-3.01,3.86-.13,7.73-.07,11.59.04.53.02,1.03.82,1.55,1.25-.44.5-.84,1.36-1.33,1.43-2.39.31-4.81.35-7.2.59-2.46.25-3.36,1.18-3.59,3.68-.13,1.44-.09,2.9-.1,4.35-.04,3.62-.03,7.25-.12,10.87-.02.65-.25,1.59-1.25,1.38-.66-.14-1.39-.47-1.84-.95-1.67-1.77-1.03-4.11-1.33-6.22-.28-1.94-1.3-3.08-3.25-3.27-1.44-.14-2.89-.22-4.34-.24-10.63-.09-21.27.04-31.9-.31-4.83-.16-8.47,1.28-11.19,5.21-.55.79-1.22,1.5-1.84,2.24-7.33,8.67-14.69,17.33-21.98,26.03-2.95,3.52-5.79,7.13-8.6,10.75-1.01,1.3-2.52,2.74-1.52,4.48.77,1.34,2.58.91,4,1.06,3.41.37,5.94-.86,8.15-3.56,7.83-9.52,15.83-18.9,23.76-28.32,1.24-1.48,2.46-2.98,3.78-4.39,1.35-1.44,2.46-1.46,3.68-.16.82.88,1.54,1.86,2.32,2.78,8.12,9.59,16.35,19.09,24.29,28.83,2.86,3.51,6.02,5.05,10.56,4.94,10.39-.25,20.78-.08,31.17-.08v.02c9.67,0,19.33,0,29,0,1.93,0,3.87-.02,5.79-.2,2.06-.19,2.66-1.78,1.47-3.65-.39-.61-.8-1.22-1.26-1.77-11.38-13.48-22.76-26.95-34.15-40.43-1.42-1.68-2.92-3.23-5.26-3.59ZM518.89,2279.52c-.19,3.23-1.21,4.09-4.6,3.94-2.49-.11-3.32-.92-3.45-3.57-.08-1.68-.08-3.37,0-5.05.17-3.48,3.45-5.19,6.65-3.44.55.3,1.07,1.04,1.18,1.65.25,1.41.23,2.87.23,2.82,0,2.21.04,2.93,0,3.65Z"/>
          <path class="cls-8" d="M458.58,2388.78c0-.72,0-1.44,0-2.17.04-9.5.25-9.5-10.6-8.92-1.98.11-3.01,1.19-3.05,3.31-.1,5.05-.09,10.1.03,15.15.05,2.02,1.13,2.93,3.21,3.16,1.19.13,2.4.14,3.6.15,6.26.02,6.67-.36,6.8-6.34.03-1.44,0-2.89,0-4.33Z"/>
          <path class="cls-8" d="M474.36,2399.27c.94.14,1.91.16,2.86.19,7.17.2,7.56-.19,7.62-7.57,0-.96,0-1.91,0-2.87,0-1.2.01-2.39,0-3.59-.06-7.76-.44-8.14-8.07-7.87-.95.03-1.92.06-2.85.24-1.26.24-2.27,1.01-2.4,2.32-.55,5.48-.45,10.99-.08,16.48.11,1.64,1.37,2.45,2.92,2.68Z"/>
          <path class="cls-8" d="M458.53,2418.45c-.12-2.63-.97-3.66-3.37-3.84-2.4-.18-4.83-.15-7.23.04-2.08.17-3.04,1.2-3.12,3.29-.14,3.38-.13,6.77-.1,10.15.07,7.88.39,8.17,8.17,7.99.24,0,.48,0,.73-.01,4.07-.18,4.74-.75,4.94-4.57.1-1.93.02-3.87.02-5.8,0-2.42.09-4.84-.03-7.25Z"/>
          <path class="cls-8" d="M484.94,2421.72c.04-6.29.1-7.29-7.39-7.33-.96,0-1.93.06-2.88.19-2.36.34-3.24,1.27-3.37,3.86-.14,2.88-.09,5.77-.11,8.66-.07,9.46-.06,9.24,9.94,8.91,2.65-.09,3.51-.95,3.65-3.47.14-2.4.03-4.81.03-7.21h.13c0-1.2,0-2.41,0-3.61Z"/>
          <path class="cls-8" d="M380.39,2318.02c-.24.01-.48.06-.7.13-.96.34-1.74.97-1.9,1.96-.79,5-.77,10.01.01,15.01.15.98.85,1.83,1.84,1.98,3.08.46,6.42,1.18,9.11-.55,2.21-1.42,1.3-4.39,1.45-6.73.05-.72,0-1.44,0-2.16h0c0-.48,0-.96,0-1.44.1-8.66-.34-8.75-9.84-8.21Z"/>
          <path class="cls-8" d="M412.28,2325.73c.1-7.74-.3-8-8.22-7.8-.48.01-.96.07-1.44.14-1.67.26-2.57,1.34-2.65,2.93-.14,2.89-.17,5.78-.15,8.68.05,7.77.54,8.21,8.22,7.74.48-.03.96-.05,1.44-.12,1.68-.23,2.59-1.29,2.66-2.9.1-2.41.03-4.82.03-7.23h.11c0-.48,0-.96,0-1.45Z"/>
          <path class="cls-8" d="M335.48,2332.75c.02-.24,0-.48,0-.72.09-9.39,0-9.36-8.99-8.94-.24.01-.48.05-.71.11-1,.26-1.78.86-1.97,1.85-.84,4.27-.63,8.56,0,12.83.15,1.04.85,1.77,1.83,1.97,2.83.56,5.93,1.17,8.38-.41,2.23-1.43,1.25-4.37,1.46-6.7Z"/>
          <path class="cls-8" d="M476.31,2269.14c-2.09.13-3.18,1.13-3.3,3.09-.17,2.86-.2,5.75-.07,8.61.11,2.46,1.08,3.27,3.62,3.57.48.06.95.08,1.43.1,6.57.29,7.31-.44,7.41-7.18.04-8.19.11-8.74-9.1-8.19Z"/>
          <path class="cls-8" d="M480.79,2291.31c-7.12-.45-7.87.24-7.93,7.35,0,.72-.02,1.44,0,2.16.15,5.31.69,5.88,5.74,5.97.96.02,1.92.02,2.88-.04,2.69-.18,3.56-.85,3.73-3.36.18-2.63.21-5.28.08-7.92-.17-3.36-.9-3.94-4.5-4.17Z"/>
          <path class="cls-8" d="M462.35,2360.37c8.06.52,9.35-.72,9.04-8.8-.05-1.19-.13-2.43-.49-3.56-.94-2.93-4.09-4.5-7.67-3.97-2.96.44-4.69,2.2-5.01,5.27-.12,1.19-.02,2.41-.02,3.62h-.04c0,1.21-.08,2.42.02,3.62.23,2.85,1.12,3.63,4.17,3.82Z"/>
          <path class="cls-8" d="M451.95,2276.58c.02,1.68.06,3.36.2,5.02.14,1.67,1.25,2.49,2.82,2.73.71.11,1.43.14,2.15.17,6.65.24,7.32-.42,7.3-7.2,0-1.2.01-2.4,0-3.6,0-.48-.04-.96-.11-1.43-.28-1.98-1.21-3.04-3.25-3.18-8.82-.61-9.19,0-9.1,7.48Z"/>
          <path class="cls-8" d="M451.99,2300.81c.16,5.48.74,6.01,6.45,6.01.48,0,.97,0,1.45-.02,3.57-.17,4.36-.85,4.53-4.19.11-2.17.1-4.35.02-6.52-.16-3.98-.86-4.79-4.6-4.91-7.94-.25-7.88.45-7.86,7.45,0,.72-.02,1.45,0,2.17Z"/>
          <path class="cls-8" d="M416.89,2224.89c.26,4.34.94,4.96,5.12,5.04,5.51.1,6.12-.49,6.26-6,.02-.72,0-1.43,0-3.34-.02-.48-.06-2.15-.19-3.81-.08-.99-.54-1.99-1.45-2.31-2.76-.97-5.73-1.31-8.32.15-1.86,1.04-1.36,3.4-1.45,5.26-.08,1.67-.07,3.35.03,5.01Z"/>
          <path class="cls-8" d="M420.49,2253.36c7.72.28,7.87,0,7.68-7.22,0-1.67.1-3.36-.03-5.02-.16-2.09-1.08-3-3.12-3.2-1.43-.14-2.87-.17-4.3-.11-2.61.12-3.59.89-3.73,3.34-.16,2.86-.16,5.74.02,8.6.17,2.71.98,3.51,3.48,3.6Z"/>
          <path class="cls-8" d="M379.55,2224.14c.16,5.21.81,5.85,5.89,5.8,4.38-.04,5.03-.64,5.23-4.95.05-.96,0-1.93,0-2.89-.05,0-.09,0-.14,0,0-1.93.08-3.86-.04-5.77-.06-.98-.7-1.91-1.68-2.14-2.6-.59-5.37-1.06-7.74.36-2.21,1.32-1.36,3.89-1.52,5.98-.09,1.2-.05,2.41-.01,3.62Z"/>
          <path class="cls-8" d="M409.55,2223.24c.04-.48,0-.97,0-1.45,0-.48-.01-.97,0-1.45.12-6.09-.71-6.8-7.35-6.49-.24.01-.48.03-.72.06-1.62.22-2.82,1.11-2.87,2.74-.12,3.61-.07,7.23.03,10.85.03.98.69,1.88,1.71,2.09,2.61.54,5.42,1.07,7.77-.33,2.17-1.29,1.25-3.93,1.44-6.02Z"/>
          <path class="cls-8" d="M420.65,2278.08c7.48.13,7.75.1,7.65-7.4,0-1.2,0-2.39,0-3.59,0-.48-.03-.96-.09-1.43-.26-2-1.14-2.88-3.29-3.01-1.67-.1-3.35-.06-5.02.02-1.67.08-2.68,1.06-2.73,2.71-.11,3.11-.17,6.22-.07,9.33.08,2.59.87,3.34,3.56,3.38Z"/>
          <path class="cls-8" d="M409.52,2242.12c-.16-3.57-.82-4.35-4.1-4.48-7.06-.28-7.03.71-7.04,6.65,0,1.44-.04,2.87.03,4.31.19,4.27.76,4.78,5.2,4.84,5.18.07,5.76-.48,5.93-5.57.02-.72,0-1.44,0-2.15,0-1.2.04-2.4-.01-3.59Z"/>
          <path class="cls-8" d="M390.68,2241.56c-.19-2.98-.9-3.7-3.96-3.86-1.42-.08-2.86-.02-4.28.12-1.58.16-2.67,1.04-2.76,2.72-.12,2.38-.22,4.77-.18,7.15.09,5.23.67,5.76,5.76,5.7,4.67-.06,5.23-.61,5.43-5.38.04-.95,0-1.91,0-2.86h0c0-1.19.06-2.39-.01-3.58Z"/>
          <path class="cls-8" d="M469.87,2241.76c-2.03-.51-3.82.08-5.26,1.5-1.76,1.73-1.96,8.26-.43,10.21.14.18.29.42.49.49,2.55.94,5.14.98,7.68.09.56-.2,1.12-.94,1.31-1.55.36-1.12.44-2.33.64-3.51-.14-1.19-.16-2.4-.44-3.54-.51-2.05-2.01-3.18-4-3.68Z"/>
          <path class="cls-8" d="M391.67,2302.01c2.38.59,4.78.65,7.14-.06.99-.3,1.55-1.14,1.75-2.11.19-.94.19-1.92.25-2.54-.06-2.02.11-3.73-.84-5.26-1.04-1.68-3.65-2.9-5.63-2.58-2.38.39-4.39,2.28-4.8,4.79-.42,2.63-.7,5.3,1.5,7.43.17.16.41.28.64.34Z"/>
        </g>
        <path class="cls-8" d="M578.7,2453.52c-.21-2.25-1.43-3.18-3.83-3.6-2.77-.48-6.36,1.15-8.17-1.56-1.58-2.36-.53-5.67-.65-8.55-.06-1.45-.02-2.9-.02-4.35,0-20.31.05-40.63,0-60.94-.01-6.14-.55-6.61-6.54-6.8-.48-.02-.97,0-1.45,0-17.65,0-35.31,0-52.96.02-1.69,0-3.39.07-5.06.28-1.58.19-2.69,1.14-2.8,2.8-.15,2.17-.17,4.35-.18,6.52-.05,22.01-.05,44.01-.15,66.02-.03,6.18-.4,6.5-6.66,6.51-16.2.04-32.41.04-48.61,0-8.29-.02-8.34-.06-8.35-8.58-.02-20.56.04-41.11.03-61.67,0-12.91,1.41-11.94-12.21-11.93-4.16,0-7.43,1.37-10.32,4.32-10.85,11.04-21.78,21.99-32.71,32.95-2.15,2.16-3.09,4.19-.62,6.84.7.75.84,2.24.85,3.4.04,5.94.07,11.88.07,17.82h.11v15.47c0,2.05-1.66,3.72-3.72,3.72h-67.28c-2.09,0-3.79-1.7-3.79-3.79v-139.45c1.18-.51,2.3-1.27,3.33-2.39,1.79-1.92,3.56-4.54,6.14-4.86,3.21-.4,4.62,3.05,6.64,4.96,2.54,2.4,5.29,3.35,8.95,3.03,5.52-.48,11.07-.75,16.59-.19,3.99.4,8.01.09,12.01.29,2.87.15,3.5.72,3.69,3.37.14,1.93.11,3.87.13,5.8.08,7.01.14,108.6.22,115.62.03,2.44.22,4.81,1.93,6.81,1.46,1.7,3.31,2.71,4.25,2.07,1.46-1,1-2.57,1.07-3.94.08-1.69,0-3.39,0-5.08-.01-9.67.07-113.93-.09-123.6-.05-3.09.85-5.48,2.8-7.89,4.86-6.02,9.42-12.27,14.11-18.43,2.49-3.27,4.94-6.57,7.51-9.78,1.53-1.91,2.55-1.93,4.02-.04,7.42,9.55,14.77,19.15,22.17,28.71,1.9,2.45,2.27,5.27,2.26,8.22,0,6.05,0,12.09,0,18.14h.15c0,6.77-.02,13.54.02,20.31,0,.9.1,2,1.26,2.27,1.1.26,1.75-.62,2.43-1.29,1.74-1.71,2.72-4.04,2.72-6.48,0-1.94.05-3.89.06-5.83.04-8.22.07-16.45.11-24.67,0-2,.19-3.81,2.57-4.62,1.71-.58,1.9-2.03,1.14-3.54-.43-.86-.98-1.67-1.57-2.43-9.62-12.43-19.35-24.78-28.82-37.33-2.79-3.71-6.02-4.96-10.54-4.79-8.94.32-17.9.17-26.84.19-1.93,0-3.87,0-5.8-.15-1.32-.09-2.21-.87-2.43-2.24-.11-.71-.2-1.45-.16-2.17.2-4.35-1.56-4.81-4.76-4.9-1.95-.05-3.91.02-5.86.17-4.01.32-4.58.46-4.7,4.42-.12,4.28-1.05,4.95-5.2,4.98-.48,0-.98.08-1.45.01-4.4-.57-7.37,1.6-9.72,5.01-.41.6-.86,1.17-1.3,1.75-8.43,11.21-16.86,22.42-25.28,33.64-1.01,1.35-1.97,2.75-2.8,4.22-.81,1.42.06,2.97,1.68,3.21.57.09,1.13.15,1.68.19v138.57c0,2.1-1.7,3.8-3.8,3.8h-4.92c-1.35,0-2.44,1.09-2.44,2.44v4.99c0,1.35,1.09,2.44,2.44,2.44h89.15c.95,0,1.91,0,2.86,0h4.3c60.53,0,121.06,0,181.59-.02,2.66,0,5.32-.06,7.97-.24,1.89-.13,3.18-1.25,3.41-3.16.2-1.67.25-3.38.09-5.04ZM402.97,2446.31c-.05,2.66-.82,3.39-3.57,3.46-9.53.23-9.04.49-9.02-8.23,0-1.69,0-3.38,0-5.07h.15c0-3.38-.09-6.76.03-10.14.08-2.19.92-2.92,3.17-3.09,1.44-.11,2.9-.12,4.34-.09,4.51.1,4.89.4,4.95,5.06.08,6.03.06,12.07-.05,18.1ZM423.06,2430.67c-.14,1.04-.75,1.71-1.78,1.97-.46.12-.93.21-1.41.25-5.63.49-6.75-.64-6.4-6.36.17-2.68.87-3.43,3.39-3.6.48-.03.96-.04,1.43-.05,4.37-.02,4.95.56,4.95,5.51-.03.36-.07,1.32-.2,2.27ZM540.02,2384.2c.16-4.33.63-4.76,5.2-4.76,1.19,0,2.4.07,3.58.26,1.01.16,1.83.81,1.85,1.89.09,4.56.13,9.12.1,13.67,0,1.33-.85,2.24-2.19,2.41-1.19.16-2.4.18-3.59.17-4.39-.03-4.8-.45-4.95-4.99-.05-1.44,0-2.88,0-4.33h0c0-1.44-.05-2.89,0-4.33ZM513.77,2390.92c0-.95,0-1.91,0-2.86h.03c0-1.19-.03-2.39,0-3.58.16-4.58.57-5,4.86-5.07,5.23-.09,5.78.38,5.89,5.54.07,3.34.04,6.69-.09,10.02-.06,1.59-1.02,2.66-2.71,2.75-7.98.44-8.02.36-7.98-6.79ZM524.63,2428.96c-.13,4.99-.84,5.61-6.03,5.5-.48-.01-.96-.03-1.43-.07-2.43-.23-3.16-1-3.29-3.74-.09-1.91-.02-3.83-.02-5.75h-.02c0-1.2-.04-2.4,0-3.59.16-4.61.83-5.23,5.59-5.19,4.29.04,5.06.73,5.19,4.94.08,2.63.08,5.27.01,7.9ZM550.8,2431.34c-.01,1.66-.9,2.78-2.56,2.9-1.91.14-3.83.13-5.74,0-1.3-.09-2.27-.92-2.32-2.3-.09-2.4-.02-4.8-.02-7.2h-.17c0-1.44-.06-2.89.01-4.32.15-3.29.97-4.08,4.4-4.21,1.19-.04,2.41,0,3.59.15,1.56.21,2.77.99,2.8,2.73.06,4.08.06,8.17.03,12.25Z"/>
      </g>
      <polygon class="cls-5" points="394.14 497.05 289.51 487.94 117.12 486.09 38.59 534.8 42.09 580.87 46.16 608.99 38.59 615.53 38.59 658.29 147.87 711.79 255.05 699.9 338.61 691.08 374.86 634.13 430.95 612.55 444.19 526.32 394.14 497.05"/>
      <polygon class="cls-4" points="389.62 497.05 284.99 487.94 112.6 486.09 34.07 534.8 37.57 580.87 41.64 608.99 34.07 615.53 34.07 658.29 143.35 711.79 250.53 699.9 334.09 691.08 370.34 634.13 426.43 612.55 439.67 526.32 389.62 497.05"/>
      <polygon class="cls-1" points="112.6 528.84 34.07 534.8 37.57 580.87 41.64 608.99 34.07 615.53 34.07 658.29 143.35 711.79 250.53 699.9 334.09 691.08 370.34 634.13 426.43 612.55 439.67 526.32 389.62 539.8 284.99 530.69 112.6 528.84"/>
      <polygon class="cls-6" points="112.6 486.09 34.07 534.8 68.02 586.19 34.07 615.53 143.35 669.04 250.53 657.14 334.09 648.33 370.34 591.37 426.43 569.8 439.67 526.32 389.62 497.05 284.99 487.94 112.6 486.09"/>
      <g>
        <g>
          <path class="cls-2" d="M369.14,547.93l-2.46-.02c-.35,0-.71,0-1.07,0,0-.38,0-.76,0-1.12-.02-16.79-.02-18.96-.02-28.61v-12.46c0-1.07.01-2.07.04-3.02,2.43-2.17,5.93-6.28,2.65-12.74-1.08-2.13-2.34-4.28-3.95-6.76l-5.72-8.8c-7.95-12.24-16.17-24.9-24.34-37.31-.41-.63-.78-1.2-1.11-1.71-4.82-7.49-7.59-8.27-16.54-8.14h-.97c-2.33.05-4.65.1-6.98.16-1.79.04-3.58.09-5.37.12,0-.26,0-.52,0-.78,0-1.41-.02-3.01-.19-4.68-.58-5.67-4.84-9.77-10.36-9.98-3.44-.13-6.87-.11-10.2.07-5.52.29-9.93,4.65-10.27,10.15-.13,2.14-.16,4.25-.2,6.28-2.69.12-5.99.09-8.21,0h-.32s-2.63.09-2.63.09l-20.04-131.88c5.77-1.58,10.03-6.87,10.03-13.14v-17.64c0-2.08-.48-4.05-1.32-5.81,4.27-1.68,7.31-5.84,7.31-10.7v-10.79c0-6.35-5.16-11.51-11.5-11.51h-.93v-31.28h7.63c6.08,0,11.51-3.63,13.85-9.24,2.34-5.61,1.08-12.02-3.2-16.33l-60.24-60.73c.11-.04.22-.07.33-.11h0c1.62-.62,2.93-1.05,3.97-1.36.08.1.16.19.24.28,1.11,1.22,3.06,3.37,9.7,3.37,2.77,0,6.35-.37,11.03-1.34l6.97-1.45-.93-7.06c-.34-2.6-.57-7.42.03-9.51,1.97-6.87.29-11.33-.27-12.53l-2.16-4.62-5.09.21c-.14,0-1.85.08-4.02.2-.58-1.25-1.48-2.37-2.63-3.24-1.82-1.37-5.06-3.82-20.16-.15-1.82-2.26-4.61-3.71-7.74-3.71-5.48,0-9.95,4.46-9.95,9.95v29.38c-.33.27-.64.54-.95.84l-63.86,61.3c-4.44,4.26-5.83,10.7-3.54,16.42,2.3,5.72,7.76,9.41,13.93,9.41h8.13v31.28h-1.43c-6.35,0-11.51,5.16-11.51,11.51v10.79c0,4.96,3.16,9.18,7.57,10.79-.81,1.74-1.27,3.67-1.27,5.71v17.66c0,6.07,4,11.23,9.51,12.98l-33,251.17c-.01.11-.11.19-.22.19h-2.83q-4.27.02-4.69.06c-7.16.71-11.4,5.25-11.64,12.45-.06,1.71.07,3.55.4,5.47,1.02,6.12,5.08,9.89,11.13,10.34.62.05,2.41.18,71.66.18,6.29,0,13.15,0,20.61,0h1.41c49.4,0,98.8,0,148.21,0h29.64c6.28,0,11.38-5.11,11.38-11.38v-5.8c0-6.24-5.07-11.34-11.31-11.38Z"/>
          <path class="cls-7" d="M191.79,77.37c.48,0,.79.29.92.46l3.49,4.32,5.39-1.31c5.72-1.39,9.02-1.69,10.78-1.69,1.1,0,1.65.11,1.83.16.07.05.13.1.2.15l2.49,5.34,5.94-.35c1.24-.07,2.32-.13,3.03-.16.21.96.41,2.9-.41,5.74-1.11,3.86-.67,9.67-.41,12.06-3.28.64-6.06.96-8.27.96-1.92,0-2.81-.25-3.09-.35-.04-.05-.08-.09-.13-.14l-3.68-4.45-5.55,1.65c-.95.28-1.96.61-3.04,1h-.05l-1.4.53-.23.08-9.01,3.17v-25.96c0-.65.55-1.19,1.19-1.19M190.59,110.05l5.69,5.74,60.24,60.73c1.78,1.79,2.3,4.46,1.33,6.79-.97,2.34-3.24,3.85-5.76,3.85h-16.38v48.78h9.68c1.51,0,2.75,1.24,2.75,2.76v10.79c0,1.28-.88,2.21-1.76,2.55l-8.72,3.43,4.02,8.47c.32.67.48,1.36.48,2.06v17.64c0,2.19-1.47,4.12-3.58,4.7l-7.52,2.06,1.17,7.7,20.04,131.88,1.18,7.74,7.82-.3,2.27-.09c1.4.06,3.06.1,4.68.1s2.98-.03,4.27-.09l8.23-.38.13-8.24c.03-1.81.06-3.87.18-5.88.06-1.05.92-1.88,1.99-1.94,1.76-.09,3.56-.14,5.38-.14,1.34,0,2.69.03,4.04.08,1.54.06,1.9,1.36,1.98,2.13.13,1.26.14,2.57.15,3.82v.76s0,.06,0,.06l.07,8.84,8.84-.16c1.81-.03,3.62-.08,5.44-.12,2.29-.05,4.59-.11,6.88-.14h.96c.49-.02.96-.03,1.42-.03q4.98,0,7.64,4.14l.08.13c.32.5.67,1.05,1.07,1.65,8.21,12.46,16.4,25.07,24.31,37.26l5.72,8.8c1.44,2.22,2.55,4.11,3.48,5.95.3.6.37.94.38,1.05-.06.12-.28.51-1.06,1.2l-2.81,2.52-.1,3.77c-.03,1.04-.04,2.1-.04,3.25v12.46c0,9.65,0,11.82.02,28.61,0,.38,0,.77,0,1.17l.05,8.63,8.63.08h.97s.12,0,.12,0l2.47.02c1.41,0,2.61,1.21,2.61,2.62v5.8c0,1.45-1.18,2.63-2.63,2.63h-29.64c-49.41,0-98.81,0-148.21,0h-1.41c-7.46,0-14.31,0-20.6,0-59.07,0-69.86-.1-71.01-.16-1.77-.13-2.74-.64-3.14-3.05-.22-1.35-.32-2.6-.28-3.73.09-2.78.95-3.73,3.68-4.02.4,0,1.7-.01,3.93-.02h2.84c4.48-.03,8.3-3.4,8.86-7.81l33-251.17.95-7.27-6.99-2.22c-2-.63-3.4-2.54-3.4-4.64v-17.66c0-.69.15-1.37.46-2.02l4.01-8.64-8.94-3.28c-.91-.33-1.82-1.26-1.82-2.57v-10.79c0-1.52,1.24-2.76,2.76-2.76h10.19v-48.78h-16.88c-2.57,0-4.85-1.54-5.8-3.92-.96-2.38-.38-5.06,1.48-6.84l63.87-61.31c.12-.12.25-.23.38-.33l3.25-2.63v-2.08M191.79,68.62c-5.48,0-9.95,4.46-9.95,9.95v29.38c-.33.27-.64.54-.95.84l-63.86,61.3c-4.44,4.26-5.83,10.7-3.54,16.42,2.3,5.72,7.76,9.41,13.93,9.41h8.13v31.28h-1.43c-6.35,0-11.51,5.16-11.51,11.51v10.79c0,4.96,3.16,9.18,7.57,10.79-.81,1.74-1.27,3.67-1.27,5.71v17.66c0,6.07,4,11.23,9.51,12.98l-33,251.17c-.01.11-.11.19-.22.19h-2.83q-4.27.02-4.69.06c-7.16.71-11.4,5.25-11.64,12.45-.06,1.71.07,3.55.4,5.47,1.02,6.12,5.08,9.89,11.13,10.34.62.05,2.41.18,71.66.18,6.29,0,13.15,0,20.61,0h1.41c49.4,0,98.8,0,148.21,0h29.64c6.28,0,11.38-5.11,11.38-11.38v-5.8c0-6.24-5.07-11.34-11.31-11.38l-2.46-.02c-.35,0-.71,0-1.07,0,0-.38,0-.76,0-1.12-.02-16.79-.02-18.96-.02-28.61v-12.46c0-1.07.01-2.07.04-3.02,2.43-2.17,5.93-6.28,2.65-12.74-1.08-2.13-2.34-4.28-3.95-6.76l-5.72-8.8c-7.95-12.24-16.17-24.9-24.34-37.31-.41-.63-.78-1.2-1.11-1.71-4.53-7.04-7.26-8.15-15-8.15-.49,0-1.01,0-1.54.01h-.97c-2.33.05-4.65.1-6.98.16-1.79.04-3.58.09-5.37.12,0-.26,0-.52,0-.78,0-1.41-.02-3.01-.19-4.68-.58-5.67-4.84-9.77-10.36-9.98-1.46-.05-2.92-.08-4.37-.08-1.97,0-3.92.05-5.83.15-5.52.29-9.93,4.65-10.27,10.15-.13,2.14-.16,4.25-.2,6.28-1.22.06-2.56.08-3.87.08-1.59,0-3.13-.03-4.34-.09h-.32s-2.63.09-2.63.09l-20.04-131.88c5.77-1.58,10.03-6.87,10.03-13.14v-17.64c0-2.08-.48-4.05-1.32-5.81,4.27-1.68,7.31-5.84,7.31-10.7v-10.79c0-6.35-5.16-11.51-11.5-11.51h-.93v-31.28h7.63c6.08,0,11.51-3.63,13.85-9.24,2.34-5.61,1.08-12.02-3.2-16.33l-60.24-60.73c.11-.04.22-.07.33-.11h0c1.62-.62,2.93-1.05,3.97-1.36.08.1.16.19.24.28,1.11,1.22,3.06,3.37,9.7,3.37,2.77,0,6.35-.37,11.03-1.34l6.97-1.45-.93-7.06c-.34-2.6-.57-7.42.03-9.51,1.97-6.87.29-11.33-.27-12.53l-2.16-4.62-5.09.21c-.14,0-1.85.08-4.02.2-.58-1.25-1.48-2.37-2.63-3.24-1.11-.84-2.75-2.08-7.3-2.08-2.9,0-6.98.5-12.85,1.93-1.82-2.26-4.61-3.71-7.74-3.71h0Z"/>
        </g>
        <path class="cls-10" d="M195.08,562.79c0-.93-2.47-71.99-2.47-71.99l127.28-48.51,34.93,49.75v72.3l-159.74-1.54Z"/>
        <rect class="cls-7" x="143.27" y="181.92" width="89.96" height="55.2"/>
        <g>
          <path class="cls-8" d="M126.73,188.25h13.14c1.47,0,2.65,1.18,2.65,2.64v41.32c0,1.46-1.18,2.64-2.65,2.64h-6.45c-2.12,0-3.85,1.73-3.85,3.85v10.79c0,2.12,1.73,3.84,3.85,3.84h111.28c2.12,0,3.84-1.72,3.84-3.84v-10.79c0-2.12-1.72-3.85-3.84-3.85h-5.94c-1.47,0-2.65-1.18-2.65-2.64v-41.32c0-1.46,1.18-2.64,2.65-2.64h12.64c6.52,0,9.81-7.88,5.21-12.51l-60.81-61.3c-.71-.72-1.54-1.26-2.42-1.62v-34.25c0-1.26-1.02-2.29-2.29-2.29s-2.29,1.02-2.29,2.29v33.92c-1.2.3-2.35.9-3.3,1.82l-63.86,61.3c-4.77,4.57-1.53,12.64,5.09,12.64ZM207.63,190.26c0-1.12.91-2.01,2.01-2.01h16.36c1.12,0,2.01.9,2.01,2.01v15.22c0,1.11-.9,2-2.01,2h-16.36c-1.11,0-2.01-.9-2.01-2v-15.22ZM207.63,217.62c0-1.12.91-2.01,2.01-2.01h16.36c1.12,0,2.01.9,2.01,2.01v15.22c0,1.11-.9,2-2.01,2h-16.36c-1.11,0-2.01-.9-2.01-2v-15.22ZM179.13,190.26c0-1.12.9-2.01,2.01-2.01h16.36c1.12,0,2.01.9,2.01,2.01v15.22c0,1.11-.9,2-2.01,2h-16.36c-1.12,0-2.01-.9-2.01-2v-15.22ZM179.13,217.62c0-1.12.9-2.01,2.01-2.01h16.36c1.12,0,2.01.9,2.01,2.01v15.22c0,1.11-.9,2-2.01,2h-16.36c-1.12,0-2.01-.9-2.01-2v-15.22ZM150.63,190.26c0-1.12.9-2.01,2.01-2.01h16.36c1.12,0,2.01.9,2.01,2.01v15.22c0,1.11-.9,2-2.01,2h-16.36c-1.12,0-2.01-.9-2.01-2v-15.22ZM150.63,217.62c0-1.12.9-2.01,2.01-2.01h16.36c1.12,0,2.01.9,2.01,2.01v15.22c0,1.11-.9,2-2.01,2h-16.36c-1.12,0-2.01-.9-2.01-2v-15.22Z"/>
          <path class="cls-8" d="M368.41,555.59c-.82,0-1.64-.01-2.47-.02-8.63-.05-8.67-.06-8.69-8.78-.03-22.23-.02-18.84-.02-41.08,0-1.59.03-3.18.1-4.76.06-1.35.55-2.33,1.71-3.3,2.37-1.97,2.63-2.42,1.71-4.23-1.06-2.09-2.27-4.09-3.54-6.05-9.99-15.37-19.95-30.76-30.03-46.06-4.45-6.77-3.34-6.51-12.11-6.38-4.23.06-8.47.2-12.7.27-7.06.12-7.26-.07-7.41-6.8-.04-1.85.02-3.71-.17-5.55-.18-1.73-1.21-3.04-3.03-3.11-3.17-.12-6.35-.1-9.51.06-1.61.09-2.93,1.35-3.02,2.97-.19,3.21-.16,6.43-.26,9.65-.05,1.78-.88,3.02-2.71,3.37-4.45.85-13.43.44-13.43.44l-23.87.92s-6.35.43-9.51.32c-4.1-.14-6.99,1.34-9.23,4.88-10.16,16.11-20.47,32.13-30.71,48.19-.71,1.11-1.36,2.29-1.8,3.52-.39,1.09.03,2.22,1.23,2.45,1.8.34,3.66.54,5.49.52,6.09-.06,12.17-.34,18.25-.38,21.7-.14,43.4-.22,65.1-.32,2.38-.01,4.76-.13,7.14-.09,2.65.04,4.53-1.15,5.88-3.35.55-.9,1.14-1.78,1.7-2.68,7.24-11.7,14.48-23.4,21.73-35.09.98-1.57,1.95-3.15,3.04-4.65,1.49-2.05,2.79-2.04,4.29.24,6.81,10.41,13.6,20.82,20.27,31.32,8.61,13.57,6.98,7.9,7.04,24.28.08,23.02-.02,20.43-.11,43.46-.02,4.9-.73,5.5-5.43,5.72-1.06.05-2.12.03-3.18.03-2.98,0-5.97,0-8.95,0v-30.1c0-6.26-5.07-11.33-11.33-11.33h0c-6.26,0-11.33,5.07-11.33,11.33v30.12c-3.49,0-6.98,0-10.47,0-9.38,0-9.25.24-9.24-9.08.02-20.91.04-16.2.01-37.11-.01-9.25-.07-9.32-9.21-9.3-25.67.05-51.34.16-77.01.25-1.59,0-3.18,0-4.76.09-4.53.26-5.29,1.03-5.56,5.82-.13,2.38-.08,4.76-.09,7.14-.02,20.38.01,15.14-.06,35.52-.02,6.05-.46,6.32-6.19,6.67-.05,0-.27,0-.65,0l.7-23.77-22.88,23.8c-13.28,0-29.84,0-42.52.02-.15-.39-.25-.88-.17-1.46l2.6-19.84,117.97-122.69,2.8,18.42h8.85l-21.34-140.43h5.25c3.28,0,5.95-2.67,5.95-5.96v-17.64c0-3.29-2.67-5.96-5.95-5.96h-94.79c-3.29,0-5.95,2.67-5.95,5.95v17.66c0,3.29,2.67,5.95,5.95,5.95h4.54l-34.05,259.19c-.51,3.91-3.84,6.84-7.78,6.85-1.87,0-6.72.02-6.81.03-3.36.33-4.62,1.66-4.74,5.09-.04,1.31.08,2.65.3,3.94.44,2.64,1.54,3.77,4.14,3.96,2.63.19,90.46.15,93.11.15,59.28,0,118.57,0,177.85,0,2.05,0,3.72-1.67,3.72-3.72v-5.8c0-2.04-1.65-3.71-3.7-3.72ZM155.2,289.61h22.88l-26.5,27.57,3.62-27.57ZM142.11,389.29l82.5-85.81,8.26,54.37-100.34,104.37,9.58-72.93ZM219.14,527.77c-.08,1.8-1.34,2.75-3.14,2.88-1.04.07-2.09.14-3.14.12-3.41-.07-4.23-.81-4.42-4.05-.08-1.31-.01-2.62-.01-3.93h-.04c0-.79-.02-1.57,0-2.36.15-5.65,1.5-6.81,7.17-6.19,2.32.25,3.53,1.16,3.63,3.33.16,3.39.12,6.8-.04,10.2ZM245.21,525.21c-.15,4.9-.86,5.56-5.49,5.6-5.2.05-5.77-.51-5.93-5.87-.02-.79,0-1.59,0-2.38h0c0-1.06-.04-2.12,0-3.17.18-4.6.98-5.33,5.81-5.28.79,0,1.59.05,2.37.15,1.78.23,2.96,1.23,3.07,3.04.16,2.63.24,5.28.16,7.92ZM270.76,525.37c-.19,4.82-.8,5.41-5.53,5.46-4.86.05-5.57-.56-5.78-5.21-.08-1.83-.06-3.67-.02-5.51.04-1.81-.42-4.03,1.39-5.05,2.62-1.49,5.57-1.27,8.33-.13.6.25,1.18,1.15,1.29,1.83.29,1.8.31,3.64.32,3.83,0,2.69.04,3.74,0,4.79Z"/>
          <ellipse class="cls-8" cx="319.89" cy="478.27" rx="5.79" ry="8.25"/>
          <path class="cls-8" d="M199.44,102.34c5.07-1.92,13.83-4.67,12.41-.14-1.19,3.83,13.69.75,13.69.75,0,0-1.07-7.99.26-12.63,1.33-4.64.15-7.17.15-7.17,0,0-6.81.28-10.43.72-2.05.25-.77-3.76-.77-4.55,0-3.65-18.74,1.66-18.74,1.66v21.49s1.42.62,3.42-.14Z"/>
        </g>
      </g>
    </g>
  </g>
</svg>