<?xml version="1.0" encoding="UTF-8"?>
<svg id="Layer_2" data-name="Layer 2" xmlns="http://www.w3.org/2000/svg" viewBox="0 0 514.18 3207.57">
  <defs>
    <style>
      .cls-1 {
        fill: #44482b;
      }

      .cls-2 {
        fill: #57b947;
        stroke: #231f20;
        stroke-miterlimit: 10;
        stroke-width: 12px;
      }

      .cls-3 {
        fill: #63af8a;
      }

      .cls-4 {
        fill: #231f20;
        opacity: .35;
      }
    </style>
  </defs>
  <g id="Trees">
    <g>
      <path class="cls-4" d="M512.21,0l-74.77,22.94-37.74,47.17-8.6,30.38-28.28,31.07-40,16.67-50.64,52.51v122.23l41.38,68.28,45.93,5.74-1.03,5.75-25.3,34.15v69.33l9.97,51.83,14.68,11.01c5.7,4.27,10.79,8.36,13.2,10.4,4.21,4.77,13.51,13.47,42.4,37.7l2,1.67,18.92,12.61-3.87,20.85-10.85,6.61-27.78,23.15-37.19,52.4v66.64l3.62,36.24,4.95,42.11,56.43,36.8h6.35l4.55,46.4.5,5.07,4.88,15.11c-8.64,5.92-24.36,18.78-61.24,50.28l-23.68,20.23.3.97-16.08,2.46-4.41-1.71-11.05-20.88-12.06-28.67.15-5.69-1.26-1.81,1.26-47.29-32.85-47.39-36.35-93.98-114.03,29.36-11.02,56.83-39.04,33.98v88.54l54.41,62.51,2.81,37.05,3.27,7.44c14.01,31.84,25.91,50.29,48.27,56.15,1.61.51,4.4,1.6,6.97,2.69,3.5,5.85,8.92,15.64,14.36,26.62l4.69,9.47,47.72,38.06,27.89,42.45,59.09,34.76h15.75l10.68,9.11v58.96l1,4.81c.33,1.56,2.1,9.81,5.01,18.73,3.39,10.4,7.19,18.31,11.95,24.91,7.77,10.77,16.95,16.43,25.04,19.36,1.46.98,3.53,2.44,6.03,4.28l1.56,8.91-1.75,28.45-16.27,85.12,3.25,11.06c.27.92,1.15,3.83,2.55,7.73l-5.8,30.34,3.24,11.02c1.6,5.44,3.71,11.59,6.45,17.81l-20.08,20.12-51.55,100.39v95.53l68.13,68.13-1.48,10.37-49.99,34.77-25.7,110.64v82.77l46.25,78.54-14.54,40c-39.33,10.18-74.08,18.69-86.59,21.19-9.15-.71-25.54-.9-62.61-.54-29.7.28-59.3.85-59.55.85l-39.22.76-13.1,75.9L0,2448.77v108.99l47.11,105.3,85.03,69.85h69.51l137.44,98.47,73.01,61.4-.81,70.86.2.6-.21,63.73,41.79,104.08,59.14,55.93V0Z"/>
      <path class="cls-2" d="M467.68,64.05l-22.59,28.24-9.04,31.91-42.92,47.15-40.66,16.94-30.49,31.62v89.79l22.59,37.27,45.18,5.65,24.04,23.58-8.23,45.88-22.59,30.49v49.13l5.65,29.36s18.07,13.55,20.33,16.94c2.26,3.39,37.27,32.75,37.27,32.75l27.11,18.07,11.29,21.46.7,9.09-9.74,52.46-25.98,15.81-20.33,16.94-24.85,35.01v49.13l3.39,33.88,2.26,19.2,25.98,16.94h24.85l13.55,31.62,5.65,57.6,8.53,26.43-5.14,24.96s-14.68,11.29-18.07,12.42-57.6,47.44-57.6,47.44l7.26,23.72-82.93,12.71-32.75-12.71-20.33-38.4-16.84-40.05v-.36s-.4-.59-.4-.59l-.83-1.96,1.24-46.57-27.21-39.26-23.15-59.86-44.05,11.34-8.42,43.41-35.06,30.52v49.13l53.08,60.99,3.39,44.66s12.42,28.24,16.94,29.36c4.52,1.13,19.2,6.78,25.98,11.29,6.78,4.52,25.77,42.87,25.77,42.87l45.38,36.19,25.98,39.53,38.4,22.59h20.33l46.31,39.53-5.65,22.02v49.13s5.65,27.11,12.42,28.24,32.75,22.59,32.75,22.59l5.67,32.39-2.28,37.06-14.68,76.8s2.56,8.71,6.31,16.13l-6.31,33s5.65,19.2,12.42,24.85c2.47,2.06,5.7,7.14,8.97,12.97l-41.72,41.81-42.92,83.58v64.38l71.01,71.01-7.76,54.35-51.95,36.14-20.33,87.53v64.38l51.04,86.67-30.71,84.46s-119.72,31.59-123.19,29.33c-3.47-2.26-120.77,0-120.77,0l-11.29,65.46-97.13,31.67v64.38l38.4,85.84,63.25,51.95h67.76l151.34,108.42,93.45,78.58c-3.31,34.77-6.55,72.56-5.35,76.15.31.94,1.5,4.64,3.31,10.3-2.43,27.12-4.25,51.24-3.31,54.07,2.26,6.78,49.54,155.86,49.54,155.86V51.63l-40.5,12.42Z"/>
      <path class="cls-1" d="M471.71,113.18l-22.59,28.24-9.04,31.91-42.92,47.15-71.15-.56v89.79l22.59,37.27,45.18,5.65,25.33,24.85v40.66l-32.11,34.45v49.13l5.65,29.36s18.07,13.55,20.33,16.94c2.26,3.39,37.27,32.75,37.27,32.75l27.11,18.07,11.29,21.46,3.39,43.76-12.42,66.92-25.98,15.81-45.18,2.82v49.13l3.39,33.88,2.26,19.2,25.98,16.94h24.85l13.55,31.62,5.65,57.6,11.29,35.01v27.11l-7.91,38.4s-14.68,11.29-18.07,12.42-57.6,47.44-57.6,47.44l7.26,23.72-82.93,12.71-32.75-12.71-20.33-38.4-18.07-42.97,1.24-46.57-27.21-39.26-23.15-59.86-44.05,11.34-43.48,24.8v49.13l53.08,60.99,3.39,44.66s12.42,28.24,16.94,29.36c4.52,1.13,19.2,6.78,25.98,11.29,6.78,4.52,25.77,42.87,25.77,42.87l45.38,36.19,25.98,39.53,38.4,22.59h20.33l46.31,39.53-5.65,22.02v49.13s5.65,27.11,12.42,28.24,32.75,22.59,32.75,22.59l7.91,45.18-4.52,73.41-14.68,76.8s5.65,19.2,12.42,24.85c6.78,5.65,19.2,33.88,22.59,38.4,1.25,1.67,4.17,8.1,7.35,15.55l-105.61,84.4v64.38l79.06,79.06-15.81,110.68-72.28,59.29v64.38l65.51,111.25-45.18,124.27s-119.72,31.59-123.19,29.33c-3.47-2.26-120.77,0-120.77,0l-108.42,32.75v64.38l38.4,85.84,63.25,51.95h67.76l151.34,108.42,99.39,83.58s-13.55,128.75-11.29,135.53c2.26,6.78,49.54,155.86,49.54,155.86V100.76l-40.5,12.42Z"/>
      <path class="cls-3" d="M471.71,64.05l-22.59,28.24-9.04,31.91-42.92,47.15-40.66,16.94-30.49,31.62v40.66l22.59,37.27,45.18,5.65,25.33,24.85v40.66l-9.52,53.08-22.59,30.49,5.65,29.36s18.07,13.55,20.33,16.94c2.26,3.39,37.27,32.75,37.27,32.75l27.11,18.07,11.29,21.46,3.39,43.76-12.42,66.92-25.98,15.81-20.33,16.94-24.85,35.01,3.39,33.88,2.26,19.2,25.98,16.94h24.85l13.55,31.62,5.65,57.6,11.29,35.01v27.11l-7.91,38.4s-14.68,11.29-18.07,12.42-57.6,47.44-57.6,47.44l7.26,23.72-82.93,12.71-32.75-12.71-20.33-38.4-18.07-42.97,1.24-46.57-27.21-39.26-23.15-59.86-44.05,11.34-8.42,43.41-35.06,30.52,53.08,60.99,3.39,44.66s12.42,28.24,16.94,29.36c4.52,1.13,19.2,6.78,25.98,11.29,6.78,4.52,42.75,36.95,42.75,36.95,0,0,5.1,28.32,8.49,30.58s42.51,51.06,45.9,51.06,33.88,21.46,38.4,22.59,20.33,0,20.33,0l46.31,39.53,12.42,55.34-18.07,15.81s5.65,27.11,12.42,28.24,32.75,22.59,32.75,22.59l7.91,45.18-4.52,73.41-14.68,76.8s5.65,19.2,12.42,24.85,19.2,33.88,22.59,38.4c.7.93,1.92,3.36,3.42,6.62l-58.76,58.89-42.92,83.58,79.06,79.06-15.81,110.68-51.95,36.14-20.33,87.53,65.51,111.25-45.18,124.27s-119.72,31.59-123.19,29.33c-3.47-2.26-120.77,0-120.77,0l-11.29,65.46-97.13,31.67,38.4,85.84,63.25,51.95h67.76l151.34,108.42,99.39,83.58s-13.55,128.75-11.29,135.53c2.26,6.78,49.54,155.86,49.54,155.86V51.63l-40.5,12.42Z"/>
      <polygon class="cls-1" points="425.02 1115.53 403.56 1202.5 450.99 1202.5 425.02 1115.53"/>
      <polygon class="cls-1" points="201.77 893.02 180.31 979.98 227.75 979.98 201.77 893.02"/>
      <polygon class="cls-1" points="474.15 1159.01 452.69 1245.98 500.12 1245.98 474.15 1159.01"/>
      <polygon class="cls-1" points="426.71 175.81 405.25 262.78 452.69 262.78 426.71 175.81"/>
      <polygon class="cls-1" points="474.15 132.33 452.69 219.29 500.12 219.29 474.15 132.33"/>
      <polygon class="cls-1" points="466.81 243.01 445.35 329.98 492.78 329.98 466.81 243.01"/>
      <polygon class="cls-1" points="369.68 192.75 348.22 279.72 395.65 279.72 369.68 192.75"/>
      <polygon class="cls-1" points="256.74 2441.46 235.28 2528.42 282.71 2528.42 256.74 2441.46"/>
      <polygon class="cls-1" points="311.7 2490.02 290.24 2576.99 337.68 2576.99 311.7 2490.02"/>
      <polygon class="cls-1" points="349.54 2395.15 328.08 2482.12 375.51 2482.12 349.54 2395.15"/>
      <polygon class="cls-1" points="451.18 2032.19 429.72 2119.15 477.16 2119.15 451.18 2032.19"/>
      <polygon class="cls-1" points="435.85 2599.85 414.39 2686.81 461.82 2686.81 435.85 2599.85"/>
      <polygon class="cls-1" points="474.9 1730.97 453.44 1817.94 500.88 1817.94 474.9 1730.97"/>
      <polygon class="cls-1" points="376.64 2528.42 355.18 2615.39 402.62 2615.39 376.64 2528.42"/>
      <polygon class="cls-1" points="198.38 2468.56 176.92 2555.53 224.36 2555.53 198.38 2468.56"/>
    </g>
  </g>
</svg>