<?xml version="1.0" encoding="UTF-8"?>
<svg id="Layer_2" data-name="Layer 2" xmlns="http://www.w3.org/2000/svg" viewBox="0 0 10517.73 1217.2">
  <defs>
    <style>
      .cls-1 {
        fill: #44482b;
      }

      .cls-2 {
        fill: #c07c5e;
      }

      .cls-3 {
        fill: none;
        stroke-width: 2.01px;
      }

      .cls-3, .cls-4 {
        stroke: #293246;
        stroke-miterlimit: 10;
      }

      .cls-5 {
        fill: #fff;
      }

      .cls-6 {
        fill: #293246;
      }

      .cls-4 {
        stroke-width: 5.22px;
      }

      .cls-4, .cls-7 {
        fill: #a55648;
      }

      .cls-8 {
        fill: #63af8a;
      }

      .cls-9 {
        fill: #231f20;
        opacity: .35;
      }
    </style>
  </defs>
  <g id="Towns_Ports" data-name="Towns / Ports">
    <g>
      <g>
        <polygon class="cls-1" points="2036.89 719.68 2037.01 587.62 1818.35 618.03 1818.35 836.57 2016.56 934.83 2069.08 887.93 2060.04 858.72 2036.89 719.68"/>
        <polygon class="cls-1" points="2604.98 784.62 2577.31 602.15 3011.01 636.12 2943.24 1173.7 2656.37 945.69 2654.32 849.01 2604.98 784.62"/>
        <path class="cls-9" d="M10513.7,335.65l-97.51,71.49-63.22,24.95-106.75-36.62-203.57-32.57-144.22,160.2c-39.9,29.69-86.44,63.18-106.04,75.82-28.25-4.05-106.06-18.64-179.78-33.25l-80.68-110.1-49.4-204.5-143.58-122.58-162.57,122.58-56.93,204.5-92.97,110.1c-84.96,14.61-174.62,29.2-207.17,33.25-22.59-12.63-76.21-46.12-122.19-75.82l-166.19-160.2-234.59,32.57-123.01,36.62-72.85-24.95-141.37-50.6-83.01,18.5-137.22,30.49-51.29,75.72-106.26-9.65-135.53-43.48-186.35,45.17-154.16-88.65-237.18,75.11-132.14-31.62-176.19,169-81.32-27.17-101.65-132.2-167.72-125.41-187.2-10.17-62.41,82.26-137.5,39.71-75.19,60.95-102.69-44.01-140.61,51.6-72.18-54.56-120.95-41.08-159.25,86.4-125.36,84.84-115.2-10.3-49.13-52.52-110.12-66.07-145.69,8.47-77.93,88.3-86.4,31.31-81.32-39.99-111.81-13.55-60.99-76.24-150.78-74.54-118.59,16.94-107.58-35.58-102.96,39.69-86.4-62.68-106.73,62.68-64.38,72.85-10.16,45.74-50.82,15.02-55.91-91.26-135.93-43.79-70.76,18.38-49.13,35.58-25.41-99.95-138.92-54.21-177.88,59.29-52.52,72.85-94.87,62.68-49.13,110.21,22.02,182.88s54.21,77.93,59.29,81.32c5.08,3.39,0,64.38,0,64.38l-223.62,43.55-99.95-50.33s-93.18,8.47-99.95,6.78-110.12-79.62-110.12-79.62l-16.94-123.67v-133.84l-77.93-91.48-19.2-21.46-123.11-19.2-100.52-116.33-156.99-108.42-184.09-53.08-160.38,91.48-97.13,86.96-120.85-30.49-163.76,80.19-126.49,15.81-142.31,40.66-107.29-65.51-112.94,25.98-284.61-119.72L0,336.24v880.96h9342.14s1175.59,0,1175.59,0V322.52l-4.03,13.12Z"/>
        <path class="cls-8" d="M10445.6,449.21l-91.56,36.14-118.51-40.66-176.19-28.19-131.12,145.65s-115.09,85.83-126.39,88.09-214.59-38.4-214.59-38.4l-96-131.01-48.56-201.03-103.96-95.24c-23.53,14.66-116.39,95.24-116.39,95.24l-55.96,201.03-110.63,131.01s-234.27,40.66-247.29,38.4-145.64-88.09-145.64-88.09l-151.1-145.65-203.03,28.19-136.57,40.66-105.51-36.14-109.17-28.42-174.49,28.8-76.01,86.88-130.67-5.57-144-49.65-174.49,44.57-157.55-88.05-221.93,72.4-130.45-28.91-176.19,183.48-116.89-51.29-101.65-132.2-149.08-121.46-155.86-15.25-60.99,69.46-144,47.44-91.48,64.38-103.35-49.24-150.77,59.61-88.09-61.2-93.18-40.66-145.69,83.01-133.84,93.63-147.39-20.79-42.35-54-96.56-54.42h-111.81l-93.18,85.73-105.04,43.48-83.01-43.48-125.36-12.88-59.29-76.24-135.53-67.76-137.22,20.33-73.78-41.76-126.31,39.67-85.57-54.28-79.32,40.72-60.99,63.25-9.04,56.5-92.61,26.29-63.25-98.6-115.2-42.92-58.73,13.55-77.05,58.19-39.38-125.71-93.48-47.7-95.03,24.87-67.76,24.85-63.25,80.22-88.09,53.05-33.88,101.01,31.62,127.49,79.06,101.91-31.62,114.13-124.24,25.41-142.31,32.13-97.13-53.4-108.42,9.92-124.24-101.02-74.54-141.26,51.51-129.84-76.36-96.06-125.36-15.66-105.04-123.85-149.08-101.65-169.41-50.82-142.31,81.32-108.44,101.97-118.57-37.6-166.02,88.09-128.75,14.71-155.86,43.48-108.42-68.36-115.2,24.88-267.67-116.36L0,380.13v837.08s9342.14,0,9342.14,0h1175.59V336.26l-72.12,112.94Z"/>
        <polygon class="cls-1" points="9565.79 810 9544.34 896.97 9591.77 896.97 9565.79 810"/>
        <polygon class="cls-1" points="9511.58 853.48 9490.12 940.45 9537.56 940.45 9511.58 853.48"/>
        <polygon class="cls-1" points="9506.22 969.76 9484.76 1056.73 9532.19 1056.73 9506.22 969.76"/>
        <polygon class="cls-1" points="9625.37 887.28 9603.91 974.24 9651.35 974.24 9625.37 887.28"/>
        <polygon class="cls-1" points="9435.35 394.29 9413.89 481.25 9461.32 481.25 9435.35 394.29"/>
        <polygon class="cls-1" points="9387.91 313.06 9366.45 400.03 9413.89 400.03 9387.91 313.06"/>
        <polygon class="cls-1" points="9565.79 924.64 9544.34 1011.6 9591.77 1011.6 9565.79 924.64"/>
        <polygon class="cls-1" points="9625.37 772.2 9603.91 859.16 9651.35 859.16 9625.37 772.2"/>
        <polygon class="cls-1" points="9709.53 687.19 9688.07 774.16 9735.51 774.16 9709.53 687.19"/>
        <polygon class="cls-1" points="9613.23 671.08 9591.77 758.05 9639.21 758.05 9613.23 671.08"/>
        <polygon class="cls-1" points="9546.03 705.44 9524.57 792.41 9572.01 792.41 9546.03 705.44"/>
        <polygon class="cls-1" points="9387.91 437.77 9366.45 524.74 9413.89 524.74 9387.91 437.77"/>
        <polygon class="cls-1" points="9279.77 269.58 9258.31 356.54 9305.75 356.54 9279.77 269.58"/>
        <polygon class="cls-1" points="9236.01 341.17 9214.55 428.13 9261.98 428.13 9236.01 341.17"/>
        <polygon class="cls-1" points="9291.91 394.29 9270.45 481.25 9317.89 481.25 9291.91 394.29"/>
        <polygon class="cls-1" points="8471.87 449.23 8450.41 536.19 8497.84 536.19 8471.87 449.23"/>
        <polygon class="cls-1" points="8398.45 474.08 8377 561.04 8424.43 561.04 8398.45 474.08"/>
        <polygon class="cls-1" points="8324.67 488.76 8303.21 575.72 8350.64 575.72 8324.67 488.76"/>
        <polygon class="cls-1" points="9223.69 459.75 9202.23 546.72 9249.67 546.72 9223.69 459.75"/>
        <polygon class="cls-1" points="9279.49 510.17 9258.03 597.13 9305.47 597.13 9279.49 510.17"/>
        <polygon class="cls-1" points="9767.11 744.21 9745.65 831.18 9793.09 831.18 9767.11 744.21"/>
        <polygon class="cls-1" points="10260.09 498.94 10238.63 585.9 10286.07 585.9 10260.09 498.94"/>
        <polygon class="cls-1" points="10327.01 524.74 10305.55 611.7 10352.99 611.7 10327.01 524.74"/>
        <polygon class="cls-1" points="10279.57 602.19 10258.12 689.15 10305.55 689.15 10279.57 602.19"/>
        <polygon class="cls-1" points="10350.73 636.55 10329.27 723.51 10376.7 723.51 10350.73 636.55"/>
        <polygon class="cls-1" points="10355.81 761.91 10334.35 848.88 10381.79 848.88 10355.81 761.91"/>
        <polygon class="cls-1" points="10283.81 714.57 10262.35 801.53 10309.79 801.53 10283.81 714.57"/>
        <polygon class="cls-1" points="10223.67 627.6 10202.21 714.57 10249.65 714.57 10223.67 627.6"/>
        <polygon class="cls-1" points="10393.93 562.48 10372.47 649.45 10419.9 649.45 10393.93 562.48"/>
        <polygon class="cls-1" points="9685.81 805.39 9664.36 892.36 9711.79 892.36 9685.81 805.39"/>
        <polygon class="cls-1" points="9482.5 756.27 9461.04 843.23 9508.48 843.23 9482.5 756.27"/>
        <polygon class="cls-1" points="9185.41 1081.13 9163.96 1168.09 9211.39 1168.09 9185.41 1081.13"/>
        <polygon class="cls-1" points="9244.99 1043.33 9223.53 1130.29 9270.97 1130.29 9244.99 1043.33"/>
        <polygon class="cls-1" points="9399.79 958.32 9378.33 1045.28 9425.77 1045.28 9399.79 958.32"/>
        <polygon class="cls-1" points="9438.98 873.32 9417.52 960.28 9464.96 960.28 9438.98 873.32"/>
        <polygon class="cls-1" points="9232.85 942.21 9211.39 1029.17 9258.83 1029.17 9232.85 942.21"/>
        <polygon class="cls-1" points="9281.98 873.32 9260.52 960.28 9307.96 960.28 9281.98 873.32"/>
        <polygon class="cls-1" points="9215.28 799.75 9193.83 886.71 9241.26 886.71 9215.28 799.75"/>
        <polygon class="cls-1" points="9165.65 976.57 9144.19 1063.53 9191.63 1063.53 9165.65 976.57"/>
        <polygon class="cls-1" points="9078.4 898.73 9056.94 985.69 9104.38 985.69 9078.4 898.73"/>
        <polygon class="cls-1" points="9153.05 841.09 9131.59 928.06 9179.03 928.06 9153.05 841.09"/>
        <polygon class="cls-1" points="8660.56 645.8 8639.1 732.77 8686.53 732.77 8660.56 645.8"/>
        <polygon class="cls-1" points="8601.26 597.13 8579.8 684.1 8627.24 684.1 8601.26 597.13"/>
        <polygon class="cls-1" points="8524.46 645.8 8503 732.77 8550.44 732.77 8524.46 645.8"/>
        <polygon class="cls-1" points="8584.89 706.79 8563.43 793.75 8610.86 793.75 8584.89 706.79"/>
        <polygon class="cls-1" points="8663.38 765.52 8641.92 852.48 8689.36 852.48 8663.38 765.52"/>
        <polygon class="cls-1" points="8731.15 678.55 8709.69 765.52 8757.12 765.52 8731.15 678.55"/>
        <polygon class="cls-1" points="8731.15 798.27 8709.69 885.24 8757.12 885.24 8731.15 798.27"/>
        <polygon class="cls-1" points="8608.6 821.42 8587.15 908.39 8634.58 908.39 8608.6 821.42"/>
        <polygon class="cls-1" points="8185.64 1090.22 8164.18 1177.19 8211.62 1177.19 8185.64 1090.22"/>
        <polygon class="cls-1" points="8299.71 1095.31 8278.25 1182.27 8325.69 1182.27 8299.71 1095.31"/>
        <polygon class="cls-1" points="8238.72 1029.8 8217.26 1116.76 8264.7 1116.76 8238.72 1029.8"/>
        <polygon class="cls-1" points="8078.43 569.97 8056.98 656.93 8104.41 656.93 8078.43 569.97"/>
        <polygon class="cls-1" points="8027.99 640.61 8006.53 727.58 8053.96 727.58 8027.99 640.61"/>
        <polygon class="cls-1" points="8153.73 644.76 8132.27 731.72 8179.71 731.72 8153.73 644.76"/>
        <polygon class="cls-1" points="8090.86 709.51 8069.4 796.47 8116.83 796.47 8090.86 709.51"/>
        <polygon class="cls-1" points="6352.89 917.65 6331.43 1004.61 6378.87 1004.61 6352.89 917.65"/>
        <polygon class="cls-1" points="6302.44 988.29 6280.99 1075.26 6328.42 1075.26 6302.44 988.29"/>
        <polygon class="cls-1" points="6428.18 992.43 6406.73 1079.4 6454.16 1079.4 6428.18 992.43"/>
        <polygon class="cls-1" points="6365.31 1057.19 6343.86 1144.15 6391.29 1144.15 6365.31 1057.19"/>
        <polygon class="cls-1" points="5219.6 943.93 5198.15 1030.9 5245.58 1030.9 5219.6 943.93"/>
        <polygon class="cls-1" points="5169.16 1014.58 5147.7 1101.55 5195.13 1101.55 5169.16 1014.58"/>
        <polygon class="cls-1" points="5294.9 1018.72 5273.44 1105.69 5320.87 1105.69 5294.9 1018.72"/>
        <polygon class="cls-1" points="5232.03 1083.48 5210.57 1170.44 5258 1170.44 5232.03 1083.48"/>
        <polygon class="cls-1" points="5968.33 475.91 5946.87 562.87 5994.3 562.87 5968.33 475.91"/>
        <polygon class="cls-1" points="5917.88 546.56 5896.42 633.52 5943.86 633.52 5917.88 546.56"/>
        <polygon class="cls-1" points="6043.62 550.7 6022.16 637.66 6069.6 637.66 6043.62 550.7"/>
        <polygon class="cls-1" points="5980.75 615.45 5959.29 702.41 6006.73 702.41 5980.75 615.45"/>
        <polygon class="cls-1" points="5803.13 559.59 5781.67 646.55 5829.11 646.55 5803.13 559.59"/>
        <polygon class="cls-1" points="5752.69 630.24 5731.23 717.2 5778.66 717.2 5752.69 630.24"/>
        <polygon class="cls-1" points="5878.43 634.38 5856.97 721.34 5904.4 721.34 5878.43 634.38"/>
        <polygon class="cls-1" points="5815.56 699.13 5794.1 786.1 5841.53 786.1 5815.56 699.13"/>
        <polygon class="cls-1" points="5740.26 740.64 5718.8 827.61 5766.24 827.61 5740.26 740.64"/>
        <polygon class="cls-1" points="5689.82 811.29 5668.36 898.25 5715.79 898.25 5689.82 811.29"/>
        <polygon class="cls-1" points="5815.56 815.43 5794.1 902.39 5841.53 902.39 5815.56 815.43"/>
        <polygon class="cls-1" points="5752.69 880.18 5731.23 967.15 5778.66 967.15 5752.69 880.18"/>
        <polygon class="cls-1" points="5590.8 559.59 5569.34 646.55 5616.78 646.55 5590.8 559.59"/>
        <polygon class="cls-1" points="5540.36 630.24 5518.9 717.2 5566.33 717.2 5540.36 630.24"/>
        <polygon class="cls-1" points="5666.1 634.38 5644.64 721.34 5692.07 721.34 5666.1 634.38"/>
        <polygon class="cls-1" points="5603.23 699.13 5581.77 786.1 5629.2 786.1 5603.23 699.13"/>
        <polygon class="cls-1" points="5441.35 655.96 5419.89 742.93 5467.32 742.93 5441.35 655.96"/>
        <polygon class="cls-1" points="5390.9 726.61 5369.44 813.58 5416.87 813.58 5390.9 726.61"/>
        <polygon class="cls-1" points="5516.64 730.75 5495.18 817.72 5542.62 817.72 5516.64 730.75"/>
        <polygon class="cls-1" points="5453.77 795.51 5432.31 882.47 5479.75 882.47 5453.77 795.51"/>
        <polygon class="cls-1" points="4668.6 531.5 4647.14 618.47 4694.57 618.47 4668.6 531.5"/>
        <polygon class="cls-1" points="4618.15 602.15 4596.69 689.11 4644.12 689.11 4618.15 602.15"/>
        <polygon class="cls-1" points="4743.89 606.29 4722.43 693.26 4769.87 693.26 4743.89 606.29"/>
        <polygon class="cls-1" points="4681.02 671.04 4659.56 758.01 4707 758.01 4681.02 671.04"/>
        <polygon class="cls-1" points="4495.42 642.68 4473.96 729.64 4521.4 729.64 4495.42 642.68"/>
        <polygon class="cls-1" points="4444.97 713.33 4423.51 800.29 4470.95 800.29 4444.97 713.33"/>
        <polygon class="cls-1" points="4570.71 717.47 4549.25 804.43 4596.69 804.43 4570.71 717.47"/>
        <polygon class="cls-1" points="4507.84 782.22 4486.38 869.19 4533.82 869.19 4507.84 782.22"/>
        <polygon class="cls-1" points="4686.29 788.08 4664.83 875.04 4712.27 875.04 4686.29 788.08"/>
        <polygon class="cls-1" points="4635.84 858.72 4614.38 945.69 4661.82 945.69 4635.84 858.72"/>
        <polygon class="cls-1" points="4761.58 862.86 4740.12 949.83 4787.56 949.83 4761.58 862.86"/>
        <polygon class="cls-1" points="4698.71 927.62 4677.25 1014.58 4724.69 1014.58 4698.71 927.62"/>
        <polygon class="cls-1" points="3905.87 959.75 3884.41 1046.71 3931.84 1046.71 3905.87 959.75"/>
        <polygon class="cls-1" points="3855.42 1030.39 3833.96 1117.36 3881.4 1117.36 3855.42 1030.39"/>
        <polygon class="cls-1" points="3981.16 1034.53 3959.7 1121.5 4007.14 1121.5 3981.16 1034.53"/>
        <polygon class="cls-1" points="3918.29 1099.29 3896.83 1186.25 3944.27 1186.25 3918.29 1099.29"/>
        <polygon class="cls-1" points="4307.94 587.62 4286.48 674.59 4333.91 674.59 4307.94 587.62"/>
        <polygon class="cls-1" points="4257.49 658.27 4236.03 745.24 4283.47 745.24 4257.49 658.27"/>
        <polygon class="cls-1" points="4383.23 662.41 4361.77 749.38 4409.21 749.38 4383.23 662.41"/>
        <polygon class="cls-1" points="4320.36 727.17 4298.9 814.13 4346.34 814.13 4320.36 727.17"/>
        <polygon class="cls-1" points="4118.2 517.85 4096.74 604.82 4144.17 604.82 4118.2 517.85"/>
        <polygon class="cls-1" points="4067.75 588.5 4046.29 675.47 4093.73 675.47 4067.75 588.5"/>
        <polygon class="cls-1" points="4193.49 592.64 4172.03 679.61 4219.47 679.61 4193.49 592.64"/>
        <polygon class="cls-1" points="4130.62 657.39 4109.16 744.36 4156.6 744.36 4130.62 657.39"/>
        <polygon class="cls-1" points="3929.59 448.08 3908.13 535.05 3955.56 535.05 3929.59 448.08"/>
        <polygon class="cls-1" points="3879.14 518.73 3857.68 605.69 3905.11 605.69 3879.14 518.73"/>
        <polygon class="cls-1" points="4004.88 522.87 3983.42 609.84 4030.86 609.84 4004.88 522.87"/>
        <polygon class="cls-1" points="3942.01 587.62 3920.55 674.59 3967.98 674.59 3942.01 587.62"/>
        <polygon class="cls-1" points="5342.33 475.91 5320.87 562.87 5368.31 562.87 5342.33 475.91"/>
        <polygon class="cls-1" points="5291.89 546.56 5270.43 633.52 5317.86 633.52 5291.89 546.56"/>
        <polygon class="cls-1" points="5417.63 550.7 5396.17 637.66 5443.6 637.66 5417.63 550.7"/>
        <polygon class="cls-1" points="5354.76 615.45 5333.3 702.41 5380.73 702.41 5354.76 615.45"/>
        <polygon class="cls-1" points="6290.02 492.71 6268.56 579.68 6316 579.68 6290.02 492.71"/>
        <polygon class="cls-1" points="6365.31 567.5 6343.86 654.47 6391.29 654.47 6365.31 567.5"/>
        <polygon class="cls-1" points="6302.44 632.25 6280.99 719.22 6328.42 719.22 6302.44 632.25"/>
        <polygon class="cls-1" points="4983.86 637.66 4962.4 724.63 5009.83 724.63 4983.86 637.66"/>
        <polygon class="cls-1" points="5059.15 712.45 5037.69 799.41 5085.13 799.41 5059.15 712.45"/>
        <polygon class="cls-1" points="4996.28 777.2 4974.82 864.17 5022.26 864.17 4996.28 777.2"/>
        <polygon class="cls-1" points="4838.16 594.18 4816.71 681.14 4864.14 681.14 4838.16 594.18"/>
        <polygon class="cls-1" points="4913.46 668.97 4892 755.93 4939.44 755.93 4913.46 668.97"/>
        <polygon class="cls-1" points="4850.59 733.72 4829.13 820.69 4876.56 820.69 4850.59 733.72"/>
        <polygon class="cls-1" points="7196.56 916.77 7175.1 1003.73 7222.54 1003.73 7196.56 916.77"/>
        <polygon class="cls-1" points="7146.11 987.42 7124.65 1074.38 7172.09 1074.38 7146.11 987.42"/>
        <polygon class="cls-1" points="7271.85 991.56 7250.4 1078.52 7297.83 1078.52 7271.85 991.56"/>
        <polygon class="cls-1" points="5417.63 1035.92 5396.17 1122.88 5443.6 1122.88 5417.63 1035.92"/>
        <polygon class="cls-1" points="5367.18 1106.56 5345.72 1193.53 5393.16 1193.53 5367.18 1106.56"/>
        <polygon class="cls-1" points="5492.92 1110.71 5471.46 1197.67 5518.9 1197.67 5492.92 1110.71"/>
        <polygon class="cls-1" points="4105.77 1030.39 4084.31 1117.36 4131.75 1117.36 4105.77 1030.39"/>
        <polygon class="cls-1" points="4055.33 1101.04 4033.87 1188.01 4081.3 1188.01 4055.33 1101.04"/>
        <polygon class="cls-1" points="4181.07 1105.18 4159.61 1192.15 4207.04 1192.15 4181.07 1105.18"/>
        <polygon class="cls-1" points="7094.35 487.34 7072.89 574.31 7120.32 574.31 7094.35 487.34"/>
        <polygon class="cls-1" points="7043.9 557.99 7022.44 644.95 7069.88 644.95 7043.9 557.99"/>
        <polygon class="cls-1" points="7169.64 562.13 7148.18 649.1 7195.62 649.1 7169.64 562.13"/>
        <polygon class="cls-1" points="7115.25 611.61 7093.79 698.57 7141.22 698.57 7115.25 611.61"/>
        <polygon class="cls-1" points="7064.8 682.25 7043.34 769.22 7090.78 769.22 7064.8 682.25"/>
        <polygon class="cls-1" points="7190.54 686.39 7169.08 773.36 7216.52 773.36 7190.54 686.39"/>
        <polygon class="cls-1" points="7688.22 597.13 7666.76 684.1 7714.2 684.1 7688.22 597.13"/>
        <polygon class="cls-1" points="7637.78 667.78 7616.32 754.74 7663.75 754.74 7637.78 667.78"/>
        <polygon class="cls-1" points="7763.52 671.92 7742.06 758.89 7789.49 758.89 7763.52 671.92"/>
        <polygon class="cls-1" points="7700.65 736.67 7679.19 823.64 7726.62 823.64 7700.65 736.67"/>
        <polygon class="cls-1" points="7634.58 774.45 7613.12 861.41 7660.55 861.41 7634.58 774.45"/>
        <polygon class="cls-1" points="7584.13 845.1 7562.67 932.06 7610.11 932.06 7584.13 845.1"/>
        <polygon class="cls-1" points="7709.87 849.24 7688.41 936.2 7735.85 936.2 7709.87 849.24"/>
        <polygon class="cls-1" points="7647 913.99 7625.54 1000.96 7672.98 1000.96 7647 913.99"/>
        <polygon class="cls-1" points="7499.61 584.14 7478.15 671.11 7525.59 671.11 7499.61 584.14"/>
        <polygon class="cls-1" points="7449.17 654.79 7427.71 741.76 7475.14 741.76 7449.17 654.79"/>
        <polygon class="cls-1" points="7574.91 658.93 7553.45 745.9 7600.88 745.9 7574.91 658.93"/>
        <polygon class="cls-1" points="7512.04 723.69 7490.58 810.65 7538.01 810.65 7512.04 723.69"/>
        <polygon class="cls-1" points="6769.43 545.68 6747.98 632.64 6795.41 632.64 6769.43 545.68"/>
        <polygon class="cls-1" points="6718.99 616.33 6697.53 703.29 6744.96 703.29 6718.99 616.33"/>
        <polygon class="cls-1" points="6844.73 620.47 6823.27 707.43 6870.7 707.43 6844.73 620.47"/>
        <polygon class="cls-1" points="6781.86 685.22 6760.4 772.19 6807.83 772.19 6781.86 685.22"/>
        <polygon class="cls-1" points="6856.02 735.62 6834.56 822.59 6882 822.59 6856.02 735.62"/>
        <polygon class="cls-1" points="6805.57 806.27 6784.12 893.24 6831.55 893.24 6805.57 806.27"/>
        <polygon class="cls-1" points="6931.32 810.41 6909.86 897.38 6957.29 897.38 6931.32 810.41"/>
        <polygon class="cls-1" points="6868.45 875.17 6846.99 962.13 6894.42 962.13 6868.45 875.17"/>
        <polygon class="cls-1" points="6646.7 729.98 6625.25 816.94 6672.68 816.94 6646.7 729.98"/>
        <polygon class="cls-1" points="6596.26 800.62 6574.8 887.59 6622.23 887.59 6596.26 800.62"/>
        <polygon class="cls-1" points="6722 804.77 6700.54 891.73 6747.98 891.73 6722 804.77"/>
        <polygon class="cls-1" points="6659.13 869.52 6637.67 956.48 6685.1 956.48 6659.13 869.52"/>
        <polygon class="cls-1" points="8524.46 780.76 8503 867.73 8550.44 867.73 8524.46 780.76"/>
        <polygon class="cls-1" points="8798.91 728.25 8777.45 815.21 8824.89 815.21 8798.91 728.25"/>
        <polygon class="cls-1" points="9457.37 1015.34 9435.91 1102.3 9483.35 1102.3 9457.37 1015.34"/>
        <polygon class="cls-1" points="9305.43 1076.52 9283.98 1163.48 9331.41 1163.48 9305.43 1076.52"/>
        <polygon class="cls-1" points="9102.12 1027.39 9080.66 1114.36 9128.1 1114.36 9102.12 1027.39"/>
        <polygon class="cls-1" points="9990.67 1073.5 9969.21 1160.47 10016.65 1160.47 9990.67 1073.5"/>
        <polygon class="cls-1" points="10057.09 1030.02 10035.63 1116.99 10083.06 1116.99 10057.09 1030.02"/>
        <polygon class="cls-1" points="10126.26 1096.63 10104.8 1183.6 10152.23 1183.6 10126.26 1096.63"/>
        <polygon class="cls-1" points="10003.26 961.34 9981.8 1048.31 10029.23 1048.31 10003.26 961.34"/>
        <polygon class="cls-1" points="3214.3 493.74 3192.84 580.7 3240.28 580.7 3214.3 493.74"/>
        <polygon class="cls-1" points="3163.85 564.38 3142.39 651.35 3189.83 651.35 3163.85 564.38"/>
        <polygon class="cls-1" points="3289.59 568.52 3268.13 655.49 3315.57 655.49 3289.59 568.52"/>
        <polygon class="cls-1" points="3226.72 633.28 3205.26 720.24 3252.7 720.24 3226.72 633.28"/>
        <polygon class="cls-1" points="3064.84 592.64 3043.38 679.61 3090.82 679.61 3064.84 592.64"/>
        <polygon class="cls-1" points="3014.39 663.29 2992.94 750.25 3040.37 750.25 3014.39 663.29"/>
        <polygon class="cls-1" points="3140.13 667.43 3118.68 754.4 3166.11 754.4 3140.13 667.43"/>
        <polygon class="cls-1" points="3077.26 732.18 3055.81 819.15 3103.24 819.15 3077.26 732.18"/>
        <polygon class="cls-1" points="3439.8 964.76 3418.35 1051.73 3465.78 1051.73 3439.8 964.76"/>
        <polygon class="cls-1" points="3389.36 1035.41 3367.9 1122.38 3415.33 1122.38 3389.36 1035.41"/>
        <polygon class="cls-1" points="3515.1 1039.55 3493.64 1126.52 3541.08 1126.52 3515.1 1039.55"/>
        <polygon class="cls-1" points="3452.23 1104.31 3430.77 1191.27 3478.2 1191.27 3452.23 1104.31"/>
        <polygon class="cls-1" points="2779.48 944.81 2758.02 1031.78 2805.45 1031.78 2779.48 944.81"/>
        <polygon class="cls-1" points="2729.03 1015.46 2707.57 1102.42 2755.01 1102.42 2729.03 1015.46"/>
        <polygon class="cls-1" points="2854.77 1019.6 2833.31 1106.56 2880.75 1106.56 2854.77 1019.6"/>
        <polygon class="cls-1" points="2791.9 1084.35 2770.44 1171.32 2817.88 1171.32 2791.9 1084.35"/>
        <polygon class="cls-1" points="2582.67 1009.63 2561.21 1096.59 2608.65 1096.59 2582.67 1009.63"/>
        <polygon class="cls-1" points="2532.22 1080.28 2510.76 1167.24 2558.2 1167.24 2532.22 1080.28"/>
        <polygon class="cls-1" points="2657.96 1084.42 2636.51 1171.38 2683.94 1171.38 2657.96 1084.42"/>
        <polygon class="cls-1" points="2927.05 423.97 2905.59 510.93 2953.03 510.93 2927.05 423.97"/>
        <polygon class="cls-1" points="2876.61 494.61 2855.15 581.58 2902.58 581.58 2876.61 494.61"/>
        <polygon class="cls-1" points="3002.35 498.75 2980.89 585.72 3028.32 585.72 3002.35 498.75"/>
        <polygon class="cls-1" points="2939.48 563.51 2918.02 650.47 2965.45 650.47 2939.48 563.51"/>
        <polygon class="cls-1" points="1857.93 522.87 1836.48 609.84 1883.91 609.84 1857.93 522.87"/>
        <polygon class="cls-1" points="1807.49 593.52 1786.03 680.48 1833.46 680.48 1807.49 593.52"/>
        <polygon class="cls-1" points="1933.23 597.66 1911.77 684.62 1959.2 684.62 1933.23 597.66"/>
        <polygon class="cls-1" points="1870.36 662.41 1848.9 749.38 1896.33 749.38 1870.36 662.41"/>
        <polygon class="cls-1" points="1803.67 720.24 1782.21 807.21 1829.64 807.21 1803.67 720.24"/>
        <polygon class="cls-1" points="1753.22 790.89 1731.76 877.85 1779.2 877.85 1753.22 790.89"/>
        <polygon class="cls-1" points="1878.96 795.03 1857.5 881.99 1904.94 881.99 1878.96 795.03"/>
        <polygon class="cls-1" points="1816.09 859.78 1794.63 946.75 1842.07 946.75 1816.09 859.78"/>
        <polygon class="cls-1" points="2091.7 960.62 2070.24 1047.59 2117.67 1047.59 2091.7 960.62"/>
        <polygon class="cls-1" points="2041.25 1031.27 2019.79 1118.23 2067.23 1118.23 2041.25 1031.27"/>
        <polygon class="cls-1" points="2166.99 1035.41 2145.53 1122.38 2192.97 1122.38 2166.99 1035.41"/>
        <polygon class="cls-1" points="2104.12 1100.16 2082.66 1187.13 2130.1 1187.13 2104.12 1100.16"/>
        <polygon class="cls-1" points="878.02 453.1 856.57 540.07 904 540.07 878.02 453.1"/>
        <polygon class="cls-1" points="827.58 523.75 806.12 610.71 853.55 610.71 827.58 523.75"/>
        <polygon class="cls-1" points="953.32 527.89 931.86 614.85 979.29 614.85 953.32 527.89"/>
        <polygon class="cls-1" points="890.45 592.64 868.99 679.61 916.42 679.61 890.45 592.64"/>
        <polygon class="cls-1" points="1427.18 240.94 1405.73 327.91 1453.16 327.91 1427.18 240.94"/>
        <polygon class="cls-1" points="1376.74 311.59 1355.28 398.55 1402.71 398.55 1376.74 311.59"/>
        <polygon class="cls-1" points="1502.48 315.73 1481.02 402.7 1528.45 402.7 1502.48 315.73"/>
        <polygon class="cls-1" points="1439.61 380.48 1418.15 467.45 1465.58 467.45 1439.61 380.48"/>
        <polygon class="cls-1" points="1254.01 342.02 1232.55 428.98 1279.98 428.98 1254.01 342.02"/>
        <polygon class="cls-1" points="1203.56 412.67 1182.1 499.63 1229.54 499.63 1203.56 412.67"/>
        <polygon class="cls-1" points="1329.3 416.81 1307.84 503.77 1355.28 503.77 1329.3 416.81"/>
        <polygon class="cls-1" points="1266.43 481.56 1244.97 568.52 1292.41 568.52 1266.43 481.56"/>
        <polygon class="cls-1" points="111.67 949.83 90.21 1036.79 137.64 1036.79 111.67 949.83"/>
        <polygon class="cls-1" points="61.22 1020.48 39.76 1107.44 87.19 1107.44 61.22 1020.48"/>
        <polygon class="cls-1" points="186.96 1024.62 165.5 1111.58 212.94 1111.58 186.96 1024.62"/>
        <polygon class="cls-1" points="124.09 1089.37 102.63 1176.33 150.06 1176.33 124.09 1089.37"/>
        <polygon class="cls-1" points="237.41 807.21 215.95 894.17 263.38 894.17 237.41 807.21"/>
        <polygon class="cls-1" points="186.96 877.85 165.5 964.82 212.94 964.82 186.96 877.85"/>
        <polygon class="cls-1" points="312.7 881.99 291.24 968.96 338.68 968.96 312.7 881.99"/>
        <polygon class="cls-1" points="249.83 946.75 228.37 1033.71 275.81 1033.71 249.83 946.75"/>
        <polygon class="cls-1" points="135.38 606.99 113.92 693.95 161.36 693.95 135.38 606.99"/>
        <polygon class="cls-1" points="84.94 677.64 63.48 764.6 110.91 764.6 84.94 677.64"/>
        <polygon class="cls-1" points="210.68 681.78 189.22 768.74 236.65 768.74 210.68 681.78"/>
        <polygon class="cls-1" points="147.81 746.53 126.35 833.49 173.78 833.49 147.81 746.53"/>
        <polygon class="cls-1" points="347.71 676.76 326.25 763.72 373.69 763.72 347.71 676.76"/>
        <polygon class="cls-1" points="297.26 747.41 275.81 834.37 323.24 834.37 297.26 747.41"/>
        <polygon class="cls-1" points="423.01 751.55 401.55 838.51 448.98 838.51 423.01 751.55"/>
        <polygon class="cls-1" points="360.14 816.3 338.68 903.27 386.11 903.27 360.14 816.3"/>
        <polygon class="cls-1" points="410.58 920.46 389.12 1007.42 436.56 1007.42 410.58 920.46"/>
        <polygon class="cls-1" points="360.14 991.11 338.68 1078.07 386.11 1078.07 360.14 991.11"/>
        <polygon class="cls-1" points="485.88 995.25 464.42 1082.21 511.85 1082.21 485.88 995.25"/>
        <polygon class="cls-1" points="423.01 1060 401.55 1146.97 448.98 1146.97 423.01 1060"/>
        <polygon class="cls-1" points="536.32 764.6 514.86 851.57 562.3 851.57 536.32 764.6"/>
        <polygon class="cls-1" points="485.88 835.25 464.42 922.21 511.85 922.21 485.88 835.25"/>
        <polygon class="cls-1" points="611.62 839.39 590.16 926.35 637.59 926.35 611.62 839.39"/>
        <polygon class="cls-1" points="548.75 904.14 527.29 991.11 574.72 991.11 548.75 904.14"/>
        <polygon class="cls-1" points="261.12 467.45 239.66 554.41 287.1 554.41 261.12 467.45"/>
        <polygon class="cls-1" points="210.68 538.1 189.22 625.06 236.65 625.06 210.68 538.1"/>
        <polygon class="cls-1" points="336.42 542.24 314.96 629.2 362.39 629.2 336.42 542.24"/>
        <polygon class="cls-1" points="273.55 606.99 252.09 693.95 299.52 693.95 273.55 606.99"/>
        <polygon class="cls-1" points="99.24 380.48 77.78 467.45 125.22 467.45 99.24 380.48"/>
        <polygon class="cls-1" points="48.79 451.13 27.34 538.1 74.77 538.1 48.79 451.13"/>
        <polygon class="cls-1" points="174.54 455.27 153.08 542.24 200.51 542.24 174.54 455.27"/>
        <polygon class="cls-1" points="111.67 520.02 90.21 606.99 137.64 606.99 111.67 520.02"/>
        <polygon class="cls-1" points="75.52 839.39 54.07 926.35 101.5 926.35 75.52 839.39"/>
        <polygon class="cls-1" points="36.37 586.6 14.91 673.56 62.35 673.56 36.37 586.6"/>
        <polygon class="cls-1" points="634.21 961.5 612.75 1048.46 660.18 1048.46 634.21 961.5"/>
        <polygon class="cls-1" points="583.76 1032.15 562.3 1119.11 609.73 1119.11 583.76 1032.15"/>
        <polygon class="cls-1" points="709.5 1036.29 688.04 1123.25 735.48 1123.25 709.5 1036.29"/>
        <polygon class="cls-1" points="646.63 1101.04 625.17 1188.01 672.61 1188.01 646.63 1101.04"/>
        <polygon class="cls-1" points="759.95 847.37 738.49 934.33 785.92 934.33 759.95 847.37"/>
        <polygon class="cls-1" points="709.5 918.02 688.04 1004.98 735.48 1004.98 709.5 918.02"/>
        <polygon class="cls-1" points="835.24 922.16 813.78 1009.12 861.22 1009.12 835.24 922.16"/>
        <polygon class="cls-1" points="772.37 986.91 750.91 1073.88 798.35 1073.88 772.37 986.91"/>
        <polygon class="cls-1" points="909.4 966.52 887.95 1053.48 935.38 1053.48 909.4 966.52"/>
        <polygon class="cls-1" points="858.96 1037.16 837.5 1124.13 884.93 1124.13 858.96 1037.16"/>
        <polygon class="cls-1" points="984.7 1041.31 963.24 1128.27 1010.68 1128.27 984.7 1041.31"/>
        <polygon class="cls-1" points="921.83 1106.06 900.37 1193.02 947.8 1193.02 921.83 1106.06"/>
        <polygon class="cls-1" points="1045.96 847.37 1024.5 934.33 1071.94 934.33 1045.96 847.37"/>
        <polygon class="cls-1" points="995.52 918.02 974.06 1004.98 1021.49 1004.98 995.52 918.02"/>
        <polygon class="cls-1" points="1121.26 922.16 1099.8 1009.12 1147.23 1009.12 1121.26 922.16"/>
        <polygon class="cls-1" points="1058.39 986.91 1036.93 1073.88 1084.36 1073.88 1058.39 986.91"/>
        <polygon class="cls-1" points="1214.86 961.5 1193.4 1048.46 1240.83 1048.46 1214.86 961.5"/>
        <polygon class="cls-1" points="1164.41 1032.15 1142.95 1119.11 1190.38 1119.11 1164.41 1032.15"/>
        <polygon class="cls-1" points="1290.15 1036.29 1268.69 1123.25 1316.13 1123.25 1290.15 1036.29"/>
        <polygon class="cls-1" points="1227.28 1101.04 1205.82 1188.01 1253.26 1188.01 1227.28 1101.04"/>
        <polygon class="cls-1" points="1058.86 1106.06 1037.4 1193.02 1084.84 1193.02 1058.86 1106.06"/>
        <polygon class="cls-1" points="784.79 1103.48 763.33 1190.45 810.77 1190.45 784.79 1103.48"/>
        <polygon class="cls-1" points="512.61 1103.48 491.15 1190.45 538.58 1190.45 512.61 1103.48"/>
        <polygon class="cls-1" points="347.71 1106.06 326.25 1193.02 373.69 1193.02 347.71 1106.06"/>
        <polygon class="cls-1" points="267.34 1075.63 245.88 1162.59 293.31 1162.59 267.34 1075.63"/>
      </g>
      <g>
        <g>
          <g>
            <path class="cls-2" d="M9941.12,184.92l-63.9-32.53c.19-1.21.16-2.46-.1-3.7-.31-1.46-.97-2.82-1.88-3.99.96-.15,1.92-.4,2.84-.75.88-.33,1.66-.61,2.33-.83,1.64,1.54,4.31,3.06,9.69,3.06h0c2.86,0,6.38-.43,10.47-1.28,4.6-.95,7.71-5.34,7.1-10-.38-2.86-.39-6.61-.03-7.87,2-6.94.23-11.59-.36-12.85-1.55-3.31-4.89-5.34-8.52-5.18-.02,0-1.02.04-2.46.12-.62-.94-1.4-1.78-2.33-2.49-2.91-2.2-7.46-4.15-24.66.72-.1.03-.19.06-.29.09-.56-.16-1.15-.24-1.74-.24-3.63,0-6.59,2.96-6.59,6.59v29.51c-2.12,1.87-3.39,4.58-3.39,7.51,0,.53.04,1.05.13,1.57l-45.51,23.17c1.08-3.82,1.98-7.67,2.68-11.54,6.73-1.11,11.87-6.97,11.87-14.01v-20.24c0-7.31-5.54-13.34-12.64-14.12-1.35-6.35-3.21-12.6-5.55-18.67.83-1.76,1.27-3.69,1.27-5.67v-19.7c0-7.36-5.98-13.34-13.34-13.34h-11.63c-5-5.59-10.52-10.74-16.44-15.36v-13.04c0-7.83-6.37-14.2-14.2-14.2h-20.25c-4.15,0-8.05,1.85-10.72,4.92-2.09-.54-4.22-1.04-6.36-1.48v-5.79c0-7.36-5.99-13.34-13.35-13.34h-19.7c-7.36,0-13.34,5.98-13.34,13.34v5c-3.24.55-6.45,1.23-9.62,2.04-2.65-2.96-6.44-4.7-10.54-4.7h-20.24c-7.84,0-14.21,6.37-14.21,14.2v12.25c-5.9,4.5-11.43,9.54-16.48,15.03h-13.1c-7.36,0-13.34,5.98-13.34,13.34v19.7c0,2.37.62,4.66,1.78,6.66-2.35,6.08-4.21,12.35-5.58,18.7h-.62c-7.83,0-14.2,6.38-14.2,14.21v20.24c0,7.79,6.3,14.13,14.07,14.2.86,4.7,1.99,9.36,3.38,13.94-3.82,2.36-6.28,6.58-6.28,11.32v19.7c0,7.36,5.98,13.35,13.34,13.35h17.14c.07.08.14.17.21.25-1.43,2.25-2.21,4.86-2.21,7.59v3.47c0,1.9,1.2,3.6,2.99,4.24.3.11.61.17.93.21-.38,1.62-.19,3.24.61,4.61.37.64.85,1.18,1.41,1.64v31.75c-.92.01-1.55.02-1.83.02-.61,0-1.2.02-1.8.02-2.49,0-4.5,2.01-4.5,4.5v11.58h-1.07c-2.49,0-4.5,2.01-4.5,4.5v20.79h-3.84c-7.69,0-13.94,6.25-13.94,13.94v10.05c0,7.69,6.25,13.94,13.94,13.94h4.76v29.32c0,8.48,6.9,15.37,15.37,15.37h16.31c8.48,0,15.37-6.9,15.37-15.37v-29.32h11.06v29.32c0,8.48,6.9,15.37,15.37,15.37h16.31c8.48,0,15.37-6.9,15.37-15.37v-29.32h11.06v29.32c0,8.48,6.9,15.37,15.37,15.37h16.31c8.48,0,15.37-6.9,15.37-15.37v-29.32h11.06v29.32c0,8.48,6.9,15.37,15.37,15.37h16.31c8.48,0,15.37-6.9,15.37-15.37v-29.32h11.06v29.32c0,8.48,6.9,15.37,15.37,15.37h16.31c8.48,0,15.37-6.9,15.37-15.37v-29.32h11.06v29.32c0,8.48,6.9,15.37,15.37,15.37h16.31c8.48,0,15.37-6.9,15.37-15.37v-29.43c7.85-.93,13.96-7.63,13.96-15.73v-6.25c0-3.4-1.11-6.62-3.02-9.25.97-1.16,1.58-2.62,1.69-4.22,4.02-1.72,6.85-5.69,6.85-10.3s-2.82-8.58-6.84-10.31c-.17-3.92-3.44-7.05-7.42-7.05h-.16c.25-.98.38-2,.38-3.04v-2.64c0-1.01-.13-2-.37-2.96,3.57-1.3,6.13-4.73,6.13-8.75v-5.3c0-5.13-4.18-9.3-9.31-9.3h-.33v-.57c.25-.05.5-.11.74-.18.23-.06.72-.21,1.94-.59.44-.13.87-.32,1.27-.56,1.04.74,2.35,1.01,3.64.74,1.47-.31,2.68-1.3,3.27-2.66.44-.98.87-2.15,1.26-3.48.41-1.36.38-2.68-.11-3.99-.26-.67-.42-1.26-.47-1.79-.03-.25-.08-.5-.14-.75.28-.17.54-.36.79-.58,1.69-1.45,2.45-3.52,2.08-5.73-.15-.86-.27-1.63-.36-2.28.02-.58.02-1.08-.04-1.58.06-.11.11-.21.16-.32.03-.07.06-.13.09-.2.64-1.58.35-3.38-.74-4.7-.21-.26-.45-.49-.71-.69-1.11-1.35-2.87-1.99-4.63-1.63-.06.01-.12.03-.18.04-.46-.22-.92-.4-1.33-.54-.83-.31-1.7-.36-2.52-.2-1.08-.04-2.07.12-3.05.27l-.34.05c-.22.04-.43.08-.62.12v-2.27c9.85-1.11,18.11-8.5,20.14-18.37.05-.26.08-.53.09-.8l.3-13.11c.09-3.82-2.04-7.4-5.45-9.14Z"/>
            <path class="cls-5" d="M9703.26,8c2.95,0,5.35,2.4,5.35,5.34v12.31l6.39,1.31c2.01.41,4.01.88,5.96,1.38l4.8,1.25,3.25-3.75c1.19-1.38,2.9-2.17,4.67-2.17h20.25c3.42,0,6.2,2.78,6.2,6.2v16.95l3.08,2.4c5.54,4.32,10.72,9.15,15.4,14.38l2.39,2.67h15.2c2.94,0,5.34,2.4,5.34,5.34v19.7c0,.79-.17,1.55-.5,2.25l-1.46,3.1,1.23,3.2c2.18,5.66,3.93,11.53,5.19,17.46l1.21,5.65,5.74.63c3.14.35,5.51,3,5.51,6.17v20.24c0,3-2.23,5.63-5.18,6.12l-5.56.92-1,5.55c-.63,3.49-1.48,7.12-2.51,10.79l-4.96,17.59,16.29-8.29,45.51-23.17,5.2-2.65-.93-5.76c-.02-.1-.02-.2-.02-.3,0-.59.24-1.12.68-1.51l1.61-1.42,1.35,1.73c.18.23.31.49.36.73.06.27.07.53.03.77l-.92,5.75,5.19,2.64,63.89,32.53c.66.34,1.1,1.08,1.09,1.83l-.29,12.78c-1.41,6.21-6.77,11.02-13.14,11.74l-7.1.8v19.25l9.63-2c.09-.02.19-.04.29-.05l.27-.04c.59-.09,1.15-.18,1.49-.18h.06s.8.03.8.03l1.33.63.06.51c0,.06,0,.17,0,.41l-.02.62.08.62c.05.42.12.89.2,1.38l-4.04,2.41,1.48,5.63c.04.29.08.58.14.87l-3.68,2.21c-.92.29-1.32.41-1.5.46h-.03s-.06.03-.06.03l-6.49,1.25v15.17h8.33c.71,0,1.31.6,1.31,1.3v5.3c0,.63-.44,1.08-.87,1.23l-6.8,2.48,1.79,7.01c.08.33.13.66.13.99v2.64c0,.36-.04.71-.13,1.05l-2.58,10h9.94l.2,4.42,4.61,1.98c1.21.52,2,1.68,2,2.96,0,1.55-1.08,2.56-2,2.95l-4.51,1.93-.31,4.68-3.84,4.62,3.64,5.03c.98,1.36,1.5,2.93,1.5,4.56v6.25c0,3.97-2.97,7.32-6.9,7.78l-7.06.84v36.54c0,4.06-3.31,7.37-7.37,7.37h-16.31c-4.06,0-7.37-3.31-7.37-7.37v-37.32h-27.06v37.32c0,4.06-3.31,7.37-7.37,7.37h-16.31c-4.06,0-7.37-3.31-7.37-7.37v-37.32h-27.06v37.32c0,4.06-3.31,7.37-7.37,7.37h-16.31c-4.06,0-7.37-3.31-7.37-7.37v-37.32h-27.06v37.32c0,4.06-3.31,7.37-7.37,7.37h-16.31c-4.06,0-7.37-3.31-7.37-7.37v-37.32h-27.06v37.32c0,4.06-3.31,7.37-7.37,7.37h-16.31c-4.06,0-7.37-3.31-7.37-7.37v-37.32h-27.06v37.32c0,4.06-3.31,7.37-7.37,7.37h-16.31c-4.06,0-7.37-3.31-7.37-7.37v-37.32h-12.76c-3.27,0-5.94-2.66-5.94-5.94v-10.05c0-3.27,2.66-5.94,5.94-5.94h11.84v-25.29h5.57v-16.11c.07,0,.15,0,.22,0l7.91-.09v-43.51l-2-1.59,1.79-7.58-5.74-.76v-.39c0-1.17.33-2.31.96-3.29l3.17-4.97-3.81-4.5-.14-.17-.04-.05-2.4-2.86h-20.87c-2.94,0-5.34-2.4-5.34-5.35v-19.7c0-1.86.93-3.55,2.5-4.52l5.23-3.24-1.79-5.89c-1.3-4.28-2.37-8.67-3.17-13.05l-1.19-6.5-6.61-.06c-3.39-.03-6.14-2.81-6.14-6.2v-20.24c0-3.42,2.78-6.21,6.2-6.21h7.08l1.36-6.32c1.27-5.93,3.03-11.82,5.22-17.5l1.38-3.58-1.92-3.32c-.46-.79-.7-1.71-.7-2.65v-19.7c0-2.94,2.4-5.34,5.34-5.34h16.62l2.38-2.58c4.72-5.14,9.92-9.87,15.44-14.09l3.15-2.4v-16.21c0-3.42,2.79-6.2,6.21-6.2h20.24c1.78,0,3.4.72,4.58,2.04l3.23,3.61,4.69-1.19c2.96-.75,5.98-1.39,8.99-1.9l6.66-1.13v-11.75c0-2.94,2.4-5.34,5.34-5.34h19.7M9886.05,112.33c2.18,0,2.67.37,3.1.69.19.14.34.31.46.49l2.52,3.85,4.6-.25c1.08-.06,1.91-.1,2.21-.11h.05s.18,0,.18,0c.37,0,.7.22.87.58.05.11,1.22,2.71-.08,7.25-.91,3.17-.54,8.67-.21,11.13.07.5-.29,1.01-.79,1.11-3.51.73-6.57,1.11-8.85,1.11-1.22,0-3.38-.12-4.21-.89l-3.47-3.26-4.52,1.5c-.84.28-1.73.59-2.65.94-.4.15-.81.26-1.25.33l-5.31.83v-21.97l.51.14,2.29-.74c6.4-1.81,11.29-2.73,14.55-2.73M9703.26,0h-19.7c-7.36,0-13.34,5.98-13.34,13.34v5c-3.24.55-6.45,1.23-9.62,2.04-2.65-2.96-6.44-4.7-10.54-4.7h-20.24c-7.84,0-14.21,6.37-14.21,14.2v12.25c-5.9,4.5-11.43,9.54-16.48,15.03h-13.1c-7.36,0-13.34,5.98-13.34,13.34v19.7c0,2.37.62,4.66,1.78,6.66-2.35,6.08-4.21,12.35-5.58,18.7h-.62c-7.83,0-14.2,6.38-14.2,14.21v20.24c0,7.79,6.3,14.13,14.07,14.2.86,4.7,1.99,9.36,3.38,13.94-3.82,2.36-6.28,6.58-6.28,11.32v19.7c0,7.36,5.98,13.35,13.34,13.35h17.14c.07.08.14.17.21.25-1.43,2.25-2.21,4.86-2.21,7.59v3.47c0,1.9,1.2,3.6,2.99,4.24.3.11.61.17.93.21-.38,1.62-.19,3.24.61,4.61.37.64.85,1.18,1.41,1.64v31.75c-.92.01-1.55.02-1.83.02-.61,0-1.2.02-1.8.02-2.49,0-4.5,2.01-4.5,4.5v11.58h-1.07c-2.49,0-4.5,2.01-4.5,4.5v20.79h-3.84c-7.69,0-13.94,6.25-13.94,13.94v10.05c0,7.69,6.25,13.94,13.94,13.94h4.76v29.32c0,8.48,6.9,15.37,15.37,15.37h16.31c8.48,0,15.37-6.9,15.37-15.37v-29.32h11.06v29.32c0,8.48,6.9,15.37,15.37,15.37h16.31c8.48,0,15.37-6.9,15.37-15.37v-29.32h11.06v29.32c0,8.48,6.9,15.37,15.37,15.37h16.31c8.48,0,15.37-6.9,15.37-15.37v-29.32h11.06v29.32c0,8.48,6.9,15.37,15.37,15.37h16.31c8.48,0,15.37-6.9,15.37-15.37v-29.32h11.06v29.32c0,8.48,6.9,15.37,15.37,15.37h16.31c8.48,0,15.37-6.9,15.37-15.37v-29.32h11.06v29.32c0,8.48,6.9,15.37,15.37,15.37h16.31c8.48,0,15.37-6.9,15.37-15.37v-29.43c7.85-.93,13.96-7.63,13.96-15.73v-6.25c0-3.4-1.11-6.62-3.02-9.25.97-1.16,1.58-2.62,1.69-4.22,4.02-1.72,6.85-5.69,6.85-10.3s-2.82-8.58-6.84-10.31c-.17-3.92-3.44-7.05-7.42-7.05h-.16c.25-.98.38-2,.38-3.04v-2.64c0-1.01-.13-2-.37-2.96,3.57-1.3,6.13-4.73,6.13-8.75v-5.3c0-5.13-4.18-9.3-9.31-9.3h-.33v-.57c.25-.05.5-.11.74-.18.23-.06.72-.21,1.94-.59.44-.13.87-.32,1.27-.56.78.55,1.71.84,2.66.84.32,0,.65-.03.98-.1,1.47-.31,2.68-1.3,3.27-2.66.44-.98.87-2.15,1.26-3.48.41-1.36.38-2.68-.11-3.99-.26-.67-.42-1.26-.47-1.79-.03-.25-.08-.5-.14-.75.28-.17.54-.36.79-.58,1.69-1.45,2.45-3.52,2.08-5.73-.15-.86-.27-1.63-.36-2.28.02-.58.02-1.08-.04-1.58.06-.11.11-.21.16-.32.03-.07.06-.13.09-.2.64-1.58.35-3.38-.74-4.7-.21-.26-.45-.49-.71-.69-.9-1.1-2.24-1.73-3.66-1.73-.32,0-.65.03-.98.1-.06.01-.12.03-.18.04-.46-.22-.92-.4-1.33-.54-.53-.2-1.07-.29-1.61-.29-.3,0-.61.03-.9.09-.11,0-.22,0-.33,0-.95,0-1.84.14-2.72.27l-.34.05c-.22.04-.43.08-.62.12v-2.27c9.85-1.11,18.11-8.5,20.14-18.37.05-.26.08-.53.09-.8l.3-13.11c.09-3.82-2.04-7.4-5.45-9.14l-63.9-32.53c.19-1.21.16-2.46-.1-3.7-.31-1.46-.97-2.82-1.88-3.99.96-.15,1.92-.4,2.84-.75.88-.33,1.66-.61,2.33-.83,1.64,1.54,4.31,3.06,9.69,3.06h0c2.86,0,6.38-.43,10.47-1.28,4.6-.95,7.71-5.34,7.1-10-.38-2.86-.39-6.61-.03-7.87,2-6.94.23-11.59-.36-12.85-1.49-3.18-4.64-5.19-8.11-5.19-.14,0-.27,0-.41,0-.02,0-1.02.04-2.46.12-.62-.94-1.4-1.78-2.33-2.49-1.58-1.19-3.63-2.31-7.92-2.31-3.63,0-8.85.8-16.73,3.03-.1.03-.19.06-.29.09-.56-.16-1.15-.24-1.74-.24-3.63,0-6.59,2.96-6.59,6.59v29.51c-2.12,1.87-3.39,4.58-3.39,7.51,0,.53.04,1.05.13,1.57l-45.51,23.17c1.08-3.82,1.98-7.67,2.68-11.54,6.73-1.11,11.87-6.97,11.87-14.01v-20.24c0-7.31-5.54-13.34-12.64-14.12-1.35-6.35-3.21-12.6-5.55-18.67.83-1.76,1.27-3.69,1.27-5.67v-19.7c0-7.36-5.98-13.34-13.34-13.34h-11.63c-5-5.59-10.52-10.74-16.44-15.36v-13.04c0-7.83-6.37-14.2-14.2-14.2h-20.25c-4.15,0-8.05,1.85-10.72,4.92-2.09-.54-4.22-1.04-6.36-1.48v-5.79c0-7.36-5.99-13.34-13.35-13.34h0Z"/>
          </g>
          <polygon class="cls-7" points="9820.69 271.9 9820.69 195.1 9919.51 196.23 9919.51 274.16 9820.69 271.9"/>
          <g>
            <circle class="cls-7" cx="9636.72" cy="311.18" r="8.53"/>
            <circle class="cls-7" cx="9679.54" cy="311.18" r="8.53"/>
            <circle class="cls-7" cx="9722.36" cy="311.18" r="8.53"/>
            <circle class="cls-7" cx="9765.18" cy="311.18" r="8.53"/>
            <circle class="cls-7" cx="9808" cy="311.18" r="8.53"/>
            <circle class="cls-7" cx="9850.82" cy="311.18" r="8.53"/>
            <circle class="cls-7" cx="9893.64" cy="311.18" r="8.53"/>
          </g>
          <path class="cls-7" d="M9606.29,286.77l1.19-49.36,22.59-27.83s25.42-1.05,30.08-1.19c4.66-.14,5.79-1.76,10.52,4.38,4.73,6.14,18.85,29.58,18.85,29.58v40.66l-83.22,3.76Z"/>
          <path class="cls-7" d="M9708.72,286.77l1.19-49.36,22.59-27.83s25.42-1.05,30.08-1.19c4.66-.14,5.79-1.76,10.52,4.38,4.73,6.14,18.85,29.58,18.85,29.58v40.66l-83.22,3.76Z"/>
          <g>
            <path class="cls-6" d="M9932.63,304.45v-3.25c0-1.59-1.31-2.88-2.93-2.88h-339.23v25.57h339.23c1.62,0,2.93-1.29,2.93-2.89v-3.1c3.78,0,6.83-3,6.83-6.72s-3.05-6.73-6.83-6.73ZM9615.32,317.9c-3.78,0-6.84-3-6.84-6.72s3.06-6.73,6.84-6.73,6.82,3.02,6.82,6.73-3.06,6.72-6.82,6.72ZM9636.71,317.9c-3.76,0-6.82-3-6.82-6.72s3.06-6.73,6.82-6.73,6.84,3.02,6.84,6.73-3.06,6.72-6.84,6.72ZM9658.12,317.9c-3.78,0-6.82-3-6.82-6.72s3.04-6.73,6.82-6.73,6.84,3.02,6.84,6.73-3.06,6.72-6.84,6.72ZM9679.53,317.9c-3.78,0-6.84-3-6.84-6.72s3.06-6.73,6.84-6.73,6.83,3.02,6.83,6.73-3.05,6.72-6.83,6.72ZM9700.94,317.9c-3.78,0-6.84-3-6.84-6.72s3.06-6.73,6.84-6.73,6.83,3.02,6.83,6.73-3.06,6.72-6.83,6.72ZM9722.34,317.9c-3.77,0-6.83-3-6.83-6.72s3.06-6.73,6.83-6.73,6.84,3.02,6.84,6.73-3.06,6.72-6.84,6.72ZM9743.75,317.9c-3.78,0-6.83-3-6.83-6.72s3.05-6.73,6.83-6.73,6.84,3.02,6.84,6.73-3.07,6.72-6.84,6.72ZM9765.16,317.9c-3.78,0-6.84-3-6.84-6.72s3.06-6.73,6.84-6.73,6.82,3.02,6.82,6.73-3.06,6.72-6.82,6.72ZM9786.55,317.9c-3.76,0-6.82-3-6.82-6.72s3.06-6.73,6.82-6.73,6.84,3.02,6.84,6.73-3.06,6.72-6.84,6.72ZM9807.96,317.9c-3.76,0-6.82-3-6.82-6.72s3.06-6.73,6.82-6.73,6.84,3.02,6.84,6.73-3.06,6.72-6.84,6.72ZM9829.48,317.9c-3.75,0-6.8-3.04-6.8-6.8s3.05-6.8,6.8-6.8,6.8,3.05,6.8,6.8-3.04,6.8-6.8,6.8ZM9851.06,317.9c-3.78,0-6.84-3-6.84-6.72s3.06-6.73,6.84-6.73,6.82,3.02,6.82,6.73-3.04,6.72-6.82,6.72ZM9872.61,317.9c-3.78,0-6.84-3-6.84-6.72s3.06-6.73,6.84-6.73,6.82,3.02,6.82,6.73-3.06,6.72-6.82,6.72ZM9894.14,317.9c-3.76,0-6.82-3-6.82-6.72s3.06-6.73,6.82-6.73,6.84,3.02,6.84,6.73-3.06,6.72-6.84,6.72ZM9915.69,317.9c-3.77,0-6.83-3-6.83-6.72s3.06-6.73,6.83-6.73,6.84,3.02,6.84,6.73-3.06,6.72-6.84,6.72Z"/>
            <path class="cls-6" d="M9799.58,284.62c-.22,0-.44,0-.66,0-.97-.01-1.95-.03-2.9-.13-1.73-.2-2.28-.81-2.46-2.62-.05-.58-.07-1.17-.07-1.75-.02-8.92-.02-20.22-.06-29.15-.02-2.43.03-4.54,3.13-5.34,1.5-.38,1.67-1.95.82-3.36-.5-.84-1.08-1.62-1.67-2.38-7.1-9.22-14.22-18.42-21.34-27.63-.59-.77-1.21-1.51-1.89-2.2-.95-.97-2.04-.86-3,.24-.37.43-.72.91-1.05,1.38-6.38,9.26-12.72,18.55-19.18,27.76-1.87,2.67-2.62,5.45-2.58,8.7.13,9.3.07,18.61.06,27.92,0,1.55-.07,3.1-.23,4.64-.06.56-.54,1.05-1.18,1.03-.19,0-4.75.05-10.88.12v-36.95l-12.25.42v36.67c-3.79.04-7.55.09-10.83.12v-39.16c5.25-.02,11.52-.15,11.52-.2,5.03-.15,10.06-.42,15.09-.42,3.58,0,6.13-1.22,8.2-4.32,6.01-9,12.29-17.83,18.46-26.74.33-.47.64-.97.92-1.47.71-1.3.18-2.41-1.2-2.44-1.35-.03-2.71.01-4.06.12-9.06.72-18.11,1.65-27.18,2.11-4.07.21-6.87,1.73-9.21,4.98-5.64,7.85-11.48,15.56-17.24,23.34-.46.61-.88,1.27-1.25,1.95-.95,1.74-.24,3.05,1.81,3.08h.01v39.22c-3.38.04-5.73.07-6.24.07-.51.01-7.41.02-10.43.02-.02-.12-.04-.25-.05-.38-.06-.58-.07-1.17-.07-1.75-.02-8.92-.02-20.22-.07-29.15-.01-2.43.04-4.54,3.13-5.34,1.51-.38,1.68-1.95.82-3.36-.49-.84-1.07-1.62-1.66-2.38-7.11-9.22-14.22-18.42-21.34-27.63-.59-.77-1.22-1.51-1.89-2.2-.95-.97-2.04-.86-3,.24-.38.43-.72.91-1.05,1.38-6.39,9.26-12.72,18.55-19.19,27.76-1.87,2.67-2.61,5.45-2.57,8.7.13,9.3.07,18.61.05,27.92,0,1.55-.07,3.1-.22,4.64-.06.56-.54,1.05-1.19,1.03-.18,0-4.74.05-10.87.12v-36.95l-12.25.42v36.67c-3.8.04-7.56.09-10.84.12v-39.16c5.26-.02,11.53-.15,11.53-.2,5.03-.15,10.05-.42,15.08-.42,3.59,0,6.14-1.22,8.21-4.32,6.01-9,12.29-17.83,18.46-26.74.33-.47.63-.97.91-1.47.71-1.3.19-2.41-1.2-2.44-1.35-.03-2.7.01-4.05.12-9.06.72-18.11,1.65-27.18,2.11-4.07.21-6.87,1.73-9.21,4.98-5.65,7.85-11.49,15.56-17.24,23.34-.46.61-.88,1.27-1.25,1.95-.95,1.74-.25,3.05,1.8,3.08h0v39.22c-3.37.04-5.72.07-6.23.07-.64.01-1.27.02-1.9.02v11.71h63.51c9.88,0,19.77,0,29.65,0h0s73.4,0,73.4,0c12.32,0,24.63,0,36.95,0,2.06,0,3.73-1.68,3.73-3.74v-1.84c0-2.06-1.65-3.72-3.7-3.74ZM9719.08,238.31l18.6-25.07c.49-.66,1.23-1.06,2.05-1.11,2.32-.14,7.24-.43,9.91-.59.79-.05,1.28.84.82,1.48l-17.93,24.72c-.83,1.15-2.16,1.85-3.58,1.89l-9.03.27c-.84.03-1.33-.92-.84-1.59ZM9615.54,238.31l18.59-25.07c.49-.66,1.24-1.06,2.05-1.11,2.32-.14,7.25-.43,9.92-.59.79-.05,1.28.84.81,1.48l-17.93,24.72c-.83,1.15-2.15,1.85-3.58,1.89l-9.03.27c-.83.03-1.33-.92-.83-1.59ZM9648.27,282.02l7.45-9.86c4.07-5.37,6.98-11.53,8.56-18.08l5.73-23.73,3.88,24.42c.88,5.56,3.06,10.84,6.35,15.41l8.54,11.84h-40.51ZM9750.64,282.02l7.45-9.86c4.07-5.37,6.99-11.53,8.57-18.08l5.72-23.73,3.88,24.42c.88,5.56,3.06,10.84,6.35,15.41l8.55,11.84h-40.52Z"/>
            <path class="cls-6" d="M9922.61,328.11h-340.49c-2.73,0-4.94,2.21-4.94,4.94v10.05c0,2.73,2.21,4.94,4.94,4.94h13.76v38.32c0,3.52,2.85,6.37,6.37,6.37h16.31c3.52,0,6.37-2.85,6.37-6.37v-38.32h29.06v38.32c0,3.52,2.85,6.37,6.37,6.37h16.31c3.52,0,6.37-2.85,6.37-6.37v-38.32h29.06v38.32c0,3.52,2.85,6.37,6.37,6.37h16.31c3.52,0,6.37-2.85,6.37-6.37v-38.32h29.06v38.32c0,3.52,2.85,6.37,6.37,6.37h16.31c3.52,0,6.37-2.85,6.37-6.37v-38.32h29.06v38.32c0,3.52,2.85,6.37,6.37,6.37h16.31c3.52,0,6.37-2.85,6.37-6.37v-38.32h29.06v38.32c0,3.52,2.85,6.37,6.37,6.37h16.31c3.52,0,6.37-2.85,6.37-6.37v-38.32h7.12c3.78,0,6.84-3.06,6.84-6.84v-6.25c0-3.78-3.06-6.84-6.84-6.84Z"/>
            <path class="cls-6" d="M9939.08,190.35l-67.65-34.44c1.11-1.25,1.69-2.98,1.29-4.86-.38-1.78-1.69-3.26-3.36-3.93v-31.9c0-1.15-.93-2.09-2.08-2.09s-2.09.94-2.09,2.09v31.93c-1.99.84-3.39,2.8-3.39,5.09,0,1.41.55,2.69,1.42,3.67l-67.65,34.44c-1.88.96-3.04,2.91-2.99,5.02l.3,13.12c1.75,8.52,9.29,14.92,18.32,14.92,2.58,0,5.02-.53,7.25-1.47v19.07c-.58-.29-1.14-.62-1.65-1.02-.04-.03-.02-.09.02-.1.64-.12,1.17-.38,1.59-.78.03-.03.04-.06.04-.09,0-.05-.04-.1-.1-.11-1.19-.18-2.19-1.14-3.15-1.68-.07-.05-.04-.16.05-.16l1.32.08c.06,0,.11-.07.07-.12-.91-1.34-2.13-2.12-3.67-2.34-.03,0-.33-.04-.91-.12-.1-.01-.11-.14-.02-.17l1.28-.49c.12-.04.12-.21.01-.26-.42-.18-.95-.32-1.59-.42-1.43-.22-2.49-.42-3.55-.17-.07.01-.14-.03-.16-.09,0-.03,0-.05,0-.05-.05-.06-.13-.08-.2-.06-.86.3-1.8.7-2.42,1.43-.08.09-.21.11-.31.04-.51-.36-1.05-.6-1.62-.72-.21-.05-.38.19-.26.38l.34.55c.03.05,0,.11-.07.1l-.91-.21c-.11-.03-.21.08-.16.19.18.43.49.87.91,1.3.05.05.07.13.05.19-.07.3-.2.78-.37,1.43-.04.16-.05.56-.02,1.2,0,.12,0,.23-.01.34-.1.84-.25,1.84-.46,3.01-.11.64.1,1.19.63,1.65.67.58,1.76.3,2.2-.4.04-.07.07-.15.08-.24.04-.39.08-.64.13-.74.18-.37.54-.79,1.08-1.25.52-.44.76-.68.99-1.24.02-.08.13-.09.17-.02.75,1.28,1.58,2.94,1.68,4.39.03.57-.11,1.16,0,1.76.11.61.3,1.2.57,1.78.02.05-.01.11-.06.11-.96.1-1.65.14-2.08.13-.68-.01-1.13.05-1.34.2-.46.31-.78.63-.95.95-.04.09-.07.19-.08.29-.1.97-.37,2.01-.8,3.15-.15.38-.14.74-.01,1.17.39,1.29.77,2.37,1.16,3.23.05.09.17.11.24.04.55-.53.95-1.11,1.19-1.75.1-.28.03-.59-.19-.79-.14-.12-.35-.25-.64-.4-.09-.05-.13-.15-.1-.25.13-.38.19-.75.18-1.12-.03-.86.13-1.83.5-2.23.41-.46.88-.61,1.41-.44.53.16,1.04.29,1.62.45.05.02.06.08.02.1-.68.45-1.16.78-1.43,1-.75.6-.59,1.61.04,2.23.21.21.42.41.63.62.61.62,1.09,1.34,1.64,1.99.23.28.48.46.75.54,1.28.39,1.97.61,2.06.63.53.16,1.04.19,1.53.1.1-.02.16-.13.14-.23-.18-.65-.43-1.22-.75-1.7-.36-.52-.8-.52-1.25-.15-.48.39-.67-.09-.92-.4-.08-.11-.19-.2-.31-.26l-.55-.25c-.1-.04-.19-.1-.27-.17-.39-.35-.74-.79-1.04-1.32-.1-.16-.04-.37.12-.46.18-.09.33-.16.46-.19,1.03-.3,1.91-.56,2.63-.8.85-.27,1.48-.62,1.9-1.03.07-.02.11-.04.18-.06.69.12,1.82.44,2.63.49h.15v15.12h-10.17c-2.66,0-4.81,2.15-4.81,4.8v5.3c0,2.66,2.15,4.81,4.81,4.81h118.09c2.66,0,4.81-2.15,4.81-4.81v-5.3c0-2.65-2.15-4.8-4.81-4.8h-4.83v-15.49c.72-.07,1.66-.32,2.25-.43.07-.01.14,0,.2.06.38.38.96.69,1.73.94.66.22,1.47.46,2.42.73.11.04.25.09.41.18.15.08.2.27.12.42-.28.49-.6.89-.96,1.21-.07.07-.16.12-.25.16l-.5.23c-.11.05-.21.14-.29.24-.22.28-.4.72-.84.36-.41-.34-.82-.33-1.15.14-.29.44-.52.96-.68,1.56-.03.09.03.19.13.21.44.09.91.06,1.4-.09.08-.02.71-.21,1.89-.58.25-.07.48-.24.69-.49.5-.6.94-1.26,1.5-1.83.19-.19.39-.38.58-.57.58-.57.72-1.5.04-2.04-.25-.21-.69-.51-1.31-.92-.04-.02-.03-.08,0-.09.53-.16,1.01-.28,1.49-.42.49-.15.92-.02,1.3.4.33.37.48,1.26.46,2.06,0,.33.04.67.16,1.02.03.09,0,.19-.1.23-.26.13-.46.25-.58.36-.2.19-.27.48-.17.74.22.58.58,1.11,1.09,1.6.06.06.18.04.21-.04.36-.79.72-1.78,1.07-2.96.12-.4.13-.73,0-1.08-.4-1.04-.65-2-.74-2.89-.01-.09-.03-.18-.08-.26-.15-.3-.44-.59-.87-.88-.19-.13-.6-.19-1.23-.18-.39.01-1.03-.03-1.9-.12-.05,0-.08-.05-.06-.1.25-.53.42-1.07.52-1.63.11-.55-.03-1.09,0-1.62.08-1.33.85-2.85,1.53-4.03.04-.06.14-.05.16.02.21.52.44.73.9,1.13.5.43.83.81,1,1.15.04.1.08.32.12.69.01.07.03.15.07.21.41.65,1.41.91,2.02.37.49-.42.68-.93.58-1.52-.19-1.06-.33-1.98-.42-2.74-.02-.1-.02-.21,0-.31.02-.6.02-.97-.02-1.12-.16-.6-.27-1.04-.34-1.31-.02-.06,0-.13.05-.17.38-.41.66-.81.84-1.2.04-.1-.05-.2-.15-.18l-.84.2s-.09-.05-.06-.09l.31-.51c.11-.17-.04-.39-.24-.35-.52.11-1.02.33-1.49.66-.09.07-.21.05-.28-.03-.57-.68-1.44-1.04-2.22-1.31-.07-.03-.14-.01-.18.05,0,0,0,0-.02.04-.02.06-.08.1-.14.08-.97-.22-1.95-.04-3.26.16-.59.1-1.08.22-1.46.39-.11.04-.1.2,0,.24l1.18.44c.08.03.06.15-.02.16-.53.07-.81.11-.84.11-1.41.2-2.54.92-3.37,2.15-.03.05,0,.12.07.11l1.21-.07c.08,0,.11.1.04.14-.83.47-1.69,1.25-2.7,1.48v-16.19c.63.06,1.26.1,1.91.1,9.03,0,16.57-6.4,18.32-14.92l.3-13.12c.05-2.11-1.11-4.06-2.99-5.02ZM9861.59,257.65c-.07-.1-.13-.21-.21-.3-.45-.53-.94-.48-1.38-.02-.48.49-.75,0-1.05-.33-.11-.11-.24-.19-.38-.24l-.63-.21c-.11-.04-.21-.09-.31-.16-.47-.33-.9-.77-1.3-1.32-.12-.16-.08-.39.09-.51.18-.13.33-.21.47-.27,1.1-.44,2.03-.84,2.78-1.18.87-.39,1.51-.83,1.92-1.31v5.85ZM9861.59,237.93c-.66-.31-1.28-.69-1.88-.95-.09-.04-.07-.17.03-.17l1.45-.07c.08,0,.11-.09.07-.15-1.15-1.35-2.58-2.06-4.29-2.12-.03,0-.37,0-1.02-.02-.1,0-.13-.14-.04-.19l1.35-.68c.12-.06.11-.25-.03-.29-.47-.15-1.07-.24-1.78-.27-1.59-.07-2.78-.16-3.91.23-.07.03-.15,0-.17-.08-.02-.03-.03-.05-.03-.05-.06-.06-.15-.07-.22-.04-.9.43-1.89.98-2.48,1.85-.07.11-.21.14-.33.08-.61-.33-1.22-.53-1.85-.6-.25-.02-.4.26-.25.45l.44.56s0,.13-.06.12l-1.03-.12c-.12-.02-.21.11-.15.22.25.45.64.89,1.15,1.32.06.05.09.13.08.21-.05.33-.13.86-.24,1.6-.02.18.02.62.13,1.34.02.12.03.24.03.36-.02.93-.07,2.03-.15,3.33-.05.71.25,1.29.88,1.73.81.56,1.96.12,2.36-.7.04-.08.06-.17.06-.27,0-.43,0-.71.05-.82.16-.43.5-.93,1.04-1.5.51-.54.75-.83.93-1.47.02-.09.13-.11.18-.04.97,1.31,2.08,3.02,2.36,4.6.11.62.02,1.28.21,1.93s.47,1.27.83,1.87c.03.05,0,.12-.05.13-1.04.22-1.79.35-2.26.39-.75.07-1.23.19-1.44.37-.47.4-.77.79-.92,1.16-.04.1-.06.21-.06.33,0,1.06-.16,2.24-.5,3.53-.12.44-.06.82.13,1.29.57,1.36,1.13,2.49,1.65,3.38.06.1.19.11.27.02.53-.64.9-1.33,1.09-2.05.08-.32-.04-.65-.31-.85-.15-.11-.4-.23-.73-.35-.11-.05-.17-.16-.15-.27.1-.43.12-.84.06-1.24-.13-.94-.07-2.02.28-2.5.4-.55.9-.77,1.5-.65.59.11,1.17.19,1.83.3.05.01.07.08.03.11-.7.57-1.18.99-1.45,1.26-.74.74-.46,1.83.31,2.43.26.2.51.41.76.61.74.6,1.35,1.33,2.03,1.99.29.27.58.44.88.49,1.46.28,2.23.43,2.33.45.35.06.68.07,1,.04v6.82h-39.25v-15.46c.96-.23,1.9-.48,2.78-.78.05-.02.11,0,.14.04.86,1.09,1.85,2.17,3.12,2.72.83.36,1.82.72,2.96,1.07,1.12.35,1.45,1.37,1.69,2.45.17.76.29,1.47.34,2.16.08.88-.24,1.78-.39,2.6-.01.05-.01.1,0,.15l.24,1.26c.02.12.17.18.27.11.56-.4,1.03-.73,1.4-1.01.32-.23.49-.35.5-.37.2-.31-.22-.76-.46-1.15-.08-.12-.09-.29,0-.42.15-.24.24-.47.28-.7.02-.07,0-.15-.01-.22-.37-1.22-.62-2.69-.77-4.4-.04-.51-.17-1.05-.38-1.63-.02-.05.02-.1.08-.1,1.25.1,1.76.43,2.25,1.57.55,1.3,1.14,2.76.81,4.15-.21.92-.22,1.5.11,2.3.03.08.13.11.2.06l1.82-1.3s.06-.06.07-.09c.26-.44-.39-1.01-.58-1.27-.05-.08-.06-.18,0-.26.36-.64.46-.88.12-1.52-.28-.51-.53-1.12-.74-1.81-.38-1.19-.71-2.27-1-3.26-.09-.32-.41-.48-.73-.56-1.07-.26-2.04-.47-2.75-1.35-.2-.26-.3-.53-.31-.82,0-2-.25-3.66-1.56-5.14-.04-.04-.02-.11.03-.13.94-.29,1.63.28,2.11,1.08.48.81.89,1.49,1.22,2.05,1.09,1.81,2.89,2.8,5.03,2.35,1.06-.22,1.96-.75,2.71-1.59.05-.06,0-.15-.08-.14-1.59.31-2.86-.23-3.79-1.62-.31-.45-.81-1.15-1.52-2.09-1.78-2.4-4.32-3.05-6.82-1.21-.09.06-.21.06-.3,0-1.32-.84-2.77-1.12-4.37-.83-1.22.22-2.47.48-3.7.55v-22.04c3.62-2.7,6.25-6.65,7.19-11.23h.76c1.75,8.52,9.29,14.92,18.33,14.92,5.04,0,9.61-1.99,12.97-5.23v19.75ZM9917.65,242.18c-1.11-.07-2.25-.31-3.36-.5-1.46-.26-2.8,0-4.01.77-.08.05-.19.05-.27,0-2.3-1.69-4.63-1.09-6.27,1.11-.64.86-1.11,1.5-1.39,1.92-.85,1.28-2.02,1.77-3.48,1.49-.07-.02-.12.07-.07.13.69.76,1.51,1.25,2.48,1.45,1.97.42,3.62-.49,4.62-2.16.3-.5.68-1.13,1.12-1.87s1.07-1.26,1.94-.99c.05,0,.06.07.03.11-1.2,1.36-1.43,2.89-1.44,4.72,0,.27-.1.52-.28.75-.65.81-1.54,1.01-2.52,1.24-.3.07-.6.22-.68.51-.26.91-.57,1.91-.91,3-.2.64-.43,1.19-.68,1.67-.32.58-.22.8.11,1.39.04.07.03.16-.02.23-.16.25-.76.77-.53,1.17.02.03.04.06.07.08l1.67,1.2c.07.04.16.02.18-.05.3-.75.3-1.28.1-2.11-.3-1.29.24-2.63.75-3.82.45-1.05.92-1.35,2.07-1.44.05,0,.08.05.07.1-.2.52-.31,1.02-.35,1.49-.13,1.57-.37,2.92-.71,4.04-.02.06-.02.13-.01.2.04.21.12.42.26.65.07.11.07.26-.01.38-.22.35-.6.77-.42,1.06,0,0,.16.12.46.34.34.25.77.56,1.28.92.1.07.23.01.25-.1l.22-1.15s0-.1,0-.14c-.13-.76-.43-1.59-.36-2.4.05-.62.16-1.28.31-1.97.22-1,.53-1.93,1.56-2.25,1.05-.33,1.95-.66,2.72-.99,1.16-.5,2.07-1.49,2.85-2.49.04-.04.09-.06.14-.04.79.28,1.65.49,2.51.7v15.8h-46.13v-16.22c.18-.08.38-.15.56-.24.05-.03.12-.01.16.03,1.07,1.09,2.28,2.15,3.73,2.6.95.3,2.07.57,3.36.83,1.27.24,1.75,1.31,2.15,2.47.27.8.48,1.58.62,2.32.19.95-.06,1.98-.12,2.89,0,.06,0,.12.02.17l.41,1.34c.04.14.21.18.31.09.56-.5,1.04-.92,1.41-1.27.32-.29.49-.44.5-.46.18-.36-.32-.81-.64-1.2-.1-.13-.13-.31-.06-.46.14-.28.21-.55.23-.8,0-.08-.01-.17-.04-.24-.55-1.29-1-2.86-1.36-4.72-.11-.55-.31-1.13-.61-1.74-.03-.05.01-.11.07-.11,1.38-.05,1.98.25,2.65,1.44.76,1.35,1.58,2.88,1.38,4.45-.12,1.02-.06,1.65.39,2.5.04.08.15.1.22.04l1.84-1.64s.05-.07.07-.1c.22-.51-.55-1.06-.78-1.33-.07-.08-.09-.19-.05-.28.32-.74.4-1.02-.05-1.67-.36-.53-.71-1.17-1.03-1.9-.54-1.25-1.03-2.4-1.47-3.45-.14-.33-.5-.47-.87-.52-1.2-.15-2.29-.27-3.16-1.15-.25-.25-.4-.54-.44-.86-.24-2.18-.71-3.97-2.32-5.43-.04-.05-.03-.12.02-.15,1-.43,1.82.11,2.44.93.62.83,1.15,1.53,1.58,2.09,1.4,1.85,3.49,2.73,5.78,1.98,1.12-.37,2.05-1.06,2.77-2.06.05-.07-.02-.17-.11-.14-1.7.53-3.15.09-4.34-1.32-.38-.46-1.02-1.17-1.9-2.11-2.23-2.41-5.09-2.82-7.61-.52-.09.08-.21.1-.32.05-1.54-.77-3.16-.9-4.88-.4-.17.05-.34.1-.51.15v-23.71c3.43,4.22,8.65,6.92,14.51,6.92,9.04,0,16.58-6.4,18.33-14.92h.76c1.36,6.61,6.21,11.93,12.53,13.99v19.7ZM9922.75,240.47s.06.06.02.09c-.38.3-.8.56-1.23.79v-1.42c.35.25.74.45,1.21.54Z"/>
            <path class="cls-6" d="M9917.75,293.95c1.75,0,3.17-1.42,3.17-3.17v-2.64c0-1.75-1.42-3.17-3.17-3.17h-108.51c-1.73,0-3.12,1.4-3.12,3.12v2.74c0,1.73,1.4,3.12,3.12,3.12h108.51Z"/>
            <path class="cls-6" d="M9874.89,136.95c4.63-1.76,12.63-4.27,11.34-.12-1.09,3.5,12.51.68,12.51.68,0,0-.98-7.3.24-11.54,1.22-4.24.14-6.55.14-6.55,0,0-6.22.26-9.53.66-1.88.23-.7-3.44-.7-4.16,0-3.33-17.13,1.52-17.13,1.52v19.64s1.3.57,3.13-.13Z"/>
            <path class="cls-6" d="M9812.27,121.48h-2.15c-1.48-8.13-3.79-15.99-6.83-23.47,1.1-1.48,1.76-3.3,1.76-5.28v-19.7c0-4.88-3.96-8.84-8.84-8.84h-13.66c-5.65-6.53-11.99-12.44-18.91-17.63v-15.26c0-5.33-4.37-9.7-9.7-9.7h-20.25c-3.88,0-7.23,2.31-8.78,5.62-4.18-1.21-8.45-2.19-12.8-2.95v-9.51c0-4.88-3.96-8.84-8.85-8.84h-19.7c-4.88,0-8.84,3.96-8.84,8.84v8.86c-5.46.75-10.8,1.87-16,3.34-1.6-3.17-4.88-5.36-8.66-5.36h-20.24c-5.34,0-9.71,4.37-9.71,9.7v14.5c-6.92,5.08-13.28,10.88-18.98,17.28h-15.1c-4.88,0-8.84,3.96-8.84,8.84v19.7c0,2.33.9,4.45,2.38,6.02-3.11,7.6-5.47,15.57-6.98,23.84h-4.31c-5.33,0-9.7,4.37-9.7,9.71v20.24c0,5.34,4.37,9.7,9.7,9.7h3.68c1.09,7.25,2.83,14.29,5.15,21.06-4.18.7-7.36,4.33-7.36,8.7v19.7c0,4.89,3.96,8.85,8.84,8.85h19.25c1.32,1.61,2.67,3.21,4.07,4.75-2.23,1.79-3.68,4.53-3.68,7.59v3.47c5.31-6.49,11.47-14.2,16.32-20.32-2.63-2.81-5.11-5.77-7.42-8.86v-12.26l56.93-30.16-20.36,39.55,24.4-1.21,18.54-35.07c1.04.23,2.12.38,3.21.46l.3,57.77,4-.02-.3-57.84c.75-.09,1.49-.21,2.22-.37l23.6,44.66,1.14-1.79c2.19-3.45,5.92-5.61,9.99-5.8l8.42-.39-22.14-42.99,50.59,23.32v14.57c0,4.31,6.27,7.9,11.09,8.68l7.97,9.91c.82-1.06,2.65-2.94,3.43-4.02l-.02-16.89c-.2-3.91,1.9-7.56,5.37-9.38,2.85-1.5,6.54-3.5,10.49-5.82,2.12-6.4,3.73-13.03,4.75-19.85h1.52c5.34,0,9.7-4.36,9.7-9.7v-20.24c0-5.34-4.36-9.71-9.7-9.71ZM9667.27,157.42l-60.28,31.93c-.73-4.14-4.34-7.3-8.7-7.3h-4.64c-2.66-6.67-4.68-13.66-5.93-20.92h.81c5.33,0,9.7-4.36,9.7-9.7v-10.59l71.37,5.71c.07,1.68.33,3.31.76,4.87l-3.09,6ZM9670.01,141.38l-71.78-5.74v-4.45c0-5.34-4.37-9.71-9.7-9.71h-.09c1.54-7.31,3.86-14.34,6.84-21.01h10.45c3.27,0,6.12-1.78,7.65-4.42l58.6,39.69c-.9,1.76-1.58,3.65-1.97,5.64ZM9674.13,132.37l-59.58-40.36c.01-.13.02-.26.02-.39v-19.7c0-.15,0-.31-.02-.46,3.65-3.91,7.58-7.56,11.78-10.87,1.09.42,2.26.66,3.49.66h11.47l37.26,66.81c-1.67,1.21-3.16,2.67-4.42,4.31ZM9690.01,123.96c-2.44.15-4.78.68-6.93,1.56l-35.85-64.27h2.83c5.34,0,9.7-4.37,9.7-9.7v-8.68c5.27-1.66,10.72-2.91,16.31-3.72,1.57,2.49,4.33,4.16,7.49,4.16h7.38l-.93,80.65ZM9694.01,124.07l.93-80.76h8.32c2.9,0,5.46-1.4,7.07-3.55,4.67.86,9.23,2,13.66,3.45v8.34c0,4.68,3.37,8.62,7.8,9.51l-32.87,64.18c-1.56-.58-3.21-.96-4.91-1.17ZM9703.53,127.61l33.99-66.36h16.42c.95,0,1.88-.15,2.75-.41,3.98,3.16,7.7,6.62,11.18,10.31-.13.61-.2,1.23-.2,1.88v19.73l-58.84,39.95c-1.47-1.98-3.26-3.72-5.3-5.1ZM9768.71,96.89c1.49,2.79,4.42,4.68,7.8,4.68h11.4c2.74,6.35,4.9,13,6.36,19.91h-2.24c-5.34,0-9.71,4.37-9.71,9.71v1.36l-69.78,8.07c-.38-1.57-.94-3.07-1.63-4.49l57.8-39.24ZM9793.07,169.96h-16.56c-4.88,0-8.84,3.95-8.84,8.84v.73l-53.56-24.7-1.76-3.41c.5-1.8.77-3.69.78-5.64l69.19-8.01v13.66c0,5.34,4.37,9.7,9.71,9.7h2.96c-.51,2.99-1.16,5.93-1.92,8.83Z"/>
          </g>
        </g>
        <g>
          <path class="cls-6" d="M9724.36,659.3v-22.01h-28.24v-42.65h.6c1.52-4.75,7.7-8.02,15.63-8.02,4.9,0,9.13,1.25,12.01,3.33v-193.1h66.55v191.26c2.49-.97,5.42-1.48,8.56-1.48,7.93,0,14.11,3.28,15.63,8.02h.6v42.65h-24.79v22.01h-66.55Z"/>
          <path class="cls-5" d="M9788.91,398.84v192.52c2.53-1.7,6.25-2.75,10.56-2.75,7.81,0,13.73,3.43,13.98,8.02h.25v38.65h-24.79v22.01h-62.55v-22.01h-28.24v-38.65h.25c.25-4.59,6.17-8.02,13.98-8.02s13.73,3.43,13.98,8.02h.03v-197.8h62.55M9792.91,394.84h-70.55v191.71c-2.82-1.24-6.24-1.94-10.01-1.94-8.08,0-14.55,3.21-16.97,8.02h-1.26v46.65h28.24v22.01h70.55v-22.01h24.79v-46.65h-1.26c-2.42-4.81-8.89-8.02-16.97-8.02-2.3,0-4.52.26-6.56.77v-190.54h0Z"/>
        </g>
        <g>
          <rect class="cls-4" x="9728.32" y="331.82" width="58.63" height="323.57"/>
          <line class="cls-3" x1="9729.88" y1="483.44" x2="9785.66" y2="483.44"/>
          <line class="cls-3" x1="9729.88" y1="471.77" x2="9785.66" y2="471.77"/>
          <line class="cls-3" x1="9729.88" y1="460.1" x2="9785.66" y2="460.1"/>
          <line class="cls-3" x1="9729.88" y1="448.43" x2="9785.66" y2="448.43"/>
          <line class="cls-3" x1="9729.88" y1="436.75" x2="9785.66" y2="436.75"/>
          <line class="cls-3" x1="9729.88" y1="425.08" x2="9785.66" y2="425.08"/>
          <line class="cls-3" x1="9729.88" y1="413.41" x2="9785.66" y2="413.41"/>
          <line class="cls-3" x1="9729.88" y1="401.74" x2="9785.66" y2="401.74"/>
          <line class="cls-3" x1="9729.88" y1="390.07" x2="9785.66" y2="390.07"/>
          <line class="cls-3" x1="9729.88" y1="378.4" x2="9785.66" y2="378.4"/>
          <line class="cls-3" x1="9729.88" y1="366.73" x2="9785.66" y2="366.73"/>
          <line class="cls-3" x1="9729.88" y1="355.06" x2="9785.66" y2="355.06"/>
          <line class="cls-3" x1="9729.88" y1="495.62" x2="9785.66" y2="495.62"/>
          <line class="cls-3" x1="9729.88" y1="507.8" x2="9785.66" y2="507.8"/>
          <line class="cls-3" x1="9729.88" y1="519.98" x2="9785.66" y2="519.98"/>
          <line class="cls-3" x1="9729.88" y1="532.16" x2="9785.66" y2="532.16"/>
          <line class="cls-3" x1="9729.88" y1="544.34" x2="9785.66" y2="544.34"/>
          <line class="cls-3" x1="9729.88" y1="556.52" x2="9785.66" y2="556.52"/>
          <line class="cls-3" x1="9729.88" y1="568.7" x2="9785.66" y2="568.7"/>
          <line class="cls-3" x1="9729.88" y1="580.88" x2="9785.66" y2="580.88"/>
          <line class="cls-3" x1="9729.88" y1="593.06" x2="9785.66" y2="593.06"/>
          <line class="cls-3" x1="9729.88" y1="605.24" x2="9785.66" y2="605.24"/>
          <line class="cls-3" x1="9729.88" y1="617.42" x2="9785.66" y2="617.42"/>
          <line class="cls-3" x1="9729.88" y1="629.6" x2="9785.66" y2="629.6"/>
          <line class="cls-3" x1="9729.88" y1="641.78" x2="9785.66" y2="641.78"/>
        </g>
        <g>
          <g>
            <rect class="cls-7" x="9787.42" y="598.62" width="24.09" height="34.45"/>
            <path class="cls-6" d="M9813.7,635.25h-28.46v-38.82h28.46v38.82ZM9789.6,630.88h19.73v-30.08h-19.73v30.08Z"/>
          </g>
          <g>
            <ellipse class="cls-7" cx="9799.47" cy="596.74" rx="12.05" ry="6.4"/>
            <path class="cls-6" d="M9799.47,605.1c-7.99,0-14.01-3.59-14.01-8.36s6.02-8.36,14.01-8.36,14.01,3.59,14.01,8.36-6.02,8.36-14.01,8.36ZM9799.47,592.3c-6.25,0-10.09,2.59-10.09,4.44s3.84,4.44,10.09,4.44,10.09-2.59,10.09-4.44-3.84-4.44-10.09-4.44Z"/>
          </g>
        </g>
        <g>
          <g>
            <rect class="cls-7" x="9700.3" y="598.62" width="24.09" height="34.45"/>
            <path class="cls-6" d="M9726.58,635.25h-28.46v-38.82h28.46v38.82ZM9702.49,630.88h19.73v-30.08h-19.73v30.08Z"/>
          </g>
          <g>
            <ellipse class="cls-7" cx="9712.35" cy="596.74" rx="12.05" ry="6.4"/>
            <path class="cls-6" d="M9712.35,605.1c-7.99,0-14.01-3.59-14.01-8.36s6.02-8.36,14.01-8.36,14.01,3.59,14.01,8.36-6.02,8.36-14.01,8.36ZM9712.35,592.3c-6.25,0-10.09,2.59-10.09,4.44s3.84,4.44,10.09,4.44,10.09-2.59,10.09-4.44-3.84-4.44-10.09-4.44Z"/>
          </g>
        </g>
      </g>
    </g>
  </g>
</svg>