<?xml version="1.0" encoding="UTF-8"?>
<svg id="Layer_2" data-name="Layer 2" xmlns="http://www.w3.org/2000/svg" viewBox="0 0 6707.48 1088.72">
  <defs>
    <style>
      .cls-1 {
        fill: #44482b;
      }

      .cls-2 {
        fill: #63af8a;
      }

      .cls-3 {
        fill: #231f20;
        opacity: .35;
      }
    </style>
  </defs>
  <g id="Trees">
    <g>
      <path class="cls-3" d="M6703.45,207.17l-97.51,71.49-63.22,24.95-106.75-36.62-203.57-32.57-144.22,160.2c-39.9,29.69-86.44,63.18-106.04,75.82-28.25-4.05-106.06-18.64-179.78-33.25l-80.68-110.1-49.4-204.5L5528.73,0l-162.57,122.58-56.93,204.5-92.97,110.1c-84.96,14.61-174.62,29.2-207.17,33.25-22.59-12.63-76.21-46.12-122.19-75.82l-166.19-160.2-234.59,32.57-123.01,36.62-72.85-24.95-141.37-50.6-83.01,18.5-137.22,30.49-51.29,75.72-106.26-9.65-135.53-43.48-186.35,45.17-154.16-88.65-237.18,75.11-132.14-31.62-176.19,169-81.32-27.16-101.65-132.2-167.72-125.41-187.2-10.16-62.41,82.26-137.5,39.71-75.19,60.95-102.69-44.01-140.61,51.6-72.18-54.56-120.95-41.08-159.25,86.4-125.36,84.84-115.2-10.3-49.13-52.52-110.12-66.07-145.69,8.47-77.93,88.3-86.4,31.31-81.32-39.99-111.81-13.55-60.99-76.24-150.78-74.54-118.59,16.94L0,216.07v872.65h5531.9s1175.59,0,1175.59,0V194.04l-4.03,13.12Z"/>
      <path class="cls-2" d="M6635.36,320.72l-91.56,36.14-118.51-40.66-176.19-28.19-131.12,145.65s-115.09,85.83-126.39,88.09-214.59-38.4-214.59-38.4l-96-131.01-48.56-201.03-103.96-95.24c-23.53,14.66-116.39,95.24-116.39,95.24l-55.96,201.03-110.63,131.01s-234.27,40.66-247.29,38.4-145.64-88.09-145.64-88.09l-151.1-145.65-203.03,28.19-136.57,40.66-105.51-36.14-109.17-28.42-174.49,28.8-76.01,86.88-130.67-5.57-144-49.65-174.49,44.57-157.55-88.05-221.93,72.4-130.45-28.91-176.19,183.48-116.89-51.29-101.65-132.2-149.08-121.46-155.86-15.25-60.99,69.46-144,47.44-91.48,64.38-103.35-49.24-150.77,59.61-88.09-61.2-93.18-40.66-145.69,83.01-133.84,93.63-147.39-20.79-42.35-54-96.56-54.42h-111.81l-93.18,85.73-105.04,43.48-83.01-43.48-125.36-12.88-59.29-76.24-135.53-67.76-137.22,20.33L0,251.64v837.08h5531.9s1175.59,0,1175.59,0V207.78l-72.12,112.94Z"/>
      <polygon class="cls-1" points="5755.55 681.52 5734.09 768.48 5781.53 768.48 5755.55 681.52"/>
      <polygon class="cls-1" points="5701.34 725 5679.88 811.97 5727.31 811.97 5701.34 725"/>
      <polygon class="cls-1" points="5695.97 841.28 5674.51 928.24 5721.95 928.24 5695.97 841.28"/>
      <polygon class="cls-1" points="5815.13 758.8 5793.67 845.76 5841.1 845.76 5815.13 758.8"/>
      <polygon class="cls-1" points="5625.1 265.81 5603.64 352.77 5651.08 352.77 5625.1 265.81"/>
      <polygon class="cls-1" points="5577.67 184.58 5556.21 271.54 5603.64 271.54 5577.67 184.58"/>
      <polygon class="cls-1" points="5755.55 796.15 5734.09 883.12 5781.53 883.12 5755.55 796.15"/>
      <polygon class="cls-1" points="5815.13 643.72 5793.67 730.68 5841.1 730.68 5815.13 643.72"/>
      <polygon class="cls-1" points="5899.29 558.71 5877.83 645.68 5925.26 645.68 5899.29 558.71"/>
      <polygon class="cls-1" points="5802.99 542.6 5781.53 629.57 5828.96 629.57 5802.99 542.6"/>
      <polygon class="cls-1" points="5735.79 576.96 5714.33 663.93 5761.76 663.93 5735.79 576.96"/>
      <polygon class="cls-1" points="5577.67 309.29 5556.21 396.26 5603.64 396.26 5577.67 309.29"/>
      <polygon class="cls-1" points="5469.53 141.1 5448.07 228.06 5495.5 228.06 5469.53 141.1"/>
      <polygon class="cls-1" points="5425.76 212.69 5404.3 299.65 5451.74 299.65 5425.76 212.69"/>
      <polygon class="cls-1" points="5481.67 265.81 5460.21 352.77 5507.64 352.77 5481.67 265.81"/>
      <polygon class="cls-1" points="4661.62 320.75 4640.16 407.71 4687.6 407.71 4661.62 320.75"/>
      <polygon class="cls-1" points="4588.21 345.6 4566.75 432.56 4614.19 432.56 4588.21 345.6"/>
      <polygon class="cls-1" points="4514.42 360.28 4492.96 447.24 4540.4 447.24 4514.42 360.28"/>
      <polygon class="cls-1" points="5413.45 331.27 5391.99 418.24 5439.42 418.24 5413.45 331.27"/>
      <polygon class="cls-1" points="5469.24 381.69 5447.79 468.65 5495.22 468.65 5469.24 381.69"/>
      <polygon class="cls-1" points="5956.87 615.73 5935.41 702.7 5982.84 702.7 5956.87 615.73"/>
      <polygon class="cls-1" points="6449.85 370.46 6428.39 457.42 6475.82 457.42 6449.85 370.46"/>
      <polygon class="cls-1" points="6516.77 396.26 6495.31 483.22 6542.74 483.22 6516.77 396.26"/>
      <polygon class="cls-1" points="6469.33 473.71 6447.87 560.67 6495.31 560.67 6469.33 473.71"/>
      <polygon class="cls-1" points="6540.48 508.07 6519.02 595.03 6566.46 595.03 6540.48 508.07"/>
      <polygon class="cls-1" points="6545.57 633.43 6524.11 720.4 6571.54 720.4 6545.57 633.43"/>
      <polygon class="cls-1" points="6473.57 586.08 6452.11 673.05 6499.54 673.05 6473.57 586.08"/>
      <polygon class="cls-1" points="6413.43 499.12 6391.97 586.08 6439.4 586.08 6413.43 499.12"/>
      <polygon class="cls-1" points="6583.68 434 6562.22 520.97 6609.66 520.97 6583.68 434"/>
      <polygon class="cls-1" points="5875.57 676.91 5854.11 763.88 5901.55 763.88 5875.57 676.91"/>
      <polygon class="cls-1" points="5672.26 627.78 5650.8 714.75 5698.23 714.75 5672.26 627.78"/>
      <polygon class="cls-1" points="5375.17 952.65 5353.71 1039.61 5401.15 1039.61 5375.17 952.65"/>
      <polygon class="cls-1" points="5434.75 914.84 5413.29 1001.81 5460.72 1001.81 5434.75 914.84"/>
      <polygon class="cls-1" points="5589.55 829.84 5568.09 916.8 5615.52 916.8 5589.55 829.84"/>
      <polygon class="cls-1" points="5628.74 744.83 5607.28 831.8 5654.71 831.8 5628.74 744.83"/>
      <polygon class="cls-1" points="5422.61 813.73 5401.15 900.69 5448.58 900.69 5422.61 813.73"/>
      <polygon class="cls-1" points="5471.73 744.83 5450.28 831.8 5497.71 831.8 5471.73 744.83"/>
      <polygon class="cls-1" points="5405.04 671.27 5383.58 758.23 5431.02 758.23 5405.04 671.27"/>
      <polygon class="cls-1" points="5355.41 848.09 5333.95 935.05 5381.38 935.05 5355.41 848.09"/>
      <polygon class="cls-1" points="5268.16 770.25 5246.7 857.21 5294.14 857.21 5268.16 770.25"/>
      <polygon class="cls-1" points="5342.81 712.61 5321.35 799.58 5368.78 799.58 5342.81 712.61"/>
      <polygon class="cls-1" points="4850.31 517.32 4828.85 604.28 4876.29 604.28 4850.31 517.32"/>
      <polygon class="cls-1" points="4791.02 468.65 4769.56 555.62 4817 555.62 4791.02 468.65"/>
      <polygon class="cls-1" points="4714.22 517.32 4692.76 604.28 4740.2 604.28 4714.22 517.32"/>
      <polygon class="cls-1" points="4774.64 578.31 4753.18 665.27 4800.62 665.27 4774.64 578.31"/>
      <polygon class="cls-1" points="4853.14 637.04 4831.68 724 4879.11 724 4853.14 637.04"/>
      <polygon class="cls-1" points="4920.9 550.07 4899.44 637.04 4946.88 637.04 4920.9 550.07"/>
      <polygon class="cls-1" points="4920.9 669.79 4899.44 756.75 4946.88 756.75 4920.9 669.79"/>
      <polygon class="cls-1" points="4798.36 692.94 4776.9 779.91 4824.34 779.91 4798.36 692.94"/>
      <polygon class="cls-1" points="4375.4 961.74 4353.94 1048.71 4401.37 1048.71 4375.4 961.74"/>
      <polygon class="cls-1" points="4489.47 966.82 4468.01 1053.79 4515.44 1053.79 4489.47 966.82"/>
      <polygon class="cls-1" points="4428.48 901.32 4407.02 988.28 4454.46 988.28 4428.48 901.32"/>
      <g>
        <polygon class="cls-1" points="4268.19 441.49 4246.73 528.45 4294.17 528.45 4268.19 441.49"/>
        <polygon class="cls-1" points="4217.74 512.13 4196.28 599.1 4243.72 599.1 4217.74 512.13"/>
        <polygon class="cls-1" points="4343.48 516.27 4322.03 603.24 4369.46 603.24 4343.48 516.27"/>
        <polygon class="cls-1" points="4280.61 581.03 4259.16 667.99 4306.59 667.99 4280.61 581.03"/>
      </g>
      <g>
        <polygon class="cls-1" points="2542.65 789.16 2521.19 876.13 2568.62 876.13 2542.65 789.16"/>
        <polygon class="cls-1" points="2492.2 859.81 2470.74 946.78 2518.18 946.78 2492.2 859.81"/>
        <polygon class="cls-1" points="2617.94 863.95 2596.48 950.92 2643.92 950.92 2617.94 863.95"/>
        <polygon class="cls-1" points="2555.07 928.71 2533.61 1015.67 2581.05 1015.67 2555.07 928.71"/>
      </g>
      <g>
        <polygon class="cls-1" points="1409.36 815.45 1387.9 902.42 1435.34 902.42 1409.36 815.45"/>
        <polygon class="cls-1" points="1358.91 886.1 1337.45 973.07 1384.89 973.07 1358.91 886.1"/>
        <polygon class="cls-1" points="1484.65 890.24 1463.2 977.21 1510.63 977.21 1484.65 890.24"/>
        <polygon class="cls-1" points="1421.78 954.99 1400.33 1041.96 1447.76 1041.96 1421.78 954.99"/>
      </g>
      <g>
        <polygon class="cls-1" points="2158.08 347.43 2136.62 434.39 2184.06 434.39 2158.08 347.43"/>
        <polygon class="cls-1" points="2107.64 418.08 2086.18 505.04 2133.61 505.04 2107.64 418.08"/>
        <polygon class="cls-1" points="2233.38 422.22 2211.92 509.18 2259.35 509.18 2233.38 422.22"/>
        <polygon class="cls-1" points="2170.51 486.97 2149.05 573.93 2196.48 573.93 2170.51 486.97"/>
      </g>
      <g>
        <polygon class="cls-1" points="1992.89 431.11 1971.43 518.07 2018.87 518.07 1992.89 431.11"/>
        <polygon class="cls-1" points="1942.44 501.76 1920.98 588.72 1968.42 588.72 1942.44 501.76"/>
        <polygon class="cls-1" points="2068.18 505.9 2046.72 592.86 2094.16 592.86 2068.18 505.9"/>
        <polygon class="cls-1" points="2005.31 570.65 1983.85 657.61 2031.29 657.61 2005.31 570.65"/>
      </g>
      <g>
        <polygon class="cls-1" points="1930.02 612.16 1908.56 699.13 1955.99 699.13 1930.02 612.16"/>
        <polygon class="cls-1" points="1879.57 682.81 1858.11 769.77 1905.55 769.77 1879.57 682.81"/>
        <polygon class="cls-1" points="2005.31 686.95 1983.85 773.91 2031.29 773.91 2005.31 686.95"/>
        <polygon class="cls-1" points="1942.44 751.7 1920.98 838.67 1968.42 838.67 1942.44 751.7"/>
      </g>
      <g>
        <polygon class="cls-1" points="1780.56 431.11 1759.1 518.07 1806.54 518.07 1780.56 431.11"/>
        <polygon class="cls-1" points="1730.11 501.76 1708.65 588.72 1756.09 588.72 1730.11 501.76"/>
        <polygon class="cls-1" points="1855.85 505.9 1834.39 592.86 1881.83 592.86 1855.85 505.9"/>
        <polygon class="cls-1" points="1792.98 570.65 1771.52 657.61 1818.96 657.61 1792.98 570.65"/>
      </g>
      <g>
        <polygon class="cls-1" points="1631.1 527.48 1609.64 614.45 1657.08 614.45 1631.1 527.48"/>
        <polygon class="cls-1" points="1580.65 598.13 1559.2 685.09 1606.63 685.09 1580.65 598.13"/>
        <polygon class="cls-1" points="1706.4 602.27 1684.94 689.24 1732.37 689.24 1706.4 602.27"/>
        <polygon class="cls-1" points="1643.52 667.02 1622.07 753.99 1669.5 753.99 1643.52 667.02"/>
      </g>
      <g>
        <polygon class="cls-1" points="858.35 403.02 836.89 489.99 884.33 489.99 858.35 403.02"/>
        <polygon class="cls-1" points="807.9 473.67 786.45 560.63 833.88 560.63 807.9 473.67"/>
        <polygon class="cls-1" points="933.65 477.81 912.19 564.77 959.62 564.77 933.65 477.81"/>
        <polygon class="cls-1" points="870.77 542.56 849.32 629.53 896.75 629.53 870.77 542.56"/>
      </g>
      <g>
        <polygon class="cls-1" points="685.18 514.2 663.72 601.16 711.15 601.16 685.18 514.2"/>
        <polygon class="cls-1" points="634.73 584.85 613.27 671.81 660.7 671.81 634.73 584.85"/>
        <polygon class="cls-1" points="760.47 588.99 739.01 675.95 786.45 675.95 760.47 588.99"/>
        <polygon class="cls-1" points="697.6 653.74 676.14 740.7 723.58 740.7 697.6 653.74"/>
      </g>
      <g>
        <polygon class="cls-1" points="876.05 659.59 854.59 746.56 902.02 746.56 876.05 659.59"/>
        <polygon class="cls-1" points="825.6 730.24 804.14 817.21 851.57 817.21 825.6 730.24"/>
        <polygon class="cls-1" points="951.34 734.38 929.88 821.35 977.32 821.35 951.34 734.38"/>
        <polygon class="cls-1" points="888.47 799.14 867.01 886.1 914.45 886.1 888.47 799.14"/>
      </g>
      <g>
        <polygon class="cls-1" points="95.62 831.27 74.16 918.23 121.6 918.23 95.62 831.27"/>
        <polygon class="cls-1" points="45.18 901.91 23.72 988.88 71.15 988.88 45.18 901.91"/>
        <polygon class="cls-1" points="170.92 906.05 149.46 993.02 196.89 993.02 170.92 906.05"/>
        <polygon class="cls-1" points="108.05 970.81 86.59 1057.77 134.02 1057.77 108.05 970.81"/>
      </g>
      <g>
        <polygon class="cls-1" points="497.69 459.14 476.23 546.11 523.67 546.11 497.69 459.14"/>
        <polygon class="cls-1" points="447.25 529.79 425.79 616.75 473.22 616.75 447.25 529.79"/>
        <polygon class="cls-1" points="572.99 533.93 551.53 620.9 598.96 620.9 572.99 533.93"/>
        <polygon class="cls-1" points="510.12 598.68 488.66 685.65 536.09 685.65 510.12 598.68"/>
      </g>
      <g>
        <polygon class="cls-1" points="307.95 389.37 286.49 476.34 333.93 476.34 307.95 389.37"/>
        <polygon class="cls-1" points="257.51 460.02 236.05 546.98 283.48 546.98 257.51 460.02"/>
        <polygon class="cls-1" points="383.25 464.16 361.79 551.13 409.22 551.13 383.25 464.16"/>
        <polygon class="cls-1" points="320.38 528.91 298.92 615.88 346.35 615.88 320.38 528.91"/>
      </g>
      <g>
        <polygon class="cls-1" points="119.34 319.6 97.88 406.57 145.32 406.57 119.34 319.6"/>
        <polygon class="cls-1" points="68.89 390.25 47.44 477.21 94.87 477.21 68.89 390.25"/>
        <polygon class="cls-1" points="194.63 394.39 173.18 481.35 220.61 481.35 194.63 394.39"/>
        <polygon class="cls-1" points="131.76 459.14 110.31 546.11 157.74 546.11 131.76 459.14"/>
      </g>
      <g>
        <polygon class="cls-1" points="1532.09 347.43 1510.63 434.39 1558.07 434.39 1532.09 347.43"/>
        <polygon class="cls-1" points="1481.64 418.08 1460.18 505.04 1507.62 505.04 1481.64 418.08"/>
        <polygon class="cls-1" points="1607.38 422.22 1585.92 509.18 1633.36 509.18 1607.38 422.22"/>
        <polygon class="cls-1" points="1544.51 486.97 1523.05 573.93 1570.49 573.93 1544.51 486.97"/>
      </g>
      <g>
        <polygon class="cls-1" points="2479.78 364.23 2458.32 451.2 2505.75 451.2 2479.78 364.23"/>
        <polygon class="cls-1" points="2555.07 439.02 2533.61 525.98 2581.05 525.98 2555.07 439.02"/>
        <polygon class="cls-1" points="2492.2 503.77 2470.74 590.74 2518.18 590.74 2492.2 503.77"/>
      </g>
      <g>
        <polygon class="cls-1" points="1173.61 509.18 1152.16 596.15 1199.59 596.15 1173.61 509.18"/>
        <polygon class="cls-1" points="1248.91 583.97 1227.45 670.93 1274.88 670.93 1248.91 583.97"/>
        <polygon class="cls-1" points="1186.04 648.72 1164.58 735.69 1212.01 735.69 1186.04 648.72"/>
      </g>
      <g>
        <polygon class="cls-1" points="1027.92 465.7 1006.46 552.66 1053.9 552.66 1027.92 465.7"/>
        <polygon class="cls-1" points="1103.21 540.49 1081.76 627.45 1129.19 627.45 1103.21 540.49"/>
        <polygon class="cls-1" points="1040.34 605.24 1018.89 692.2 1066.32 692.2 1040.34 605.24"/>
      </g>
      <g>
        <polygon class="cls-1" points="3386.32 788.29 3364.86 875.25 3412.29 875.25 3386.32 788.29"/>
        <polygon class="cls-1" points="3335.87 858.94 3314.41 945.9 3361.85 945.9 3335.87 858.94"/>
        <polygon class="cls-1" points="3461.61 863.08 3440.15 950.04 3487.59 950.04 3461.61 863.08"/>
      </g>
      <g>
        <polygon class="cls-1" points="1607.38 907.44 1585.92 994.4 1633.36 994.4 1607.38 907.44"/>
        <polygon class="cls-1" points="1556.94 978.08 1535.48 1065.05 1582.91 1065.05 1556.94 978.08"/>
        <polygon class="cls-1" points="1682.68 982.22 1661.22 1069.19 1708.65 1069.19 1682.68 982.22"/>
      </g>
      <g>
        <polygon class="cls-1" points="295.53 901.91 274.07 988.88 321.51 988.88 295.53 901.91"/>
        <polygon class="cls-1" points="245.08 972.56 223.62 1059.52 271.06 1059.52 245.08 972.56"/>
        <polygon class="cls-1" points="370.82 976.7 349.36 1063.67 396.8 1063.67 370.82 976.7"/>
      </g>
      <g>
        <polygon class="cls-1" points="3284.1 358.86 3262.65 445.83 3310.08 445.83 3284.1 358.86"/>
        <polygon class="cls-1" points="3233.66 429.51 3212.2 516.47 3259.63 516.47 3233.66 429.51"/>
        <polygon class="cls-1" points="3359.4 433.65 3337.94 520.61 3385.37 520.61 3359.4 433.65"/>
      </g>
      <g>
        <polygon class="cls-1" points="3305 483.12 3283.55 570.09 3330.98 570.09 3305 483.12"/>
        <polygon class="cls-1" points="3254.56 553.77 3233.1 640.74 3280.53 640.74 3254.56 553.77"/>
        <polygon class="cls-1" points="3380.3 557.91 3358.84 644.88 3406.27 644.88 3380.3 557.91"/>
      </g>
      <g>
        <polygon class="cls-1" points="3877.98 468.65 3856.52 555.62 3903.96 555.62 3877.98 468.65"/>
        <polygon class="cls-1" points="3827.53 539.3 3806.07 626.26 3853.51 626.26 3827.53 539.3"/>
        <polygon class="cls-1" points="3953.27 543.44 3931.81 630.4 3979.25 630.4 3953.27 543.44"/>
        <polygon class="cls-1" points="3890.4 608.19 3868.94 695.16 3916.38 695.16 3890.4 608.19"/>
      </g>
      <g>
        <polygon class="cls-1" points="3824.33 645.97 3802.87 732.93 3850.31 732.93 3824.33 645.97"/>
        <polygon class="cls-1" points="3773.89 716.62 3752.43 803.58 3799.86 803.58 3773.89 716.62"/>
        <polygon class="cls-1" points="3899.63 720.76 3878.17 807.72 3925.6 807.72 3899.63 720.76"/>
        <polygon class="cls-1" points="3836.76 785.51 3815.3 872.47 3862.73 872.47 3836.76 785.51"/>
      </g>
      <g>
        <polygon class="cls-1" points="3689.37 455.66 3667.91 542.63 3715.34 542.63 3689.37 455.66"/>
        <polygon class="cls-1" points="3638.92 526.31 3617.46 613.27 3664.9 613.27 3638.92 526.31"/>
        <polygon class="cls-1" points="3764.66 530.45 3743.2 617.42 3790.64 617.42 3764.66 530.45"/>
        <polygon class="cls-1" points="3701.79 595.2 3680.33 682.17 3727.77 682.17 3701.79 595.2"/>
      </g>
      <g>
        <polygon class="cls-1" points="2959.19 417.2 2937.73 504.16 2985.17 504.16 2959.19 417.2"/>
        <polygon class="cls-1" points="2908.74 487.85 2887.28 574.81 2934.72 574.81 2908.74 487.85"/>
        <polygon class="cls-1" points="3034.48 491.99 3013.02 578.95 3060.46 578.95 3034.48 491.99"/>
        <polygon class="cls-1" points="2971.61 556.74 2950.15 643.7 2997.59 643.7 2971.61 556.74"/>
      </g>
      <g>
        <polygon class="cls-1" points="3045.78 607.14 3024.32 694.11 3071.75 694.11 3045.78 607.14"/>
        <polygon class="cls-1" points="2995.33 677.79 2973.87 764.75 3021.31 764.75 2995.33 677.79"/>
        <polygon class="cls-1" points="3121.07 681.93 3099.61 768.9 3147.05 768.9 3121.07 681.93"/>
        <polygon class="cls-1" points="3058.2 746.68 3036.74 833.65 3084.18 833.65 3058.2 746.68"/>
      </g>
      <g>
        <polygon class="cls-1" points="2836.46 601.5 2815 688.46 2862.44 688.46 2836.46 601.5"/>
        <polygon class="cls-1" points="2786.01 672.14 2764.55 759.11 2811.99 759.11 2786.01 672.14"/>
        <polygon class="cls-1" points="2911.75 676.28 2890.3 763.25 2937.73 763.25 2911.75 676.28"/>
        <polygon class="cls-1" points="2848.88 741.04 2827.43 828 2874.86 828 2848.88 741.04"/>
      </g>
      <polygon class="cls-1" points="4714.22 652.28 4692.76 739.25 4740.2 739.25 4714.22 652.28"/>
      <polygon class="cls-1" points="4988.67 599.77 4967.21 686.73 5014.64 686.73 4988.67 599.77"/>
      <polygon class="cls-1" points="5647.13 886.86 5625.67 973.82 5673.1 973.82 5647.13 886.86"/>
      <polygon class="cls-1" points="5495.19 948.04 5473.73 1035 5521.17 1035 5495.19 948.04"/>
      <polygon class="cls-1" points="5291.88 898.91 5270.42 985.87 5317.85 985.87 5291.88 898.91"/>
      <polygon class="cls-1" points="6180.43 945.02 6158.97 1031.99 6206.4 1031.99 6180.43 945.02"/>
      <polygon class="cls-1" points="6246.84 901.54 6225.38 988.51 6272.82 988.51 6246.84 901.54"/>
      <polygon class="cls-1" points="6316.01 968.15 6294.55 1055.11 6341.99 1055.11 6316.01 968.15"/>
      <polygon class="cls-1" points="6193.01 832.86 6171.55 919.82 6218.99 919.82 6193.01 832.86"/>
    </g>
  </g>
</svg>