<?xml version="1.0" encoding="UTF-8"?>
<svg id="Layer_2" data-name="Layer 2" xmlns="http://www.w3.org/2000/svg" viewBox="0 0 317.47 372.09">
  <defs>
    <style>
      .cls-1 {
        fill: #fff;
      }

      .cls-2 {
        fill: #5f615f;
      }

      .cls-3 {
        fill: #1a2234;
      }

      .cls-4 {
        fill: #a77950;
      }

      .cls-5 {
        fill: #3d343a;
      }

      .cls-6 {
        fill: #a55648;
      }
    </style>
  </defs>
  <g id="Layer_2-2" data-name="Layer 2">
    <g id="Generative_Object_120_0_" data-name="Generative Object (120, 0)">
      <path class="cls-3" d="M266.81,286.78c-7.51,10.28-20.07,24.38-31.27,30.82-19.44,11.18-41.39,15.58-63.82,12.88l-31.76-5.93-63.97-13.54c-6.79-1.44-13.29-2.74-19.71-5.18-15.38-5.84-26.35-19.27-32.39-34.12-5.43-13.36-9.17-27.62-11.22-42.15-.7-4.97-.7-9.49-.73-14.31-.02-3.81,1-6.42,3.43-9.33l7.94-9.52,5.28-5.67-10.95-2.44c-3.54-.79-6.01-3.32-5.47-7.14l7-49.05c.29-2,2.03-3.34,3.23-4,1.81-.99,3.65-.55,5.52.25l31.76,13.63,18.85,8.32c1.74.77,3.16,2.7,3.18,4.71l.15,19.53,4.8,1.27-.13-19.44c-.01-1.96-1.05-3.86-.78-5.98.59-4.63.51-9.09.51-13.78,0-3.84.55-7.76-.49-11.5-2.84-10.25-11.4-15.57-4.48-22.44l4.83-4.79.17-25.59c.01-2.2,1.78-3.64,3.62-3.93,1.63-.27,4.8.42,4.85,2.74l.37,16.93c3.16-3.35,5.52-6.82,8.72-9.52,2.57-2.16,6.09-1.39,7.99,1.26,8.21,11.51,11.92,25.1,11.63,39.34-.09,4.24-1.18,7.59-4.22,10.63-8.45,8.44-16.43,17.05-24.27,26.15l-.02,23.53c14.05,5.16,15.19,21.82,21.18,26.99,3.07,2.65,6.84,4.64,10.68,5.78,5.21,1.55,10.44.76,15.97,1.2,20.92,1.69,41.25,4.33,62.29,8.47,1-9.78-3.77-19.01-12.08-24.23-2.58-1.62-3.67-4.36-2.71-7.11l4.14-11.94c2.43-7.02,3.71-14.2,3.76-21.77.04-6.85-2.42-13.16-6.72-18.37l-6.41-7.78c-2.36-2.87-2.25-6.27-.02-9.25l6.22-8.29c-2.91-2.2-5.96-4.72-7.18-8.13-.92-2.58-1.83-4.77-3.7-7.03-.86-1.04-1.87-3.46-1.87-4.88v-15.77c-.02-4.59,3.88-8.33,8.01-9.46l5.97-1.63.05-10.91c-7.42-4.18-14.01-8.91-19.55-15.13-7.24-8.13-2.33-18.17-2.41-19.47l-.64-10.95c-.19-3.32,1.24-6.78,4.09-8.66,3.3-2.17,7.55-1.02,9.97,1.84,2.55,3.02,4.76,5.82,7.7,8.72.52-1.88,1.48-2.44,3.43-3.04s6.47-.03,6.48,2.99l.14,46.04.15,8.27,4.23.92c2.74.6,5.19,1.36,7.6,3.16,2.68-3.23,7.31-3.43,10.26-.39,4.45,4.58,8.45,9.23,11.99,14.62,11.04,16.6,11.32,37.01,3.32,54.94,13.61,15.5,16.46,33.63,11.8,53.35-1.31,6.62-4.08,12.49-8.62,17.53l-6.28,9.05c10.9,1.95,21.31,4.39,32.23,7.89l40.84-33.23c1.92-1.56,4-1.28,5.93.01,1.71,1.15,2.96,3.86,1.85,6.04s-3.28,3.3-5.17,4.85l-31.69,26.01c4.22,1.03,6.47,3.65,5.9,7.5-2.62,17.63-8.98,34.48-19.28,48.57ZM192.9,44.79l-.04-21.46c-5.96-2.28-9.71-6.7-13.85-11.62.4,6.61.71,12.31-1.08,18.23,2.17,4.2,4.75,7.62,8.44,10.23l6.53,4.63ZM208.6,77.19c-2.65-2.08-5.91-2.54-9.32-2.51l-5.58.06c-2.32.03-5.15.99-6.47,3.05-.41.64.86,1.72,1.37,2.03,9.24,4.12,24.12.59,20.01-2.64ZM221.14,150.17l6.21-8.89c1.05-1.5,1.47-2.71,1.86-4.2,3-3.87,4.61-8.6,5.68-13.62,3.77-17.58-2.85-33.01-15.86-45.54l-.34,17.33c-2.08,4.57-5.52,8.04-10.08,9.79l-15.04,20.98,5.2,6.5c9.71,12.13,10.42,26.57,6.57,40.98,2.07-1.67,2.69-3.75,3.98-5.68l11.82-17.64ZM95.66,141.53c3.8-4.6,7.18-8.5,11.1-12.38,2.72-2.92,5.31-5.6,7.6-9.13.7-10.69-1.37-21.35-7.13-31.06-6.24,6.79-12.21,13.55-18.67,19.78l3.28,6.24c2.44,4.58,3.87,9.38,3.86,14.42l-.03,12.12ZM207.28,94.61c1.99-1.23,3.18-3.14,2.12-5.75-7.32,2.92-14.77,3.12-21.91.25-.69,2.07.18,3.34,1.55,4.5,5.15,4.34,12.55,4.52,18.24,1ZM72.84,192.89l.11-35.34-45.7-19.93-6.06,42.01,42.9,10.81,8.75,2.45ZM230.56,211.08c1.82-2.76,4.74-5.09,5.83-8.17,6.87-8.38,9.04-23.43,7.34-34.45-1.19-7.77-4.27-15.19-9.83-20.96l-30.76,45.7c14.07,12.75,12.77,29.48,8.45,47.11l9.62-15.04,9.34-14.19ZM34.74,219.92c8.56,2.46,34.13,9.5,38.51,7.11s7.35-6.81,10.61-10.46c1.79-2,2.75-4.07,2.75-6.93l.04-24.26c-1.58-.91-3.16-1.36-5.16-1.47l.09,13.42c.02,3.03-2.57,6.17-5.98,5.34l-33.49-8.17c-6.84-1.67-12.91,6.77-17.69,12.71-1.47,1.83-2.7,3.72-3.51,6.13,4.36,2.95,8.75,5.12,13.81,6.57ZM100.06,194.37c-1.77-2.78-2.56-4.81-5.24-6.02l.41,12.08,4.82-6.07ZM110.46,212.14c-2.64-2.54-4.09-5.14-6.33-7.91l-25.9,30.36,5.81,6.45,26.42-28.89ZM264.89,243.31c-1.99,1.76-5.01.59-6.26-.82-2.76-3.13-.46-5.76,2.26-8.96-9.78-3.26-19.54-5.57-29.98-6.18l-9.41,13.76c-3.26,4.76-6.25,9.47-10.09,13.78-2.58,2.9-6.26,4.07-9.9,2.12-1.77-1.19-3.08-3.63-2.49-5.78,1.89-6.93,3.7-13.58,4.87-20.96-19.62-4.22-39.21-7.07-59.21-8.31l-16.55-.27c-3.71-1.61-7.12-3.22-11.24-3.89l-16.66,18.33c-4.86,5.34-9.8,10.28-14.14,16.29,7.37,2.54,14.46,4.03,22.08,4.86,17.75,1.93,34.93,4.7,52.45,8.22,13.76,2.76,26.92,3.57,40.95,2.3,10.02-.91,19.62-1.37,29.45-3.33,11.83-2.37,24.28-6.46,33.74-13.72l11.69-11.45c-1.73-1.17-2.96-1.6-4.61-2.13l-6.95,6.15ZM76.06,245.35l-9.11-9.01c-1.04-1.03-2.49-1.45-3.86-1.72-11-2.16-21.8-4.37-32.6-7.27-3.21-.86-5.88-1.87-9.43-3.35.2,3.13,0,6.66,1.03,9.29,1.99,2.33,5.35,3.36,8.17,4.35,11.58,4.08,23.15,7.22,35.21,9.81,8.15,1.75,13.53.81,10.58-2.11ZM263.18,262.57c-10.02,5.26-19.75,8.44-30.42,10.47-16.4,3.12-32.85,4.35-49.58,3.47-9.63-.51-18.52-2.36-28.04-3.8l-40.76-6.14c-14.55-2.19-28.57-4.82-42.83-8.65l-22.59-5.89c-8.24-2.15-15.92-4.61-24.1-8.01,5.22,21.94,14.99,49.18,38.57,54.76,34.2,8.09,68.46,15.37,103.16,21.63l15.79,2.46c16.22.36,31.92-4.1,46.26-11.74,17.55-9.36,30.06-29.72,34.54-48.57ZM273.32,257.09c0-.25-.2-.45-.45-.45s-.45.2-.45.45.2.45.45.45.45-.2.45-.45Z"/>
      <path class="cls-2" d="M23.89,271.71c6.04,14.85,17.01,28.29,32.39,34.12,6.42,2.44,12.92,3.74,19.71,5.18l63.97,13.54,31.76,5.93c22.43,2.7,44.38-1.7,63.82-12.88,11.2-6.44,23.76-20.54,31.27-30.82-.06.21-.05.66.16.75,13.45,6.5,30.32,17.42,35.87,31.48,5.36,13.58-4.34,25.53-16.17,32.8-19.8,12.15-49.79,17.59-73.68,19.28-44.61,3.15-89.19-1.15-131.68-13.09-23.28-6.54-52.26-17.98-69.68-35.53-10.36-10.43-16.25-24.07-7.05-36.46,3.26-4.4,7.39-8.01,12.22-10.62l7.1-3.69Z"/>
      <path class="cls-6" d="M263.18,262.57c-4.48,18.85-16.99,39.22-34.54,48.57-14.33,7.64-30.04,12.1-46.26,11.74l-15.79-2.46c-34.71-6.26-68.97-13.54-103.16-21.63-23.58-5.58-33.34-32.82-38.57-54.76,8.18,3.39,15.86,5.86,24.1,8.01l22.59,5.89c14.26,3.83,28.28,6.46,42.83,8.65l40.76,6.14c9.53,1.43,18.41,3.29,28.04,3.8,16.73.88,33.18-.35,49.58-3.47,10.67-2.03,20.39-5.21,30.42-10.47ZM96.25,282.19c1.4-1.13,2.17-2.78,1.66-4.49-.47-1.57-2-2.64-3.71-2.97l-13.95-2.66c-2.15-.41-4.32,1.77-4.65,3.54-.39,2.11,1.09,4.25,3.32,4.72l11.88,2.5c1.99.42,3.78.71,5.44-.64ZM136.44,281.56l-15.87-3.25c-2.48-.51-4.94,0-5.71,2.49-.61,1.96.29,4.98,2.82,5.5l15.24,3.12c2.48.51,4.67-.01,5.77-2.28.89-1.82.42-5.04-2.24-5.58ZM171.3,296.83c2.71.6,4.91.32,6.34-1.98.85-1.37.92-5.17-1.36-5.61l-16.06-3.11c-1.98-.38-3.92,1.64-4.35,3.06-.51,1.65.1,4.22,2.06,4.66l13.37,2.98Z"/>
      <path class="cls-4" d="M264.89,243.31l6.95-6.15c1.65.52,2.88.95,4.61,2.13l-11.69,11.45c-9.46,7.26-21.91,11.35-33.74,13.72-9.82,1.96-19.42,2.42-29.45,3.33-14.03,1.28-27.19.46-40.95-2.3-17.53-3.51-34.7-6.29-52.45-8.22-7.63-.83-14.71-2.31-22.08-4.86,4.35-6.01,9.29-10.94,14.14-16.29l16.66-18.33c4.12.67,7.53,2.28,11.24,3.89l16.55.27c20,1.24,39.59,4.09,59.21,8.31-1.17,7.38-2.98,14.03-4.87,20.96-.59,2.16.72,4.59,2.49,5.78,3.64,1.95,7.32.78,9.9-2.12,3.84-4.31,6.82-9.02,10.09-13.78l9.41-13.76c10.44.61,20.2,2.92,29.98,6.18-2.72,3.2-5.02,5.83-2.26,8.96,1.25,1.41,4.27,2.58,6.26.82ZM125.72,249.23c2.35.21,3.96-.81,5.25-2.62l6.46-9.07c1.15-1.61-.03-3.7-1.56-4.57-1.43-.81-3.43-1.02-4.76.48-3.12,3.54-5.96,7.2-8.52,11.18-.69,1.07-.37,2.49.14,3.21.69.97,1.74,1.27,2.99,1.39Z"/>
      <path class="cls-1" d="M72.84,192.89l-8.75-2.45-42.9-10.81,6.06-42.01,45.7,19.93-.11,35.34ZM59.8,165.13c-.95-3.64-4.57-6.09-7.87-6.41-4.05-.4-7.61,1.27-9.43,4.96-1.28,2.59-.9,5.72.73,8.2,3.34,5.11,11.18,5.59,14.7,1.41,1.87-2.22,2.65-5.19,1.87-8.16Z"/>
      <path class="cls-4" d="M34.74,219.92c-5.07-1.46-9.45-3.63-13.81-6.57.81-2.42,2.03-4.3,3.51-6.13,4.77-5.94,10.85-14.38,17.69-12.71l33.49,8.17c3.4.83,6-2.32,5.98-5.34l-.09-13.42c2,.11,3.58.56,5.16,1.47l-.04,24.26c0,2.86-.96,4.93-2.75,6.93-3.26,3.65-6.1,7.99-10.61,10.46s-29.95-4.65-38.51-7.11Z"/>
      <path class="cls-1" d="M229.21,137.08c1.75-6.59,2.75-13.6,1.19-20.6-1.14-5.09-5.1-8.88-8.99-7.62-1.1.36-2.52,1.55-3.27,3.15-4.94,10.55-5.74,23.27-2.14,34.3.79,2.41,2.89,3.88,5.14,3.85l-11.82,17.64c-1.29,1.93-1.92,4-3.98,5.68,3.85-14.41,3.14-28.85-6.57-40.98l-5.2-6.5,15.04-20.98c4.57-1.75,8.01-5.22,10.08-9.79l.34-17.33c13.01,12.53,19.63,27.96,15.86,45.54-1.08,5.02-2.68,9.75-5.68,13.62Z"/>
      <path class="cls-1" d="M236.39,202.91c3.55-10.03,5.78-26.8-2.79-32.42-2.7-1.77-5.8-.75-7.35,1.88-5.38,9.11-5.61,25.13-1.99,35.3.99,2.78,3.6,4.17,6.3,3.41l-9.34,14.19-9.62,15.04c4.33-17.63,5.62-34.36-8.45-47.11l30.76-45.7c5.55,5.76,8.63,13.19,9.83,20.96,1.69,11.03-.48,26.07-7.34,34.45Z"/>
      <path class="cls-6" d="M76.06,245.35c2.95,2.92-2.43,3.86-10.58,2.11-12.06-2.59-23.63-5.74-35.21-9.81-2.82-.99-6.18-2.02-8.17-4.35-1.04-2.63-.83-6.16-1.03-9.29,3.55,1.48,6.23,2.49,9.43,3.35,10.8,2.9,21.6,5.11,32.6,7.27,1.37.27,2.82.69,3.86,1.72l9.11,9.01Z"/>
      <path class="cls-6" d="M236.39,202.91c-1.09,3.08-4.01,5.41-5.83,8.17-2.7.76-5.31-.63-6.3-3.41-3.62-10.17-3.39-26.19,1.99-35.3,1.56-2.64,4.65-3.65,7.35-1.88,8.57,5.61,6.34,22.38,2.79,32.42Z"/>
      <path class="cls-6" d="M229.21,137.08c-.4,1.49-.81,2.7-1.86,4.2l-6.21,8.89c-2.24.03-4.35-1.44-5.14-3.85-3.61-11.04-2.8-23.76,2.14-34.3.75-1.6,2.17-2.8,3.27-3.15,3.89-1.26,7.85,2.53,8.99,7.62,1.56,7,.56,14.01-1.19,20.6Z"/>
      <path class="cls-1" d="M95.66,141.53l.03-12.12c.01-5.04-1.41-9.84-3.86-14.42l-3.28-6.24c6.46-6.23,12.43-13,18.67-19.78,5.76,9.7,7.83,20.37,7.13,31.06-2.28,3.52-4.87,6.21-7.6,9.13-3.91,3.88-7.3,7.78-11.1,12.38ZM105.74,102.39c-7.9-.47-8.36,24.35-1.93,23.05,6.42-1.31,9.92-22.57,1.93-23.05Z"/>
      <path class="cls-6" d="M110.46,212.14l-26.42,28.89-5.81-6.45,25.9-30.36c2.23,2.77,3.69,5.38,6.33,7.91Z"/>
      <path class="cls-1" d="M192.9,44.79l-6.53-4.63c-3.69-2.61-6.27-6.03-8.44-10.23,1.79-5.92,1.48-11.62,1.08-18.23,4.14,4.92,7.9,9.34,13.85,11.62l.04,21.46ZM184.5,20.95c-.98-1.04-2.47-.32-3.31.3-3.21,2.37-.71,16.76,4.96,15.64,3.07-.61,3.44-10.55-1.65-15.94Z"/>
      <path class="cls-4" d="M208.6,77.19c4.11,3.23-10.77,6.75-20.01,2.64-.51-.3-1.78-1.39-1.37-2.03,1.32-2.07,4.15-3.03,6.47-3.05l5.58-.06c3.41-.04,6.68.43,9.32,2.51Z"/>
      <path class="cls-4" d="M207.28,94.61c-5.69,3.52-13.09,3.33-18.24-1-1.37-1.15-2.24-2.43-1.55-4.5,7.14,2.86,14.6,2.67,21.91-.25,1.06,2.61-.13,4.52-2.12,5.75Z"/>
      <path class="cls-4" d="M100.06,194.37l-4.82,6.07-.41-12.08c2.67,1.2,3.47,3.24,5.24,6.02Z"/>
      <circle class="cls-5" cx="272.87" cy="257.09" r=".45"/>
      <path class="cls-3" d="M136.44,281.56c2.66.54,3.13,3.76,2.24,5.58-1.1,2.26-3.29,2.79-5.77,2.28l-15.24-3.12c-2.53-.52-3.43-3.53-2.82-5.5.77-2.49,3.23-2.99,5.71-2.49l15.87,3.25Z"/>
      <path class="cls-3" d="M96.25,282.19c-1.66,1.35-3.45,1.06-5.44.64l-11.88-2.5c-2.24-.47-3.71-2.62-3.32-4.72.32-1.77,2.5-3.95,4.65-3.54l13.95,2.66c1.71.33,3.24,1.4,3.71,2.97.51,1.71-.26,3.36-1.66,4.49Z"/>
      <path class="cls-3" d="M171.3,296.83l-13.37-2.98c-1.96-.44-2.57-3.01-2.06-4.66.44-1.41,2.37-3.44,4.35-3.06l16.06,3.11c2.28.44,2.21,4.24,1.36,5.61-1.42,2.29-3.62,2.58-6.34,1.98Z"/>
      <path class="cls-3" d="M125.72,249.23c-1.25-.11-2.3-.42-2.99-1.39-.51-.72-.83-2.14-.14-3.21,2.56-3.99,5.4-7.64,8.52-11.18,1.33-1.51,3.33-1.29,4.76-.48,1.54.87,2.71,2.96,1.56,4.57l-6.46,9.07c-1.29,1.81-2.9,2.83-5.25,2.62Z"/>
      <path class="cls-6" d="M59.8,165.13c.78,2.97,0,5.94-1.87,8.16-3.52,4.18-11.36,3.7-14.7-1.41-1.63-2.49-2.01-5.61-.73-8.2,1.82-3.69,5.38-5.36,9.43-4.96,3.3.33,6.92,2.78,7.87,6.41Z"/>
      <path class="cls-6" d="M105.74,102.39c8,.47,4.5,21.74-1.93,23.05-6.43,1.31-5.97-23.52,1.93-23.05Z"/>
      <path class="cls-6" d="M184.5,20.95c5.09,5.39,4.72,15.33,1.65,15.94-5.66,1.12-8.17-13.27-4.96-15.64.84-.62,2.32-1.34,3.31-.3Z"/>
    </g>
  </g>
</svg>