<?xml version="1.0" encoding="UTF-8"?>
<svg id="Layer_2" xmlns="http://www.w3.org/2000/svg" version="1.1" viewBox="0 0 317.5 372.1">
  <!-- Generator: Adobe Illustrator 30.3.0, SVG Export Plug-In . SVG Version: 2.1.3 Build 182)  -->
  <defs>
    <style>
      .st0 {
        fill: #1a2234;
      }

      .st1 {
        fill: #fff;
      }

      .st2 {
        fill: #3d343a;
      }

      .st3 {
        fill: #a55648;
      }

      .st4 {
        fill: #a77950;
      }
    </style>
  </defs>
  <path class="st1" d="M208.6,105c4.6-1.8,8-5.2,10.1-9.8l.3-17.3c13,12.5,19.6,28,15.9,45.5-1.1,5-2.7,9.8-5.7,13.6-.4,1.5-.8,2.7-1.9,4.2l-6.2,8.9h0s-11.8,17.6-11.8,17.6c-1.3,1.9-1.9,4-4,5.7,3.9-14.4,3.1-28.8-6.6-41l-5.2-6.5,15-21Z"/>
  <path class="st1" d="M230.5,211.1l-9.3,14.2-9.6,15c4.3-17.6,5.6-34.4-8.4-47.1l30.8-45.7c5.6,5.8,8.6,13.2,9.8,21,1.7,11-.5,26.1-7.3,34.5-1.1,3.1-4,5.4-5.8,8.2h0Z"/>
  <g id="Layer_2-2">
    <g id="Generative_Object_120">
      <path class="st0" d="M266.8,286.8c-7.5,10.3-20.1,24.4-31.3,30.8-19.4,11.2-41.4,15.6-63.8,12.9l-31.8-5.9-64-13.5c-6.8-1.4-13.3-2.7-19.7-5.2-15.4-5.8-26.4-19.3-32.4-34.1-5.4-13.4-9.2-27.6-11.2-42.1-.7-5-.7-9.5-.7-14.3,0-3.8,1-6.4,3.4-9.3l7.9-9.5,5.3-5.7-11-2.4c-3.5-.8-6-3.3-5.5-7.1l7-49.1c.3-2,2-3.3,3.2-4,1.8-1,3.6-.6,5.5.2l31.8,13.6,18.8,8.3c1.7.8,3.2,2.7,3.2,4.7l.2,19.5,4.8,1.3v-19.4c-.1-2-1.2-3.9-.9-6,.6-4.6.5-9.1.5-13.8s.6-7.8-.5-11.5c-2.8-10.2-11.4-15.6-4.5-22.4l4.8-4.8.2-25.6c0-2.2,1.8-3.6,3.6-3.9,1.6-.3,4.8.4,4.8,2.7l.4,16.9c3.2-3.3,5.5-6.8,8.7-9.5,2.6-2.2,6.1-1.4,8,1.3,8.2,11.5,11.9,25.1,11.6,39.3,0,4.2-1.2,7.6-4.2,10.6-8.4,8.4-16.4,17.1-24.3,26.1v23.5c14,5.2,15.2,21.8,21.2,27,3.1,2.6,6.8,4.6,10.7,5.8,5.2,1.6,10.4.8,16,1.2,20.9,1.7,41.2,4.3,62.3,8.5,1-9.8-3.8-19-12.1-24.2-2.6-1.6-3.7-4.4-2.7-7.1l4.1-11.9c2.4-7,3.7-14.2,3.8-21.8,0-6.9-2.4-13.2-6.7-18.4l-6.4-7.8c-2.4-2.9-2.2-6.3,0-9.2l6.2-8.3c-2.9-2.2-6-4.7-7.2-8.1-.9-2.6-1.8-4.8-3.7-7-.9-1-1.9-3.5-1.9-4.9v-15.8c0-4.6,3.9-8.3,8-9.5l6-1.6v-10.9c-7.4-4.2-14-8.9-19.5-15.1-7.2-8.1-2.3-18.2-2.4-19.5l-.6-10.9c-.2-3.3,1.2-6.8,4.1-8.7,3.3-2.2,7.6-1,10,1.8,2.6,3,4.8,5.8,7.7,8.7.5-1.9,1.5-2.4,3.4-3s6.5,0,6.5,3v46c.1,0,.3,8.3.3,8.3l4.2.9c2.7.6,5.2,1.4,7.6,3.2,2.7-3.2,7.3-3.4,10.3-.4,4.4,4.6,8.4,9.2,12,14.6,11,16.6,11.3,37,3.3,54.9,13.6,15.5,16.5,33.6,11.8,53.4-1.3,6.6-4.1,12.5-8.6,17.5l-6.3,9.1c10.9,1.9,21.3,4.4,32.2,7.9l40.8-33.2c1.9-1.6,4-1.3,5.9,0,1.7,1.1,3,3.9,1.9,6s-3.3,3.3-5.2,4.9l-31.7,26c4.2,1,6.5,3.6,5.9,7.5-2.6,17.6-9,34.5-19.3,48.6h0ZM192.9,44.8v-21.5c-6-2.3-9.8-6.7-13.9-11.6.4,6.6.7,12.3-1.1,18.2,2.2,4.2,4.8,7.6,8.4,10.2l6.5,4.6h0ZM208.6,77.2c-2.6-2.1-5.9-2.5-9.3-2.5h-5.6c-2.3,0-5.1,1-6.5,3.1-.4.6.9,1.7,1.4,2,9.2,4.1,24.1.6,20-2.6h0ZM221.1,150.2l6.2-8.9c1.1-1.5,1.5-2.7,1.9-4.2,3-3.9,4.6-8.6,5.7-13.6,3.8-17.6-2.9-33-15.9-45.5l-.3,17.3c-2.1,4.6-5.5,8-10.1,9.8l-15,21,5.2,6.5c9.7,12.1,10.4,26.6,6.6,41,2.1-1.7,2.7-3.8,4-5.7l11.8-17.6h0ZM95.7,141.5c3.8-4.6,7.2-8.5,11.1-12.4,2.7-2.9,5.3-5.6,7.6-9.1.7-10.7-1.4-21.3-7.1-31.1-6.2,6.8-12.2,13.6-18.7,19.8l3.3,6.2c2.4,4.6,3.9,9.4,3.9,14.4v12.1s0,0,0,0ZM207.3,94.6c2-1.2,3.2-3.1,2.1-5.8-7.3,2.9-14.8,3.1-21.9.2-.7,2.1.2,3.3,1.6,4.5,5.1,4.3,12.6,4.5,18.2,1ZM72.8,192.9v-35.3c.1,0-45.6-19.9-45.6-19.9l-6.1,42,42.9,10.8,8.8,2.4h0ZM230.6,211.1c1.8-2.8,4.7-5.1,5.8-8.2,6.9-8.4,9-23.4,7.3-34.4-1.2-7.8-4.3-15.2-9.8-21l-30.8,45.7c14.1,12.8,12.8,29.5,8.4,47.1l9.6-15,9.3-14.2h0ZM34.7,219.9c8.6,2.5,34.1,9.5,38.5,7.1s7.3-6.8,10.6-10.5c1.8-2,2.8-4.1,2.8-6.9v-24.3c-1.5-.9-3.1-1.4-5.1-1.5v13.4c.1,3-2.5,6.2-5.9,5.3l-33.5-8.2c-6.8-1.7-12.9,6.8-17.7,12.7-1.5,1.8-2.7,3.7-3.5,6.1,4.4,2.9,8.8,5.1,13.8,6.6h0ZM100.1,194.4c-1.8-2.8-2.6-4.8-5.2-6l.4,12.1,4.8-6.1h0ZM110.5,212.1c-2.6-2.5-4.1-5.1-6.3-7.9l-25.9,30.4,5.8,6.4,26.4-28.9h0ZM264.9,243.3c-2,1.8-5,.6-6.3-.8-2.8-3.1-.5-5.8,2.3-9-9.8-3.3-19.5-5.6-30-6.2l-9.4,13.8c-3.3,4.8-6.2,9.5-10.1,13.8-2.6,2.9-6.3,4.1-9.9,2.1-1.8-1.2-3.1-3.6-2.5-5.8,1.9-6.9,3.7-13.6,4.9-21-19.6-4.2-39.2-7.1-59.2-8.3l-16.6-.3c-3.7-1.6-7.1-3.2-11.2-3.9l-16.7,18.3c-4.9,5.3-9.8,10.3-14.1,16.3,7.4,2.5,14.5,4,22.1,4.9,17.8,1.9,34.9,4.7,52.4,8.2,13.8,2.8,26.9,3.6,40.9,2.3,10-.9,19.6-1.4,29.4-3.3,11.8-2.4,24.3-6.5,33.7-13.7l11.7-11.4c-1.7-1.2-3-1.6-4.6-2.1l-7,6.1h0ZM76.1,245.4l-9.1-9c-1-1-2.5-1.4-3.9-1.7-11-2.2-21.8-4.4-32.6-7.3-3.2-.9-5.9-1.9-9.4-3.4.2,3.1,0,6.7,1,9.3,2,2.3,5.4,3.4,8.2,4.4,11.6,4.1,23.1,7.2,35.2,9.8,8.2,1.8,13.5.8,10.6-2.1h0ZM263.2,262.6c-10,5.3-19.8,8.4-30.4,10.5-16.4,3.1-32.8,4.4-49.6,3.5-9.6-.5-18.5-2.4-28-3.8l-40.8-6.1c-14.6-2.2-28.6-4.8-42.8-8.6l-22.6-5.9c-8.2-2.1-15.9-4.6-24.1-8,5.2,21.9,15,49.2,38.6,54.8,34.2,8.1,68.5,15.4,103.2,21.6l15.8,2.5c16.2.4,31.9-4.1,46.3-11.7,17.6-9.4,30.1-29.7,34.5-48.6h0ZM273.3,257.1c0-.2-.2-.5-.5-.5s-.5.2-.5.5.2.5.5.5.5-.2.5-.5Z"/>
      <path class="st0" d="M23.9,271.7c6,14.9,17,28.3,32.4,34.1,6.4,2.4,12.9,3.7,19.7,5.2l64,13.5,31.8,5.9c22.4,2.7,44.4-1.7,63.8-12.9,11.2-6.4,23.8-20.5,31.3-30.8,0,.2,0,.7.2.8,13.5,6.5,30.3,17.4,35.9,31.5,5.4,13.6-4.3,25.5-16.2,32.8-19.8,12.1-49.8,17.6-73.7,19.3-44.6,3.1-89.2-1.1-131.7-13.1-23.3-6.5-52.3-18-69.7-35.5-10.4-10.4-16.2-24.1-7.1-36.5,3.3-4.4,7.4-8,12.2-10.6l7.1-3.7h0Z"/>
      <path class="st3" d="M263.2,262.6c-4.5,18.9-17,39.2-34.5,48.6-14.3,7.6-30,12.1-46.3,11.7l-15.8-2.5c-34.7-6.3-69-13.5-103.2-21.6-23.6-5.6-33.3-32.8-38.6-54.8,8.2,3.4,15.9,5.9,24.1,8l22.6,5.9c14.3,3.8,28.3,6.5,42.8,8.6l40.8,6.1c9.5,1.4,18.4,3.3,28,3.8,16.7.9,33.2-.4,49.6-3.5,10.7-2,20.4-5.2,30.4-10.5h0ZM96.2,282.2c1.4-1.1,2.2-2.8,1.7-4.5-.5-1.6-2-2.6-3.7-3l-13.9-2.7c-2.2-.4-4.3,1.8-4.7,3.5-.4,2.1,1.1,4.2,3.3,4.7l11.9,2.5c2,.4,3.8.7,5.4-.6h0ZM136.4,281.6l-15.9-3.2c-2.5-.5-4.9,0-5.7,2.5-.6,2,.3,5,2.8,5.5l15.2,3.1c2.5.5,4.7,0,5.8-2.3.9-1.8.4-5-2.2-5.6h0ZM171.3,296.8c2.7.6,4.9.3,6.3-2,.9-1.4.9-5.2-1.4-5.6l-16.1-3.1c-2-.4-3.9,1.6-4.4,3.1-.5,1.6.1,4.2,2.1,4.7l13.4,3h0Z"/>
      <path class="st4" d="M264.9,243.3l7-6.1c1.6.5,2.9.9,4.6,2.1l-11.7,11.4c-9.5,7.3-21.9,11.3-33.7,13.7-9.8,2-19.4,2.4-29.4,3.3-14,1.3-27.2.5-40.9-2.3-17.5-3.5-34.7-6.3-52.4-8.2-7.6-.8-14.7-2.3-22.1-4.9,4.3-6,9.3-10.9,14.1-16.3l16.7-18.3c4.1.7,7.5,2.3,11.2,3.9l16.6.3c20,1.2,39.6,4.1,59.2,8.3-1.2,7.4-3,14-4.9,21-.6,2.2.7,4.6,2.5,5.8,3.6,2,7.3.8,9.9-2.1,3.8-4.3,6.8-9,10.1-13.8l9.4-13.8c10.4.6,20.2,2.9,30,6.2-2.7,3.2-5,5.8-2.3,9,1.2,1.4,4.3,2.6,6.3.8h0ZM125.7,249.2c2.4.2,4-.8,5.2-2.6l6.5-9.1c1.1-1.6,0-3.7-1.6-4.6-1.4-.8-3.4-1-4.8.5-3.1,3.5-6,7.2-8.5,11.2-.7,1.1-.4,2.5.1,3.2.7,1,1.7,1.3,3,1.4h0Z"/>
      <path class="st1" d="M72.9,192.9l-8.8-2.4-42.9-10.8,6.1-42,45.7,19.9v35.3q-.1,0-.1,0Z"/>
      <path class="st4" d="M34.7,219.9c-5.1-1.5-9.5-3.6-13.8-6.6.8-2.4,2-4.3,3.5-6.1,4.8-5.9,10.9-14.4,17.7-12.7l33.5,8.2c3.4.8,6-2.3,6-5.3v-13.4c1.9.1,3.5.6,5.1,1.5v24.3c0,2.9-1,4.9-2.8,6.9-3.3,3.6-6.1,8-10.6,10.5s-30-4.6-38.5-7.1h0Z"/>
      <path class="st3" d="M76.1,245.4c2.9,2.9-2.4,3.9-10.6,2.1-12.1-2.6-23.6-5.7-35.2-9.8-2.8-1-6.2-2-8.2-4.4-1-2.6-.8-6.2-1-9.3,3.5,1.5,6.2,2.5,9.4,3.4,10.8,2.9,21.6,5.1,32.6,7.3,1.4.3,2.8.7,3.9,1.7l9.1,9h0Z"/>
      <path class="st1" d="M95.7,141.5v-12.1c0-5-1.4-9.8-3.8-14.4l-3.3-6.2c6.5-6.2,12.4-13,18.7-19.8,5.8,9.7,7.8,20.4,7.1,31.1-2.3,3.5-4.9,6.2-7.6,9.1-3.9,3.9-7.3,7.8-11.1,12.4h0Z"/>
      <path class="st3" d="M110.5,212.1l-26.4,28.9-5.8-6.4,25.9-30.4c2.2,2.8,3.7,5.4,6.3,7.9h0Z"/>
      <path class="st1" d="M192.9,44.8l-6.5-4.6c-3.7-2.6-6.3-6-8.4-10.2,1.8-5.9,1.5-11.6,1.1-18.2,4.1,4.9,7.9,9.3,13.9,11.6v21.5s0,0,0,0Z"/>
      <path class="st4" d="M208.6,77.2c4.1,3.2-10.8,6.8-20,2.6-.5-.3-1.8-1.4-1.4-2,1.3-2.1,4.1-3,6.5-3.1h5.6c3.4,0,6.7.4,9.3,2.5h0Z"/>
      <path class="st4" d="M207.3,94.6c-5.7,3.5-13.1,3.3-18.2-1-1.4-1.2-2.2-2.4-1.6-4.5,7.1,2.9,14.6,2.7,21.9-.2,1.1,2.6-.1,4.5-2.1,5.8Z"/>
      <path class="st4" d="M100.1,194.4l-4.8,6.1-.4-12.1c2.7,1.2,3.5,3.2,5.2,6h0Z"/>
      <circle class="st2" cx="272.9" cy="257.1" r=".5"/>
      <path class="st0" d="M136.4,281.6c2.7.5,3.1,3.8,2.2,5.6-1.1,2.3-3.3,2.8-5.8,2.3l-15.2-3.1c-2.5-.5-3.4-3.5-2.8-5.5.8-2.5,3.2-3,5.7-2.5l15.9,3.2h0Z"/>
      <path class="st0" d="M96.2,282.2c-1.7,1.4-3.4,1.1-5.4.6l-11.9-2.5c-2.2-.5-3.7-2.6-3.3-4.7.3-1.8,2.5-4,4.7-3.5l13.9,2.7c1.7.3,3.2,1.4,3.7,3,.5,1.7-.3,3.4-1.7,4.5h0Z"/>
      <path class="st0" d="M171.3,296.8l-13.4-3c-2-.4-2.6-3-2.1-4.7.4-1.4,2.4-3.4,4.4-3.1l16.1,3.1c2.3.4,2.2,4.2,1.4,5.6-1.4,2.3-3.6,2.6-6.3,2h0Z"/>
      <path class="st0" d="M125.7,249.2c-1.2-.1-2.3-.4-3-1.4-.5-.7-.8-2.1-.1-3.2,2.6-4,5.4-7.6,8.5-11.2,1.3-1.5,3.3-1.3,4.8-.5,1.5.9,2.7,3,1.6,4.6l-6.5,9.1c-1.3,1.8-2.9,2.8-5.2,2.6h0Z"/>
    </g>
  </g>
  <polygon class="st3" points="44.9 182.5 37.2 164.4 49.3 148.7 56.9 166.9 44.9 182.5"/>
  <polygon class="st3" points="232.6 204.9 218.9 190.8 224.5 171.8 238.2 186.1 232.6 204.9"/>
  <polygon class="st3" points="222.9 143.4 209.3 129.2 214.9 110.2 228.6 124.5 222.9 143.4"/>
  <polygon class="st3" points="106.8 126.8 95.5 114.8 100.3 99 111.7 111 106.8 126.8"/>
</svg>