<?xml version="1.0" encoding="UTF-8"?>
<svg id="Layer_2" data-name="Layer 2" xmlns="http://www.w3.org/2000/svg" viewBox="0 0 255.79 368.4">
  <defs>
    <style>
      .cls-1 {
        fill: #fcecd5;
      }

      .cls-2 {
        fill: #fbfdea;
      }

      .cls-3 {
        fill: #1a2234;
      }

      .cls-4 {
        fill: #bfbfbf;
      }

      .cls-5 {
        fill: #a77950;
      }

      .cls-6 {
        fill: #60605f;
      }

      .cls-7 {
        fill: #a55648;
      }
    </style>
  </defs>
  <g id="Layer_2-2" data-name="Layer 2">
    <g id="Generative_Object_15_0_" data-name="Generative Object (15, 0)">
      <path class="cls-3" d="M222.15,236.65c-4.11,10.92-10.74,22.48-20.44,30.07l-33.98,26.6-23.05,17.45c-14.49,10.97-32.31,12.51-50.15,8.69-8.78-1.88-17.08-3.97-25.57-6.62-6.46-2.02-12.31-4.64-17.66-9.1-9.99-8.33-16.67-19.52-20.63-31.39-3.04-9.09-5.25-18.48-6.43-28.26-.34-2.84.91-5.53,3.1-7l5.47-3.68-19.94-13.83c-2.58-1.79-3.96-4.34-2.29-7.41,1.29-2.36,4.97-3.3,7.53-1.49l24.68,17.42c3.93-3.3,7.8-5.36,12.21-8.02l-20.24-6.33c-4.87-1.83-7.62-6.09-8.88-11.01-4.8-18.75-1.38-41.87,7.24-59.36-7.21-14.7-3.87-37.4,1.55-52.46,2.25-6.27,4.72-12,8-17.76,3.57-6.26,9.14-2.11,16.84,1.86l14.46,7.48.44-14.01c.23-7.36,6.02-9.26,12.98-10.88l.17-53.85c0-2.06,2.2-3.06,3.41-3.49,1.73-.6,3.96-.19,5.43,1.1,4.51,3.92,10.09,5.82,16.06,5.94,6.48.13,12.66.02,18.95.8,7.19.89,13.37,5.3,14.99,12.62,1.22,5.49-2.74,11.01.56,20.62.77,2.25.55,4.49-.73,6.43-3.71,5.61-8.2.88-17.7-.48-10.56-1.51-21.02-1.6-31.57.7l-.09,8.53c9.49,1.24,18.08,3.84,17.13,13.83l.1,11.72c.02,2.61-1.25,4.62-2.21,6.81l-.89,5.22,13.3,3.58c-.06-13.26,1.72-26.28,6.92-38.45.97-2.26,2.09-4.74,4.17-5.87,2.48-1.34,4.75,0,6.93.91l16.48,6.9-.02-17.96c0-2.33,1.98-3.74,4.27-3.49,2.27-.4,4.85,1.04,4.86,3.41l.07,21.21,19.34,5.56c1.78.51,3.33,1.72,3.95,2.86.97,1.8.77,3.92.27,5.85-1.83,7.01-4.05,13.72-4.4,21l13.12-10.93c1.8-1.5,3.6-3.55,6.05-3.92,3.73-.57,6.53,2.63,7.23,6.26l8.42,44.06c.72,3.78.1,6.7-3.52,8.74l-11.71,6.59,19.33,7.21c2.78,1.04,6.31,2.74,7.55,5.59,1.62,3.71.96,7.93.78,11.88-.86,19.3-5.69,44.16-12.24,61.54ZM137.45,24.48c.39-4.01-3.41-6.86-7.02-6.92l-16.73-.35c-5.87-.28-11.43-1.26-17.09-4.11l.3,24.93c13.67-2.26,26.51-1.89,39.5,1.31-.66-5.27.54-9.85,1.03-14.87ZM144.21,102.11l21.02,7.62,12.31,4.53.32-11.76c.23-8.35,1.77-16.21,4.19-24.34l-12.41-3.77-19.37-6.29-10.96-4.1c-4.21,10.85-6.23,22.17-5.65,33.89,3.42,1.99,7.05,2.96,10.55,4.23ZM102.42,71.14c.91-.26,3-1.55,2.47-2.41-2.22-3-6.3-3.96-9.83-3.82l-5.26.2c-2.74.11-5.42.78-7.05,3.39,3.8,4.16,13.7,4.34,19.67,2.63ZM102.99,83.89c1.45-1.14,2.31-2.78,1.84-4.63-7.46,2.81-14.95,3.23-22.07.51-.48,1.32-.73,3.23.2,4.01,6.63,5.54,13.32,5.37,20.03.11ZM95.98,157.12l6.22,2.1,34.2,11.17c-6.6-15.62-8.32-31.7-3.53-47.5l4.14-11.88-30.39-8.87-11.62-3.28-5.99-1.42-8.6-2.26c-2.1-.55-4.12-.83-6.07-1.71l-4.22-1.92c-6.83-3.88-13.37-7.55-20.78-11.06-3.62,7.94-7.09,15.45-8.95,23.84-2.15,9.72-3.04,19.46-1.02,29.01.53,2.52,1.99,5.32,4.3,6.12l17.24,5.96,35.04,11.71ZM195.52,104.5l-8.92,7.57.86,5.15c.47,2.86-.38,5.67-2.94,7.17s-5.62.3-8.84-1.04l-.05,34.86,10.08-5.8,4-2.07,12.86-7.7,10.76-6.7-7.6-40.01-10.2,8.57ZM155.89,141.13l-.02-24.81-9.3-3.36-3.34,8.38c-3.43,8.61-4.64,17.68-3.36,27.09,4.74-4.51,9.79-6.38,16.02-7.3ZM219.85,163.77l-19.11-6.64c-1.47-.51-3.26-1.04-4.56-.28l-4.33,2.53c-5.64,3.29-11.27,6.26-16.83,9.78-1.77,1.12-3.81,1.07-5.36.09-1.35-.85-2.58-2.25-2.58-4.3l-.05-43.97c-.54-.74-2.1-1.31-3.1-1.02l.13,52.79c0,2.36.09,4.37.76,6.52,8.87,3.3,30.91,11.25,36.71,7.25l8.72-6.02c5.34-3.69,10.37-7.53,14.76-12.71-1.22-2.01-3.08-3.3-5.17-4.02ZM66.52,213.88l29.9,9.12,36.01,11.24c-2.6-10.45-3.4-20.3-3.07-30.63.27-8.26,1.27-16.19,4.75-23.93l-34.92-11.74-32.05-10.59-25.96-8.53c-7.5,14.14-9.82,35.71-6.33,50.95.76,3.33,2.74,4.88,5.8,5.85l20.83,6.64,5.05,1.62ZM147.45,172.25l8.13,2.26.34-24.24c-7.93.28-10.23,3.61-13.98,9.23l5.51,12.75ZM202.33,206.79c8.43-5.64,15.85-12.01,23.26-18.68l.83-9.66c-6.9,5.76-13.48,10.64-21.09,14.61-1.51.79-2.44,2.3-3.12,3.78l-5.22,11.39c1.84.76,3.53-.21,5.35-1.43ZM192.57,196.59l-35.35-11.54-12.75-3.91c-2.11,3.38-3.56,6.77-4.52,10.34l48.48,14.17,4.14-9.06ZM49.62,233.47l8.04,6.12c2.37,1.79,3.86,4.78,2.13,7.52s-5.98,2.93-8.42.57c-3.26-3.15-6.63-5.91-10.42-8.16l-6.51,4.15c-.37.23-.67.78-.57,1.03s.44.7.81.92c10.84,6.23,22.54,10.11,34.68,13.08,10.14,2.48,20.07,3.81,30.73,3.22,11.38-.63,32.19-3.92,40.48-10.07,12.74-9.46,25.5-18.33,38.91-26.69,3.93-2.45,7.31-5.17,10.01-9.02.44-.62-1.48-1.66-2.25-1.89l-48.66-14.43c-.5,4.55-.17,8.91.12,13.28,5.5,1.55,10.65,3.27,15.21,6.48,1.01.71.84,2.25.32,3.02-2.26,3.35-9.36,1.09-14.75-.69.75,4.67,1.62,9.09,3.49,13.26,1.12,2.5.77,5.13-.85,7.05s-4.05,2.75-6.61,2.13l-9.25-2.27-31.27-9.58-.19,11.48c-.04,2.27-3.1,2.81-5.03,2.41-1.46-.3-3.59-1.72-3.6-3.71l-.11-13.01-13.74-4.3c-5.35-1.67-16.68,4.2-22.7,8.08ZM87.63,306.25c2.29,1.37,4.09,2.44,6.52,3.04,11.76,4.26,24.5,4.43,36.32.23,13.78-9.36,26.53-19.26,39.62-29.4l29.03-23.01c10.21-8.09,17.43-29.47,20.31-42.56l3.04-13.81-9.25,8.08-26.06,20.7-39.28,27.77c-19.91,14.08-53.62,16.34-77.88,10.78,2.12,15.34,6.45,27.71,17.65,38.18ZM63.56,282.64l-3.26-16.3c-1.16-.92-2.58-1.45-4.03-1.93-6.83-2.25-13.3-4.6-20.44-7.67,1.84,10.91,5.93,21.11,12.11,30.15l4.87,5.81c5.26,6.28,12.38,10.24,20.83,11.67-5.13-6.64-8.47-13.68-10.08-21.74Z"/>
      <path class="cls-6" d="M30.68,272.35c3.96,11.87,10.64,23.06,20.63,31.39,5.35,4.46,11.2,7.08,17.66,9.1,8.48,2.65,16.78,4.74,25.57,6.62,17.84,3.82,35.66,2.27,50.15-8.69l23.05-17.45,33.98-26.6c9.7-7.59,16.32-19.14,20.44-30.07,20.85,6.65,38.85,24.48,32.25,47.86-4.58,16.23-16.99,29.72-30.64,40.1-13.02,9.91-27.03,17.83-42.04,24.12-39.64,16.59-89.88,25.37-133.01,15.56-14.39-3.27-31.25-10.22-40.74-21.68-7.64-9.22-9.94-20.92-6.28-32.41,4.61-14.45,16.74-26.98,28.82-36.52.27-.22.2-1.03.15-1.33Z"/>
      <path class="cls-7" d="M87.63,306.25c-11.19-10.47-15.52-22.84-17.65-38.18,24.26,5.56,57.97,3.29,77.88-10.78l39.28-27.77,26.06-20.7,9.25-8.08-3.04,13.81c-2.88,13.09-10.1,34.47-20.31,42.56l-29.03,23.01c-13.1,10.14-25.84,20.04-39.62,29.4-11.81,4.21-24.56,4.04-36.32-.23-2.43-.6-4.23-1.66-6.52-3.04ZM191.97,246.63l8.65-6.37c1.65-1.22,2.7-3.96,1.25-5.66-1.23-1.45-4.47-2.44-5.93-1.37l-8,5.88c-1.63,1.2-3.13,2.59-2.23,5.03.72,1.95,4.24,3.97,6.26,2.48ZM179.51,253.46c1.63-1.36,1.73-3.72,1.07-5.08-.56-1.14-3.33-3.06-4.75-2.02l-11.08,8.14c-2.13,1.56-2.64,4.52-1,6.45s4.38,2,6.36.35l9.4-7.83ZM153.78,274.76c2.02-1.33,3.58-3.71,2.48-6.25-.76-1.76-4.21-3.09-5.99-1.88l-9.12,6.19c-1.72,1.17-2.15,3.87-1.13,5.47s3.67,3.15,5.54,1.91l8.22-5.44Z"/>
      <path class="cls-5" d="M49.62,233.47c6.02-3.88,17.35-9.75,22.7-8.08l13.74,4.3.11,13.01c.02,1.99,2.14,3.41,3.6,3.71,1.94.4,5-.14,5.03-2.41l.19-11.48,31.27,9.58,9.25,2.27c2.55.63,4.98-.21,6.61-2.13s1.98-4.55.85-7.05c-1.87-4.17-2.74-8.59-3.49-13.26,5.39,1.78,12.49,4.03,14.75.69.52-.77.7-2.3-.32-3.02-4.55-3.21-9.71-4.93-15.21-6.48-.29-4.37-.62-8.72-.12-13.28l48.66,14.43c.76.23,2.68,1.27,2.25,1.89-2.7,3.85-6.08,6.57-10.01,9.02-13.41,8.36-26.17,17.22-38.91,26.69-8.28,6.16-29.1,9.44-40.48,10.07-10.66.59-20.59-.74-30.73-3.22-12.15-2.98-23.84-6.86-34.68-13.08-.37-.21-.72-.67-.81-.92s.21-.8.57-1.03l6.51-4.15c3.79,2.25,7.16,5.01,10.42,8.16,2.44,2.36,6.71,2.15,8.42-.57s.24-5.73-2.13-7.52l-8.04-6.12Z"/>
      <path class="cls-1" d="M96.42,223c.21-.62.18-1.15.04-1.93l-1.38-7.86c-.89-8.89-.99-17.62-.4-26.46.44-6.53,1.61-12.85,4.51-18.81l34.92,11.74c-3.47,7.74-4.48,15.67-4.75,23.93-.33,10.33.47,20.18,3.07,30.63l-36.01-11.24Z"/>
      <path class="cls-7" d="M80.44,95.17c-.28.36-.2.75.31.87l8.3,1.9,4.59,1.38c.66.2,1.32.02,1.39-.46l11.62,3.28c-2.69,6.81-3.72,13.56-4.13,20.72-.69,11.86-.53,23.47,2.15,35.14-.22.59-1.86.58-2.2.34l-6.52-2.04-25.83-8.83c-5.02-17.56-3.57-36.32,4.08-52.86.1-.22.64-.43.59-.56-.08-.2-.48-.43-.42-.58,1.95.88,3.97,1.16,6.07,1.71Z"/>
      <path class="cls-7" d="M99.19,167.94c-2.89,5.96-4.07,12.28-4.51,18.81-.59,8.84-.49,17.58.4,26.46l1.38,7.86c.14.77.16,1.31-.04,1.93l-29.9-9.12c.08-1.25-2.07-.98-4.04-2.53-4.87-17.61-3.19-37.93,4.66-54.01l32.05,10.59Z"/>
      <path class="cls-1" d="M102.21,159.22l.25-.89c.33.24,1.97.24,2.2-.34-2.68-11.66-2.84-23.28-2.15-35.14.42-7.16,1.44-13.91,4.13-20.72l30.39,8.87-4.14,11.88c-4.8,15.8-3.07,31.88,3.53,47.5l-34.2-11.17Z"/>
      <path class="cls-1" d="M74.37,93.46c-.06.16.33.38.42.58.05.13-.49.34-.59.56-7.65,16.54-9.1,35.3-4.08,52.86l25.83,8.83.04.83-35.04-11.71-17.24-5.96c-2.32-.8-3.77-3.61-4.3-6.12-2.02-9.55-1.13-19.29,1.02-29.01,1.86-8.39,5.34-15.9,8.95-23.84,7.41,3.51,13.95,7.18,20.78,11.06l4.22,1.92Z"/>
      <path class="cls-1" d="M67.14,157.35c-7.85,16.08-9.53,36.4-4.66,54.01,1.98,1.55,4.12,1.28,4.04,2.53l-5.05-1.62-20.83-6.64c-3.05-.97-5.04-2.52-5.8-5.85-3.49-15.24-1.16-36.81,6.33-50.95l25.96,8.53Z"/>
      <path class="cls-5" d="M219.85,163.77c2.09.73,3.95,2.02,5.17,4.02-4.4,5.17-9.42,9.02-14.76,12.71l-8.72,6.02c-5.8,4.01-27.83-3.95-36.71-7.25-.68-2.15-.76-4.16-.76-6.52l-.13-52.79c1-.3,2.56.28,3.1,1.02l.05,43.97c0,2.05,1.23,3.46,2.58,4.3,1.55.98,3.59,1.03,5.36-.09,5.56-3.52,11.19-6.49,16.83-9.78l4.33-2.53c1.3-.76,3.1-.23,4.56.28l19.11,6.64Z"/>
      <path class="cls-7" d="M137.45,24.48c-.49,5.02-1.69,9.6-1.03,14.87-13-3.2-25.84-3.57-39.5-1.31l-.3-24.93c5.66,2.84,11.22,3.83,17.09,4.11l16.73.35c3.61.06,7.41,2.9,7.02,6.92Z"/>
      <path class="cls-7" d="M169.63,74.38c-2.25,4.98-3.39,10.12-3.95,15.71-.67,6.63-1.11,13.01-.46,19.63l-21.02-7.62c-1.36-12.5-.13-23.31,6.06-34.02l19.37,6.29Z"/>
      <path class="cls-7" d="M63.56,282.64c1.61,8.06,4.95,15.1,10.08,21.74-8.45-1.43-15.57-5.39-20.83-11.67l-4.87-5.81c-6.18-9.04-10.26-19.24-12.11-30.15,7.14,3.07,13.61,5.42,20.44,7.67,1.45.48,2.88,1,4.03,1.93l3.26,16.3Z"/>
      <path class="cls-7" d="M195.52,104.5c.66.38.81,1.1.94,1.84l5.91,33.4c.19,1.05.32,1.94.18,2.9l-12.86,7.7-4,2.07c-.97-.98-.47-2.31-.49-3.49l-.7-24.54c2.56-1.5,3.42-4.32,2.94-7.17l-.86-5.15,8.92-7.57Z"/>
      <path class="cls-7" d="M192.57,196.59l-4.14,9.06-48.48-14.17c.96-3.56,2.41-6.96,4.52-10.34l12.75,3.91,35.35,11.54Z"/>
      <path class="cls-1" d="M165.22,109.73c-.65-6.62-.21-13,.46-19.63.57-5.59,1.7-10.73,3.95-15.71l12.41,3.77c-2.43,8.12-3.97,15.99-4.19,24.34l-.32,11.76-12.31-4.53Z"/>
      <path class="cls-1" d="M202.56,142.65c.14-.97,0-1.86-.18-2.9l-5.91-33.4c-.13-.74-.28-1.46-.94-1.84l10.2-8.57,7.6,40.01-10.76,6.7Z"/>
      <path class="cls-1" d="M150.26,68.09c-6.19,10.71-7.41,21.52-6.06,34.02-3.5-1.27-7.13-2.25-10.55-4.23-.58-11.72,1.44-23.03,5.65-33.89l10.96,4.1Z"/>
      <path class="cls-1" d="M184.52,124.4l.7,24.54c.03,1.17-.48,2.51.49,3.49l-10.08,5.8.05-34.86c3.22,1.34,6.3,2.53,8.84,1.04Z"/>
      <path class="cls-7" d="M202.33,206.79c-1.82,1.22-3.5,2.19-5.35,1.43l5.22-11.39c.68-1.48,1.6-2.99,3.12-3.78,7.61-3.97,14.19-8.85,21.09-14.61l-.83,9.66c-7.4,6.67-14.83,13.05-23.26,18.68Z"/>
      <path class="cls-5" d="M147.45,172.25l-5.51-12.75c3.75-5.62,6.05-8.95,13.98-9.23l-.34,24.24-8.13-2.26Z"/>
      <path class="cls-5" d="M102.42,71.14c-5.97,1.71-15.87,1.53-19.67-2.63,1.62-2.61,4.31-3.29,7.05-3.39l5.26-.2c3.53-.14,7.61.82,9.83,3.82.53.86-1.56,2.15-2.47,2.41Z"/>
      <path class="cls-5" d="M102.99,83.89c-6.71,5.26-13.4,5.43-20.03-.11-.93-.78-.68-2.69-.2-4.01,7.11,2.72,14.6,2.3,22.07-.51.48,1.85-.38,3.49-1.84,4.63Z"/>
      <path class="cls-4" d="M89.03,97.43v.5s-8.29-1.9-8.29-1.9c-.51-.12-.58-.51-.31-.87l8.6,2.26Z"/>
      <polygon class="cls-2" points="102.46 158.33 102.21 159.22 95.98 157.12 95.94 156.29 102.46 158.33"/>
      <path class="cls-4" d="M95.02,98.85c-.07.48-.73.66-1.39.46l-4.59-1.38v-.5s5.98,1.42,5.98,1.42Z"/>
      <path class="cls-3" d="M179.51,253.46l-9.4,7.83c-1.98,1.65-4.77,1.53-6.36-.35s-1.12-4.89,1-6.45l11.08-8.14c1.42-1.04,4.18.88,4.75,2.02.67,1.36.57,3.72-1.07,5.08Z"/>
      <path class="cls-3" d="M153.78,274.76l-8.22,5.44c-1.88,1.24-4.54-.33-5.54-1.91s-.59-4.31,1.13-5.47l9.12-6.19c1.78-1.21,5.24.12,5.99,1.88,1.1,2.55-.46,4.92-2.48,6.25Z"/>
      <path class="cls-3" d="M191.97,246.63c-2.02,1.49-5.54-.53-6.26-2.48-.9-2.44.6-3.83,2.23-5.03l8-5.88c1.46-1.07,4.69-.08,5.93,1.37,1.45,1.7.4,4.45-1.25,5.66l-8.65,6.37Z"/>
    </g>
  </g>
</svg>