<svg xmlns="http://www.w3.org/2000/svg" xmlns:xlink="http://www.w3.org/1999/xlink" width="1476" zoomAndPan="magnify" viewBox="0 0 1107 1586.999935" height="2116" preserveAspectRatio="xMidYMid meet" version="1.0"><defs><clipPath id="5ae71282a1"><path d="M 98 734 L 745 734 L 745 1587 L 98 1587 Z M 98 734 " clip-rule="nonzero"/></clipPath><clipPath id="cf8b6ffb55"><path d="M 363.117188 734.765625 L 744.128906 877.035156 L 479.039062 1586.96875 L 98.027344 1444.699219 Z M 363.117188 734.765625 " clip-rule="nonzero"/></clipPath><clipPath id="2d24bb98bb"><path d="M 744.128906 877.035156 L 479.105469 1586.792969 L 335.347656 1390.457031 L 98.09375 1444.527344 L 363.117188 734.765625 Z M 744.128906 877.035156 " clip-rule="nonzero"/></clipPath><clipPath id="cefdf3b452"><path d="M 0 0.640625 L 646.238281 0.640625 L 646.238281 852.878906 L 0 852.878906 Z M 0 0.640625 " clip-rule="nonzero"/></clipPath><clipPath id="5b39818a0d"><path d="M 265.117188 0.765625 L 646.128906 143.035156 L 381.039062 852.96875 L 0.0273438 710.699219 Z M 265.117188 0.765625 " clip-rule="nonzero"/></clipPath><clipPath id="d0f56cedff"><path d="M 646.128906 143.035156 L 381.105469 852.792969 L 237.347656 656.457031 L 0.09375 710.527344 L 265.117188 0.765625 Z M 646.128906 143.035156 " clip-rule="nonzero"/></clipPath><clipPath id="58268ac73c"><rect x="0" width="647" y="0" height="853"/></clipPath><clipPath id="bcc0cafb71"><path d="M 421 734 L 1058 734 L 1058 1585 L 421 1585 Z M 421 734 " clip-rule="nonzero"/></clipPath><clipPath id="0c95512f90"><path d="M 421.113281 870.644531 L 804.449219 734.761719 L 1057.636719 1449.027344 L 674.300781 1584.90625 Z M 421.113281 870.644531 " clip-rule="nonzero"/></clipPath><clipPath id="6d83f8ce4c"><path d="M 804.449219 734.761719 L 1057.574219 1448.851562 L 821.253906 1390.828125 L 674.238281 1584.734375 L 421.113281 870.644531 Z M 804.449219 734.761719 " clip-rule="nonzero"/></clipPath><clipPath id="73d381cf82"><path d="M 0 0.640625 L 636.679688 0.640625 L 636.679688 850.960938 L 0 850.960938 Z M 0 0.640625 " clip-rule="nonzero"/></clipPath><clipPath id="50e37a8f24"><path d="M 0.113281 136.644531 L 383.449219 0.761719 L 636.636719 715.027344 L 253.300781 850.90625 Z M 0.113281 136.644531 " clip-rule="nonzero"/></clipPath><clipPath id="81689d84f5"><path d="M 383.449219 0.761719 L 636.574219 714.851562 L 400.253906 656.828125 L 253.238281 850.734375 L 0.113281 136.644531 Z M 383.449219 0.761719 " clip-rule="nonzero"/></clipPath><clipPath id="f9da67f421"><rect x="0" width="637" y="0" height="851"/></clipPath><clipPath id="04c9d36ff3"><path d="M 0 0 L 1106.726562 0 L 1106.726562 1106.726562 L 0 1106.726562 Z M 0 0 " clip-rule="nonzero"/></clipPath><clipPath id="1db4a7508a"><path d="M 553.363281 0 L 631.269531 61.46875 L 724.359375 27.082031 L 779.460938 109.617188 L 878.621094 105.683594 L 905.519531 201.203125 L 1001.042969 228.105469 L 997.109375 327.265625 L 1079.640625 382.363281 L 1045.257812 475.453125 L 1106.726562 553.363281 L 1045.257812 631.269531 L 1079.640625 724.359375 L 997.109375 779.460938 L 1001.042969 878.621094 L 905.519531 905.519531 L 878.621094 1001.042969 L 779.460938 997.109375 L 724.359375 1079.640625 L 631.269531 1045.257812 L 553.363281 1106.726562 L 475.453125 1045.257812 L 382.363281 1079.640625 L 327.265625 997.109375 L 228.105469 1001.042969 L 201.203125 905.519531 L 105.683594 878.621094 L 109.617188 779.460938 L 27.082031 724.359375 L 61.46875 631.269531 L 0 553.363281 L 61.46875 475.453125 L 27.082031 382.363281 L 109.617188 327.265625 L 105.683594 228.105469 L 201.203125 201.203125 L 228.105469 105.683594 L 327.265625 109.617188 L 382.363281 27.082031 L 475.453125 61.46875 Z M 553.363281 0 " clip-rule="nonzero"/></clipPath><clipPath id="2afbccb46c"><path d="M 0 0 L 1106.726562 0 L 1106.726562 1106.726562 L 0 1106.726562 Z M 0 0 " clip-rule="nonzero"/></clipPath><clipPath id="c34a97f3cd"><path d="M 553.363281 0 L 631.269531 61.46875 L 724.359375 27.082031 L 779.460938 109.617188 L 878.621094 105.683594 L 905.519531 201.203125 L 1001.042969 228.105469 L 997.109375 327.265625 L 1079.640625 382.363281 L 1045.257812 475.453125 L 1106.726562 553.363281 L 1045.257812 631.269531 L 1079.640625 724.359375 L 997.109375 779.460938 L 1001.042969 878.621094 L 905.519531 905.519531 L 878.621094 1001.042969 L 779.460938 997.109375 L 724.359375 1079.640625 L 631.269531 1045.257812 L 553.363281 1106.726562 L 475.453125 1045.257812 L 382.363281 1079.640625 L 327.265625 997.109375 L 228.105469 1001.042969 L 201.203125 905.519531 L 105.683594 878.621094 L 109.617188 779.460938 L 27.082031 724.359375 L 61.46875 631.269531 L 0 553.363281 L 61.46875 475.453125 L 27.082031 382.363281 L 109.617188 327.265625 L 105.683594 228.105469 L 201.203125 201.203125 L 228.105469 105.683594 L 327.265625 109.617188 L 382.363281 27.082031 L 475.453125 61.46875 Z M 553.363281 0 " clip-rule="nonzero"/></clipPath><clipPath id="45d7544001"><rect x="0" width="1107" y="0" height="1107"/></clipPath><clipPath id="57ecd56ffd"><path d="M 108.777344 108.777344 L 997.949219 108.777344 L 997.949219 997.949219 L 108.777344 997.949219 Z M 108.777344 108.777344 " clip-rule="nonzero"/></clipPath><clipPath id="b6e08c9f7f"><path d="M 553.363281 108.777344 C 307.824219 108.777344 108.777344 307.824219 108.777344 553.363281 C 108.777344 798.902344 307.824219 997.949219 553.363281 997.949219 C 798.902344 997.949219 997.949219 798.902344 997.949219 553.363281 C 997.949219 307.824219 798.902344 108.777344 553.363281 108.777344 Z M 553.363281 108.777344 " clip-rule="nonzero"/></clipPath><clipPath id="5c18ce09fe"><path d="M 0.777344 0.777344 L 889.949219 0.777344 L 889.949219 889.949219 L 0.777344 889.949219 Z M 0.777344 0.777344 " clip-rule="nonzero"/></clipPath><clipPath id="831dba6e2d"><path d="M 445.363281 0.777344 C 199.824219 0.777344 0.777344 199.824219 0.777344 445.363281 C 0.777344 690.902344 199.824219 889.949219 445.363281 889.949219 C 690.902344 889.949219 889.949219 690.902344 889.949219 445.363281 C 889.949219 199.824219 690.902344 0.777344 445.363281 0.777344 Z M 445.363281 0.777344 " clip-rule="nonzero"/></clipPath><clipPath id="4248a86d25"><rect x="0" width="890" y="0" height="890"/></clipPath><clipPath id="d1de018163"><path d="M 172.40625 172.40625 L 934.316406 172.40625 L 934.316406 934.316406 L 172.40625 934.316406 Z M 172.40625 172.40625 " clip-rule="nonzero"/></clipPath><clipPath id="a3190dc854"><path d="M 553.363281 172.40625 C 342.96875 172.40625 172.40625 342.96875 172.40625 553.363281 C 172.40625 763.757812 342.96875 934.316406 553.363281 934.316406 C 763.757812 934.316406 934.316406 763.757812 934.316406 553.363281 C 934.316406 342.96875 763.757812 172.40625 553.363281 172.40625 Z M 553.363281 172.40625 " clip-rule="nonzero"/></clipPath><clipPath id="3ae8cec884"><path d="M 0.40625 0.40625 L 762.316406 0.40625 L 762.316406 762.316406 L 0.40625 762.316406 Z M 0.40625 0.40625 " clip-rule="nonzero"/></clipPath><clipPath id="e2d62d4d66"><path d="M 381.363281 0.40625 C 170.96875 0.40625 0.40625 170.96875 0.40625 381.363281 C 0.40625 591.757812 170.96875 762.316406 381.363281 762.316406 C 591.757812 762.316406 762.316406 591.757812 762.316406 381.363281 C 762.316406 170.96875 591.757812 0.40625 381.363281 0.40625 Z M 381.363281 0.40625 " clip-rule="nonzero"/></clipPath><clipPath id="c0731cdf29"><rect x="0" width="763" y="0" height="763"/></clipPath></defs><g clip-path="url(#5ae71282a1)"><g clip-path="url(#cf8b6ffb55)"><g clip-path="url(#2d24bb98bb)"><g transform="matrix(1, 0, 0, 1, 98, 734)"><g clip-path="url(#58268ac73c)"><g clip-path="url(#cefdf3b452)"><g clip-path="url(#5b39818a0d)"><g clip-path="url(#d0f56cedff)"><path fill="#486c37" d="M 265.117188 0.765625 L 646.128906 143.035156 L 381.039062 852.96875 L 0.0273438 710.699219 Z M 265.117188 0.765625 " fill-opacity="1" fill-rule="nonzero"/></g></g></g></g></g></g></g></g><g clip-path="url(#bcc0cafb71)"><g clip-path="url(#0c95512f90)"><g clip-path="url(#6d83f8ce4c)"><g transform="matrix(1, 0, 0, 1, 421, 734)"><g clip-path="url(#f9da67f421)"><g clip-path="url(#73d381cf82)"><g clip-path="url(#50e37a8f24)"><g clip-path="url(#81689d84f5)"><path fill="#789d53" d="M 0.113281 136.644531 L 383.449219 0.761719 L 636.636719 715.027344 L 253.300781 850.90625 Z M 0.113281 136.644531 " fill-opacity="1" fill-rule="nonzero"/></g></g></g></g></g></g></g></g><g clip-path="url(#04c9d36ff3)"><g clip-path="url(#1db4a7508a)"><g transform="matrix(1, 0, 0, 1, 0, 0.000000000000033588)"><g clip-path="url(#45d7544001)"><g clip-path="url(#2afbccb46c)"><g clip-path="url(#c34a97f3cd)"><path fill="#486c37" d="M 0 0 L 1106.726562 0 L 1106.726562 1106.726562 L 0 1106.726562 Z M 0 0 " fill-opacity="1" fill-rule="nonzero"/></g></g></g></g></g></g><g clip-path="url(#57ecd56ffd)"><g clip-path="url(#b6e08c9f7f)"><g transform="matrix(1, 0, 0, 1, 108, 108)"><g clip-path="url(#4248a86d25)"><g clip-path="url(#5c18ce09fe)"><g clip-path="url(#831dba6e2d)"><path fill="#789d53" d="M 0.777344 0.777344 L 889.949219 0.777344 L 889.949219 889.949219 L 0.777344 889.949219 Z M 0.777344 0.777344 " fill-opacity="1" fill-rule="nonzero"/></g></g></g></g></g></g><g clip-path="url(#d1de018163)"><g clip-path="url(#a3190dc854)"><g transform="matrix(1, 0, 0, 1, 172, 172)"><g clip-path="url(#c0731cdf29)"><g clip-path="url(#3ae8cec884)"><g clip-path="url(#e2d62d4d66)"><path fill="#486c37" d="M 0.40625 0.40625 L 762.316406 0.40625 L 762.316406 762.316406 L 0.40625 762.316406 Z M 0.40625 0.40625 " fill-opacity="1" fill-rule="nonzero"/></g></g></g></g></g></g></svg>