<svg xmlns="http://www.w3.org/2000/svg" xmlns:xlink="http://www.w3.org/1999/xlink" width="2120" zoomAndPan="magnify" viewBox="0 0 1590 1586.999935" height="2116" preserveAspectRatio="xMidYMid meet" version="1.0"><defs><clipPath id="f81f109f1f"><path d="M 765.851562 0 L 1589.351562 0 L 1589.351562 1587 L 765.851562 1587 Z M 765.851562 0 " clip-rule="nonzero"/></clipPath><clipPath id="d1b5141b55"><path d="M 0 0 L 790.5 0 L 790.5 1587 L 0 1587 Z M 0 0 " clip-rule="nonzero"/></clipPath><clipPath id="aa67f3160e"><path d="M 2.621094 682.503906 L 1589.621094 682.503906 L 1589.621094 1587 L 2.621094 1587 Z M 2.621094 682.503906 " clip-rule="nonzero"/></clipPath></defs><g clip-path="url(#f81f109f1f)"><path fill="#789d53" d="M 796.015625 0 C 357.664062 0 2.621094 355.042969 2.621094 793.394531 C 2.621094 1231.746094 357.664062 1586.789062 796.015625 1586.789062 C 1234.367188 1586.789062 1589.410156 1231.746094 1589.410156 793.394531 C 1589.410156 355.042969 1234.367188 0 796.015625 0 Z M 796.015625 1428.109375 C 446.128906 1428.109375 161.300781 1143.28125 161.300781 793.394531 C 161.300781 443.507812 446.128906 158.679688 796.015625 158.679688 C 1145.902344 158.679688 1430.730469 443.507812 1430.730469 793.394531 C 1430.730469 1143.28125 1145.902344 1428.109375 796.015625 1428.109375 Z M 796.015625 1428.109375 " fill-opacity="1" fill-rule="nonzero"/></g><g clip-path="url(#d1b5141b55)"><path fill="#486c37" d="M 793.394531 0 C 355.042969 0 0 355.042969 0 793.394531 C 0 1231.746094 355.042969 1586.789062 793.394531 1586.789062 C 1231.746094 1586.789062 1586.789062 1231.746094 1586.789062 793.394531 C 1586.789062 355.042969 1231.746094 0 793.394531 0 Z M 793.394531 1428.109375 C 443.507812 1428.109375 158.679688 1143.28125 158.679688 793.394531 C 158.679688 443.507812 443.507812 158.679688 793.394531 158.679688 C 1143.28125 158.679688 1428.109375 443.507812 1428.109375 793.394531 C 1428.109375 1143.28125 1143.28125 1428.109375 793.394531 1428.109375 Z M 793.394531 1428.109375 " fill-opacity="1" fill-rule="nonzero"/></g><g clip-path="url(#aa67f3160e)"><path fill="#486c37" d="M 796.015625 0 C 357.664062 0 2.621094 355.042969 2.621094 793.394531 C 2.621094 1231.746094 357.664062 1586.789062 796.015625 1586.789062 C 1234.367188 1586.789062 1589.410156 1231.746094 1589.410156 793.394531 C 1589.410156 355.042969 1234.367188 0 796.015625 0 Z M 796.015625 1428.109375 C 446.128906 1428.109375 161.300781 1143.28125 161.300781 793.394531 C 161.300781 443.507812 446.128906 158.679688 796.015625 158.679688 C 1145.902344 158.679688 1430.730469 443.507812 1430.730469 793.394531 C 1430.730469 1143.28125 1145.902344 1428.109375 796.015625 1428.109375 Z M 796.015625 1428.109375 " fill-opacity="1" fill-rule="nonzero"/></g></svg>