<svg xmlns="http://www.w3.org/2000/svg" xmlns:xlink="http://www.w3.org/1999/xlink" width="1686" zoomAndPan="magnify" viewBox="0 0 1264.5 1376.999942" height="1836" preserveAspectRatio="xMidYMid meet" version="1.0"><defs><clipPath id="bf45834d78"><path d="M 804.746094 0.273438 L 1165.769531 0.273438 L 1165.769531 361.296875 L 804.746094 361.296875 Z M 804.746094 0.273438 " clip-rule="nonzero"/></clipPath><clipPath id="ca07aa15cc"><path d="M 985.257812 0.273438 C 885.5625 0.273438 804.746094 81.089844 804.746094 180.785156 C 804.746094 280.480469 885.5625 361.296875 985.257812 361.296875 C 1084.953125 361.296875 1165.769531 280.480469 1165.769531 180.785156 C 1165.769531 81.089844 1084.953125 0.273438 985.257812 0.273438 Z M 985.257812 0.273438 " clip-rule="nonzero"/></clipPath><clipPath id="db01892fbc"><path d="M 0.746094 0.273438 L 361.769531 0.273438 L 361.769531 361.296875 L 0.746094 361.296875 Z M 0.746094 0.273438 " clip-rule="nonzero"/></clipPath><clipPath id="5f3d9903a8"><path d="M 181.257812 0.273438 C 81.5625 0.273438 0.746094 81.089844 0.746094 180.785156 C 0.746094 280.480469 81.5625 361.296875 181.257812 361.296875 C 280.953125 361.296875 361.769531 280.480469 361.769531 180.785156 C 361.769531 81.089844 280.953125 0.273438 181.257812 0.273438 Z M 181.257812 0.273438 " clip-rule="nonzero"/></clipPath><clipPath id="8b52b9a494"><rect x="0" width="362" y="0" height="362"/></clipPath><clipPath id="0687b3d1f9"><path d="M 0 420 L 557 420 L 557 734.097656 L 0 734.097656 Z M 0 420 " clip-rule="nonzero"/></clipPath><clipPath id="69d3da2e09"><path d="M 185.738281 431.40625 C 214.199219 425.113281 246.75 420.980469 278.609375 420.980469 C 310.464844 420.980469 341.121094 424.523438 369.375 430.816406 C 369.976562 431.011719 370.574219 431.011719 371.175781 431.210938 C 477.269531 456.386719 555.414062 522.871094 556.914062 597.652344 L 556.914062 734.097656 L 0 734.097656 L 0 597.753906 C 1.503906 522.476562 78.441406 455.992188 185.738281 431.40625 Z M 185.738281 431.40625 " clip-rule="nonzero"/></clipPath><clipPath id="bd3b8cfa2a"><path d="M 0 0.824219 L 557 0.824219 L 557 314.097656 L 0 314.097656 Z M 0 0.824219 " clip-rule="nonzero"/></clipPath><clipPath id="0eb05386f9"><path d="M 185.738281 11.40625 C 214.199219 5.113281 246.75 0.980469 278.609375 0.980469 C 310.464844 0.980469 341.121094 4.523438 369.375 10.816406 C 369.976562 11.011719 370.574219 11.011719 371.175781 11.210938 C 477.269531 36.386719 555.414062 102.871094 556.914062 177.652344 L 556.914062 314.097656 L 0 314.097656 L 0 177.753906 C 1.503906 102.476562 78.441406 35.992188 185.738281 11.40625 Z M 185.738281 11.40625 " clip-rule="nonzero"/></clipPath><clipPath id="fae3b2246a"><rect x="0" width="557" y="0" height="315"/></clipPath><clipPath id="15c76b00f0"><path d="M 97.945312 0.273438 L 458.96875 0.273438 L 458.96875 361.296875 L 97.945312 361.296875 Z M 97.945312 0.273438 " clip-rule="nonzero"/></clipPath><clipPath id="a15a558909"><path d="M 278.457031 0.273438 C 178.765625 0.273438 97.945312 81.089844 97.945312 180.785156 C 97.945312 280.480469 178.765625 361.296875 278.457031 361.296875 C 378.152344 361.296875 458.96875 280.480469 458.96875 180.785156 C 458.96875 81.089844 378.152344 0.273438 278.457031 0.273438 Z M 278.457031 0.273438 " clip-rule="nonzero"/></clipPath><clipPath id="b0caa45aa5"><path d="M 0.945312 0.273438 L 361.96875 0.273438 L 361.96875 361.296875 L 0.945312 361.296875 Z M 0.945312 0.273438 " clip-rule="nonzero"/></clipPath><clipPath id="fdbbd4493e"><path d="M 181.457031 0.273438 C 81.765625 0.273438 0.945312 81.089844 0.945312 180.785156 C 0.945312 280.480469 81.765625 361.296875 181.457031 361.296875 C 281.152344 361.296875 361.96875 280.480469 361.96875 180.785156 C 361.96875 81.089844 281.152344 0.273438 181.457031 0.273438 Z M 181.457031 0.273438 " clip-rule="nonzero"/></clipPath><clipPath id="0bd749d7e8"><rect x="0" width="362" y="0" height="362"/></clipPath><clipPath id="0c29fadf54"><path d="M 706.800781 420 L 1264 420 L 1264 734.097656 L 706.800781 734.097656 Z M 706.800781 420 " clip-rule="nonzero"/></clipPath><clipPath id="c51f308fd5"><path d="M 892.539062 431.40625 C 921 425.113281 953.550781 420.980469 985.40625 420.980469 C 1017.265625 420.980469 1047.921875 424.523438 1076.171875 430.816406 C 1076.773438 431.011719 1077.375 431.011719 1077.976562 431.210938 C 1184.070312 456.386719 1262.214844 522.871094 1263.714844 597.652344 L 1263.714844 734.097656 L 706.800781 734.097656 L 706.800781 597.753906 C 708.300781 522.476562 785.242188 455.992188 892.539062 431.40625 Z M 892.539062 431.40625 " clip-rule="nonzero"/></clipPath><clipPath id="36a4b9efec"><path d="M 0.800781 0.824219 L 557.820312 0.824219 L 557.820312 314.097656 L 0.800781 314.097656 Z M 0.800781 0.824219 " clip-rule="nonzero"/></clipPath><clipPath id="7d59b5d0e1"><path d="M 186.539062 11.40625 C 215 5.113281 247.550781 0.980469 279.40625 0.980469 C 311.265625 0.980469 341.921875 4.523438 370.171875 10.816406 C 370.773438 11.011719 371.375 11.011719 371.976562 11.210938 C 478.070312 36.386719 556.214844 102.871094 557.714844 177.652344 L 557.714844 314.097656 L 0.800781 314.097656 L 0.800781 177.753906 C 2.300781 102.476562 79.242188 35.992188 186.539062 11.40625 Z M 186.539062 11.40625 " clip-rule="nonzero"/></clipPath><clipPath id="20eed9a935"><rect x="0" width="558" y="0" height="315"/></clipPath><clipPath id="7a08ec2d6c"><path d="M 509.230469 865.113281 L 754.484375 865.113281 L 754.484375 1110.371094 L 509.230469 1110.371094 Z M 509.230469 865.113281 " clip-rule="nonzero"/></clipPath><clipPath id="513f925195"><path d="M 631.859375 865.113281 C 564.132812 865.113281 509.230469 920.015625 509.230469 987.742188 C 509.230469 1055.46875 564.132812 1110.371094 631.859375 1110.371094 C 699.582031 1110.371094 754.484375 1055.46875 754.484375 987.742188 C 754.484375 920.015625 699.582031 865.113281 631.859375 865.113281 Z M 631.859375 865.113281 " clip-rule="nonzero"/></clipPath><clipPath id="33f6595153"><path d="M 0.230469 0.113281 L 245.484375 0.113281 L 245.484375 245.371094 L 0.230469 245.371094 Z M 0.230469 0.113281 " clip-rule="nonzero"/></clipPath><clipPath id="2ed1752e9b"><path d="M 122.859375 0.113281 C 55.132812 0.113281 0.230469 55.015625 0.230469 122.742188 C 0.230469 190.46875 55.132812 245.371094 122.859375 245.371094 C 190.582031 245.371094 245.484375 190.46875 245.484375 122.742188 C 245.484375 55.015625 190.582031 0.113281 122.859375 0.113281 Z M 122.859375 0.113281 " clip-rule="nonzero"/></clipPath><clipPath id="46371bc015"><rect x="0" width="246" y="0" height="246"/></clipPath><clipPath id="3746c4c13e"><path d="M 433.851562 1154 L 830 1154 L 830 1376.726562 L 433.851562 1376.726562 Z M 433.851562 1154 " clip-rule="nonzero"/></clipPath><clipPath id="18b807a1b9"><path d="M 565.925781 1161.492188 C 586.164062 1157.015625 609.3125 1154.078125 631.964844 1154.078125 C 654.617188 1154.078125 676.417969 1156.597656 696.503906 1161.070312 C 696.933594 1161.210938 697.359375 1161.210938 697.789062 1161.351562 C 773.230469 1179.253906 828.792969 1226.527344 829.863281 1279.703125 L 829.863281 1376.726562 L 433.851562 1376.726562 L 433.851562 1279.777344 C 434.921875 1226.25 489.632812 1178.972656 565.925781 1161.492188 Z M 565.925781 1161.492188 " clip-rule="nonzero"/></clipPath><clipPath id="8e6299f456"><path d="M 0.851562 0 L 397 0 L 397 222.726562 L 0.851562 222.726562 Z M 0.851562 0 " clip-rule="nonzero"/></clipPath><clipPath id="d9b6b55fb6"><path d="M 132.925781 7.492188 C 153.164062 3.015625 176.3125 0.078125 198.964844 0.078125 C 221.617188 0.078125 243.417969 2.597656 263.503906 7.070312 C 263.933594 7.210938 264.359375 7.210938 264.789062 7.351562 C 340.230469 25.253906 395.792969 72.527344 396.863281 125.703125 L 396.863281 222.726562 L 0.851562 222.726562 L 0.851562 125.777344 C 1.921875 72.25 56.632812 24.972656 132.925781 7.492188 Z M 132.925781 7.492188 " clip-rule="nonzero"/></clipPath><clipPath id="b3b84864c8"><rect x="0" width="397" y="0" height="223"/></clipPath><clipPath id="cd8e9bdb4a"><path d="M 75.378906 865.113281 L 320.632812 865.113281 L 320.632812 1110.371094 L 75.378906 1110.371094 Z M 75.378906 865.113281 " clip-rule="nonzero"/></clipPath><clipPath id="182ae197b2"><path d="M 198.003906 865.113281 C 130.28125 865.113281 75.378906 920.015625 75.378906 987.742188 C 75.378906 1055.46875 130.28125 1110.371094 198.003906 1110.371094 C 265.730469 1110.371094 320.632812 1055.46875 320.632812 987.742188 C 320.632812 920.015625 265.730469 865.113281 198.003906 865.113281 Z M 198.003906 865.113281 " clip-rule="nonzero"/></clipPath><clipPath id="1b49b0423e"><path d="M 0.378906 0.113281 L 245.632812 0.113281 L 245.632812 245.371094 L 0.378906 245.371094 Z M 0.378906 0.113281 " clip-rule="nonzero"/></clipPath><clipPath id="16f184d54e"><path d="M 123.003906 0.113281 C 55.28125 0.113281 0.378906 55.015625 0.378906 122.742188 C 0.378906 190.46875 55.28125 245.371094 123.003906 245.371094 C 190.730469 245.371094 245.632812 190.46875 245.632812 122.742188 C 245.632812 55.015625 190.730469 0.113281 123.003906 0.113281 Z M 123.003906 0.113281 " clip-rule="nonzero"/></clipPath><clipPath id="aa4deb258b"><rect x="0" width="246" y="0" height="246"/></clipPath><clipPath id="b50bc434dd"><path d="M 0 1154 L 396.59375 1154 L 396.59375 1376.726562 L 0 1376.726562 Z M 0 1154 " clip-rule="nonzero"/></clipPath><clipPath id="9501372fbe"><path d="M 132.074219 1161.492188 C 152.3125 1157.015625 175.457031 1154.078125 198.113281 1154.078125 C 220.765625 1154.078125 242.566406 1156.597656 262.652344 1161.070312 C 263.082031 1161.210938 263.507812 1161.210938 263.9375 1161.351562 C 339.375 1179.253906 394.941406 1226.527344 396.011719 1279.703125 L 396.011719 1376.726562 L 0 1376.726562 L 0 1279.777344 C 1.070312 1226.25 55.777344 1178.972656 132.074219 1161.492188 Z M 132.074219 1161.492188 " clip-rule="nonzero"/></clipPath><clipPath id="3572452ad8"><path d="M 0 0 L 396 0 L 396 222.726562 L 0 222.726562 Z M 0 0 " clip-rule="nonzero"/></clipPath><clipPath id="3741f4669c"><path d="M 132.074219 7.492188 C 152.3125 3.015625 175.457031 0.078125 198.113281 0.078125 C 220.765625 0.078125 242.566406 2.597656 262.652344 7.070312 C 263.082031 7.210938 263.507812 7.210938 263.9375 7.351562 C 339.375 25.253906 394.941406 72.527344 396.011719 125.703125 L 396.011719 222.726562 L 0 222.726562 L 0 125.777344 C 1.070312 72.25 55.777344 24.972656 132.074219 7.492188 Z M 132.074219 7.492188 " clip-rule="nonzero"/></clipPath><clipPath id="29bf22ece8"><rect x="0" width="397" y="0" height="223"/></clipPath></defs><g clip-path="url(#bf45834d78)"><g clip-path="url(#ca07aa15cc)"><g transform="matrix(1, 0, 0, 1, 804, -0.000000000000054845)"><g clip-path="url(#8b52b9a494)"><g clip-path="url(#db01892fbc)"><g clip-path="url(#5f3d9903a8)"><path fill="#5b92e3" d="M 0.746094 0.273438 L 361.769531 0.273438 L 361.769531 361.296875 L 0.746094 361.296875 Z M 0.746094 0.273438 " fill-opacity="1" fill-rule="nonzero"/></g></g></g></g></g></g><g clip-path="url(#0687b3d1f9)"><g clip-path="url(#69d3da2e09)"><g transform="matrix(1, 0, 0, 1, 0, 420)"><g clip-path="url(#fae3b2246a)"><g clip-path="url(#bd3b8cfa2a)"><g clip-path="url(#0eb05386f9)"><path fill="#5b92e3" d="M 0 0.980469 L 556.511719 0.980469 L 556.511719 314.097656 L 0 314.097656 Z M 0 0.980469 " fill-opacity="1" fill-rule="nonzero"/></g></g></g></g></g></g><g clip-path="url(#15c76b00f0)"><g clip-path="url(#a15a558909)"><g transform="matrix(1, 0, 0, 1, 97, -0.000000000000054845)"><g clip-path="url(#0bd749d7e8)"><g clip-path="url(#b0caa45aa5)"><g clip-path="url(#fdbbd4493e)"><path fill="#5b92e3" d="M 0.945312 0.273438 L 361.96875 0.273438 L 361.96875 361.296875 L 0.945312 361.296875 Z M 0.945312 0.273438 " fill-opacity="1" fill-rule="nonzero"/></g></g></g></g></g></g><g clip-path="url(#0c29fadf54)"><g clip-path="url(#c51f308fd5)"><g transform="matrix(1, 0, 0, 1, 706, 420)"><g clip-path="url(#20eed9a935)"><g clip-path="url(#36a4b9efec)"><g clip-path="url(#7d59b5d0e1)"><path fill="#5b92e3" d="M 0.800781 0.980469 L 557.3125 0.980469 L 557.3125 314.097656 L 0.800781 314.097656 Z M 0.800781 0.980469 " fill-opacity="1" fill-rule="nonzero"/></g></g></g></g></g></g><g clip-path="url(#7a08ec2d6c)"><g clip-path="url(#513f925195)"><g transform="matrix(1, 0, 0, 1, 509, 865)"><g clip-path="url(#46371bc015)"><g clip-path="url(#33f6595153)"><g clip-path="url(#2ed1752e9b)"><path fill="#2e4279" d="M 0.230469 0.113281 L 245.484375 0.113281 L 245.484375 245.371094 L 0.230469 245.371094 Z M 0.230469 0.113281 " fill-opacity="1" fill-rule="nonzero"/></g></g></g></g></g></g><g clip-path="url(#3746c4c13e)"><g clip-path="url(#18b807a1b9)"><g transform="matrix(1, 0, 0, 1, 433, 1154)"><g clip-path="url(#b3b84864c8)"><g clip-path="url(#8e6299f456)"><g clip-path="url(#d9b6b55fb6)"><path fill="#2e4279" d="M 0.851562 0.078125 L 396.578125 0.078125 L 396.578125 222.726562 L 0.851562 222.726562 Z M 0.851562 0.078125 " fill-opacity="1" fill-rule="nonzero"/></g></g></g></g></g></g><g clip-path="url(#cd8e9bdb4a)"><g clip-path="url(#182ae197b2)"><g transform="matrix(1, 0, 0, 1, 75, 865)"><g clip-path="url(#aa4deb258b)"><g clip-path="url(#1b49b0423e)"><g clip-path="url(#16f184d54e)"><path fill="#2e4279" d="M 0.378906 0.113281 L 245.632812 0.113281 L 245.632812 245.371094 L 0.378906 245.371094 Z M 0.378906 0.113281 " fill-opacity="1" fill-rule="nonzero"/></g></g></g></g></g></g><g clip-path="url(#b50bc434dd)"><g clip-path="url(#9501372fbe)"><g transform="matrix(1, 0, 0, 1, 0, 1154)"><g clip-path="url(#29bf22ece8)"><g clip-path="url(#3572452ad8)"><g clip-path="url(#3741f4669c)"><path fill="#2e4279" d="M 0 0.078125 L 395.722656 0.078125 L 395.722656 222.726562 L 0 222.726562 Z M 0 0.078125 " fill-opacity="1" fill-rule="nonzero"/></g></g></g></g></g></g><g clip-path="url(#b678f4dde0)"><g clip-path="url(#1a9df5bfd1)"><g transform="matrix(1, 0, 0, 1, 943, 865)"><g clip-path="url(#58dd44f4b8)"><g clip-path="url(#eb4733168f)"><g clip-path="url(#2ab33ef16d)"><path fill="#2e4279" d="M 0.0820312 0.113281 L 245.339844 0.113281 L 245.339844 245.371094 L 0.0820312 245.371094 Z M 0.0820312 0.113281 " fill-opacity="1" fill-rule="nonzero"/></g></g></g></g></g></g><g clip-path="url(#93fbc9abbc)"><g clip-path="url(#5c72f5c84a)"><g transform="matrix(1, 0, 0, 1, 867, 1154)"><g clip-path="url(#8c708085bc)"><g clip-path="url(#db714ab884)"><g clip-path="url(#8a65b6616e)"><path fill="#2e4279" d="M 0.703125 0.078125 L 396.429688 0.078125 L 396.429688 222.726562 L 0.703125 222.726562 Z M 0.703125 0.078125 " fill-opacity="1" fill-rule="nonzero"/></g></g></g></g></g></g></svg>