<svg xmlns="http://www.w3.org/2000/svg" xmlns:xlink="http://www.w3.org/1999/xlink" width="2116" zoomAndPan="magnify" viewBox="0 0 1586.88 1324.49996" height="1766" preserveAspectRatio="xMidYMid meet" version="1.0"><defs><clipPath id="24c1079b60"><path d="M 0.238281 0 L 1344 0 L 1344 938.804688 L 0.238281 938.804688 Z M 0.238281 0 " clip-rule="nonzero"/></clipPath><clipPath id="d76bb5cc45"><path d="M 75.210938 0 L 1268.964844 0 C 1310.371094 0 1343.9375 33.566406 1343.9375 74.972656 L 1343.9375 863.835938 C 1343.9375 905.238281 1310.371094 938.804688 1268.964844 938.804688 L 75.210938 938.804688 C 33.804688 938.804688 0.238281 905.238281 0.238281 863.835938 L 0.238281 74.972656 C 0.238281 33.566406 33.804688 0 75.210938 0 Z M 75.210938 0 " clip-rule="nonzero"/></clipPath><clipPath id="ede27b5f89"><path d="M 0.238281 0 L 1343 0 L 1343 938.804688 L 0.238281 938.804688 Z M 0.238281 0 " clip-rule="nonzero"/></clipPath><clipPath id="5618a57cd3"><path d="M 75.210938 0 L 1268.964844 0 C 1310.371094 0 1343.9375 33.566406 1343.9375 74.972656 L 1343.9375 863.835938 C 1343.9375 905.238281 1310.371094 938.804688 1268.964844 938.804688 L 75.210938 938.804688 C 33.804688 938.804688 0.238281 905.238281 0.238281 863.835938 L 0.238281 74.972656 C 0.238281 33.566406 33.804688 0 75.210938 0 Z M 75.210938 0 " clip-rule="nonzero"/></clipPath><clipPath id="a82f7fe543"><rect x="0" width="1344" y="0" height="939"/></clipPath><clipPath id="6b0d36fb60"><path d="M 107.972656 690.734375 L 463.152344 690.734375 L 463.152344 1187 L 107.972656 1187 Z M 107.972656 690.734375 " clip-rule="nonzero"/></clipPath><clipPath id="5c7bf6ff86"><path d="M 463.152344 938.808594 L 107.972656 1186.882812 L 107.972656 690.734375 Z M 463.152344 938.808594 " clip-rule="nonzero"/></clipPath><clipPath id="1dada90b50"><path d="M 0.972656 0.734375 L 356.152344 0.734375 L 356.152344 497 L 0.972656 497 Z M 0.972656 0.734375 " clip-rule="nonzero"/></clipPath><clipPath id="5e23055954"><path d="M 356.152344 248.808594 L 0.972656 496.882812 L 0.972656 0.734375 Z M 356.152344 248.808594 " clip-rule="nonzero"/></clipPath><clipPath id="13b4c60b4d"><rect x="0" width="357" y="0" height="497"/></clipPath><clipPath id="e5100d493b"><path d="M 745 482 L 1586.519531 482 L 1586.519531 1323.871094 L 745 1323.871094 Z M 745 482 " clip-rule="nonzero"/></clipPath><clipPath id="f6cfed73b0"><path d="M 851 768.191406 L 1329.945312 768.191406 L 1329.945312 1197 L 851 1197 Z M 851 768.191406 " clip-rule="nonzero"/></clipPath><clipPath id="e1afbab3b6"><path d="M 909.882812 1043.199219 C 1031.589844 1107.199219 1115.523438 916.246094 1138.605469 918.34375 C 1148.050781 919.390625 1154.34375 941.425781 1154.34375 952.964844 C 1154.34375 963.457031 1147 971.851562 1137.558594 985.492188 C 1118.671875 1015.917969 1062.015625 1093.558594 1034.738281 1118.738281 C 1021.097656 1130.28125 1013.753906 1138.675781 1000.113281 1140.773438 C 983.324219 1142.871094 950.800781 1136.574219 941.359375 1125.035156 C 931.914062 1113.492188 932.964844 1090.410156 938.210938 1072.574219 C 945.554688 1048.445312 967.585938 1027.460938 992.769531 1000.179688 C 1033.6875 956.113281 1132.3125 863.785156 1165.886719 840.703125 C 1178.476562 832.308594 1184.769531 828.113281 1194.214844 827.0625 C 1203.65625 826.015625 1216.246094 828.113281 1223.589844 835.457031 C 1233.035156 843.851562 1241.429688 866.933594 1239.328125 881.621094 C 1237.230469 897.359375 1224.640625 906.800781 1206.804688 924.636719 C 1164.835938 967.65625 1013.753906 1109.296875 957.097656 1113.492188 C 929.816406 1115.59375 900.4375 1094.609375 894.144531 1078.871094 C 887.847656 1066.28125 896.242188 1048.445312 905.683594 1029.558594 C 919.324219 1001.230469 953.949219 959.261719 982.277344 929.882812 C 1011.652344 900.507812 1045.226562 876.375 1077.753906 850.144531 C 1110.277344 824.964844 1149.097656 787.195312 1175.328125 776.703125 C 1191.066406 770.40625 1204.707031 766.210938 1216.246094 770.40625 C 1228.835938 775.652344 1242.476562 795.585938 1245.625 811.324219 C 1247.722656 830.210938 1233.035156 855.390625 1223.589844 878.472656 C 1212.050781 904.703125 1199.460938 930.933594 1181.625 961.359375 C 1157.492188 1002.277344 1097.6875 1100.902344 1087.195312 1097.757812 C 1080.902344 1095.65625 1092.441406 1062.082031 1085.097656 1052.640625 C 1078.800781 1044.246094 1052.574219 1048.445312 1049.425781 1041.097656 C 1046.277344 1033.753906 1056.769531 1022.214844 1067.261719 1007.523438 C 1096.640625 966.605469 1212.050781 822.867188 1258.214844 801.882812 C 1278.148438 792.441406 1295.988281 792.441406 1308.578125 798.734375 C 1319.070312 805.03125 1328.511719 822.867188 1329.5625 834.40625 C 1330.609375 844.898438 1327.460938 852.242188 1320.117188 864.835938 C 1302.28125 892.113281 1229.886719 951.917969 1198.410156 976.050781 C 1179.527344 989.6875 1164.835938 1001.230469 1151.195312 1005.425781 C 1140.707031 1008.574219 1132.3125 1010.671875 1122.867188 1007.523438 C 1112.375 1003.328125 1096.640625 990.738281 1092.441406 979.195312 C 1088.246094 967.65625 1092.441406 948.769531 1098.738281 939.328125 C 1103.984375 930.933594 1112.375 924.636719 1121.820312 922.539062 C 1133.359375 920.441406 1153.296875 923.589844 1162.738281 930.933594 C 1172.179688 939.328125 1179.527344 957.164062 1178.476562 969.753906 C 1176.378906 981.296875 1164.835938 997.03125 1155.394531 1003.328125 C 1147 1008.574219 1136.507812 1009.625 1127.066406 1008.574219 C 1118.671875 1007.523438 1109.230469 1002.277344 1102.933594 995.984375 C 1096.640625 989.6875 1091.394531 979.195312 1090.34375 970.804688 C 1090.34375 959.261719 1095.589844 944.574219 1105.03125 931.984375 C 1119.722656 913.097656 1157.492188 898.410156 1182.671875 877.425781 C 1211 854.34375 1242.476562 805.03125 1267.65625 796.636719 C 1282.347656 790.339844 1298.085938 792.441406 1308.578125 798.734375 C 1319.070312 805.03125 1329.5625 820.769531 1329.5625 834.40625 C 1329.5625 852.242188 1313.824219 871.128906 1294.9375 896.308594 C 1257.167969 949.820312 1133.359375 1093.558594 1090.34375 1118.738281 C 1074.605469 1128.183594 1065.164062 1129.230469 1053.621094 1127.132812 C 1041.03125 1126.085938 1026.34375 1118.738281 1019 1109.296875 C 1010.605469 1099.855469 1006.40625 1086.214844 1007.457031 1071.527344 C 1009.554688 1050.542969 1027.390625 1023.261719 1042.082031 998.082031 C 1060.964844 967.65625 1093.492188 938.277344 1114.476562 903.65625 C 1135.460938 866.933594 1144.902344 802.929688 1167.984375 784.046875 C 1181.625 771.457031 1203.65625 767.257812 1216.246094 770.40625 C 1227.789062 774.601562 1240.378906 789.292969 1243.527344 800.832031 C 1246.675781 812.375 1244.574219 826.015625 1235.132812 840.703125 C 1212.050781 876.375 1102.933594 936.179688 1055.71875 980.246094 C 1019 1013.820312 991.71875 1074.671875 966.539062 1076.773438 C 949.75 1076.773438 920.375 1054.738281 921.421875 1036.902344 C 921.421875 994.933594 1129.164062 854.34375 1174.28125 833.359375 C 1187.917969 827.0625 1195.261719 826.015625 1204.707031 827.0625 C 1214.148438 829.160156 1225.691406 834.40625 1230.9375 842.800781 C 1238.28125 851.195312 1242.476562 870.082031 1239.328125 881.621094 C 1237.230469 892.113281 1229.886719 897.359375 1219.394531 909.949219 C 1192.117188 940.375 1095.589844 1016.96875 1058.867188 1057.886719 C 1036.835938 1082.019531 1020.046875 1122.9375 1010.605469 1120.839844 C 1004.308594 1119.789062 1010.605469 1091.460938 1002.210938 1083.066406 C 991.71875 1072.574219 952.898438 1076.773438 951.851562 1070.476562 C 950.800781 1065.230469 973.882812 1059.984375 986.472656 1047.394531 C 1008.507812 1025.359375 1039.980469 959.261719 1060.964844 937.230469 C 1071.457031 924.636719 1077.753906 920.441406 1090.34375 912.046875 C 1110.277344 900.507812 1149.097656 879.523438 1172.179688 879.523438 C 1187.917969 879.523438 1203.65625 883.71875 1212.050781 894.210938 C 1221.492188 904.703125 1224.640625 927.785156 1222.542969 941.425781 C 1220.445312 954.015625 1215.199219 959.261719 1204.707031 975 C 1176.378906 1015.917969 1064.113281 1167.003906 1022.144531 1190.085938 C 1006.40625 1198.480469 995.917969 1196.378906 983.324219 1195.332031 C 971.785156 1193.234375 962.339844 1189.035156 948.703125 1179.59375 C 924.570312 1164.90625 875.257812 1119.789062 860.570312 1098.804688 C 854.273438 1089.363281 851.125 1083.066406 851.125 1074.671875 C 851.125 1066.28125 855.324219 1055.789062 860.570312 1049.492188 C 865.816406 1043.199219 875.257812 1037.953125 883.652344 1036.902344 C 892.046875 1035.851562 909.882812 1043.199219 909.882812 1043.199219 " clip-rule="nonzero"/></clipPath><clipPath id="5a3c6487f5"><path d="M 0 0.191406 L 478.945312 0.191406 L 478.945312 429 L 0 429 Z M 0 0.191406 " clip-rule="nonzero"/></clipPath><clipPath id="5554d3942c"><path d="M 58.882812 275.199219 C 180.589844 339.199219 264.523438 148.246094 287.605469 150.34375 C 297.050781 151.390625 303.34375 173.425781 303.34375 184.964844 C 303.34375 195.457031 296 203.851562 286.558594 217.492188 C 267.671875 247.917969 211.015625 325.558594 183.738281 350.738281 C 170.097656 362.28125 162.753906 370.675781 149.113281 372.773438 C 132.324219 374.871094 99.800781 368.574219 90.359375 357.035156 C 80.914062 345.492188 81.964844 322.410156 87.210938 304.574219 C 94.554688 280.445312 116.585938 259.460938 141.769531 232.179688 C 182.6875 188.113281 281.3125 95.785156 314.886719 72.703125 C 327.476562 64.308594 333.769531 60.113281 343.214844 59.0625 C 352.65625 58.015625 365.246094 60.113281 372.589844 67.457031 C 382.035156 75.851562 390.429688 98.933594 388.328125 113.621094 C 386.230469 129.359375 373.640625 138.800781 355.804688 156.636719 C 313.835938 199.65625 162.753906 341.296875 106.097656 345.492188 C 78.816406 347.59375 49.4375 326.609375 43.144531 310.871094 C 36.847656 298.28125 45.242188 280.445312 54.683594 261.558594 C 68.324219 233.230469 102.949219 191.261719 131.277344 161.882812 C 160.652344 132.507812 194.226562 108.375 226.753906 82.144531 C 259.277344 56.964844 298.097656 19.195312 324.328125 8.703125 C 340.066406 2.40625 353.707031 -1.789062 365.246094 2.40625 C 377.835938 7.652344 391.476562 27.585938 394.625 43.324219 C 396.722656 62.210938 382.035156 87.390625 372.589844 110.472656 C 361.050781 136.703125 348.460938 162.933594 330.625 193.359375 C 306.492188 234.277344 246.6875 332.902344 236.195312 329.757812 C 229.902344 327.65625 241.441406 294.082031 234.097656 284.640625 C 227.800781 276.246094 201.574219 280.445312 198.425781 273.097656 C 195.277344 265.753906 205.769531 254.214844 216.261719 239.523438 C 245.640625 198.605469 361.050781 54.867188 407.214844 33.882812 C 427.148438 24.441406 444.988281 24.441406 457.578125 30.734375 C 468.070312 37.03125 477.511719 54.867188 478.5625 66.40625 C 479.609375 76.898438 476.460938 84.242188 469.117188 96.835938 C 451.28125 124.113281 378.886719 183.917969 347.410156 208.050781 C 328.527344 221.6875 313.835938 233.230469 300.195312 237.425781 C 289.707031 240.574219 281.3125 242.671875 271.867188 239.523438 C 261.375 235.328125 245.640625 222.738281 241.441406 211.195312 C 237.246094 199.65625 241.441406 180.769531 247.738281 171.328125 C 252.984375 162.933594 261.375 156.636719 270.820312 154.539062 C 282.359375 152.441406 302.296875 155.589844 311.738281 162.933594 C 321.179688 171.328125 328.527344 189.164062 327.476562 201.753906 C 325.378906 213.296875 313.835938 229.03125 304.394531 235.328125 C 296 240.574219 285.507812 241.625 276.066406 240.574219 C 267.671875 239.523438 258.230469 234.277344 251.933594 227.984375 C 245.640625 221.6875 240.394531 211.195312 239.34375 202.804688 C 239.34375 191.261719 244.589844 176.574219 254.03125 163.984375 C 268.722656 145.097656 306.492188 130.410156 331.671875 109.425781 C 360 86.34375 391.476562 37.03125 416.65625 28.636719 C 431.347656 22.339844 447.085938 24.441406 457.578125 30.734375 C 468.070312 37.03125 478.5625 52.769531 478.5625 66.40625 C 478.5625 84.242188 462.824219 103.128906 443.9375 128.308594 C 406.167969 181.820312 282.359375 325.558594 239.34375 350.738281 C 223.605469 360.183594 214.164062 361.230469 202.621094 359.132812 C 190.03125 358.085938 175.34375 350.738281 168 341.296875 C 159.605469 331.855469 155.40625 318.214844 156.457031 303.527344 C 158.554688 282.542969 176.390625 255.261719 191.082031 230.082031 C 209.964844 199.65625 242.492188 170.277344 263.476562 135.65625 C 284.460938 98.933594 293.902344 34.929688 316.984375 16.046875 C 330.625 3.457031 352.65625 -0.742188 365.246094 2.40625 C 376.789062 6.601562 389.378906 21.292969 392.527344 32.832031 C 395.675781 44.375 393.574219 58.015625 384.132812 72.703125 C 361.050781 108.375 251.933594 168.179688 204.71875 212.246094 C 168 245.820312 140.71875 306.671875 115.539062 308.773438 C 98.75 308.773438 69.375 286.738281 70.421875 268.902344 C 70.421875 226.933594 278.164062 86.34375 323.28125 65.359375 C 336.917969 59.0625 344.261719 58.015625 353.707031 59.0625 C 363.148438 61.160156 374.691406 66.40625 379.9375 74.800781 C 387.28125 83.195312 391.476562 102.082031 388.328125 113.621094 C 386.230469 124.113281 378.886719 129.359375 368.394531 141.949219 C 341.117188 172.375 244.589844 248.96875 207.867188 289.886719 C 185.835938 314.019531 169.046875 354.9375 159.605469 352.839844 C 153.308594 351.789062 159.605469 323.460938 151.210938 315.066406 C 140.71875 304.574219 101.898438 308.773438 100.851562 302.476562 C 99.800781 297.230469 122.882812 291.984375 135.472656 279.394531 C 157.507812 257.359375 188.980469 191.261719 209.964844 169.230469 C 220.457031 156.636719 226.753906 152.441406 239.34375 144.046875 C 259.277344 132.507812 298.097656 111.523438 321.179688 111.523438 C 336.917969 111.523438 352.65625 115.71875 361.050781 126.210938 C 370.492188 136.703125 373.640625 159.785156 371.542969 173.425781 C 369.445312 186.015625 364.199219 191.261719 353.707031 207 C 325.378906 247.917969 213.113281 399.003906 171.144531 422.085938 C 155.40625 430.480469 144.917969 428.378906 132.324219 427.332031 C 120.785156 425.234375 111.339844 421.035156 97.703125 411.59375 C 73.570312 396.90625 24.257812 351.789062 9.570312 330.804688 C 3.273438 321.363281 0.125 315.066406 0.125 306.671875 C 0.125 298.28125 4.324219 287.789062 9.570312 281.492188 C 14.816406 275.199219 24.257812 269.953125 32.652344 268.902344 C 41.046875 267.851562 58.882812 275.199219 58.882812 275.199219 " clip-rule="nonzero"/></clipPath><clipPath id="d60fe7f510"><rect x="0" width="479" y="0" height="429"/></clipPath><clipPath id="a9aa2a11a4"><path d="M 931.808594 1158.210938 L 1002.296875 1158.210938 L 1002.296875 1231.109375 L 931.808594 1231.109375 Z M 931.808594 1158.210938 " clip-rule="nonzero"/></clipPath><clipPath id="e1c260f999"><path d="M 1002.210938 1182.742188 C 1001.160156 1208.96875 989.621094 1222.609375 982.277344 1226.808594 C 977.03125 1231.003906 971.785156 1232.054688 965.488281 1229.953125 C 956.046875 1228.90625 941.359375 1221.5625 936.113281 1213.167969 C 930.867188 1203.726562 930.867188 1186.9375 934.011719 1178.542969 C 936.113281 1172.25 939.257812 1168.050781 944.503906 1164.90625 C 952.898438 1160.707031 969.6875 1157.558594 978.078125 1158.609375 C 984.375 1159.660156 993.816406 1168.050781 993.816406 1168.050781 " clip-rule="nonzero"/></clipPath><clipPath id="04cc9be79c"><path d="M 0.808594 0.210938 L 71.296875 0.210938 L 71.296875 73.109375 L 0.808594 73.109375 Z M 0.808594 0.210938 " clip-rule="nonzero"/></clipPath><clipPath id="4019c2a845"><path d="M 71.210938 24.742188 C 70.160156 50.96875 58.621094 64.609375 51.277344 68.808594 C 46.03125 73.003906 40.785156 74.054688 34.488281 71.953125 C 25.046875 70.90625 10.359375 63.5625 5.113281 55.167969 C -0.132812 45.726562 -0.132812 28.9375 3.011719 20.542969 C 5.113281 14.25 8.257812 10.050781 13.503906 6.90625 C 21.898438 2.707031 38.6875 -0.441406 47.078125 0.609375 C 53.375 1.660156 62.816406 10.050781 62.816406 10.050781 " clip-rule="nonzero"/></clipPath><clipPath id="27fa7b3964"><rect x="0" width="72" y="0" height="74"/></clipPath><clipPath id="dc8f9b1469"><path d="M 800.28125 1087.890625 L 972 1087.890625 L 972 1255 L 800.28125 1255 Z M 800.28125 1087.890625 " clip-rule="nonzero"/></clipPath><clipPath id="f8d7033cf0"><path d="M 937.160156 1249.890625 C 812.304688 1264.578125 802.863281 1244.644531 800.765625 1225.757812 C 798.667969 1194.28125 830.144531 1118.738281 851.125 1099.855469 C 861.617188 1090.410156 880.503906 1085.164062 887.847656 1089.363281 C 894.144531 1092.511719 892.046875 1107.199219 898.339844 1113.492188 C 905.683594 1120.839844 926.667969 1119.789062 932.964844 1128.183594 C 940.308594 1137.625 945.554688 1155.460938 941.359375 1165.953125 C 937.160156 1178.542969 904.636719 1196.378906 904.636719 1196.378906 C 904.636719 1196.378906 940.308594 1167.003906 941.359375 1167.003906 C 941.359375 1168.050781 923.519531 1191.132812 913.03125 1194.28125 C 904.636719 1198.480469 895.191406 1196.378906 886.800781 1194.28125 C 879.457031 1191.132812 870.011719 1184.839844 865.816406 1177.496094 C 861.617188 1168.050781 858.472656 1149.167969 863.71875 1138.675781 C 867.914062 1128.183594 882.601562 1116.640625 894.144531 1114.542969 C 904.636719 1112.445312 922.472656 1118.738281 930.867188 1126.085938 C 937.160156 1131.332031 941.359375 1141.820312 942.40625 1149.167969 C 943.457031 1157.558594 942.40625 1168.050781 937.160156 1175.394531 C 930.867188 1184.839844 916.175781 1195.332031 904.636719 1196.378906 C 893.09375 1197.429688 876.308594 1189.035156 868.964844 1180.640625 C 862.667969 1174.347656 858.472656 1164.90625 859.519531 1155.460938 C 862.667969 1142.871094 884.699219 1116.640625 898.339844 1113.492188 C 908.832031 1111.394531 926.667969 1119.789062 932.964844 1128.183594 C 941.359375 1138.675781 943.457031 1163.855469 937.160156 1175.394531 C 931.914062 1185.886719 909.882812 1199.527344 904.636719 1196.378906 C 900.4375 1193.234375 911.980469 1160.707031 908.832031 1160.707031 C 905.683594 1158.609375 887.847656 1222.609375 872.109375 1226.808594 C 860.570312 1229.953125 832.242188 1211.070312 833.289062 1203.726562 C 834.339844 1193.234375 889.945312 1180.640625 910.929688 1177.496094 C 925.621094 1175.394531 938.210938 1174.347656 947.652344 1178.542969 C 956.046875 1181.691406 963.390625 1189.035156 967.585938 1196.378906 C 970.734375 1203.726562 972.832031 1214.214844 969.6875 1222.609375 C 965.488281 1233.101562 937.160156 1249.890625 937.160156 1249.890625 " clip-rule="nonzero"/></clipPath><clipPath id="f36db37bbe"><path d="M 0.28125 0.890625 L 172 0.890625 L 172 168 L 0.28125 168 Z M 0.28125 0.890625 " clip-rule="nonzero"/></clipPath><clipPath id="b3020785a2"><path d="M 137.160156 162.890625 C 12.304688 177.578125 2.863281 157.644531 0.765625 138.757812 C -1.332031 107.28125 30.144531 31.738281 51.125 12.855469 C 61.617188 3.410156 80.503906 -1.835938 87.847656 2.363281 C 94.144531 5.511719 92.046875 20.199219 98.339844 26.492188 C 105.683594 33.839844 126.667969 32.789062 132.964844 41.183594 C 140.308594 50.625 145.554688 68.460938 141.359375 78.953125 C 137.160156 91.542969 104.636719 109.378906 104.636719 109.378906 C 104.636719 109.378906 140.308594 80.003906 141.359375 80.003906 C 141.359375 81.050781 123.519531 104.132812 113.03125 107.28125 C 104.636719 111.480469 95.191406 109.378906 86.800781 107.28125 C 79.457031 104.132812 70.011719 97.839844 65.816406 90.496094 C 61.617188 81.050781 58.472656 62.167969 63.71875 51.675781 C 67.914062 41.183594 82.601562 29.640625 94.144531 27.542969 C 104.636719 25.445312 122.472656 31.738281 130.867188 39.085938 C 137.160156 44.332031 141.359375 54.820312 142.40625 62.167969 C 143.457031 70.558594 142.40625 81.050781 137.160156 88.394531 C 130.867188 97.839844 116.175781 108.332031 104.636719 109.378906 C 93.09375 110.429688 76.308594 102.035156 68.964844 93.640625 C 62.667969 87.347656 58.472656 77.90625 59.519531 68.460938 C 62.667969 55.871094 84.699219 29.640625 98.339844 26.492188 C 108.832031 24.394531 126.667969 32.789062 132.964844 41.183594 C 141.359375 51.675781 143.457031 76.855469 137.160156 88.394531 C 131.914062 98.886719 109.882812 112.527344 104.636719 109.378906 C 100.4375 106.234375 111.980469 73.707031 108.832031 73.707031 C 105.683594 71.609375 87.847656 135.609375 72.109375 139.808594 C 60.570312 142.953125 32.242188 124.070312 33.289062 116.726562 C 34.339844 106.234375 89.945312 93.640625 110.929688 90.496094 C 125.621094 88.394531 138.210938 87.347656 147.652344 91.542969 C 156.046875 94.691406 163.390625 102.035156 167.585938 109.378906 C 170.734375 116.726562 172.832031 127.214844 169.6875 135.609375 C 165.488281 146.101562 137.160156 162.890625 137.160156 162.890625 " clip-rule="nonzero"/></clipPath><clipPath id="08e2b0ffad"><rect x="0" width="172" y="0" height="168"/></clipPath><clipPath id="d65f7cca68"><path d="M 787.019531 1207.523438 L 857.507812 1207.523438 L 857.507812 1280.421875 L 787.019531 1280.421875 Z M 787.019531 1207.523438 " clip-rule="nonzero"/></clipPath><clipPath id="ee7f73f7bd"><path d="M 857.421875 1232.054688 C 856.371094 1258.28125 844.832031 1271.921875 837.488281 1276.121094 C 832.242188 1280.316406 826.996094 1281.363281 820.699219 1279.265625 C 811.257812 1278.21875 796.570312 1270.875 791.324219 1262.480469 C 786.078125 1253.035156 786.078125 1236.25 789.222656 1227.855469 C 791.324219 1221.5625 794.46875 1217.363281 799.714844 1214.214844 C 808.109375 1210.019531 824.898438 1206.871094 833.289062 1207.921875 C 839.585938 1208.96875 849.027344 1217.363281 849.027344 1217.363281 " clip-rule="nonzero"/></clipPath><clipPath id="3855c35436"><path d="M 0.0195312 0.523438 L 70.4375 0.523438 L 70.4375 73.421875 L 0.0195312 73.421875 Z M 0.0195312 0.523438 " clip-rule="nonzero"/></clipPath><clipPath id="d6b0a89a4a"><path d="M 70.421875 25.054688 C 69.371094 51.28125 57.832031 64.921875 50.488281 69.121094 C 45.242188 73.316406 39.996094 74.363281 33.699219 72.265625 C 24.257812 71.21875 9.570312 63.875 4.324219 55.480469 C -0.921875 46.035156 -0.921875 29.25 2.222656 20.855469 C 4.324219 14.5625 7.46875 10.363281 12.714844 7.214844 C 21.109375 3.019531 37.898438 -0.128906 46.289062 0.921875 C 52.585938 1.96875 62.027344 10.363281 62.027344 10.363281 " clip-rule="nonzero"/></clipPath><clipPath id="f58b93afbf"><rect x="0" width="71" y="0" height="74"/></clipPath><clipPath id="b6a94bde18"><path d="M 1151 529 L 1523.335938 529 L 1523.335938 889 L 1151 889 Z M 1151 529 " clip-rule="nonzero"/></clipPath><clipPath id="f853321aa7"><path d="M 1151.195312 791.390625 C 1154.34375 779.847656 1157.492188 774.601562 1157.492188 774.601562 C 1157.492188 774.601562 1164.835938 760.964844 1170.082031 752.570312 C 1176.378906 743.128906 1183.722656 730.535156 1193.164062 721.09375 C 1202.609375 711.652344 1217.296875 705.355469 1227.789062 696.960938 C 1238.28125 687.519531 1247.722656 675.980469 1256.117188 665.488281 C 1264.511719 656.042969 1268.707031 643.453125 1277.101562 634.011719 C 1286.542969 623.519531 1298.085938 614.074219 1309.625 605.683594 C 1320.117188 597.289062 1339.003906 586.796875 1342.152344 583.648438 C 1343.199219 582.601562 1343.199219 583.648438 1343.199219 582.601562 C 1347.398438 578.402344 1359.988281 556.371094 1369.429688 546.925781 C 1379.921875 538.535156 1390.414062 530.140625 1403.003906 529.089844 C 1416.644531 529.089844 1434.480469 536.433594 1447.070312 544.828125 C 1458.613281 553.222656 1467.003906 565.8125 1475.398438 576.304688 C 1482.742188 587.847656 1485.890625 599.386719 1493.234375 610.929688 C 1501.628906 622.46875 1519.464844 631.914062 1522.613281 645.550781 C 1525.761719 661.289062 1516.316406 684.371094 1506.875 699.0625 C 1497.433594 713.75 1475.398438 721.09375 1463.859375 732.636719 C 1454.414062 742.078125 1449.167969 752.570312 1439.726562 760.964844 C 1431.332031 771.457031 1420.839844 779.847656 1410.347656 789.292969 C 1400.90625 798.734375 1391.464844 810.277344 1379.921875 819.71875 C 1369.429688 829.160156 1355.789062 838.605469 1345.296875 848.046875 C 1334.804688 858.539062 1328.511719 875.324219 1316.96875 881.621094 C 1305.429688 886.867188 1289.691406 891.0625 1278.148438 886.867188 C 1264.511719 881.621094 1243.527344 856.441406 1240.378906 845.949219 C 1238.28125 839.652344 1243.527344 833.359375 1242.476562 831.257812 C 1242.476562 830.210938 1241.429688 831.257812 1240.378906 830.210938 C 1239.328125 829.160156 1236.183594 827.0625 1236.183594 827.0625 C 1236.183594 827.0625 1234.082031 824.964844 1231.984375 823.914062 C 1230.9375 822.867188 1228.835938 819.71875 1228.835938 819.71875 C 1228.835938 819.71875 1226.738281 816.570312 1225.691406 815.523438 C 1224.640625 813.421875 1223.59375 810.277344 1223.59375 810.277344 C 1223.59375 810.277344 1223.59375 810.277344 1222.542969 810.277344 C 1222.542969 810.277344 1221.492188 812.375 1220.445312 814.472656 C 1219.394531 815.523438 1217.296875 818.667969 1215.199219 820.769531 C 1213.101562 822.867188 1209.953125 824.964844 1207.855469 826.015625 C 1204.707031 828.113281 1202.609375 829.160156 1199.460938 830.210938 C 1196.3125 831.257812 1193.164062 831.257812 1190.015625 831.257812 C 1187.917969 831.257812 1184.769531 831.257812 1181.625 831.257812 C 1178.476562 830.210938 1175.328125 829.160156 1173.230469 828.113281 C 1170.082031 827.0625 1167.984375 824.964844 1164.835938 822.867188 C 1162.738281 820.769531 1160.640625 818.667969 1158.542969 816.570312 C 1157.492188 814.472656 1155.394531 811.324219 1154.34375 809.226562 C 1153.296875 806.078125 1152.246094 802.929688 1152.246094 799.785156 C 1151.195312 797.683594 1151.195312 791.390625 1151.195312 791.390625 " clip-rule="nonzero"/></clipPath><clipPath id="af68fa1e21"><path d="M 0.0859375 0 L 372.335938 0 L 372.335938 360 L 0.0859375 360 Z M 0.0859375 0 " clip-rule="nonzero"/></clipPath><clipPath id="b9edd16e4b"><path d="M 0.195312 262.390625 C 3.34375 250.847656 6.492188 245.601562 6.492188 245.601562 C 6.492188 245.601562 13.835938 231.964844 19.082031 223.570312 C 25.378906 214.128906 32.722656 201.535156 42.164062 192.09375 C 51.609375 182.652344 66.296875 176.355469 76.789062 167.960938 C 87.28125 158.519531 96.722656 146.980469 105.117188 136.488281 C 113.511719 127.042969 117.707031 114.453125 126.101562 105.011719 C 135.542969 94.519531 147.085938 85.074219 158.625 76.683594 C 169.117188 68.289062 188.003906 57.796875 191.152344 54.648438 C 192.199219 53.601562 192.199219 54.648438 192.199219 53.601562 C 196.398438 49.402344 208.988281 27.371094 218.429688 17.925781 C 228.921875 9.535156 239.414062 1.140625 252.003906 0.0898438 C 265.644531 0.0898438 283.480469 7.433594 296.070312 15.828125 C 307.613281 24.222656 316.003906 36.8125 324.398438 47.304688 C 331.742188 58.847656 334.890625 70.386719 342.234375 81.929688 C 350.628906 93.46875 368.464844 102.914062 371.613281 116.550781 C 374.761719 132.289062 365.316406 155.371094 355.875 170.0625 C 346.433594 184.75 324.398438 192.09375 312.859375 203.636719 C 303.414062 213.078125 298.167969 223.570312 288.726562 231.964844 C 280.332031 242.457031 269.839844 250.847656 259.347656 260.292969 C 249.90625 269.734375 240.464844 281.277344 228.921875 290.71875 C 218.429688 300.160156 204.789062 309.605469 194.296875 319.046875 C 183.804688 329.539062 177.511719 346.324219 165.96875 352.621094 C 154.429688 357.867188 138.691406 362.0625 127.148438 357.867188 C 113.511719 352.621094 92.527344 327.441406 89.378906 316.949219 C 87.28125 310.652344 92.527344 304.359375 91.476562 302.257812 C 91.476562 301.210938 90.429688 302.257812 89.378906 301.210938 C 88.328125 300.160156 85.183594 298.0625 85.183594 298.0625 C 85.183594 298.0625 83.082031 295.964844 80.984375 294.914062 C 79.9375 293.867188 77.835938 290.71875 77.835938 290.71875 C 77.835938 290.71875 75.738281 287.570312 74.691406 286.523438 C 73.640625 284.421875 72.59375 281.277344 72.59375 281.277344 C 72.59375 281.277344 72.59375 281.277344 71.542969 281.277344 C 71.542969 281.277344 70.492188 283.375 69.445312 285.472656 C 68.394531 286.523438 66.296875 289.667969 64.199219 291.769531 C 62.101562 293.867188 58.953125 295.964844 56.855469 297.015625 C 53.707031 299.113281 51.609375 300.160156 48.460938 301.210938 C 45.3125 302.257812 42.164062 302.257812 39.015625 302.257812 C 36.917969 302.257812 33.769531 302.257812 30.625 302.257812 C 27.476562 301.210938 24.328125 300.160156 22.230469 299.113281 C 19.082031 298.0625 16.984375 295.964844 13.835938 293.867188 C 11.738281 291.769531 9.640625 289.667969 7.542969 287.570312 C 6.492188 285.472656 4.394531 282.324219 3.34375 280.226562 C 2.296875 277.078125 1.246094 273.929688 1.246094 270.785156 C 0.195312 268.683594 0.195312 262.390625 0.195312 262.390625 " clip-rule="nonzero"/></clipPath><clipPath id="930d6f2f7e"><rect x="0" width="373" y="0" height="360"/></clipPath></defs><g clip-path="url(#24c1079b60)"><g clip-path="url(#d76bb5cc45)"><g transform="matrix(1, 0, 0, 1, 0.000000000000000028, 0)"><g clip-path="url(#a82f7fe543)"><g clip-path="url(#ede27b5f89)"><g clip-path="url(#5618a57cd3)"><path fill="#e7f0fb" d="M 0.238281 0 L 1342.4375 0 L 1342.4375 938.804688 L 0.238281 938.804688 Z M 0.238281 0 " fill-opacity="1" fill-rule="nonzero"/></g></g></g></g></g></g><g clip-path="url(#6b0d36fb60)"><g clip-path="url(#5c7bf6ff86)"><g transform="matrix(1, 0, 0, 1, 107, 690)"><g clip-path="url(#13b4c60b4d)"><g clip-path="url(#1dada90b50)"><g clip-path="url(#5e23055954)"><path fill="#e7f0fb" d="M 356.152344 0.734375 L 356.152344 497.4375 L 0.972656 497.4375 L 0.972656 0.734375 Z M 356.152344 0.734375 " fill-opacity="1" fill-rule="nonzero"/></g></g></g></g></g></g><g clip-path="url(#e5100d493b)"><path fill="#8a2d13" d="M 1423.609375 490.707031 C 1413.097656 480.191406 1394.480469 480.191406 1383.96875 490.707031 L 813.035156 1061.664062 C 813.007812 1061.695312 812.984375 1061.71875 812.957031 1061.746094 L 812.871094 1061.828125 C 812.824219 1061.875 812.8125 1061.9375 812.769531 1061.980469 C 810.492188 1064.28125 808.785156 1067.058594 807.414062 1070.042969 C 807.082031 1070.769531 806.765625 1071.457031 806.5 1072.203125 C 806.257812 1072.871094 805.863281 1073.457031 805.671875 1074.148438 L 746.398438 1287.996094 C 743.714844 1297.742188 746.453125 1308.171875 753.601562 1315.316406 C 758.9375 1320.65625 766.082031 1323.53125 773.421875 1323.53125 C 775.914062 1323.53125 778.429688 1323.203125 780.921875 1322.515625 L 994.769531 1263.246094 C 995.460938 1263.054688 996.042969 1262.660156 996.710938 1262.417969 C 997.457031 1262.148438 998.148438 1261.835938 998.875 1261.5 C 1001.859375 1260.132812 1004.636719 1258.421875 1006.933594 1256.148438 C 1006.980469 1256.101562 1007.042969 1256.089844 1007.089844 1256.042969 L 1007.171875 1255.960938 C 1007.199219 1255.933594 1007.222656 1255.910156 1007.25 1255.882812 L 1578.210938 684.949219 C 1583.46875 679.691406 1586.425781 672.5625 1586.425781 665.128906 C 1586.425781 657.695312 1583.46875 650.5625 1578.210938 645.304688 Z M 1308.160156 645.800781 L 1423.117188 760.757812 L 987.265625 1196.582031 L 872.335938 1081.648438 Z M 813.667969 1255.25 L 846.875 1135.472656 L 933.441406 1222.042969 Z M 1462.757812 721.113281 L 1347.804688 606.160156 L 1403.789062 550.167969 L 1518.746094 665.128906 Z M 1462.757812 721.113281 " fill-opacity="1" fill-rule="nonzero"/></g><g clip-path="url(#f6cfed73b0)"><g clip-path="url(#e1afbab3b6)"><g transform="matrix(1, 0, 0, 1, 851, 768)"><g clip-path="url(#d60fe7f510)"><g clip-path="url(#5a3c6487f5)"><g clip-path="url(#5554d3942c)"><rect x="-1200.1136" width="2285.1072" fill="#8a2d13" height="1907.279943" y="-1059.389991" fill-opacity="1"/></g></g></g></g></g></g><g clip-path="url(#a9aa2a11a4)"><g clip-path="url(#e1c260f999)"><g transform="matrix(1, 0, 0, 1, 931, 1158)"><g clip-path="url(#27fa7b3964)"><g clip-path="url(#04cc9be79c)"><g clip-path="url(#4019c2a845)"><rect x="-1280.1136" width="2285.1072" fill="#8a2d13" height="1907.279943" y="-1449.389991" fill-opacity="1"/></g></g></g></g></g></g><g clip-path="url(#dc8f9b1469)"><g clip-path="url(#f8d7033cf0)"><g transform="matrix(1, 0, 0, 1, 800, 1087)"><g clip-path="url(#08e2b0ffad)"><g clip-path="url(#f36db37bbe)"><g clip-path="url(#b3020785a2)"><rect x="-1149.1136" width="2285.1072" fill="#8a2d13" height="1907.279943" y="-1378.389991" fill-opacity="1"/></g></g></g></g></g></g><g clip-path="url(#d65f7cca68)"><g clip-path="url(#ee7f73f7bd)"><g transform="matrix(1, 0, 0, 1, 787, 1207)"><g clip-path="url(#f58b93afbf)"><g clip-path="url(#3855c35436)"><g clip-path="url(#d6b0a89a4a)"><rect x="-1136.1136" width="2285.1072" fill="#8a2d13" height="1907.279943" y="-1498.389991" fill-opacity="1"/></g></g></g></g></g></g><g clip-path="url(#b6a94bde18)"><g clip-path="url(#f853321aa7)"><g transform="matrix(1, 0, 0, 1, 1151, 529)"><g clip-path="url(#930d6f2f7e)"><g clip-path="url(#af68fa1e21)"><g clip-path="url(#b9edd16e4b)"><rect x="-1500.1136" width="2285.1072" fill="#8a2d13" height="1907.279943" y="-820.389991" fill-opacity="1"/></g></g></g></g></g></g></svg>