<svg xmlns="http://www.w3.org/2000/svg" xmlns:xlink="http://www.w3.org/1999/xlink" width="1895" zoomAndPan="magnify" viewBox="0 0 1421.25 1103.999945" height="1472" preserveAspectRatio="xMidYMid meet" version="1.0"><defs><clipPath id="dc6614b4ae"><path d="M 0 454.148438 L 1151.75 454.148438 L 1151.75 653.832031 L 0 653.832031 Z M 0 454.148438 " clip-rule="nonzero"/></clipPath><clipPath id="1a9966f647"><path d="M 1151.75 529.109375 L 1151.75 578.871094 C 1151.75 620.273438 1118.191406 653.832031 1076.792969 653.832031 L 74.953125 653.832031 C 33.554688 653.832031 -0.00390625 620.273438 -0.00390625 578.871094 L -0.00390625 529.109375 C -0.00390625 487.707031 33.554688 454.148438 74.953125 454.148438 L 1076.792969 454.148438 C 1118.191406 454.148438 1151.75 487.707031 1151.75 529.109375 Z M 1151.75 529.109375 " clip-rule="nonzero"/></clipPath><clipPath id="7393367860"><path d="M 0 0.148438 L 1151.75 0.148438 L 1151.75 199.832031 L 0 199.832031 Z M 0 0.148438 " clip-rule="nonzero"/></clipPath><clipPath id="bec6364121"><path d="M 1151.75 75.109375 L 1151.75 124.871094 C 1151.75 166.273438 1118.191406 199.832031 1076.792969 199.832031 L 74.953125 199.832031 C 33.554688 199.832031 -0.00390625 166.273438 -0.00390625 124.871094 L -0.00390625 75.109375 C -0.00390625 33.707031 33.554688 0.148438 74.953125 0.148438 L 1076.792969 0.148438 C 1118.191406 0.148438 1151.75 33.707031 1151.75 75.109375 Z M 1151.75 75.109375 " clip-rule="nonzero"/></clipPath><clipPath id="0612d44d85"><rect x="0" width="1152" y="0" height="200"/></clipPath><clipPath id="431f060b9d"><path d="M 0 0.292969 L 1420.3125 0.292969 L 1420.3125 199.976562 L 0 199.976562 Z M 0 0.292969 " clip-rule="nonzero"/></clipPath><clipPath id="af7ab5d62a"><path d="M 1420.3125 75.25 L 1420.3125 125.015625 C 1420.3125 166.414062 1386.753906 199.976562 1345.351562 199.976562 L 74.949219 199.976562 C 33.550781 199.976562 -0.0117188 166.414062 -0.0117188 125.015625 L -0.0117188 75.25 C -0.0117188 33.851562 33.550781 0.289062 74.949219 0.289062 L 1345.351562 0.289062 C 1386.753906 0.289062 1420.3125 33.851562 1420.3125 75.25 Z M 1420.3125 75.25 " clip-rule="nonzero"/></clipPath><clipPath id="5d38d54f28"><path d="M 0 0.292969 L 1420.3125 0.292969 L 1420.3125 199.976562 L 0 199.976562 Z M 0 0.292969 " clip-rule="nonzero"/></clipPath><clipPath id="dc75fd1d9d"><path d="M 1420.3125 75.25 L 1420.3125 125.015625 C 1420.3125 166.414062 1386.753906 199.976562 1345.351562 199.976562 L 74.949219 199.976562 C 33.550781 199.976562 -0.0117188 166.414062 -0.0117188 125.015625 L -0.0117188 75.25 C -0.0117188 33.851562 33.550781 0.289062 74.949219 0.289062 L 1345.351562 0.289062 C 1386.753906 0.289062 1420.3125 33.851562 1420.3125 75.25 Z M 1420.3125 75.25 " clip-rule="nonzero"/></clipPath><clipPath id="309725e944"><rect x="0" width="1421" y="0" height="200"/></clipPath><clipPath id="24a6ef3c73"><path d="M 0 903.3125 L 710.15625 903.3125 L 710.15625 1103 L 0 1103 Z M 0 903.3125 " clip-rule="nonzero"/></clipPath><clipPath id="f855323c08"><path d="M 710.15625 978.273438 L 710.15625 1028.039062 C 710.15625 1069.4375 676.59375 1103 635.195312 1103 L 74.953125 1103 C 33.554688 1103 -0.0078125 1069.4375 -0.0078125 1028.039062 L -0.0078125 978.273438 C -0.0078125 936.875 33.554688 903.3125 74.953125 903.3125 L 635.195312 903.3125 C 676.59375 903.3125 710.15625 936.875 710.15625 978.273438 Z M 710.15625 978.273438 " clip-rule="nonzero"/></clipPath><clipPath id="e4004cda18"><path d="M 0 0.3125 L 710.15625 0.3125 L 710.15625 200 L 0 200 Z M 0 0.3125 " clip-rule="nonzero"/></clipPath><clipPath id="bc0f17e7ef"><path d="M 710.15625 75.273438 L 710.15625 125.039062 C 710.15625 166.4375 676.59375 200 635.195312 200 L 74.953125 200 C 33.554688 200 -0.0078125 166.4375 -0.0078125 125.039062 L -0.0078125 75.273438 C -0.0078125 33.875 33.554688 0.3125 74.953125 0.3125 L 635.195312 0.3125 C 676.59375 0.3125 710.15625 33.875 710.15625 75.273438 Z M 710.15625 75.273438 " clip-rule="nonzero"/></clipPath><clipPath id="354cf4549a"><rect x="0" width="711" y="0" height="200"/></clipPath></defs><g clip-path="url(#dc6614b4ae)"><g clip-path="url(#1a9966f647)"><g transform="matrix(1, 0, 0, 1, -0, 454)"><g clip-path="url(#0612d44d85)"><g clip-path="url(#7393367860)"><g clip-path="url(#bec6364121)"><path fill="#405dac" d="M 1151.75 0.148438 L 1151.75 199.832031 L -0.335938 199.832031 L -0.335938 0.148438 Z M 1151.75 0.148438 " fill-opacity="1" fill-rule="nonzero"/></g></g></g></g></g></g><g clip-path="url(#431f060b9d)"><g clip-path="url(#af7ab5d62a)"><g transform="matrix(1, 0, 0, 1, -0, 0.000000000000174361)"><g clip-path="url(#309725e944)"><g clip-path="url(#5d38d54f28)"><g clip-path="url(#dc75fd1d9d)"><path fill="#2e4279" d="M 1420.3125 0.289062 L 1420.3125 199.976562 L -0.101562 199.976562 L -0.101562 0.289062 Z M 1420.3125 0.289062 " fill-opacity="1" fill-rule="nonzero"/></g></g></g></g></g></g><g clip-path="url(#24a6ef3c73)"><g clip-path="url(#f855323c08)"><g transform="matrix(1, 0, 0, 1, -0, 903)"><g clip-path="url(#354cf4549a)"><g clip-path="url(#e4004cda18)"><g clip-path="url(#bc0f17e7ef)"><path fill="#5b92e3" d="M 710.15625 0.3125 L 710.15625 200 L 0.335938 200 L 0.335938 0.3125 Z M 710.15625 0.3125 " fill-opacity="1" fill-rule="nonzero"/></g></g></g></g></g></g></svg>