<svg xmlns="http://www.w3.org/2000/svg" xmlns:xlink="http://www.w3.org/1999/xlink" width="2116" zoomAndPan="magnify" viewBox="0 0 1586.88 1586.999935" height="2116" preserveAspectRatio="xMidYMid meet" version="1.0"><defs><clipPath id="7423e3145f"><path d="M 0 0.0585938 L 1586.761719 0.0585938 L 1586.761719 1586.9375 L 0 1586.9375 Z M 0 0.0585938 " clip-rule="nonzero"/></clipPath><clipPath id="9abfaa4022"><path d="M 436.515625 436.578125 L 1150.15625 436.578125 L 1150.15625 1150.214844 L 436.515625 1150.214844 Z M 436.515625 436.578125 " clip-rule="nonzero"/></clipPath><clipPath id="d231b7f33e"><path d="M 793.335938 436.578125 C 596.269531 436.578125 436.515625 596.332031 436.515625 793.398438 C 436.515625 990.464844 596.269531 1150.214844 793.335938 1150.214844 C 990.402344 1150.214844 1150.15625 990.464844 1150.15625 793.398438 C 1150.15625 596.332031 990.402344 436.578125 793.335938 436.578125 Z M 793.335938 436.578125 " clip-rule="nonzero"/></clipPath><clipPath id="99ef85cbe9"><path d="M 0.515625 0.578125 L 714.15625 0.578125 L 714.15625 714.214844 L 0.515625 714.214844 Z M 0.515625 0.578125 " clip-rule="nonzero"/></clipPath><clipPath id="401430c236"><path d="M 357.335938 0.578125 C 160.269531 0.578125 0.515625 160.332031 0.515625 357.398438 C 0.515625 554.464844 160.269531 714.214844 357.335938 714.214844 C 554.402344 714.214844 714.15625 554.464844 714.15625 357.398438 C 714.15625 160.332031 554.402344 0.578125 357.335938 0.578125 Z M 357.335938 0.578125 " clip-rule="nonzero"/></clipPath><clipPath id="c8cfced09b"><rect x="0" width="715" y="0" height="715"/></clipPath></defs><g clip-path="url(#7423e3145f)"><path fill="#8a2d13" d="M 793.335938 0.0585938 C 355.015625 0.0585938 0 355.078125 0 793.394531 C 0 1231.710938 355.015625 1586.730469 793.335938 1586.730469 C 1231.652344 1586.730469 1586.667969 1231.710938 1586.667969 793.394531 C 1586.667969 355.078125 1231.652344 0.0585938 793.335938 0.0585938 Z M 793.335938 1428.0625 C 443.472656 1428.0625 158.667969 1143.253906 158.667969 793.394531 C 158.667969 443.535156 443.472656 158.726562 793.335938 158.726562 C 1143.195312 158.726562 1428.003906 443.535156 1428.003906 793.394531 C 1428.003906 1143.253906 1143.195312 1428.0625 793.335938 1428.0625 Z M 793.335938 1428.0625 " fill-opacity="1" fill-rule="nonzero"/></g><g clip-path="url(#9abfaa4022)"><g clip-path="url(#d231b7f33e)"><g transform="matrix(1, 0, 0, 1, 436, 436)"><g clip-path="url(#c8cfced09b)"><g clip-path="url(#99ef85cbe9)"><g clip-path="url(#401430c236)"><path fill="#8a2d13" d="M 0.515625 0.578125 L 714.15625 0.578125 L 714.15625 714.214844 L 0.515625 714.214844 Z M 0.515625 0.578125 " fill-opacity="1" fill-rule="nonzero"/></g></g></g></g></g></g></svg>