<svg xmlns="http://www.w3.org/2000/svg" xmlns:xlink="http://www.w3.org/1999/xlink" width="471" zoomAndPan="magnify" viewBox="0 0 353.25 635.999986" height="848" preserveAspectRatio="xMidYMid meet" version="1.0"><defs><filter x="0%" y="0%" width="100%" height="100%" id="70ea815dd1"><feColorMatrix values="0 0 0 0 1 0 0 0 0 1 0 0 0 0 1 0 0 0 1 0" color-interpolation-filters="sRGB"/></filter><clipPath id="f91d227465"><path d="M 0 0.671875 L 352.5 0.671875 L 352.5 635.324219 L 0 635.324219 Z M 0 0.671875 " clip-rule="nonzero"/></clipPath><mask id="71828599c8"><g filter="url(#70ea815dd1)"><rect x="-35.325" width="423.9" fill="#000000" y="-63.599999" height="763.199983" fill-opacity="0.25"/></g></mask><clipPath id="677a1cc506"><path d="M 0 0.671875 L 352.292969 0.671875 L 352.292969 635.324219 L 0 635.324219 Z M 0 0.671875 " clip-rule="nonzero"/></clipPath><clipPath id="5b8b2340bb"><path d="M 98.332031 508.410156 L 161.714844 508.410156 L 161.714844 571.792969 L 98.332031 571.792969 Z M 98.332031 508.410156 " clip-rule="nonzero"/></clipPath><clipPath id="9319244d7b"><path d="M 98.332031 508.410156 L 161.714844 508.410156 L 161.714844 571.792969 Z M 98.332031 508.410156 " clip-rule="nonzero"/></clipPath><clipPath id="22d6577265"><path d="M 0.332031 0.410156 L 63.714844 0.410156 L 63.714844 63.792969 L 0.332031 63.792969 Z M 0.332031 0.410156 " clip-rule="nonzero"/></clipPath><clipPath id="50cde1ebd6"><path d="M 0.332031 0.410156 L 63.714844 0.410156 L 63.714844 63.792969 Z M 0.332031 0.410156 " clip-rule="nonzero"/></clipPath><clipPath id="4ba894c334"><rect x="0" width="64" y="0" height="64"/></clipPath><clipPath id="5b4dacff70"><path d="M 98.339844 508.417969 L 161.722656 508.417969 L 161.722656 571.800781 L 98.339844 571.800781 Z M 98.339844 508.417969 " clip-rule="nonzero"/></clipPath><clipPath id="42e2a7f6b6"><path d="M 161.722656 571.800781 L 98.339844 571.800781 L 98.339844 508.417969 Z M 161.722656 571.800781 " clip-rule="nonzero"/></clipPath><clipPath id="a4ed507720"><path d="M 0.339844 0.417969 L 63.722656 0.417969 L 63.722656 63.800781 L 0.339844 63.800781 Z M 0.339844 0.417969 " clip-rule="nonzero"/></clipPath><clipPath id="862abaa948"><path d="M 63.722656 63.800781 L 0.339844 63.800781 L 0.339844 0.417969 Z M 63.722656 63.800781 " clip-rule="nonzero"/></clipPath><clipPath id="ce4d9fc9f3"><rect x="0" width="64" y="0" height="64"/></clipPath><clipPath id="066f4c6926"><path d="M 225.097656 445.03125 L 288.476562 445.03125 L 288.476562 508.410156 L 225.097656 508.410156 Z M 225.097656 445.03125 " clip-rule="nonzero"/></clipPath><clipPath id="4d1ab5561b"><path d="M 0.0976562 0.03125 L 63.476562 0.03125 L 63.476562 63.410156 L 0.0976562 63.410156 Z M 0.0976562 0.03125 " clip-rule="nonzero"/></clipPath><clipPath id="e25667e4b8"><rect x="0" width="64" y="0" height="64"/></clipPath><clipPath id="04746e3828"><path d="M 161.71875 487.285156 L 225.101562 487.285156 L 225.101562 508.414062 L 161.71875 508.414062 Z M 161.71875 487.285156 " clip-rule="nonzero"/></clipPath><clipPath id="08f5b95caf"><path d="M 0.71875 0.285156 L 64.101562 0.285156 L 64.101562 21.414062 L 0.71875 21.414062 Z M 0.71875 0.285156 " clip-rule="nonzero"/></clipPath><clipPath id="48fdd7e263"><rect x="0" width="65" y="0" height="22"/></clipPath><mask id="74102736c0"><g filter="url(#70ea815dd1)"><rect x="-128.583" width="610.416" fill="#000000" y="-231.503995" height="1099.007976" fill-opacity="0.66"/></g></mask><clipPath id="c323dfd9c9"><path d="M 0.71875 0.160156 L 64.101562 0.160156 L 64.101562 21.285156 L 0.71875 21.285156 Z M 0.71875 0.160156 " clip-rule="nonzero"/></clipPath><clipPath id="fe84db924d"><path d="M 0.71875 0.160156 L 64.101562 0.160156 L 64.101562 21.285156 L 0.71875 21.285156 Z M 0.71875 0.160156 " clip-rule="nonzero"/></clipPath><clipPath id="0d48b87a73"><rect x="0" width="65" y="0" height="22"/></clipPath><clipPath id="29bb6087c3"><rect x="0" width="65" y="0" height="22"/></clipPath><mask id="0953872119"><g filter="url(#70ea815dd1)"><rect x="-128.583" width="610.416" fill="#000000" y="-231.503995" height="1099.007976" fill-opacity="0.33"/></g></mask><clipPath id="27731911b9"><path d="M 0.71875 1.03125 L 64.101562 1.03125 L 64.101562 22.160156 L 0.71875 22.160156 Z M 0.71875 1.03125 " clip-rule="nonzero"/></clipPath><clipPath id="3a4d8cb361"><path d="M 0.71875 0.03125 L 64.101562 0.03125 L 64.101562 21.160156 L 0.71875 21.160156 Z M 0.71875 0.03125 " clip-rule="nonzero"/></clipPath><clipPath id="6d31021403"><rect x="0" width="65" y="0" height="22"/></clipPath><clipPath id="09d16c6075"><rect x="0" width="65" y="0" height="23"/></clipPath><clipPath id="913eaf2a6f"><path d="M 263.875 479.472656 L 270.871094 479.472656 L 270.871094 486.464844 L 263.875 486.464844 Z M 263.875 479.472656 " clip-rule="nonzero"/></clipPath><clipPath id="913a9b3308"><path d="M 267.375 486.464844 C 269.304688 486.464844 270.871094 484.898438 270.871094 482.96875 C 270.871094 481.039062 269.304688 479.472656 267.375 479.472656 C 265.441406 479.472656 263.875 481.039062 263.875 482.96875 C 263.875 484.898438 265.441406 486.464844 267.375 486.464844 Z M 267.375 486.464844 " clip-rule="nonzero"/></clipPath><clipPath id="65f64b16ec"><path d="M 0.875 0.472656 L 7.871094 0.472656 L 7.871094 7.464844 L 0.875 7.464844 Z M 0.875 0.472656 " clip-rule="nonzero"/></clipPath><clipPath id="5e5ef06507"><path d="M 4.375 7.464844 C 6.304688 7.464844 7.871094 5.898438 7.871094 3.96875 C 7.871094 2.039062 6.304688 0.472656 4.375 0.472656 C 2.441406 0.472656 0.875 2.039062 0.875 3.96875 C 0.875 5.898438 2.441406 7.464844 4.375 7.464844 Z M 4.375 7.464844 " clip-rule="nonzero"/></clipPath><clipPath id="e94aff3429"><rect x="0" width="8" y="0" height="8"/></clipPath><clipPath id="203de4161d"><path d="M 242.703125 479.472656 L 249.695312 479.472656 L 249.695312 486.464844 L 242.703125 486.464844 Z M 242.703125 479.472656 " clip-rule="nonzero"/></clipPath><clipPath id="cd42103ea6"><path d="M 246.199219 486.464844 C 248.132812 486.464844 249.695312 484.898438 249.695312 482.96875 C 249.695312 481.039062 248.132812 479.472656 246.199219 479.472656 C 244.269531 479.472656 242.703125 481.039062 242.703125 482.96875 C 242.703125 484.898438 244.269531 486.464844 246.199219 486.464844 Z M 246.199219 486.464844 " clip-rule="nonzero"/></clipPath><clipPath id="dfc13868a7"><path d="M 0.703125 0.472656 L 7.695312 0.472656 L 7.695312 7.464844 L 0.703125 7.464844 Z M 0.703125 0.472656 " clip-rule="nonzero"/></clipPath><clipPath id="d01dd7ecf2"><path d="M 4.199219 7.464844 C 6.132812 7.464844 7.695312 5.898438 7.695312 3.96875 C 7.695312 2.039062 6.132812 0.472656 4.199219 0.472656 C 2.269531 0.472656 0.703125 2.039062 0.703125 3.96875 C 0.703125 5.898438 2.269531 7.464844 4.199219 7.464844 Z M 4.199219 7.464844 " clip-rule="nonzero"/></clipPath><clipPath id="f4ecaf7f0c"><rect x="0" width="8" y="0" height="8"/></clipPath><clipPath id="2a1ee1154a"><path d="M 123.886719 128.90625 L 154.089844 128.90625 L 154.089844 145.929688 L 123.886719 145.929688 Z M 123.886719 128.90625 " clip-rule="nonzero"/></clipPath><clipPath id="d07660c548"><path d="M 144.03125 145.296875 C 142.492188 145.636719 140.726562 145.863281 139.003906 145.863281 C 137.277344 145.863281 135.617188 145.671875 134.085938 145.328125 C 134.054688 145.320312 134.023438 145.320312 133.988281 145.308594 C 128.242188 143.945312 124.011719 140.34375 123.929688 136.292969 L 123.929688 128.90625 L 154.089844 128.90625 L 154.089844 136.289062 C 154.007812 140.363281 149.84375 143.964844 144.03125 145.296875 Z M 144.03125 145.296875 " clip-rule="nonzero"/></clipPath><clipPath id="52db7dc60d"><path d="M 0.886719 0.90625 L 31.089844 0.90625 L 31.089844 17.929688 L 0.886719 17.929688 Z M 0.886719 0.90625 " clip-rule="nonzero"/></clipPath><clipPath id="399978a1d1"><path d="M 21.03125 17.296875 C 19.492188 17.636719 17.726562 17.863281 16.003906 17.863281 C 14.277344 17.863281 12.617188 17.671875 11.085938 17.328125 C 11.054688 17.320312 11.023438 17.320312 10.988281 17.308594 C 5.242188 15.945312 1.011719 12.34375 0.929688 8.292969 L 0.929688 0.90625 L 31.089844 0.90625 L 31.089844 8.289062 C 31.007812 12.363281 26.84375 15.964844 21.03125 17.296875 Z M 21.03125 17.296875 " clip-rule="nonzero"/></clipPath><clipPath id="d93781f746"><rect x="0" width="32" y="0" height="18"/></clipPath><clipPath id="69ceb5f2e0"><path d="M 129.234375 149.09375 L 148.785156 149.09375 L 148.785156 168.644531 L 129.234375 168.644531 Z M 129.234375 149.09375 " clip-rule="nonzero"/></clipPath><clipPath id="b26029080c"><path d="M 139.011719 168.644531 C 144.410156 168.644531 148.785156 164.269531 148.785156 158.871094 C 148.785156 153.472656 144.410156 149.09375 139.011719 149.09375 C 133.613281 149.09375 129.234375 153.472656 129.234375 158.871094 C 129.234375 164.269531 133.613281 168.644531 139.011719 168.644531 Z M 139.011719 168.644531 " clip-rule="nonzero"/></clipPath><clipPath id="a822d8ec30"><path d="M 0.234375 0.09375 L 19.785156 0.09375 L 19.785156 19.644531 L 0.234375 19.644531 Z M 0.234375 0.09375 " clip-rule="nonzero"/></clipPath><clipPath id="fe3fd294fa"><path d="M 10.011719 19.644531 C 15.410156 19.644531 19.785156 15.269531 19.785156 9.871094 C 19.785156 4.472656 15.410156 0.09375 10.011719 0.09375 C 4.613281 0.09375 0.234375 4.472656 0.234375 9.871094 C 0.234375 15.269531 4.613281 19.644531 10.011719 19.644531 Z M 10.011719 19.644531 " clip-rule="nonzero"/></clipPath><clipPath id="e881074905"><rect x="0" width="20" y="0" height="20"/></clipPath><clipPath id="cb4f9e6bbf"><path d="M 132.371094 176.066406 L 145.652344 176.066406 L 145.652344 189.351562 L 132.371094 189.351562 Z M 132.371094 176.066406 " clip-rule="nonzero"/></clipPath><clipPath id="8ad4dbabbf"><path d="M 139.011719 189.351562 C 142.679688 189.351562 145.652344 186.378906 145.652344 182.710938 C 145.652344 179.042969 142.679688 176.066406 139.011719 176.066406 C 135.34375 176.066406 132.371094 179.042969 132.371094 182.710938 C 132.371094 186.378906 135.34375 189.351562 139.011719 189.351562 Z M 139.011719 189.351562 " clip-rule="nonzero"/></clipPath><clipPath id="afc8ba2f0d"><path d="M 0.371094 0.0664062 L 13.652344 0.0664062 L 13.652344 13.351562 L 0.371094 13.351562 Z M 0.371094 0.0664062 " clip-rule="nonzero"/></clipPath><clipPath id="1b42bb76af"><path d="M 7.011719 13.351562 C 10.679688 13.351562 13.652344 10.378906 13.652344 6.710938 C 13.652344 3.042969 10.679688 0.0664062 7.011719 0.0664062 C 3.34375 0.0664062 0.371094 3.042969 0.371094 6.710938 C 0.371094 10.378906 3.34375 13.351562 7.011719 13.351562 Z M 7.011719 13.351562 " clip-rule="nonzero"/></clipPath><clipPath id="04a053767e"><rect x="0" width="14" y="0" height="14"/></clipPath><clipPath id="1b16e90735"><path d="M 120.59375 405.484375 L 157.429688 405.484375 L 157.429688 442.320312 L 120.59375 442.320312 Z M 120.59375 405.484375 " clip-rule="nonzero"/></clipPath><clipPath id="1aa807b4c5"><path d="M 139.011719 442.320312 L 135.433594 437.246094 L 129.800781 439.851562 L 129.242188 433.671875 L 123.058594 433.113281 L 125.667969 427.476562 L 120.59375 423.902344 L 125.667969 420.328125 L 123.058594 414.691406 L 129.242188 414.132812 L 129.800781 407.949219 L 135.433594 410.558594 L 139.011719 405.484375 L 142.585938 410.558594 L 148.21875 407.949219 L 148.777344 414.132812 L 154.960938 414.691406 L 152.355469 420.328125 L 157.429688 423.902344 L 152.355469 427.476562 L 154.960938 433.113281 L 148.777344 433.671875 L 148.21875 439.851562 L 142.585938 437.246094 Z M 139.011719 442.320312 " clip-rule="nonzero"/></clipPath><clipPath id="eef61f7ee3"><path d="M 0.59375 0.484375 L 37.429688 0.484375 L 37.429688 37.320312 L 0.59375 37.320312 Z M 0.59375 0.484375 " clip-rule="nonzero"/></clipPath><clipPath id="c54402f3ed"><path d="M 19.011719 37.320312 L 15.433594 32.246094 L 9.800781 34.851562 L 9.242188 28.671875 L 3.058594 28.113281 L 5.667969 22.476562 L 0.59375 18.902344 L 5.667969 15.328125 L 3.058594 9.691406 L 9.242188 9.132812 L 9.800781 2.949219 L 15.433594 5.558594 L 19.011719 0.484375 L 22.585938 5.558594 L 28.21875 2.949219 L 28.777344 9.132812 L 34.960938 9.691406 L 32.355469 15.328125 L 37.429688 18.902344 L 32.355469 22.476562 L 34.960938 28.113281 L 28.777344 28.671875 L 28.21875 34.851562 L 22.585938 32.246094 Z M 19.011719 37.320312 " clip-rule="nonzero"/></clipPath><clipPath id="148dfc14f6"><rect x="0" width="38" y="0" height="38"/></clipPath><clipPath id="de38a974a4"><path d="M 98.183594 399.742188 L 120.589844 399.742188 L 120.589844 422.152344 L 98.183594 422.152344 Z M 98.183594 399.742188 " clip-rule="nonzero"/></clipPath><clipPath id="0f3e2f1b9d"><path d="M 109.386719 422.152344 L 107.214844 419.0625 L 103.785156 420.648438 L 103.445312 416.890625 L 99.683594 416.550781 L 101.273438 413.121094 L 98.183594 410.945312 L 101.273438 408.773438 L 99.683594 405.34375 L 103.445312 405.003906 L 103.785156 401.246094 L 107.214844 402.832031 L 109.386719 399.742188 L 111.5625 402.832031 L 114.988281 401.246094 L 115.328125 405.003906 L 119.089844 405.34375 L 117.503906 408.773438 L 120.589844 410.945312 L 117.503906 413.121094 L 119.089844 416.550781 L 115.328125 416.890625 L 114.988281 420.648438 L 111.5625 419.0625 Z M 109.386719 422.152344 " clip-rule="nonzero"/></clipPath><clipPath id="3b3a8afe9e"><path d="M 0.183594 0.742188 L 22.589844 0.742188 L 22.589844 23.152344 L 0.183594 23.152344 Z M 0.183594 0.742188 " clip-rule="nonzero"/></clipPath><clipPath id="b7dd3f6d62"><path d="M 11.386719 23.152344 L 9.214844 20.0625 L 5.785156 21.648438 L 5.445312 17.890625 L 1.683594 17.550781 L 3.273438 14.121094 L 0.183594 11.945312 L 3.273438 9.773438 L 1.683594 6.34375 L 5.445312 6.003906 L 5.785156 2.246094 L 9.214844 3.832031 L 11.386719 0.742188 L 13.5625 3.832031 L 16.988281 2.246094 L 17.328125 6.003906 L 21.089844 6.34375 L 19.503906 9.773438 L 22.589844 11.945312 L 19.503906 14.121094 L 21.089844 17.550781 L 17.328125 17.890625 L 16.988281 21.648438 L 13.5625 20.0625 Z M 11.386719 23.152344 " clip-rule="nonzero"/></clipPath><clipPath id="453030f741"><rect x="0" width="23" y="0" height="24"/></clipPath><clipPath id="fe9a1e70b7"><path d="M 241.515625 278.796875 L 272.199219 278.796875 L 272.199219 309.480469 L 241.515625 309.480469 Z M 241.515625 278.796875 " clip-rule="nonzero"/></clipPath><clipPath id="5b188a823e"><path d="M 256.859375 309.480469 C 265.332031 309.480469 272.199219 302.613281 272.199219 294.140625 C 272.199219 285.667969 265.332031 278.796875 256.859375 278.796875 C 248.386719 278.796875 241.515625 285.667969 241.515625 294.140625 C 241.515625 302.613281 248.386719 309.480469 256.859375 309.480469 Z M 256.859375 309.480469 " clip-rule="nonzero"/></clipPath><clipPath id="234602c498"><path d="M 0.515625 0.796875 L 31.199219 0.796875 L 31.199219 31.480469 L 0.515625 31.480469 Z M 0.515625 0.796875 " clip-rule="nonzero"/></clipPath><clipPath id="b0a932a7ab"><path d="M 15.859375 31.480469 C 24.332031 31.480469 31.199219 24.613281 31.199219 16.140625 C 31.199219 7.667969 24.332031 0.796875 15.859375 0.796875 C 7.386719 0.796875 0.515625 7.667969 0.515625 16.140625 C 0.515625 24.613281 7.386719 31.480469 15.859375 31.480469 Z M 15.859375 31.480469 " clip-rule="nonzero"/></clipPath><clipPath id="bc2df85d12"><rect x="0" width="32" y="0" height="32"/></clipPath><clipPath id="a47fa3f2a2"><path d="M 161.792969 423.90625 L 225.171875 423.90625 L 225.171875 445.03125 L 161.792969 445.03125 Z M 161.792969 423.90625 " clip-rule="nonzero"/></clipPath><clipPath id="e2b144de78"><path d="M 0.792969 0.90625 L 64.171875 0.90625 L 64.171875 22.03125 L 0.792969 22.03125 Z M 0.792969 0.90625 " clip-rule="nonzero"/></clipPath><clipPath id="41a275a4b0"><rect x="0" width="65" y="0" height="23"/></clipPath><clipPath id="2b626d41b8"><path d="M 174.515625 402.773438 L 225.167969 402.773438 L 225.167969 423.902344 L 174.515625 423.902344 Z M 174.515625 402.773438 " clip-rule="nonzero"/></clipPath><clipPath id="3461a37aed"><path d="M 0.515625 0.773438 L 51.167969 0.773438 L 51.167969 21.902344 L 0.515625 21.902344 Z M 0.515625 0.773438 " clip-rule="nonzero"/></clipPath><clipPath id="b624258f46"><rect x="0" width="52" y="0" height="22"/></clipPath><clipPath id="a59fa02f93"><path d="M 188.519531 381.648438 L 225.171875 381.648438 L 225.171875 402.777344 L 188.519531 402.777344 Z M 188.519531 381.648438 " clip-rule="nonzero"/></clipPath><clipPath id="400518f657"><path d="M 0.519531 0.648438 L 37.171875 0.648438 L 37.171875 21.777344 L 0.519531 21.777344 Z M 0.519531 0.648438 " clip-rule="nonzero"/></clipPath><clipPath id="1ca72f37ba"><rect x="0" width="38" y="0" height="22"/></clipPath><mask id="042278eb9b"><g filter="url(#70ea815dd1)"><rect x="-128.583" width="610.416" fill="#000000" y="-231.503995" height="1099.007976" fill-opacity="0.5"/></g></mask><clipPath id="d87771d0e5"><path d="M 0.167969 0.957031 L 63.550781 0.957031 L 63.550781 32.648438 L 0.167969 32.648438 Z M 0.167969 0.957031 " clip-rule="nonzero"/></clipPath><clipPath id="7bc10a8d9f"><path d="M 0.167969 0.957031 L 63.550781 0.957031 L 63.550781 32.648438 L 0.167969 32.648438 Z M 0.167969 0.957031 " clip-rule="nonzero"/></clipPath><clipPath id="2fdfe34562"><rect x="0" width="64" y="0" height="33"/></clipPath><clipPath id="68e23432b1"><rect x="0" width="64" y="0" height="33"/></clipPath><mask id="4e3f888583"><g filter="url(#70ea815dd1)"><rect x="-128.583" width="610.416" fill="#000000" y="-231.503995" height="1099.007976" fill-opacity="0.33"/></g></mask><clipPath id="5c06d2ec88"><path d="M 0.421875 0.648438 L 21.550781 0.648438 L 21.550781 64.027344 L 0.421875 64.027344 Z M 0.421875 0.648438 " clip-rule="nonzero"/></clipPath><clipPath id="85343fcf20"><path d="M 0.421875 0.648438 L 21.550781 0.648438 L 21.550781 64.027344 L 0.421875 64.027344 Z M 0.421875 0.648438 " clip-rule="nonzero"/></clipPath><clipPath id="26208fe3d7"><rect x="0" width="22" y="0" height="65"/></clipPath><clipPath id="0c116c6922"><rect x="0" width="22" y="0" height="65"/></clipPath><mask id="581afabfed"><g filter="url(#70ea815dd1)"><rect x="-128.583" width="610.416" fill="#000000" y="-231.503995" height="1099.007976" fill-opacity="0.66"/></g></mask><clipPath id="1c99c67cb4"><path d="M 0.292969 0.648438 L 21.421875 0.648438 L 21.421875 64.027344 L 0.292969 64.027344 Z M 0.292969 0.648438 " clip-rule="nonzero"/></clipPath><clipPath id="890ee39fd8"><path d="M 0.292969 0.648438 L 21.421875 0.648438 L 21.421875 64.027344 L 0.292969 64.027344 Z M 0.292969 0.648438 " clip-rule="nonzero"/></clipPath><clipPath id="eec15ff7d2"><rect x="0" width="22" y="0" height="65"/></clipPath><clipPath id="a9c53269fc"><rect x="0" width="22" y="0" height="65"/></clipPath><clipPath id="3b15cd46f8"><path d="M 225.167969 381.648438 L 246.292969 381.648438 L 246.292969 445.03125 L 225.167969 445.03125 Z M 225.167969 381.648438 " clip-rule="nonzero"/></clipPath><clipPath id="ec6645b4fb"><path d="M 0.167969 0.648438 L 21.292969 0.648438 L 21.292969 64.03125 L 0.167969 64.03125 Z M 0.167969 0.648438 " clip-rule="nonzero"/></clipPath><clipPath id="a6e7118573"><rect x="0" width="22" y="0" height="65"/></clipPath><clipPath id="234a51ff3b"><path d="M 225.167969 318.265625 L 288.550781 318.265625 L 288.550781 349.957031 L 225.167969 349.957031 Z M 225.167969 318.265625 " clip-rule="nonzero"/></clipPath><clipPath id="3b5187a04b"><path d="M 0.167969 0.265625 L 63.550781 0.265625 L 63.550781 31.957031 L 0.167969 31.957031 Z M 0.167969 0.265625 " clip-rule="nonzero"/></clipPath><clipPath id="afa896d8f6"><rect x="0" width="64" y="0" height="32"/></clipPath><clipPath id="e6846e264c"><path d="M 172.710938 286.527344 L 204.332031 286.527344 L 204.332031 318.269531 L 172.710938 318.269531 Z M 172.710938 286.527344 " clip-rule="nonzero"/></clipPath><clipPath id="813a756e03"><path d="M 172.710938 318.269531 C 172.710938 309.945312 176.085938 301.800781 181.972656 295.910156 C 187.863281 290.023438 196.003906 286.648438 204.332031 286.648438 L 204.332031 318.269531 Z M 172.710938 318.269531 " clip-rule="nonzero"/></clipPath><clipPath id="3fe772973e"><path d="M 0.710938 0.625 L 32.332031 0.625 L 32.332031 32.269531 L 0.710938 32.269531 Z M 0.710938 0.625 " clip-rule="nonzero"/></clipPath><clipPath id="ac35a3bf57"><path d="M 0.710938 32.269531 C 0.710938 23.945312 4.085938 15.800781 9.972656 9.910156 C 15.863281 4.023438 24.003906 0.648438 32.332031 0.648438 L 32.332031 32.269531 Z M 0.710938 32.269531 " clip-rule="nonzero"/></clipPath><clipPath id="f83e0dfb91"><rect x="0" width="33" y="0" height="33"/></clipPath><clipPath id="a621d2ac21"><path d="M 183.546875 297.40625 L 204.328125 297.40625 L 204.328125 318.269531 L 183.546875 318.269531 Z M 183.546875 297.40625 " clip-rule="nonzero"/></clipPath><clipPath id="384e125cec"><path d="M 183.546875 318.269531 C 183.546875 312.792969 185.761719 307.441406 189.632812 303.574219 C 193.503906 299.703125 198.855469 297.484375 204.328125 297.484375 L 204.328125 318.269531 Z M 183.546875 318.269531 " clip-rule="nonzero"/></clipPath><clipPath id="fdef38c69d"><path d="M 0.546875 0.40625 L 21.328125 0.40625 L 21.328125 21.269531 L 0.546875 21.269531 Z M 0.546875 0.40625 " clip-rule="nonzero"/></clipPath><clipPath id="42d6a94827"><path d="M 0.546875 21.269531 C 0.546875 15.792969 2.761719 10.441406 6.632812 6.574219 C 10.503906 2.703125 15.855469 0.484375 21.328125 0.484375 L 21.328125 21.269531 Z M 0.546875 21.269531 " clip-rule="nonzero"/></clipPath><clipPath id="ca9abed64e"><rect x="0" width="22" y="0" height="22"/></clipPath><clipPath id="543eb19599"><path d="M 204.039062 275.738281 L 225.167969 275.738281 L 225.167969 381.648438 L 204.039062 381.648438 Z M 204.039062 275.738281 " clip-rule="nonzero"/></clipPath><clipPath id="4492ac8dc3"><path d="M 0.0390625 0.738281 L 21.167969 0.738281 L 21.167969 106.648438 L 0.0390625 106.648438 Z M 0.0390625 0.738281 " clip-rule="nonzero"/></clipPath><clipPath id="301d96a920"><rect x="0" width="22" y="0" height="107"/></clipPath><clipPath id="3b0897dda7"><path d="M 141 317.714844 L 204.328125 317.714844 L 204.328125 349.957031 L 141 349.957031 Z M 141 317.714844 " clip-rule="nonzero"/></clipPath><clipPath id="2025ec8a3d"><path d="M 141.082031 317.714844 C 141.082031 335.277344 155.480469 349.957031 172.707031 349.957031 C 189.929688 349.957031 204.328125 335.277344 204.328125 317.714844 Z M 141.082031 317.714844 " clip-rule="nonzero"/></clipPath><clipPath id="d7a63fc298"><path d="M 0.0585938 0.714844 L 63.328125 0.714844 L 63.328125 32.957031 L 0.0585938 32.957031 Z M 0.0585938 0.714844 " clip-rule="nonzero"/></clipPath><clipPath id="6ca11f82f1"><path d="M 0.0820312 0.714844 C 0.0820312 18.277344 14.480469 32.957031 31.707031 32.957031 C 48.929688 32.957031 63.328125 18.277344 63.328125 0.714844 Z M 0.0820312 0.714844 " clip-rule="nonzero"/></clipPath><clipPath id="89039bba69"><rect x="0" width="64" y="0" height="33"/></clipPath><clipPath id="97bd8d7e58"><path d="M 225.097656 508.410156 L 256.785156 508.410156 L 256.785156 571.792969 L 225.097656 571.792969 Z M 225.097656 508.410156 " clip-rule="nonzero"/></clipPath><clipPath id="8a640c1b73"><path d="M 0.0976562 0.410156 L 31.785156 0.410156 L 31.785156 63.792969 L 0.0976562 63.792969 Z M 0.0976562 0.410156 " clip-rule="nonzero"/></clipPath><clipPath id="ccfcfed627"><rect x="0" width="32" y="0" height="64"/></clipPath><clipPath id="ea169cf79d"><path d="M 128.113281 571.558594 L 162.910156 571.558594 L 162.910156 635.171875 L 128.113281 635.171875 Z M 128.113281 571.558594 " clip-rule="nonzero"/></clipPath><clipPath id="98db3303e5"><path d="M 162.910156 571.6875 C 143.957031 571.6875 128.113281 586.140625 128.113281 603.429688 C 128.113281 620.71875 143.957031 635.171875 162.910156 635.171875 Z M 162.910156 571.6875 " clip-rule="nonzero"/></clipPath><clipPath id="a5d53c5529"><path d="M 0.113281 0.621094 L 34.910156 0.621094 L 34.910156 64.171875 L 0.113281 64.171875 Z M 0.113281 0.621094 " clip-rule="nonzero"/></clipPath><clipPath id="d6fd357b43"><path d="M 34.910156 0.6875 C 15.957031 0.6875 0.113281 15.140625 0.113281 32.429688 C 0.113281 49.71875 15.957031 64.171875 34.910156 64.171875 Z M 34.910156 0.6875 " clip-rule="nonzero"/></clipPath><clipPath id="af67a338a3"><rect x="0" width="35" y="0" height="65"/></clipPath><clipPath id="5c04d3f1c2"><path d="M 161.714844 571.792969 L 225.097656 571.792969 L 225.097656 635.175781 L 161.714844 635.175781 Z M 161.714844 571.792969 " clip-rule="nonzero"/></clipPath><clipPath id="d4f8f61276"><path d="M 0.714844 0.792969 L 64.097656 0.792969 L 64.097656 64.175781 L 0.714844 64.175781 Z M 0.714844 0.792969 " clip-rule="nonzero"/></clipPath><clipPath id="dee1ea7258"><rect x="0" width="65" y="0" height="65"/></clipPath><clipPath id="6ff67e7610"><path d="M 256.785156 508.304688 L 288.476562 508.304688 L 288.476562 571.6875 L 256.785156 571.6875 Z M 256.785156 508.304688 " clip-rule="nonzero"/></clipPath><clipPath id="6c96d67400"><path d="M 0.785156 0.304688 L 32.476562 0.304688 L 32.476562 63.6875 L 0.785156 63.6875 Z M 0.785156 0.304688 " clip-rule="nonzero"/></clipPath><clipPath id="922f259cd5"><rect x="0" width="33" y="0" height="64"/></clipPath><clipPath id="58041ff800"><path d="M 193.410156 540.050781 L 225.03125 540.050781 L 225.03125 571.796875 L 193.410156 571.796875 Z M 193.410156 540.050781 " clip-rule="nonzero"/></clipPath><clipPath id="a305e8abe2"><path d="M 193.410156 571.796875 C 193.410156 563.46875 196.785156 555.328125 202.671875 549.4375 C 208.5625 543.550781 216.703125 540.175781 225.03125 540.175781 L 225.03125 571.796875 Z M 193.410156 571.796875 " clip-rule="nonzero"/></clipPath><clipPath id="0d26f1d4b9"><path d="M 0.410156 0.0507812 L 32.03125 0.0507812 L 32.03125 31.796875 L 0.410156 31.796875 Z M 0.410156 0.0507812 " clip-rule="nonzero"/></clipPath><clipPath id="5ff22d10f4"><path d="M 0.410156 31.796875 C 0.410156 23.46875 3.785156 15.328125 9.671875 9.4375 C 15.5625 3.550781 23.703125 0.175781 32.03125 0.175781 L 32.03125 31.796875 Z M 0.410156 31.796875 " clip-rule="nonzero"/></clipPath><clipPath id="41de6176e6"><rect x="0" width="33" y="0" height="32"/></clipPath><clipPath id="0c1a71f55d"><path d="M 204.246094 551 L 225.027344 551 L 225.027344 571.792969 L 204.246094 571.792969 Z M 204.246094 551 " clip-rule="nonzero"/></clipPath><clipPath id="7c246ee5e4"><path d="M 204.246094 571.792969 C 204.246094 566.320312 206.464844 560.96875 210.332031 557.097656 C 214.203125 553.230469 219.554688 551.011719 225.027344 551.011719 L 225.027344 571.792969 Z M 204.246094 571.792969 " clip-rule="nonzero"/></clipPath><clipPath id="d7c2e9cce9"><path d="M 0.246094 0 L 21.027344 0 L 21.027344 20.792969 L 0.246094 20.792969 Z M 0.246094 0 " clip-rule="nonzero"/></clipPath><clipPath id="bdcedc7c00"><path d="M 0.246094 20.792969 C 0.246094 15.320312 2.464844 9.96875 6.332031 6.097656 C 10.203125 2.230469 15.554688 0.0117188 21.027344 0.0117188 L 21.027344 20.792969 Z M 0.246094 20.792969 " clip-rule="nonzero"/></clipPath><clipPath id="98d2b26eef"><rect x="0" width="22" y="0" height="21"/></clipPath><clipPath id="3f2b8788ab"><path d="M 78.277344 581.921875 L 121.210938 581.921875 L 121.210938 624.855469 L 78.277344 624.855469 Z M 78.277344 581.921875 " clip-rule="nonzero"/></clipPath><clipPath id="9ecf135596"><path d="M 99.742188 581.921875 C 87.886719 581.921875 78.277344 591.53125 78.277344 603.386719 C 78.277344 615.246094 87.886719 624.855469 99.742188 624.855469 C 111.601562 624.855469 121.210938 615.246094 121.210938 603.386719 C 121.210938 591.53125 111.601562 581.921875 99.742188 581.921875 Z M 99.742188 581.921875 " clip-rule="nonzero"/></clipPath><clipPath id="fa7dde88c5"><path d="M 0.277344 0.921875 L 43.210938 0.921875 L 43.210938 43.855469 L 0.277344 43.855469 Z M 0.277344 0.921875 " clip-rule="nonzero"/></clipPath><clipPath id="c59e3b2156"><path d="M 21.742188 0.921875 C 9.886719 0.921875 0.277344 10.53125 0.277344 22.386719 C 0.277344 34.246094 9.886719 43.855469 21.742188 43.855469 C 33.601562 43.855469 43.210938 34.246094 43.210938 22.386719 C 43.210938 10.53125 33.601562 0.921875 21.742188 0.921875 Z M 21.742188 0.921875 " clip-rule="nonzero"/></clipPath><clipPath id="752912dd25"><rect x="0" width="44" y="0" height="44"/></clipPath><clipPath id="a2ef830934"><path d="M 55.804688 445.035156 L 161.710938 445.035156 L 161.710938 466.160156 L 55.804688 466.160156 Z M 55.804688 445.035156 " clip-rule="nonzero"/></clipPath><clipPath id="a405c6f6d1"><path d="M 0.804688 0.0351562 L 106.710938 0.0351562 L 106.710938 21.160156 L 0.804688 21.160156 Z M 0.804688 0.0351562 " clip-rule="nonzero"/></clipPath><clipPath id="65c381ec7a"><rect x="0" width="107" y="0" height="22"/></clipPath><clipPath id="06790070b4"><path d="M 288.554688 296.589844 L 351.9375 296.589844 L 351.9375 317.71875 L 288.554688 317.71875 Z M 288.554688 296.589844 " clip-rule="nonzero"/></clipPath><clipPath id="6bb031b0b5"><path d="M 0.554688 0.589844 L 63.9375 0.589844 L 63.9375 21.71875 L 0.554688 21.71875 Z M 0.554688 0.589844 " clip-rule="nonzero"/></clipPath><clipPath id="2bc535fb7a"><rect x="0" width="64" y="0" height="22"/></clipPath><mask id="1b807ffdb4"><g filter="url(#70ea815dd1)"><rect x="-128.583" width="610.416" fill="#000000" y="-231.503995" height="1099.007976" fill-opacity="0.66"/></g></mask><clipPath id="7c40129a2d"><path d="M 0.6875 0.460938 L 51.339844 0.460938 L 51.339844 21.585938 L 0.6875 21.585938 Z M 0.6875 0.460938 " clip-rule="nonzero"/></clipPath><clipPath id="34e60903d5"><path d="M 0.6875 0.460938 L 51.339844 0.460938 L 51.339844 21.585938 L 0.6875 21.585938 Z M 0.6875 0.460938 " clip-rule="nonzero"/></clipPath><clipPath id="2020017718"><rect x="0" width="52" y="0" height="22"/></clipPath><clipPath id="7e5ade30ed"><rect x="0" width="52" y="0" height="22"/></clipPath><mask id="f8af74849b"><g filter="url(#70ea815dd1)"><rect x="-128.583" width="610.416" fill="#000000" y="-231.503995" height="1099.007976" fill-opacity="0.33"/></g></mask><clipPath id="73f12e87ec"><path d="M 0.554688 0.441406 L 37.203125 0.441406 L 37.203125 21.566406 L 0.554688 21.566406 Z M 0.554688 0.441406 " clip-rule="nonzero"/></clipPath><clipPath id="ca68ee9072"><path d="M 0.554688 0.441406 L 37.203125 0.441406 L 37.203125 21.566406 L 0.554688 21.566406 Z M 0.554688 0.441406 " clip-rule="nonzero"/></clipPath><clipPath id="6ad495a5b5"><rect x="0" width="38" y="0" height="22"/></clipPath><clipPath id="99f8022273"><rect x="0" width="38" y="0" height="22"/></clipPath><clipPath id="c03eb954e3"><path d="M 14.707031 216.382812 L 32.34375 216.382812 L 32.34375 234.019531 L 14.707031 234.019531 Z M 14.707031 216.382812 " clip-rule="nonzero"/></clipPath><clipPath id="6b66eea47e"><path d="M 32.34375 225.203125 C 32.34375 220.332031 28.394531 216.382812 23.523438 216.382812 C 18.652344 216.382812 14.707031 220.332031 14.707031 225.203125 C 14.707031 230.074219 18.652344 234.019531 23.523438 234.019531 C 28.394531 234.019531 32.34375 230.074219 32.34375 225.203125 Z M 32.34375 225.203125 " clip-rule="nonzero"/></clipPath><clipPath id="39a56f3518"><path d="M 0.707031 0.382812 L 18.34375 0.382812 L 18.34375 18.019531 L 0.707031 18.019531 Z M 0.707031 0.382812 " clip-rule="nonzero"/></clipPath><clipPath id="f25f9cb5e5"><path d="M 18.34375 9.203125 C 18.34375 4.332031 14.394531 0.382812 9.523438 0.382812 C 4.652344 0.382812 0.707031 4.332031 0.707031 9.203125 C 0.707031 14.074219 4.652344 18.019531 9.523438 18.019531 C 14.394531 18.019531 18.34375 14.074219 18.34375 9.203125 Z M 18.34375 9.203125 " clip-rule="nonzero"/></clipPath><clipPath id="86c90d6246"><rect x="0" width="19" y="0" height="19"/></clipPath><clipPath id="f8be76a90b"><path d="M 42.339844 216.382812 L 59.976562 216.382812 L 59.976562 234.019531 L 42.339844 234.019531 Z M 42.339844 216.382812 " clip-rule="nonzero"/></clipPath><clipPath id="b88279e0fe"><path d="M 59.976562 225.203125 C 59.976562 220.332031 56.027344 216.382812 51.15625 216.382812 C 46.285156 216.382812 42.339844 220.332031 42.339844 225.203125 C 42.339844 230.074219 46.285156 234.019531 51.15625 234.019531 C 56.027344 234.019531 59.976562 230.074219 59.976562 225.203125 Z M 59.976562 225.203125 " clip-rule="nonzero"/></clipPath><clipPath id="4b69c226bf"><path d="M 0.339844 0.382812 L 17.976562 0.382812 L 17.976562 18.019531 L 0.339844 18.019531 Z M 0.339844 0.382812 " clip-rule="nonzero"/></clipPath><clipPath id="363191f368"><path d="M 17.976562 9.203125 C 17.976562 4.332031 14.027344 0.382812 9.15625 0.382812 C 4.285156 0.382812 0.339844 4.332031 0.339844 9.203125 C 0.339844 14.074219 4.285156 18.019531 9.15625 18.019531 C 14.027344 18.019531 17.976562 14.074219 17.976562 9.203125 Z M 17.976562 9.203125 " clip-rule="nonzero"/></clipPath><clipPath id="4155899889"><rect x="0" width="18" y="0" height="19"/></clipPath><mask id="900b48b99d"><g filter="url(#70ea815dd1)"><rect x="-128.583" width="610.416" fill="#000000" y="-231.503995" height="1099.007976" fill-opacity="0.5"/></g></mask><clipPath id="20d52cdecf"><path d="M 13 12 L 67 12 L 67 67 L 13 67 Z M 13 12 " clip-rule="nonzero"/></clipPath><clipPath id="9eb9376b60"><path d="M 78.960938 39.75 L 39.933594 78.777344 L 0.90625 39.75 L 39.933594 0.722656 Z M 78.960938 39.75 " clip-rule="nonzero"/></clipPath><clipPath id="86981c9829"><path d="M 52.128906 66.582031 L 66.765625 51.945312 L 54.570312 39.75 L 66.765625 27.554688 L 52.128906 12.917969 L 39.933594 25.113281 L 27.738281 12.917969 L 13.105469 27.554688 L 25.300781 39.75 L 13.105469 51.945312 L 27.738281 66.582031 L 39.933594 54.382812 Z M 52.128906 66.582031 " clip-rule="nonzero"/></clipPath><clipPath id="1a06047edb"><path d="M 0 0.6875 L 53.8125 0.6875 L 53.8125 54.8125 L 0 54.8125 Z M 0 0.6875 " clip-rule="nonzero"/></clipPath><clipPath id="469c2b1f5a"><path d="M 65.960938 27.75 L 26.933594 66.777344 L -12.09375 27.75 L 26.933594 -11.277344 Z M 65.960938 27.75 " clip-rule="nonzero"/></clipPath><clipPath id="62704ed3e3"><path d="M 39.128906 54.582031 L 53.765625 39.945312 L 41.570312 27.75 L 53.765625 15.554688 L 39.128906 0.917969 L 26.933594 13.113281 L 14.738281 0.917969 L 0.105469 15.554688 L 12.300781 27.75 L 0.105469 39.945312 L 14.738281 54.582031 L 26.933594 42.382812 Z M 39.128906 54.582031 " clip-rule="nonzero"/></clipPath><clipPath id="71302c81d9"><rect x="0" width="54" y="0" height="55"/></clipPath><clipPath id="653e4a9a57"><rect x="0" width="80" y="0" height="79"/></clipPath><clipPath id="4abef6ad6b"><path d="M 225.027344 190.816406 L 288.410156 190.816406 L 288.410156 254.199219 L 225.027344 254.199219 Z M 225.027344 190.816406 " clip-rule="nonzero"/></clipPath><clipPath id="fd8443ed05"><path d="M 0.0273438 0.816406 L 63.410156 0.816406 L 63.410156 64.199219 L 0.0273438 64.199219 Z M 0.0273438 0.816406 " clip-rule="nonzero"/></clipPath><clipPath id="957d16ffed"><rect x="0" width="64" y="0" height="65"/></clipPath><clipPath id="29e8306263"><path d="M 225.023438 127.441406 L 288.40625 127.441406 L 288.40625 148.570312 L 225.023438 148.570312 Z M 225.023438 127.441406 " clip-rule="nonzero"/></clipPath><clipPath id="f6b15f9b6c"><path d="M 0.0234375 0.441406 L 63.40625 0.441406 L 63.40625 21.570312 L 0.0234375 21.570312 Z M 0.0234375 0.441406 " clip-rule="nonzero"/></clipPath><clipPath id="56231ce935"><rect x="0" width="64" y="0" height="22"/></clipPath><mask id="1ac675d26f"><g filter="url(#70ea815dd1)"><rect x="-128.583" width="610.416" fill="#000000" y="-231.503995" height="1099.007976" fill-opacity="0.66"/></g></mask><clipPath id="f9eddd6015"><path d="M 1.023438 0.570312 L 64.40625 0.570312 L 64.40625 21.695312 L 1.023438 21.695312 Z M 1.023438 0.570312 " clip-rule="nonzero"/></clipPath><clipPath id="909be16c0a"><path d="M 0.0234375 0.570312 L 63.40625 0.570312 L 63.40625 21.695312 L 0.0234375 21.695312 Z M 0.0234375 0.570312 " clip-rule="nonzero"/></clipPath><clipPath id="747301a895"><rect x="0" width="64" y="0" height="22"/></clipPath><clipPath id="f37fa99450"><rect x="0" width="65" y="0" height="22"/></clipPath><mask id="4111742999"><g filter="url(#70ea815dd1)"><rect x="-128.583" width="610.416" fill="#000000" y="-231.503995" height="1099.007976" fill-opacity="0.33"/></g></mask><clipPath id="39dcba9d2a"><path d="M 1.023438 0.695312 L 64.40625 0.695312 L 64.40625 21.824219 L 1.023438 21.824219 Z M 1.023438 0.695312 " clip-rule="nonzero"/></clipPath><clipPath id="4274b25376"><path d="M 0.0234375 0.695312 L 63.40625 0.695312 L 63.40625 21.824219 L 0.0234375 21.824219 Z M 0.0234375 0.695312 " clip-rule="nonzero"/></clipPath><clipPath id="3ebf834c46"><rect x="0" width="64" y="0" height="22"/></clipPath><clipPath id="83d29c57d4"><rect x="0" width="65" y="0" height="22"/></clipPath><clipPath id="43871307c0"><path d="M 161.644531 127.4375 L 225.027344 127.4375 L 225.027344 190.816406 L 161.644531 190.816406 Z M 161.644531 127.4375 " clip-rule="nonzero"/></clipPath><clipPath id="7e6b283a1b"><path d="M 0.644531 0.4375 L 64.027344 0.4375 L 64.027344 63.816406 L 0.644531 63.816406 Z M 0.644531 0.4375 " clip-rule="nonzero"/></clipPath><clipPath id="59dcf990f9"><rect x="0" width="65" y="0" height="64"/></clipPath><clipPath id="5f207a2bd3"><path d="M 288.6875 64.054688 L 352.070312 64.054688 L 352.070312 127.4375 L 288.6875 127.4375 Z M 288.6875 64.054688 " clip-rule="nonzero"/></clipPath><clipPath id="e36060a04f"><path d="M 288.6875 64.054688 L 352.070312 64.054688 L 352.070312 127.4375 Z M 288.6875 64.054688 " clip-rule="nonzero"/></clipPath><clipPath id="20703453d3"><path d="M 0.6875 0.0546875 L 64.070312 0.0546875 L 64.070312 63.4375 L 0.6875 63.4375 Z M 0.6875 0.0546875 " clip-rule="nonzero"/></clipPath><clipPath id="454f7aa7c9"><path d="M 0.6875 0.0546875 L 64.070312 0.0546875 L 64.070312 63.4375 Z M 0.6875 0.0546875 " clip-rule="nonzero"/></clipPath><clipPath id="e7b6364cd7"><rect x="0" width="65" y="0" height="64"/></clipPath><clipPath id="22349a1e16"><path d="M 288.695312 64.0625 L 352.078125 64.0625 L 352.078125 127.445312 L 288.695312 127.445312 Z M 288.695312 64.0625 " clip-rule="nonzero"/></clipPath><clipPath id="c23db040a0"><path d="M 352.078125 127.445312 L 288.695312 127.445312 L 288.695312 64.0625 Z M 352.078125 127.445312 " clip-rule="nonzero"/></clipPath><clipPath id="69b3b5a00f"><path d="M 0.695312 0.0625 L 64.078125 0.0625 L 64.078125 63.445312 L 0.695312 63.445312 Z M 0.695312 0.0625 " clip-rule="nonzero"/></clipPath><clipPath id="8c91551ffd"><path d="M 64.078125 63.445312 L 0.695312 63.445312 L 0.695312 0.0625 Z M 64.078125 63.445312 " clip-rule="nonzero"/></clipPath><clipPath id="e9e5120f3f"><rect x="0" width="65" y="0" height="64"/></clipPath><clipPath id="bf6da5935f"><path d="M 140.4375 191.058594 L 161.566406 191.058594 L 161.566406 254.4375 L 140.4375 254.4375 Z M 140.4375 191.058594 " clip-rule="nonzero"/></clipPath><clipPath id="d8e8d7aecb"><path d="M 0.4375 0.0585938 L 21.566406 0.0585938 L 21.566406 63.4375 L 0.4375 63.4375 Z M 0.4375 0.0585938 " clip-rule="nonzero"/></clipPath><clipPath id="1aed74d2f5"><rect x="0" width="22" y="0" height="64"/></clipPath><clipPath id="bcc70a8178"><path d="M 119.3125 191.058594 L 140.4375 191.058594 L 140.4375 241.710938 L 119.3125 241.710938 Z M 119.3125 191.058594 " clip-rule="nonzero"/></clipPath><clipPath id="ed917e0d06"><path d="M 0.3125 0.0585938 L 21.4375 0.0585938 L 21.4375 50.710938 L 0.3125 50.710938 Z M 0.3125 0.0585938 " clip-rule="nonzero"/></clipPath><clipPath id="dd0a6015ee"><rect x="0" width="22" y="0" height="51"/></clipPath><clipPath id="7526593581"><path d="M 98.183594 191.058594 L 119.3125 191.058594 L 119.3125 227.707031 L 98.183594 227.707031 Z M 98.183594 191.058594 " clip-rule="nonzero"/></clipPath><clipPath id="c897c76d8f"><path d="M 0.183594 0.0585938 L 21.3125 0.0585938 L 21.3125 36.707031 L 0.183594 36.707031 Z M 0.183594 0.0585938 " clip-rule="nonzero"/></clipPath><clipPath id="a10e3828ba"><rect x="0" width="22" y="0" height="37"/></clipPath><clipPath id="202a977b26"><path d="M 0 226.785156 L 139.011719 226.785156 L 139.011719 365.800781 L 0 365.800781 Z M 0 226.785156 " clip-rule="nonzero"/></clipPath><clipPath id="0fad269037"><path d="M 69.503906 365.800781 L 56.011719 346.648438 L 34.75 356.488281 L 32.640625 333.15625 L 9.308594 331.046875 L 19.148438 309.785156 L -0.00390625 296.292969 L 19.148438 282.800781 L 9.308594 261.539062 L 32.640625 259.433594 L 34.75 236.097656 L 56.011719 245.9375 L 69.503906 226.785156 L 82.996094 245.9375 L 104.257812 236.097656 L 106.363281 259.433594 L 129.699219 261.539062 L 119.855469 282.800781 L 139.011719 296.292969 L 119.855469 309.785156 L 129.699219 331.046875 L 106.363281 333.15625 L 104.257812 356.488281 L 82.996094 346.648438 Z M 69.503906 365.800781 " clip-rule="nonzero"/></clipPath><clipPath id="3ceeaa08ac"><path d="M 0 0.785156 L 139.011719 0.785156 L 139.011719 139.800781 L 0 139.800781 Z M 0 0.785156 " clip-rule="nonzero"/></clipPath><clipPath id="0af729eecc"><path d="M 69.503906 139.800781 L 56.011719 120.648438 L 34.75 130.488281 L 32.640625 107.15625 L 9.308594 105.046875 L 19.148438 83.785156 L -0.00390625 70.292969 L 19.148438 56.800781 L 9.308594 35.539062 L 32.640625 33.433594 L 34.75 10.097656 L 56.011719 19.9375 L 69.503906 0.785156 L 82.996094 19.9375 L 104.257812 10.097656 L 106.363281 33.433594 L 129.699219 35.539062 L 119.855469 56.800781 L 139.011719 70.292969 L 119.855469 83.785156 L 129.699219 105.046875 L 106.363281 107.15625 L 104.257812 130.488281 L 82.996094 120.648438 Z M 69.503906 139.800781 " clip-rule="nonzero"/></clipPath><clipPath id="cfcc558e95"><rect x="0" width="140" y="0" height="140"/></clipPath><clipPath id="ada2033955"><path d="M 288 444 L 352.292969 444 L 352.292969 509 L 288 509 Z M 288 444 " clip-rule="nonzero"/></clipPath><mask id="1ccd776734"><g filter="url(#70ea815dd1)"><rect x="-128.583" width="610.416" fill="#000000" y="-231.503995" height="1099.007976" fill-opacity="0.33"/></g></mask><clipPath id="afebf88f29"><path d="M 0.695312 1.03125 L 64.074219 1.03125 L 64.074219 64.308594 L 0.695312 64.308594 Z M 0.695312 1.03125 " clip-rule="nonzero"/></clipPath><clipPath id="895aaaa225"><path d="M 0.695312 0.03125 L 64 0.03125 L 64 63.308594 L 0.695312 63.308594 Z M 0.695312 0.03125 " clip-rule="nonzero"/></clipPath><clipPath id="5ec9a43bd9"><rect x="0" width="65" y="0" height="64"/></clipPath><clipPath id="330efac380"><rect x="0" width="65" y="0" height="65"/></clipPath><clipPath id="49c61e4dad"><path d="M 267.558594 64.054688 L 288.6875 64.054688 L 288.6875 127.4375 L 267.558594 127.4375 Z M 267.558594 64.054688 " clip-rule="nonzero"/></clipPath><clipPath id="dbc0f2c1cf"><path d="M 0.558594 0.0546875 L 21.6875 0.0546875 L 21.6875 63.4375 L 0.558594 63.4375 Z M 0.558594 0.0546875 " clip-rule="nonzero"/></clipPath><clipPath id="a332158f55"><rect x="0" width="22" y="0" height="64"/></clipPath><mask id="adf3d360e5"><g filter="url(#70ea815dd1)"><rect x="-128.583" width="610.416" fill="#000000" y="-231.503995" height="1099.007976" fill-opacity="0.66"/></g></mask><clipPath id="eef6ce995b"><path d="M 0.433594 0.785156 L 21.558594 0.785156 L 21.558594 51.4375 L 0.433594 51.4375 Z M 0.433594 0.785156 " clip-rule="nonzero"/></clipPath><clipPath id="cd6f0918f3"><path d="M 0.433594 0.785156 L 21.558594 0.785156 L 21.558594 51.4375 L 0.433594 51.4375 Z M 0.433594 0.785156 " clip-rule="nonzero"/></clipPath><clipPath id="3fa719e05f"><rect x="0" width="22" y="0" height="52"/></clipPath><clipPath id="875fef2b27"><rect x="0" width="22" y="0" height="52"/></clipPath><mask id="ddfe42f5ad"><g filter="url(#70ea815dd1)"><rect x="-128.583" width="610.416" fill="#000000" y="-231.503995" height="1099.007976" fill-opacity="0.33"/></g></mask><clipPath id="6694cba3a1"><path d="M 0.273438 0.785156 L 21.398438 0.785156 L 21.398438 37.4375 L 0.273438 37.4375 Z M 0.273438 0.785156 " clip-rule="nonzero"/></clipPath><clipPath id="f329bbbfaf"><path d="M 0.273438 0.785156 L 21.398438 0.785156 L 21.398438 37.4375 L 0.273438 37.4375 Z M 0.273438 0.785156 " clip-rule="nonzero"/></clipPath><clipPath id="39cbe6de9b"><rect x="0" width="22" y="0" height="38"/></clipPath><clipPath id="3136b3572a"><rect x="0" width="22" y="0" height="38"/></clipPath><clipPath id="e8732abb92"><path d="M 224 0.671875 L 289 0.671875 L 289 65 L 224 65 Z M 224 0.671875 " clip-rule="nonzero"/></clipPath><mask id="0792d83f93"><g filter="url(#70ea815dd1)"><rect x="-128.583" width="610.416" fill="#000000" y="-231.503995" height="1099.007976" fill-opacity="0.5"/></g></mask><clipPath id="8d43655d2f"><path d="M 1.027344 0.671875 L 64.410156 0.671875 L 64.410156 64.054688 L 1.027344 64.054688 Z M 1.027344 0.671875 " clip-rule="nonzero"/></clipPath><clipPath id="5b5b68a806"><path d="M 0.0273438 0.671875 L 63.410156 0.671875 L 63.410156 64.054688 L 0.0273438 64.054688 Z M 0.0273438 0.671875 " clip-rule="nonzero"/></clipPath><clipPath id="10a8a4de90"><rect x="0" width="64" y="0" height="65"/></clipPath><clipPath id="208f3b98eb"><rect x="0" width="65" y="0" height="65"/></clipPath><clipPath id="c817ad9da7"><path d="M 162.910156 0.671875 L 225.570312 0.671875 L 225.570312 64.140625 L 162.910156 64.140625 Z M 162.910156 0.671875 " clip-rule="nonzero"/></clipPath><clipPath id="d2654943f7"><path d="M 162.910156 64.058594 C 162.910156 47.382812 169.59375 31.078125 181.261719 19.289062 C 192.933594 7.5 209.070312 0.746094 225.570312 0.746094 L 225.570312 64.058594 Z M 162.910156 64.058594 " clip-rule="nonzero"/></clipPath><clipPath id="192272abeb"><path d="M 0.910156 0.671875 L 63.570312 0.671875 L 63.570312 64.140625 L 0.910156 64.140625 Z M 0.910156 0.671875 " clip-rule="nonzero"/></clipPath><clipPath id="ed214f0bad"><path d="M 0.910156 64.058594 C 0.910156 47.382812 7.59375 31.078125 19.261719 19.289062 C 30.933594 7.5 47.070312 0.746094 63.570312 0.746094 L 63.570312 64.058594 Z M 0.910156 64.058594 " clip-rule="nonzero"/></clipPath><clipPath id="5632077011"><rect x="0" width="64" y="0" height="65"/></clipPath><clipPath id="3d44b03147"><path d="M 184.378906 22.296875 L 225.558594 22.296875 L 225.558594 64.117188 L 184.378906 64.117188 Z M 184.378906 22.296875 " clip-rule="nonzero"/></clipPath><clipPath id="c1f49f7b35"><path d="M 184.378906 64.066406 C 184.378906 53.105469 188.773438 42.390625 196.441406 34.644531 C 204.109375 26.894531 214.714844 22.457031 225.558594 22.457031 L 225.558594 64.066406 Z M 184.378906 64.066406 " clip-rule="nonzero"/></clipPath><clipPath id="33b0cf6844"><path d="M 0.378906 0.296875 L 41.558594 0.296875 L 41.558594 42.117188 L 0.378906 42.117188 Z M 0.378906 0.296875 " clip-rule="nonzero"/></clipPath><clipPath id="21b1580112"><path d="M 0.378906 42.066406 C 0.378906 31.105469 4.773438 20.390625 12.441406 12.644531 C 20.109375 4.894531 30.714844 0.457031 41.558594 0.457031 L 41.558594 42.066406 Z M 0.378906 42.066406 " clip-rule="nonzero"/></clipPath><clipPath id="ff2a6b320e"><rect x="0" width="42" y="0" height="43"/></clipPath><clipPath id="8be005b5b4"><path d="M 165.398438 193.921875 L 223.058594 193.921875 L 223.058594 251.582031 L 165.398438 251.582031 Z M 165.398438 193.921875 " clip-rule="nonzero"/></clipPath><clipPath id="afe20b2c65"><path d="M 223.058594 222.753906 C 223.058594 206.832031 210.152344 193.921875 194.226562 193.921875 C 178.304688 193.921875 165.398438 206.832031 165.398438 222.753906 C 165.398438 238.675781 178.304688 251.582031 194.226562 251.582031 C 210.152344 251.582031 223.058594 238.675781 223.058594 222.753906 Z M 223.058594 222.753906 " clip-rule="nonzero"/></clipPath><clipPath id="12587b3281"><path d="M 0.398438 0.921875 L 58.058594 0.921875 L 58.058594 58.582031 L 0.398438 58.582031 Z M 0.398438 0.921875 " clip-rule="nonzero"/></clipPath><clipPath id="40231f307c"><path d="M 58.058594 29.753906 C 58.058594 13.832031 45.152344 0.921875 29.226562 0.921875 C 13.304688 0.921875 0.398438 13.832031 0.398438 29.753906 C 0.398438 45.675781 13.304688 58.582031 29.226562 58.582031 C 45.152344 58.582031 58.058594 45.675781 58.058594 29.753906 Z M 58.058594 29.753906 " clip-rule="nonzero"/></clipPath><clipPath id="9b81ca45ad"><rect x="0" width="59" y="0" height="59"/></clipPath><clipPath id="8adecff07d"><rect x="0" width="353" y="0" height="636"/></clipPath><clipPath id="d66a9e46c9"><rect x="0" width="353" y="0" height="636"/></clipPath></defs><g clip-path="url(#f91d227465)"><path fill="#ffffff" d="M 0 0.671875 L 352.5 0.671875 L 352.5 635.328125 L 0 635.328125 Z M 0 0.671875 " fill-opacity="1" fill-rule="nonzero"/><g mask="url(#71828599c8)"><g transform="matrix(1, 0, 0, 1, 0, 0.000000000000127343)"><g clip-path="url(#d66a9e46c9)"><g clip-path="url(#677a1cc506)"><g transform="matrix(1, 0, 0, 1, 0, 0.000000000000127343)"><g clip-path="url(#8adecff07d)"><g clip-path="url(#5b8b2340bb)"><g clip-path="url(#9319244d7b)"><g transform="matrix(1, 0, 0, 1, 98, 508)"><g clip-path="url(#4ba894c334)"><g clip-path="url(#22d6577265)"><g clip-path="url(#50cde1ebd6)"><path fill="#1d314f" d="M 63.714844 63.792969 L 0.332031 63.792969 L 0.332031 0.410156 L 63.714844 0.410156 Z M 63.714844 63.792969 " fill-opacity="1" fill-rule="nonzero"/></g></g></g></g></g></g><g clip-path="url(#5b4dacff70)"><g clip-path="url(#42e2a7f6b6)"><g transform="matrix(1, 0, 0, 1, 98, 508)"><g clip-path="url(#ce4d9fc9f3)"><g clip-path="url(#a4ed507720)"><g clip-path="url(#862abaa948)"><path fill="#5b92e3" d="M 0.339844 0.417969 L 63.722656 0.417969 L 63.722656 63.800781 L 0.339844 63.800781 Z M 0.339844 0.417969 " fill-opacity="1" fill-rule="nonzero"/></g></g></g></g></g></g><g clip-path="url(#066f4c6926)"><g transform="matrix(1, 0, 0, 1, 225, 445)"><g clip-path="url(#e25667e4b8)"><g clip-path="url(#4d1ab5561b)"><path fill="#405dac" d="M 63.476562 63.410156 L 0.0976562 63.410156 L 0.0976562 0.03125 L 63.476562 0.03125 Z M 63.476562 63.410156 " fill-opacity="1" fill-rule="nonzero"/></g></g></g></g><g clip-path="url(#04746e3828)"><g transform="matrix(1, 0, 0, 1, 161, 487)"><g clip-path="url(#48fdd7e263)"><g clip-path="url(#08f5b95caf)"><path fill="#789d53" d="M 0.71875 21.414062 L 0.71875 0.285156 L 64.101562 0.285156 L 64.101562 21.414062 Z M 0.71875 21.414062 " fill-opacity="1" fill-rule="nonzero"/></g></g></g></g><g mask="url(#74102736c0)"><g transform="matrix(1, 0, 0, 1, 161, 466)"><g clip-path="url(#29bb6087c3)"><g clip-path="url(#c323dfd9c9)"><g transform="matrix(1, 0, 0, 1, -0.000000000000028422, 0)"><g clip-path="url(#0d48b87a73)"><g clip-path="url(#fe84db924d)"><path fill="#789d53" d="M 0.71875 21.285156 L 0.71875 0.160156 L 64.101562 0.160156 L 64.101562 21.285156 Z M 0.71875 21.285156 " fill-opacity="1" fill-rule="nonzero"/></g></g></g></g></g></g></g><g mask="url(#0953872119)"><g transform="matrix(1, 0, 0, 1, 161, 444)"><g clip-path="url(#09d16c6075)"><g clip-path="url(#27731911b9)"><g transform="matrix(1, 0, 0, 1, -0.000000000000028422, 1)"><g clip-path="url(#6d31021403)"><g clip-path="url(#3a4d8cb361)"><path fill="#789d53" d="M 0.71875 21.160156 L 0.71875 0.03125 L 64.101562 0.03125 L 64.101562 21.160156 Z M 0.71875 21.160156 " fill-opacity="1" fill-rule="nonzero"/></g></g></g></g></g></g></g><g clip-path="url(#913eaf2a6f)"><g clip-path="url(#913a9b3308)"><g transform="matrix(1, 0, 0, 1, 263, 479)"><g clip-path="url(#e94aff3429)"><g clip-path="url(#65f64b16ec)"><g clip-path="url(#5e5ef06507)"><path fill="#405dac" d="M 7.871094 7.464844 L 0.875 7.464844 L 0.875 0.472656 L 7.871094 0.472656 Z M 7.871094 7.464844 " fill-opacity="1" fill-rule="nonzero"/></g></g></g></g></g></g><g clip-path="url(#203de4161d)"><g clip-path="url(#cd42103ea6)"><g transform="matrix(1, 0, 0, 1, 242, 479)"><g clip-path="url(#f4ecaf7f0c)"><g clip-path="url(#dfc13868a7)"><g clip-path="url(#d01dd7ecf2)"><path fill="#405dac" d="M 7.695312 7.464844 L 0.703125 7.464844 L 0.703125 0.472656 L 7.695312 0.472656 Z M 7.695312 7.464844 " fill-opacity="1" fill-rule="nonzero"/></g></g></g></g></g></g><g clip-path="url(#2a1ee1154a)"><g clip-path="url(#d07660c548)"><g transform="matrix(1, 0, 0, 1, 123, 128)"><g clip-path="url(#d93781f746)"><g clip-path="url(#52db7dc60d)"><g clip-path="url(#399978a1d1)"><path fill="#486c37" d="M 31.089844 17.863281 L 0.953125 17.863281 L 0.953125 0.90625 L 31.089844 0.90625 Z M 31.089844 17.863281 " fill-opacity="1" fill-rule="nonzero"/></g></g></g></g></g></g><g clip-path="url(#69ceb5f2e0)"><g clip-path="url(#b26029080c)"><g transform="matrix(1, 0, 0, 1, 129, 149)"><g clip-path="url(#e881074905)"><g clip-path="url(#a822d8ec30)"><g clip-path="url(#fe3fd294fa)"><path fill="#486c37" d="M 19.785156 19.644531 L 0.234375 19.644531 L 0.234375 0.09375 L 19.785156 0.09375 Z M 19.785156 19.644531 " fill-opacity="1" fill-rule="nonzero"/></g></g></g></g></g></g><g clip-path="url(#cb4f9e6bbf)"><g clip-path="url(#8ad4dbabbf)"><g transform="matrix(1, 0, 0, 1, 132, 176)"><g clip-path="url(#04a053767e)"><g clip-path="url(#afc8ba2f0d)"><g clip-path="url(#1b42bb76af)"><path fill="#789d53" d="M 13.652344 13.351562 L 0.371094 13.351562 L 0.371094 0.0664062 L 13.652344 0.0664062 Z M 13.652344 13.351562 " fill-opacity="1" fill-rule="nonzero"/></g></g></g></g></g></g><g clip-path="url(#1b16e90735)"><g clip-path="url(#1aa807b4c5)"><g transform="matrix(1, 0, 0, 1, 120, 405)"><g clip-path="url(#148dfc14f6)"><g clip-path="url(#eef61f7ee3)"><g clip-path="url(#c54402f3ed)"><path fill="#5b92e3" d="M 37.429688 37.320312 L 0.589844 37.320312 L 0.589844 0.484375 L 37.429688 0.484375 Z M 37.429688 37.320312 " fill-opacity="1" fill-rule="nonzero"/></g></g></g></g></g></g><g clip-path="url(#de38a974a4)"><g clip-path="url(#0f3e2f1b9d)"><g transform="matrix(1, 0, 0, 1, 98, 399)"><g clip-path="url(#453030f741)"><g clip-path="url(#3b3a8afe9e)"><g clip-path="url(#b7dd3f6d62)"><path fill="#5b92e3" d="M 22.589844 23.152344 L 0.183594 23.152344 L 0.183594 0.742188 L 22.589844 0.742188 Z M 22.589844 23.152344 " fill-opacity="1" fill-rule="nonzero"/></g></g></g></g></g></g><g clip-path="url(#fe9a1e70b7)"><g clip-path="url(#5b188a823e)"><g transform="matrix(1, 0, 0, 1, 241, 278)"><g clip-path="url(#bc2df85d12)"><g clip-path="url(#234602c498)"><g clip-path="url(#b0a932a7ab)"><path fill="#486c37" d="M 31.199219 31.480469 L 0.515625 31.480469 L 0.515625 0.796875 L 31.199219 0.796875 Z M 31.199219 31.480469 " fill-opacity="1" fill-rule="nonzero"/></g></g></g></g></g></g><g clip-path="url(#a47fa3f2a2)"><g transform="matrix(1, 0, 0, 1, 161, 423)"><g clip-path="url(#41a275a4b0)"><g clip-path="url(#e2b144de78)"><path fill="#e7f0fb" d="M 0.792969 22.03125 L 0.792969 0.90625 L 64.171875 0.90625 L 64.171875 22.03125 Z M 0.792969 22.03125 " fill-opacity="1" fill-rule="nonzero"/></g></g></g></g><g clip-path="url(#2b626d41b8)"><g transform="matrix(1, 0, 0, 1, 174, 402)"><g clip-path="url(#b624258f46)"><g clip-path="url(#3461a37aed)"><path fill="#e7f0fb" d="M 0.515625 21.902344 L 0.515625 0.773438 L 51.1875 0.773438 L 51.1875 21.902344 Z M 0.515625 21.902344 " fill-opacity="1" fill-rule="nonzero"/></g></g></g></g><g clip-path="url(#a59fa02f93)"><g transform="matrix(1, 0, 0, 1, 188, 381)"><g clip-path="url(#1ca72f37ba)"><g clip-path="url(#400518f657)"><path fill="#e7f0fb" d="M 0.519531 21.777344 L 0.519531 0.648438 L 37.164062 0.648438 L 37.164062 21.777344 Z M 0.519531 21.777344 " fill-opacity="1" fill-rule="nonzero"/></g></g></g></g><g mask="url(#042278eb9b)"><g transform="matrix(1, 0, 0, 1, 225, 349)"><g clip-path="url(#68e23432b1)"><g clip-path="url(#d87771d0e5)"><g transform="matrix(1, 0, 0, 1, -0.000000000000056843, 0.000000000000056843)"><g clip-path="url(#2fdfe34562)"><g clip-path="url(#7bc10a8d9f)"><path fill="#5b92e3" d="M 63.550781 32.648438 L 0.167969 32.648438 L 0.167969 0.957031 L 63.550781 0.957031 Z M 63.550781 32.648438 " fill-opacity="1" fill-rule="nonzero"/></g></g></g></g></g></g></g><g mask="url(#4e3f888583)"><g transform="matrix(1, 0, 0, 1, 267, 381)"><g clip-path="url(#0c116c6922)"><g clip-path="url(#5c06d2ec88)"><g transform="matrix(1, 0, 0, 1, -0.000000000000056843, 0.000000000000056843)"><g clip-path="url(#26208fe3d7)"><g clip-path="url(#85343fcf20)"><path fill="#486c37" d="M 21.550781 64.03125 L 0.421875 64.03125 L 0.421875 0.648438 L 21.550781 0.648438 Z M 21.550781 64.03125 " fill-opacity="1" fill-rule="nonzero"/></g></g></g></g></g></g></g><g mask="url(#581afabfed)"><g transform="matrix(1, 0, 0, 1, 246, 381)"><g clip-path="url(#a9c53269fc)"><g clip-path="url(#1c99c67cb4)"><g transform="matrix(1, 0, 0, 1, -0.000000000000056843, 0.000000000000056843)"><g clip-path="url(#eec15ff7d2)"><g clip-path="url(#890ee39fd8)"><path fill="#486c37" d="M 21.421875 64.03125 L 0.292969 64.03125 L 0.292969 0.648438 L 21.421875 0.648438 Z M 21.421875 64.03125 " fill-opacity="1" fill-rule="nonzero"/></g></g></g></g></g></g></g><g clip-path="url(#3b15cd46f8)"><g transform="matrix(1, 0, 0, 1, 225, 381)"><g clip-path="url(#a6e7118573)"><g clip-path="url(#ec6645b4fb)"><path fill="#486c37" d="M 21.292969 64.03125 L 0.167969 64.03125 L 0.167969 0.648438 L 21.292969 0.648438 Z M 21.292969 64.03125 " fill-opacity="1" fill-rule="nonzero"/></g></g></g></g><g clip-path="url(#234a51ff3b)"><g transform="matrix(1, 0, 0, 1, 225, 318)"><g clip-path="url(#afa896d8f6)"><g clip-path="url(#3b5187a04b)"><path fill="#5b92e3" d="M 63.550781 31.957031 L 0.167969 31.957031 L 0.167969 0.265625 L 63.550781 0.265625 Z M 63.550781 31.957031 " fill-opacity="1" fill-rule="nonzero"/></g></g></g></g><g clip-path="url(#e6846e264c)"><g clip-path="url(#813a756e03)"><g transform="matrix(1, 0, 0, 1, 172, 286)"><g clip-path="url(#f83e0dfb91)"><g clip-path="url(#3fe772973e)"><g clip-path="url(#ac35a3bf57)"><path fill="#486c37" d="M 0.710938 0.648438 L 32.332031 0.648438 L 32.332031 32.269531 L 0.710938 32.269531 Z M 0.710938 0.648438 " fill-opacity="1" fill-rule="nonzero"/></g></g></g></g></g></g><g clip-path="url(#a621d2ac21)"><g clip-path="url(#384e125cec)"><g transform="matrix(1, 0, 0, 1, 183, 297)"><g clip-path="url(#ca9abed64e)"><g clip-path="url(#fdef38c69d)"><g clip-path="url(#42d6a94827)"><path fill="#789d53" d="M 0.546875 0.484375 L 21.328125 0.484375 L 21.328125 21.269531 L 0.546875 21.269531 Z M 0.546875 0.484375 " fill-opacity="1" fill-rule="nonzero"/></g></g></g></g></g></g><g clip-path="url(#543eb19599)"><g transform="matrix(1, 0, 0, 1, 204, 275)"><g clip-path="url(#301d96a920)"><g clip-path="url(#4492ac8dc3)"><path fill="#1d314f" d="M 21.167969 106.648438 L 0.0390625 106.648438 L 0.0390625 0.765625 L 21.167969 0.765625 Z M 21.167969 106.648438 " fill-opacity="1" fill-rule="nonzero"/></g></g></g></g><g clip-path="url(#3b0897dda7)"><g clip-path="url(#2025ec8a3d)"><g transform="matrix(1, 0, 0, 1, 141, 317)"><g clip-path="url(#89039bba69)"><g clip-path="url(#d7a63fc298)"><g clip-path="url(#6ca11f82f1)"><path fill="#5b92e3" d="M 63.328125 32.957031 L 0.101562 32.957031 L 0.101562 0.714844 L 63.328125 0.714844 Z M 63.328125 32.957031 " fill-opacity="1" fill-rule="nonzero"/></g></g></g></g></g></g><g clip-path="url(#97bd8d7e58)"><g transform="matrix(1, 0, 0, 1, 225, 508)"><g clip-path="url(#ccfcfed627)"><g clip-path="url(#8a640c1b73)"><path fill="#e7f0fb" d="M 31.785156 63.792969 L 0.0976562 63.792969 L 0.0976562 0.410156 L 31.785156 0.410156 Z M 31.785156 63.792969 " fill-opacity="1" fill-rule="nonzero"/></g></g></g></g><g clip-path="url(#ea169cf79d)"><g clip-path="url(#98db3303e5)"><g transform="matrix(1, 0, 0, 1, 128, 571)"><g clip-path="url(#af67a338a3)"><g clip-path="url(#a5d53c5529)"><g clip-path="url(#d6fd357b43)"><path fill="#789d53" d="M 0.113281 64.171875 L 0.113281 0.695312 L 34.910156 0.695312 L 34.910156 64.171875 Z M 0.113281 64.171875 " fill-opacity="1" fill-rule="nonzero"/></g></g></g></g></g></g><g clip-path="url(#5c04d3f1c2)"><g transform="matrix(1, 0, 0, 1, 161, 571)"><g clip-path="url(#dee1ea7258)"><g clip-path="url(#d4f8f61276)"><path fill="#5b92e3" d="M 64.097656 64.175781 L 0.714844 64.175781 L 0.714844 0.792969 L 64.097656 0.792969 Z M 64.097656 64.175781 " fill-opacity="1" fill-rule="nonzero"/></g></g></g></g><g clip-path="url(#6ff67e7610)"><g transform="matrix(1, 0, 0, 1, 256, 508)"><g clip-path="url(#922f259cd5)"><g clip-path="url(#6c96d67400)"><path fill="#e7f0fb" d="M 32.476562 63.6875 L 0.785156 63.6875 L 0.785156 0.304688 L 32.476562 0.304688 Z M 32.476562 63.6875 " fill-opacity="1" fill-rule="nonzero"/></g></g></g></g><g clip-path="url(#58041ff800)"><g clip-path="url(#a305e8abe2)"><g transform="matrix(1, 0, 0, 1, 193, 540)"><g clip-path="url(#41de6176e6)"><g clip-path="url(#0d26f1d4b9)"><g clip-path="url(#5ff22d10f4)"><path fill="#486c37" d="M 0.410156 0.175781 L 32.03125 0.175781 L 32.03125 31.796875 L 0.410156 31.796875 Z M 0.410156 0.175781 " fill-opacity="1" fill-rule="nonzero"/></g></g></g></g></g></g><g clip-path="url(#0c1a71f55d)"><g clip-path="url(#7c246ee5e4)"><g transform="matrix(1, 0, 0, 1, 204, 551)"><g clip-path="url(#98d2b26eef)"><g clip-path="url(#d7c2e9cce9)"><g clip-path="url(#bdcedc7c00)"><path fill="#789d53" d="M 0.246094 0.0117188 L 21.027344 0.0117188 L 21.027344 20.792969 L 0.246094 20.792969 Z M 0.246094 0.0117188 " fill-opacity="1" fill-rule="nonzero"/></g></g></g></g></g></g><g clip-path="url(#3f2b8788ab)"><g clip-path="url(#9ecf135596)"><g transform="matrix(1, 0, 0, 1, 78, 581)"><g clip-path="url(#752912dd25)"><g clip-path="url(#fa7dde88c5)"><g clip-path="url(#c59e3b2156)"><path fill="#789d53" d="M 0.277344 0.921875 L 43.210938 0.921875 L 43.210938 43.855469 L 0.277344 43.855469 Z M 0.277344 0.921875 " fill-opacity="1" fill-rule="nonzero"/></g></g></g></g></g></g><g clip-path="url(#a2ef830934)"><g transform="matrix(1, 0, 0, 1, 55, 445)"><g clip-path="url(#65c381ec7a)"><g clip-path="url(#a405c6f6d1)"><path fill="#1d314f" d="M 106.710938 0.0351562 L 106.710938 21.160156 L 0.828125 21.160156 L 0.828125 0.0351562 Z M 106.710938 0.0351562 " fill-opacity="1" fill-rule="nonzero"/></g></g></g></g><g clip-path="url(#06790070b4)"><g transform="matrix(1, 0, 0, 1, 288, 296)"><g clip-path="url(#2bc535fb7a)"><g clip-path="url(#6bb031b0b5)"><path fill="#e7f0fb" d="M 0.554688 21.71875 L 0.554688 0.589844 L 63.9375 0.589844 L 63.9375 21.71875 Z M 0.554688 21.71875 " fill-opacity="1" fill-rule="nonzero"/></g></g></g></g><g mask="url(#1b807ffdb4)"><g transform="matrix(1, 0, 0, 1, 288, 275)"><g clip-path="url(#7e5ade30ed)"><g clip-path="url(#7c40129a2d)"><g transform="matrix(1, 0, 0, 1, -0.000000000000056843, 0.000000000000056843)"><g clip-path="url(#2020017718)"><g clip-path="url(#34e60903d5)"><path fill="#e7f0fb" d="M 0.6875 21.585938 L 0.6875 0.460938 L 51.359375 0.460938 L 51.359375 21.585938 Z M 0.6875 21.585938 " fill-opacity="1" fill-rule="nonzero"/></g></g></g></g></g></g></g><g mask="url(#f8af74849b)"><g transform="matrix(1, 0, 0, 1, 288, 254)"><g clip-path="url(#99f8022273)"><g clip-path="url(#73f12e87ec)"><g transform="matrix(1, 0, 0, 1, -0.000000000000056843, 0.000000000000085265)"><g clip-path="url(#6ad495a5b5)"><g clip-path="url(#ca68ee9072)"><path fill="#e7f0fb" d="M 0.554688 21.566406 L 0.554688 0.441406 L 37.195312 0.441406 L 37.195312 21.566406 Z M 0.554688 21.566406 " fill-opacity="1" fill-rule="nonzero"/></g></g></g></g></g></g></g><g clip-path="url(#c03eb954e3)"><g clip-path="url(#6b66eea47e)"><g transform="matrix(1, 0, 0, 1, 14, 216)"><g clip-path="url(#86c90d6246)"><g clip-path="url(#39a56f3518)"><g clip-path="url(#f25f9cb5e5)"><path fill="#486c37" d="M 18.34375 0.382812 L 18.34375 18.019531 L 0.707031 18.019531 L 0.707031 0.382812 Z M 18.34375 0.382812 " fill-opacity="1" fill-rule="nonzero"/></g></g></g></g></g></g><g clip-path="url(#f8be76a90b)"><g clip-path="url(#b88279e0fe)"><g transform="matrix(1, 0, 0, 1, 42, 216)"><g clip-path="url(#4155899889)"><g clip-path="url(#4b69c226bf)"><g clip-path="url(#363191f368)"><path fill="#789d53" d="M 17.976562 0.382812 L 17.976562 18.019531 L 0.339844 18.019531 L 0.339844 0.382812 Z M 17.976562 0.382812 " fill-opacity="1" fill-rule="nonzero"/></g></g></g></g></g></g><g mask="url(#900b48b99d)"><g transform="matrix(1, 0, 0, 1, 154, 56)"><g clip-path="url(#653e4a9a57)"><g clip-path="url(#20d52cdecf)"><g clip-path="url(#9eb9376b60)"><g clip-path="url(#86981c9829)"><g transform="matrix(1, 0, 0, 1, 13, 12)"><g clip-path="url(#71302c81d9)"><g clip-path="url(#1a06047edb)"><g clip-path="url(#469c2b1f5a)"><g clip-path="url(#62704ed3e3)"><path fill="#5b92e3" d="M 65.960938 27.75 L 26.933594 66.777344 L -12.09375 27.75 L 26.933594 -11.277344 Z M 65.960938 27.75 " fill-opacity="1" fill-rule="nonzero"/></g></g></g></g></g></g></g></g></g></g></g><g clip-path="url(#4abef6ad6b)"><g transform="matrix(1, 0, 0, 1, 225, 190)"><g clip-path="url(#957d16ffed)"><g clip-path="url(#fd8443ed05)"><path fill="#5b92e3" d="M 63.410156 64.199219 L 0.0273438 64.199219 L 0.0273438 0.816406 L 63.410156 0.816406 Z M 63.410156 64.199219 " fill-opacity="1" fill-rule="nonzero"/></g></g></g></g><g clip-path="url(#29e8306263)"><g transform="matrix(1, 0, 0, 1, 225, 127)"><g clip-path="url(#56231ce935)"><g clip-path="url(#f6b15f9b6c)"><path fill="#789d53" d="M 63.40625 0.441406 L 63.40625 21.570312 L 0.0234375 21.570312 L 0.0234375 0.441406 Z M 63.40625 0.441406 " fill-opacity="1" fill-rule="nonzero"/></g></g></g></g><g mask="url(#1ac675d26f)"><g transform="matrix(1, 0, 0, 1, 224, 148)"><g clip-path="url(#f37fa99450)"><g clip-path="url(#f9eddd6015)"><g transform="matrix(1, 0, 0, 1, 1, 0.000000000000113687)"><g clip-path="url(#747301a895)"><g clip-path="url(#909be16c0a)"><path fill="#789d53" d="M 63.40625 0.570312 L 63.40625 21.695312 L 0.0234375 21.695312 L 0.0234375 0.570312 Z M 63.40625 0.570312 " fill-opacity="1" fill-rule="nonzero"/></g></g></g></g></g></g></g><g mask="url(#4111742999)"><g transform="matrix(1, 0, 0, 1, 224, 169)"><g clip-path="url(#83d29c57d4)"><g clip-path="url(#39dcba9d2a)"><g transform="matrix(1, 0, 0, 1, 1, 0.000000000000113687)"><g clip-path="url(#3ebf834c46)"><g clip-path="url(#4274b25376)"><path fill="#789d53" d="M 63.40625 0.695312 L 63.40625 21.824219 L 0.0234375 21.824219 L 0.0234375 0.695312 Z M 63.40625 0.695312 " fill-opacity="1" fill-rule="nonzero"/></g></g></g></g></g></g></g><g clip-path="url(#43871307c0)"><g transform="matrix(1, 0, 0, 1, 161, 127)"><g clip-path="url(#59dcf990f9)"><g clip-path="url(#7e6b283a1b)"><path fill="#405dac" d="M 64.027344 63.816406 L 0.644531 63.816406 L 0.644531 0.4375 L 64.027344 0.4375 Z M 64.027344 63.816406 " fill-opacity="1" fill-rule="nonzero"/></g></g></g></g><g clip-path="url(#5f207a2bd3)"><g clip-path="url(#e36060a04f)"><g transform="matrix(1, 0, 0, 1, 288, 64)"><g clip-path="url(#e7b6364cd7)"><g clip-path="url(#20703453d3)"><g clip-path="url(#454f7aa7c9)"><path fill="#1d314f" d="M 64.070312 63.4375 L 0.6875 63.4375 L 0.6875 0.0546875 L 64.070312 0.0546875 Z M 64.070312 63.4375 " fill-opacity="1" fill-rule="nonzero"/></g></g></g></g></g></g><g clip-path="url(#22349a1e16)"><g clip-path="url(#c23db040a0)"><g transform="matrix(1, 0, 0, 1, 288, 64)"><g clip-path="url(#e9e5120f3f)"><g clip-path="url(#69b3b5a00f)"><g clip-path="url(#8c91551ffd)"><path fill="#789d53" d="M 0.695312 0.0625 L 64.078125 0.0625 L 64.078125 63.445312 L 0.695312 63.445312 Z M 0.695312 0.0625 " fill-opacity="1" fill-rule="nonzero"/></g></g></g></g></g></g><g clip-path="url(#bf6da5935f)"><g transform="matrix(1, 0, 0, 1, 140, 191)"><g clip-path="url(#1aed74d2f5)"><g clip-path="url(#d8e8d7aecb)"><path fill="#e7f0fb" d="M 21.566406 63.4375 L 0.4375 63.4375 L 0.4375 0.0585938 L 21.566406 0.0585938 Z M 21.566406 63.4375 " fill-opacity="1" fill-rule="nonzero"/></g></g></g></g><g clip-path="url(#bcc70a8178)"><g transform="matrix(1, 0, 0, 1, 119, 191)"><g clip-path="url(#dd0a6015ee)"><g clip-path="url(#ed917e0d06)"><path fill="#e7f0fb" d="M 21.4375 50.710938 L 0.3125 50.710938 L 0.3125 0.0390625 L 21.4375 0.0390625 Z M 21.4375 50.710938 " fill-opacity="1" fill-rule="nonzero"/></g></g></g></g><g clip-path="url(#7526593581)"><g transform="matrix(1, 0, 0, 1, 98, 191)"><g clip-path="url(#a10e3828ba)"><g clip-path="url(#c897c76d8f)"><path fill="#e7f0fb" d="M 21.3125 36.707031 L 0.183594 36.707031 L 0.183594 0.0664062 L 21.3125 0.0664062 Z M 21.3125 36.707031 " fill-opacity="1" fill-rule="nonzero"/></g></g></g></g><g clip-path="url(#202a977b26)"><g clip-path="url(#0fad269037)"><g transform="matrix(1, 0, 0, 1, 0, 226)"><g clip-path="url(#cfcc558e95)"><g clip-path="url(#3ceeaa08ac)"><g clip-path="url(#0af729eecc)"><path fill="#789d53" d="M 139.011719 139.800781 L -0.00390625 139.800781 L -0.00390625 0.785156 L 139.011719 0.785156 Z M 139.011719 139.800781 " fill-opacity="1" fill-rule="nonzero"/></g></g></g></g></g></g><g clip-path="url(#ada2033955)"><g mask="url(#1ccd776734)"><g transform="matrix(1, 0, 0, 1, 288, 444)"><g clip-path="url(#330efac380)"><g clip-path="url(#afebf88f29)"><g transform="matrix(1, 0, 0, 1, -0.000000000000056843, 1)"><g clip-path="url(#5ec9a43bd9)"><g clip-path="url(#895aaaa225)"><path fill="#789d53" d="M 0.695312 63.308594 L 0.695312 0.03125 L 63.96875 0.03125 L 63.96875 63.308594 Z M 0.695312 63.308594 " fill-opacity="1" fill-rule="nonzero"/></g></g></g></g></g></g></g></g><g clip-path="url(#49c61e4dad)"><g transform="matrix(1, 0, 0, 1, 267, 64)"><g clip-path="url(#a332158f55)"><g clip-path="url(#dbc0f2c1cf)"><path fill="#1d314f" d="M 21.6875 63.4375 L 0.558594 63.4375 L 0.558594 0.0546875 L 21.6875 0.0546875 Z M 21.6875 63.4375 " fill-opacity="1" fill-rule="nonzero"/></g></g></g></g><g mask="url(#adf3d360e5)"><g transform="matrix(1, 0, 0, 1, 246, 76)"><g clip-path="url(#875fef2b27)"><g clip-path="url(#eef6ce995b)"><g transform="matrix(1, 0, 0, 1, -0.000000000000056843, 0.000000000000113687)"><g clip-path="url(#3fa719e05f)"><g clip-path="url(#cd6f0918f3)"><path fill="#1d314f" d="M 21.558594 51.4375 L 0.433594 51.4375 L 0.433594 0.765625 L 21.558594 0.765625 Z M 21.558594 51.4375 " fill-opacity="1" fill-rule="nonzero"/></g></g></g></g></g></g></g><g mask="url(#ddfe42f5ad)"><g transform="matrix(1, 0, 0, 1, 225, 90)"><g clip-path="url(#3136b3572a)"><g clip-path="url(#6694cba3a1)"><g transform="matrix(1, 0, 0, 1, -0.000000000000056843, 0.000000000000113687)"><g clip-path="url(#39cbe6de9b)"><g clip-path="url(#f329bbbfaf)"><path fill="#1d314f" d="M 21.398438 37.4375 L 0.273438 37.4375 L 0.273438 0.792969 L 21.398438 0.792969 Z M 21.398438 37.4375 " fill-opacity="1" fill-rule="nonzero"/></g></g></g></g></g></g></g><g clip-path="url(#e8732abb92)"><g mask="url(#0792d83f93)"><g transform="matrix(1, 0, 0, 1, 224, 0.000000000000127343)"><g clip-path="url(#208f3b98eb)"><g clip-path="url(#8d43655d2f)"><g transform="matrix(1, 0, 0, 1, 1, 0.000000000000127343)"><g clip-path="url(#10a8a4de90)"><g clip-path="url(#5b5b68a806)"><path fill="#405dac" d="M 63.410156 64.054688 L 0.0273438 64.054688 L 0.0273438 0.671875 L 63.410156 0.671875 Z M 63.410156 64.054688 " fill-opacity="1" fill-rule="nonzero"/></g></g></g></g></g></g></g></g><g clip-path="url(#c817ad9da7)"><g clip-path="url(#d2654943f7)"><g transform="matrix(1, 0, 0, 1, 162, 0.000000000000127343)"><g clip-path="url(#5632077011)"><g clip-path="url(#192272abeb)"><g clip-path="url(#ed214f0bad)"><path fill="#486c37" d="M 0.910156 0.746094 L 63.570312 0.746094 L 63.570312 64.140625 L 0.910156 64.140625 Z M 0.910156 0.746094 " fill-opacity="1" fill-rule="nonzero"/></g></g></g></g></g></g><g clip-path="url(#3d44b03147)"><g clip-path="url(#c1f49f7b35)"><g transform="matrix(1, 0, 0, 1, 184, 22)"><g clip-path="url(#ff2a6b320e)"><g clip-path="url(#33b0cf6844)"><g clip-path="url(#21b1580112)"><path fill="#789d53" d="M 0.378906 0.457031 L 41.558594 0.457031 L 41.558594 42.117188 L 0.378906 42.117188 Z M 0.378906 0.457031 " fill-opacity="1" fill-rule="nonzero"/></g></g></g></g></g></g><g clip-path="url(#8be005b5b4)"><g clip-path="url(#afe20b2c65)"><g transform="matrix(1, 0, 0, 1, 165, 193)"><g clip-path="url(#9b81ca45ad)"><g clip-path="url(#12587b3281)"><g clip-path="url(#40231f307c)"><path fill="#486c37" d="M 58.058594 0.921875 L 58.058594 58.582031 L 0.398438 58.582031 L 0.398438 0.921875 Z M 58.058594 0.921875 " fill-opacity="1" fill-rule="nonzero"/></g></g></g></g></g></g></g></g></g></g></g></g></g></svg>