<svg xmlns="http://www.w3.org/2000/svg" viewBox="0 0 240 240" width="240" height="240" aria-label="Care.ai logo">
  <circle cx="120" cy="120" r="112" fill="#f0f0ee"/>
  <!-- green heart with circuit branch inside -->
  <path d="M78 108 C78 90 90 82 100 82 C110 82 118 90 120 98 C122 90 130 82 140 82 C150 82 162 90 162 108 C162 128 140 148 120 164 C100 148 78 128 78 108 Z"
        fill="#3a8c2a"/>
  <!-- circuit Y-branch inside heart (cream/white lines + dots) -->
  <line x1="120" y1="148" x2="120" y2="118" stroke="#f0f0ee" stroke-width="2.5" stroke-linecap="round"/>
  <line x1="120" y1="118" x2="104" y2="104" stroke="#f0f0ee" stroke-width="2.5" stroke-linecap="round"/>
  <line x1="120" y1="118" x2="136" y2="104" stroke="#f0f0ee" stroke-width="2.5" stroke-linecap="round"/>
  <circle cx="104" cy="104" r="4" fill="#f0f0ee"/>
  <circle cx="136" cy="104" r="4" fill="#f0f0ee"/>
  <circle cx="120" cy="118" r="4" fill="#f0f0ee"/>
  <!-- "Care.ai" text to the right of heart -->
  <text x="172" y="114" font-family="'Helvetica Neue', Arial, sans-serif"
        font-weight="700" font-size="22" fill="#2d2d3a">Care</text>
  <text x="172" y="136" font-family="'Helvetica Neue', Arial, sans-serif"
        font-weight="700" font-size="22" fill="#3a8c2a">.ai</text>
</svg>
