<svg xmlns="http://www.w3.org/2000/svg" viewBox="0 0 240 240" width="240" height="240" aria-label="Ripple logo">
  <circle cx="120" cy="120" r="112" fill="#f5ede4"/>
  <!-- wave-in-circle icon, left side -->
  <!-- outer circle -->
  <circle cx="78" cy="118" r="30" fill="none" stroke="#1e6fa4" stroke-width="3.5"/>
  <!-- 3 wavy horizontal lines inside circle -->
  <path d="M58 110 Q63 106 68 110 Q73 114 78 110 Q83 106 88 110 Q93 114 98 110"
        fill="none" stroke="#1e6fa4" stroke-width="2.8" stroke-linecap="round"/>
  <path d="M57 118 Q62 114 67 118 Q72 122 77 118 Q82 114 87 118 Q92 122 97 118"
        fill="none" stroke="#1e6fa4" stroke-width="2.8" stroke-linecap="round"/>
  <path d="M58 126 Q63 122 68 126 Q73 130 78 126 Q83 122 88 126 Q93 130 98 126"
        fill="none" stroke="#1e6fa4" stroke-width="2.8" stroke-linecap="round"/>
  <!-- "ripple" text to the right -->
  <text x="118" y="126" font-family="'Helvetica Neue', Arial, sans-serif"
        font-weight="700" font-size="34" fill="#1e6fa4" letter-spacing="-0.5">ripple</text>
</svg>
